<svg id="圖層_1" data-name="圖層 1" xmlns="http://www.w3.org/2000/svg" viewBox="0 0 1920 1080"><defs><style>.cls-1{fill:#4e6577;}.cls-2{fill:#8393a0;}</style></defs><path class="cls-1" d="M1071.15,345.38l165.17,303.8c6.58.68,13.19,1.06,19.81,1.23L1094.37,352.87Zm-40.23-13L1199.6,642.67c7.12,1.8,14.31,3.27,21.57,4.46l-167-307.24Zm80.48,25.95,158.76,292c6.16-.19,12.33-.55,18.5-1.19L1134.61,365.85Zm40.23,13,150.14,276.14c5.78-.9,11.56-2,17.31-3.35l-144.23-265.3Zm-142-17.11,149.15,274.35a257.32,257.32,0,0,0,24.16,9.24L1015,328.93A254,254,0,0,0,1009.61,354.23Zm182.26,30.09L1331.41,641c5.48-1.54,10.94-3.22,16.35-5.15l-132.67-244Zm-185,25.84,103.49,190.35a255.81,255.81,0,0,0,29.27,18.62L1007.11,375.47A255.79,255.79,0,0,0,1006.82,410.16Zm225.29-12.87,127.27,234.09q7.74-3.2,15.37-6.94L1255.33,404.78Zm264.65,85.36-23.22-7.49,18,33.12c3.14-6.34,6-12.77,8.64-19.33Zm-459.32,34.17a255.89,255.89,0,0,0,46.94,61.82l-73.3-134.83A255.65,255.65,0,0,0,1037.44,516.82Zm395.86-54.64,41.11,75.6q5.41-8,10.21-16.42l-28.1-51.69Zm-120.71-38.93,97.85,180q7-5,13.55-10.29l-88.19-162.2Zm80.47,25.95L1455,563.11c4-4.59,7.8-9.34,11.44-14.17l-50.15-92.25Zm-120.71-38.93,113.35,208.5c5-2.73,9.75-5.63,14.45-8.63L1295.56,417.76Zm80.47,26,80.75,148.52c4.34-3.9,8.57-7.9,12.6-12l-70.13-129Z"/><path class="cls-2" d="M1031.33,332.56l-10.94-20.12c2.36-6.95,5-13.79,8-20.52L1054.54,340l17,5.49-36.67-67.45c3-5.88,6.28-11.64,9.75-17.29L1094.78,353l17,5.49L1052.29,249c3.5-5.07,7.16-10,11-14.88L1135,366l17,5.49-80.14-147.4c3.91-4.37,8-8.6,12.24-12.71L1175.26,379l17,5.49-98.8-181.73c4.27-3.76,8.65-7.43,13.21-10.93L1215.5,392l17,5.49L1116.74,184.49q6.9-4.76,14.18-9.13l124.82,229.57,17,5.49L1141.64,169.25c5-2.67,10-5.12,15.1-7.44L1296,417.91l17,5.49L1168.13,156.94q7.95-3.16,16-5.78l152.07,279.73,17,5.49-157-288.81c5.63-1.52,11.28-2.9,17-4l163.27,300.31,17,5.49L1226,141.37c6-.88,12.07-1.47,18.11-1.91l172.55,317.38,17,5.49L1257.84,138.84q9.69-.18,19.33.35l179.75,330.63,17,5.49-182-334.81c7,.81,14,1.87,20.92,3.26l184.32,339L1920,619.17V0H.21Zm456.24-60.09a255,255,0,0,1,30.14,100.23l-97.87-180A254.89,254.89,0,0,1,1487.57,272.47Zm-90.26-95.41,121.26,223a256.29,256.29,0,0,1-2.47,30.68L1370.22,162.45A255,255,0,0,1,1397.31,177.06ZM1352.12,155,1512.54,450q-2.64,11.89-6.39,23.47L1329,147.57Q1340.71,150.72,1352.12,155Z"/></svg>