<svg xmlns="http://www.w3.org/2000/svg" viewBox="0 0 256.26 203.9"><defs><style>.cls-1{opacity:0.48;}.cls-2{fill:#f9760b;}.cls-3{fill:#f2de79;}</style></defs><g id="圖層_2" data-name="圖層 2"><g id="圖層_1-2" data-name="圖層 1"><g class="cls-1"><path class="cls-2" d="M12.49,167.16l3,1.49a14.6,14.6,0,0,0-1.41,6.75,15.88,15.88,0,0,0,1.81,6.81,15.49,15.49,0,0,0,5.16,5.89,13.92,13.92,0,0,0,7.06,2.49,14.09,14.09,0,0,0,7.39-1.6,13.55,13.55,0,0,0,7.17-8.47A15.13,15.13,0,0,0,41.44,169a15.43,15.43,0,0,0-10.38-8.24l.56-3.32a17.3,17.3,0,0,1,7.3,3.47,20.36,20.36,0,0,1,5.43,6.84q4.08,8,1.22,15.31a17.43,17.43,0,0,1-8.67,9.3,16.47,16.47,0,0,1-13.43.91A18.43,18.43,0,0,1,13,183.74a19.7,19.7,0,0,1-2.27-8.57A16.62,16.62,0,0,1,12.49,167.16Z"/><path class="cls-2" d="M.08,137.36a18,18,0,0,1,4-13.42,16.73,16.73,0,0,1,12-6.27A16.82,16.82,0,0,1,29,121.84a17.55,17.55,0,0,1,6.18,12.29,17.74,17.74,0,0,1-4,13.26,16.58,16.58,0,0,1-11.87,6.26A17.5,17.5,0,0,1,10.14,152a17.17,17.17,0,0,1-7-6A17.76,17.76,0,0,1,.08,137.36Zm3.24-.43a14.34,14.34,0,0,0,2.53,7A14.08,14.08,0,0,0,19,150.12a13.54,13.54,0,0,0,9.71-5.06,14.11,14.11,0,0,0,3.24-10.53,14.85,14.85,0,0,0-2.5-7.2,13.72,13.72,0,0,0-5.6-4.85,14.25,14.25,0,0,0-7.43-1.28,13.87,13.87,0,0,0-7,2.5,14.07,14.07,0,0,0-4.7,5.77A14.74,14.74,0,0,0,3.32,136.93Z"/><path class="cls-2" d="M6.13,85.86a18,18,0,0,1,9-10.75,16.75,16.75,0,0,1,13.53-1A16.87,16.87,0,0,1,38.8,83a17.56,17.56,0,0,1,.8,13.74,17.71,17.71,0,0,1-8.93,10.58,16.56,16.56,0,0,1-13.38,1,17.48,17.48,0,0,1-7.73-5.11,17.17,17.17,0,0,1-4.05-8.23A17.82,17.82,0,0,1,6.13,85.86Zm3.14.89a14.24,14.24,0,0,0-.45,7.45,14.09,14.09,0,0,0,3.26,6.71,14.35,14.35,0,0,0,6.33,4.14,13.52,13.52,0,0,0,10.91-.81,14.12,14.12,0,0,0,7.15-8.38,14.82,14.82,0,0,0,.55-7.6,13.63,13.63,0,0,0-3.22-6.67,14.23,14.23,0,0,0-6.32-4.12A13.89,13.89,0,0,0,20,77a14.11,14.11,0,0,0-6.6,3.43A14.85,14.85,0,0,0,9.27,86.75Z"/><path class="cls-2" d="M21.37,56.16l2.05-2.74L47.65,71.59,55.57,61,58.16,63l-10,13.3Z"/><path class="cls-2" d="M84.4,12.9,83,16a14.75,14.75,0,0,0-6.77-1.28,16.13,16.13,0,0,0-6.77,1.94,15.54,15.54,0,0,0-5.8,5.28A13.84,13.84,0,0,0,63,36.36a13.51,13.51,0,0,0,8.61,7,15.07,15.07,0,0,0,11.5-1.48,15.44,15.44,0,0,0,8-10.54l3.32.5a17.11,17.11,0,0,1-3.32,7.36,20.41,20.41,0,0,1-6.73,5.57q-8,4.23-15.28,1.51A17.41,17.41,0,0,1,59.7,37.8a16.41,16.41,0,0,1-1.17-13.41,18.44,18.44,0,0,1,9.3-10.66,19.75,19.75,0,0,1,8.53-2.44A16.7,16.7,0,0,1,84.4,12.9Z"/><path class="cls-2" d="M97.09,3.25l3.39-.46,1.88,13.93,17.3-2.33L117.78.46l3.4-.46,4.47,33.22-3.39.46-2.16-16L102.8,20,105,36l-3.4.46Z"/><path class="cls-2" d="M134.45.73l3.41.26-2.58,33.42-3.41-.26Z"/><path class="cls-2" d="M149.69,2.44l3.33.8L146,32.69l12.82,3.08L158,38.92,141.87,35Z"/><path class="cls-2" d="M176,10.25l3.09,1.48L166,39l11.9,5.71-1.4,2.92-15-7.19Z"/><path class="cls-2" d="M232.19,63.51l-3.59-.45a20.41,20.41,0,0,0-.83-7.5,17.12,17.12,0,0,0-3.18-6,16.08,16.08,0,0,0-6.42-4.64,14.13,14.13,0,0,0-7.65-1,13.31,13.31,0,0,0-6.66,3,13.62,13.62,0,0,0-4.18,6.21,14.62,14.62,0,0,0-.42,7.83,16.77,16.77,0,0,0,3.65,7.4,14,14,0,0,0,8,5,11.45,11.45,0,0,0,8.59-1.54l-7-8.38,2.48-2.08,9.49,11.33q-6,4.95-12.49,4.31T200.4,70.31q-6.1-7.29-4.81-15.6a16.66,16.66,0,0,1,5.91-10.52,17,17,0,0,1,8.37-3.81,17.19,17.19,0,0,1,9.23,1,19.88,19.88,0,0,1,8,5.92,21.89,21.89,0,0,1,4.08,7.27A24.53,24.53,0,0,1,232.19,63.51Z"/><path class="cls-2" d="M242.82,73.08l1.49,3.09-30.23,14.5-1.48-3.09Z"/><path class="cls-2" d="M249.52,88.05l1.73,6.6a42.18,42.18,0,0,1,1.52,7.6,8.87,8.87,0,0,1-1.58,5.55,8.29,8.29,0,0,1-4.87,3.25,8.8,8.8,0,0,1-5-.06,8.12,8.12,0,0,1-4-2.84,17.57,17.57,0,0,1-2.76-6.27l-11.93,15.87-1.08-4.1,11.94-15.87L233,95.91,218,99.85l-.87-3.31Zm-2.3,4.14-11,2.89,1.45,5.72a14.86,14.86,0,0,0,1.91,4.75,5.23,5.23,0,0,0,2.62,2,5.6,5.6,0,0,0,3.27.1,5.42,5.42,0,0,0,2.72-1.68,5.23,5.23,0,0,0,1.29-2.87,15.49,15.49,0,0,0-.7-5Z"/><path class="cls-2" d="M256.23,122.42l0,3.43-30.28.3.13,13.19-3.24,0-.16-16.62Z"/><path class="cls-2" d="M229.13,140.89l1.05,3.21q-6.08,1.83-6.93,5.77a7,7,0,0,0,.08,3.33,5.62,5.62,0,0,0,1.57,2.7,5.38,5.38,0,0,0,2.57,1.37,5.6,5.6,0,0,0,3.48-.43,27.45,27.45,0,0,0,6.5-4.6,30.26,30.26,0,0,1,5.61-4.24,8.32,8.32,0,0,1,5.4-.68,7.62,7.62,0,0,1,3.67,1.9,7.53,7.53,0,0,1,2.13,3.55,9,9,0,0,1,.11,4.35,9.28,9.28,0,0,1-2.11,4.18,15.34,15.34,0,0,1-5.17,3.44l-1.43-3.17a13.48,13.48,0,0,0,3.93-2.52,5.82,5.82,0,0,0,1.41-2.73,4.82,4.82,0,0,0-.48-3.58,4,4,0,0,0-2.68-1.93,5.12,5.12,0,0,0-2.17,0,7.9,7.9,0,0,0-2.55,1.19c-.51.35-1.91,1.56-4.21,3.61a24.55,24.55,0,0,1-6.89,4.75,9.09,9.09,0,0,1-5.27.55,8.46,8.46,0,0,1-5.59-4.12,9.6,9.6,0,0,1-1.16-7.3,10.24,10.24,0,0,1,2.8-5.19A15,15,0,0,1,229.13,140.89Z"/></g><circle class="cls-3" cx="126.87" cy="125.9" r="78"/></g></g></svg>