<svg xmlns="http://www.w3.org/2000/svg" viewBox="0 0 450.05 380.72"><defs><style>.cls-1{fill:#f8b6b6;}</style></defs><g id="圖層_2" data-name="圖層 2"><g id="圖層_1-2" data-name="圖層 1"><g id="dot-1"><path id="Path_4452" data-name="Path 4452" class="cls-1" d="M191.64,180.16a13.89,13.89,0,1,0-18,7.94A13.9,13.9,0,0,0,191.64,180.16Z"/><path id="Path_4453" data-name="Path 4453" class="cls-1" d="M186.82,241.69a16,16,0,0,0,29.77,11.53h0a16,16,0,1,0-29.77-11.53Z"/><path id="Path_4454" data-name="Path 4454" class="cls-1" d="M239.41,174.65a9.33,9.33,0,0,0,5.32,12h0a9.33,9.33,0,0,0,12-5.32h0a9.32,9.32,0,0,0-5.32-12h0A9.33,9.33,0,0,0,239.41,174.65Z"/><path id="Path_4455" data-name="Path 4455" class="cls-1" d="M313,368.05a9.31,9.31,0,0,0,17.36,6.72h0A9.31,9.31,0,1,0,313,368.05Z"/><path id="Path_4456" data-name="Path 4456" class="cls-1" d="M197.22,303.25a9.31,9.31,0,0,0-12.05,5.32h0a9.31,9.31,0,0,0,5.32,12h0a9.31,9.31,0,0,0,12-5.32h0a9.32,9.32,0,0,0-5.32-12Z"/><path id="Path_4457" data-name="Path 4457" class="cls-1" d="M432.06,288.17a9.31,9.31,0,0,0,5.32,12.05h0a9.31,9.31,0,1,0-5.32-12.05Z"/><path id="Path_4458" data-name="Path 4458" class="cls-1" d="M116.22,200.56a17.29,17.29,0,0,0-9.88-22.37h0A17.29,17.29,0,0,0,84,188.07h0a17.29,17.29,0,0,0,32.25,12.49Z"/><path id="Path_4459" data-name="Path 4459" class="cls-1" d="M135.4,103.15a8.65,8.65,0,0,0,16.13,6.24h0a8.65,8.65,0,0,0-4.94-11.18h0A8.65,8.65,0,0,0,135.4,103.15Z"/><circle id="Ellipse_37" data-name="Ellipse 37" class="cls-1" cx="364.82" cy="327.74" r="8.65"/><path id="Path_4460" data-name="Path 4460" class="cls-1" d="M99.23,125.35a4.66,4.66,0,1,0-6,2.66h0A4.66,4.66,0,0,0,99.23,125.35Z"/><circle id="Ellipse_38" data-name="Ellipse 38" class="cls-1" cx="234.78" cy="64.45" r="12.34"/><path id="Path_4461" data-name="Path 4461" class="cls-1" d="M302.7,153.67a4.65,4.65,0,0,0,2.66,6h0a4.66,4.66,0,0,0,6-2.66h0a4.66,4.66,0,0,0-2.66-6h0A4.67,4.67,0,0,0,302.7,153.67Z"/><path id="Path_4462" data-name="Path 4462" class="cls-1" d="M270.64,249.33a7.19,7.19,0,0,0,4.11,9.3h0a7.18,7.18,0,0,0,9.3-4.1h0a7.17,7.17,0,0,0-4.1-9.29h0a7.19,7.19,0,0,0-9.3,4.1Z"/><circle id="Ellipse_39" data-name="Ellipse 39" class="cls-1" cx="139.7" cy="266.39" r="10.49"/><path id="Path_4463" data-name="Path 4463" class="cls-1" d="M124.84,11.33a17.74,17.74,0,0,0,10.13,23h0a17.74,17.74,0,1,0-10.13-23Z"/><path id="Path_4464" data-name="Path 4464" class="cls-1" d="M11.14,184.59A5.76,5.76,0,1,0,.39,180.43h0a5.76,5.76,0,0,0,10.75,4.16Z"/><circle id="Ellipse_40" data-name="Ellipse 40" class="cls-1" cx="258.8" cy="309.98" r="21.73"/><path id="Path_4465" data-name="Path 4465" class="cls-1" d="M317.22,219.29a8.86,8.86,0,0,0,5.07,11.47h0a8.87,8.87,0,1,0-5.07-11.47Z"/><path id="Path_4466" data-name="Path 4466" class="cls-1" d="M201.14,107.74a6.15,6.15,0,1,0,8-3.51A6.16,6.16,0,0,0,201.14,107.74Z"/><path id="Path_4467" data-name="Path 4467" class="cls-1" d="M55.31,247.34a10.2,10.2,0,1,0-13.19,5.83A10.2,10.2,0,0,0,55.31,247.34Z"/></g></g></g></svg>