<svg xmlns="http://www.w3.org/2000/svg" viewBox="0 0 365.41 154.12"><defs><style>.cls-1{fill:#518bb9;}</style></defs><g id="圖層_2" data-name="圖層 2"><g id="圖層_1-2" data-name="圖層 1"><g id="_1_dot" data-name=" 1 dot"><path id="Path_4468" data-name="Path 4468" class="cls-1" d="M57,144.24A2.79,2.79,0,0,0,53.41,146h0A2.78,2.78,0,1,0,57,144.24Z"/><path id="Path_4469" data-name="Path 4469" class="cls-1" d="M234.45,53.61a2.76,2.76,0,0,0-3.53,1.71h0a2.79,2.79,0,0,0,1.72,3.54h0a2.78,2.78,0,1,0,1.81-5.25Z"/><circle id="Ellipse_41" data-name="Ellipse 41" class="cls-1" cx="10.41" cy="102.46" r="10.41"/><circle id="Ellipse_42" data-name="Ellipse 42" class="cls-1" cx="68.74" cy="101.61" r="6.6"/><path id="Path_4470" data-name="Path 4470" class="cls-1" d="M66.15,45.32a13.19,13.19,0,0,0-16.78,8.16h0a13.19,13.19,0,0,0,8.16,16.78h0a13.19,13.19,0,0,0,8.62-24.94Z"/><path id="Path_4471" data-name="Path 4471" class="cls-1" d="M112.81,102.14a5,5,0,1,0,3.12,6.4h0A5,5,0,0,0,112.81,102.14Z"/><path id="Path_4472" data-name="Path 4472" class="cls-1" d="M184.87,22.24a5,5,0,1,0,3.11,6.4A5,5,0,0,0,184.87,22.24Z"/><path id="Path_4473" data-name="Path 4473" class="cls-1" d="M362,48.34a5,5,0,1,0,3.11,6.4A5,5,0,0,0,362,48.34Z"/><path id="Path_4474" data-name="Path 4474" class="cls-1" d="M108.38,45.26a8,8,0,1,0,5,10.19,8,8,0,0,0-5-10.19Z"/><path id="Path_4475" data-name="Path 4475" class="cls-1" d="M217.36,87.05a8,8,0,0,0-5.24,15.15h0a8,8,0,0,0,5.24-15.15Z"/><path id="Path_4476" data-name="Path 4476" class="cls-1" d="M277.49,16a8,8,0,1,0,4.95,10.2h0a8,8,0,0,0-5-10.19Z"/><path id="Path_4477" data-name="Path 4477" class="cls-1" d="M19.82,55a3.81,3.81,0,0,0,4.86-2.36h0a3.81,3.81,0,0,0-2.36-4.85h0a3.83,3.83,0,0,0-4.86,2.37h0A3.81,3.81,0,0,0,19.82,55Z"/><path id="Path_4478" data-name="Path 4478" class="cls-1" d="M183.15,123.69a3.82,3.82,0,0,0-4.86,2.36h0a3.82,3.82,0,0,0,2.36,4.86h0a3.82,3.82,0,0,0,4.86-2.36h0A3.81,3.81,0,0,0,183.15,123.69Z"/><path id="Path_4479" data-name="Path 4479" class="cls-1" d="M85.26,17.4a9,9,0,0,0,11.37-5.53h0A9,9,0,0,0,91.1.49h0A9,9,0,0,0,79.73,6h0A8.94,8.94,0,0,0,85.26,17.4Z"/><circle id="Ellipse_43" data-name="Ellipse 43" class="cls-1" cx="129.38" cy="146.13" r="7.98"/><path id="Path_4480" data-name="Path 4480" class="cls-1" d="M161.47,69.07a8.68,8.68,0,0,0-5.67,16.41h0a8.69,8.69,0,0,0,11-5.37h0a8.69,8.69,0,0,0-5.37-11Z"/><circle id="Ellipse_44" data-name="Ellipse 44" class="cls-1" cx="300.5" cy="72.84" r="8.68"/><path id="Path_4481" data-name="Path 4481" class="cls-1" d="M141.07,20.35a6.49,6.49,0,0,0-8.25,4h0a6.49,6.49,0,1,0,8.25-4Z"/><path id="Path_4482" data-name="Path 4482" class="cls-1" d="M280.75,103.42a6.48,6.48,0,0,0-8.25,4h0a6.49,6.49,0,1,0,8.25-4Z"/><path id="Path_4483" data-name="Path 4483" class="cls-1" d="M194.06,51.38a5.53,5.53,0,1,0-3.61,10.46h0a5.52,5.52,0,0,0,7-3.42h0a5.53,5.53,0,0,0-3.42-7Z"/></g></g></g></svg>