<svg xmlns="http://www.w3.org/2000/svg" viewBox="0 0 382.51 711.44"><defs><style>.thunder-stripe{fill:#4a535d;}</style></defs><g id="圖層_2" data-name="圖層 2"><g id="圖層_1-2" data-name="圖層 1"><g id="閃電"><path id="Path_4559" data-name="Path 4559" class="thunder-stripe" d="M356.08,707.88l18.86,3.52.18,0"/><path id="Path_4560" data-name="Path 4560" class="thunder-stripe" d="M371.3,242.09l-64.09-63.92,64.09-63.93,11.2-11.17L307.21,28l28-28H312.84L296,16.79,284.8,28l75.3,75.1-75.3,75.1,75.3,75.1-75.3,75.1L296,339.54l64.09,63.93L296,467.39,284.8,478.56l75.3,75.1-75.3,75.1,75.3,75.1-3.93,3.93A184.07,184.07,0,0,0,375,711.41l7.56-7.55-11.2-11.17-64.09-63.92,64.09-63.93,11.2-11.18-75.29-75.1,75.29-75.1-75.29-75.1,75.29-75.1Z"/><path id="Path_4561" data-name="Path 4561" class="thunder-stripe" d="M325.54,103.08,250.25,28,278.3,0H255.89L239.05,16.8,227.85,28l75.3,75.1-75.3,75.1,75.3,75.1-75.3,75.1,11.2,11.17,64.09,63.93L239.05,467.4l-11.2,11.17,75.3,75.1-75.3,75.1,67.9,67.73,27.64,5.22-9-9-64.09-63.93,64.09-63.92,11.2-11.18-75.3-75.1,75.3-75.1-75.3-75.1,75.3-75.1-11.2-11.17-64.09-63.92,64.09-63.93Z"/><path id="Path_4555" data-name="Path 4555" class="thunder-stripe" d="M268.58,103.08,193.29,28,221.34,0H198.93L182.08,16.8,170.88,28l75.3,75.1-75.3,75.1,75.3,75.1-75.3,75.1,11.2,11.17,64.1,63.93-64.1,63.92-11.2,11.17,75.3,75.1-75.3,75.1,54.62,54.47,27.63,5.22-59.84-59.69,64.09-63.93,11.2-11.17-75.3-75.1,75.3-75.1-75.3-75.1,75.3-75.1-11.2-11.18-64.09-63.92,64.09-63.93Z"/><path id="Path_4556" data-name="Path 4556" class="thunder-stripe" d="M211.62,103.08,136.32,28,164.37,0H142L125.12,16.8,113.92,28l75.3,75.1-75.3,75.1,75.3,75.1-75.3,75.1,11.2,11.17,64.1,63.92L125.13,467.4l-11.2,11.17,75.3,75.1-75.3,75.1L155.26,670l27.63,5.22-46.56-46.44,64.09-63.93,11.2-11.17-75.3-75.1,75.3-75.1-75.3-75.1,75.3-75.1-11.2-11.18-64.09-63.92,64.09-63.92Z"/><path id="Path_4557" data-name="Path 4557" class="thunder-stripe" d="M154.66,103.08,79.37,28,107.42,0H85L68.16,16.8,57,28l75.3,75.1L57,178.18l75.3,75.1L57,328.38l11.2,11.17,64.09,63.93L68.16,467.4,57,478.57l75.3,75.1L57,628.77l28,28L112.64,662,79.37,628.77l64.09-63.93,11.2-11.17-75.29-75.1,75.29-75.1-75.29-75.1,75.29-75.1-11.2-11.18L79.37,178.18l64.09-63.93Z"/><path id="Path_4558" data-name="Path 4558" class="thunder-stripe" d="M97.7,103.08,22.4,28,50.45,0H28L11.2,16.8,0,28l75.29,75.1L0,178.18l75.29,75.1L0,328.38l11.2,11.17,64.09,63.93L11.2,467.4,0,478.57l75.29,75.1L0,628.77l14.75,14.72,27.64,5.21-20-19.93L86.5,564.85l11.2-11.18-75.3-75.1,75.3-75.1-75.3-75.1,75.3-75.1L86.5,242.1,22.41,178.18,86.5,114.25Z"/></g></g></g></svg>