<svg xmlns="http://www.w3.org/2000/svg" width="271.004" height="42.438" viewBox="0 0 271.004 42.438">
  <g id="Group_257" data-name="Group 257" transform="translate(0)">
    <g id="Group_241" data-name="Group 241" transform="translate(0 0)">
      <path id="Path_4731" data-name="Path 4731" d="M335.269,216.882c.985.208,1.61.448,1.148.853l-1.871-.2-1.308.19-1-.168-.765.172-1.648-.2-.958.155-.841-.17-1.389.2-1.457-.2-.977.181-.619-.325-.781.01-.495.346-.918-.423-1.829.378-.493-.1c-.485.037-1.01.093-1.559.115-.506.02-1.036,0-2,0l1.6.363,1.238-.186,1.029.357L320.41,218l1.435.223,1.225-.191a22.171,22.171,0,0,0,2.377.023,17.436,17.436,0,0,0,2.894.144.989.989,0,0,0,.256.208,5.57,5.57,0,0,0,.561.19,43.037,43.037,0,0,1-6.528.259l-4.577.636-.3-.447-1.044-.023-.307.5-.8-.154c-.856.047-1.752.135-2.645.134-.913,0-1.823-.093-2.789-.148l-1.057.282a12.892,12.892,0,0,0,1.887.187,15.129,15.129,0,0,1,2.484.013c.905.057,1.794.021,2.786.135,1.165.134,2.776.031,4.484.031l-.766.237a5.761,5.761,0,0,0,2.586.241v-.31c.507.025,1.279-.081,1.371.172-.008,0-.052-.014-.1-.025l-.546.115.211.052a3.772,3.772,0,0,0,.43-.142,6.486,6.486,0,0,1,2.306.316l.806-.175,3.9.4a24.808,24.808,0,0,1-3.224.224,6.763,6.763,0,0,0-2.471.061l-1.324-.189a11.48,11.48,0,0,1-2.177.083c-.355.031-.222.093-.127.09.319-.011.625-.046.936-.071a3.3,3.3,0,0,0-.809-.019,5.907,5.907,0,0,1,1.47.373l-1.038.773-2.157-.511-.18.552,3.2.288.368-.63c.53.116.847.181,1.145.251.26.061.5.128,1.1.285l.292-.589-1.992-.074v-.266h5.182c.068.226.5.482-.52.7l1,.307,1.52-.214c2.771.348,5.806.048,8.928.214l-.9.436c-1.461,0-2.878,0-4.294-.005a4.457,4.457,0,0,1-.731-.175l-.422.345h-2.616l-1.872.339v-.4l-2.034.275.7.227-1,.084-.969-.5v.857l-1.922-.187-1.137.51,2.98.485,1.048-.41,1.735.234.9-.165,2.7.358.984-.4,3.506.6-3.716.76-.972-.221-1.891.345-.558-.138-.923.213a.655.655,0,0,0,.251.112c1.009.126,2.034.244,2.984.356l-1.013.482h-4.05l-1,.246,1.3.119c.025.1.061.251.119.483l-1.385-.114-4.553.113-.141.258H329l.378.334,2.176.079-2.223.366c1.205.328,1.479.729,1.179,1.231-1.432-.142-2.708.445-4.286.011l-1.169.289a23.08,23.08,0,0,1,2.929.052c.939.3,1.828-.2,2.79.068a19.552,19.552,0,0,0,2.82.077c.975.01,1.953,0,3.4,0a67.682,67.682,0,0,1-7.114.553c-2.228.166-4.735.106-7.122.146-.039.018-.133.043-.111.056a.551.551,0,0,0,.225.057c2,0,4,0,5.73,0l1.7.3a8.168,8.168,0,0,1-1.457.354c-1.206-.092-2.327.276-3.479.019a30.7,30.7,0,0,1-4.559.167c-.826.422,1.085.255,1.25.445a25.134,25.134,0,0,1,3.847-.1l1.661.8h-4.3v.794l-1.081.051-.522-.373-.878.4-1.466-.213-1.6.2-.828-.186-1.421.351-.894-.409c-.278.405-2,.665-.9,1.113l1.742-.481,2.087,1.058h-2.838c-.089.262-.159.468-.263.777l-.923-.485-1.932.342a3.375,3.375,0,0,0-1.954.035l-.791-.174c-.8-.139-1.106.386-2.226.121a24.012,24.012,0,0,0-2.546.07c-.794-.063-1.734-.013-2.707-.013v.354l.925-.191,1.7.5c1.873-.435,3.384.186,5.093-.029l.334.511.85.012.649-.339.927.446a45.75,45.75,0,0,1-6.607.714c-.911.052-1.717-.152-2.827-.019a26.356,26.356,0,0,1-3.3.017c-2.48-.063-5.048.171-7.453-.133-1.7.348-4.087-.094-5.443.252l-4.052-.152-.569.405-.725-.337c-2.608-.024-4.526-.311-6.6-.188-.982.058-1.885.2-2.847.3l-.622-.135-.846.209.739.544L269,238.72l.671.505c1.256-.022,2.28-.088,3.224-.047a53.945,53.945,0,0,0,9.093-.155c.51-.035,1.069-.023,1.6-.045,1.506-.063,2.963.448,4.494.023,1.658-.007,3.316-.017,4.974-.021s3.378-.053,5,.019c.992.044,1.587-.208,2.588-.09.726.086,1.639.076,3.017.131l-3.918.364,1.348.675-.808.2c-3.1.107-6.212-.139-9.254.174a9.847,9.847,0,0,0-2.544-.075c-.993-.067-2-.124-3.151-.2l-.666.15a20.23,20.23,0,0,0-6.812-.111l.914.261c-2.571-.076-4.835.113-6.516-.1-2.443-.088-4.128.5-6.335.093a5.794,5.794,0,0,0-1.3,0,54.946,54.946,0,0,1-6.419.151,22.7,22.7,0,0,1-2.8-.117c-.948-.106-2.662.2-3.6.1-1.731-.2-3.458-.049-4.784-.146-.96-.07-1.559-.192-2.309-.29l-.723.145-2.239-.242v-.706c-1.667.03-1.273.352-1.346.591h-1.211v-.78l-2.919-.035.549.437-1.916.307,1.812.321-1.558.51-2.361-.536-.575.452c-3.249,0-5.8.022-8.337-.007a32.637,32.637,0,0,1-5.105-.136c-1.412.265-3.339.047-4.755.309h-9.394a8.358,8.358,0,0,1-.916.227c-.7.107-1.454.191-2.208.287l-1.355-.5c-1.648-.109-3.087.395-4.646.03a11.535,11.535,0,0,1-3.841-.135l.653-.18-1.967-.994v.724c-1.292.1-2.787-.091-3.435.392l.7.567c-.641.126-.662-.08-1.239-.095l-3.56.331-1.441-.214-.729.377-1.368-.318-1.357.516-.56-.336-1.434.431-.671-.789-.594.741-2.311-.408a10.4,10.4,0,0,0-1.542.013,18.326,18.326,0,0,1-4.067.359l-1.005-.235-1.28.167-1.292-.344,3.679-.338L164.7,240.7l-3.184.13-.9-.693h1.594l.22.137c.15-.046.3-.091.277-.137h1.205l.643.347c.217-.389.217-.389-.742-.658-.313.076-.626.152-1.106.311h-.5c0-.137,0-.274,0-.412l-1.4-.346c-2.762.2-5.772-.029-7.858.466l-1.373-.218-1.357.187-1.294-.178a26.381,26.381,0,0,1-3.883.178,11.138,11.138,0,0,1-2.714.034,13.092,13.092,0,0,1-2.8.122,14.877,14.877,0,0,0-3.111.155c-.168.048-1.024-.081-1.554-.077-.951.008-1.906.046-2.842.091-.81.039-1.593.145-2.4.151-.914.007-1.838-.063-3.127-.115l-4.232.315-.9-.266c.145-.118.166-.2.27-.21,1-.064,1.812-.24,2.993-.219a58.875,58.875,0,0,0,7.14-.306,4.894,4.894,0,0,1,.645-.011c2.2.087,4.191-.17,6.323-.207A4.784,4.784,0,0,0,136.1,239a24.9,24.9,0,0,1-4.093.128,14.456,14.456,0,0,1-3.127.016c-.969.194-2.223.127-3.3.222a2.816,2.816,0,0,0-.44.095,14.76,14.76,0,0,0-4.716.04l-1.03-.342h2.7c-.165-.1-.2-.166-.295-.17-1.124-.056-2.254-.1-3.668-.164l.466.431-.766.085-1.258-.642,2.3-.092-.56-.389,1.9-.244,1.041.183,3.638-.327.717.091,6.326-.213.665.118,5.814-.5.5.115c2,0,3.511-.44,5.565-.153l2.719-.243c.823.432,2.487-.315,3.4.1.943-.325,2.434-.066,3.657-.21,1.2-.14,2.754-.1,4.5-.143l1.106-.253c-.439-.088-.715-.143-1.8-.293-.355.031-.223.093-.127.09.319-.011.625-.045.936-.071a3.305,3.305,0,0,0-.809-.018c.514.2.219.312-.077.42l-1.131-.194-1.019.192-.949-.234.829-.225-2.438-.029-1.423.552-.446-.334c-1.173.2-2.461-.051-3.714.065-.6.055-2.413.084-3.654.225l-1.045-.2c-2.614.475-5.944-.089-8.707.341a14.344,14.344,0,0,1-1.646.009,38.233,38.233,0,0,0-3.946.027,24.227,24.227,0,0,1-3.18-.047c-1.728.04-3.2.225-5.148.379l-.789-.376c-1.266.137-2.145.273-3.1.324s-1.985,0-2.972.026a11.538,11.538,0,0,0-3.141.183l-1.315-.492-1.983-.08,3.264-.277.723.152.967-.168,2.883.369,1.62-.553,1.461.2,2.737-.222v-.289l-1.783.122-.655-.107c-.8-.012-1.587.374-2.45.02-.763.2-2.246.052-2.6.167a7.6,7.6,0,0,1-2.425.052c-.945.036-1.9.059-2.843.1-.916.037-1.824.086-3.019.143l-.936-.321-1.609.223-.476-.32,2.578-.078.928-.229-1.272-.284.993-.5,3.644.6-.75.213,1.189.079.321-.521c.38,0,.793,0,1.235-.008-.013,0-.057.013-.1.023l.465.135.211-.052c-.182-.039-.364-.077-.576-.106-.03-.047-.03-.1-.065-.164.008,0,.052.014.1.025l.546-.115-.211-.052a3.762,3.762,0,0,0-.43.142c-.521.007-1.077.007-.883.007l-1.916-.245,1.207-.6-2.662.186-1.065-.246a4.148,4.148,0,0,1,.818-.194c1.42-.087,2.931-.108,4.281-.236.985-.093,1.867.034,2.735-.028.98-.07,1.9-.188,2.859-.286l3.29.314,3.659-.463,1.418.2.523-.384,1.81.38v-.543h1.128l.386-.505,1.72.37v-.525a27.35,27.35,0,0,0-3.387.026c-1.207.206-2.039-.222-2.829-.018-.889.228-2.065-.142-2.9.126v-.68l1.729.2.184-.456h-3.681l-.964-.636a81.012,81.012,0,0,1-10.6.16l-1.795.255-1.852-.235.779-.341-1.048-.081-.492.576-1.136-.728H99.415l.005-.073,8.268-.357a30.711,30.711,0,0,0,6.8-.154l2.165.137v-.576l-2.059.237-1.758-.4-.728.126-1.969-.425a.438.438,0,0,1,.25-.135c.581-.159,1.216-.305,1.913-.477l-.814-.283.594-.165-2.866-.358c1.427-.5,3.46-.348,5.562-.391l-.739-.588,1.349-.115-.315-.144,3.449.188,1.066-.326a2.635,2.635,0,0,0-.541-.153c-1.149-.037-2.251,0-3.449-.14a37.532,37.532,0,0,0-4.013.082l-.354-.072-4.412.162-1.238-.781c1.238-.167,1.959-.437,1.821-.825l-.81-.2-2.564.734H99.763A42.13,42.13,0,0,1,104,223.891v-.477l.786-.194,2.692.1c-.112-.151-.062-.258-.239-.291-.622-.119-1.322-.212-2.1-.332l2.283-.566,1,.156a76.759,76.759,0,0,1,9.262-.3c1.422-.2,1.1-.488,1.045-.754l-1.16-.286c-.077.308-.141.567-.206.826-1.683-.021-1.012-.384-1.476-.595h-.9l.455.62-.467.055a5.782,5.782,0,0,1-.76-.255c-.294-.162-.313-.378-.773-.491a16.968,16.968,0,0,0-1.95-.178l-.205-.246h-2.962l-.527.346-1.454-.169-1.3.3-.842-.626-2.453-.047-1.65-.357-1.058.2-.673-.149-1.214.3-1.046-.152-1.725.236-1.057-.6-.584.132,1.017-.278-2.628.188-1.389-.526-.793.4-1.343-.182-.51.305-2.172-.513-1.988.2,1.079-.431,11.1-.418.776-.608a39.938,39.938,0,0,0-6.816-.208l-1.453.338-.572-.4-.841.4a19.427,19.427,0,0,0-5.252-.027l-.615-.142c-.885-.111-1.278.345-2.364.1a17.67,17.67,0,0,0-1.863.061c-.868.013-1.743,0-2.978,0l.831-.439c1.637-.175,3.411.1,4.853-.173a33.962,33.962,0,0,0,3.792.09,26.2,26.2,0,0,0,4.75-.117,29.976,29.976,0,0,1,3.3-.019,15.27,15.27,0,0,0,3.9-.27c-.492-.316-3.121.074-3.249-.583l2,.175c.555-.038,1.345-.127,2.154-.139.854-.013,1.862.127,2.558.055a6.012,6.012,0,0,1,2.346.094l1.3-.3,1.445.178.577-.392,4.114.138,1.484-.161c-.059-.035-.107-.1-.188-.106a9.911,9.911,0,0,0-3.445-.009c-1.035-.05-2.033.031-3.169-.107a33.916,33.916,0,0,0-4.967-.234c-.893.025-1.837-.065-3.208-.122l-1.193.272H90.254l-.51-.359-1.192.568-.624-.447-2.543-.207-.974.616H82.827v-.381l-1.636-.19.766-.333-.692-.171a1.381,1.381,0,0,0-.231-.055c-.76.077-1.51.16-2.33.248l.086.212,1.741-.155.217.311H77.528l-.43-.3-1.441.332-1.281-.316-.988.441-1.584-.683,1.633-.176-.646-.354.881-.23.642.341a2.428,2.428,0,0,1,.693-.322c.363-.079.921-.1,1.434-.154l.768.173,1.364-.213,1.784.219.526-.354H76.838v-.705l.775.173,3.938-.179,1.145.282a4.035,4.035,0,0,0,.029.574c-.432.005-.829.013-1.238.021v.555c.541-.248.892-.408,1.238-.576.387,0,.8,0,1.542,0l-.87-.486,1.994-.4c-.646-.1-1.206-.173-1.688-.269s-.9-.217-1.473-.358l-.29.32H78.79v-.381l3.559-.229.691.156a4.954,4.954,0,0,1,2.517-.033,5.965,5.965,0,0,1,2.322-.007c.932-.36,1.645.157,2.645,0l.467-.332.767.36,4.611-.316.7.157.862-.191,1.278.2,3.1-.266-1.434-.482,1.587-.287-3.27-.289-.9.179-1.1-.309,1.275-.394,1.307.151,3.242-.333c-1.861-.271-3.849.088-5.293-.277-1.658.269-.726.693-1.067,1.074l-2.959.259-1.026-.361-1.8.251c-.079-.195-.129-.322-.19-.473l3.1-.282.911.511L96,210.648l-1.068-.167-.461.114-1.029-.16-1.265.176-5.783-.5-.576.142-1.423-.17-1.188.4a12.848,12.848,0,0,0-4.148-.162c-1.4.146-2.311-.237-3.535.023l-1.689-.817c4.558-.278,9.042-.293,13.826-.51,2.724.369,5.682-.061,8.954-.159.2.019.664.092,1.153.1,2.5.057,4.948-.042,7.374-.179a6.8,6.8,0,0,0,.684-.114,8.9,8.9,0,0,0,3.169-.043l.9.2.218-.3c-1.73-.188-3.671.134-5.133-.223a38.4,38.4,0,0,1-6.1.118l-.439-.316c-.553.333-1.047.64-2.928.5l1.472-.583-2.257.118v-.605a26.147,26.147,0,0,1,6.286-.092,19.044,19.044,0,0,0,2.425-.054c.509-.019,1-.062,1.472-.092l1.417.527,1.124-.352c-.014,0-.057.013-.1.024l.466.135.211-.052c-.182-.039-.364-.077-.576-.107.265-.1.561-.208.821-.3a37.359,37.359,0,0,1,6.523.313,63.05,63.05,0,0,1,7.522-.505,52,52,0,0,0,6.761-.14,20.478,20.478,0,0,0,4.042.143,9.682,9.682,0,0,0,2.746-.153c.8-.237,1.439.273,2.561.052.456-.09,1.707.1,2.6.1.807,0,1.618-.072,2.791-.13l.819.146c.772.055,1.661-.389,2.6-.022.693-.3,2.025-.064,2.989-.218a13.264,13.264,0,0,0,2.616-.126c.3.054.544.1.809.141a3.327,3.327,0,0,0,.56.049,9.4,9.4,0,0,1,2.128-.015c.978-.022,1.907-.174,2.912-.275a3.442,3.442,0,0,0,2.075-.063,14.569,14.569,0,0,0,4.914.006l1.232.2,1.485-.2,1.141.209c.055-.167.1-.314.18-.548l-1.8.133a33.869,33.869,0,0,0-5.608-.016,6.556,6.556,0,0,1-.856.072c-2.617-.312-5.211.17-7.806.006-.7-.044-1.378-.1-2.224-.169l-1.69.365-1.14-.17-.565.117-3.927-.182-1.259.315c-.841-.039-1.633-.063-2.4-.114-.724-.049-1.352-.044-2.134-.024-2.752.071-5.554.032-8.336.02a3.573,3.573,0,0,1-.732-.154l-.809.186-1.162-.137c-2.258.242-4.766.062-7.211.106-.694.012-1.408-.046-2.469-.085l-.616.213c-2.643.148-5.012-.139-7.143.2-.853-.359-2-.023-2.995-.071-1.157-.056-2.354-.069-3.538-.081a13.736,13.736,0,0,0-2.207.049c-.918.255-1.236-.216-1.914-.053-.235.057-.476.112-.669.157l-3.853-.246,1.069-.416h6.3l.256-.286c.748.046,1.632.3,2.161.023l1.994.122,1.141-.461,4.21-.164a23.749,23.749,0,0,0,4.336.063c2.7-.113,5.383-.176,8.149-.042,1.148.055,2.462-.1,3.905-.168l.765.189,4.345.093,1.188-.377,1.311.324c.693-.021,1.437-.33,2.092.089l1.272-.433,1.476.159a4.727,4.727,0,0,1,2.116.021c.913-.346,1.654.105,2.592.026l.945-.253a88.557,88.557,0,0,0,9.61-.04l1.026.14,1.59-.195.827.185c.158-.039.294-.086.479-.114a4.076,4.076,0,0,1,.566-.043c.833.348,2.5-.32,3.005.205l1.7-.236.923.184a4.24,4.24,0,0,1,.755-.15c2.663-.085,5.422.154,8.027-.146a29.982,29.982,0,0,0,3.751.154c1.037.1,1.758-.275,2.867-.032a15.232,15.232,0,0,1,2.391.019c4.753-.336,9.616-.086,14.415-.171.482-.008.939-.1,1.436-.154.644.051,1.335.151,2.018.148.8,0,1.6-.095,2.395-.154a9.4,9.4,0,0,0,2.172.013c.4-.1,1.235.239,2.11,0,.558-.154,1.29.161,2.2.064.751-.08,1.689-.062,2.547-.071.889-.011,1.787-.017,2.669,0a9.271,9.271,0,0,1,1.075.142l.768-.17a14.773,14.773,0,0,0,4.779.007l1.482.2.967-.175.5.112,5.049-.17,1.507.372,2.287-.3,1.357.18.559-.393,1.81.19,1.294-.19.99.164a2.836,2.836,0,0,1,1.939.028l.895-.194,1.606.2,1.133-.187,3.123.4.495-.513,1.247.233,4.813-.105c.695.32,2.27-.283,2.863.222,1.1-.334,2.654-.009,3.824-.222a29.858,29.858,0,0,0,6.13,0,10.808,10.808,0,0,1,1.326,0,47.535,47.535,0,0,0,6.141.019c.6-.019,1.519.028,2.28.07.578.032,1.205.029,1.8.016.281-.006.658-.121.793-.1,1.485.211,2.983-.153,4.433.016a6.953,6.953,0,0,1,.716.148,56.255,56.255,0,0,1,9.09.016l1.268-.294,2.993.738-.725.179-1.761-.373-.951.35h-4.861l-.411-.29H290.1l-.384.272c-.192.018-.382.051-.576.052-2.152.016-4.334-.068-6.417.159a10.516,10.516,0,0,1-1.32-.1l-2.778.241-.683-.235-6.606.219-.743-.117a19.276,19.276,0,0,1-4.86.037c-.812.052-1.394.1-1.991.126a20.9,20.9,0,0,0-3.705.153,15.488,15.488,0,0,0-3.424-.142,4.242,4.242,0,0,0-.862.16c-.607.057-1.226.11-2.206.195l.948-.369c-2.006.017-3.723-.019-5.46.027l2.209.766,4.508-.369v-.25c.333,0,.666,0,1.084,0l.44.32,1.09-.187,1.673.32,3.233-.3,1.024.2,1.439-.211.892.325,6.011-.269a15.889,15.889,0,0,0,4.648-.052c.68.378,1.982.023,3.112.148.946.106,2.411-.105,3.659-.124a17.2,17.2,0,0,1,3.83.182l.976-.182.432.108,2.194-.138,1.575.8,2.295-.752h4.309l-1.986.334.236.111,1.747-.091.936.151,1.509-.339,1.539.409.357-.59h1.861a.99.99,0,0,0,.036.321c-.008,0-.052-.014-.1-.025l-.546.115.211.052a3.879,3.879,0,0,0,.431-.142c.488.083,1.01.174,1.893.326l4.195-.093,1.639-.547.428.655h3.385l-.939.245c-.954.026-2.115-.336-2.867.068l-1.136-.212-1.724.587-1.542-.225a4.346,4.346,0,0,1-.745.1c-1.029-.049-2.037-.124-3.389-.211l-.975.339-1.546-.225-1.31.177-3.192-.307-1.257.31c-.975-.082-2.03.028-3.286-.123a14.012,14.012,0,0,0-4.491.225l-4.914-.332-.545.374a58.244,58.244,0,0,1-7.116-.3c-1.954.287-4.2.081-6.444.162l-.427.313-.482-.085c-1.142.032-2.152.049-3.141.094a4,4,0,0,0-.832.166c-.008,0-.052-.014-.1-.025l-.546.115.211.052a3.8,3.8,0,0,0,.431-.142c.763.048,1.549.126,2.363.151.871.028,1.768.007,2.3.007.674-.078,1.121-.1,1.4-.17.338-.08.462-.218.819-.288a11.064,11.064,0,0,1,1.26-.008l-1.1.31a25.21,25.21,0,0,0,4.061-.158,7.461,7.461,0,0,0,2.631,0l1.181.291a22.259,22.259,0,0,0,5.4-.3,26.9,26.9,0,0,0,4.426.154,29.256,29.256,0,0,1,4.362.146,12.109,12.109,0,0,1,4.212.029l1.453-.2,1.029.194,3.364-.288,1.4.307,1.556-.213.96.18.806-.182,1.234.152a2.074,2.074,0,0,1,.5-.093c.794.03,1.574.123,2.355.121.689,0,1.4-.156,2.056-.141,1.119.026,2.207.132,3.381.21l-1.8.486a48.566,48.566,0,0,0-6.463-.207,3.841,3.841,0,0,0-.748.148,15.866,15.866,0,0,0-3.323-.162l-1.149.283-5.452-.288-1.62.374c-.5-.046-1.072-.1-1.655-.154-.461-.041-.856.182-1.479-.008a12.875,12.875,0,0,0-1.9-.034,10.238,10.238,0,0,0-1.555.041c-.566.228-1.043-.1-1.468.012a3,3,0,0,1-1.4.052,6.633,6.633,0,0,0-1.458-.1c-1.68.219-3.688-.3-5.039.143l-2.722-.175-.208.143c.594.069,1.168.154,1.788.2.679.054,1.4.075,2.494.131a16.022,16.022,0,0,1,4.88.076l.782.6h2.752l3.952.742v.384a27.226,27.226,0,0,1-3.165.124,17.635,17.635,0,0,0-3.461-.041c-1.065.171-2.256-.227-3,.151l-.949-.315-4.29.286-1.428-.225,1.065.566c3.223,0,6.42,0,9.617-.005a9.389,9.389,0,0,0,1.14-.112,5.57,5.57,0,0,1,2.545.2l-1.858.427h-2.405a5.675,5.675,0,0,0,1.056.253c1.714.011,3.432,0,5.146-.015.606-.005,1.489-.123,1.759-.06a26.144,26.144,0,0,0,3.524.158c-.68-.4-1.075-.743.6-1.04a11.426,11.426,0,0,0,4.439-.051l1.067.414-3.249.224v.437a25.771,25.771,0,0,0,4.355-.177,34.87,34.87,0,0,0,6.858.037l5.361.372v.193c-.23.023-.423.058-.612.058a24.214,24.214,0,0,0-4.6-.087c-1.341.245-3.043-.1-4.349.215a7.306,7.306,0,0,1-1.871.026,15.65,15.65,0,0,0-4.767.1l1.991.214,3.694-.162,2.851.468-1.91.553-.962-.2-1.371.214-1.444-.2-.673.118a15.091,15.091,0,0,0-1.822-.024c-.73.176-.844-.087-1.266-.072-.6.022-1.2.058-2.025.1l-1.883-.179,1.056.537c3.6-.4,6.973.173,10.481.021l1.189.494.667-.144.529.121a6.033,6.033,0,0,1,3.14.141l-1.185.1v.511l1.343-.167,1.488.25-1.241.353h-7.606a4.578,4.578,0,0,0,2.858.171l.822.186,1.263-.144a4.7,4.7,0,0,0,.756.115c1.774.055,3.556.094,5.338.129a2.379,2.379,0,0,0,.5-.119l.921.215-.686.3,1.082.3.775-.514a4.771,4.771,0,0,1,2.459.322h3.378l1-.247.208.25c.418.007.96-.006,1.445.029a9.4,9.4,0,0,1,1.033.176l1.428-.183.505.165Zm-78.108-9.055-.131-.032-.546.115.211.052c.156-.045.31-.09.326-.164l.131.032.546-.115-.211-.052C257.332,207.708,257.176,207.752,257.161,207.827Zm-158.5,5.412.131.032.546-.115-.211-.052c-.156.045-.31.09-.326.165l-.13-.032-.546.115.211.052C98.491,213.359,98.647,213.314,98.662,213.239Zm185.764,26.251.13-.032-.466-.135-.21.052a3.039,3.039,0,0,0,.667.08l-.131.032.466.135.211-.052A3.017,3.017,0,0,0,284.427,239.491Zm-15.368-30.836.13-.032-.465-.135-.211.052c.182.038.364.076,2.259.29a4.957,4.957,0,0,0-.717-.187c-.319.011-.625.046-.936.071C269.521,208.742,269.924,208.77,269.058,208.654Zm-139.529-.364-.131.032.466.135.211-.052a5.269,5.269,0,0,0-1.126-.093l.578-.007-.255-.322-.432.015C128.877,208.1,128.913,208.206,129.529,208.29Zm-9.476,12.9.131-.032-.466-.135-.211.052a5.05,5.05,0,0,0,1.1.091l-.569.009.258.486c.358-.073.476-.143.473-.214C120.764,221.35,120.665,221.257,120.053,221.186Zm18.162,13.487-.131.032.466.135.211-.052a3.968,3.968,0,0,0-.609-.092l.334-.088-1.573-.251-.085.314C137.364,234.682,137.759,234.69,138.215,234.674Zm28.992,5.459-.4,0,.27.518,1.085-.069a5.315,5.315,0,0,0-1.252-.445c-.034-.106-.065-.2-.107-.339l-1.258.034c.037.11.062.182.1.281C166.085,240.123,166.485,240.131,167.208,240.133Zm-71.877-22.9.131-.032L95,217.062l-.211.052a1.573,1.573,0,0,0,.721.009v.648l2.068-.315A14.523,14.523,0,0,0,95.331,217.229Zm75.626,23.711-.131.032.465.135.211-.052a7.014,7.014,0,0,0-2.283.23l1.677-.408-1.659-.345c-.18.172-.219.266-.378.345a4.282,4.282,0,0,1-.6.171C168.724,241.163,168.955,241.221,170.957,240.94Zm-.061-1.494-3.775.3,2.049.539.93-.169,1.75.215.772-.408,1.284.181,1.743-.25c-.528-.46-1.3-.066-1.634-.081l-2.021-.262,1.977-.618-3.074.3Zm13.634-33.1,1.963.267,4.524-.374-.244-.193c-4.883,0-9.637,0-14.39.005a2.044,2.044,0,0,0-.468.111l-.627-.144-4.587.227,1.186.464,6.495-.318.647.223,3.607-.23,1.144.136Zm-3.378,33.284,2.653.651,1.18-.17,1,.172c.573-.3,1.428-.59.778-.931l-1.435-.16Zm10.633-33.593,1.3.416,2.444-.185,1.822-.449,1.494.034.285.472.677.105.727-.457,1.075.266,1.91-.188c-1.879-.164-3.107-.33-4.4-.372C196.537,205.6,194.214,205.931,191.785,206.037Zm-47.678,32.877-2.879.165-1.672-.123v.358l10.888-.233-1.06-.608-.816-.1-.626.463-.746-.184-1.778.411-1.006-.53Zm82.362-33.07v.561l2.3-.377.869.161,1.411-.2,1.37.189,1.05-.152c.4.107.1.43,1.365.275l.569-.342,1.515.193c.378-.315-.48-.389-.877-.45-1.25.055-2.157.114-3.076.131a24.772,24.772,0,0,1-3.262-.018C228.436,205.622,227.62,205.942,226.469,205.844Zm-74.115,32.943h9.129v-.314a27.7,27.7,0,0,0-4.328.165,13.428,13.428,0,0,0-4.368,0l-1.8-.194v.8ZM217.11,206.1a20.548,20.548,0,0,0,4.365.567l-.681-.806c-1.077-.2-1.786.195-2.973-.005a31.018,31.018,0,0,0-3.614-.025l2.041.43Zm-49.331,32.033c-.751.073-1.3.141-1.89.18-.677.045-1.381.063-2.29.1l-1.237-.156-.16.386c1.036,0,1.9.011,2.753,0a18.237,18.237,0,0,1,1.853-.07c1.047.245,1.485-.15,2.274-.091l.751.122,1.22-.144.383.072,1.6-.11-1.136-.257-.848.171-1.645-.2-.83.175Zm-56.762-3.46c1.518.033,2.561.481,4.539.285l-1.149-.647c-1.781.295-2.423-.616-4.415-.174Zm-21.7-20.53,1.108.273,1.038-.34c1.136,0,2.017,0,2.9,0a1.124,1.124,0,0,0,.323-.121l-2.564-.095.051-.077,1.708-.061.771-.447h-3.1l-1.076.777ZM321.6,224.47l1.26-.379-1.353-.283c-.526.418-1.663-.067-2.561.123-.774.163-2.439-.091-2.969.3l3.573.218,1.151-.183ZM203.045,205.858l1.6.482c.686-.395,2.126.131,2.931-.166.06-.022,1.056.11,1.648.174.354-.162.68-.309.987-.459.015-.008-.144-.037-.122-.032Zm41.685-.025c-1.537,0-2.621.018-3.691-.005-1.086-.024-2.157-.089-3.7-.156l1.419.532,1.38-.174.774.148,1.616-.2.944.166Zm31.061,3.1,2.709-.2-.228-.268-1.084.191-1.439-.2-1.221.183-1.929-.205-.14.291Zm9.07,0-.928.471a10.159,10.159,0,0,0,3.175.148V209.2Zm-115,28.51-2.407-.295-1.291.2-1.271-.213-.788.608a17.34,17.34,0,0,1,2.123-.241A23.722,23.722,0,0,0,169.857,237.447Zm76.133-31.156,2.464-.221-.172-.4c-1.293.016-2.573-.1-3.068.241Zm-33.273-.111.993.23c-.075-.345-.118-.545-.159-.735-1.414-.039-2.354.031-2.548.365-.055.094.085.194.166.352Zm-108.895,6.28,1.653-.2c.611.024.64.226,1.219.109l.079-.219a15.483,15.483,0,0,0-4.2-.095Zm176.615-3.071-2.7-.44-.782.646H279.6Zm-169.088,2.375-3.512.473a7.2,7.2,0,0,0,2.563.027l.949.211Zm168.468,1.874-1.291.569,1.056.488.335-.553,1.846-.255Zm-80.8,26.6a14.7,14.7,0,0,1,2.609-.116,4.54,4.54,0,0,0,.973-.294h-3.582ZM117.746,212c-1.733-.131-2.6-.034-3.082.353l1.131.2Zm-3.8-1.884-3.241.241.206.266,3.241-.241Zm-12.91,3.036a11.031,11.031,0,0,0-.944.757c-.051.051.216.122.439.236l1.362-.261Zm225.99,12.663c-.543.05-1.013.1-1.506.135s-1,.044-2.07.089l3.707.185.739-.194ZM106.842,213.006l-.39-.083a7.009,7.009,0,0,1-.732.162c-.31.04-.686.05-1.13.08.2.176.338.3.5.416.01.008.2,0,.625,0Zm-1.836-2.676-1.706.178a28.776,28.776,0,0,0,4.312.022Zm51.505,27.555,2.475-.326-3.665-.19Zm98.5.865a18.014,18.014,0,0,0-3.182-.042l.976.305Zm55.53-4.072c0-.14.076-.271-.03-.393a2.448,2.448,0,0,0-.655-.172c-.119-.026-.294-.036-.536-.064v.628Zm-192.206-.3-.424.136,2.083.37v-.507Zm12.4-1.854,2.546.289-1.372-.632ZM295.178,212.8v.082h4.009V212.8Zm-153.771-2.92.089.2h2.086l-.254-.31Zm-10.463.017a2.521,2.521,0,0,0-1.717.068l.569.381Zm-9.379-2.341v.591l1.535-.057Zm10.059,24.434,1-.512-1-.331Zm191.914-2.7h-2.479l.581.369Zm-17.67-13.074c.489-.064.833-.13,1.22-.155.465-.031.967-.029,1.452-.041l-.025-.086h-2.647ZM92.734,215.41l1.417-.342C93.239,215.081,92.775,215.239,92.734,215.41Zm219.65,19.322v-.762l-1.076.5ZM133.231,210.169a4.858,4.858,0,0,0-1.783-.314l.177.484Zm-22.972-.946v.612l1.494-.143Zm-5.627,2.628v-.591l-1.542.076Zm37.638,22.6c-.742.071-2.092.139-1.016.436Zm.107,4.381.53-.091a2.2,2.2,0,0,0-.422-.253,6.521,6.521,0,0,0-.678-.169l-.416.089Zm89.273.005.323.555.942-.569Zm67.266-2.52-.439.109.2.256,1.669-.077Zm-65.871,3.337c-.059.368.493.37,1.38.243l-.189-.243ZM161.6,237.616h2.024l-.287-.35Zm-9.592.358v-.5l-1.419.071ZM89.553,214.918v.5l1.418-.071Zm21.812-1.786h-2.024l.287.35Zm1.232.383v-.606l-1.1.047ZM327.969,222.3l-.264-.452a.935.935,0,0,0-.478.225,8.379,8.379,0,0,1-.92.247ZM119.994,209.844l.348.633,1.109-.274Zm155.937-.1-.355-.609-1.131.242ZM116.569,230.207l-2.468.088.982.279Zm12.542,3.392c.766-.477-.1-.394-.743-.367Zm1.337,1.306c.759-.439-.038-.388-.889-.351Zm11.322-1.155c-.211.249-.211.249,1.41.217Zm-28.839-21.738v.269l1.708-.073Zm125.358-4.351.12.16,1.522-.16Zm20.978.3-.432-.335-.291.052v.284Zm-148.01.521.432.336.291-.052v-.284Zm202.992,15.776h1.038l-.154-.218Zm-185.281,7.374v.269l1.708-.073Zm-4.57-.029c-.211.249-.211.249,1.409.217Zm-16.257-.771,1.386-.158-.236-.079h-1.15Zm65.231,7.561c1.779.187,1.572-.009,1.423-.219Zm-28.228-.7H144.1l.154.218Zm129.811-.247-1.65.419,1.9-.1Zm-66.525,2.324.592-.014-.252-.432-.34.009Zm81.35-.24-1.386.159.236.079h1.15Zm-72.281.114.432.336.29-.052v-.284Zm-80.29-1.154.542.334.294-.048V238.5Zm187.247-8.122-.037-.141-1.117.06.045.081Zm-200.332,8.562v-.082h-1.337v.082Zm1.89-.258-.572.009.244.275.328-.011Zm28.056-.883c-.013-.047-.025-.094-.037-.141l-1.117.06.044.081Zm-4.67-.275-.577.018.26.269.317-.013Zm10.243,0,.072.142,1.087-.064-.052-.078Zm17.829.768-.072-.143-1.087.064.053.078Zm-47.336-7.516v.083h1.337v-.083Zm-19.544-.041h-.334v.33h.334Zm16.7.825h-.335v.33h.335Zm193.377-.3.073.142,1.087-.064-.051-.078Zm-.879.108-.073-.142-1.087.064.051.078Zm-197.51-10.031h.335V221h-.335Zm171.389,18.139h-.334v.33h.334ZM117.327,207.838l-.578.017.261.27.318-.013Zm146.446.1v-.082h-1.337v.082Zm31.4,31.579v.082h1.336v-.082ZM134.7,209.817l-.577.018.26.269.317-.013Zm1.565.278.578-.018-.26-.268-.318.012Zm-11.359.165.578-.016-.261-.27-.317.013Zm3.113-.278-.578.018.26.269.318-.013Zm-12.028.165-.578.017.261.27.318-.013Zm171,29.326h-.334v.33h.334ZM279.255,206.8l.577-.018-.259-.269-.318.013Zm-21.5.562v.083H259.1v-.083ZM100.9,215.892h.335v-.33H100.9Zm-9.407.139.578-.017-.26-.27-.318.013Zm15.36.879.067.143,1.093-.064-.051-.078Zm11.368-6.486.578-.016-.261-.27-.318.013Zm5.126-.167-.067-.143-1.093.064.051.078Zm-14.094.028h-.334v.33h.334Zm28.117,1.349-.572.009.243.275.329-.011Zm140.326.436-.073-.142-1.087.064.053.078ZM114.1,213.13v.082h1.336v-.082Zm-8.687.66v.082h1.337v-.082Zm191.214,22.854.578-.018-.26-.269-.318.013Zm-161.252-1.981-.072-.142-1.087.064.052.078Zm89.2,5.305h.223V239.8h-.223Zm-102.455-5.332v-.055h-.668v.055Zm189.763-10.444v.055h.668v-.055Zm-204.463,1.484v.055h.668v-.055ZM240.386,238.7v.055h.668V238.7Zm-110.25,0v.055h.668V238.7Zm186.423-7.421v.055h.668v-.055Zm3.564-1.869h.222v-.165h-.222Zm8.909-.165h-.223v.165h.223Zm-206.914,6.816v.055h.668v-.055Zm16.037-4.617v.055h.668v-.055Zm-1.559-.055h-.223v.165h.223Zm-1.559,7.256h.223v-.165h-.223ZM294.51,236.56v.055h.668v-.055Zm-154.573,1.924h-.224v.165h.224ZM124.346,230.9h.223v-.165h-.223Zm30.514.055v.055h.667v-.055Zm108.691,7.53h-.223v.165h.223Zm-115.373-4.837v-.055h-.668v.055Zm143.436,5.991h-.223v.165h.223Zm-114.036.11v-.055h-.668v.055Zm80.85-.33v-.055h-.668v.055Zm-124.282-7.75v-.055h-.668v.055Zm123.391,7.311h-.223v.165h.223Zm31.628-26.934v-.055H288.5v.055Zm-6.014-.055v.055h.668v-.055Zm-160.586-.055h-.223v.165h.223Zm8.018-.165h-.223v.165h.223Zm8.687-1.814h-.223v.165h.223Zm-51.9-.11v.055h.668v-.055Zm195.554-.55H282.7v.165h.223Zm-20.268-.495h.223v-.165h-.223ZM94.723,219.9v.055h.667V219.9Zm219.163-2.144v.055h.668v-.055Zm-205.354-2.034h-.223v.165h.223Zm-20.045-.494h-.223v.165h.223Zm28.286-2.089v.055h.668v-.055Zm108.245-6.926v.055h.668v-.055Zm-2.227-.055h-.223v.165h.223Zm95.55,15.83h-.223v.165h.223Z" transform="translate(-70.645 -201.55)" fill="#fe7652"/>
      <path id="Path_4732" data-name="Path 4732" d="M155.226,201.45c.015.148.015.3.015.471h-.576c-.046-.163-.09-.313-.145-.507l-.6.492H152.41c-.034-.166-.075-.369-.122-.6h-1.2v.244l.595.111v.361l-1.209.214-1.67-.2a1.009,1.009,0,0,0-.171-.49c.187.239.187.239.836.062l.9.218-.679-.508c-.5,0-.845,0-1.052.228a1.018,1.018,0,0,1-.583.7c-.318-.1-.666-.269-.976.007l-.605-.179-.458.219a6.317,6.317,0,0,0-2.23-.187c-.748-.005-1.5,0-2.19,0l-.795-.6v.6a17.675,17.675,0,0,1-3.171-.12l-.581.281H136l-.551-.454c-.033.012-.158.034-.162.06-.074.547-1.126.346-1.652.549a2.109,2.109,0,0,1-1.06,0c-.413-.345-1.069.158-1.414-.148a16.214,16.214,0,0,1-3.407.17,8.628,8.628,0,0,0-.934.164l-.475-.189-.573.132a1.162,1.162,0,0,0-1.026.018,1.211,1.211,0,0,0-1.213.031c-.343-.3-.672.027-1.02.018a9.536,9.536,0,0,0-1.29.132l-.406-.892c.168-.413,1.022-.163,1.536-.294.48-.123,1-.2,1.47-.292l.33.168.8-.366.531.2c.058-.031.123-.1.207-.1.978-.078,1.957-.155,2.94-.215a3.673,3.673,0,0,1,1.942.3l1.3-.451a.859.859,0,0,0,.98-.015,4.846,4.846,0,0,0,1.985.333c.49-.013.989.064,1.63.111l.257-.307.682.15.5-.175.676.332,1.016-.156.752.555c.017-.528.609-.813,1.52-.949a3.238,3.238,0,0,0,.885.087c.619-.317,1.139-.042,1.652.034l.441-.209a2.634,2.634,0,0,0,1.956,0l1.349.358,1.34-.356.464.175a9.67,9.67,0,0,1,1.179-.149c2.407-.014,4.815-.007,7.169-.007l.487.249-1.466.967-.643-.2-.286.3h-.668c-.449-.077.2-.462-.5-.481a.531.531,0,0,0,.048-.023l-.225-.135-.1.052A2.212,2.212,0,0,0,155.226,201.45Zm-28.643.61v-.083h-.644v.083Zm-4.241.067-.279.016.126.27.153-.013Z" transform="translate(-101.821 -199.137)" fill="#fe7652"/>
      <path id="Path_4733" data-name="Path 4733" d="M283.226,199.886c.143-.016.423-.054.758-.1l.054.024.257-.12,2.467.184c-.215.369-.644.792-.024,1.253l-.848-.112a1.039,1.039,0,0,1-.869-.028l-.5.182-.613-.219-.636.2-.427-.1-1.669.123-.72-.464,1.583-.116-.835-.223-1.063.146.254.724a2.3,2.3,0,0,1-1.385-.2l.622-.106v-.556c.821-.066,1.151-.326,1.067-.784l2.5.442c-.036-.044-.071-.087.03-.152a2.164,2.164,0,0,1-.329.723l2.167.1.813-.575-2.212.2A1.254,1.254,0,0,0,283.226,199.886Z" transform="translate(-116.804 -198.503)" fill="#fe7652"/>
      <path id="Path_4734" data-name="Path 4734" d="M249.431,201v.425l-1.562.161-.449-.134-.405.194c-.331-.255-.856-.132-1.374-.175V200.8l.823.163.089-.207a1.123,1.123,0,0,0-.267-.09,9.137,9.137,0,0,1-2.589-.168c-.392.193-.787,0-1.174.009-.441.015-.872.1-1.412.166l-.065-.475,3.969-.312a24.661,24.661,0,0,0,3.674.139l.714.4-.4.206h-1.678l-.212.286,1.6.166Z" transform="translate(-107.753 -198.687)" fill="#fe7652"/>
      <path id="Path_4735" data-name="Path 4735" d="M321.284,200.692c-.041-.046-.086-.091-.124-.138s-.068-.1-.112-.158H316.7l-.9.984-.614-1.014-.861-.253.505-.4a17.03,17.03,0,0,1,2.778.155c.558.14,1.22-.236,1.935-.147a6.856,6.856,0,0,0,1.926.14,18.377,18.377,0,0,1,2.685-.139l.841.43-.441.226C322.627,200.081,322.188,200.14,321.284,200.692Z" transform="translate(-122.489 -198.57)" fill="#fe7652"/>
      <path id="Path_4736" data-name="Path 4736" d="M90.847,213.579a2.439,2.439,0,0,1-.8.47c-.663.131-1.395.462-1.92.061l-3.748.323c.481-.276.695-.5.917-.506.842-.009,1.09-.216,1.085-.605,0-.076.279-.154.43-.231a2.01,2.01,0,0,0,.6.292c-.222.163-.473.31-.718.459,0,0,.07.036.148.076.56-.046.869-.175.57-.536-.107-.05-.107-.131-.107-.235l1.878-.215v.586l-.621.333a1.836,1.836,0,0,0,.449.051c.413-.208.795-.433,1.229-.677Zm-2.791.33h.107v-.165h-.107Z" transform="translate(-78.643 -206.987)" fill="#fe7652"/>
      <path id="Path_4737" data-name="Path 4737" d="M179.286,302.732l1.39.17.56-.273c1.154.3,1.154.3,1.747.888l-.7.3.123.1.747-.158.261.282a16.338,16.338,0,0,1-3.829.385l-.448-.229c.22-.056.6-.1.615-.165a1.556,1.556,0,0,0-.085-.712A3.23,3.23,0,0,0,179.286,302.732Zm1.782.724.161-.087-.758-.251-.041.314a6.63,6.63,0,0,0,1.538-.162c-.929.192-.929.192-.591.431l-.3.169.452.231C182.2,303.891,182.067,303.593,181.067,303.456Z" transform="translate(-95.155 -264.043)" fill="#fe7652"/>
      <path id="Path_4738" data-name="Path 4738" d="M392.832,293.781c1.659-.083,1.771-.025,1.818,0l-.245.968-.415-.113-.683.295a9.863,9.863,0,0,1-2.7-.732c.013-.123.028-.271.04-.382.312-.069.217.141.625.067.979-.179,2-.387,1.556-.1-1.565.152-1.585.163-1.607.174l.225.135.1-.052C391.464,294,391.376,293.961,392.832,293.781Z" transform="translate(-134.442 -258.325)" fill="#fe7652"/>
      <path id="Path_4739" data-name="Path 4739" d="M304.981,200.689l.775.143-.1.33-.734-.211-.556.285c-.069-.016-.144-.032-.215-.051-.608-.166-.126-.509-.486-.767l-.488.114-1.931-.137,1.469-.6H305.3l.526.265Z" transform="translate(-124.255 -198.631)" fill="#fe7652"/>
      <path id="Path_4740" data-name="Path 4740" d="M369.191,219.417h-.479l-.534.473-1.512-.3v-.58l-1.636-.318,1.107-.214,1.635.16C367.963,218.991,369,219.01,369.191,219.417Z" transform="translate(-118.171 -210.516)" fill="#fe7652"/>
      <path id="Path_4741" data-name="Path 4741" d="M399.274,287.959l.26-.379,1.475.233.726.432c-.413.353-.636.064-.909,0a12.531,12.531,0,0,1-2.946.172V288l1.04-.46Z" transform="translate(-139.066 -254.442)" fill="#fe7652"/>
      <path id="Path_4742" data-name="Path 4742" d="M114.585,203.91l-.546.344-.1-.04-.5.685-.416-.161-.652.164-.54-.743.425-.249Z" transform="translate(-96.11 -201.247)" fill="#fe7652"/>
      <path id="Path_4743" data-name="Path 4743" d="M230.628,202.57c2.111-.18,3.651.429,5.386.57H232.8Z" transform="translate(-106.957 -200.374)" fill="#fe7652"/>
      <path id="Path_4744" data-name="Path 4744" d="M418.889,251.557l-.617.373-.625-.178-.394.161-.678-.2-.7.2-.548-.214-.645.448v-.684c.464-.259.928.231,1.355-.053a1.715,1.715,0,0,0,1.226.059,7.9,7.9,0,0,1,1.492-.086Z" transform="translate(-149.757 -231.446)" fill="#fe7652"/>
      <path id="Path_4745" data-name="Path 4745" d="M346.555,200.266l.652-.444h2.7l.426.444Z" transform="translate(-135.786 -198.647)" fill="#fe7652"/>
      <path id="Path_4746" data-name="Path 4746" d="M230.791,200.263a4.191,4.191,0,0,1-2.517.461l-.777-.356-.543.2-.185-.229,1.228-.215,1.01.273.463-.39Z" transform="translate(-106.718 -198.764)" fill="#fe7652"/>
      <path id="Path_4747" data-name="Path 4747" d="M384.459,223.524c-.023-.247-.043-.451-.07-.731l.449.157a5.118,5.118,0,0,1,1.354-.08c.441.194.722-.213,1.127.053l-.486.437-.7-.171-.727.328-.534-.187Z" transform="translate(-130.485 -213.259)" fill="#fe7652"/>
      <path id="Path_4748" data-name="Path 4748" d="M171.467,302.777c.161.382-.131.561-.73.667l-.343-.361a.941.941,0,0,1-1.12-.061l-.617.563v-.649h1.438l.252-.366Z" transform="translate(-93.075 -264.005)" fill="#fe7652"/>
      <path id="Path_4749" data-name="Path 4749" d="M265.092,203.027l.745-.469.43.2.6-.173.235.12.932-.351c.432.279.271.473-.2.675Z" transform="translate(-116.451 -200.256)" fill="#fe7652"/>
      <path id="Path_4750" data-name="Path 4750" d="M416.534,242.791a5.806,5.806,0,0,1-2.913-.053c.5-.366,1.329-.29,1.919-.459Z" transform="translate(-149.079 -225.654)" fill="#fe7652"/>
      <path id="Path_4751" data-name="Path 4751" d="M227.389,202.561l-.873.444-.334-.157-.576.3a1.743,1.743,0,0,1-.213-.045c-.565-.2-.25-.473-.387-.816l.9.2.315-.14Z" transform="translate(-107.075 -200.211)" fill="#fe7652"/>
      <path id="Path_4752" data-name="Path 4752" d="M117.349,303.161l-.358.173a3.153,3.153,0,0,1-.395-.083,3.473,3.473,0,0,1-.408-.2,9.816,9.816,0,0,1,2.661-.368c-.075.38-.612.474-.955.7Z" transform="translate(-98.879 -264.075)" fill="#fe7652"/>
      <path id="Path_4753" data-name="Path 4753" d="M73.923,216.148v-.215l1.028-.175,2.448.164A9.767,9.767,0,0,1,73.923,216.148Z" transform="translate(-71.993 -208.784)" fill="#fe7652"/>
      <path id="Path_4754" data-name="Path 4754" d="M382.68,300.056v.333l-.985.268-.468-.161-.4.135-.162-.083.857-.783Zm-.859.254h.107v-.165h-.107Z" transform="translate(-128.117 -262.221)" fill="#fe7652"/>
      <path id="Path_4755" data-name="Path 4755" d="M416.912,273.388v.385l-1.473.043.139-.1-.837-.184.738-.4Z" transform="translate(-149.792 -245.283)" fill="#fe7652"/>
      <path id="Path_4756" data-name="Path 4756" d="M422.065,242.809a5.2,5.2,0,0,1,2.151.228l-.442.239h-2.1Z" transform="translate(-154.204 -225.979)" fill="#fe7652"/>
      <path id="Path_4757" data-name="Path 4757" d="M106.965,289.395l1.33.474-1.159.635-.569-.769Z" transform="translate(-92.758 -255.625)" fill="#fe7652"/>
      <path id="Path_4758" data-name="Path 4758" d="M368.631,223.51v-.476l1.69-.254c.445.326.13.518-.387.713l-.535-.14Z" transform="translate(-120.461 -213.25)" fill="#fe7652"/>
      <path id="Path_4759" data-name="Path 4759" d="M378.909,219.587a1.71,1.71,0,0,0,1.42.111l.788.2-.745.422-.638-.18-.254.334Z" transform="translate(-126.999 -211.219)" fill="#fe7652"/>
      <path id="Path_4760" data-name="Path 4760" d="M91.327,210.1l.51-.368h1.691l.515.339a2.09,2.09,0,0,1-.247.134A6.08,6.08,0,0,0,91.327,210.1Z" transform="translate(-83.064 -204.949)" fill="#fe7652"/>
      <path id="Path_4761" data-name="Path 4761" d="M163.214,303.655l.762.163v.729l-.711-.567-.763.421v-.557Z" transform="translate(-91.96 -264.696)" fill="#fe7652"/>
      <path id="Path_4762" data-name="Path 4762" d="M103.6,258.906l.6-.158.874.229-.327.518Z" transform="translate(-90.871 -236.13)" fill="#fe7652"/>
      <path id="Path_4763" data-name="Path 4763" d="M125.146,299.981l-.937.616a1.525,1.525,0,0,0-1.365.012l-.584-.244Z" transform="translate(-102.741 -262.359)" fill="#fe7652"/>
      <path id="Path_4764" data-name="Path 4764" d="M402.049,234.229h1.338l.116.228-1.5.277-.29-.357Z" transform="translate(-141.504 -220.533)" fill="#fe7652"/>
      <path id="Path_4765" data-name="Path 4765" d="M124.557,299.131h-2.039l-.133-.254,1.635-.166Z" transform="translate(-102.82 -261.551)" fill="#fe7652"/>
      <path id="Path_4766" data-name="Path 4766" d="M99.056,205.17v.528l-.833-.163-.275.141-.626-.406A9.465,9.465,0,0,1,99.056,205.17Z" transform="translate(-86.878 -202.049)" fill="#fe7652"/>
      <path id="Path_4767" data-name="Path 4767" d="M168.563,307.409l-.06-.342c.119-.024.256-.044.381-.077s.259-.082.286-.091l1.91.138c-.019.091-.037.184-.074.362A3.2,3.2,0,0,0,168.563,307.409Z" transform="translate(-93.122 -266.76)" fill="#fe7652"/>
      <path id="Path_4768" data-name="Path 4768" d="M133.623,279.484c.065.286.807.495.3.848-.717-.059-.907-.279-.764-.613Z" transform="translate(-109.648 -249.32)" fill="#fe7652"/>
      <path id="Path_4769" data-name="Path 4769" d="M78.66,245.509l.081.245-1.222.223-.547-.37A8.785,8.785,0,0,1,78.66,245.509Z" transform="translate(-73.932 -227.709)" fill="#fe7652"/>
      <path id="Path_4770" data-name="Path 4770" d="M415.522,249.146l1.8.237-.058.289-1.006-.2-.377.158C415.631,249.5,415.155,249.408,415.522,249.146Z" transform="translate(-150.203 -230.022)" fill="#fe7652"/>
      <path id="Path_4771" data-name="Path 4771" d="M128.115,301.654v.517c-.434,0-.846-.022-1.243.007a9.916,9.916,0,0,0-1.069.21C126.374,301.826,127.432,302.141,128.115,301.654Z" transform="translate(-104.993 -263.423)" fill="#fe7652"/>
      <path id="Path_4772" data-name="Path 4772" d="M108.49,204.687c.108.182-.034.132-.239.061l-.633.177v-.655c.763.016.883.354,1.4.456-.091.064-.182.129-.524-.039a2.1,2.1,0,0,0-.313-.264l-.263.115.1.052C108.09,204.545,108.165,204.5,108.49,204.687Z" transform="translate(-93.427 -201.476)" fill="#fe7652"/>
      <path id="Path_4773" data-name="Path 4773" d="M207.308,199.021a.472.472,0,0,0-.2-.2,2.81,2.81,0,0,0-.588-.117l.452-.25,1.312.384Z" transform="translate(-102.784 -197.774)" fill="#fe7652"/>
      <path id="Path_4774" data-name="Path 4774" d="M112.871,287.1h-.842v-1.08Z" transform="translate(-96.232 -253.475)" fill="#fe7652"/>
      <path id="Path_4775" data-name="Path 4775" d="M74.04,230.789H72.052l.087-.352.983.235.4-.19Z" transform="translate(-70.803 -218.121)" fill="#fe7652"/>
      <path id="Path_4776" data-name="Path 4776" d="M117.7,299.192l-1.2.261c-.344-.318.115-.4.488-.552Z" transform="translate(-99.001 -261.672)" fill="#fe7652"/>
      <path id="Path_4777" data-name="Path 4777" d="M114.677,294.21l1.467-.236.121.316h-1.572Z" transform="translate(-97.917 -258.538)" fill="#fe7652"/>
      <path id="Path_4778" data-name="Path 4778" d="M108.895,287.161v1.033l-.579-.976Z" transform="translate(-93.871 -254.204)" fill="#fe7652"/>
      <path id="Path_4779" data-name="Path 4779" d="M159.79,303.876c.079.4-.287.493-.835.56C158.74,304.077,159.108,303.964,159.79,303.876Z" transform="translate(-91.214 -264.836)" fill="#fe7652"/>
      <path id="Path_4780" data-name="Path 4780" d="M153.68,304.2c-.193.416-.378.6-1.076.567C152.566,304.436,152.941,304.344,153.68,304.2Z" transform="translate(-89.596 -265.045)" fill="#fe7652"/>
      <path id="Path_4781" data-name="Path 4781" d="M419.141,282.911h-1.57l1.289-.328Z" transform="translate(-151.592 -251.292)" fill="#fe7652"/>
      <path id="Path_4782" data-name="Path 4782" d="M73.019,245.953l-.131-.356h1.54Z" transform="translate(-71.335 -227.764)" fill="#fe7652"/>
      <path id="Path_4783" data-name="Path 4783" d="M274.726,200.181l-.215-.277a4.944,4.944,0,0,0,.538-.079,3.3,3.3,0,0,0,.465-.212C275.6,200.026,275.23,200.12,274.726,200.181Z" transform="translate(-120.086 -198.514)" fill="#fe7652"/>
      <path id="Path_4784" data-name="Path 4784" d="M277.872,200.243h.966l.551.282-.892.038Z" transform="translate(-120.616 -198.914)" fill="#fe7652"/>
      <path id="Path_4785" data-name="Path 4785" d="M326.345,201.907l.848.326-.463.312-.567-.54Z" transform="translate(-132.986 -199.973)" fill="#fe7652"/>
      <path id="Path_4786" data-name="Path 4786" d="M250.082,203.32l.443-.469.666.138-.9.435Z" transform="translate(-113.929 -200.573)" fill="#fe7652"/>
      <path id="Path_4787" data-name="Path 4787" d="M84.6,210.3v.247H83.71C83.806,210.26,83.806,210.26,84.6,210.3Z" transform="translate(-78.218 -205.299)" fill="#fe7652"/>
      <path id="Path_4788" data-name="Path 4788" d="M177.488,303.074h.53l.094.462-.623.034Z" transform="translate(-95.959 -264.326)" fill="#fe7652"/>
      <path id="Path_4789" data-name="Path 4789" d="M301.713,202.51l.745-.07v.592Z" transform="translate(-127.071 -200.312)" fill="#fe7652"/>
      <path id="Path_4790" data-name="Path 4790" d="M112.267,299.488h1.182l-.2.414Z" transform="translate(-96.384 -262.045)" fill="#fe7652"/>
      <path id="Path_4791" data-name="Path 4791" d="M83.893,213.714l-.743-.076.743-.515Z" transform="translate(-77.862 -207.107)" fill="#fe7652"/>
      <path id="Path_4792" data-name="Path 4792" d="M100.71,210.74l-.745-.526.745-.067Z" transform="translate(-88.558 -205.214)" fill="#fe7652"/>
      <path id="Path_4793" data-name="Path 4793" d="M351.763,202.586l-.914.369-.28-.369Z" transform="translate(-138.949 -200.405)" fill="#fe7652"/>
      <path id="Path_4794" data-name="Path 4794" d="M418.918,237.863c-.063-.23.124-.383.644-.493v.493Z" transform="translate(-152.441 -222.531)" fill="#fe7652"/>
      <path id="Path_4795" data-name="Path 4795" d="M79.02,237.087h-1.5A2.522,2.522,0,0,1,79.02,237.087Z" transform="translate(-74.282 -222.278)" fill="#fe7652"/>
      <path id="Path_4796" data-name="Path 4796" d="M404.668,244.776l-.695.363c.04.031-.078-.026-.056-.049C404.184,244.8,404.19,244.8,404.668,244.776Z" transform="translate(-142.905 -227.242)" fill="#fe7652"/>
      <path id="Path_4797" data-name="Path 4797" d="M100.676,259.094l-.719-.151.719-.456Z" transform="translate(-88.553 -235.963)" fill="#fe7652"/>
      <path id="Path_4798" data-name="Path 4798" d="M411.377,295.537l1.043-.379.111.379Z" transform="translate(-147.652 -259.291)" fill="#fe7652"/>
      <path id="Path_4799" data-name="Path 4799" d="M196.919,310.5l.837-.35.138.35Z" transform="translate(-100.705 -268.827)" fill="#fe7652"/>
      <path id="Path_4800" data-name="Path 4800" d="M168.871,312.2h-1.235l-.1-.073.692-.1Z" transform="translate(-93.25 -270.018)" fill="#fe7652"/>
      <path id="Path_4801" data-name="Path 4801" d="M395.488,228.43h-1.175c0-.034-.009-.068-.013-.1l1.166-.039Z" transform="translate(-136.789 -216.755)" fill="#fe7652"/>
      <path id="Path_4802" data-name="Path 4802" d="M395.938,223.357h.574l.091.243C396.176,223.727,395.91,223.725,395.938,223.357Z" transform="translate(-137.83 -213.617)" fill="#fe7652"/>
      <path id="Path_4803" data-name="Path 4803" d="M93.389,223.04l.837-.35.138.35Z" transform="translate(-84.375 -213.193)" fill="#fe7652"/>
      <path id="Path_4804" data-name="Path 4804" d="M377.18,219.185l-1.131-.313h1.084Z" transform="translate(-125.179 -210.764)" fill="#fe7652"/>
      <path id="Path_4805" data-name="Path 4805" d="M69.634,218.446l-.6.309-.41-.309Z" transform="translate(-68.619 -210.493)" fill="#fe7652"/>
      <path id="Path_4806" data-name="Path 4806" d="M315.181,202.552l-.561.352-.151-.412.5-.049Z" transform="translate(-130.294 -200.314)" fill="#fe7652"/>
      <path id="Path_4807" data-name="Path 4807" d="M305.449,202.718h-.554l.554-.613Z" transform="translate(-128.001 -200.099)" fill="#fe7652"/>
      <path id="Path_4808" data-name="Path 4808" d="M143.9,198.779l.688.287-.8.077-.1-.256Z" transform="translate(-87.41 -197.983)" fill="#fe7652"/>
      <path id="Path_4809" data-name="Path 4809" d="M129.669,281.045l.837-.35.138.35Z" transform="translate(-107.453 -250.091)" fill="#fe7652"/>
      <path id="Path_4810" data-name="Path 4810" d="M102.671,255.787H102.2l-.118-.289.585-.06Z" transform="translate(-89.908 -234.024)" fill="#fe7652"/>
      <path id="Path_4811" data-name="Path 4811" d="M429.423,254.607l.561-.352.151.412-.5.049Z" transform="translate(-159.131 -233.272)" fill="#fe7652"/>
      <path id="Path_4812" data-name="Path 4812" d="M424.021,282.718h.348V283l-.14.052Z" transform="translate(-155.695 -251.377)" fill="#fe7652"/>
      <path id="Path_4813" data-name="Path 4813" d="M70.371,216.564v-.271L71,216.5Z" transform="translate(-69.733 -209.124)" fill="#fe7652"/>
      <path id="Path_4814" data-name="Path 4814" d="M376.375,221.033l.6.023.124.091-.636.124Z" transform="translate(-125.387 -212.139)" fill="#fe7652"/>
      <path id="Path_4815" data-name="Path 4815" d="M415.679,232.965l.679.217C415.578,233.214,415.578,233.214,415.679,232.965Z" transform="translate(-150.359 -219.729)" fill="#fe7652"/>
      <path id="Path_4816" data-name="Path 4816" d="M74.942,236.951h.512v.486Z" transform="translate(-72.641 -222.265)" fill="#fe7652"/>
      <path id="Path_4817" data-name="Path 4817" d="M69.523,242.017h-.855l-.017-.084.844-.062Z" transform="translate(-68.639 -225.394)" fill="#fe7652"/>
      <path id="Path_4818" data-name="Path 4818" d="M263.75,196.966l-.428-.351C263.732,196.579,264.116,196.528,263.75,196.966Z" transform="translate(-117.541 -196.592)" fill="#fe7652"/>
      <path id="Path_4819" data-name="Path 4819" d="M150.048,199.073l-.823-.2.823-.073Z" transform="translate(-88.814 -197.999)" fill="#fe7652"/>
      <path id="Path_4820" data-name="Path 4820" d="M335.994,202.09v.438l-.164.009-.122-.432Z" transform="translate(-135.955 -200.089)" fill="#fe7652"/>
      <path id="Path_4821" data-name="Path 4821" d="M342.176,202.23l.823.2-.823.074Z" transform="translate(-137.155 -200.178)" fill="#fe7652"/>
      <path id="Path_4822" data-name="Path 4822" d="M87.615,214.085h-.348V213.8l.14-.052Z" transform="translate(-80.481 -207.506)" fill="#fe7652"/>
      <path id="Path_4823" data-name="Path 4823" d="M116.19,273.2h.823l-.765.16Z" transform="translate(-98.879 -245.324)" fill="#fe7652"/>
      <path id="Path_4824" data-name="Path 4824" d="M398.807,291.333v-.494h.161v.494Z" transform="translate(-139.656 -256.543)" fill="#fe7652"/>
      <path id="Path_4825" data-name="Path 4825" d="M401.656,290.952l-.426.218-.074-.218Z" transform="translate(-141.15 -256.615)" fill="#fe7652"/>
      <path id="Path_4826" data-name="Path 4826" d="M212.08,309.808v.4l-.313-.371Z" transform="translate(-104.672 -268.61)" fill="#fe7652"/>
      <path id="Path_4827" data-name="Path 4827" d="M165.651,312.533l-.358-.367C165.6,312.139,166.02,312.057,165.651,312.533Z" transform="translate(-92.93 -270.095)" fill="#fe7652"/>
      <path id="Path_4828" data-name="Path 4828" d="M113.88,274.4v-.33h.161v.33Z" transform="translate(-97.41 -245.878)" fill="#fe7652"/>
      <path id="Path_4829" data-name="Path 4829" d="M128.068,280.952v.274l-.158.011-.117-.276Z" transform="translate(-106.26 -250.254)" fill="#fe7652"/>
      <path id="Path_4830" data-name="Path 4830" d="M150.078,304.964h.533l.025.079-.524.064Z" transform="translate(-89.091 -265.528)" fill="#fe7652"/>
      <path id="Path_4831" data-name="Path 4831" d="M101.522,251.95v.274l-.158.011-.117-.275Z" transform="translate(-89.374 -231.806)" fill="#fe7652"/>
      <path id="Path_4832" data-name="Path 4832" d="M156.283,305.212v-.273l.159-.011.117.275Z" transform="translate(-90.722 -265.505)" fill="#fe7652"/>
      <path id="Path_4833" data-name="Path 4833" d="M147.435,305.674V305.4l.153-.013.125.268Z" transform="translate(-88.491 -265.798)" fill="#fe7652"/>
      <path id="Path_4834" data-name="Path 4834" d="M422.628,249.935v-.274l.153-.013.125.269Z" transform="translate(-154.809 -230.342)" fill="#fe7652"/>
      <path id="Path_4835" data-name="Path 4835" d="M94.413,257.635v-.33h.161v.33Z" transform="translate(-85.027 -235.212)" fill="#fe7652"/>
      <path id="Path_4836" data-name="Path 4836" d="M285.474,197.822v-.273l.153-.013.125.268Z" transform="translate(-123.295 -197.192)" fill="#fe7652"/>
      <path id="Path_4837" data-name="Path 4837" d="M270.032,201.242H269.5l-.021-.081.538-.06Z" transform="translate(-119.099 -199.46)" fill="#fe7652"/>
      <path id="Path_4838" data-name="Path 4838" d="M272.686,201.242h-.535l-.021-.081.538-.06C272.674,201.148,272.68,201.195,272.686,201.242Z" transform="translate(-119.765 -199.46)" fill="#fe7652"/>
      <path id="Path_4839" data-name="Path 4839" d="M379.5,300.355v.33h-.161v-.33Z" transform="translate(-127.273 -262.597)" fill="#fe7652"/>
      <path id="Path_4840" data-name="Path 4840" d="M106.832,206.634v.274l-.159.011-.117-.275Z" transform="translate(-92.751 -202.98)" fill="#fe7652"/>
      <path id="Path_4841" data-name="Path 4841" d="M104.172,207.982v.274l-.153.013-.126-.27Z" transform="translate(-91.057 -203.837)" fill="#fe7652"/>
      <path id="Path_4842" data-name="Path 4842" d="M176.806,302.526h-.322v-.3l.213-.012Z" transform="translate(-95.801 -263.778)" fill="#fe7652"/>
      <path id="Path_4843" data-name="Path 4843" d="M179.775,302.3h-.535l-.021-.081.538-.06C179.763,302.2,179.769,302.25,179.775,302.3Z" transform="translate(-96.415 -263.742)" fill="#fe7652"/>
      <path id="Path_4844" data-name="Path 4844" d="M401.751,247.265l.78.114c-.15.025-.3.06-.451.071C402.034,247.454,401.97,247.391,401.751,247.265Z" transform="translate(-141.529 -228.826)" fill="#fe7652"/>
      <path id="Path_4845" data-name="Path 4845" d="M92.562,248.319H93.1l.025.078-.527.064Z" transform="translate(-83.849 -229.496)" fill="#fe7652"/>
      <path id="Path_4846" data-name="Path 4846" d="M389,221.386v-.274l.153-.013.125.268Z" transform="translate(-133.42 -212.182)" fill="#fe7652"/>
      <path id="Path_4847" data-name="Path 4847" d="M392.287,221.252l-.78-.113c.15-.026.3-.06.451-.071C392,221.064,392.068,221.126,392.287,221.252Z" transform="translate(-135.012 -212.161)" fill="#fe7652"/>
      <path id="Path_4848" data-name="Path 4848" d="M408.972,225.71h-.534l-.025-.078.524-.064Z" transform="translate(-145.766 -215.024)" fill="#fe7652"/>
      <path id="Path_4849" data-name="Path 4849" d="M112.925,282.1v-.274l.159-.011.117.275Z" transform="translate(-96.802 -250.804)" fill="#fe7652"/>
      <path id="Path_4850" data-name="Path 4850" d="M134.306,302.333v-.165h.107v.165Z" transform="translate(-110.403 -263.75)" fill="#fe7652"/>
      <path id="Path_4851" data-name="Path 4851" d="M189.274,301.715v.165h-.107v-.165Z" transform="translate(-99.073 -263.462)" fill="#fe7652"/>
      <path id="Path_4852" data-name="Path 4852" d="M106.925,289.235l-.263-.115.1-.052.224.135Z" transform="translate(-92.818 -255.417)" fill="#fe7652"/>
      <ellipse id="Ellipse_44" data-name="Ellipse 44" cx="0.076" cy="0.117" rx="0.076" ry="0.117" transform="translate(19.373 30.799)" fill="#fe7652"/>
      <path id="Path_4853" data-name="Path 4853" d="M243.144,306.411v-.165h.107v.165Z" transform="translate(-112.709 -266.344)" fill="#fe7652"/>
      <path id="Path_4854" data-name="Path 4854" d="M145.031,305.34v.165h-.107v-.165Z" transform="translate(-87.896 -265.767)" fill="#fe7652"/>
      <path id="Path_4855" data-name="Path 4855" d="M166.268,307.606v.165h-.107v-.165Z" transform="translate(-93.261 -267.209)" fill="#fe7652"/>
      <path id="Path_4856" data-name="Path 4856" d="M217.483,306.864V306.7h.107v.165Z" transform="translate(-106.226 -266.632)" fill="#fe7652"/>
      <ellipse id="Ellipse_45" data-name="Ellipse 45" cx="0.076" cy="0.117" rx="0.076" ry="0.117" transform="translate(113.215 40.033)" fill="#fe7652"/>
      <path id="Path_4857" data-name="Path 4857" d="M415.693,271.971v-.165h.107v.165Z" transform="translate(-150.397 -244.436)" fill="#fe7652"/>
      <path id="Path_4858" data-name="Path 4858" d="M106.982,277.7v.165h-.107V277.7Z" transform="translate(-92.954 -248.184)" fill="#fe7652"/>
      <path id="Path_4859" data-name="Path 4859" d="M426.419,278.6v.165h-.107V278.6Z" transform="translate(-157.152 -248.76)" fill="#fe7652"/>
      <path id="Path_4860" data-name="Path 4860" d="M407.73,291.457v-.165h.107v.165Z" transform="translate(-145.332 -256.831)" fill="#fe7652"/>
      <path id="Path_4861" data-name="Path 4861" d="M120.255,298.089v.165h-.107v-.165Z" transform="translate(-101.397 -261.155)" fill="#fe7652"/>
      <path id="Path_4862" data-name="Path 4862" d="M122.8,273.784v-.165h.107v.165Z" transform="translate(-103.085 -245.59)" fill="#fe7652"/>
      <path id="Path_4863" data-name="Path 4863" d="M423.764,273.619v.165h-.107v-.165Z" transform="translate(-155.463 -245.59)" fill="#fe7652"/>
      <path id="Path_4864" data-name="Path 4864" d="M96.256,277.409v-.165h.107v.165Z" transform="translate(-86.199 -247.895)" fill="#fe7652"/>
      <path id="Path_4865" data-name="Path 4865" d="M405.188,226.021l-.224.135-.1-.052.263-.115Z" transform="translate(-143.508 -215.292)" fill="#fe7652"/>
      <path id="Path_4866" data-name="Path 4866" d="M405.572,225.761l.225-.135.1.052-.263.115Z" transform="translate(-143.959 -215.061)" fill="#fe7652"/>
      <path id="Path_4867" data-name="Path 4867" d="M85.638,223.483v-.165h.107v.165Z" transform="translate(-79.445 -213.593)" fill="#fe7652"/>
      <path id="Path_4868" data-name="Path 4868" d="M409.606,222.865v.165H409.5v-.165Z" transform="translate(-146.457 -213.304)" fill="#fe7652"/>
      <path id="Path_4869" data-name="Path 4869" d="M395.341,221.217v-.165h.107v.165Z" transform="translate(-137.451 -212.151)" fill="#fe7652"/>
      <path id="Path_4870" data-name="Path 4870" d="M390.967,220.808l-.263-.115.1-.052.225.135Z" transform="translate(-134.502 -211.89)" fill="#fe7652"/>
      <path id="Path_4871" data-name="Path 4871" d="M367.91,217.139v-.165h.107v.165Z" transform="translate(-120.002 -209.557)" fill="#fe7652"/>
      <path id="Path_4872" data-name="Path 4872" d="M84.753,243.875v-.165h.107v.165Z" transform="translate(-78.882 -226.564)" fill="#fe7652"/>
      <path id="Path_4873" data-name="Path 4873" d="M95.372,239.343v-.165h.107v.165Z" transform="translate(-85.637 -223.681)" fill="#fe7652"/>
      <ellipse id="Ellipse_46" data-name="Ellipse 46" cx="0.076" cy="0.117" rx="0.076" ry="0.117" transform="translate(263.342 14.968)" fill="#fe7652"/>
      <path id="Path_4874" data-name="Path 4874" d="M91.054,236.459v.165h-.107v-.165Z" transform="translate(-82.822 -221.952)" fill="#fe7652"/>
      <path id="Path_4875" data-name="Path 4875" d="M421.887,233.452v-.165h.107v.165Z" transform="translate(-154.337 -219.934)" fill="#fe7652"/>
      <path id="Path_4876" data-name="Path 4876" d="M410.059,233.24l.263.115-.1.052-.225-.135Z" transform="translate(-146.773 -219.904)" fill="#fe7652"/>
      <path id="Path_4877" data-name="Path 4877" d="M409.549,233.043l-.263-.115.1-.052.225.135Z" transform="translate(-146.322 -219.673)" fill="#fe7652"/>
      <path id="Path_4878" data-name="Path 4878" d="M391.8,229.827v-.165h.107v.165Z" transform="translate(-135.2 -217.628)" fill="#fe7652"/>
      <path id="Path_4879" data-name="Path 4879" d="M72.392,214.914H72.07v-.055h.322Z" transform="translate(-70.814 -208.212)" fill="#fe7652"/>
      <path id="Path_4880" data-name="Path 4880" d="M109.234,208.061h.322v.055h-.322Z" transform="translate(-94.454 -203.888)" fill="#fe7652"/>
      <path id="Path_4881" data-name="Path 4881" d="M99.9,255.492v.165H99.8v-.165Z" transform="translate(-88.451 -234.059)" fill="#fe7652"/>
      <path id="Path_4882" data-name="Path 4882" d="M100.681,257.47V257.3h.107v.165Z" transform="translate(-89.014 -235.212)" fill="#fe7652"/>
      <path id="Path_4883" data-name="Path 4883" d="M412.267,256.836l-.224.135-.1-.052.263-.115Z" transform="translate(-148.011 -234.893)" fill="#fe7652"/>
      <path id="Path_4884" data-name="Path 4884" d="M122.909,251.414v.165H122.8v-.165Z" transform="translate(-103.085 -231.465)" fill="#fe7652"/>
      <path id="Path_4885" data-name="Path 4885" d="M429.073,250.054v.165h-.107v-.165Z" transform="translate(-158.84 -230.6)" fill="#fe7652"/>
      <path id="Path_4886" data-name="Path 4886" d="M122.025,249.6v.165h-.107V249.6Z" transform="translate(-102.523 -230.311)" fill="#fe7652"/>
      <path id="Path_4887" data-name="Path 4887" d="M94.487,215.326v-.165h.107v.165Z" transform="translate(-85.074 -208.404)" fill="#fe7652"/>
      <path id="Path_4888" data-name="Path 4888" d="M392.362,294.417l.263.115-.1.052-.224-.135Z" transform="translate(-135.516 -258.819)" fill="#fe7652"/>
      <path id="Path_4889" data-name="Path 4889" d="M383.838,300.973v-.165h.107v.165Z" transform="translate(-130.134 -262.885)" fill="#fe7652"/>
    </g>
  </g>
</svg>
