<svg id="圖層_1" data-name="圖層 1" xmlns="http://www.w3.org/2000/svg" viewBox="0 0 399 1024"><defs><style>.cls-1{fill:#03588c;}.cls-1,.cls-2,.cls-3,.cls-4{opacity:0.7;isolation:isolate;}.cls-2{fill:#0388a6;}.cls-3{fill:#f2de79;}.cls-4{fill:#ff9685;}</style></defs><path id="Rectangle_90" data-name="Rectangle 90" class="cls-1" d="M338.19,16h0a7,7,0,0,1,2.73,9.52L321.39,60.78a7,7,0,0,1-9.52,2.73h0A7,7,0,0,1,309.14,54l19.53-35.22A7,7,0,0,1,338.19,16Z"/><path id="Rectangle_93" data-name="Rectangle 93" class="cls-2" d="M220.19,253h0a7,7,0,0,1,2.73,9.52l-19.53,35.22a7,7,0,0,1-9.52,2.73h0a7,7,0,0,1-2.73-9.52l19.53-35.22A7,7,0,0,1,220.19,253Z"/><path id="Rectangle_89" data-name="Rectangle 89" class="cls-3" d="M338.19,378h0a7,7,0,0,1,2.73,9.52l-19.53,35.22a7,7,0,0,1-9.52,2.73h0a7,7,0,0,1-2.73-9.52l19.53-35.22A7,7,0,0,1,338.19,378Z"/><path id="Rectangle_92" data-name="Rectangle 92" class="cls-1" d="M80.19,543h0a7,7,0,0,1,2.73,9.52L63.39,587.78a7,7,0,0,1-9.52,2.73h0A7,7,0,0,1,51.14,581l19.53-35.22A7,7,0,0,1,80.19,543Z"/><path id="Rectangle_87" data-name="Rectangle 87" class="cls-4" d="M114.19,99h0a7,7,0,0,1,2.73,9.52L97.39,143.78a7,7,0,0,1-9.52,2.73h0A7,7,0,0,1,85.14,137l19.53-35.22A7,7,0,0,1,114.19,99Z"/><path id="Rectangle_88" data-name="Rectangle 88" class="cls-4" d="M357.19,673h0a7,7,0,0,1,2.73,9.52l-19.53,35.22a7,7,0,0,1-9.52,2.73h0a7,7,0,0,1-2.73-9.52l19.53-35.22A7,7,0,0,1,357.19,673Z"/><path id="Rectangle_91" data-name="Rectangle 91" class="cls-2" d="M153.19,867h0a7,7,0,0,1,2.73,9.52l-19.53,35.22a7,7,0,0,1-9.52,2.73h0a7,7,0,0,1-2.73-9.52l19.53-35.22A7,7,0,0,1,153.19,867Z"/></svg>