<svg id="圖層_1" data-name="圖層 1" xmlns="http://www.w3.org/2000/svg" viewBox="0 0 52.45 25.01"><defs><style>.cls-1{fill:#0388a6;}.cls-2{fill:#ff9685;opacity:0.8;isolation:isolate;}</style></defs><g id="Group_143" data-name="Group 143"><path id="Rectangle_68" data-name="Rectangle 68" class="cls-1" d="M324,250.13h0a5.13,5.13,0,0,1-7.15,1.25l-21-14.72a5.13,5.13,0,0,1-1.25-7.15h0a5.13,5.13,0,0,1,7.14-1.26l21,14.73A5.12,5.12,0,0,1,324,250.13Z" transform="translate(-293.65 -227.32)"/><path id="Rectangle_69" data-name="Rectangle 69" class="cls-2" d="M345.16,229.52h0a5.12,5.12,0,0,1-1.26,7.15l-21,14.73a5.13,5.13,0,0,1-7.14-1.26h0A5.13,5.13,0,0,1,317,243l21-14.72A5.13,5.13,0,0,1,345.16,229.52Z" transform="translate(-293.65 -227.32)"/></g></svg>