<svg id="圖層_1" data-name="圖層 1" xmlns="http://www.w3.org/2000/svg" viewBox="0 0 22.47 47.13"><defs><style>.cls-1{fill:#f2de79;}.cls-2{fill:#ff9685;opacity:0.8;isolation:isolate;}</style></defs><path id="Rectangle_68" data-name="Rectangle 68" class="cls-1" d="M310.61,243.53h0a4.62,4.62,0,0,1-1.13-6.42l13.24-18.88a4.6,4.6,0,0,1,6.42-1.13h0a4.61,4.61,0,0,1,1.13,6.42L317,242.4A4.62,4.62,0,0,1,310.61,243.53Z" transform="translate(-308.63 -216.26)"/><path id="Path_4435" data-name="Path 4435" class="cls-2" d="M329.13,262.55a4.61,4.61,0,0,1-6.43-1.13l-13.23-18.88a4.61,4.61,0,0,1,7.55-5.29h0l13.24,18.88A4.61,4.61,0,0,1,329.13,262.55Z" transform="translate(-308.63 -216.26)"/></svg>