<svg xmlns="http://www.w3.org/2000/svg" viewBox="0 0 375 814"><defs><style>.cls-1{fill:none;}.cls-2{fill:#f8f4eb;}.cls-3{fill:#f2de79;}.cls-4{fill:#0388a6;}.cls-5{fill:#fff;}.cls-6{fill:#03588c;}</style></defs><g id="圖層_2" data-name="圖層 2"><g id="圖層_1-2" data-name="圖層 1"><path class="cls-1" d="M285.14,812a3,3,0,0,1-1.13,2h8.56c.21-.67.43-1.33.65-2Z"/><path class="cls-2" d="M62.8,286.05c34.42,13.91,62.94,47.81,60.52,84.83-1.55,24.28-15.73,47.53-11.8,71.54C119.07,487.84,184,504.14,194.71,549c8.08,33.85-22,67.72-56.05,75-2.87.61-5.74,1.06-8.62,1.4a3.05,3.05,0,1,1-3.72,3h0a3,3,0,0,1,1.79-2.77c-30.71,3-61.8-8.69-89.42-23.2C25.92,595.62,13.07,588.17,0,581.51v83.7c17.19,12.12,33.51,25.68,50,39a3.05,3.05,0,1,1,4.08,3.29q6.21,5,12.48,9.91a3,3,0,0,1,1.73-.55A3.06,3.06,0,0,1,71.33,720a3,3,0,0,1-.2,1c13.59,10.41,27.56,20.23,42.47,28.55a248.18,248.18,0,0,0,29.15,13.86,3,3,0,0,1,4.91,1.9,249,249,0,0,0,43.66,12c8.84,1.57,17.82,2.69,26.69,4.17a2.58,2.58,0,0,1,0-.4,3.06,3.06,0,0,1,6.11,0,3,3,0,0,1-.37,1.43,126.18,126.18,0,0,1,21.68,5.91,98,98,0,0,1,19.24,10,2.85,2.85,0,0,1-.31-.38,3.05,3.05,0,1,1,4.24.83,3.08,3.08,0,0,1-2.78.32,119.3,119.3,0,0,1,13.67,11,3,3,0,0,1,5.73,1.45,2.45,2.45,0,0,1,0,.39h8.08q4.2-13,9.37-25.53c11.38-27.57,26-54.14,32.56-83.26,8-35.42,3.68-72.29,2.25-108.59S338,520,356.79,489A90,90,0,0,1,375,467.58V338.31c-26.84-17.76-42.89-53.66-37.84-86.5C341.89,221,361,192.94,361,161.72c0-12.16-2.87-24-6.11-35.77-1.36.88-2.74,1.73-4.14,2.53a3,3,0,0,1-.58-1.77,3.27,3.27,0,0,1,.07-.62,3,3,0,0,1,4.07-2.23c-1.95-7-4-14.07-5.53-21.18C341.36,68.39,346.14,31.91,360.61,0H106l.57,2.55a3,3,0,0,1,5.33,1.34,3.18,3.18,0,0,1,.06.62,3.05,3.05,0,0,1-2.43,3,3.26,3.26,0,0,1-.62.06,3,3,0,0,1-1.19-.24l-.12-.06c2.65,12.43,4.88,25,6.79,37.44,5.34,35.26,6.86,75.87-17.87,101.63-23,23.87-60.22,25.95-93.26,23.3L0,169.35V276.11C21.18,275.42,42.23,277.68,62.8,286.05ZM53,610a3.05,3.05,0,0,1,3.06,3,3.18,3.18,0,0,1-.06.62,3.06,3.06,0,0,1-6,0,3.18,3.18,0,0,1-.06-.62A3,3,0,0,1,53,610ZM9.84,596.31a3,3,0,0,1-2.67,4.5h0a3.05,3.05,0,0,1-3-3.06,2.58,2.58,0,0,1,0-.39C6.05,597,7.94,596.63,9.84,596.31Zm-2.67,65.6h0a3.06,3.06,0,1,1,3.06-3A3,3,0,0,1,7.16,661.91Zm0-30.55h0a3.06,3.06,0,1,1,3.06-3.05A3,3,0,0,1,7.16,631.36Zm15.28,45.83a3.06,3.06,0,0,1-3.06-3.05,3,3,0,0,1,.24-1.19,3.06,3.06,0,0,1,2.81-1.87h0a3.06,3.06,0,0,1,0,6.11Zm0-30.55a3.06,3.06,0,1,1,3.05-3.06A3.06,3.06,0,0,1,22.45,646.64Zm3-33a3.06,3.06,0,0,1-6,0,3.18,3.18,0,0,1-.06-.62,3.06,3.06,0,0,1,6.11,0A3.26,3.26,0,0,1,25.44,613.65Zm12.28,78.81h0a3.06,3.06,0,1,1,3.05-3.05A3.06,3.06,0,0,1,37.72,692.46Zm0-30.55h0a3.06,3.06,0,1,1,3.06-3A3.06,3.06,0,0,1,37.72,661.91Zm0-30.55h0a3.06,3.06,0,1,1,3.06-3.05A3.06,3.06,0,0,1,37.72,631.36Zm17,45.3a3.05,3.05,0,1,1,.82-4.24A3,3,0,0,1,54.7,676.66Zm-1.7-30h0a3,3,0,0,1-3.05-3h0A3.06,3.06,0,1,1,53,646.64Zm15.27,45.82h0a3.06,3.06,0,1,1,3.06-3.05A3,3,0,0,1,68.26,692.46Zm0-30.55h0a3.06,3.06,0,1,1,3.07-3A3,3,0,0,1,68.26,661.91Zm0-30.55h0a3.06,3.06,0,1,1,3.07-3.05A3.06,3.06,0,0,1,68.26,631.36Zm17.82,75a3.06,3.06,0,1,1-.82-4.25A3.06,3.06,0,0,1,86.09,706.4Zm-5.6-32.27a3,3,0,0,1,.24-1.19,3.53,3.53,0,0,1,.28-.5,3.05,3.05,0,1,1,.83,4.23,3,3,0,0,1-.83-.83A3,3,0,0,1,80.49,674.13Zm5.6-28.83a3.06,3.06,0,1,1-.82-4.25A3.06,3.06,0,0,1,86.09,645.3ZM98.82,723h0a3.06,3.06,0,1,1,3.06-3.06A3,3,0,0,1,98.82,723Zm-3-33.61a3.06,3.06,0,1,1,3,3.05h0A3,3,0,0,1,95.77,689.41Zm3-27.5h0a3.06,3.06,0,1,1,3.06-3A3,3,0,0,1,98.82,661.91Zm0-30.55h0a3.06,3.06,0,1,1,3.06-3.05A3,3,0,0,1,98.82,631.36Zm18.27,104.49a3.05,3.05,0,0,1-6,0,2.48,2.48,0,0,1-.07-.61,3.06,3.06,0,1,1,6,.61Zm-3-28.11h0a3.05,3.05,0,0,1-3-3.06h0a3.06,3.06,0,1,1,3.06,3.06ZM111,674.14a3,3,0,0,1,.24-1.19,3.05,3.05,0,0,1,5.63,0,3.05,3.05,0,0,1-1.11,3.72,3.05,3.05,0,0,1-4.76-2.53Zm3.06-27.5h0a3,3,0,0,1-3-3h0a3.06,3.06,0,1,1,3.06,3.06Zm15.27,106.93h0a3.05,3.05,0,0,1-3.05-3.06h0a3.06,3.06,0,1,1,3.05,3.06Zm0-30.55h0a3.05,3.05,0,0,1-3.05-3.06h0a3.06,3.06,0,1,1,3.05,3.06Zm-3.05-33.61a3.06,3.06,0,1,1,3.05,3.05h0A3,3,0,0,1,126.32,689.41Zm3.05-27.5h0a3,3,0,0,1-3.05-3h0a3.06,3.06,0,1,1,3.05,3.06Zm220.9-658a3.05,3.05,0,0,1,6,0,2.53,2.53,0,0,1,.06.61h0a3.06,3.06,0,0,1-6.11,0A3.17,3.17,0,0,1,350.27,3.89ZM166.9,126.71a2.62,2.62,0,0,1,.07-.62,3.05,3.05,0,0,1,6,0,3.26,3.26,0,0,1,.06.62,3.06,3.06,0,1,1-6.11,0Zm30.56,0a3.26,3.26,0,0,1,.06-.62,3.05,3.05,0,0,1,6,0,3.27,3.27,0,0,1,.07.62,3.06,3.06,0,1,1-6.11,0ZM212.73,142a3.06,3.06,0,0,1,3.05-3.06h0a3.06,3.06,0,1,1-3.06,3.06ZM228,126.71a3.26,3.26,0,0,1,.06-.62,3.06,3.06,0,0,1,6,0,3.26,3.26,0,0,1,.06.62v0a3,3,0,0,1-3.05,3,3.19,3.19,0,0,1-1.19-.23A3.07,3.07,0,0,1,228,126.71ZM243.28,142a3.06,3.06,0,0,1,3.05-3.06h0a3.06,3.06,0,1,1-3.07,3.06Zm15.28-15.28a3.26,3.26,0,0,1,.06-.62,3.05,3.05,0,0,1,6,0,3.27,3.27,0,0,1,.07.62,3.06,3.06,0,1,1-6.11,0ZM273.83,142a3.06,3.06,0,0,1,3.05-3.06h0a3.06,3.06,0,1,1-3.06,3.06Zm15.27-15.28a4.36,4.36,0,0,1,.07-.62,3.05,3.05,0,0,1,6,0,2.62,2.62,0,0,1,.07.62,3.06,3.06,0,0,1-6.12,0ZM269.38,706.4a3.06,3.06,0,1,1-2.53-4.77,3,3,0,0,1,2.24,1c.28.71.55,1.42.81,2.14A3.08,3.08,0,0,1,269.38,706.4Zm.52,28.84a3.05,3.05,0,0,1-6,.61,4.07,4.07,0,0,1-.07-.61,3.06,3.06,0,1,1,6.11,0Zm-15.27-45.83a3.05,3.05,0,0,1-3.06,3.05h0a3.06,3.06,0,1,1,3.06-3.05Zm-49.5,12.28a3.26,3.26,0,0,1,.62-.06,3.06,3.06,0,1,1,0,6.11,3.26,3.26,0,0,1-.62-.06h0a3.06,3.06,0,0,1,0-6ZM202.93,673a3.06,3.06,0,0,1,2.2-1.81,3.18,3.18,0,0,1,.62-.06,3,3,0,0,1,1.18.24,3.05,3.05,0,0,1-1.18,5.87,3.18,3.18,0,0,1-.62-.06,3.13,3.13,0,0,1-1.92-1.29h0A3.06,3.06,0,0,1,202.93,673Zm4-26.55a3,3,0,0,1-1.19.24,3.18,3.18,0,0,1-.62-.06h0a3.06,3.06,0,0,1,0-6,3.18,3.18,0,0,1,.62-.07,3.06,3.06,0,0,1,1.19,5.88Zm26.54,26.54a3.15,3.15,0,0,1,1.11-1.34,3,3,0,1,1-1.11,1.34Zm-50.1-533.36a3,3,0,0,1,1.85-.65h0a3,3,0,0,1,2.71,1.69C186.42,140.28,184.9,139.94,183.38,139.58Zm-5.93,475.5a3,3,0,0,1-5.24-1.43,2.56,2.56,0,0,1-.07-.62h0a.5.5,0,0,1,0-.12C173.93,613.61,175.69,614.34,177.45,615.08Zm-5.31,120.16a3.06,3.06,0,0,1,3.06-3.06h0a3.05,3.05,0,1,1-3,3.67,2.48,2.48,0,0,1-.07-.61Zm-12.22-110a3.06,3.06,0,1,1,0,6.11h0a3.06,3.06,0,1,1,0-6.11Zm0,30.55a3.06,3.06,0,1,1,0,6.11h0a3.06,3.06,0,1,1,0-6.11Zm0,30.55a3.06,3.06,0,0,1,0,6.11h0a3.06,3.06,0,1,1,0-6.11Zm-12.28,49.5a3.07,3.07,0,1,1,.06-.61A3.05,3.05,0,0,1,147.64,735.85Zm-6-61.72a3,3,0,0,1,.24-1.19,3.06,3.06,0,0,1,5.35-.51,3.06,3.06,0,1,1-5.59,1.7Zm3.06,33.61h0a3.06,3.06,0,0,1-3.06-3.06h0a3.06,3.06,0,1,1,3.06,3.06Zm0-61.1h0a3.06,3.06,0,0,1-3.06-3h0a3.06,3.06,0,1,1,3.06,3.06Zm15.27,70.26a3.06,3.06,0,1,1,0,6.12h0a3.06,3.06,0,1,1,0-6.12Zm0,36.67h0a3.05,3.05,0,0,1-3-3.06h0a3.06,3.06,0,1,1,3,3.06Zm15.28,15.27h0a3.05,3.05,0,0,1-3.06-3.05h0a3.06,3.06,0,1,1,3.06,3.06Zm0-61.1h0a3.06,3.06,0,0,1-3.05-3.06h0a3.06,3.06,0,1,1,3.06,3.06Zm-3-33.61A3,3,0,0,1,178,673a2.92,2.92,0,0,1,.24,1.17,3,3,0,0,1-6.09,0Zm3-27.49h0a3.06,3.06,0,0,1-3.05-3h0a3.06,3.06,0,1,1,3.06,3.06Zm15.27,106.93h0a3.05,3.05,0,0,1-3.05-3.06h0a3.06,3.06,0,1,1,3.05,3.06Zm0-30.55h0a3.05,3.05,0,0,1-3.05-3.06h0a3.06,3.06,0,1,1,3.05,3.06Zm-3.05-33.61a3.06,3.06,0,1,1,3.05,3.05h0A3,3,0,0,1,187.42,689.41Zm3.05-27.5h0a3,3,0,0,1-3.05-3h0a3.06,3.06,0,1,1,3.05,3.06Zm0-30.55a3.06,3.06,0,0,1-3.05-3.05h0a3.06,3.06,0,1,1,3.05,3.06Zm14.66,100.89a4.36,4.36,0,0,1,.62-.07,3.24,3.24,0,0,1,1.19.24,3.06,3.06,0,0,1-1.19,5.87,3.18,3.18,0,0,1-.62-.06,3,3,0,0,1-2.37-2.38,2.48,2.48,0,0,1-.07-.61A3.05,3.05,0,0,1,205.13,732.25Zm.62,36.59a3.18,3.18,0,0,1-.62-.06h0a3.06,3.06,0,0,1,0-6,3.26,3.26,0,0,1,.62-.06,3.06,3.06,0,0,1,0,6.11ZM221,753.57h0a3.06,3.06,0,1,1,3.06-3.06A3,3,0,0,1,221,753.57ZM221,723h0a3.06,3.06,0,1,1,3.06-3.06A3,3,0,0,1,221,723ZM218,689.41a3.06,3.06,0,1,1,3.05,3.05h0A3,3,0,0,1,218,689.41Zm3.05-27.5h0a3.06,3.06,0,1,1,3.06-3A3,3,0,0,1,221,661.91ZM236.3,768.84h0a3.05,3.05,0,0,1-3.06-3.05h0a3.06,3.06,0,1,1,3.06,3.06Zm-3.06-33.6a3,3,0,1,1,.06.61A3.05,3.05,0,0,1,233.24,735.24Zm3.06-27.5h0a3.06,3.06,0,0,1-3-3.06h0a3.06,3.06,0,1,1,3.06,3.06Zm15.27,76.38h0a3.06,3.06,0,1,1,3.06-3.06A3.06,3.06,0,0,1,251.57,784.12Zm0-30.55h0a3.05,3.05,0,0,1-3-3.06h0a3.06,3.06,0,1,1,3,3.06Zm0-30.55h0a3.05,3.05,0,0,1-3-3.06h0a3.06,3.06,0,1,1,3,3.06Zm17.81,44.48a3.05,3.05,0,1,1-.82-4.24A3,3,0,0,1,269.38,767.5Zm12.74,16.62h0a3.06,3.06,0,1,1,3.06-3.06A3.05,3.05,0,0,1,282.12,784.12Zm0-30.55h0a3.05,3.05,0,0,1-.82-6q.61,3,1.2,5.95A2.45,2.45,0,0,1,282.12,753.57Zm22.64-610.14a3,3,0,0,1-.37-1.44,3.05,3.05,0,0,1,3.05-3.06h0a3.06,3.06,0,0,1,3,3.06,2.58,2.58,0,0,1,0,.4Q307.62,142.95,304.76,143.43Zm14.89-16.72a2.62,2.62,0,0,1,.07-.62,3.05,3.05,0,0,1,6,0,4.36,4.36,0,0,1,.07.62,3.06,3.06,0,1,1-6.12,0ZM338,16.72h0A3.06,3.06,0,0,1,341,19.78h0A3.06,3.06,0,1,1,338,16.72ZM341,50.34A3.06,3.06,0,1,1,338,47.28h0A3.05,3.05,0,0,1,341,50.34ZM338,77.83h0A3.05,3.05,0,0,1,341,80.89h0A3.06,3.06,0,1,1,338,77.83Zm0,30.55a3.05,3.05,0,0,1,3.05,3.06h0a3.06,3.06,0,1,1-3.05-3.06ZM319.72,3.89a3.05,3.05,0,0,1,6,0,4.22,4.22,0,0,1,.07.61,3.06,3.06,0,0,1-6.12,0A2.54,2.54,0,0,1,319.72,3.89Zm3,28.11h0a3.06,3.06,0,0,1,3,3.06h0A3.06,3.06,0,1,1,322.71,32Zm1.2,36.41a3.05,3.05,0,1,1,1.33-4.51h0a3.53,3.53,0,0,1,.28.5A3.06,3.06,0,0,1,323.91,68.41Zm-1.2,24.7h0a3.06,3.06,0,0,1,3,3h0a3.06,3.06,0,1,1-3.06-3ZM307.44,16.72h0a3.06,3.06,0,1,1-3.07,3.06A3.06,3.06,0,0,1,307.45,16.72Zm3.05,33.62a3.05,3.05,0,1,1-3.05-3.06h0A3,3,0,0,1,310.49,50.34Zm-3.05,27.49h0a3.06,3.06,0,1,1-3.07,3.06A3,3,0,0,1,307.45,77.83Zm0,30.55h0a3.06,3.06,0,1,1-3.07,3.06A3,3,0,0,1,307.45,108.38Zm-15.28-9.16a3.06,3.06,0,1,1,3.06-3A3.06,3.06,0,0,1,292.16,99.22Zm-3.05-33.61a3.06,3.06,0,1,1,3.05,3h0A3,3,0,0,1,289.11,65.61Zm.06-61.72a3.05,3.05,0,0,1,6,0,2.54,2.54,0,0,1,.07.61h0a3.06,3.06,0,0,1-6.12,0A4.22,4.22,0,0,1,289.17,3.89Zm3,28.12a3,3,0,0,1,3,3.05h0a3.06,3.06,0,1,1-3-3.05ZM276.88,16.72h0a3.06,3.06,0,1,1-3.06,3.06A3.06,3.06,0,0,1,276.89,16.72Zm3.06,33.62a3.06,3.06,0,1,1-3.06-3.06h0A3.05,3.05,0,0,1,279.94,50.34Zm-3.06,27.49h0a3.06,3.06,0,1,1-3.06,3.06A3.05,3.05,0,0,1,276.89,77.83Zm0,30.55h0a3.06,3.06,0,1,1-3.06,3.06A3.06,3.06,0,0,1,276.89,108.38ZM258.62,3.89a3.05,3.05,0,0,1,6,0,2.54,2.54,0,0,1,.07.61,3.06,3.06,0,1,1-6.11,0A3.15,3.15,0,0,1,258.62,3.89Zm3,28.11h0a3.06,3.06,0,0,1,3.05,3.06h0A3.06,3.06,0,1,1,261.61,32Zm3.06,33.61a3.06,3.06,0,1,1-.53-1.71A3.07,3.07,0,0,1,264.67,65.61Zm-3.06,27.5h0a3.06,3.06,0,0,1,3.05,3h0a3.06,3.06,0,1,1-3.06-3ZM246.33,16.72h0a3.06,3.06,0,1,1-3.07,3.06A3.06,3.06,0,0,1,246.35,16.72Zm3.06,33.62a3.06,3.06,0,1,1-3.06-3.06h0A3,3,0,0,1,249.39,50.34Zm-3.06,27.49h0a3.06,3.06,0,1,1-3.07,3.06A3,3,0,0,1,246.35,77.83Zm0,30.55h0a3.06,3.06,0,1,1-3.06,3.06A3.05,3.05,0,0,1,246.34,108.38ZM228.07,3.89a3.05,3.05,0,0,1,6,0,3.15,3.15,0,0,1,.06.61,3.06,3.06,0,1,1-6.11,0A2.54,2.54,0,0,1,228.07,3.89Zm.45,29.45a3.06,3.06,0,0,1,4.25-.81,3,3,0,0,1,1.34,2.53,3.1,3.1,0,0,1-.52,1.72,3.06,3.06,0,0,1-5.07-3.44Zm5.59,32.27a3,3,0,0,1-.24,1.19,2.49,2.49,0,0,1-.27.51,3.06,3.06,0,1,1-2.54-4.76,3,3,0,0,1,1.71.53,3.2,3.2,0,0,1,.82.82A3,3,0,0,1,234.11,65.61Zm-5.59,28.83a3.06,3.06,0,0,1,5.59,1.72,3.1,3.1,0,0,1-.52,1.72,3.06,3.06,0,0,1-5.07-3.44ZM215.78,16.72h0a3.06,3.06,0,1,1-3.06,3.06A3.06,3.06,0,0,1,215.79,16.72Zm3.06,33.62a3.06,3.06,0,1,1-3.06-3.06h0A3.05,3.05,0,0,1,218.84,50.34Zm-3.06,27.49h0a3.06,3.06,0,1,1-3.06,3.06A3.05,3.05,0,0,1,215.79,77.83Zm0,30.55h0a3.06,3.06,0,1,1-3.06,3.06A3.06,3.06,0,0,1,215.79,108.38ZM197.52,3.89a3.05,3.05,0,0,1,6,0,2.54,2.54,0,0,1,.07.61,3.06,3.06,0,1,1-6.11,0A3.15,3.15,0,0,1,197.52,3.89Zm6,61.72a3.05,3.05,0,1,1-.52-1.71A3,3,0,0,1,203.57,65.61ZM200.51,32h0a3.06,3.06,0,0,1,3,3.06h0A3.06,3.06,0,1,1,200.51,32Zm0,61.11h0a3,3,0,0,1,3,3h0a3.06,3.06,0,1,1-3.06-3ZM185.23,16.72h0a3.06,3.06,0,0,1,3,3.06h0a3.06,3.06,0,1,1-3.06-3.06Zm3.06,33.62a3.06,3.06,0,1,1-3.06-3.06h0A3.06,3.06,0,0,1,188.29,50.34Zm-3.06,27.49h0a3.06,3.06,0,0,1,3,3.06h0a3.06,3.06,0,1,1-3.06-3.06Zm0,30.55a3.06,3.06,0,0,1,3.06,3.06h0a3.06,3.06,0,1,1-3.06-3.06ZM167,3.89a3.05,3.05,0,0,1,6,0,3.15,3.15,0,0,1,.06.61,3.06,3.06,0,1,1-6.11,0A2.54,2.54,0,0,1,167,3.89ZM170,32h0a3.05,3.05,0,0,1,3,3.06h0A3.06,3.06,0,1,1,170,32Zm3,33.61a3,3,0,0,1-.24,1.19,3,3,0,0,1-1.1,1.34,3.06,3.06,0,1,1,.82-4.24A3,3,0,0,1,173,65.61Zm-3,27.5h0a3,3,0,0,1,3,3h0a3.06,3.06,0,1,1-3-3.06ZM154.68,16.72h0a3.06,3.06,0,1,1-3.06,3.06A3.06,3.06,0,0,1,154.69,16.72Zm3.06,33.62a3.06,3.06,0,1,1-3.06-3.06h0A3.05,3.05,0,0,1,157.74,50.34Zm-3.06,27.49h0a3.06,3.06,0,1,1-3.06,3.06A3.05,3.05,0,0,1,154.69,77.83Zm0,30.55h0a3.06,3.06,0,1,1-3.05,3.06A3.06,3.06,0,0,1,154.68,108.38ZM136.42,3.89a3.05,3.05,0,0,1,6,0,2.07,2.07,0,0,1,.06.61h0a3.06,3.06,0,0,1-3.05,3.05h0a3.07,3.07,0,0,1-3-3.67Zm3,28.11h0a3,3,0,0,1,3,3.06h0A3.06,3.06,0,1,1,139.41,32Zm3,33.61a3,3,0,0,1-5.85,1.19,3.13,3.13,0,0,1-.23-1.17,3,3,0,0,1,6.08,0Zm-3,27.5h0a3,3,0,0,1,3,3h0a3.06,3.06,0,1,1-3.05-3.06ZM124.13,16.72h0a3.07,3.07,0,0,1,3,3.06h0a3.06,3.06,0,1,1-3.06-3.06Zm3.06,33.62a3.06,3.06,0,1,1-3.06-3.06h0A3.06,3.06,0,0,1,127.19,50.34Zm-3.06,27.49h0a3.06,3.06,0,0,1,3,3.06h0a3.06,3.06,0,1,1-3.06-3.06Zm0,30.55a3.06,3.06,0,0,1,3.06,3.06h0a3.06,3.06,0,1,1-3.06-3.06Zm14.66,15.34a3.06,3.06,0,0,1,3.61,2.37,3.26,3.26,0,0,1,.06.62h0s0,.08,0,.12c-1.77-.7-3.53-1.43-5.29-2.17A3.09,3.09,0,0,1,138.79,123.72Z"/><path class="cls-3" d="M348.81,102.68c1.56,7.11,3.58,14.14,5.53,21.18a3,3,0,0,1,1.61,1.43c-.34.23-.69.44-1,.66,3.24,11.79,6.13,23.61,6.11,35.77,0,31.22-19.14,59.26-23.87,90.09-5.05,32.84,11,68.74,37.84,86.5V0H360.61C346.14,31.91,341.36,68.39,348.81,102.68Zm20,11.79-.24,0a3.06,3.06,0,1,1,3.05-3.16C370.67,112.4,369.74,113.45,368.77,114.47Zm-.24-97.75h0a3.06,3.06,0,1,1-3.07,3.06A3.06,3.06,0,0,1,368.55,16.72Zm3.06,33.62a3.06,3.06,0,1,1-3.06-3.06h0A3,3,0,0,1,371.59,50.34Zm-3.06,27.49h0a3.06,3.06,0,1,1-3.07,3.06A3,3,0,0,1,368.55,77.83ZM353.26,32a3,3,0,0,1,1.71.53,3,3,0,1,1-1.71-.53Zm-2.54,31.89a3.06,3.06,0,0,1,4.25-.81,3.2,3.2,0,0,1,.82.82,3.07,3.07,0,0,1,.28,2.9,2.65,2.65,0,0,1-.29.52,3.06,3.06,0,1,1-5.06-3.43Zm0,30.55a3.06,3.06,0,0,1,5.6,1.72,3.2,3.2,0,0,1-.53,1.72,3.06,3.06,0,0,1-5.07-3.44Z"/><path class="cls-4" d="M353.26,7.56a3,3,0,0,0,3.05-3h0a2.53,2.53,0,0,0-.06-.61,3.05,3.05,0,0,0-6,0,3.17,3.17,0,0,0-.07.61A3.07,3.07,0,0,0,353.26,7.56Z"/><path class="cls-4" d="M368.53,47.28a3.06,3.06,0,1,0,3.06,3.06,3.06,3.06,0,0,0-3.06-3.06Z"/><path class="cls-4" d="M368.54,22.84a3.06,3.06,0,0,0,0-6.12h0a3.06,3.06,0,0,0,0,6.12Z"/><path class="cls-4" d="M351.54,68.14a3,3,0,0,0,4.24-.82,2.65,2.65,0,0,0,.29-.52,3.07,3.07,0,0,0-.28-2.9,3.2,3.2,0,0,0-.82-.82,3.06,3.06,0,1,0-3.43,5.06Z"/><path class="cls-4" d="M353.26,38.11A3.05,3.05,0,0,0,355,32.53a3,3,0,0,0-1.71-.53,3.06,3.06,0,0,0,0,6.11Z"/><path class="cls-4" d="M368.54,108.38a3.06,3.06,0,1,0,0,6.11l.24,0c1-1,1.9-2.07,2.81-3.14A3,3,0,0,0,368.54,108.38Z"/><path class="cls-4" d="M368.54,83.94a3.06,3.06,0,0,0,0-6.11h0a3.06,3.06,0,0,0,0,6.11Z"/><path class="cls-4" d="M354.34,123.86a3,3,0,0,0-4.07,2.23,3.27,3.27,0,0,0-.07.62,3,3,0,0,0,.58,1.77c1.4-.8,2.78-1.65,4.14-2.53.34-.22.69-.43,1-.66A3,3,0,0,0,354.34,123.86Z"/><path class="cls-4" d="M351.54,98.69a3.07,3.07,0,0,0,4.25-.81,3.2,3.2,0,0,0,.53-1.72,3.06,3.06,0,1,0-4.78,2.53Z"/><path class="cls-4" d="M322.71,7.56a3.06,3.06,0,0,0,3.06-3.06,4.22,4.22,0,0,0-.07-.61,3.05,3.05,0,0,0-6,0,2.54,2.54,0,0,0-.07.61A3.06,3.06,0,0,0,322.71,7.56Z"/><path class="cls-4" d="M325.24,63.9a3,3,0,1,0,.28.5,3.53,3.53,0,0,0-.28-.5Z"/><path class="cls-4" d="M322.71,38.12a3.06,3.06,0,0,0,3.06-3.06h0a3.06,3.06,0,0,0-3-3.06h0a3.06,3.06,0,0,0,0,6.12Z"/><path class="cls-4" d="M307.44,47.28a3.06,3.06,0,1,0,3.05,3.06,3,3,0,0,0-3.05-3.06Z"/><path class="cls-4" d="M338,47.28A3.06,3.06,0,1,0,341,50.34,3.06,3.06,0,0,0,338,47.28Z"/><path class="cls-4" d="M307.44,22.84a3.06,3.06,0,0,0,0-6.12h0a3.06,3.06,0,0,0,0,6.12Z"/><path class="cls-4" d="M338,22.84A3.06,3.06,0,0,0,341,19.78h0A3.06,3.06,0,0,0,338,16.72h0a3.06,3.06,0,0,0,0,6.12Z"/><path class="cls-4" d="M292.16,38.12a3.05,3.05,0,0,0,3-3.06h0a3.06,3.06,0,1,0-3,3.06Z"/><path class="cls-4" d="M325.77,126.71a4.36,4.36,0,0,0-.07-.62,3.05,3.05,0,0,0-6,0,2.62,2.62,0,0,0-.07.62,3.06,3.06,0,1,0,6.12,0Z"/><path class="cls-4" d="M322.71,99.22a3.06,3.06,0,0,0,3.06-3.06h0a3.06,3.06,0,0,0-3-3h0a3.06,3.06,0,1,0,0,6.11Z"/><path class="cls-4" d="M307.44,114.49a3.06,3.06,0,0,0,0-6.11h0a3.06,3.06,0,1,0,0,6.11Z"/><path class="cls-4" d="M338,114.49a3.05,3.05,0,0,0,3.06-3h0a3.06,3.06,0,1,0-3.06,3Z"/><path class="cls-4" d="M307.44,83.94a3.06,3.06,0,0,0,0-6.11h0a3.06,3.06,0,1,0,0,6.11Z"/><path class="cls-4" d="M338,83.94a3.05,3.05,0,0,0,3.06-3h0A3.05,3.05,0,0,0,338,77.83h0a3.06,3.06,0,0,0,0,6.11Z"/><path class="cls-4" d="M307.45,138.93h0a3.05,3.05,0,0,0-3.05,3.06,3,3,0,0,0,.37,1.44q2.85-.48,5.69-1a2.58,2.58,0,0,0,0-.4A3.06,3.06,0,0,0,307.45,138.93Z"/><path class="cls-4" d="M261.61,7.56a3.06,3.06,0,0,0,3.06-3.06,2.54,2.54,0,0,0-.07-.61,3.05,3.05,0,0,0-6,0,3.15,3.15,0,0,0-.06.61A3.05,3.05,0,0,0,261.61,7.56Z"/><path class="cls-4" d="M231.06,7.56a3.05,3.05,0,0,0,3.05-3.06,3.15,3.15,0,0,0-.06-.61,3.05,3.05,0,0,0-6,0,2.54,2.54,0,0,0-.07.61A3.06,3.06,0,0,0,231.06,7.56Z"/><path class="cls-4" d="M259.9,63.08a3.06,3.06,0,1,0,4.24.82A3.06,3.06,0,0,0,259.9,63.08Z"/><path class="cls-4" d="M261.61,38.12a3.06,3.06,0,0,0,3.06-3.06h0A3.06,3.06,0,0,0,261.62,32h0a3.06,3.06,0,0,0,0,6.12Z"/><path class="cls-4" d="M246.33,47.28a3.06,3.06,0,1,0,3.06,3.06,3.06,3.06,0,0,0-3.06-3.06Z"/><path class="cls-4" d="M276.88,47.28a3.06,3.06,0,1,0,3.06,3.06,3.06,3.06,0,0,0-3.06-3.06Z"/><path class="cls-4" d="M246.34,22.84a3.06,3.06,0,0,0,0-6.12h0a3.06,3.06,0,0,0,0,6.12Z"/><path class="cls-4" d="M276.89,22.84a3.06,3.06,0,0,0,0-6.12h0a3.06,3.06,0,0,0,0,6.12Z"/><path class="cls-4" d="M232.77,63.08a3,3,0,0,0-1.71-.53,3.06,3.06,0,1,0,2.54,4.76,2.49,2.49,0,0,0,.27-.51,3,3,0,0,0,.24-1.19,3,3,0,0,0-.52-1.71A3.2,3.2,0,0,0,232.77,63.08Z"/><path class="cls-4" d="M229.34,37.59a3.06,3.06,0,0,0,4.25-.81,3.1,3.1,0,0,0,.52-1.72,3,3,0,0,0-1.34-2.53,3.06,3.06,0,1,0-3.43,5.06Z"/><path class="cls-4" d="M292.16,7.56a3.06,3.06,0,0,0,3.06-3h0a2.54,2.54,0,0,0-.07-.61,3.05,3.05,0,0,0-6,0,4.22,4.22,0,0,0-.07.61A3.07,3.07,0,0,0,292.16,7.56Z"/><path class="cls-4" d="M264.67,126.71a3.27,3.27,0,0,0-.07-.62,3.05,3.05,0,0,0-6,0,3.26,3.26,0,0,0-.06.62,3.06,3.06,0,1,0,6.11,0Z"/><path class="cls-4" d="M292.16,93.11a3.06,3.06,0,1,0,3.06,3.06A3.05,3.05,0,0,0,292.16,93.11Z"/><path class="cls-4" d="M261.61,99.22a3.06,3.06,0,0,0,3.06-3.06h0a3.06,3.06,0,0,0-3.05-3h0a3.06,3.06,0,1,0,0,6.11Z"/><path class="cls-4" d="M246.34,114.49a3.06,3.06,0,0,0,0-6.11h0a3.06,3.06,0,0,0,0,6.11Z"/><path class="cls-4" d="M276.89,114.49a3.06,3.06,0,0,0,0-6.11h0a3.06,3.06,0,0,0,0,6.11Z"/><path class="cls-4" d="M246.34,83.94a3.06,3.06,0,0,0,0-6.11h0a3.06,3.06,0,0,0,0,6.11Z"/><path class="cls-4" d="M276.89,83.94a3.06,3.06,0,0,0,0-6.11h0a3.06,3.06,0,0,0,0,6.11Z"/><path class="cls-4" d="M231.06,129.76a3,3,0,0,0,3.05-3v0a3.26,3.26,0,0,0-.06-.62,3.06,3.06,0,0,0-6,0,3.26,3.26,0,0,0-.06.62,3.07,3.07,0,0,0,1.87,2.82A3.19,3.19,0,0,0,231.06,129.76Z"/><path class="cls-4" d="M229.34,98.69a3.07,3.07,0,0,0,4.25-.81,3.1,3.1,0,0,0,.52-1.72,3.06,3.06,0,1,0-4.77,2.53Z"/><path class="cls-4" d="M292.16,68.66a3.06,3.06,0,1,0-3.05-3,3.06,3.06,0,0,0,3.05,3Z"/><path class="cls-4" d="M249.39,142a3.06,3.06,0,0,0-3-3.06h0a3.06,3.06,0,1,0,3.06,3.06Z"/><path class="cls-4" d="M279.94,142a3.06,3.06,0,0,0-3.05-3.06h0a3.06,3.06,0,1,0,3.06,3.06Z"/><path class="cls-4" d="M295.22,126.71a2.62,2.62,0,0,0-.07-.62,3.05,3.05,0,0,0-6,0,4.36,4.36,0,0,0-.07.62,3.06,3.06,0,0,0,6.12,0Z"/><path class="cls-4" d="M200.51,7.56a3.06,3.06,0,0,0,3.06-3.06,2.54,2.54,0,0,0-.07-.61,3.05,3.05,0,0,0-6,0,3.15,3.15,0,0,0-.06.61A3.05,3.05,0,0,0,200.51,7.56Z"/><path class="cls-4" d="M170,7.56a3.05,3.05,0,0,0,3-3.06,3.15,3.15,0,0,0-.06-.61,3.05,3.05,0,0,0-6,0,2.54,2.54,0,0,0-.07.61A3.06,3.06,0,0,0,170,7.56Z"/><path class="cls-4" d="M198.81,63.07a3.05,3.05,0,1,0,4.24.83A3,3,0,0,0,198.81,63.07Z"/><path class="cls-4" d="M200.51,38.12a3.06,3.06,0,0,0,3.06-3.06h0a3.06,3.06,0,0,0-3-3.06h0a3.06,3.06,0,0,0,0,6.12Z"/><path class="cls-4" d="M185.23,47.28a3.06,3.06,0,1,0,3.06,3.06,3.06,3.06,0,0,0-3.06-3.06Z"/><path class="cls-4" d="M215.78,47.28a3.06,3.06,0,1,0,3.06,3.06,3.06,3.06,0,0,0-3.06-3.06Z"/><path class="cls-4" d="M185.23,22.84a3.06,3.06,0,0,0,3.06-3.06h0a3.06,3.06,0,0,0-3-3.06h0a3.06,3.06,0,0,0,0,6.12Z"/><path class="cls-4" d="M215.79,22.84a3.06,3.06,0,0,0,0-6.12h0a3.06,3.06,0,0,0,0,6.12Z"/><path class="cls-4" d="M168.25,63.07a3.06,3.06,0,1,0,3.42,5.07,3,3,0,0,0,1.1-1.34,3,3,0,0,0,.24-1.19,3,3,0,0,0-.52-1.71A3.06,3.06,0,0,0,168.25,63.07Z"/><path class="cls-4" d="M170,38.12A3.06,3.06,0,0,0,173,35.06h0A3.05,3.05,0,0,0,170,32h0a3.06,3.06,0,0,0,0,6.12Z"/><path class="cls-4" d="M203.57,126.71a3.27,3.27,0,0,0-.07-.62,3.05,3.05,0,0,0-6,0,3.26,3.26,0,0,0-.06.62,3.06,3.06,0,1,0,6.11,0Z"/><path class="cls-4" d="M200.51,99.22a3.06,3.06,0,0,0,3.06-3.06h0a3,3,0,0,0-3-3h0a3.06,3.06,0,1,0,0,6.11Z"/><path class="cls-4" d="M185.23,114.49a3.05,3.05,0,0,0,3.06-3h0a3.06,3.06,0,1,0-3.06,3Z"/><path class="cls-4" d="M215.79,114.49a3.06,3.06,0,0,0,0-6.11h0a3.06,3.06,0,0,0,0,6.11Z"/><path class="cls-4" d="M185.23,83.94a3.05,3.05,0,0,0,3.06-3h0a3.06,3.06,0,0,0-3-3.06h0a3.06,3.06,0,1,0,0,6.11Z"/><path class="cls-4" d="M215.79,83.94a3.06,3.06,0,0,0,0-6.11h0a3.06,3.06,0,0,0,0,6.11Z"/><path class="cls-4" d="M173,126.71a3.26,3.26,0,0,0-.06-.62,3.05,3.05,0,0,0-6,0,2.62,2.62,0,0,0-.07.62,3.06,3.06,0,1,0,6.11,0Z"/><path class="cls-4" d="M170,99.22a3.06,3.06,0,0,0,3.06-3h0a3,3,0,0,0-3-3h0a3.06,3.06,0,0,0,0,6.11Z"/><path class="cls-4" d="M185.24,138.93h0a3,3,0,0,0-1.85.65c1.52.36,3,.7,4.57,1A3,3,0,0,0,185.24,138.93Z"/><path class="cls-4" d="M218.84,142a3.06,3.06,0,0,0-3.05-3.06h0a3.06,3.06,0,1,0,3.06,3.06Z"/><path class="cls-4" d="M107.67,7.32a3,3,0,0,0,1.19.24,3.26,3.26,0,0,0,.62-.06,3.05,3.05,0,0,0,2.43-3,3.18,3.18,0,0,0-.06-.62,3,3,0,0,0-5.33-1.34c.35,1.57.69,3.14,1,4.71Z"/><path class="cls-4" d="M139.4,38.12a3.06,3.06,0,0,0,3.06-3.06h0a3,3,0,0,0-3-3.06h0a3.06,3.06,0,0,0,0,6.12Z"/><path class="cls-4" d="M124.13,47.28a3.06,3.06,0,1,0,3.06,3.06,3.06,3.06,0,0,0-3.06-3.06Z"/><path class="cls-4" d="M154.68,47.28a3.06,3.06,0,1,0,3.06,3.06,3.06,3.06,0,0,0-3.06-3.06Z"/><path class="cls-4" d="M124.13,22.84a3.06,3.06,0,0,0,3.06-3.06h0a3.07,3.07,0,0,0-3-3.06h0a3.06,3.06,0,0,0,0,6.12Z"/><path class="cls-4" d="M154.68,22.84a3.06,3.06,0,0,0,0-6.12h0a3.06,3.06,0,0,0,0,6.12Z"/><path class="cls-4" d="M139.4,7.56h0a3.06,3.06,0,0,0,3.05-3h0a2.07,2.07,0,0,0-.06-.61,3.05,3.05,0,1,0-3,3.67Z"/><path class="cls-4" d="M139.4,99.22a3.06,3.06,0,0,0,3.06-3h0a3,3,0,0,0-3-3h0a3.06,3.06,0,1,0,0,6.11Z"/><path class="cls-4" d="M124.13,114.49a3.05,3.05,0,0,0,3.06-3h0a3.06,3.06,0,1,0-3.06,3Z"/><path class="cls-4" d="M154.68,114.49a3.06,3.06,0,1,0,0-6.11h0a3.06,3.06,0,0,0,0,6.11Z"/><path class="cls-4" d="M124.13,83.94a3.05,3.05,0,0,0,3.06-3h0a3.06,3.06,0,0,0-3-3.06h0a3.06,3.06,0,1,0,0,6.11Z"/><path class="cls-4" d="M154.68,83.94a3.06,3.06,0,0,0,0-6.11h0a3.06,3.06,0,0,0,0,6.11Z"/><path class="cls-4" d="M139.39,62.58a3,3,0,0,0-3,3,3.13,3.13,0,0,0,.23,1.17,3,3,0,1,0,2.8-4.22Z"/><path class="cls-4" d="M142.46,126.71h0a3.26,3.26,0,0,0-.06-.62,3.06,3.06,0,0,0-3.61-2.37,3.09,3.09,0,0,0-1.63.94c1.76.74,3.52,1.47,5.29,2.17C142.45,126.79,142.46,126.75,142.46,126.71Z"/><path class="cls-5" d="M38.69,602.33c27.62,14.51,58.71,26.17,89.42,23.2a3.11,3.11,0,0,1,1.27-.28,2.91,2.91,0,0,1,.66.08c2.88-.34,5.75-.79,8.62-1.4,34-7.25,64.13-41.12,56.05-75-10.67-44.82-75.64-61.12-83.19-106.54-3.93-24,10.25-47.26,11.8-71.54,2.42-37-26.1-70.92-60.52-84.83-20.57-8.37-41.62-10.63-62.8-9.94v305.4C13.07,588.17,25.92,595.62,38.69,602.33Zm-1-1.52h0a3.06,3.06,0,1,1,3.05-3.06A3.06,3.06,0,0,1,37.72,600.81Zm30.55,0h0a3.06,3.06,0,1,1,3.06-3.06A3.05,3.05,0,0,1,68.26,600.81Zm18.27,12.84a3.06,3.06,0,0,1-6,0,2.6,2.6,0,0,1,0-.62h0a3.06,3.06,0,0,1,6.11,0A2.62,2.62,0,0,1,86.54,613.65Zm12.28-12.84h0a3.06,3.06,0,1,1,3.06-3.06A3,3,0,0,1,98.82,600.81Zm18.27,12.84a3.05,3.05,0,0,1-6,0A2.56,2.56,0,0,1,111,613a3.06,3.06,0,0,1,6.11,0A3.18,3.18,0,0,1,117.09,613.65Zm12.28-12.84h0a3.06,3.06,0,0,1-2.72-1.69c1.53.34,3.06.68,4.58,1A3,3,0,0,1,129.37,600.81Zm18.27,12.84a3.06,3.06,0,0,1-6,0,3.18,3.18,0,0,1-.06-.62,3.06,3.06,0,0,1,6.11,0A3.26,3.26,0,0,1,147.64,613.65Z"/><path class="cls-6" d="M96.47,146.33C121.2,120.57,119.68,80,114.34,44.7c-1.91-12.49-4.14-25-6.79-37.44-.34-1.57-.68-3.14-1-4.71L106,0H0V169.35l3.21.28C36.25,172.28,73.5,170.2,96.47,146.33Z"/><path class="cls-4" d="M356.79,489C338,520,336,558.31,337.4,594.62s5.75,73.17-2.25,108.59c-6.61,29.12-21.18,55.69-32.56,83.26Q297.43,799,293.22,812c-.22.67-.44,1.33-.65,2H375V467.58A90,90,0,0,0,356.79,489Z"/><path class="cls-3" d="M279.07,811.61a3,3,0,0,1,.38-1.45,119.3,119.3,0,0,0-13.67-11,3.15,3.15,0,0,1-1.15-.77,98,98,0,0,0-19.24-10,126.18,126.18,0,0,0-21.68-5.91,3.05,3.05,0,0,1-2.69,1.63h0a3,3,0,0,1-3-2.66c-8.87-1.48-17.85-2.6-26.69-4.17a249,249,0,0,1-43.66-12,3.91,3.91,0,0,1,.05.48,3.06,3.06,0,0,1-6.12,0h0a3,3,0,0,1,1.16-2.37,248.18,248.18,0,0,1-29.15-13.86C98.69,741.23,84.72,731.41,71.13,721a3,3,0,0,1-2.86,2h0a3.05,3.05,0,0,1-1.72-5.57q-6.29-4.91-12.48-9.91a3.12,3.12,0,0,1-1.06.2h0a3.05,3.05,0,0,1-3.05-3.06h0a3,3,0,0,1,0-.43c-16.47-13.36-32.79-26.92-50-39V814H5.28a3.05,3.05,0,1,1,3.78,0H35.83a3.06,3.06,0,1,1,3.78,0H66.38a3.06,3.06,0,1,1,3.78,0H96.93a3,3,0,0,1-1.16-2.39,3.06,3.06,0,1,1,4.94,2.39h26.77a3.06,3.06,0,0,1-1.16-2.39h0a3.06,3.06,0,1,1,5,2.39H158a3.06,3.06,0,1,1,3.78,0h26.77a3.06,3.06,0,0,1-1.16-2.39h0a3.06,3.06,0,1,1,5,2.39h26.76a3.06,3.06,0,1,1,3.78,0h26.77a3.06,3.06,0,0,1-1.16-2.39h0a3.06,3.06,0,1,1,4.95,2.39h26.76A3.06,3.06,0,0,1,279.07,811.61ZM19.39,704.68a3.06,3.06,0,1,1,3.06,3.06,3,3,0,0,1-3.06-3.06Zm0,30.56a3,3,0,1,1,.06.61,3.06,3.06,0,0,1-.06-.61Zm3.05,27.49a3.06,3.06,0,1,1-3.05,3.06A3.06,3.06,0,0,1,22.44,762.73Zm3.06,33.61a3,3,0,1,1-.24-1.19A3,3,0,0,1,25.5,796.34Zm-18.34-110a3.06,3.06,0,1,1,0,6.11h0a3.06,3.06,0,0,1,0-6.11Zm0,30.55a3.06,3.06,0,0,1,0,6.12h0a3.06,3.06,0,0,1,0-6.12Zm0,67.22h0a3.06,3.06,0,1,1,3.06-3.06A3.05,3.05,0,0,1,7.16,784.12Zm0-30.55h0a3.06,3.06,0,1,1,3.06-3.06A3.06,3.06,0,0,1,7.16,753.57ZM53,732.18a3.07,3.07,0,1,1-3.05,3.06A3.06,3.06,0,0,1,53,732.18Zm-3.05,33.61A3.06,3.06,0,1,1,53,768.84h0a3,3,0,0,1-3.05-3.05Zm.24,29.36a3.07,3.07,0,1,1-.24,1.19A3.06,3.06,0,0,1,50.18,795.15ZM37.72,716.9a3.06,3.06,0,1,1,0,6.12h0a3.06,3.06,0,1,1,0-6.12Zm0,67.22h0a3.06,3.06,0,1,1,3.05-3.06A3.06,3.06,0,0,1,37.72,784.12Zm0-30.55h0a3.06,3.06,0,1,1,3.06-3.06A3.06,3.06,0,0,1,37.72,753.57Zm45.83-21.39a3.07,3.07,0,1,1-3.06,3.06A3.05,3.05,0,0,1,83.55,732.18Zm1.71,66.7a3.06,3.06,0,1,1,.83-4.25A3.07,3.07,0,0,1,85.26,798.88ZM82.36,763a3.05,3.05,0,1,1,2.38,5.62,3.1,3.1,0,0,1-1.2.24,3,3,0,0,1-1.7-.52h0a3,3,0,0,1,.52-5.34ZM68.27,784.12h0a3.06,3.06,0,1,1,3.06-3.06A3.06,3.06,0,0,1,68.26,784.12Zm0-30.55h0a3.06,3.06,0,1,1,3.07-3.06A3.06,3.06,0,0,1,68.26,753.57ZM111,765.79a3.06,3.06,0,1,1,3.06,3.05h0a3,3,0,0,1-3-3.05Zm1.33,28a3,3,0,1,1-1.33,2.51A3,3,0,0,1,112.37,793.83Zm-13.55-9.71h0a3.06,3.06,0,1,1,3.06-3.06A3,3,0,0,1,98.82,784.12Zm0-30.55h0a3.06,3.06,0,1,1,3.06-3.06A3,3,0,0,1,98.82,753.57Zm30.55,30.55h0a3.06,3.06,0,1,1,3.06-3.06A3.05,3.05,0,0,1,129.37,784.12Zm14.08,9.42a3.05,3.05,0,1,1-1.34,4.51h0a4.82,4.82,0,0,1-.27-.5A3.06,3.06,0,0,1,143.45,793.54Zm16.47-9.42h0a3.06,3.06,0,1,1,3.05-3.06A3.06,3.06,0,0,1,159.92,784.12Zm15.28,9.17a3,3,0,0,1,2.81,1.86,3,3,0,0,1,.24,1.17,3,3,0,1,1-3.05-3Zm15.27-9.17h0a3.06,3.06,0,1,1,3.06-3.06A3.06,3.06,0,0,1,190.47,784.12Zm14.66,9.23a3.18,3.18,0,0,1,.62-.06,3,3,0,0,1,1.18.24,3,3,0,0,1-1.18,5.86,3.18,3.18,0,0,1-.62-.06,3.05,3.05,0,0,1,0-6Zm30,.17a3.06,3.06,0,0,1,4.24,2.82,3.06,3.06,0,0,1-6.11,0A3.07,3.07,0,0,1,235.11,793.52Z"/><path class="cls-3" d="M10.22,811.61A3.06,3.06,0,1,0,5.28,814H9.06A3,3,0,0,0,10.22,811.61Z"/><path class="cls-3" d="M7.17,747.45a3.06,3.06,0,0,0,0,6.12h0a3.06,3.06,0,0,0,0-6.12Z"/><path class="cls-3" d="M7.16,778a3.06,3.06,0,0,0,0,6.11h0a3.06,3.06,0,1,0,0-6.11Z"/><path class="cls-3" d="M7.16,692.46h0a3.06,3.06,0,1,0-3.06-3.05A3,3,0,0,0,7.17,692.46Z"/><path class="cls-3" d="M7.16,723h0A3.06,3.06,0,1,0,4.11,720,3.05,3.05,0,0,0,7.17,723Z"/><path class="cls-3" d="M22.45,707.74a3.06,3.06,0,1,0-3.06-3.06h0A3.06,3.06,0,0,0,22.45,707.74Z"/><path class="cls-3" d="M7.17,625.25a3.06,3.06,0,0,0,0,6.11h0a3.06,3.06,0,0,0,0-6.11Z"/><path class="cls-3" d="M7.17,655.8a3.06,3.06,0,0,0,0,6.11h0a3.06,3.06,0,0,0,0-6.11Z"/><path class="cls-3" d="M7.16,600.81h0a3,3,0,0,0,2.67-4.5c-1.9.32-3.79.68-5.69,1.05a2.58,2.58,0,0,0,0,.39A3.05,3.05,0,0,0,7.16,600.81Z"/><path class="cls-3" d="M54.7,798.88a3.05,3.05,0,1,0-4.24-.83A3.07,3.07,0,0,0,54.7,798.88Z"/><path class="cls-3" d="M71.33,811.61a3.06,3.06,0,1,0-5,2.39h3.78A3,3,0,0,0,71.33,811.61Z"/><path class="cls-3" d="M40.78,811.61a3.06,3.06,0,1,0-5,2.39h3.78A3,3,0,0,0,40.78,811.61Z"/><path class="cls-3" d="M81.84,793.8a3.05,3.05,0,0,0-1.11,1.35,3.06,3.06,0,1,0,1.11-1.35Z"/><path class="cls-3" d="M53,738.29a3,3,0,1,0-3-2.44A3.05,3.05,0,0,0,53,738.29Z"/><path class="cls-3" d="M22.45,768.84a3.06,3.06,0,1,0-3.06-3.05A3,3,0,0,0,22.45,768.84Z"/><path class="cls-3" d="M53,768.84h0a3.06,3.06,0,1,0-3.06-3.05h0A3,3,0,0,0,53,768.84Z"/><path class="cls-3" d="M68.27,747.45a3.06,3.06,0,0,0,0,6.12h0a3.06,3.06,0,1,0,0-6.12Z"/><path class="cls-3" d="M37.72,747.45a3.06,3.06,0,1,0,0,6.12h0a3.06,3.06,0,1,0,0-6.12Z"/><path class="cls-3" d="M68.27,778a3.06,3.06,0,1,0,0,6.11h0a3.06,3.06,0,0,0,0-6.11Z"/><path class="cls-3" d="M37.72,778a3.06,3.06,0,1,0,0,6.11h0a3.06,3.06,0,0,0,0-6.11Z"/><path class="cls-3" d="M84.17,738.23a3,3,0,1,0-3.62-2.38A3.06,3.06,0,0,0,84.17,738.23Z"/><path class="cls-3" d="M81.84,768.32h0a3,3,0,0,0,1.7.52,3.1,3.1,0,0,0,1.2-.24,3.07,3.07,0,1,0-2.9-.28Z"/><path class="cls-3" d="M22.44,793.29a3,3,0,1,0,2.82,1.86A3,3,0,0,0,22.44,793.29Z"/><path class="cls-3" d="M51.28,671.6a3.05,3.05,0,1,0,4.24.82A3.06,3.06,0,0,0,51.28,671.6Z"/><path class="cls-3" d="M49.94,704.68A3.05,3.05,0,0,0,53,707.74h0a3.12,3.12,0,0,0,1.06-.2A3.05,3.05,0,1,0,50,704.25a3,3,0,0,0,0,.43Z"/><path class="cls-3" d="M68.27,686.35a3.06,3.06,0,1,0,0,6.11h0a3.06,3.06,0,0,0,0-6.11Z"/><path class="cls-3" d="M37.72,686.35a3.06,3.06,0,1,0,0,6.11h0a3.06,3.06,0,0,0,0-6.11Z"/><path class="cls-3" d="M65.21,720A3.06,3.06,0,0,0,68.26,723h0a3,3,0,0,0,2.86-2,3,3,0,0,0,.2-1,3.06,3.06,0,0,0-3.06-3.06A3.09,3.09,0,0,0,65.21,720Z"/><path class="cls-3" d="M37.72,723h0A3.06,3.06,0,1,0,34.66,720,3.06,3.06,0,0,0,37.72,723Z"/><path class="cls-3" d="M81.84,676.67a3.06,3.06,0,1,0-.83-4.23,3.53,3.53,0,0,0-.28.5,3.07,3.07,0,0,0,.28,2.9A3,3,0,0,0,81.84,676.67Z"/><path class="cls-3" d="M85.27,702.15a3.06,3.06,0,1,0,.82,4.25A3.06,3.06,0,0,0,85.27,702.15Z"/><path class="cls-3" d="M23.07,738.23a3.06,3.06,0,1,0-3.68-3h0a3,3,0,0,0,3.68,3Z"/><path class="cls-3" d="M53,616.09a3.05,3.05,0,0,0,3-2.44,3.18,3.18,0,0,0,.06-.62,3.06,3.06,0,0,0-6.11,0,3.18,3.18,0,0,0,.06.62A3.07,3.07,0,0,0,53,616.09Z"/><path class="cls-3" d="M22.44,640.52a3.06,3.06,0,1,0,3.06,3.06A3.06,3.06,0,0,0,22.44,640.52Z"/><path class="cls-3" d="M53,640.53a3.06,3.06,0,0,0-3.05,3.05h0a3,3,0,0,0,3.05,3h0a3.06,3.06,0,0,0,0-6.11Z"/><path class="cls-3" d="M68.27,625.25a3.06,3.06,0,0,0,0,6.11h0a3.06,3.06,0,1,0,0-6.11Z"/><path class="cls-3" d="M37.72,625.25a3.06,3.06,0,1,0,0,6.11h0a3.06,3.06,0,1,0,0-6.11Z"/><path class="cls-3" d="M68.27,655.8a3.06,3.06,0,0,0,0,6.11h0a3.06,3.06,0,1,0,0-6.11Z"/><path class="cls-3" d="M37.72,655.8a3.06,3.06,0,1,0,0,6.11h0a3.06,3.06,0,1,0,0-6.11Z"/><path class="cls-3" d="M84.74,610.22A3.05,3.05,0,0,0,80.5,613h0a2.6,2.6,0,0,0,0,.62,3.06,3.06,0,0,0,6,0,2.62,2.62,0,0,0,.07-.62A3,3,0,0,0,84.74,610.22Z"/><path class="cls-3" d="M85.27,641.05a3.06,3.06,0,1,0,.82,4.25A3.06,3.06,0,0,0,85.27,641.05Z"/><path class="cls-3" d="M22.45,671.08h0A3.06,3.06,0,0,0,19.63,673a3,3,0,0,0-.24,1.19,3.06,3.06,0,1,0,3.06-3.06Z"/><path class="cls-3" d="M68.27,594.7a3.06,3.06,0,0,0,0,6.11h0a3.06,3.06,0,0,0,0-6.11Z"/><path class="cls-3" d="M37.72,594.7a3.06,3.06,0,1,0,0,6.11h0a3.06,3.06,0,0,0,0-6.11Z"/><path class="cls-3" d="M22.44,610a3.06,3.06,0,0,0-3.05,3,3.18,3.18,0,0,0,.06.62,3.06,3.06,0,0,0,6,0,3.26,3.26,0,0,0,.06-.62A3.05,3.05,0,0,0,22.44,610Z"/><path class="cls-3" d="M115.78,798.86a3,3,0,1,0-4.22-.81A3,3,0,0,0,115.78,798.86Z"/><path class="cls-3" d="M132.43,811.62a3.06,3.06,0,1,0-6.11,0h0a3.06,3.06,0,0,0,1.16,2.39h3.79A3,3,0,0,0,132.43,811.62Z"/><path class="cls-3" d="M101.88,811.61a3.06,3.06,0,0,0-6.11,0A3,3,0,0,0,96.93,814h3.78A3,3,0,0,0,101.88,811.61Z"/><path class="cls-3" d="M142.11,798.05h0a3.06,3.06,0,1,0-.27-.5A4.82,4.82,0,0,0,142.11,798.05Z"/><path class="cls-3" d="M114.1,732.18a3.06,3.06,0,0,0-3.06,3.06,2.48,2.48,0,0,0,.07.61,3.05,3.05,0,1,0,3-3.67Z"/><path class="cls-3" d="M114.09,768.84h0a3.06,3.06,0,1,0-3.06-3.05h0A3,3,0,0,0,114.09,768.84Z"/><path class="cls-3" d="M129.38,747.45a3.06,3.06,0,0,0-3.06,3.06h0a3.05,3.05,0,0,0,3.05,3.06h0a3.06,3.06,0,0,0,0-6.12Z"/><path class="cls-3" d="M98.82,747.45a3.06,3.06,0,0,0,0,6.12h0a3.06,3.06,0,0,0,0-6.12Z"/><path class="cls-3" d="M129.37,778a3.06,3.06,0,0,0,0,6.11h0a3.06,3.06,0,1,0,0-6.11Z"/><path class="cls-3" d="M98.82,778a3.06,3.06,0,0,0,0,6.11h0a3.06,3.06,0,1,0,0-6.11Z"/><path class="cls-3" d="M144.65,732.18a3.07,3.07,0,1,0,3,3.06A3.06,3.06,0,0,0,144.65,732.18Z"/><path class="cls-3" d="M141.59,765.78h0a3.06,3.06,0,0,0,6.12,0,3.91,3.91,0,0,0-.05-.48,3.06,3.06,0,0,0-6.07.47Z"/><path class="cls-3" d="M115.8,676.67a3.05,3.05,0,1,0-4.24-.83A3,3,0,0,0,115.8,676.67Z"/><path class="cls-3" d="M114.1,701.63a3.06,3.06,0,0,0-3.06,3h0a3.05,3.05,0,0,0,3,3.06h0a3.06,3.06,0,0,0,0-6.11Z"/><path class="cls-3" d="M129.37,692.46a3.06,3.06,0,1,0-3.05-3.05,3.05,3.05,0,0,0,3.05,3.05Z"/><path class="cls-3" d="M98.82,692.46a3.06,3.06,0,1,0-3-3.05,3.06,3.06,0,0,0,3,3.05Z"/><path class="cls-3" d="M129.38,716.9a3.06,3.06,0,0,0-3.06,3.06h0a3.05,3.05,0,0,0,3.05,3.06h0a3.06,3.06,0,0,0,0-6.12Z"/><path class="cls-3" d="M98.82,716.9a3.06,3.06,0,0,0,0,6.12h0a3.06,3.06,0,0,0,0-6.12Z"/><path class="cls-3" d="M146.36,676.67a3.06,3.06,0,0,0-3.42-5.07,3.08,3.08,0,0,0-1.11,1.34,3.06,3.06,0,0,0,4.53,3.73Z"/><path class="cls-3" d="M144.65,701.63a3,3,0,0,0-3.06,3h0a3.06,3.06,0,0,0,3.06,3.06h0a3.06,3.06,0,1,0,0-6.11Z"/><path class="cls-3" d="M114.1,610a3.05,3.05,0,0,0-3.06,3,2.56,2.56,0,0,0,.07.62,3.05,3.05,0,0,0,6,0,3.18,3.18,0,0,0,.06-.62A3,3,0,0,0,114.1,610Z"/><path class="cls-3" d="M114.1,640.53a3.06,3.06,0,0,0-3.06,3.05h0a3,3,0,0,0,3,3h0a3.06,3.06,0,0,0,0-6.11Z"/><path class="cls-3" d="M128.11,625.53a3,3,0,0,0-1.79,2.77h0a3.06,3.06,0,1,0,3.72-3,2.91,2.91,0,0,0-.66-.08A3.11,3.11,0,0,0,128.11,625.53Z"/><path class="cls-3" d="M98.82,625.25a3.06,3.06,0,0,0,0,6.11h0a3.06,3.06,0,1,0,0-6.11Z"/><path class="cls-3" d="M129.38,655.8a3.06,3.06,0,0,0-3.06,3.05h0a3,3,0,0,0,3.05,3h0a3.06,3.06,0,0,0,0-6.11Z"/><path class="cls-3" d="M98.82,655.8a3.06,3.06,0,0,0,0,6.11h0a3.06,3.06,0,1,0,0-6.11Z"/><path class="cls-3" d="M144.65,610a3.05,3.05,0,0,0-3.06,3,3.18,3.18,0,0,0,.06.62,3.06,3.06,0,0,0,6,0,3.26,3.26,0,0,0,.06-.62A3,3,0,0,0,144.65,610Z"/><path class="cls-3" d="M144.65,640.53a3,3,0,0,0-3.06,3.05h0a3.06,3.06,0,0,0,3.06,3h0a3.06,3.06,0,1,0,0-6.11Z"/><path class="cls-3" d="M126.65,599.12a3.06,3.06,0,0,0,2.72,1.69h0a3,3,0,0,0,1.86-.65C129.71,599.8,128.18,599.46,126.65,599.12Z"/><path class="cls-3" d="M98.82,594.7a3.06,3.06,0,0,0,0,6.11h0a3.06,3.06,0,1,0,0-6.11Z"/><path class="cls-3" d="M193.53,811.62a3.06,3.06,0,1,0-6.11,0h0a3.06,3.06,0,0,0,1.16,2.39h3.79A3,3,0,0,0,193.53,811.62Z"/><path class="cls-3" d="M163,811.61A3.06,3.06,0,1,0,158,814h3.78A3,3,0,0,0,163,811.61Z"/><path class="cls-3" d="M205.13,799.33a3.18,3.18,0,0,0,.62.06,3,3,0,0,0,1.18-5.86,3,3,0,0,0-1.18-.24,3.18,3.18,0,0,0-.62.06,3.05,3.05,0,0,0,0,6Z"/><path class="cls-3" d="M175.2,762.73a3.06,3.06,0,0,0-3.06,3h0a3.05,3.05,0,0,0,3.06,3.05h0a3.06,3.06,0,1,0,0-6.11Z"/><path class="cls-3" d="M190.48,747.45a3.06,3.06,0,0,0-3.06,3.06h0a3.05,3.05,0,0,0,3.05,3.06h0a3.06,3.06,0,0,0,0-6.12Z"/><path class="cls-3" d="M159.93,747.45a3.06,3.06,0,0,0-3.06,3.06h0a3.05,3.05,0,0,0,3,3.06h0a3.06,3.06,0,0,0,0-6.12Z"/><path class="cls-3" d="M190.47,778a3.06,3.06,0,0,0,0,6.11h0a3.06,3.06,0,1,0,0-6.11Z"/><path class="cls-3" d="M159.92,778a3.06,3.06,0,1,0,0,6.11h0a3.06,3.06,0,0,0,0-6.11Z"/><path class="cls-3" d="M205.13,738.23a3.18,3.18,0,0,0,.62.06,3.06,3.06,0,0,0,1.19-5.87,3.24,3.24,0,0,0-1.19-.24,4.36,4.36,0,0,0-.62.07,3.05,3.05,0,0,0-2.44,3,2.48,2.48,0,0,0,.07.61A3,3,0,0,0,205.13,738.23Z"/><path class="cls-3" d="M206.94,763a3,3,0,0,0-1.19-.24,3.26,3.26,0,0,0-.62.06,3.06,3.06,0,0,0,0,6h0a3.18,3.18,0,0,0,.62.06,3.06,3.06,0,0,0,1.19-5.87Z"/><path class="cls-3" d="M175.22,799.37a3,3,0,0,0,3-3,3,3,0,0,0-.24-1.17,3,3,0,1,0-2.79,4.22Z"/><path class="cls-3" d="M175.2,701.63a3.05,3.05,0,0,0-3.06,3h0a3.06,3.06,0,0,0,3.05,3.06h0a3.06,3.06,0,1,0,0-6.11Z"/><path class="cls-3" d="M190.47,692.46a3.06,3.06,0,1,0-3.05-3.05,3.05,3.05,0,0,0,3.05,3.05Z"/><path class="cls-3" d="M159.92,692.46h0a3.06,3.06,0,1,0-3.06-3.05A3,3,0,0,0,159.92,692.46Z"/><path class="cls-3" d="M190.48,716.9a3.06,3.06,0,0,0-3.06,3.06h0a3.05,3.05,0,0,0,3.05,3.06h0a3.06,3.06,0,0,0,0-6.12Z"/><path class="cls-3" d="M159.92,723h0a3.06,3.06,0,1,0-3.06-3.06A3.06,3.06,0,0,0,159.92,723Z"/><path class="cls-3" d="M205.13,677.13a3.18,3.18,0,0,0,.62.06,3.05,3.05,0,0,0,1.18-5.87,3,3,0,0,0-1.18-.24,3.18,3.18,0,0,0-.62.06,3.07,3.07,0,0,0-1.92,4.71h0A3.13,3.13,0,0,0,205.13,677.13Z"/><path class="cls-3" d="M202.76,705.31a3.07,3.07,0,0,0,2.37,2.37h0a3.26,3.26,0,0,0,.62.06,3.06,3.06,0,0,0,0-6.11,3.26,3.26,0,0,0-.62.06A3.06,3.06,0,0,0,202.76,705.31Z"/><path class="cls-3" d="M175.82,738.22a3,3,0,0,0,2.37-2.37,3.07,3.07,0,0,0-3-3.67h0a3.06,3.06,0,0,0-3.06,3.06h0a2.48,2.48,0,0,0,.07.61A3,3,0,0,0,175.82,738.22Z"/><path class="cls-3" d="M175.2,640.53a3.05,3.05,0,0,0-3.06,3.05h0a3.06,3.06,0,0,0,3.05,3h0a3.06,3.06,0,1,0,0-6.11Z"/><path class="cls-3" d="M190.48,625.25a3.06,3.06,0,0,0-3.06,3h0a3.06,3.06,0,1,0,3.06-3.06Z"/><path class="cls-3" d="M159.92,631.36h0a3.06,3.06,0,1,0-3.06-3.05A3.06,3.06,0,0,0,159.92,631.36Z"/><path class="cls-3" d="M190.48,655.8a3.06,3.06,0,0,0-3.06,3.05h0a3,3,0,0,0,3.05,3h0a3.06,3.06,0,0,0,0-6.11Z"/><path class="cls-3" d="M159.92,661.91h0a3.06,3.06,0,1,0-3.06-3A3.06,3.06,0,0,0,159.92,661.91Z"/><path class="cls-3" d="M208.56,642.39a3.08,3.08,0,0,0-2.81-1.87,3.18,3.18,0,0,0-.62.07,3.06,3.06,0,0,0,0,6h0a3.18,3.18,0,0,0,.62.06,3.05,3.05,0,0,0,2.81-4.25Z"/><path class="cls-3" d="M175.21,677.17a3,3,0,0,0,3-3A2.92,2.92,0,0,0,178,673a3,3,0,1,0-2.8,4.22Z"/><path class="cls-3" d="M172.14,613a2.56,2.56,0,0,0,.07.62,3,3,0,0,0,5.24,1.43c-1.76-.74-3.52-1.47-5.29-2.17a.5.5,0,0,0,0,.12Z"/><path class="cls-3" d="M238,798.87a3,3,0,0,0,1.35-2.53,3.06,3.06,0,1,0-6.11,0,3,3,0,0,0,.53,1.71A3,3,0,0,0,238,798.87Z"/><path class="cls-3" d="M254.63,811.62a3.06,3.06,0,0,0-6.11,0h0a3.06,3.06,0,0,0,1.16,2.39h3.79A3,3,0,0,0,254.63,811.62Z"/><path class="cls-3" d="M224.08,811.61a3.06,3.06,0,1,0-5,2.39h3.78A3,3,0,0,0,224.08,811.61Z"/><path class="cls-3" d="M265.78,799.2a3,3,0,0,0,3.88-4.05,3.05,3.05,0,1,0-5.34,2.9,2.85,2.85,0,0,0,.31.38A3.15,3.15,0,0,0,265.78,799.2Z"/><path class="cls-3" d="M236.3,738.29a3,3,0,1,0-3-2.44A3.05,3.05,0,0,0,236.3,738.29Z"/><path class="cls-3" d="M236.3,762.73a3.06,3.06,0,0,0-3.06,3h0a3.05,3.05,0,0,0,3.06,3.05h0a3.06,3.06,0,1,0,0-6.11Z"/><path class="cls-3" d="M251.58,747.45a3.06,3.06,0,0,0-3.06,3.06h0a3.05,3.05,0,0,0,3,3.06h0a3.06,3.06,0,0,0,0-6.12Z"/><path class="cls-3" d="M221,747.45a3.06,3.06,0,0,0,0,6.12h0a3.06,3.06,0,1,0,0-6.12Z"/><path class="cls-3" d="M251.57,778a3.06,3.06,0,0,0,0,6.11h0a3.06,3.06,0,1,0,0-6.11Z"/><path class="cls-3" d="M221,784.12h0a3.05,3.05,0,0,0,2.69-1.63,3,3,0,0,0,.37-1.43,3.06,3.06,0,0,0-6.11,0,2.58,2.58,0,0,0,0,.4A3,3,0,0,0,221,784.12Z"/><path class="cls-3" d="M266.85,732.18a3.06,3.06,0,0,0-3.06,3.06,4.07,4.07,0,0,0,.07.61,3.05,3.05,0,1,0,3-3.67Z"/><path class="cls-3" d="M268.56,763.26a3.05,3.05,0,1,0,.82,4.24A3,3,0,0,0,268.56,763.26Z"/><path class="cls-3" d="M238,676.66a3.05,3.05,0,1,0-3.42-5.06,3.15,3.15,0,0,0-1.11,1.34,3.06,3.06,0,0,0,4.53,3.72Z"/><path class="cls-3" d="M236.3,701.63a3.05,3.05,0,0,0-3.06,3h0a3.06,3.06,0,0,0,3,3.06h0a3.06,3.06,0,1,0,0-6.11Z"/><path class="cls-3" d="M248.52,689.41a3,3,0,0,0,3,3.05h0a3.06,3.06,0,1,0-3-3.05Z"/><path class="cls-3" d="M221,692.46a3.06,3.06,0,1,0-3.05-3.05,3.06,3.06,0,0,0,3.05,3.05Z"/><path class="cls-3" d="M251.58,716.9a3.06,3.06,0,0,0-3.06,3.06h0a3.05,3.05,0,0,0,3,3.06h0a3.06,3.06,0,0,0,0-6.12Z"/><path class="cls-3" d="M221,716.9a3.06,3.06,0,0,0,0,6.12h0a3.06,3.06,0,1,0,0-6.12Z"/><path class="cls-3" d="M266.85,701.63a3.06,3.06,0,1,0,3,3.14c-.26-.72-.53-1.43-.81-2.14A3,3,0,0,0,266.85,701.63Z"/><path class="cls-3" d="M221,655.8a3.06,3.06,0,0,0,0,6.11h0a3.06,3.06,0,1,0,0-6.11Z"/><path class="cls-3" d="M285.14,812a2.45,2.45,0,0,0,0-.39,3,3,0,0,0-5.73-1.45,3,3,0,0,0-.38,1.45,3.06,3.06,0,0,0,1.16,2.39H284A3,3,0,0,0,285.14,812Z"/><path class="cls-3" d="M279.07,750.51a3,3,0,0,0,3.05,3.06h0a2.45,2.45,0,0,0,.38,0q-.58-3-1.2-5.95A3.05,3.05,0,0,0,279.07,750.51Z"/><path class="cls-3" d="M282.12,778a3.06,3.06,0,0,0,0,6.11h0a3.06,3.06,0,1,0,0-6.11Z"/></g></g></svg>