<svg xmlns="http://www.w3.org/2000/svg" viewBox="0 0 375 812"><defs><style>.cls-1{fill:#f8f4eb;}.cls-2{fill:#fff;}.cls-3{fill:#03588c;}.cls-4{fill:#0388a6;}.cls-5{fill:#f2de79;}</style></defs><g id="圖層_2" data-name="圖層 2"><g id="圖層_1-2" data-name="圖層 1"><path class="cls-1" d="M347.14,76.35a95.52,95.52,0,0,1,2.18-11.18A49.71,49.71,0,0,1,323.57,58c-14.9-9.22-25.21-25.24-41.34-32.12-10.41-4.44-22.08-4.54-33.21-6.64A91.44,91.44,0,0,1,208.43,0H146a2,2,0,0,1,.48.49,2.12,2.12,0,0,1,.35,1.12c-.18.5-.38,1-.57,1.5a2.12,2.12,0,0,1-1.51.65A2.09,2.09,0,0,1,143.51,0H125.1a2.09,2.09,0,1,1-3.36,1.66h0A2.08,2.08,0,0,1,122.57,0H104.16a2.09,2.09,0,0,1,.67,2.48,2.11,2.11,0,0,1-1.93,1.28,2,2,0,0,1-.42,0,2.1,2.1,0,0,1-1.63-2.47A2.05,2.05,0,0,1,101.67,0H83.23a2.06,2.06,0,0,1,.84,1.66,2.1,2.1,0,1,1-4.19,0h0A2.08,2.08,0,0,1,80.71,0H62.3A2.09,2.09,0,1,1,59,1.66h0A2,2,0,0,1,59.78,0H41.37A2.09,2.09,0,1,1,38,1.66h0A2.08,2.08,0,0,1,38.84,0H20.44a1.83,1.83,0,0,1,.47.49,2.1,2.1,0,1,1-3.47,2.35,2.16,2.16,0,0,1-.36-1.18A2.08,2.08,0,0,1,17.92,0H0V.53A2.11,2.11,0,0,1,.34,1.66,2.06,2.06,0,0,1,0,2.79V21.46a2.1,2.1,0,0,1,0,2.26V42.4a2.09,2.09,0,0,1,.34,1.13,2.13,2.13,0,0,1-.2.87c20.7,46.51,29.58,98.49,33.15,149.67,2.43,35.58.6,76.17-26.15,99.82A64.91,64.91,0,0,1,0,299.35V424.47c22.7,12.33,40.11,36.23,38,61.76-1.49,18.35-12.53,35.75-9.87,54,5.11,34.47,54.05,47.66,61.53,81.71,5.66,25.73-17.57,51-43.41,56-15.49,3-31.18.6-46.23-4.52v73.74c17.25,12.3,32.75,27.52,51,38.38a3.05,3.05,0,0,1,6.06.53,3.18,3.18,0,0,1-.06.62,3.08,3.08,0,0,1-1,1.66,120.27,120.27,0,0,0,35.4,12.28c1.78.31,3.57.59,5.36.86,0-.05,0-.09,0-.14a3.06,3.06,0,1,1,6.11,0,3.24,3.24,0,0,1-.19,1,71.68,71.68,0,0,1,14.78,3.6,47.89,47.89,0,0,1,10.86,5.93H330.12a237.7,237.7,0,0,1,9.54-34.82c6.72-18.7,15.6-36.84,19.1-56.43,4.23-23.82.21-48.23-1.87-72.35s-1.94-49.66,9.64-70.94a59.11,59.11,0,0,1,8.39-11.66v-345A528.44,528.44,0,0,1,350.09,130C346.94,112.28,344.77,94.18,347.14,76.35ZM132.23,773.16a3,3,0,0,1-1.86.65h0a3,3,0,0,1-2.71-1.68C129.18,772.46,130.71,772.81,132.23,773.16ZM134.3,10h0a2.1,2.1,0,1,1-2.09,2.1A2.09,2.09,0,0,1,134.3,10ZM122.1,21.42a2.11,2.11,0,1,1-.19,2A2.09,2.09,0,0,1,122.1,21.42ZM113.36,10h0a2.1,2.1,0,1,1-2.1,2.1A2.1,2.1,0,0,1,113.37,10Zm0,20.94h0a2.1,2.1,0,1,1-2.1,2.09A2.09,2.09,0,0,1,113.37,31Zm-12.19-9.55h0a2.07,2.07,0,0,1,1.31-.88,3,3,0,0,1,.42,0,2.11,2.11,0,0,1,1.74.92,2.15,2.15,0,0,1,.36,1.17,2.09,2.09,0,0,1-1.28,1.93,2.11,2.11,0,0,1-.82.17,2,2,0,0,1-.42-.05A2.08,2.08,0,0,1,101,23.41,2.11,2.11,0,0,1,101.17,21.42Zm-.32,21.68a2.1,2.1,0,0,1,1.63-1.62h0a2,2,0,0,1,.42,0,2.1,2.1,0,1,1,0,4.19,2,2,0,0,1-.42,0A2.11,2.11,0,0,1,100.85,43.1ZM92.43,10h0a2.1,2.1,0,1,1-2.1,2.1A2.1,2.1,0,0,1,92.44,10Zm-2.09,23A2.1,2.1,0,0,1,92.43,31h0a2.1,2.1,0,1,1-2.1,2.09Zm0,20.93a2.1,2.1,0,1,1,2.1,2.1,2.1,2.1,0,0,1-2.1-2.1ZM82,20.52a2.08,2.08,0,0,1,2.08,2.09,2,2,0,0,1-.16.8,2.09,2.09,0,0,1-4-.81A2.07,2.07,0,0,1,82,20.52Zm-2.1,23A2.1,2.1,0,0,1,82,41.43h0a2.1,2.1,0,1,1-2.09,2.1Zm0,20.93a2,2,0,0,1,0-.42,2.08,2.08,0,0,1,3.58-1c-1.2.51-2.4,1-3.61,1.49a.22.22,0,0,1,0-.08ZM71.5,10h0a2.1,2.1,0,1,1-2.09,2.1A2.11,2.11,0,0,1,71.5,10ZM71.5,31h0a2.1,2.1,0,1,1-2.09,2.09A2.09,2.09,0,0,1,71.5,31Zm0,20.93h0A2.1,2.1,0,1,1,69.41,54,2.1,2.1,0,0,1,71.5,51.9ZM59.3,21.42a2.1,2.1,0,1,1,.57,2.91,2.13,2.13,0,0,1-.76-.92A1.89,1.89,0,0,1,59,22.6,2.07,2.07,0,0,1,59.3,21.42Zm3.83,22.11a2.09,2.09,0,1,1-4.18,0h0A2.09,2.09,0,0,1,61,41.43h0A2.09,2.09,0,0,1,63.13,43.53ZM59,64a2.09,2.09,0,0,1,4.1,0,2,2,0,0,1,0,.42,2.09,2.09,0,0,1-4.18,0A1.5,1.5,0,0,1,59,64ZM50.57,10h0a2.1,2.1,0,1,1-2.09,2.1A2.1,2.1,0,0,1,50.57,10Zm-2.09,23A2.09,2.09,0,0,1,50.57,31h0a2.1,2.1,0,1,1-2.09,2.09Zm0,20.93a2.1,2.1,0,1,1,2.1,2.1,2.1,2.1,0,0,1-2.1-2.1ZM40.1,45.62A2.09,2.09,0,0,1,38,43.53h0a2.1,2.1,0,0,1,2.09-2.1h0a2.1,2.1,0,1,1,0,4.19Zm2.1,18.84a2.1,2.1,0,0,1-4.19,0,2,2,0,0,1,.05-.42,2.09,2.09,0,0,1,4.09,0A2,2,0,0,1,42.2,64.46Zm-3.83-43a2.09,2.09,0,0,1,3.83,1.17,2.11,2.11,0,0,1-.17.82,2.09,2.09,0,0,1-3.85,0,2.11,2.11,0,0,1-.17-.82A2.07,2.07,0,0,1,38.37,21.42ZM29.63,10h0a2.1,2.1,0,1,1-2.1,2.1A2.1,2.1,0,0,1,29.64,10Zm0,20.94h0a2.1,2.1,0,0,1,0,4.19,2.1,2.1,0,0,1,0-4.19Zm0,20.93h0A2.1,2.1,0,1,1,27.54,54,2.09,2.09,0,0,1,29.64,51.9Zm0,20.93h0a2.1,2.1,0,1,1-2.1,2.1A2.1,2.1,0,0,1,29.64,72.83ZM17.44,21.42a2.09,2.09,0,0,1,1.73-.92,2.09,2.09,0,1,1-1.74,3.26,2.31,2.31,0,0,1-.18-.35,2.07,2.07,0,0,1,.19-2ZM18,41.79a2.1,2.1,0,1,1-.92,1.74A2.09,2.09,0,0,1,18,41.79Zm3.27,22.67a2.1,2.1,0,0,1-4.19,0h0a3,3,0,0,1,0-.42,2.1,2.1,0,0,1,4.11,0A2,2,0,0,1,21.27,64.46ZM8.7,10h0a2.1,2.1,0,1,1-2.1,2.1A2.1,2.1,0,0,1,8.71,10Zm0,46.06a2.1,2.1,0,1,1,0-4.19h0a2.1,2.1,0,0,1,0,4.19Zm0-20.93A2.1,2.1,0,0,1,8.7,31h0a2.1,2.1,0,0,1,0,4.19ZM50.57,72.83h0a2.1,2.1,0,0,1,1.26.43c-1,.25-2.07.49-3.11.72A2.09,2.09,0,0,1,50.57,72.83Zm-11.85,701h0a3.06,3.06,0,1,1,3.06-3.06A3.06,3.06,0,0,1,38.72,773.81Zm30.55,0h0a3.06,3.06,0,1,1,3.07-3.06A3,3,0,0,1,69.26,773.81Zm18.27,12.84a3.06,3.06,0,0,1-6,0,2.6,2.6,0,0,1,0-.62h0a3.06,3.06,0,0,1,6.11,0A2.62,2.62,0,0,1,87.54,786.65Zm12.28-12.84h0a3.06,3.06,0,1,1,3.06-3.06A3,3,0,0,1,99.82,773.81Zm18.27,12.84a3.06,3.06,0,0,1-6,0A3.18,3.18,0,0,1,112,786a3.06,3.06,0,0,1,6.11,0A3.18,3.18,0,0,1,118.09,786.65Zm12.28,17.71a3.06,3.06,0,0,1-3.05-3.05h0a3.06,3.06,0,1,1,3.05,3.05Zm18.27-17.71a3.05,3.05,0,0,1-6,0,2.56,2.56,0,0,1-.07-.62,3.06,3.06,0,0,1,6.11,0A3.26,3.26,0,0,1,148.64,786.65Zm12.28,17.71h0a3.06,3.06,0,1,1,3.06-3.05A3,3,0,0,1,160.92,804.36Zm30.55,0a3.06,3.06,0,0,1-3.05-3.05h0a3.06,3.06,0,1,1,3.05,3.05ZM176.82,789a3.05,3.05,0,0,1-3.61-2.37,2.56,2.56,0,0,1-.07-.62h0a.5.5,0,0,1,0-.12c1.77.71,3.53,1.43,5.29,2.18A3.08,3.08,0,0,1,176.82,789Z"/><path class="cls-2" d="M349.32,65.17a95.52,95.52,0,0,0-2.18,11.18c-2.37,17.83-.2,35.93,2.95,53.63a528.44,528.44,0,0,0,24.83,90.65c0,.07.05.14.08.22V58.46A49.66,49.66,0,0,1,349.32,65.17Z"/><path class="cls-3" d="M208.43,0A91.44,91.44,0,0,0,249,19.28c11.13,2.1,22.8,2.2,33.21,6.64,16.13,6.88,26.44,22.9,41.34,32.12a51.24,51.24,0,0,0,51.43.42V0Z"/><path class="cls-4" d="M0,21.46v2.26A2.1,2.1,0,0,0,0,21.46Z"/><path class="cls-4" d="M0,.53V2.79A2.06,2.06,0,0,0,.34,1.66,2.11,2.11,0,0,0,0,.53Z"/><path class="cls-4" d="M8.7,14.22a2.1,2.1,0,1,0,0-4.19h0a2.1,2.1,0,0,0,0,4.19Z"/><path class="cls-4" d="M17.43,23.76a2.1,2.1,0,1,0,1.74-3.26,2.09,2.09,0,0,0-1.73.92,2.07,2.07,0,0,0-.19,2A2.31,2.31,0,0,0,17.43,23.76Z"/><path class="cls-4" d="M17.08,1.66a2.16,2.16,0,0,0,.36,1.18A2.1,2.1,0,1,0,20.91.49,1.83,1.83,0,0,0,20.44,0H17.92A2.08,2.08,0,0,0,17.08,1.66Z"/><path class="cls-4" d="M.34,43.53A2.09,2.09,0,0,0,0,42.4v1.68l.14.32A2.13,2.13,0,0,0,.34,43.53Z"/><path class="cls-4" d="M8.71,51.9h0A2.1,2.1,0,1,0,10.8,54,2.1,2.1,0,0,0,8.7,51.9Z"/><path class="cls-4" d="M8.71,31h0a2.1,2.1,0,1,0,2.1,2.09A2.1,2.1,0,0,0,8.7,31Z"/><path class="cls-4" d="M19.17,62.37A2.09,2.09,0,0,0,17.12,64a3,3,0,0,0,0,.42h0a2.1,2.1,0,0,0,4.19,0,2,2,0,0,0,0-.42A2.08,2.08,0,0,0,19.17,62.37Z"/><path class="cls-4" d="M20.35,45.26a2.09,2.09,0,1,0-2.91-.56A2.09,2.09,0,0,0,20.35,45.26Z"/><path class="cls-4" d="M39.29,24.52A2.09,2.09,0,0,0,42,23.41a2.08,2.08,0,0,0-.76-2.56,2.09,2.09,0,0,0-2.9.57A2.07,2.07,0,0,0,38,22.59a2.11,2.11,0,0,0,.17.82A2.08,2.08,0,0,0,39.29,24.52Z"/><path class="cls-4" d="M38,1.66h0A2.1,2.1,0,1,0,41.37,0H38.84A2.08,2.08,0,0,0,38,1.66Z"/><path class="cls-4" d="M50.57,14.22a2.1,2.1,0,1,0,0-4.19h0a2.1,2.1,0,0,0,0,4.19Z"/><path class="cls-4" d="M29.64,14.22a2.1,2.1,0,0,0,0-4.19h0a2.1,2.1,0,0,0,0,4.19Z"/><path class="cls-4" d="M59.87,24.33a2.09,2.09,0,1,0-.57-2.91A2.07,2.07,0,0,0,59,22.6a1.89,1.89,0,0,0,.16.81A2.13,2.13,0,0,0,59.87,24.33Z"/><path class="cls-4" d="M59,1.66h0A2.09,2.09,0,1,0,62.3,0H59.78A2,2,0,0,0,59,1.66Z"/><path class="cls-4" d="M40.11,62.37a2.08,2.08,0,0,0-2,1.67,2,2,0,0,0-.05.42,2.1,2.1,0,0,0,4.19,0,2,2,0,0,0-.05-.42A2.08,2.08,0,0,0,40.11,62.37Z"/><path class="cls-4" d="M40.11,41.43h0A2.1,2.1,0,0,0,38,43.53h0a2.1,2.1,0,1,0,2.1-2.1Z"/><path class="cls-4" d="M50.58,56.09a2.1,2.1,0,1,0-2.1-2.1h0A2.1,2.1,0,0,0,50.58,56.09Z"/><path class="cls-4" d="M29.64,56.09a2.1,2.1,0,0,0,0-4.19h0a2.1,2.1,0,1,0,0,4.19Z"/><path class="cls-4" d="M50.58,35.16a2.1,2.1,0,0,0,0-4.19h0a2.09,2.09,0,0,0-2.09,2.09h0A2.1,2.1,0,0,0,50.58,35.16Z"/><path class="cls-4" d="M29.64,35.16a2.1,2.1,0,0,0,0-4.19h0a2.1,2.1,0,0,0,0,4.19Z"/><path class="cls-4" d="M61,66.55a2.09,2.09,0,0,0,2.09-2.09,2,2,0,0,0,0-.42A2.09,2.09,0,0,0,59,64a1.5,1.5,0,0,0,0,.42A2.08,2.08,0,0,0,61,66.55Z"/><path class="cls-4" d="M61,41.43h0A2.09,2.09,0,0,0,59,43.53h0A2.09,2.09,0,1,0,61,41.43Z"/><path class="cls-4" d="M50.57,72.83h0A2.09,2.09,0,0,0,48.72,74c1-.23,2.07-.47,3.11-.72A2.1,2.1,0,0,0,50.57,72.83Z"/><path class="cls-4" d="M29.64,77a2.1,2.1,0,0,0,0-4.19h0a2.1,2.1,0,0,0,0,4.19Z"/><path class="cls-4" d="M79.88,1.66h0a2.1,2.1,0,1,0,4.19,0A2.06,2.06,0,0,0,83.23,0H80.71A2.08,2.08,0,0,0,79.88,1.66Z"/><path class="cls-4" d="M92.44,14.22a2.1,2.1,0,0,0,0-4.19h0a2.1,2.1,0,1,0,0,4.19Z"/><path class="cls-4" d="M71.5,14.22a2.1,2.1,0,1,0,0-4.19h0a2.1,2.1,0,0,0,0,4.19Z"/><path class="cls-4" d="M102.48,24.64a2,2,0,0,0,.42.05,2.11,2.11,0,0,0,.82-.17A2.09,2.09,0,0,0,105,22.59a2.15,2.15,0,0,0-.36-1.17,2.11,2.11,0,0,0-1.74-.92,3,3,0,0,0-.42,0,2.07,2.07,0,0,0-1.31.88h0a2.11,2.11,0,0,0-.2,2A2.08,2.08,0,0,0,102.48,24.64Z"/><path class="cls-4" d="M100.85,1.24a2.1,2.1,0,0,0,1.63,2.47,2,2,0,0,0,.42,0,2.11,2.11,0,0,0,1.93-1.28A2.09,2.09,0,0,0,104.16,0h-2.49A2.05,2.05,0,0,0,100.85,1.24Z"/><path class="cls-4" d="M82,45.62a2.1,2.1,0,1,0,0-4.19h0a2.1,2.1,0,0,0-2.08,2.1h0A2.09,2.09,0,0,0,82,45.62Z"/><path class="cls-4" d="M92.44,56.09a2.1,2.1,0,1,0-2.1-2.1h0A2.1,2.1,0,0,0,92.44,56.09Z"/><path class="cls-4" d="M71.5,56.09a2.1,2.1,0,1,0,0-4.19h0a2.1,2.1,0,0,0,0,4.19Z"/><path class="cls-4" d="M92.44,35.16a2.1,2.1,0,0,0,0-4.19h0a2.1,2.1,0,0,0-2.09,2.09h0A2.1,2.1,0,0,0,92.44,35.16Z"/><path class="cls-4" d="M71.5,35.16a2.1,2.1,0,1,0,0-4.19h0a2.1,2.1,0,0,0,0,4.19Z"/><path class="cls-4" d="M102.48,45.58a2,2,0,0,0,.42,0,2.1,2.1,0,0,0,0-4.19,2,2,0,0,0-.42,0h0a2.09,2.09,0,0,0,0,4.1Z"/><path class="cls-4" d="M82,24.69a2.11,2.11,0,0,0,1.93-1.28,2,2,0,0,0,.16-.8A2.09,2.09,0,1,0,82,24.69Z"/><path class="cls-4" d="M83.5,63.05a2.08,2.08,0,0,0-3.58,1,2,2,0,0,0,0,.42h0a.22.22,0,0,0,0,.08C81.1,64.06,82.3,63.56,83.5,63.05Z"/><path class="cls-4" d="M122.66,24.33a2.09,2.09,0,1,0-.56-2.91,2.08,2.08,0,0,0-.19,2A2.1,2.1,0,0,0,122.66,24.33Z"/><path class="cls-4" d="M121.74,1.66h0A2.1,2.1,0,1,0,125.1,0h-2.53A2.08,2.08,0,0,0,121.74,1.66Z"/><path class="cls-4" d="M134.3,14.22a2.1,2.1,0,0,0,0-4.19h0a2.1,2.1,0,0,0,0,4.19Z"/><path class="cls-4" d="M113.36,14.22a2.1,2.1,0,0,0,0-4.19h0a2.1,2.1,0,0,0,0,4.19Z"/><path class="cls-4" d="M142.67,1.66a2.1,2.1,0,0,0,2.1,2.1,2.12,2.12,0,0,0,1.51-.65c.19-.5.39-1,.57-1.5A2.12,2.12,0,0,0,146.5.49,2,2,0,0,0,146,0h-2.51A2.08,2.08,0,0,0,142.67,1.66Z"/><path class="cls-4" d="M113.37,35.16a2.1,2.1,0,0,0,0-4.19h0a2.1,2.1,0,0,0,0,4.19Z"/><path class="cls-5" d="M56,788.31a3.08,3.08,0,0,0,1-1.66,3.18,3.18,0,0,0,.06-.62A3.05,3.05,0,0,0,51,785.5c1,.58,2,1.16,3,1.72C54.65,787.6,55.34,787.94,56,788.31Z"/><path class="cls-5" d="M85.74,783.22A3.05,3.05,0,0,0,81.5,786h0a2.6,2.6,0,0,0,0,.62,3.06,3.06,0,0,0,6,0,2.62,2.62,0,0,0,.07-.62A3,3,0,0,0,85.74,783.22Z"/><path class="cls-5" d="M69.27,767.7a3.06,3.06,0,0,0,0,6.11h0a3.06,3.06,0,1,0,0-6.11Z"/><path class="cls-5" d="M38.72,767.7a3.06,3.06,0,1,0,0,6.11h0a3.06,3.06,0,1,0,0-6.11Z"/><path class="cls-5" d="M115.1,783a3.05,3.05,0,0,0-3.06,3,3.18,3.18,0,0,0,.06.62,3.06,3.06,0,0,0,6,0,3.18,3.18,0,0,0,.06-.62A3,3,0,0,0,115.1,783Z"/><path class="cls-5" d="M130.38,798.25a3.06,3.06,0,0,0-3.06,3.06h0a3.06,3.06,0,1,0,3.06-3.06Z"/><path class="cls-5" d="M102.88,801.31a3.06,3.06,0,1,0-6.11,0c0,.05,0,.09,0,.14,2,.29,3.94.58,5.91.89A3.24,3.24,0,0,0,102.88,801.31Z"/><path class="cls-5" d="M145.65,783a3.05,3.05,0,0,0-3.06,3,2.56,2.56,0,0,0,.07.62,3.05,3.05,0,0,0,6,0,3.26,3.26,0,0,0,.06-.62A3,3,0,0,0,145.65,783Z"/><path class="cls-5" d="M130.37,773.81h0a3,3,0,0,0,1.86-.65c-1.52-.35-3-.7-4.57-1A3,3,0,0,0,130.37,773.81Z"/><path class="cls-5" d="M99.82,767.7a3.06,3.06,0,0,0,0,6.11h0a3.06,3.06,0,1,0,0-6.11Z"/><path class="cls-5" d="M191.48,798.25a3.06,3.06,0,0,0-3.06,3.06h0a3.06,3.06,0,1,0,3.06-3.06Z"/><path class="cls-5" d="M160.92,798.25a3.06,3.06,0,0,0,0,6.11h0a3.06,3.06,0,1,0,0-6.11Z"/><path class="cls-5" d="M173.14,786h0a2.56,2.56,0,0,0,.07.62,3,3,0,0,0,5.24,1.44c-1.76-.75-3.52-1.47-5.29-2.18A.5.5,0,0,0,173.14,786Z"/><path class="cls-2" d="M46.23,677.9c25.84-5,49.07-30.26,43.41-56-7.48-34-56.42-47.24-61.53-81.71-2.66-18.22,8.38-35.62,9.87-54C40.11,460.7,22.7,436.8,0,424.47V673.38C15.05,678.5,30.74,680.9,46.23,677.9Z"/><path class="cls-5" d="M33.29,194.07C29.72,142.89,20.84,90.91.14,44.4L0,44.08V299.35a64.91,64.91,0,0,0,7.14-5.46C33.89,270.24,35.72,229.65,33.29,194.07Z"/><path class="cls-3" d="M356.89,648.27c2.08,24.12,6.1,48.53,1.87,72.35-3.5,19.59-12.38,37.73-19.1,56.43a237.7,237.7,0,0,0-9.54,34.82l0,.13H375V565.58l-.08.09a59.11,59.11,0,0,0-8.39,11.66C355,598.61,354.82,624.15,356.89,648.27Z"/><path class="cls-4" d="M102.69,802.34c-2-.31-3.94-.6-5.91-.89-1.79-.27-3.58-.55-5.36-.86A120.27,120.27,0,0,1,56,788.31c-.68-.37-1.37-.71-2.05-1.09-1-.56-2-1.14-3-1.72-18.24-10.86-33.74-26.08-51-38.38V812H128.51l-.18-.13a47.89,47.89,0,0,0-10.86-5.93A71.68,71.68,0,0,0,102.69,802.34Z"/></g></g></svg>