<?xml version="1.0" encoding="utf-8"?>
<!-- Generator: Adobe Illustrator 24.2.1, SVG Export Plug-In . SVG Version: 6.00 Build 0)  -->
<svg version="1.1" id="圖層_1" xmlns="http://www.w3.org/2000/svg" xmlns:xlink="http://www.w3.org/1999/xlink" x="0px" y="0px"
	 viewBox="0 0 1920 1080" style="enable-background:new 0 0 1920 1080;" xml:space="preserve">
<style type="text/css">
	.st0{fill:#F8F4EB;}
	.st1{fill:#F2DE79;}
	.st2{fill:#FFFFFF;}
	.st3{fill:#03588C;}
	.st4{fill:#0388A6;}
</style>
<path class="st0" d="M-0.1,904v23c14.2-3.4,28.7-5.3,43.3-5.9C29.1,914.2,14.7,908-0.1,904z"/>
<path class="st0" d="M1753.9,1072.7c-9.3,2-18.5,4.5-27.5,7.4H1907C1857.5,1065.1,1804.5,1061.8,1753.9,1072.7z"/>
<path class="st0" d="M1919.9,1008.5v-166c-44.2-65-58.4-148.7-46.9-226.9c4.4-29.5,12.1-58.8,11.5-88.7
	c-0.8-36.3-13.9-71.1-24.1-106s-17.5-72.5-6.7-107.3c9.3-29.9,36-56.2,66.3-59.1V0.1h-143.4c11.1,7.4,21.4,15.8,30.7,25.3
	c45.8,46.3,67.2,117.6,65.6,181.7c-3.9,156.6-380.3,302.1-461.5,145.6c-4-7.7-7.1-15.8-9.4-24.1c-18.1-64.6,71.4-136.5,83-197.9
	c7.8-41,26.6-80.9,54.9-111.2c-16-3.4-31.9-5.7-48-3.3c-23.7,3.4-44.8,16.6-67.9,23.2c-34,9.4-70.4,4.1-100.3-14.7
	c-10.5-6.8-20-15.1-28-24.6H794.3c1.4,21.3,2.8,42.7,4.2,64c1.6,24.6,2.9,50.6-8.3,72.5c-20.4,40-78.8,49.7-117,26.1
	c-26.5-16.4-44.9-44.9-73.5-57.2c-16.6-7.1-35-8-53-10.8c-1,1.4-2.8,1.7-4.2,0.7c-0.6-0.4-1-1-1.2-1.6l-0.8-0.1
	c-14-2.7-27.6-7.3-40.3-13.6c-0.5,0.4-1.2,0.6-1.8,0.6c-1.7,0-3-1.3-3-2.9c0,0,0,0,0-0.1v-0.1c-23.2-12.5-43.1-30.2-58.3-51.7
	c-5-7-9.5-14.4-13.4-22C423,4.3,421.9,4.4,421,4c-0.2-0.1-0.4-0.2-0.5-0.3c-1.2-0.8-1.7-2.4-1.1-3.8h-24.9c0.2,0.4,0.2,0.8,0.3,1.2
	c0,0.4-0.1,0.8-0.3,1.2c-0.3,0.7-0.9,1.3-1.6,1.6c-1.5,0.7-3.3,0-4-1.5V2.3c-0.2-0.4-0.2-0.8-0.2-1.2s0.1-0.8,0.3-1.2h-25
	c0.3,0.8,0.3,1.6,0,2.4c-0.2,0.5-0.6,1-1.1,1.3c-1.4,0.9-3.3,0.6-4.3-0.8c-0.6-0.9-0.7-2-0.3-2.9h-25c0.2,0.4,0.3,0.8,0.3,1.2
	c0,1.7-1.4,3.1-3,3.1c-1.2,0-2.3-0.7-2.8-1.9c-0.2-0.4-0.2-0.8-0.2-1.2s0.1-0.8,0.3-1.2h-25c0.3,0.8,0.3,1.6,0,2.4
	c-0.4,0.9-1.2,1.6-2.2,1.8c-0.2,0-0.4,0.1-0.6,0.1l0,0c-1.7,0-3-1.3-3.1-3c0-0.4,0.1-0.8,0.3-1.2h-24.9c0.3,0.8,0.3,1.6,0,2.4
	c-0.7,1.5-2.5,2.2-4,1.6c-1.5-0.7-2.2-2.5-1.6-4l0,0h-24c4.2,14.5,7.7,29.3,10.7,44.1c0.3-0.1,0.5-0.1,0.8-0.1l0,0
	c1.7-0.1,3.1,1.2,3.2,2.9c0.1,1.7-1.2,3.1-2.9,3.2c1.5,7.9,2.8,15.8,4,23.7c5.3,35.3,6.9,75.9-17.9,101.6
	c-23,23.9-60.2,26-93.3,23.3c-50.4-4.1-100-15.4-147.1-33.6v391c41.7-6.1,83.6-9,124,7.4c42,17,76.7,58.2,73.8,103.3
	c-1.9,29.6-19.2,57.9-14.4,87.1c9.2,55.3,88.3,75.2,101.3,129.7c9.8,41.2-26.8,82.5-68.3,91.3c-6.5,1.4-13.1,2.2-19.7,2.4
	c31.5,24.4,61.1,51.8,95.8,71.2c24.2,13.5,50.5,22.9,77.7,27.7c7.9,1.4,15.9,2.4,23.9,3.7h1095.4
	C1611.3,991,1775.8,965.5,1919.9,1008.5z M257,16.6c0,1.7-1.3,3.1-3,3.1s-3.1-1.3-3.1-3s1.3-3.1,3-3.1c0,0,0,0,0.1,0l0,0
	C255.6,13.6,256.9,14.9,257,16.6L257,16.6z M559.7,294.6h-0.2c-1.7,0-3.1-1.4-3.1-3.1s1.4-3.1,3.1-3.1c1.7,0,3,1.3,3.1,3
	C561.6,292.5,560.7,293.5,559.7,294.6z M577.3,244c0.1,0.2,0.2,0.3,0.3,0.5c0.6,1.5-0.1,3.3-1.6,3.9s-3.3-0.1-3.9-1.6
	c-0.6-1.5,0.1-3.3,1.6-3.9C574.9,242.3,576.5,242.8,577.3,244z M586.9,230.4c0-1.1,0.6-2.1,1.5-2.6c-0.3,1.5-0.5,3.1-0.8,4.6
	C587.2,231.8,586.9,231.1,586.9,230.4z M593,138.8c0,1.7-1.4,3.1-3.1,3.1c-1.7,0-3.1-1.4-3.1-3.1c0-1.7,1.4-3.1,3.1-3.1
	c0,0,0,0,0.1,0C591.7,135.7,593,137,593,138.8C593,138.7,593,138.7,593,138.8z M602.2,123.5c0-1.7,1.3-3,2.9-3.1h0.1
	c0.2,0,0.4,0,0.6,0.1c0.9,0.2,1.6,0.7,2.1,1.5c-0.3,0.6-0.5,1.1-0.8,1.7c-0.4,0.9-0.8,1.8-1.2,2.7l0,0.1c-0.2,0-0.4,0.1-0.6,0.1
	c-0.4,0-0.8-0.1-1.2-0.2l0,0C602.9,125.8,602.2,124.7,602.2,123.5L602.2,123.5z M590,105.1c1.7,0,3,1.4,3,3.1l0,0
	c0,1.7-1.4,3.1-3.1,3.1c-1.7,0-3.1-1.4-3.1-3.1C586.9,106.5,588.2,105.1,590,105.1C589.9,105.1,590,105.1,590,105.1z M590,166.3
	c1.7,0,3,1.4,3,3.1l0,0c0,1.7-1.4,3.1-3.1,3.1c-1.7,0-3.1-1.4-3.1-3.1C586.9,167.6,588.2,166.2,590,166.3
	C589.9,166.2,590,166.2,590,166.3z M590,196.8c0.8,0,1.6,0.3,2.2,0.9c-0.2,1.6-0.3,3.1-0.5,4.6c-0.5,0.4-1.1,0.5-1.7,0.5
	c-1.7,0-3.1-1.4-3.1-3.1C586.9,198.2,588.3,196.8,590,196.8L590,196.8z M573,121c1.4-0.9,3.2-0.5,4.2,0.9c0.9,1.4,0.5,3.2-0.9,4.2
	c-1.4,0.9-3.2,0.5-4.1-0.8C571.2,123.8,571.6,122,573,121L573,121L573,121z M574.7,151L574.7,151c1.6,0,3,1.4,3,3l0,0
	c0,1.7-1.3,3.1-3,3.1s-3.1-1.3-3.1-3S572.9,151,574.7,151C574.6,151,574.6,151,574.7,151L574.7,151z M577.7,184.6L577.7,184.6
	c0.1,1.7-1.2,3.1-2.9,3.2c-1.7,0.1-3.1-1.2-3.2-2.9c0-0.1,0-0.2,0-0.3c0-0.2,0-0.4,0.1-0.6c0.3-1.7,1.9-2.7,3.6-2.4
	c1.2,0.2,2.2,1.2,2.4,2.4C577.7,184.2,577.8,184.4,577.7,184.6L577.7,184.6z M574.7,212.1L574.7,212.1c1.7,0,3,1.4,3,3.1l0,0
	c0,1.7-1.4,3.1-3.1,3.1s-3.1-1.4-3.1-3.1S573,212.1,574.7,212.1L574.7,212.1L574.7,212.1z M574.5,273.2c-0.8,1.5-1.6,3-2.5,4.5
	c-0.3-0.5-0.4-1-0.4-1.5C571.6,274.6,572.9,273.3,574.5,273.2z M559.4,105.2L559.4,105.2c1.7,0,3.1,1.4,3,3.1c0,1.7-1.4,3.1-3.1,3
	c-1.7,0-3-1.4-3-3.1c0-1.7,1.3-3,2.9-3.1C559.4,105.1,559.4,105.1,559.4,105.2L559.4,105.2z M562.5,138.8c0,1.7-1.4,3.1-3.1,3.1
	s-3.1-1.4-3.1-3.1c0-1.7,1.4-3.1,3.1-3.1l0,0l0,0c1.7,0,3,1.3,3.1,2.9C562.5,138.7,562.5,138.7,562.5,138.8L562.5,138.8z
	 M559.4,166.3L559.4,166.3c1.7,0,3.1,1.4,3,3.1c0,1.7-1.4,3.1-3.1,3c-1.7,0-3-1.4-3-3.1C556.4,167.6,557.7,166.2,559.4,166.3
	C559.4,166.2,559.5,166.2,559.4,166.3L559.4,166.3z M559.4,196.8L559.4,196.8c1.7,0,3.1,1.4,3,3.1c0,1.7-1.4,3.1-3.1,3
	c-1.7,0-3-1.4-3-3.1C556.4,198.2,557.7,196.8,559.4,196.8C559.4,196.8,559.5,196.8,559.4,196.8L559.4,196.8z M562.5,230.4
	c0,1.7-1.4,3.1-3.1,3.1s-3.1-1.4-3.1-3.1s1.4-3.1,3.1-3.1l0,0l0,0c1.7,0,3,1.3,3.1,2.9C562.5,230.3,562.5,230.4,562.5,230.4
	L562.5,230.4z M559.4,257.9L559.4,257.9c1.7,0,3.1,1.4,3,3.1c0,1.7-1.4,3.1-3.1,3c-1.7,0-3-1.4-3-3.1s1.3-3,2.9-3.1
	C559.4,257.9,559.4,257.9,559.4,257.9L559.4,257.9z M541.6,121.8c0.9-1.4,2.8-1.8,4.2-0.8c0.3,0.2,0.6,0.5,0.8,0.8l0,0
	c0.1,0.2,0.2,0.3,0.3,0.5c0.7,1.5,0,3.4-1.6,4s-3.4,0-4-1.6c-0.2-0.4-0.3-0.8-0.3-1.3C541.1,122.9,541.3,122.3,541.6,121.8z
	 M541.6,152.3c1-1.4,2.9-1.8,4.3-0.8c0.8,0.6,1.3,1.5,1.3,2.5c0,0.6-0.2,1.2-0.5,1.7c-0.9,1.4-2.8,1.8-4.3,0.8
	C541.1,155.6,540.7,153.7,541.6,152.3L541.6,152.3z M449.5,306.8c0-0.2,0-0.4,0.1-0.6c0.3-1.7,1.9-2.8,3.5-2.5
	c1.2,0.2,2.2,1.2,2.5,2.5c0,0.2,0.1,0.4,0.1,0.6c0.1,1.7-1.2,3.1-2.9,3.2s-3.1-1.2-3.2-2.9C449.5,307,449.5,306.9,449.5,306.8
	L449.5,306.8z M464.7,322.1c0-1.7,1.4-3.1,3-3.1l0,0c1.7,0,3.1,1.4,3.1,3.1s-1.4,3.1-3.1,3.1C466.1,325.1,464.7,323.8,464.7,322.1
	L464.7,322.1L464.7,322.1z M483.1,273.2c1.7,0,3.1,1.4,3.1,3c0,1.7-1.4,3.1-3,3.1s-3.1-1.4-3.1-3l0,0
	C480,274.6,481.4,273.2,483.1,273.2L483.1,273.2L483.1,273.2z M480,245.7c0-1.7,1.3-3.1,3-3.1s3.1,1.3,3.1,3s-1.3,3.1-3,3.1
	c0,0,0,0-0.1,0l0,0C481.4,248.7,480.1,247.4,480,245.7L480,245.7L480,245.7z M483.1,187.6c-1.7,0-3.1-1.4-3.1-3.1
	c0-0.2,0-0.4,0.1-0.6c0.3-1.7,1.9-2.8,3.5-2.5c1.2,0.2,2.2,1.2,2.5,2.5c0,0.2,0.1,0.4,0.1,0.6l0,0
	C486.2,186.3,484.8,187.6,483.1,187.6L483.1,187.6L483.1,187.6z M480.1,306.2c0.3-1.7,1.9-2.8,3.5-2.5c1.2,0.2,2.2,1.2,2.5,2.5
	c0,0.2,0.1,0.4,0.1,0.6c0,1.7-1.4,3.1-3.1,3.1s-3.1-1.4-3.1-3.1C480,306.6,480.1,306.4,480.1,306.2L480.1,306.2z M495.7,323.5
	c-0.2-0.4-0.4-0.9-0.4-1.4c0-1.7,1.4-3.1,3-3.1l0,0l0,0c1.7,0,3.1,1.4,3.1,3.1c0,0.1,0,0.3,0,0.4
	C499.5,322.8,497.6,323.2,495.7,323.5L495.7,323.5z M510.6,306.8c0-0.2,0-0.4,0.1-0.6c0.3-1.7,1.9-2.8,3.5-2.5
	c1.2,0.2,2.2,1.2,2.5,2.5c0,0.2,0.1,0.4,0.1,0.6c0.1,1.7-1.2,3.1-2.9,3.2c-1.7,0.1-3.1-1.2-3.2-2.9
	C510.6,307,510.6,306.9,510.6,306.8L510.6,306.8z M531.9,138.8c0,1.7-1.4,3.1-3.1,3.1c-1.7,0-3.1-1.4-3.1-3.1c0-1.7,1.4-3.1,3.1-3.1
	c0,0,0,0,0.1,0C530.6,135.7,532,137.1,531.9,138.8C532,138.8,532,138.8,531.9,138.8z M541.7,308.6c-0.4-0.5-0.6-1.1-0.6-1.8
	c0-0.2,0-0.4,0.1-0.6c0.3-1.6,1.8-2.8,3.4-2.5c1,0.2,1.8,0.8,2.2,1.7C545.2,306.5,543.4,307.6,541.7,308.6L541.7,308.6z
	 M544.2,218.2c-1.7-0.1-3-1.5-2.9-3.2c0.1-1.6,1.3-2.8,2.9-2.9c0.6,0,1.2,0.2,1.7,0.5c1.4,0.9,1.8,2.8,0.8,4.2
	C546.1,217.7,545.2,218.2,544.2,218.2z M547.2,245.7c0,0.4-0.1,0.8-0.2,1.2c-0.1,0.2-0.2,0.4-0.3,0.5c-0.9,1.4-2.8,1.8-4.2,0.8
	s-1.8-2.8-0.8-4.2c0.9-1.4,2.8-1.8,4.2-0.8l0,0c0.3,0.2,0.6,0.5,0.8,0.8C547,244.5,547.2,245.1,547.2,245.7L547.2,245.7z
	 M541.1,184.6c0-0.2,0-0.4,0.1-0.6c0.3-1.7,1.9-2.8,3.5-2.4c1.2,0.2,2.2,1.2,2.5,2.4c0,0.2,0.1,0.4,0.1,0.6l0,0
	c0.1,1.7-1.2,3.1-2.9,3.2c-1.7,0.1-3.1-1.2-3.2-2.9C541.1,184.8,541.1,184.7,541.1,184.6L541.1,184.6z M541.6,274.5
	c1-1.4,2.9-1.8,4.3-0.8c0.8,0.6,1.3,1.5,1.3,2.5c0,0.6-0.2,1.2-0.5,1.7c-0.9,1.4-2.9,1.8-4.3,0.8S540.7,275.9,541.6,274.5
	L541.6,274.5z M528.9,105.2L528.9,105.2c1.7,0,3,1.4,3,3.1l0,0c0,1.7-1.4,3.1-3.1,3.1c-1.7,0-3.1-1.4-3.1-3.1
	C525.8,106.5,527.2,105.1,528.9,105.2C528.9,105.1,528.9,105.1,528.9,105.2z M528.9,166.3c1.7,0.1,3,1.5,2.9,3.2
	c-0.1,1.6-1.3,2.8-2.9,2.9l0,0c-1.7,0.1-3.1-1.2-3.2-2.9s1.2-3.1,2.9-3.2C528.7,166.2,528.8,166.2,528.9,166.3z M528.9,196.8
	L528.9,196.8c1.7,0,3,1.4,3,3.1l0,0c0,1.7-1.4,3.1-3.1,3.1c-1.7,0-3.1-1.4-3.1-3.1C525.8,198.2,527.2,196.8,528.9,196.8L528.9,196.8
	z M531.9,230.4c0,1.7-1.4,3.1-3.1,3.1c-1.7,0-3.1-1.4-3.1-3.1s1.4-3.1,3.1-3.1c0,0,0,0,0.1,0l0,0
	C530.6,227.4,531.9,228.8,531.9,230.4z M528.9,257.9L528.9,257.9c1.7,0,3,1.4,3,3.1l0,0c0,1.7-1.4,3.1-3.1,3.1
	c-1.7,0-3.1-1.4-3.1-3.1C525.8,259.3,527.2,257.9,528.9,257.9L528.9,257.9z M528.9,288.5c1.7,0,3,1.4,3,3.1l0,0
	c0,1.7-1.4,3.1-3.1,3.1c-1.7,0-3.1-1.4-3.1-3.1C525.8,289.8,527.2,288.5,528.9,288.5L528.9,288.5z M513.6,89.9L513.6,89.9
	c1.7,0,3.1,1.4,3.1,3.1c0,1.7-1.4,3.1-3.1,3.1s-3.1-1.4-3.1-3.1l0,0C510.6,91.3,511.9,89.9,513.6,89.9L513.6,89.9L513.6,89.9z
	 M516.7,123.5c0,0.4-0.1,0.8-0.3,1.2c-0.7,1.6-2.4,2.3-4,1.6c-1.6-0.7-2.3-2.4-1.6-4c0.5-1.1,1.6-1.9,2.8-1.9
	C515.3,120.4,516.7,121.8,516.7,123.5z M510.6,154.1c0-1.7,1.4-3.1,3.1-3.1c1.7,0,3.1,1.4,3.1,3.1c0,1.7-1.4,3.1-3.1,3.1l0,0
	C511.9,157.1,510.6,155.8,510.6,154.1L510.6,154.1L510.6,154.1z M510.6,184c0.3-1.7,1.9-2.8,3.6-2.4c1.2,0.2,2.2,1.2,2.4,2.4
	c0,0.2,0.1,0.4,0.1,0.6c0.1,1.7-1.2,3.1-2.9,3.2c-1.7,0.1-3.1-1.2-3.2-2.9c0-0.1,0-0.2,0-0.3C510.6,184.4,510.6,184.2,510.6,184
	L510.6,184z M513.6,212.1L513.6,212.1c1.7,0,3,1.4,3,3.1l0,0c0,1.7-1.4,3.1-3.1,3.1c-1.7,0-3.1-1.4-3.1-3.1
	C510.5,213.5,511.9,212.1,513.6,212.1L513.6,212.1L513.6,212.1z M514.8,248.5c-1.6,0.7-3.3-0.1-4-1.6c-0.7-1.6,0.1-3.3,1.6-4
	c1.3-0.6,2.9-0.1,3.7,1.1l0,0c0.1,0.2,0.2,0.3,0.3,0.5C517.1,246.1,516.4,247.8,514.8,248.5L514.8,248.5z M513.6,273.2L513.6,273.2
	c1.7,0,3,1.4,3,3l0,0c0,1.7-1.4,3.1-3,3.1c-1.7,0-3.1-1.4-3.1-3S511.9,273.2,513.6,273.2L513.6,273.2L513.6,273.2z M498.4,105.2
	c1.7,0,3.1,1.4,3.1,3.1c0,1.7-1.4,3.1-3.1,3.1s-3.1-1.4-3.1-3.1l0,0c-0.1-1.7,1.3-3.1,2.9-3.1C498.3,105.2,498.3,105.1,498.4,105.2
	L498.4,105.2z M501.4,138.9c0,1.7-1.4,3.1-3.1,3.1s-3.1-1.4-3.1-3.1c0-1.7,1.4-3.1,3.1-3.1l0,0l0,0
	C500,135.8,501.4,137.1,501.4,138.9L501.4,138.9z M498.4,166.3L498.4,166.3c1.7,0,3.1,1.4,3,3.1c0,1.7-1.4,3.1-3.1,3
	c-1.7,0-3-1.4-3-3.1C495.3,167.7,496.6,166.3,498.4,166.3C498.3,166.3,498.3,166.3,498.4,166.3L498.4,166.3z M498.4,196.9
	L498.4,196.9c1.7,0,3.1,1.4,3,3.1c0,1.7-1.4,3.1-3.1,3c-1.7,0-3-1.4-3-3.1C495.3,198.3,496.6,196.8,498.4,196.9
	C498.3,196.8,498.3,196.8,498.4,196.9L498.4,196.9z M501.4,230.5c0,1.7-1.4,3.1-3.1,3.1s-3.1-1.4-3.1-3.1s1.4-3.1,3.1-3.1l0,0l0,0
	C500,227.5,501.4,228.8,501.4,230.5L501.4,230.5z M498.4,258L498.4,258c1.7,0,3.1,1.4,3,3.1c0,1.7-1.4,3.1-3.1,3c-1.7,0-3-1.4-3-3.1
	s1.3-3.1,3-3.1C498.3,257.9,498.3,257.9,498.4,258L498.4,258z M498.4,288.6L498.4,288.6c1.7,0,3.1,1.4,3,3.1c0,1.7-1.4,3.1-3.1,3
	c-1.7,0-3-1.4-3-3.1s1.3-3.1,3-3.1C498.3,288.5,498.3,288.5,498.4,288.6L498.4,288.6z M483.1,157.1c-1.7,0-3.1-1.4-3.1-3.1
	c0-1.7,1.4-3.1,3.1-3.1s3.1,1.4,3.1,3.1l0,0C486.1,155.7,484.8,157.1,483.1,157.1z M480,123.5c0-1.7,1.4-3.1,3.1-3.1
	s3.1,1.4,3.1,3.1c0,1.7-1.4,3.1-3.1,3.1c-1.2,0-2.3-0.7-2.8-1.9C480.1,124.3,480,123.9,480,123.5L480,123.5z M483.1,89.9
	c1.7,0,3,1.3,3,3l0,0c0,1.7-1.4,3.1-3.1,3.1s-3.1-1.4-3.1-3.1C480,91.2,481.3,89.8,483.1,89.9C483,89.8,483.1,89.8,483.1,89.9
	L483.1,89.9z M483.1,212.1c1.7,0,3,1.3,3,3c0,0,0,0,0,0.1l0,0c0,1.7-1.4,3.1-3.1,3.1s-3.1-1.4-3.1-3.1
	C480,213.5,481.3,212.1,483.1,212.1C483,212.1,483.1,212.1,483.1,212.1z M467.8,74.6L467.8,74.6c1.7,0,3.1,1.4,3.1,3.1
	s-1.4,3.1-3.1,3.1s-3.1-1.4-3.1-3.1l0,0C464.7,76,466.1,74.6,467.8,74.6L467.8,74.6L467.8,74.6z M467.8,105.1L467.8,105.1
	c1.7,0,3.1,1.4,3.1,3.1c0,1.7-1.4,3.1-3.1,3.1s-3.1-1.4-3.1-3.1l0,0C464.7,106.5,466.1,105.2,467.8,105.1L467.8,105.1L467.8,105.1z
	 M470.9,138.8c0,1.7-1.4,3.1-3.1,3.1s-3.1-1.4-3.1-3.1s1.4-3.1,3.1-3.1l0,0l0,0C469.5,135.7,470.9,137.1,470.9,138.8
	C470.9,138.7,470.9,138.8,470.9,138.8z M467.8,166.3L467.8,166.3c1.7,0,3.1,1.4,3.1,3.1c0,1.7-1.4,3.1-3.1,3.1s-3.1-1.4-3.1-3.1l0,0
	C464.7,167.6,466.1,166.3,467.8,166.3L467.8,166.3L467.8,166.3z M467.8,196.8L467.8,196.8c1.7,0,3.1,1.4,3.1,3.1
	c0,1.7-1.4,3.1-3.1,3.1s-3.1-1.4-3.1-3.1l0,0C464.7,198.2,466.1,196.8,467.8,196.8L467.8,196.8L467.8,196.8z M470.9,230.4
	c0,1.7-1.4,3.1-3.1,3.1s-3.1-1.4-3.1-3.1s1.4-3.1,3.1-3.1l0,0l0,0C469.5,227.4,470.9,228.7,470.9,230.4L470.9,230.4z M467.8,257.9
	L467.8,257.9c1.7,0,3.1,1.4,3.1,3.1s-1.4,3.1-3.1,3.1s-3.1-1.4-3.1-3.1l0,0C464.7,259.3,466.1,257.9,467.8,257.9L467.8,257.9
	L467.8,257.9z M467.8,288.5L467.8,288.5c1.7,0,3.1,1.4,3.1,3.1s-1.4,3.1-3.1,3.1s-3.1-1.4-3.1-3.1l0,0
	C464.7,289.8,466.1,288.5,467.8,288.5L467.8,288.5L467.8,288.5z M449.5,61.8c0.3-1.7,1.9-2.8,3.5-2.4c1.2,0.2,2.2,1.2,2.5,2.4
	c0,0.2,0.1,0.4,0.1,0.6c-0.1,1.7-1.5,3-3.2,2.9c-1.6-0.1-2.8-1.3-2.9-2.9C449.5,62.2,449.5,62,449.5,61.8z M452.5,89.9L452.5,89.9
	c1.7,0,3.1,1.4,3.1,3.1c0,1.7-1.4,3.1-3.1,3.1s-3.1-1.4-3.1-3.1l0,0C449.5,91.3,450.8,89.9,452.5,89.9z M450.8,120.9
	c1.4-0.9,3.3-0.5,4.3,0.9c0.3,0.5,0.5,1.1,0.5,1.7c0,0.4-0.1,0.8-0.2,1.2c-0.7,1.6-2.5,2.3-4,1.6c-0.7-0.3-1.3-0.9-1.6-1.6
	c-0.2-0.4-0.2-0.8-0.2-1.2C449.5,122.5,450,121.5,450.8,120.9L450.8,120.9z M452.5,150.9L452.5,150.9c1.7,0,3,1.3,3,3l0,0
	c0,1.7-1.4,3.1-3.1,3.1s-3.1-1.4-3.1-3.1C449.5,152.3,450.8,150.9,452.5,150.9L452.5,150.9L452.5,150.9z M455.6,184.5
	c0.1,1.7-1.2,3.1-2.9,3.2c-1.7,0.1-3.1-1.2-3.2-2.9c0-0.1,0-0.2,0-0.3c0-0.2,0-0.4,0.1-0.6c0.3-1.7,1.9-2.8,3.5-2.4
	c1.2,0.2,2.2,1.2,2.5,2.4C455.6,184.1,455.6,184.4,455.6,184.5L455.6,184.5z M452.5,212.1L452.5,212.1c1.7,0,3,1.4,3,3.1l0,0
	c0,1.7-1.4,3.1-3.1,3.1s-3.1-1.4-3.1-3.1S450.8,212.1,452.5,212.1L452.5,212.1L452.5,212.1z M455.6,245.7c0,1.7-1.4,3.1-3,3.1
	s-3.1-1.4-3.1-3s1.4-3.1,3-3.1c1,0,2,0.5,2.5,1.3C455.4,244.5,455.6,245.1,455.6,245.7L455.6,245.7z M452.5,273.2L452.5,273.2
	c1.7,0,3,1.3,3,2.9v0.1l0,0c0,1.7-1.4,3.1-3,3.1c-1.7,0-3.1-1.4-3.1-3S450.8,273.2,452.5,273.2L452.5,273.2L452.5,273.2z
	 M437.2,44.1L437.2,44.1c1.7,0,3.1,1.4,3.1,3.1s-1.4,3.1-3.1,3.1s-3.1-1.4-3.1-3.1c0,0,0,0,0-0.1C434.2,45.4,435.6,44.1,437.2,44.1
	L437.2,44.1z M250.9,230.4c0-1.7,1.3-3,2.9-3h0.1l0,0c1.7,0,3.1,1.4,3.1,3.1s-1.4,3.1-3.1,3.1S250.9,232.1,250.9,230.4L250.9,230.4
	L250.9,230.4z M267.5,243.2c1.4-0.9,3.3-0.6,4.2,0.8c0.9,1.4,0.6,3.3-0.8,4.2c-1.4,0.9-3.3,0.6-4.2-0.8
	C265.8,246,266.1,244.1,267.5,243.2L267.5,243.2L267.5,243.2z M284.5,74.6L284.5,74.6c1.7,0,3.1,1.4,3.1,3.1c0,1.7-1.4,3.1-3.1,3.1
	s-3.1-1.4-3.1-3.1l0,0C281.5,76,282.8,74.6,284.5,74.6L284.5,74.6z M281.4,47.1c0-1.7,1.4-3,3-3l0,0c1.7,0,3.1,1.4,3.1,3.1
	s-1.4,3.1-3.1,3.1C282.8,50.2,281.5,48.8,281.4,47.1L281.4,47.1z M299.8,120.4c0.2,0,0.4,0,0.6,0.1c1.7,0.3,2.8,1.9,2.5,3.6
	c-0.2,1.2-1.2,2.2-2.5,2.4c-0.2,0-0.4,0.1-0.6,0.1c-0.4,0-0.8-0.1-1.2-0.2c-0.7-0.3-1.3-0.9-1.6-1.6c-0.2-0.4-0.2-0.8-0.2-1.2
	C296.7,121.8,298.1,120.4,299.8,120.4L299.8,120.4z M296.7,92.9c0-1.7,1.4-3,3.1-3c0.2,0,0.4,0,0.6,0.1l0,0c1.7,0.3,2.7,1.9,2.4,3.6
	c-0.2,1.2-1.2,2.2-2.4,2.4c-0.2,0-0.4,0.1-0.6,0.1C298.1,96,296.7,94.6,296.7,92.9L296.7,92.9z M297.2,244c0.6-0.9,1.5-1.4,2.5-1.4
	c0.2,0,0.4,0,0.6,0.1c0.8,0.2,1.5,0.6,1.9,1.3l0,0c1,1.3,0.7,3.2-0.7,4.2c-0.4,0.3-0.8,0.4-1.2,0.5c-0.2,0-0.4,0.1-0.6,0.1
	c-1.7,0-3-1.3-3.1-3C296.7,245.1,296.9,244.5,297.2,244L297.2,244z M298.6,212.3c0.4-0.2,0.8-0.2,1.2-0.2c0.2,0,0.4,0,0.6,0.1l0,0
	c1.7,0.3,2.7,1.9,2.4,3.6c-0.2,1.2-1.2,2.2-2.4,2.4c-0.2,0-0.4,0.1-0.6,0.1c-1.7,0-3.1-1.4-3.1-3.1
	C296.7,213.9,297.5,212.8,298.6,212.3L298.6,212.3z M298.6,273.4c0.4-0.2,0.8-0.2,1.2-0.2c0.2,0,0.4,0,0.6,0.1l0,0
	c1.7,0.3,2.7,1.9,2.4,3.6c-0.2,1.2-1.2,2.2-2.4,2.4c-0.2,0-0.4,0.1-0.6,0.1c-1.7,0-3.1-1.4-3-3.1C296.7,275,297.5,273.9,298.6,273.4
	L298.6,273.4z M300.4,187.6c-0.2,0-0.4,0.1-0.6,0.1c-1.7,0-3.1-1.4-3.1-3.1c0-0.2,0-0.4,0.1-0.6c0.2-1,0.9-1.8,1.8-2.2
	c0.4-0.2,0.8-0.2,1.2-0.2c0.2,0,0.4,0,0.6,0.1c1.2,0.3,2.1,1.2,2.4,2.4c0,0.2,0.1,0.4,0.1,0.6C302.9,186,301.8,187.3,300.4,187.6
	L300.4,187.6z M299.8,151c0.2,0,0.4,0,0.6,0.1l0,0c1.7,0.3,2.7,1.9,2.4,3.6c-0.2,1.2-1.2,2.2-2.4,2.4c-0.2,0-0.4,0.1-0.6,0.1
	c-1.7,0.1-3.1-1.2-3.2-2.9s1.2-3.1,2.9-3.2C299.5,151,299.7,151,299.8,151L299.8,151z M328.1,304.7c0.4-0.5,1-0.8,1.6-0.9
	c1.7-0.3,3.3,0.7,3.6,2.4c0,0.2,0.1,0.4,0.1,0.6l0,0v0.1C331.6,306.2,329.8,305.5,328.1,304.7L328.1,304.7z M333.4,184.6
	c0,1.7-1.4,3-3.1,3l0,0c-1.7,0-3.1-1.4-3.1-3.1c0-1.7,1.4-3.1,3.1-3.1c1.5,0,2.7,1,3,2.5C333.4,184.1,333.4,184.3,333.4,184.6
	L333.4,184.6z M345.6,74.6L345.6,74.6c1.7,0,3.1,1.4,3.1,3.1c0,1.7-1.4,3.1-3.1,3.1s-3.1-1.4-3.1-3.1l0,0
	C342.6,75.9,343.9,74.6,345.6,74.6L345.6,74.6z M342.5,47.1c0-1.7,1.4-3,3-3l0,0c1.7,0,3.1,1.4,3.1,3.1s-1.4,3.1-3.1,3.1
	C343.9,50.2,342.6,48.8,342.5,47.1L342.5,47.1z M357.8,306.8c0-0.2,0-0.4,0.1-0.6c0.3-1.7,1.9-2.8,3.5-2.5c1.2,0.2,2.2,1.2,2.5,2.5
	c0,0.2,0.1,0.4,0.1,0.6c0.1,1.7-1.2,3.1-2.9,3.2s-3.1-1.2-3.2-2.9C357.8,307,357.8,306.9,357.8,306.8L357.8,306.8z M374.3,319.7
	c0.5-0.4,1.2-0.6,1.9-0.6l0,0c1.2,0,2.2,0.7,2.7,1.7C377.3,320.4,375.8,320,374.3,319.7z M379.2,138.8c0,1.7-1.4,3.1-3.1,3.1
	s-3.1-1.4-3.1-3.1s1.4-3.1,3.1-3.1l0,0l0,0C377.8,135.7,379.2,137.1,379.2,138.8z M376.1,74.6L376.1,74.6c1.7,0,3.1,1.4,3.1,3.1
	c0,1.7-1.4,3.1-3.1,3.1s-3.1-1.4-3.1-3.1c0,0,0,0,0-0.1C373.1,75.9,374.5,74.6,376.1,74.6L376.1,74.6z M373.1,47.1
	c0-1.7,1.4-3,3.1-3l0,0c1.7,0,3.1,1.4,3.1,3.1s-1.4,3.1-3.1,3.1C374.5,50.2,373.1,48.8,373.1,47.1L373.1,47.1z M388.4,306.8
	c0-0.2,0-0.4,0.1-0.6c0.3-1.7,1.9-2.8,3.5-2.5c1.2,0.2,2.2,1.2,2.5,2.5c0,0.2,0.1,0.4,0.1,0.6c0.1,1.7-1.2,3.1-2.9,3.2
	s-3.1-1.2-3.2-2.9C388.4,307,388.4,306.9,388.4,306.8L388.4,306.8z M403.6,322.1c0-1.7,1.3-3,3-3.1l0,0c1.7,0,3.1,1.4,3.1,3.1
	s-1.4,3.1-3.1,3.1C405,325.1,403.6,323.8,403.6,322.1L403.6,322.1L403.6,322.1z M406.6,74.6L406.6,74.6c1.7,0,3.1,1.4,3.1,3.1
	c0,1.7-1.4,3.1-3.1,3.1s-3.1-1.4-3.1-3.1l0,0C403.6,76,404.9,74.6,406.6,74.6C406.6,74.6,406.7,74.6,406.6,74.6L406.6,74.6z
	 M403.6,47.1c0-1.7,1.3-3,3-3.1l0,0c1.7,0,3.1,1.3,3.1,3s-1.3,3.1-3,3.1C405.1,50.2,403.7,48.9,403.6,47.1L403.6,47.1L403.6,47.1z
	 M418.9,306.8c0-0.2,0-0.4,0.1-0.6c0.3-1.7,1.9-2.7,3.6-2.4c1.2,0.2,2.2,1.2,2.4,2.4c0,0.2,0.1,0.4,0.1,0.6l0,0c0,1.7-1.3,3-3,3
	c0,0,0,0-0.1,0c-0.4,0-0.8-0.1-1.2-0.2C419.7,309.1,418.9,308,418.9,306.8z M434.2,322.1c0-1.7,1.4-3.1,3-3.1l0,0
	c1.7,0,3.1,1.4,3,3.1c0,1.7-1.4,3.1-3.1,3C435.5,325.1,434.2,323.8,434.2,322.1L434.2,322.1z M437.2,74.6L437.2,74.6
	c1.7,0,3.1,1.4,3,3.1c0,1.7-1.4,3.1-3.1,3c-1.7,0-3-1.4-3-3.1c0-1.7,1.3-3,2.9-3.1C437.2,74.6,437.2,74.6,437.2,74.6L437.2,74.6z
	 M437.2,105.2L437.2,105.2c1.7,0,3.1,1.4,3,3.1c0,1.7-1.4,3.1-3.1,3c-1.7,0-3-1.4-3-3.1c0-1.7,1.3-3,2.9-3.1
	C437.2,105.1,437.2,105.1,437.2,105.2L437.2,105.2z M440.3,138.8c0,1.7-1.4,3.1-3.1,3.1s-3.1-1.4-3.1-3.1s1.4-3.1,3.1-3.1l0,0l0,0
	C438.9,135.7,440.3,137.1,440.3,138.8L440.3,138.8z M437.2,166.3L437.2,166.3c1.7,0,3.1,1.4,3,3.1c0,1.7-1.4,3.1-3.1,3
	c-1.7,0-3-1.4-3-3.1C434.2,167.6,435.5,166.3,437.2,166.3C437.2,166.2,437.3,166.2,437.2,166.3L437.2,166.3z M437.2,196.8
	L437.2,196.8c1.7,0,3.1,1.4,3,3.1c0,1.7-1.4,3.1-3.1,3c-1.7,0-3-1.4-3-3.1C434.2,198.2,435.5,196.8,437.2,196.8
	C437.2,196.8,437.3,196.8,437.2,196.8L437.2,196.8z M440.3,230.4c0,1.7-1.4,3.1-3.1,3.1s-3.1-1.4-3.1-3.1s1.4-3.1,3.1-3.1l0,0l0,0
	c1.7,0,3,1.3,3.1,2.9C440.3,230.3,440.3,230.4,440.3,230.4L440.3,230.4z M437.2,257.9L437.2,257.9c1.7,0,3.1,1.4,3,3.1
	c0,1.7-1.4,3.1-3.1,3c-1.7,0-3-1.4-3-3.1s1.3-3,2.9-3.1C437.2,257.9,437.2,257.9,437.2,257.9L437.2,257.9z M437.2,288.5L437.2,288.5
	c1.7,0,3.1,1.4,3.1,3.1s-1.4,3.1-3.1,3.1s-3.1-1.4-3.1-3.1l0,0C434.2,289.8,435.5,288.5,437.2,288.5L437.2,288.5L437.2,288.5z
	 M423.2,156.8c-1.5,0.6-3.3-0.2-3.9-1.7s0.2-3.3,1.7-3.9c0.9-0.3,1.9-0.2,2.7,0.3l0,0c1.4,0.9,1.8,2.8,0.8,4.2
	C424.2,156.2,423.7,156.6,423.2,156.8z M425,184.6c0.1,1.7-1.2,3.1-2.9,3.2c-1.7,0.1-3.1-1.2-3.2-2.9c0-0.1,0-0.2,0-0.3
	c0-0.2,0-0.4,0.1-0.6c0.3-1.7,1.9-2.7,3.6-2.4c1.2,0.2,2.2,1.2,2.4,2.4C425,184.2,425,184.4,425,184.6z M420.3,120.9
	c1.4-0.9,3.3-0.6,4.2,0.8c0.6,0.9,0.7,2,0.3,2.9c-0.2,0.5-0.6,1-1.1,1.3c-1.4,0.9-3.3,0.5-4.2-0.9
	C418.6,123.7,418.9,121.9,420.3,120.9z M419.4,30.1c0.9-1.4,2.8-1.8,4.2-0.8l0,0c0.8,0.6,1.4,1.5,1.3,2.5c0,1.7-1.4,3.1-3,3.1
	c-1.7,0-3.1-1.4-3.1-3C418.9,31.2,419.1,30.6,419.4,30.1z M425,62.3L425,62.3c0,1.7-1.3,3-3,3c0,0,0,0-0.1,0c-0.4,0-0.8-0.1-1.2-0.2
	c-1.1-0.5-1.8-1.5-1.9-2.7c0-0.2,0-0.4,0.1-0.6c0.3-1.7,1.9-2.7,3.6-2.4c1.2,0.2,2.2,1.2,2.4,2.4C425,62,425,62.2,425,62.3L425,62.3
	z M419.4,91.2c1-1.4,2.9-1.8,4.3-0.8c0.8,0.6,1.3,1.5,1.3,2.5c0,0.6-0.2,1.2-0.5,1.7c-0.9,1.4-2.9,1.8-4.3,0.8
	C418.9,94.5,418.5,92.6,419.4,91.2z M419.4,213.4c1-1.4,2.9-1.8,4.3-0.8c0.8,0.6,1.4,1.5,1.3,2.5c0,0.6-0.2,1.2-0.5,1.7
	c-0.9,1.4-2.9,1.8-4.3,0.8C418.9,216.7,418.5,214.8,419.4,213.4L419.4,213.4z M425,245.6c0,0.4-0.1,0.8-0.2,1.2
	c-0.1,0.2-0.2,0.4-0.3,0.5c-0.9,1.4-2.8,1.8-4.2,0.8c-1.4-0.9-1.8-2.8-0.8-4.2c0.9-1.4,2.8-1.8,4.2-0.8c0.3,0.2,0.6,0.5,0.8,0.8
	C424.9,244.5,425,245.1,425,245.6L425,245.6z M419.4,274.5c1-1.4,2.9-1.8,4.3-0.8c0.8,0.6,1.3,1.5,1.3,2.5c0,0.6-0.2,1.2-0.5,1.7
	c-0.9,1.4-2.9,1.8-4.3,0.8S418.5,275.9,419.4,274.5L419.4,274.5z M406.7,13.5L406.7,13.5c1.7,0,3.1,1.4,3.1,3.1s-1.4,3.1-3.1,3.1
	s-3.1-1.4-3.1-3.1c0,0,0,0,0-0.1C403.7,14.8,405,13.5,406.7,13.5L406.7,13.5L406.7,13.5z M406.7,105.1L406.7,105.1
	c1.7,0,3.1,1.4,3.1,3.1s-1.4,3.1-3.1,3.1s-3.1-1.4-3.1-3.1l0,0C403.6,106.5,405,105.1,406.7,105.1L406.7,105.1L406.7,105.1z
	 M409.8,138.7c0,1.7-1.4,3.1-3.1,3.1s-3.1-1.4-3.1-3.1s1.4-3.1,3.1-3.1l0,0l0,0C408.4,135.7,409.8,137,409.8,138.7L409.8,138.7
	L409.8,138.7z M406.7,166.2L406.7,166.2c1.7,0,3.1,1.4,3.1,3.1c0,1.7-1.4,3.1-3.1,3.1s-3.1-1.4-3.1-3.1l0,0
	C403.7,167.6,405,166.2,406.7,166.2L406.7,166.2z M406.7,196.8L406.7,196.8c1.7,0,3.1,1.4,3.1,3.1c0,1.7-1.4,3.1-3.1,3.1
	s-3.1-1.4-3.1-3.1l0,0C403.7,198.2,405,196.8,406.7,196.8L406.7,196.8z M409.8,230.4c0,1.7-1.4,3.1-3.1,3.1s-3.1-1.4-3.1-3.1
	s1.4-3.1,3.1-3.1l0,0l0,0C408.4,227.3,409.8,228.7,409.8,230.4L409.8,230.4L409.8,230.4z M406.7,257.9L406.7,257.9
	c1.7,0,3.1,1.4,3.1,3.1s-1.4,3.1-3.1,3.1s-3.1-1.4-3.1-3.1l0,0C403.6,259.3,405,257.9,406.7,257.9L406.7,257.9L406.7,257.9z
	 M406.7,288.4L406.7,288.4c1.7,0,3.1,1.4,3.1,3.1s-1.4,3.1-3.1,3.1s-3.1-1.4-3.1-3.1l0,0C403.7,289.8,405,288.5,406.7,288.4
	L406.7,288.4z M394.5,123.4c0,1.7-1.4,3-3,3c-1.7,0-3-1.4-3-3c0-1.7,1.4-3,3-3c1,0,1.9,0.5,2.5,1.3
	C394.3,122.3,394.5,122.9,394.5,123.4L394.5,123.4z M391.4,28.7L391.4,28.7c1.7,0,3,1.4,3,3.1s-1.4,3-3.1,3s-3-1.4-3-3
	C388.4,30.1,389.7,28.8,391.4,28.7C391.4,28.8,391.4,28.8,391.4,28.7L391.4,28.7z M388.4,61.7c0.3-1.7,1.9-2.8,3.5-2.5
	c1.2,0.2,2.2,1.2,2.5,2.5c0,0.2,0.1,0.4,0.1,0.6c-0.1,1.7-1.5,3-3.2,2.9c-1.6-0.1-2.8-1.3-2.9-2.9C388.4,62.2,388.4,62,388.4,61.7
	L388.4,61.7z M391.4,89.9L391.4,89.9c1.7,0,3.1,1.4,3.1,3.1s-1.4,3.1-3.1,3.1s-3.1-1.4-3.1-3.1l0,0
	C388.4,91.2,389.8,89.9,391.4,89.9L391.4,89.9z M391.4,151L391.4,151c1.7,0,3,1.3,3,3l0,0c0,1.7-1.4,3.1-3.1,3.1s-3.1-1.4-3.1-3.1
	C388.4,152.3,389.7,150.9,391.4,151L391.4,151L391.4,151z M394.5,245.7c0,0.4-0.1,0.8-0.3,1.2c-0.7,1.5-2.5,2.3-4,1.6
	s-2.3-2.5-1.6-4c0.2-0.5,0.6-1,1.1-1.3c1.4-0.9,3.3-0.6,4.2,0.8C394.3,244.5,394.5,245.1,394.5,245.7z M394.5,184.6
	c0.1,1.7-1.2,3.1-2.9,3.2s-3.1-1.2-3.2-2.9c0-0.1,0-0.2,0-0.3c0-0.2,0-0.4,0.1-0.6c0.3-1.7,1.9-2.8,3.5-2.5c1.2,0.2,2.2,1.2,2.5,2.5
	C394.5,184.2,394.5,184.4,394.5,184.6L394.5,184.6z M391.4,212.1L391.4,212.1c1.7,0,3,1.4,3,3.1l0,0c0,1.7-1.4,3.1-3.1,3.1
	s-3.1-1.4-3.1-3.1S389.7,212.1,391.4,212.1L391.4,212.1L391.4,212.1z M391.4,273.2L391.4,273.2c1.7,0,3,1.3,3,2.9v0.1l0,0
	c0,1.7-1.4,3.1-3,3.1c-1.7,0-3.1-1.4-3.1-3S389.7,273.2,391.4,273.2L391.4,273.2L391.4,273.2z M376.1,13.5L376.1,13.5
	c1.7,0,3,1.3,3,3l0,0c0,1.7-1.3,3.1-3,3.1s-3.1-1.3-3.1-3S374.4,13.5,376.1,13.5L376.1,13.5L376.1,13.5z M376.1,105.2L376.1,105.2
	c1.7,0,3,1.4,3,3.1l0,0c0,1.7-1.4,3.1-3.1,3.1s-3.1-1.4-3.1-3.1C373.1,106.5,374.4,105.2,376.1,105.2L376.1,105.2L376.1,105.2z
	 M376.1,166.3L376.1,166.3c1.7,0,3,1.4,3,3.1l0,0c0,1.7-1.4,3.1-3.1,3.1s-3.1-1.4-3.1-3.1C373.1,167.6,374.4,166.3,376.1,166.3
	L376.1,166.3L376.1,166.3z M376.1,196.8L376.1,196.8c1.7,0,3,1.4,3,3.1l0,0c0,1.7-1.4,3.1-3.1,3.1s-3.1-1.4-3.1-3.1
	S374.4,196.8,376.1,196.8L376.1,196.8L376.1,196.8z M379.2,230.4c0,1.7-1.4,3.1-3.1,3.1s-3.1-1.4-3.1-3.1s1.4-3.1,3.1-3.1l0,0l0,0
	C377.8,227.4,379.2,228.7,379.2,230.4z M376.1,257.9L376.1,257.9c1.7,0,3,1.4,3,3.1l0,0c0,1.7-1.4,3.1-3.1,3.1s-3.1-1.4-3.1-3.1
	C373.1,259.3,374.4,257.9,376.1,257.9L376.1,257.9L376.1,257.9z M376.1,288.5c1.7,0,3.1,1.4,3.1,3.1l0,0c0,1.7-1.4,3.1-3.1,3.1
	s-3.1-1.4-3.1-3.1C373.1,289.8,374.5,288.5,376.1,288.5L376.1,288.5z M360.9,28.8L360.9,28.8c1.7,0,3,1.4,3,3.1s-1.4,3-3.1,3
	s-3-1.4-3-3c0-1.7,1.3-3,2.9-3.1C360.8,28.8,360.9,28.8,360.9,28.8z M357.9,61.8c0.3-1.7,1.9-2.8,3.5-2.5c1.2,0.2,2.2,1.2,2.5,2.5
	c0,0.2,0.1,0.4,0.1,0.6c-0.1,1.7-1.5,3-3.2,2.9c-1.6-0.1-2.8-1.3-2.9-2.9C357.9,62.2,357.9,62,357.9,61.8L357.9,61.8z M360.9,89.9
	L360.9,89.9c1.7,0,3,1.3,3,2.9c0,0,0,0,0,0.1l0,0c0,1.7-1.3,3.1-3,3.1s-3.1-1.3-3.1-3S359.2,89.9,360.9,89.9L360.9,89.9z M359.2,121
	c1.4-0.9,3.3-0.6,4.2,0.8l0,0c0.1,0.2,0.2,0.3,0.3,0.5c0.7,1.5,0.1,3.4-1.4,4.1c-1.5,0.7-3.4,0.1-4.1-1.4c0-0.1-0.1-0.2-0.1-0.3
	c-0.2-0.4-0.2-0.8-0.2-1.2C357.8,122.5,358.3,121.5,359.2,121L359.2,121z M360.9,151c1.7,0,3,1.3,3,2.9c0,0,0,0,0,0.1l0,0
	c0,1.7-1.3,3.1-3,3.1s-3.1-1.3-3.1-3C357.8,152.4,359.2,151,360.9,151L360.9,151L360.9,151z M363.9,184.6c0.1,1.7-1.2,3.1-2.9,3.2
	c-1.7,0.1-3.1-1.2-3.2-2.9c0-0.1,0-0.2,0-0.3c0-0.2,0-0.4,0.1-0.6c0.3-1.7,1.9-2.8,3.5-2.4c1.2,0.2,2.2,1.2,2.5,2.4
	C363.9,184.2,363.9,184.4,363.9,184.6z M360.9,212.1L360.9,212.1c1.7,0,3,1.4,3.1,3l0,0l0,0c0,1.7-1.4,3.1-3.1,3.1s-3.1-1.4-3.1-3.1
	S359.2,212.1,360.9,212.1L360.9,212.1z M363.9,245.7c0,0.4-0.1,0.8-0.2,1.2c-0.2,0.5-0.6,1-1.1,1.3c-1.4,0.9-3.3,0.6-4.3-0.8
	c-0.9-1.4-0.6-3.3,0.8-4.3s3.3-0.6,4.3,0.8l0,0C363.7,244.5,363.9,245.1,363.9,245.7z M360.9,273.2L360.9,273.2c1.7,0,3,1.3,3,2.9
	v0.1l0,0c0,1.7-1.4,3.1-3.1,3.1s-3.1-1.4-3.1-3.1S359.2,273.2,360.9,273.2L360.9,273.2L360.9,273.2z M345.6,13.5L345.6,13.5
	c1.7,0,3.1,1.4,3.1,3.1s-1.4,3.1-3.1,3.1s-3.1-1.4-3.1-3.1c0,0,0,0,0-0.1C342.5,14.8,343.9,13.5,345.6,13.5L345.6,13.5L345.6,13.5z
	 M345.6,105.2L345.6,105.2c1.7,0,3.1,1.4,3.1,3.1s-1.4,3.1-3.1,3.1s-3.1-1.4-3.1-3.1l0,0C342.5,106.5,343.9,105.2,345.6,105.2
	C345.6,105.1,345.6,105.1,345.6,105.2L345.6,105.2z M348.7,138.8c0,1.7-1.4,3.1-3.1,3.1s-3.1-1.4-3.1-3.1s1.4-3.1,3.1-3.1l0,0l0,0
	C347.3,135.7,348.7,137.1,348.7,138.8z M345.6,166.3L345.6,166.3c1.7,0,3.1,1.4,3.1,3.1c0,1.7-1.4,3.1-3.1,3.1s-3.1-1.4-3.1-3.1l0,0
	C342.5,167.6,343.9,166.3,345.6,166.3L345.6,166.3L345.6,166.3z M345.6,196.8L345.6,196.8c1.7,0,3.1,1.4,3.1,3.1
	c0,1.7-1.4,3.1-3.1,3.1s-3.1-1.4-3.1-3.1l0,0C342.5,198.2,343.9,196.8,345.6,196.8L345.6,196.8L345.6,196.8z M348.7,230.4
	c0,1.7-1.4,3.1-3.1,3.1s-3.1-1.4-3.1-3.1s1.4-3.1,3.1-3.1l0,0l0,0C347.3,227.4,348.7,228.7,348.7,230.4L348.7,230.4z M345.6,257.9
	L345.6,257.9c1.7,0,3.1,1.4,3.1,3.1s-1.4,3.1-3.1,3.1s-3.1-1.4-3.1-3.1l0,0C342.5,259.3,343.9,257.9,345.6,257.9L345.6,257.9
	L345.6,257.9z M345.6,288.5L345.6,288.5c1.7,0,3.1,1.4,3.1,3.1s-1.4,3.1-3.1,3.1s-3.1-1.4-3.1-3.1l0,0
	C342.5,289.8,343.9,288.5,345.6,288.5L345.6,288.5L345.6,288.5z M330.3,28.8L330.3,28.8c1.7,0,3,1.4,3,3.1s-1.4,3-3.1,3s-3-1.4-3-3
	c0-1.7,1.3-3,2.9-3.1C330.3,28.8,330.3,28.8,330.3,28.8L330.3,28.8z M333.3,62.4c0,1.7-1.3,3-3,3l0,0l0,0c-1.7,0-3-1.3-3-2.9
	c0,0,0,0,0-0.1c0-0.2,0-0.4,0.1-0.6c0.3-1.7,1.9-2.8,3.5-2.4c1.2,0.2,2.2,1.2,2.5,2.4C333.4,62,333.4,62.2,333.3,62.4L333.3,62.4z
	 M330.3,89.9L330.3,89.9c1.7,0,3,1.3,3,3l0,0c0,1.7-1.3,3.1-3,3.1s-3.1-1.3-3.1-3s1.3-3.1,3-3.1C330.3,89.9,330.3,89.9,330.3,89.9z
	 M333.3,123.5c0,1.7-1.3,3-3,3s-3-1.3-3-3c0-1.6,1.3-3,2.9-3C332,120.5,333.3,121.8,333.3,123.5L333.3,123.5z M330.3,151L330.3,151
	c1.7,0,3.1,1.4,3,3.1c0,1.7-1.4,3.1-3.1,3c-1.7,0-3-1.4-3-3.1C327.3,152.4,328.6,151,330.3,151L330.3,151L330.3,151z M330.3,212.1
	L330.3,212.1c1.7,0,3,1.3,3,3c0,0,0,0,0,0.1l0,0c0,1.7-1.4,3.1-3.1,3.1s-3.1-1.4-3.1-3.1C327.2,213.4,328.6,212.1,330.3,212.1
	L330.3,212.1z M333.3,245.7c0.2,1.6-1,3.1-2.7,3.3c-1.4,0.1-2.7-0.7-3.2-2.1c-0.2-0.4-0.2-0.8-0.2-1.2c0-1.7,1.4-3,3-3
	C332,242.7,333.3,244,333.3,245.7L333.3,245.7L333.3,245.7z M330.3,273.2L330.3,273.2c1.7,0,3,1.3,3,3c0,0,0,0,0,0.1l0,0
	c0,1.7-1.4,3.1-3.1,3.1s-3.1-1.4-3.1-3.1C327.2,274.5,328.6,273.2,330.3,273.2L330.3,273.2L330.3,273.2z M315,166.3L315,166.3
	c1.7,0,3.1,1.4,3.1,3.1c0,1.7-1.4,3.1-3.1,3.1s-3.1-1.4-3.1-3.1l0,0C312,167.6,313.3,166.3,315,166.3C315,166.2,315,166.2,315,166.3
	L315,166.3z M312,138.8c0-1.7,1.4-3.1,3-3.1l0,0c1.7,0,3,1.4,3,3.1l0,0c-0.1,1.7-1.5,3-3.2,2.9C313.3,141.6,312.1,140.3,312,138.8
	L312,138.8z M315,74.6L315,74.6c1.7,0,3.1,1.4,3.1,3.1c0,1.7-1.4,3.1-3.1,3.1s-3.1-1.4-3.1-3.1c0,0,0,0,0-0.1
	C312,75.9,313.4,74.6,315,74.6L315,74.6z M312,47.1c0-1.7,1.4-3,3.1-3l0,0c1.7,0,3.1,1.4,3.1,3.1s-1.4,3.1-3.1,3.1
	C313.4,50.2,312,48.8,312,47.1L312,47.1z M315,13.5L315,13.5c1.7,0,3,1.3,3,3l0,0c0,1.7-1.3,3.1-3,3.1s-3.1-1.3-3.1-3
	S313.3,13.5,315,13.5L315,13.5L315,13.5z M315,105.1L315,105.1c1.7,0,3,1.4,3,3.1l0,0c0,1.7-1.4,3.1-3.1,3.1s-3.1-1.4-3.1-3.1
	S313.3,105.1,315,105.1L315,105.1L315,105.1z M315,196.8L315,196.8c1.7,0,3,1.4,3,3.1l0,0c0,1.7-1.4,3.1-3.1,3.1s-3.1-1.4-3.1-3.1
	S313.3,196.8,315,196.8L315,196.8L315,196.8z M318.1,230.4c0,1.7-1.4,3.1-3.1,3.1s-3.1-1.4-3.1-3.1s1.4-3.1,3.1-3.1l0,0l0,0
	C316.7,227.3,318.1,228.7,318.1,230.4L318.1,230.4L318.1,230.4z M315,257.9L315,257.9c1.7,0,3,1.4,3,3.1l0,0c0,1.7-1.4,3.1-3.1,3.1
	s-3.1-1.4-3.1-3.1C312,259.3,313.3,257.9,315,257.9L315,257.9L315,257.9z M315,288.4c1.7,0,3.1,1.4,3.1,3.1l0,0
	c0,1.7-1.4,3.1-3.1,3.1s-3.1-1.4-3.1-3.1C312,289.8,313.4,288.4,315,288.4L315,288.4z M300.4,65.4c-0.2,0-0.4,0.1-0.6,0.1l0,0
	c-1.7,0-3-1.3-3.1-3c0-0.2,0-0.4,0.1-0.6c0.3-1.4,1.5-2.4,3-2.4c0.2,0,0.4,0,0.6,0.1c1.2,0.3,2.1,1.2,2.4,2.4c0,0.2,0.1,0.4,0.1,0.6
	C302.8,63.9,301.8,65.1,300.4,65.4z M298.6,29c0.4-0.2,0.8-0.2,1.2-0.2c0.2,0,0.4,0,0.6,0.1l0,0c1.7,0.3,2.8,1.9,2.5,3.6
	c-0.2,1.2-1.2,2.2-2.5,2.4c-0.2,0-0.4,0.1-0.6,0.1c-0.4,0-0.8-0.1-1.2-0.2c-1.6-0.6-2.3-2.3-1.8-3.9C297.1,30,297.8,29.3,298.6,29
	L298.6,29z M284.5,13.5L284.5,13.5c1.7,0,3.1,1.4,3.1,3.1s-1.4,3.1-3.1,3.1s-3.1-1.4-3.1-3.1c0,0,0,0,0-0.1
	C281.4,14.8,282.8,13.5,284.5,13.5L284.5,13.5L284.5,13.5z M284.5,105.2L284.5,105.2c1.7,0,3.1,1.4,3.1,3.1s-1.4,3.1-3.1,3.1
	s-3.1-1.4-3.1-3.1l0,0C281.4,106.5,282.8,105.2,284.5,105.2C284.5,105.1,284.5,105.1,284.5,105.2L284.5,105.2z M287.6,138.8
	c0,1.7-1.4,3.1-3.1,3.1s-3.1-1.4-3.1-3.1s1.4-3.1,3.1-3.1l0,0l0,0C286.2,135.7,287.6,137.1,287.6,138.8L287.6,138.8L287.6,138.8z
	 M284.5,166.3L284.5,166.3c1.7,0,3.1,1.4,3.1,3.1c0,1.7-1.4,3.1-3.1,3.1s-3.1-1.4-3.1-3.1l0,0C281.4,167.6,282.8,166.3,284.5,166.3
	L284.5,166.3L284.5,166.3z M284.5,196.8L284.5,196.8c1.7,0,3.1,1.4,3.1,3.1c0,1.7-1.4,3.1-3.1,3.1s-3.1-1.4-3.1-3.1l0,0
	C281.4,198.2,282.8,196.8,284.5,196.8L284.5,196.8L284.5,196.8z M287.6,230.4c0,1.7-1.4,3.1-3.1,3.1s-3.1-1.4-3.1-3.1
	s1.4-3.1,3.1-3.1l0,0l0,0C286.2,227.4,287.6,228.7,287.6,230.4L287.6,230.4L287.6,230.4z M284.5,257.9L284.5,257.9
	c1.7,0,3.1,1.4,3.1,3.1s-1.4,3.1-3.1,3.1s-3.1-1.4-3.1-3.1l0,0C281.4,259.3,282.8,257.9,284.5,257.9L284.5,257.9L284.5,257.9z
	 M269.2,65.4c-1.7,0-3-1.3-3-2.9c0,0,0,0,0-0.1c0-0.2,0-0.4,0-0.6c0.3-1.7,1.9-2.7,3.6-2.4c1.2,0.2,2.2,1.2,2.4,2.4
	c0,0.2,0.1,0.4,0.1,0.6C272.3,64.1,270.9,65.4,269.2,65.4C269.3,65.4,269.3,65.4,269.2,65.4z M269.2,28.8L269.2,28.8
	c1.7,0,3,1.4,3,3.1s-1.4,3-3.1,3c-1.7,0-3-1.4-3-3c0-1.7,1.3-3,2.9-3.1C269.2,28.8,269.2,28.8,269.2,28.8L269.2,28.8z M269.2,89.9
	L269.2,89.9c1.7,0,3,1.3,3,2.9c0,0,0,0,0,0.1l0,0c0,1.7-1.3,3.1-3,3.1s-3.1-1.3-3.1-3C266.1,91.3,267.5,89.9,269.2,89.9L269.2,89.9z
	 M272.3,184.6c0,1.7-1.4,3-3,3c-1.7,0-3.1-1.4-3.1-3l0,0c0-0.2,0-0.4,0-0.6c0.3-1.7,1.9-2.7,3.6-2.4c1.2,0.2,2.2,1.2,2.4,2.4
	C272.3,184.2,272.3,184.4,272.3,184.6z M272.3,123.5c0,1.7-1.3,3.1-3,3.1c-1.2,0-2.4-0.7-2.8-1.9c-0.2-0.4-0.2-0.8-0.2-1.2
	c0-1.7,1.4-3.1,3.1-3.1C270.9,120.4,272.3,121.8,272.3,123.5L272.3,123.5z M269.2,151L269.2,151c1.7,0,3,1.3,3,2.9c0,0,0,0,0,0.1
	l0,0c0,1.7-1.4,3.1-3.1,3.1c-1.7,0-3.1-1.4-3.1-3.1C266.2,152.3,267.5,150.9,269.2,151C269.2,150.9,269.2,150.9,269.2,151L269.2,151
	z M269.2,212.1L269.2,212.1c1.7,0,3,1.3,3,3c0,0,0,0,0,0.1l0,0c0,1.7-1.4,3.1-3.1,3.1c-1.7,0-3.1-1.4-3.1-3.1
	C266.1,213.4,267.5,212.1,269.2,212.1L269.2,212.1L269.2,212.1z M253.9,166.3L253.9,166.3c1.7,0,3,1.4,3,3.1l0,0
	c0,1.7-1.4,3.1-3.1,3.1s-3.1-1.4-3.1-3.1C250.8,167.6,252.2,166.3,253.9,166.3L253.9,166.3L253.9,166.3z M253.9,196.8L253.9,196.8
	c1.7,0,3,1.4,3,3.1l0,0c0,1.7-1.4,3.1-3.1,3.1s-3.1-1.4-3.1-3.1S252.2,196.8,253.9,196.8L253.9,196.8L253.9,196.8z M235.6,184
	c0.3-1.7,1.9-2.7,3.6-2.4c1.2,0.2,2.2,1.2,2.4,2.4c0,0.2,0.1,0.4,0.1,0.6c0.1,1.7-1.2,3.1-2.9,3.2c-1.7,0.1-3.1-1.2-3.2-2.9
	c0-0.1,0-0.2,0-0.3C235.6,184.4,235.6,184.2,235.6,184L235.6,184z M236.1,213.4c0.9-1.4,2.8-1.8,4.2-0.8c1.4,0.9,1.8,2.8,0.8,4.2
	c-0.6,0.8-1.5,1.3-2.5,1.3c-0.9,0-1.7-0.4-2.2-1c-0.3-0.7-0.6-1.4-0.8-2.1C235.6,214.5,235.8,213.9,236.1,213.4L236.1,213.4z"/>
<path class="st1" d="M423.6,3.9c3.9,7.6,8.4,15,13.4,22c15.2,21.5,35.2,39.2,58.3,51.7c0-1.7,1.3-3,3-3l0,0c1.6-0.2,3.1,1,3.3,2.7
	c0.1,1.1-0.4,2.2-1.4,2.8c12.7,6.4,26.3,11,40.3,13.6l0.8,0.1c-0.6-1.5,0.1-3.3,1.7-3.9c1-0.4,2.1-0.2,3,0.4c1.4,1,1.8,2.8,0.8,4.3
	l-0.1,0.1c17.9,2.8,36.3,3.7,53,10.8c28.7,12.3,47,40.8,73.5,57.1c38.2,23.6,96.6,13.9,117-26.1c11.2-21.9,9.9-47.9,8.3-72.5
	c-1.4-21.3-2.8-42.7-4.2-64H791c-1.5,1.2-3,2.3-4.5,3.4c-0.3-0.3-0.6-0.7-0.7-1c-0.2-0.4-0.2-0.8-0.2-1.2s0.1-0.8,0.2-1.2h-25
	c0.5,1.6-0.4,3.3-2,3.8s-3.3-0.4-3.8-2c-0.1-0.2-0.1-0.4-0.1-0.6c0-0.4,0.1-0.8,0.3-1.2h-25c0.7,1.6-0.1,3.3-1.6,4s-3.3-0.1-4-1.6
	l0,0c-0.2-0.4-0.2-0.8-0.2-1.2s0.1-0.8,0.3-1.2h-25c0.7,1.5,0,3.3-1.5,4h-0.1c-1.6,0.7-3.3-0.1-4-1.6C694,2,694,1.6,694,1.2
	s0.1-0.8,0.3-1.2h-25c0.7,1.6-0.1,3.3-1.6,4s-3.3-0.1-4-1.6l0,0c-0.2-0.4-0.2-0.8-0.2-1.2s0.1-0.8,0.3-1.2h-24.9
	c0.7,1.6-0.1,3.3-1.6,4s-3.3-0.1-4-1.6l0,0c-0.2-0.4-0.2-0.8-0.2-1.2s0.1-0.8,0.3-1.2h-25c0.1,0.2,0.1,0.4,0.2,0.6
	c0.4,1.6-0.6,3.2-2.3,3.6l0,0c-0.2,0-0.4,0.1-0.6,0.1c-1.7,0-3-1.3-3.1-2.9c0-0.5,0.1-0.9,0.3-1.3h-25c0.8,1.5,0.3,3.3-1.1,4.2
	c-1.5,0.8-3.3,0.3-4.2-1.1c-0.1-0.2-0.2-0.4-0.3-0.7c-0.2-0.4-0.2-0.8-0.2-1.2s0.1-0.8,0.2-1.2h-25c0.2,0.4,0.2,0.8,0.3,1.2
	c0,0.4-0.1,0.8-0.2,1.2c-0.1,0.2-0.2,0.4-0.3,0.5c-1,1.3-3,1.6-4.3,0.5c-1-0.8-1.4-2.2-1-3.4H517c0.7,1.6-0.1,3.3-1.6,4
	s-3.3-0.1-4-1.6l0,0c-0.2-0.4-0.2-0.8-0.2-1.2s0.1-0.8,0.3-1.2h-25.5c0.2,0.4,0.2,0.8,0.2,1.2s-0.1,0.8-0.2,1.2
	c-0.2,0.5-0.6,1-1.1,1.3c-1.4,0.9-3.3,0.6-4.3-0.8c-0.6-0.9-0.7-2-0.3-2.9h-25c0.2,0.4,0.2,0.8,0.3,1.2c0,1.7-1.4,3.1-3.1,3
	c-1,0-2-0.5-2.5-1.3c-0.6-0.9-0.7-2-0.3-2.9h-25C425.4,1.5,424.9,3.1,423.6,3.9z M617.5,77.7c0-1.7,1.4-3.1,3.1-3.1l0,0
	c1.7,0,3.1,1.4,3,3.1c0,1.7-1.4,3.1-3.1,3C618.9,80.7,617.5,79.3,617.5,77.7L617.5,77.7z M648,47.1c0-1.7,1.4-3.1,3.1-3.1
	s3.1,1.4,3.1,3.1s-1.4,3.1-3.1,3.1l0,0C649.4,50.1,648,48.8,648,47.1z M681.7,50.1c-1.7-0.1-3-1.5-2.9-3.2c0.1-1.6,1.3-2.8,2.9-2.9
	l0,0c1.7,0,3,1.4,3,3.1c0,1-0.5,1.9-1.3,2.5l-0.7,0.3C682.4,50.1,682,50.1,681.7,50.1L681.7,50.1z M663.7,60.9
	c0.4-0.7,1.2-1.3,2-1.5h0.3L663.7,60.9z M742.7,13.5L742.7,13.5c1.6,0,3,1.4,3,3l0,0c0,1.7-1.3,3.1-3,3.1s-3.1-1.3-3.1-3
	S740.9,13.5,742.7,13.5L742.7,13.5L742.7,13.5z M726.3,29c1-0.4,2-0.3,2.9,0.3c0.3,0.2,0.6,0.5,0.8,0.8c0.1,0.2,0.2,0.3,0.3,0.5
	l-5.7,2.1C724.1,31.2,724.9,29.6,726.3,29z M712.2,13.5L712.2,13.5c1.7,0,3,1.3,3,2.9c0,0,0,0,0,0.1l0,0c0,1.7-1.3,3.1-3,3.1
	s-3.1-1.3-3.1-3S710.5,13.5,712.2,13.5L712.2,13.5z M696.9,28.8L696.9,28.8c1.7,0,3.1,1.3,3.1,3s-1.3,3.1-3,3.1s-3.1-1.3-3.1-3l0,0
	C693.9,30.2,695.2,28.8,696.9,28.8L696.9,28.8z M681.7,13.5L681.7,13.5c1.7,0,3.1,1.4,3,3.1s-1.4,3.1-3.1,3c-1.7,0-3.1-1.4-3-3.1
	l0,0C678.6,14.8,679.9,13.5,681.7,13.5C681.6,13.5,681.6,13.5,681.7,13.5L681.7,13.5z M663.8,30.1c0.9-1.4,2.8-1.8,4.2-0.9
	c0,0,0.1,0,0.1,0.1l0,0c1.4,0.9,1.8,2.7,0.9,4.1c-0.2,0.4-0.5,0.7-0.9,0.9c-0.5,0.3-1.1,0.5-1.7,0.5c-1.7,0-3.1-1.4-3-3.1
	C663.3,31.2,663.5,30.6,663.8,30.1z M651.1,13.5c1.7,0,3,1.3,3,3l0,0c0,1.7-1.3,3.1-3,3.1s-3.1-1.3-3.1-3S649.3,13.5,651.1,13.5
	C651,13.5,651.1,13.5,651.1,13.5z M638.9,62.4c-0.1,1.7-1.5,3-3.2,2.9c-1.6-0.1-2.8-1.3-2.9-2.9c0-0.2,0-0.4,0.1-0.6
	c0.3-1.7,1.9-2.7,3.6-2.4c1.2,0.2,2.2,1.2,2.4,2.4C638.9,62,638.9,62.2,638.9,62.4L638.9,62.4z M635.8,28.8L635.8,28.8
	c1.7,0,3,1.3,3.1,2.9v0.1l0,0c0,1.7-1.4,3.1-3,3.1s-3.1-1.4-3.1-3C632.8,30.2,634.2,28.8,635.8,28.8
	C635.9,28.8,635.9,28.8,635.8,28.8L635.8,28.8z M620.6,50.2c-1.7,0-3.1-1.4-3.1-3.1s1.4-3.1,3.1-3.1c1.7,0,3.1,1.4,3.1,3.1
	c0,0,0,0,0,0.1C623.6,48.8,622.3,50.2,620.6,50.2L620.6,50.2z M620.6,13.5L620.6,13.5c1.7,0,3.1,1.4,3,3.1s-1.4,3.1-3.1,3
	c-1.7,0-3.1-1.4-3-3.1l0,0C617.5,14.8,618.8,13.5,620.6,13.5C620.5,13.5,620.5,13.5,620.6,13.5L620.6,13.5z M605.9,95.9
	c-0.2,0-0.4,0.1-0.6,0.1c-1.7-0.1-3-1.5-2.9-3.2c0.1-1.6,1.3-2.8,2.9-2.9c0.2,0,0.4,0,0.6,0.1c1.7,0.3,2.7,1.9,2.4,3.6
	C608.1,94.8,607.1,95.7,605.9,95.9L605.9,95.9z M605.9,65.4c-0.2,0-0.4,0.1-0.6,0.1c-0.4,0-0.8-0.1-1.2-0.2
	c-1.1-0.5-1.9-1.6-1.9-2.8c0-1.2,0.7-2.3,1.9-2.8c0.4-0.1,0.8-0.2,1.2-0.2c0.2,0,0.4,0,0.6,0.1c1.2,0.2,2.1,1.2,2.4,2.4
	c0,0.2,0.1,0.4,0.1,0.6C608.4,63.8,607.3,65.1,605.9,65.4z M605.3,28.8c0.2,0,0.4,0,0.6,0.1c1.7,0.3,2.8,1.9,2.5,3.6
	c-0.2,1.2-1.2,2.2-2.5,2.4c-0.2,0.1-0.4,0.1-0.6,0.1c-0.4,0-0.8-0.1-1.2-0.2l0,0c-1.6-0.7-2.3-2.5-1.6-4
	C603,29.5,604.1,28.8,605.3,28.8L605.3,28.8z M559.5,80.7c-1.7,0.1-3.1-1.2-3.2-2.9c-0.1-1.7,1.2-3.1,2.9-3.2c0.1,0,0.2,0,0.3,0l0,0
	c1.7,0.1,3,1.5,2.9,3.2C562.3,79.4,561,80.6,559.5,80.7z M559.5,50.2c-1.7,0.1-3.1-1.2-3.2-2.9c-0.1-1.7,1.2-3.1,2.9-3.2
	c0.1,0,0.2,0,0.3,0l0,0c1.7,0.1,3,1.5,2.9,3.2C562.3,48.8,561,50.1,559.5,50.2z M574.7,96c-1.7-0.1-3-1.5-2.9-3.2
	c0.1-1.6,1.3-2.8,2.9-2.9l0,0c1.7,0.1,3,1.5,2.9,3.2C577.5,94.7,576.3,95.9,574.7,96z M590,80.7c-1.7,0-3.1-1.3-3.1-3s1.3-3.1,3-3.1
	s3.1,1.3,3.1,3v0.1C593,79.4,591.7,80.7,590,80.7z M590,50.2c-1.7,0-3.1-1.3-3.1-3s1.3-3.1,3-3.1s3.1,1.3,3.1,3v0.1
	C593,48.8,591.7,50.1,590,50.2z M590,13.5c1.7,0,3,1.3,3,3l0,0c0,1.7-1.3,3.1-3,3.1s-3.1-1.3-3.1-3S588.2,13.5,590,13.5L590,13.5z
	 M574.7,28.8L574.7,28.8c1.7,0,3,1.4,3,3.1s-1.4,3-3.1,3c-1.7,0-3-1.4-3-3c0-1.7,1.3-3,2.9-3.1C574.7,28.8,574.7,28.8,574.7,28.8
	L574.7,28.8z M571.7,61.8c0.3-1.7,1.9-2.7,3.6-2.4c1.2,0.2,2.2,1.2,2.4,2.4c0,0.2,0.1,0.4,0.1,0.6l0,0c-0.1,1.7-1.5,3-3.2,2.9
	c-1.6-0.1-2.8-1.3-2.9-2.9C571.7,62.2,571.7,62,571.7,61.8L571.7,61.8z M559.4,13.5L559.4,13.5c1.7,0,3.1,1.4,3,3.1s-1.4,3.1-3.1,3
	c-1.7,0-3.1-1.4-3-3.1l0,0C556.4,14.8,557.7,13.5,559.4,13.5L559.4,13.5L559.4,13.5z M544.2,28.8c0.6,0,1.2,0.2,1.7,0.5
	c1.4,0.9,1.8,2.8,0.8,4.2c-0.9,1.4-2.8,1.8-4.2,0.8c-1.4-0.9-1.8-2.8-0.8-4.2C542.2,29.3,543.2,28.8,544.2,28.8z M541.2,61.8
	c0.3-1.7,1.9-2.8,3.5-2.5c1.2,0.2,2.2,1.2,2.5,2.5c0,0.2,0.1,0.4,0.1,0.6c-0.1,1.7-1.5,3-3.2,2.9c-1.6-0.1-2.8-1.3-2.9-2.9
	C541.1,62.2,541.1,62,541.2,61.8L541.2,61.8z M498.3,50.2c-1.7-0.1-3-1.5-2.9-3.2c0.1-1.6,1.3-2.8,2.9-2.9l0,0
	c1.7,0.1,3,1.5,2.9,3.2C501.1,48.9,499.9,50.1,498.3,50.2z M528.9,80.7c-1.7,0.1-3.1-1.2-3.2-2.9c-0.1-1.7,1.2-3.1,2.9-3.2
	c0.1,0,0.2,0,0.3,0l0,0c1.7,0.1,3,1.5,2.9,3.2C531.7,79.4,530.5,80.6,528.9,80.7z M528.9,50.2c-1.7,0.2-3.2-1-3.4-2.7s1-3.2,2.7-3.4
	c0.2,0,0.5,0,0.7,0l0,0c1.7,0.1,3,1.5,2.9,3.2C531.7,48.9,530.5,50.1,528.9,50.2L528.9,50.2z M528.9,13.5L528.9,13.5
	c1.7,0,3,1.3,3,3l0,0c0,1.7-1.3,3.1-3,3.1s-3.1-1.3-3.1-3S527.1,13.5,528.9,13.5L528.9,13.5z M513.6,28.8L513.6,28.8
	c1.7,0,3,1.4,3,3.1s-1.4,3-3.1,3c-1.7,0-3-1.4-3-3c0-1.7,1.3-3,2.9-3.1C513.6,28.8,513.6,28.8,513.6,28.8L513.6,28.8z M510.6,61.8
	c0.3-1.7,1.9-2.8,3.5-2.5c1.2,0.2,2.2,1.2,2.5,2.5c0,0.2,0.1,0.4,0.1,0.6c-0.1,1.7-1.5,3-3.2,2.9c-1.6-0.1-2.8-1.3-2.9-2.9
	C510.6,62.2,510.6,62,510.6,61.8L510.6,61.8z M498.4,13.5L498.4,13.5c1.7,0,3.1,1.4,3,3.1c0,1.7-1.4,3.1-3.1,3c-1.7,0-3.1-1.4-3-3.1
	l0,0C495.3,14.8,496.7,13.5,498.4,13.5L498.4,13.5z M483.1,28.8c1.7,0,3.1,1.4,3.1,3l0,0c0,1.7-1.4,3.1-3,3.1s-3.1-1.4-3.1-3
	C480,30.2,481.4,28.8,483.1,28.8L483.1,28.8z M480.1,61.8c0.3-1.7,1.9-2.7,3.6-2.4c1.2,0.2,2.2,1.2,2.4,2.4c0,0.2,0.1,0.4,0.1,0.6
	c-0.1,1.7-1.5,3-3.2,2.9c-1.6-0.1-2.8-1.3-2.9-2.9C480,62.2,480,62,480.1,61.8L480.1,61.8z M467.8,50.2c-1.7-0.1-3-1.5-2.9-3.2
	c0.1-1.6,1.3-2.8,2.9-2.9l0,0c1.7,0.1,3,1.5,2.9,3.2C470.6,48.9,469.4,50.1,467.8,50.2z M467.8,13.5L467.8,13.5
	c1.7,0,3.1,1.4,3.1,3.1s-1.4,3.1-3.1,3.1s-3.1-1.4-3.1-3.1c0,0,0,0,0-0.1C464.7,14.9,466.1,13.5,467.8,13.5L467.8,13.5L467.8,13.5z
	 M452.5,28.8L452.5,28.8c1.7,0,3,1.4,3,3.1s-1.4,3-3.1,3s-3-1.4-3-3c0-1.7,1.3-3,2.9-3.1C452.5,28.8,452.5,28.8,452.5,28.8
	L452.5,28.8z M437.2,13.5L437.2,13.5c1.7,0,3.1,1.4,3,3.1c0,1.7-1.4,3.1-3.1,3c-1.7,0-3.1-1.4-3-3.1l0,0
	C434.2,14.8,435.5,13.5,437.2,13.5L437.2,13.5L437.2,13.5z"/>
<path class="st2" d="M1597.8,30.4c-19.5-1.2-38.7-6.8-57.9-10.9c-28.3,30.3-47.2,70.1-54.9,111.2c-11.6,61.5-101.1,133.3-83,197.9
	c2.3,8.3,5.5,16.4,9.4,24.1c81.2,156.5,457.5,10.9,461.5-145.6c1.6-64.1-19.8-135.4-65.6-181.7c-9.4-9.4-19.7-17.9-30.8-25.3h-91.3
	C1660.8,20.4,1629.4,32.3,1597.8,30.4z"/>
<path class="st3" d="M785.8,2.5c0.2,0.4,0.4,0.8,0.7,1c1.5-1.1,3-2.3,4.5-3.4h-5.2c-0.2,0.4-0.2,0.8-0.2,1.2
	C785.5,1.7,785.6,2.1,785.8,2.5z"/>
<path class="st3" d="M755.2,2.5c0.6,1.5,2.4,2.3,3.9,1.7h0.1c1.5-0.6,2.3-2.4,1.6-3.9V0.2h-5.6c-0.2,0.4-0.3,0.8-0.3,1.2
	C755,1.7,755.1,2.1,755.2,2.5z"/>
<path class="st3" d="M724.7,2.5c0.7,1.6,2.4,2.3,4,1.6s2.3-2.4,1.6-4l0,0h-5.6c-0.2,0.4-0.2,0.8-0.3,1.2
	C724.4,1.7,724.5,2.1,724.7,2.5z"/>
<path class="st3" d="M742.8,19.6c1.7,0,3.1-1.4,3.1-3.1l0,0c0-1.6-1.4-3-3-3l0,0c-1.7-0.1-3.1,1.2-3.2,2.9c-0.1,1.7,1.2,3.1,2.9,3.2
	C742.6,19.7,742.7,19.7,742.8,19.6L742.8,19.6z"/>
<path class="st3" d="M730.3,30.6c-0.1-0.2-0.2-0.3-0.3-0.5c-0.2-0.3-0.5-0.6-0.8-0.8c-1.3-1-3.2-0.7-4.2,0.6
	c-0.6,0.8-0.7,1.8-0.4,2.8L730.3,30.6z"/>
<path class="st3" d="M694.1,2.5c0.7,1.6,2.4,2.3,4,1.6c1.5-0.6,2.3-2.4,1.6-3.9V0.1h-5.6c-0.2,0.4-0.2,0.8-0.2,1.2
	S694,2.1,694.1,2.5z"/>
<path class="st3" d="M663.6,2.5c0.7,1.6,2.4,2.3,4,1.6s2.3-2.4,1.6-4l0,0h-5.6c-0.2,0.4-0.2,0.8-0.3,1.2
	C663.3,1.7,663.4,2.1,663.6,2.5z"/>
<path class="st3" d="M696.9,34.9c1.7,0,3-1.4,3-3s-1.4-3.1-3-3.1l0,0c-1.7,0-3,1.4-3,3.1S695.2,34.9,696.9,34.9z"/>
<path class="st3" d="M684.7,47.1c0-1.7-1.3-3-2.9-3.1c0,0,0,0-0.1,0l0,0c-1.7-0.1-3.1,1.3-3.2,2.9c-0.1,1.7,1.3,3.1,2.9,3.2
	c0.4,0,0.8-0.1,1.2-0.2l0.7-0.3C684.2,49,684.7,48.1,684.7,47.1z"/>
<path class="st3" d="M681.7,19.6c1.7-0.1,3-1.5,2.9-3.2c-0.1-1.6-1.3-2.8-2.9-2.9l0,0c-1.7-0.1-3.1,1.2-3.2,2.9
	c-0.1,1.7,1.2,3.1,2.9,3.2C681.4,19.6,681.5,19.6,681.7,19.6z"/>
<path class="st3" d="M712.2,19.6c1.7,0,3-1.4,3-3.1l0,0c0-1.7-1.3-3-3-3c0,0,0,0-0.1,0l0,0c-1.7-0.1-3.1,1.2-3.2,2.9
	c-0.1,1.7,1.2,3.1,2.9,3.2C712,19.7,712.1,19.7,712.2,19.6L712.2,19.6z"/>
<path class="st3" d="M663.7,60.9l2.4-1.5h-0.3C664.9,59.5,664.2,60.1,663.7,60.9z"/>
<path class="st3" d="M666.4,34.9c0.6,0,1.2-0.2,1.7-0.5c1.4-0.9,1.8-2.7,0.9-4.1c-0.2-0.4-0.5-0.7-0.9-0.9l0,0
	c-1.4-0.9-3.3-0.6-4.2,0.8s-0.6,3.3,0.8,4.2C665.2,34.7,665.8,34.9,666.4,34.9z"/>
<path class="st3" d="M633,2.5c0.7,1.6,2.4,2.3,4,1.6s2.3-2.4,1.6-4l0,0H633c-0.2,0.4-0.3,0.8-0.3,1.2C632.8,1.7,632.9,2.1,633,2.5z"
	/>
<path class="st3" d="M602.5,2.5c0.5,1.1,1.6,1.9,2.8,1.9c0.2,0,0.4,0,0.6-0.1c1.6-0.3,2.7-1.9,2.4-3.5V0.7c0-0.2-0.1-0.4-0.2-0.6
	h-5.6C602.2,0.8,602.2,1.7,602.5,2.5z"/>
<path class="st3" d="M635.8,59.3c-1.5,0-2.7,1-3,2.4c0,0.2-0.1,0.4-0.1,0.6c0.1,1.7,1.5,3,3.2,2.9c1.6-0.1,2.8-1.3,2.9-2.9l0,0
	c0-0.2,0-0.4-0.1-0.6C638.5,60.3,637.3,59.3,635.8,59.3z"/>
<path class="st3" d="M635.8,34.9c1.7,0,3-1.3,3.1-2.9c0,0,0,0,0-0.1l0,0c0-1.7-1.3-3-2.9-3h-0.1l0,0c-1.7,0-3.1,1.4-3.1,3
	S634.2,34.9,635.8,34.9L635.8,34.9L635.8,34.9z"/>
<path class="st3" d="M620.6,44.1c-1.7,0-3.1,1.4-3.1,3.1s1.4,3.1,3.1,3.1c1.7,0,3.1-1.4,3.1-3.1c0,0,0,0,0-0.1
	C623.6,45.4,622.2,44.1,620.6,44.1z"/>
<path class="st3" d="M654.2,47.1c0-1.7-1.3-3.1-3-3.1s-3.1,1.3-3.1,3s1.3,3.1,3,3.1h0.1C652.8,50.1,654.1,48.7,654.2,47.1z"/>
<path class="st3" d="M620.6,19.6c1.7-0.1,3-1.5,2.9-3.2c-0.1-1.6-1.3-2.8-2.9-2.9l0,0c-1.7-0.1-3.1,1.2-3.2,2.9
	c-0.1,1.7,1.2,3.1,2.9,3.2C620.3,19.6,620.4,19.6,620.6,19.6z"/>
<path class="st3" d="M651.1,19.6c1.7,0,3-1.4,3-3.1l0,0c0-1.7-1.4-3.1-3.1-3.1c-1.7,0-3.1,1.4-3.1,3.1S649.4,19.6,651.1,19.6
	L651.1,19.6z"/>
<path class="st3" d="M623.6,77.7c0-1.7-1.3-3-2.9-3.1c0,0,0,0-0.1,0l0,0c-1.7,0-3.1,1.4-3.1,3c0,1.7,1.4,3.1,3,3.1
	C622.3,80.7,623.7,79.4,623.6,77.7C623.7,77.7,623.7,77.7,623.6,77.7L623.6,77.7z"/>
<path class="st3" d="M605.9,89.9c-0.2,0-0.4-0.1-0.6-0.1c-1.7,0.1-3,1.5-2.9,3.2c0.1,1.6,1.3,2.8,2.9,2.9c0.2,0,0.4,0,0.6-0.1
	c1.7-0.3,2.7-1.9,2.4-3.6C608.1,91.1,607.1,90.2,605.9,89.9L605.9,89.9z"/>
<path class="st3" d="M571.9,2.5c0.7,1.6,2.4,2.3,4,1.6s2.3-2.4,1.6-4l0,0h-5.6c-0.2,0.4-0.3,0.8-0.3,1.2
	C571.7,1.7,571.8,2.1,571.9,2.5z"/>
<path class="st3" d="M542.5,3.8c1.4,0.9,3.3,0.6,4.3-0.8c0.1-0.2,0.2-0.3,0.3-0.5c0.2-0.4,0.2-0.8,0.2-1.2s-0.1-0.8-0.3-1.2h-5.6
	C540.8,1.4,541.3,3,542.5,3.8z"/>
<path class="st3" d="M574.7,65.4c1.7,0,3-1.3,3.1-3l0,0c0-0.2,0-0.4-0.1-0.6c-0.3-1.7-1.9-2.7-3.6-2.4c-1.2,0.2-2.2,1.2-2.4,2.4
	c0,0.2-0.1,0.4-0.1,0.6C571.7,64.1,573.1,65.4,574.7,65.4z"/>
<path class="st3" d="M604.1,34.6L604.1,34.6c0.4,0.2,0.8,0.2,1.2,0.2c0.2,0,0.4,0,0.6-0.1c1.7-0.3,2.8-1.9,2.5-3.5
	c-0.2-1.2-1.2-2.2-2.5-2.5c-0.2,0-0.4-0.1-0.6-0.1c-1.7,0-3.1,1.4-3,3.1C602.2,33,603,34.1,604.1,34.6L604.1,34.6z"/>
<path class="st3" d="M574.7,34.9c1.7,0,3-1.4,3-3s-1.4-3.1-3-3.1l0,0c-1.7,0-3,1.4-3,3.1S573.1,34.9,574.7,34.9z"/>
<path class="st3" d="M559.5,44.1L559.5,44.1c-1.7,0-3.1,1.4-3.1,3c0,1.7,1.4,3.1,3,3.1c1.7,0,3.1-1.4,3.1-3v-0.1
	C562.5,45.4,561.1,44.1,559.5,44.1L559.5,44.1z"/>
<path class="st3" d="M590,44.1c-1.7,0-3.1,1.3-3.1,3s1.3,3.1,3,3.1s3.1-1.3,3.1-3c0,0,0,0,0-0.1C593,45.5,591.7,44.1,590,44.1z"/>
<path class="st3" d="M559.5,19.6c1.7-0.1,3-1.5,2.9-3.2c-0.1-1.6-1.3-2.8-2.9-2.9l0,0c-1.7-0.1-3.1,1.2-3.2,2.9
	c-0.1,1.7,1.2,3.1,2.9,3.2C559.2,19.6,559.3,19.6,559.5,19.6z"/>
<path class="st3" d="M590,19.6c1.7,0,3.1-1.4,3.1-3.1l0,0c0-1.7-1.4-3.1-3.1-3.1s-3.1,1.4-3.1,3.1S588.3,19.6,590,19.6L590,19.6z"/>
<path class="st3" d="M544.2,65.4c1.7,0,3-1.3,3-3l0,0c0-0.2,0-0.4-0.1-0.6c-0.3-1.7-1.9-2.8-3.5-2.5c-1.2,0.2-2.2,1.2-2.5,2.5
	c0,0.2-0.1,0.4-0.1,0.6C541.1,64.1,542.5,65.5,544.2,65.4L544.2,65.4z"/>
<path class="st3" d="M544.2,34.9c1.7,0,3.1-1.3,3.1-3c0-1-0.5-2-1.3-2.6c-0.5-0.3-1.1-0.5-1.7-0.5c-1.7,0-3,1.4-3,3.1
	S542.5,34.9,544.2,34.9L544.2,34.9L544.2,34.9z"/>
<path class="st3" d="M576.4,126c1.4-1,1.7-2.8,0.7-4.2s-2.8-1.7-4.2-0.7c-1.3,0.9-1.7,2.7-0.8,4.1C573.1,126.6,575,127,576.4,126
	C576.4,126.1,576.4,126,576.4,126z"/>
<path class="st3" d="M574.7,89.9L574.7,89.9c-1.7,0-3.1,1.4-3.1,3.1c0,1.7,1.4,3.1,3.1,3.1s3.1-1.4,3.1-3.1c0,0,0,0,0-0.1
	C577.8,91.2,576.4,89.9,574.7,89.9L574.7,89.9z"/>
<path class="st3" d="M559.5,111.3c1.7-0.1,3-1.5,2.9-3.2c-0.1-1.6-1.3-2.8-2.9-2.9l0,0c-1.7-0.1-3.1,1.2-3.2,2.9
	c-0.1,1.7,1.2,3.1,2.9,3.2C559.2,111.3,559.3,111.3,559.5,111.3z"/>
<path class="st3" d="M590,111.3c1.7,0,3-1.3,3.1-2.9v-0.1l0,0c0-1.7-1.4-3.1-3-3.1c-1.7,0-3.1,1.4-3.1,3
	C586.9,109.9,588.3,111.3,590,111.3L590,111.3z"/>
<path class="st3" d="M559.5,74.6L559.5,74.6c-1.7,0-3.1,1.4-3.1,3.1s1.4,3.1,3.1,3.1s3.1-1.4,3.1-3.1l0,0
	C562.5,76,561.2,74.6,559.5,74.6L559.5,74.6L559.5,74.6z"/>
<path class="st3" d="M590,74.6c-1.7,0-3.1,1.3-3.1,3s1.3,3.1,3,3.1s3.1-1.3,3.1-3c0,0,0,0,0-0.1C593,76,591.7,74.6,590,74.6z"/>
<path class="st3" d="M545.4,126.3c1.5-0.7,2.3-2.5,1.6-4c-0.1-0.2-0.2-0.3-0.3-0.5l0,0c-0.2-0.3-0.5-0.6-0.8-0.8
	c-1.4-0.9-3.3-0.6-4.2,0.8c-0.3,0.5-0.5,1.1-0.5,1.7c0,1.7,1.3,3,2.9,3.1C544.5,126.6,545,126.5,545.4,126.3L545.4,126.3z"/>
<path class="st3" d="M547.2,92.9c0-1-0.5-2-1.3-2.5c-1.4-1-3.3-0.6-4.3,0.8c-1,1.4-0.6,3.3,0.8,4.3c1.4,0.9,3.2,0.6,4.2-0.7l0.1-0.1
	C547.1,94.1,547.2,93.5,547.2,92.9z"/>
<path class="st3" d="M605.9,59.4c-0.2,0-0.4-0.1-0.6-0.1c-0.4,0-0.8,0.1-1.2,0.2c-1.1,0.5-1.9,1.6-1.9,2.8c0,1.2,0.7,2.3,1.9,2.8
	c0.4,0.2,0.8,0.2,1.2,0.2c0.2,0,0.4,0,0.6-0.1c1.4-0.3,2.4-1.5,2.4-3c0-0.2,0-0.4-0.1-0.6C608.1,60.6,607.1,59.6,605.9,59.4z"/>
<path class="st3" d="M574.7,181.5c-1.5,0-2.7,1-3,2.4c0,0.2-0.1,0.4-0.1,0.6c-0.1,1.7,1.2,3.1,2.9,3.2c1.7,0.1,3.1-1.2,3.2-2.9
	c0-0.1,0-0.2,0-0.3l0,0c0-0.2,0-0.4-0.1-0.6C577.4,182.6,576.2,181.5,574.7,181.5z"/>
<path class="st3" d="M574.7,157.1c1.7,0,3.1-1.4,3.1-3.1l0,0c0-1.6-1.4-3-3-3l0,0c-1.7-0.1-3.1,1.2-3.2,2.9
	c-0.1,1.7,1.2,3.1,2.9,3.2C574.6,157.1,574.7,157.1,574.7,157.1L574.7,157.1z"/>
<path class="st3" d="M559.5,172.4c1.7,0,3.1-1.4,3.1-3.1c0-1.7-1.4-3.1-3.1-3.1l0,0c-1.7,0-3.1,1.4-3.1,3.1S557.8,172.4,559.5,172.4
	z"/>
<path class="st3" d="M590,172.4c1.7,0,3.1-1.4,3.1-3.1l0,0c0-1.7-1.4-3.1-3.1-3.1s-3.1,1.4-3.1,3.1S588.3,172.4,590,172.4L590,172.4
	z"/>
<path class="st3" d="M559.4,135.7c-1.7,0-3.1,1.4-3.1,3.1c0,1.7,1.4,3.1,3.1,3.1s3.1-1.4,3.1-3.1l0,0
	C562.5,137.1,561.1,135.7,559.4,135.7z"/>
<path class="st3" d="M590,135.7c-1.7,0-3.1,1.3-3.1,3s1.3,3.1,3,3.1s3.1-1.3,3.1-3c0,0,0,0,0-0.1l0,0
	C593,137.1,591.7,135.7,590,135.7z"/>
<path class="st3" d="M544.2,187.6c1.7,0,3-1.3,3-3c0,0,0,0,0-0.1l0,0c0-0.2,0-0.4-0.1-0.6c-0.3-1.7-1.9-2.8-3.5-2.5
	c-1.2,0.2-2.2,1.2-2.5,2.5c0,0.2-0.1,0.4-0.1,0.6C541.1,186.3,542.4,187.7,544.2,187.6L544.2,187.6z"/>
<path class="st3" d="M542.5,156.6c1.4,0.9,3.3,0.6,4.2-0.8l0,0c0.3-0.5,0.5-1.1,0.5-1.7c0-1.7-1.4-3.1-3.1-3.1
	c-1.7,0-3.1,1.4-3.1,3.1C541.1,155.1,541.6,156,542.5,156.6L542.5,156.6z"/>
<path class="st3" d="M604.1,126.3L604.1,126.3c0.4,0.2,0.8,0.2,1.2,0.2c0.2,0,0.4,0,0.6-0.1l0.1-0.1c0.4-0.9,0.8-1.8,1.2-2.7
	c0.3-0.6,0.5-1.1,0.8-1.7c-0.4-0.8-1.2-1.3-2.1-1.5c-0.2,0-0.4-0.1-0.6-0.1c-1.7,0-3,1.3-3,2.9v0.1l0,0
	C602.2,124.7,602.9,125.8,604.1,126.3z"/>
<path class="st3" d="M573,243.2c-1.4,0.9-1.8,2.8-0.8,4.2c0.9,1.4,2.8,1.8,4.2,0.8c1.2-0.8,1.7-2.4,1.1-3.7
	c-0.1-0.2-0.2-0.3-0.3-0.5l0,0C576.3,242.6,574.4,242.2,573,243.2z"/>
<path class="st3" d="M574.7,218.2c1.7,0,3.1-1.4,3.1-3.1l0,0c0-1.7-1.3-3-3-3.1l0,0c-1.7,0-3.1,1.4-3.1,3.1S573.1,218.2,574.7,218.2
	C574.8,218.2,574.8,218.2,574.7,218.2L574.7,218.2z"/>
<path class="st3" d="M559.4,227.4c-1.7,0-3.1,1.4-3.1,3.1s1.4,3.1,3.1,3.1s3.1-1.4,3.1-3.1l0,0C562.5,228.7,561.1,227.4,559.4,227.4
	z"/>
<path class="st3" d="M586.9,230.4c0,0.7,0.3,1.4,0.7,2c0.3-1.5,0.6-3.1,0.8-4.6C587.5,228.3,586.9,229.3,586.9,230.4z"/>
<path class="st3" d="M559.5,202.9c1.7,0,3.1-1.4,3.1-3.1c0-1.7-1.4-3.1-3.1-3.1l0,0c-1.7,0-3.1,1.4-3.1,3.1
	C556.4,201.6,557.8,202.9,559.5,202.9z"/>
<path class="st3" d="M590,202.9c0.6,0,1.2-0.2,1.7-0.5c0.2-1.5,0.3-3.1,0.5-4.6c-1.2-1.2-3.1-1.3-4.3-0.1s-1.3,3.1-0.1,4.3
	C588.4,202.6,589.2,202.9,590,202.9L590,202.9z"/>
<path class="st3" d="M545.9,243.2c-1.4-1-3.3-0.6-4.3,0.8s-0.6,3.3,0.8,4.3c1.4,1,3.3,0.6,4.3-0.8l0,0c0.1-0.2,0.2-0.3,0.3-0.5
	c0.4-1,0.3-2-0.3-2.9C546.5,243.7,546.2,243.4,545.9,243.2z"/>
<path class="st3" d="M545.9,212.6c-0.5-0.3-1.1-0.5-1.7-0.5c-1.7,0-3.1,1.4-3.1,3c0,1.7,1.4,3.1,3,3.1c1.7,0,3.1-1.4,3.1-3
	C547.3,214.1,546.8,213.2,545.9,212.6z"/>
<path class="st3" d="M574.5,273.2c-1.6,0.1-2.9,1.4-2.9,3c0,0.5,0.2,1,0.4,1.5C572.9,276.3,573.8,274.7,574.5,273.2z"/>
<path class="st3" d="M559.5,288.5c-1.7-0.1-3.1,1.2-3.2,2.9s1.2,3.1,2.9,3.2c0.1,0,0.2,0,0.3,0h0.2c1-1,1.9-2.1,2.8-3.1
	C562.5,289.8,561.1,288.4,559.5,288.5L559.5,288.5z"/>
<path class="st3" d="M559.5,264c1.7-0.1,3-1.5,2.9-3.2c-0.1-1.6-1.3-2.8-2.9-2.9l0,0c-1.7-0.1-3.1,1.2-3.2,2.9s1.2,3.1,2.9,3.2
	C559.2,264,559.3,264,559.5,264z"/>
<path class="st3" d="M543.6,303.8c-1.2,0.3-2.1,1.2-2.4,2.4c0,0.2-0.1,0.4-0.1,0.6c0,0.6,0.2,1.3,0.6,1.8c1.8-1,3.5-2.1,5.2-3.2
	C546.3,304.2,544.9,303.5,543.6,303.8z"/>
<path class="st3" d="M542.5,278.8c1.4,0.9,3.3,0.6,4.3-0.8c0.3-0.5,0.5-1.1,0.5-1.7c0-1.7-1.4-3.1-3.1-3.1c-1.7,0-3.1,1.4-3.1,3.1
	C541.1,277.2,541.6,278.2,542.5,278.8z"/>
<path class="st3" d="M510.8,2.5c0.7,1.6,2.4,2.3,4,1.6c1.6-0.7,2.3-2.4,1.6-4l0,0h-5.6c-0.2,0.4-0.3,0.8-0.3,1.2
	C510.6,1.7,510.7,2.1,510.8,2.5z"/>
<path class="st3" d="M480.5,3c0.9,1.4,2.8,1.8,4.3,0.8c0.5-0.3,0.9-0.8,1.1-1.3c0.2-0.4,0.2-0.8,0.2-1.2s-0.1-0.8-0.2-1.2h-5.6
	C479.9,1,480,2.1,480.5,3z"/>
<path class="st3" d="M513.6,65.4c1.7,0,3-1.3,3.1-3c0-0.2,0-0.4-0.1-0.6c-0.3-1.7-1.9-2.8-3.5-2.5c-1.2,0.2-2.2,1.2-2.5,2.5
	c0,0.2-0.1,0.4-0.1,0.6C510.6,64.1,511.9,65.4,513.6,65.4L513.6,65.4z"/>
<path class="st3" d="M513.6,34.9c1.7,0,3-1.4,3-3s-1.4-3.1-3-3.1l0,0c-1.7,0-3,1.4-3,3.1S511.9,34.9,513.6,34.9z"/>
<path class="st3" d="M498.4,44.1L498.4,44.1c-1.7,0-3.1,1.4-3.1,3.1s1.4,3.1,3.1,3.1s3.1-1.4,3.1-3.1c0,0,0,0,0-0.1
	C501.4,45.4,500.1,44.1,498.4,44.1L498.4,44.1L498.4,44.1z"/>
<path class="st3" d="M528.9,44.1L528.9,44.1c-1.7,0-3.1,1.3-3.1,3s1.3,3.1,3,3.1s3.1-1.3,3.1-3v-0.1
	C531.9,45.4,530.6,44.1,528.9,44.1z"/>
<path class="st3" d="M498.4,19.6c1.7,0.1,3.1-1.2,3.2-2.9c0.1-1.7-1.2-3.1-2.9-3.2c-0.1,0-0.2,0-0.3,0l0,0c-1.7-0.1-3.1,1.2-3.2,2.9
	c-0.1,1.7,1.2,3.1,2.9,3.2C498.1,19.6,498.2,19.6,498.4,19.6z"/>
<path class="st3" d="M528.9,19.6c1.7,0,3-1.4,3-3.1l0,0c0-1.7-1.3-3-3-3l0,0c-1.7,0.1-3,1.5-2.9,3.2
	C526.1,18.3,527.4,19.6,528.9,19.6L528.9,19.6z"/>
<path class="st3" d="M483.1,65.4c1.7,0,3-1.3,3-3l0,0c0-0.2,0-0.4-0.1-0.6c-0.3-1.7-1.9-2.7-3.6-2.4c-1.2,0.2-2.2,1.2-2.4,2.4
	c0,0.2-0.1,0.4-0.1,0.6C480,64.1,481.4,65.5,483.1,65.4L483.1,65.4z"/>
<path class="st3" d="M483.1,34.9c1.7,0,3-1.3,3.1-3l0,0c0-1.7-1.3-3.1-3-3.1s-3.1,1.3-3.1,3C480,33.4,481.3,34.8,483.1,34.9
	C483,34.9,483.1,34.9,483.1,34.9z"/>
<path class="st3" d="M513.6,120.4c-1.7,0-3,1.4-3,3.1c0,1.7,1.4,3,3.1,3c1.2,0,2.3-0.7,2.8-1.9c0.2-0.4,0.2-0.8,0.3-1.2
	C516.7,121.8,515.3,120.4,513.6,120.4z"/>
<path class="st3" d="M513.6,96c1.7-0.1,3-1.5,2.9-3.2c-0.1-1.6-1.3-2.8-2.9-2.9l0,0c-1.7,0.1-3,1.5-2.9,3.2
	C510.8,94.7,512.1,95.9,513.6,96z"/>
<path class="st3" d="M498.4,111.3c1.7,0,3.1-1.4,3.1-3.1c0-1.7-1.4-3.1-3.1-3.1s-3.1,1.4-3.1,3.1l0,0c0,1.7,1.3,3,2.9,3.1
	C498.3,111.3,498.3,111.3,498.4,111.3z"/>
<path class="st3" d="M528.9,111.3c1.7,0,3-1.3,3.1-2.9v-0.1l0,0c0-1.7-1.3-3-3-3.1l0,0c-1.7,0.1-3,1.5-2.9,3.2
	C526.2,109.9,527.4,111.2,528.9,111.3L528.9,111.3z"/>
<path class="st3" d="M501.4,77.7c0-1.7-1.4-3.1-3-3.1l0,0c-1.7,0-3,1.3-3,3v0.1c0,1.7,1.3,3,3,3c0,0,0,0,0.1,0
	c0.7,0,1.3-0.2,1.8-0.6C501,79.5,501.4,78.6,501.4,77.7z"/>
<path class="st3" d="M528.9,74.6L528.9,74.6c-1.7,0-3.1,1.3-3.1,3s1.3,3.1,3,3.1s3.1-1.3,3.1-3c0,0,0,0,0-0.1
	C531.9,76,530.6,74.6,528.9,74.6z"/>
<path class="st3" d="M483.1,96c1.7,0,3-1.3,3-3l0,0c0-1.7-1.4-3.1-3.1-3.1s-3.1,1.4-3.1,3.1C480,94.7,481.3,96.1,483.1,96
	C483,96.1,483.1,96.1,483.1,96L483.1,96z"/>
<path class="st3" d="M513.6,187.6c1.7,0,3.1-1.4,3.1-3.1c0-0.2,0-0.4-0.1-0.6c-0.3-1.7-1.9-2.8-3.5-2.4c-1.2,0.2-2.2,1.2-2.5,2.4
	c0,0.2-0.1,0.4-0.1,0.6C510.6,186.3,511.9,187.6,513.6,187.6L513.6,187.6z"/>
<path class="st3" d="M513.6,157.1c1.7,0,3.1-1.4,3.1-3c0-1.7-1.4-3.1-3-3.1c-1.7,0-3.1,1.4-3.1,3l0,0l0,0
	C510.6,155.7,511.9,157.1,513.6,157.1L513.6,157.1z"/>
<path class="st3" d="M498.4,172.4c1.7,0,3.1-1.4,3.1-3.1c0-1.7-1.4-3.1-3.1-3.1l0,0c-1.7,0-3.1,1.4-3.1,3.1S496.7,172.4,498.4,172.4
	L498.4,172.4z"/>
<path class="st3" d="M528.9,172.4L528.9,172.4c1.7,0,3.1-1.4,3.1-3.1c0-1.7-1.4-3.1-3.1-3.1s-3.1,1.4-3.1,3.1l0,0
	C525.9,171,527.2,172.4,528.9,172.4z"/>
<path class="st3" d="M498.4,135.7L498.4,135.7c-1.7,0-3.1,1.4-3.1,3.1c0,1.7,1.4,3.1,3.1,3.1s3.1-1.4,3.1-3.1l0,0
	C501.4,137.1,500.1,135.7,498.4,135.7L498.4,135.7L498.4,135.7z"/>
<path class="st3" d="M528.9,135.7c-1.7,0-3.1,1.3-3.1,3s1.3,3.1,3,3.1s3.1-1.3,3.1-3c0,0,0,0,0-0.1l0,0
	C531.9,137.1,530.6,135.7,528.9,135.7z"/>
<path class="st3" d="M516.2,244c-0.9-1.4-2.8-1.8-4.2-0.8s-1.8,2.8-0.8,4.2c0.9,1.4,2.8,1.8,4.2,0.8c1.2-0.8,1.7-2.4,1.1-3.7
	C516.4,244.3,516.3,244.1,516.2,244z"/>
<path class="st3" d="M513.6,218.2c1.7,0,3.1-1.4,3.1-3.1l0,0c0-1.7-1.3-3-3-3.1l0,0c-1.7,0-3.1,1.4-3.1,3.1
	C510.6,216.8,512,218.2,513.6,218.2L513.6,218.2z"/>
<path class="st3" d="M498.4,227.4c-1.7,0-3.1,1.4-3.1,3.1s1.4,3.1,3.1,3.1s3.1-1.4,3.1-3.1l0,0c0-1.7-1.3-3-2.9-3.1
	C498.4,227.4,498.4,227.4,498.4,227.4z"/>
<path class="st3" d="M528.9,227.4c-1.7,0-3.1,1.3-3.1,3s1.3,3.1,3,3.1s3.1-1.3,3.1-3c0,0,0,0,0-0.1
	C531.9,228.8,530.6,227.4,528.9,227.4z"/>
<path class="st3" d="M498.4,202.9c1.7,0,3.1-1.4,3.1-3.1c0-1.7-1.4-3.1-3.1-3.1l0,0c-1.7,0-3.1,1.4-3.1,3.1
	C495.3,201.6,496.7,202.9,498.4,202.9z"/>
<path class="st3" d="M528.9,202.9c1.7,0,3.1-1.4,3.1-3.1l0,0c0-1.7-1.3-3-3-3.1l0,0c-1.7,0-3.1,1.4-3.1,3.1
	C525.9,201.6,527.3,202.9,528.9,202.9L528.9,202.9z"/>
<path class="st3" d="M483.1,218.2c1.7,0,3-1.4,3-3.1l0,0c0-1.7-1.4-3.1-3.1-3.1s-3.1,1.4-3.1,3.1C480,216.8,481.3,218.2,483.1,218.2
	C483,218.2,483.1,218.2,483.1,218.2z"/>
<path class="st3" d="M516.7,306.8c0-0.2,0-0.4-0.1-0.6c-0.3-1.7-1.9-2.8-3.5-2.5c-1.2,0.2-2.2,1.2-2.5,2.5c0,0.2-0.1,0.4-0.1,0.6
	c-0.1,1.7,1.2,3.1,2.9,3.2c1.7,0.1,3.1-1.2,3.2-2.9C516.7,307,516.7,306.9,516.7,306.8L516.7,306.8z"/>
<path class="st3" d="M513.6,279.3c1.7,0,3.1-1.4,3.1-3.1l0,0c0-1.7-1.3-3-3-3l0,0c-1.7-0.1-3.1,1.2-3.2,2.9s1.2,3.1,2.9,3.2
	C513.5,279.3,513.6,279.3,513.6,279.3L513.6,279.3z"/>
<path class="st3" d="M498.4,294.6c1.7-0.1,3-1.5,2.9-3.2c-0.1-1.6-1.3-2.8-2.9-2.9l0,0c-1.7-0.1-3.1,1.2-3.2,2.9s1.2,3.1,2.9,3.2
	C498.1,294.6,498.2,294.6,498.4,294.6z"/>
<path class="st3" d="M528.9,294.6c1.7,0,3.1-1.4,3.1-3l0,0l0,0c0-1.7-1.4-3.1-3-3.1c-1.7,0-3.1,1.4-3.1,3
	C525.9,293.2,527.2,294.6,528.9,294.6L528.9,294.6z"/>
<path class="st3" d="M498.4,264c1.7-0.1,3-1.5,2.9-3.2c-0.1-1.6-1.3-2.8-2.9-2.9l0,0c-1.7-0.1-3.1,1.2-3.2,2.9s1.2,3.1,2.9,3.2
	C498.1,264,498.2,264,498.4,264z"/>
<path class="st3" d="M528.9,264c1.7,0,3.1-1.4,3.1-3l0,0l0,0c0-1.7-1.3-3-3-3.1l0,0c-1.7-0.1-3.1,1.2-3.2,2.9s1.2,3.1,2.9,3.2H528.9
	L528.9,264z"/>
<path class="st3" d="M498.4,319L498.4,319c-1.7,0-3,1.4-3.1,3l0,0c0,0.5,0.1,1,0.4,1.4c1.9-0.3,3.8-0.7,5.7-1c0-0.1,0-0.3,0-0.4
	C501.4,320.4,500.1,319,498.4,319L498.4,319z"/>
<path class="st3" d="M450,3c1,1.4,2.9,1.8,4.3,0.8c0.8-0.6,1.3-1.5,1.3-2.5c0-0.4-0.1-0.8-0.3-1.2h-5.6C449.3,1,449.4,2.1,450,3z"/>
<path class="st3" d="M420.3,3.8c0.2,0.1,0.3,0.2,0.5,0.3c1.5,0.7,3.3,0.1,4-1.4c0.4-0.8,0.4-1.8,0-2.6h-5.6
	C418.6,1.4,419.1,3,420.3,3.8z"/>
<path class="st3" d="M452.5,65.4c1.7,0,3-1.3,3.1-3c0-0.2,0-0.4-0.1-0.6c-0.3-1.7-1.9-2.8-3.5-2.5c-1.2,0.2-2.2,1.2-2.5,2.5
	c0,0.2-0.1,0.4-0.1,0.6C449.5,64.1,450.8,65.4,452.5,65.4L452.5,65.4z"/>
<path class="st3" d="M452.5,34.9c1.7,0,3-1.4,3-3s-1.4-3.1-3-3.1l0,0c-1.7,0-3,1.4-3,3.1S450.8,34.9,452.5,34.9z"/>
<path class="st3" d="M437.3,50.2c1.7-0.1,3-1.5,2.9-3.2c-0.1-1.6-1.3-2.8-2.9-2.9l0,0c-1.7,0.1-3,1.5-2.9,3.2
	C434.5,48.8,435.7,50.1,437.3,50.2z"/>
<path class="st3" d="M467.8,44.1L467.8,44.1c-1.7,0-3.1,1.4-3.1,3.1s1.4,3.1,3.1,3.1s3.1-1.4,3.1-3.1c0,0,0,0,0-0.1
	C470.8,45.4,469.5,44.1,467.8,44.1L467.8,44.1z"/>
<path class="st3" d="M437.3,19.6c1.7-0.1,3-1.5,2.9-3.2c-0.1-1.6-1.3-2.8-2.9-2.9l0,0c-1.7,0.1-3,1.5-2.9,3.2
	C434.5,18.3,435.7,19.5,437.3,19.6z"/>
<path class="st3" d="M467.8,19.6c1.7-0.1,3-1.5,2.9-3.2c-0.1-1.6-1.3-2.8-2.9-2.9l0,0c-1.7,0.1-3,1.5-2.9,3.2
	C465,18.3,466.3,19.5,467.8,19.6z"/>
<path class="st3" d="M422,59.3c-1.5,0-2.7,1-3,2.4c0,0.2-0.1,0.4-0.1,0.6c0,1.2,0.7,2.3,1.9,2.8c0.4,0.2,0.8,0.2,1.2,0.2
	c1.7,0,3-1.3,3-2.9c0,0,0,0,0-0.1l0,0c0-0.2,0-0.4-0.1-0.6C424.7,60.4,423.4,59.3,422,59.3z"/>
<path class="st3" d="M420.3,34.4c1.4,0.9,3.3,0.6,4.2-0.8c0.3-0.5,0.5-1.1,0.5-1.7c0-1-0.5-2-1.3-2.5c-1.4-1-3.3-0.7-4.3,0.6
	c-1,1.4-0.7,3.3,0.6,4.3C420.1,34.3,420.2,34.3,420.3,34.4z"/>
<path class="st3" d="M453.7,126.3c0.7-0.3,1.3-0.9,1.6-1.6c0.2-0.4,0.2-0.8,0.2-1.2c0.1-1.7-1.2-3.1-2.9-3.2
	c-1.7-0.1-3.1,1.2-3.2,2.9c0,0.1,0,0.2,0,0.3c0,0.4,0.1,0.8,0.2,1.2C450.4,126.2,452.2,127,453.7,126.3L453.7,126.3z"/>
<path class="st3" d="M452.5,96c1.7,0.1,3.1-1.2,3.2-2.9s-1.2-3.1-2.9-3.2c-0.1,0-0.2,0-0.3,0l0,0c-1.7,0.1-3,1.5-2.9,3.2
	C449.7,94.7,451,95.9,452.5,96z"/>
<path class="st3" d="M437.3,111.3c1.7-0.1,3-1.5,2.9-3.2c-0.1-1.6-1.3-2.8-2.9-2.9l0,0c-1.7,0.1-3,1.5-2.9,3.2
	C434.5,109.9,435.7,111.2,437.3,111.3z"/>
<path class="st3" d="M467.8,111.3c1.7-0.1,3-1.5,2.9-3.2c-0.1-1.6-1.3-2.8-2.9-2.9l0,0c-1.7,0.1-3,1.5-2.9,3.2
	C465,109.9,466.3,111.2,467.8,111.3z"/>
<path class="st3" d="M437.3,80.7c1.7-0.1,3-1.5,2.9-3.2c-0.1-1.6-1.3-2.8-2.9-2.9l0,0c-1.7,0.1-3,1.5-2.9,3.2
	C434.5,79.4,435.7,80.6,437.3,80.7z"/>
<path class="st3" d="M467.8,80.7c1.7-0.1,3-1.5,2.9-3.2c-0.1-1.6-1.3-2.8-2.9-2.9l0,0c-1.7,0.1-3,1.5-2.9,3.2
	C465,79.4,466.3,80.6,467.8,80.7z"/>
<path class="st3" d="M423.7,126c1.4-0.9,1.8-2.8,0.9-4.1c0,0,0-0.1-0.1-0.1c-0.9-1.4-2.8-1.8-4.2-0.8c-1.4,0.9-1.8,2.8-0.8,4.2
	C420.4,126.6,422.3,127,423.7,126L423.7,126z"/>
<path class="st3" d="M420.3,95.5c1.4,0.9,3.3,0.6,4.3-0.8c0.3-0.5,0.5-1.1,0.5-1.7c0-1.7-1.4-3.1-3.1-3.1s-3.1,1.4-3.1,3.1
	C418.9,94,419.4,94.9,420.3,95.5z"/>
<path class="st3" d="M452.5,181.5c-1.5,0-2.7,1-3,2.4c0,0.2-0.1,0.4-0.1,0.6c-0.1,1.7,1.2,3.1,2.9,3.2c1.7,0.1,3.1-1.2,3.2-2.9
	c0-0.1,0-0.2,0-0.3c0-0.2,0-0.4-0.1-0.6C455.2,182.6,454,181.5,452.5,181.5z"/>
<path class="st3" d="M483.1,151c-1.7,0-3.1,1.4-3.1,3.1c0,1.7,1.4,3.1,3.1,3.1s3.1-1.4,3.1-3.1c0,0,0,0,0-0.1
	C486.1,152.3,484.8,151,483.1,151L483.1,151z"/>
<path class="st3" d="M452.5,157.1c1.7,0,3-1.3,3.1-3l0,0c0-1.7-1.4-3-3-3l0,0c-1.7-0.1-3.1,1.2-3.2,2.9s1.2,3.1,2.9,3.2
	C452.4,157.2,452.5,157.2,452.5,157.1L452.5,157.1z"/>
<path class="st3" d="M437.3,172.4c1.7,0,3.1-1.4,3.1-3.1c0-1.7-1.4-3.1-3.1-3.1l0,0c-1.7,0-3.1,1.4-3.1,3.1S435.6,172.4,437.3,172.4
	z"/>
<path class="st3" d="M467.8,172.4c1.7,0,3.1-1.4,3.1-3.1c0-1.7-1.4-3.1-3.1-3.1l0,0c-1.7,0-3.1,1.4-3.1,3.1
	C464.8,171,466.1,172.4,467.8,172.4z"/>
<path class="st3" d="M437.2,135.7c-1.7,0-3.1,1.4-3.1,3.1c0,1.7,1.4,3.1,3.1,3.1s3.1-1.4,3.1-3.1l0,0
	C440.3,137.1,438.9,135.7,437.2,135.7z"/>
<path class="st3" d="M467.8,135.7c-1.7,0-3.1,1.4-3.1,3.1c0,1.7,1.4,3.1,3.1,3.1s3.1-1.4,3.1-3.1l0,0
	C470.9,137.1,469.5,135.7,467.8,135.7z"/>
<path class="st3" d="M421.4,181.6c-1.2,0.2-2.1,1.2-2.4,2.4c0,0.2-0.1,0.4-0.1,0.6c-0.1,1.7,1.2,3.1,2.9,3.2
	c1.7,0.1,3.1-1.2,3.2-2.9c0-0.1,0-0.2,0-0.3c0-0.2,0-0.4-0.1-0.6C424.6,182.4,423,181.3,421.4,181.6L421.4,181.6z"/>
<path class="st3" d="M424.8,152.8c-0.2-0.5-0.6-1-1.1-1.3l0,0c-1.4-0.9-3.3-0.6-4.2,0.8s-0.6,3.3,0.8,4.2s3.3,0.6,4.2-0.8
	C425.1,154.9,425.2,153.8,424.8,152.8z"/>
<path class="st3" d="M483.1,126.5c1.7,0,3.1-1.4,3.1-3c0-1.7-1.4-3.1-3-3.1s-3.1,1.4-3.1,3l0,0c0,0.4,0.1,0.8,0.2,1.2
	C480.7,125.8,481.9,126.5,483.1,126.5z"/>
<path class="st3" d="M450.8,243.2c-1.4,0.9-1.8,2.8-0.8,4.2c0.9,1.4,2.8,1.8,4.2,0.8c1.4-0.9,1.8-2.8,0.8-4.2l0,0
	C454.1,242.6,452.2,242.2,450.8,243.2z"/>
<path class="st3" d="M452.5,218.2c1.7,0,3.1-1.4,3.1-3.1l0,0c0-1.7-1.4-3.1-3-3.1l0,0c-1.7,0-3.1,1.4-3.1,3.1
	C449.5,216.8,450.9,218.2,452.5,218.2L452.5,218.2z"/>
<path class="st3" d="M437.2,227.4c-1.7,0-3.1,1.4-3.1,3.1s1.4,3.1,3.1,3.1s3.1-1.4,3.1-3.1l0,0C440.3,228.7,438.9,227.4,437.2,227.4
	z"/>
<path class="st3" d="M467.8,227.4c-1.7,0-3.1,1.4-3.1,3.1s1.4,3.1,3.1,3.1s3.1-1.4,3.1-3.1l0,0C470.9,228.7,469.5,227.4,467.8,227.4
	z"/>
<path class="st3" d="M437.3,202.9c1.7,0,3.1-1.4,3.1-3.1c0-1.7-1.4-3.1-3.1-3.1l0,0c-1.7,0-3.1,1.4-3.1,3.1
	C434.2,201.6,435.6,202.9,437.3,202.9z"/>
<path class="st3" d="M467.8,202.9c1.7,0,3.1-1.4,3.1-3.1c0-1.7-1.4-3.1-3.1-3.1l0,0c-1.7,0-3.1,1.4-3.1,3.1
	C464.8,201.6,466.1,202.9,467.8,202.9z"/>
<path class="st3" d="M423.7,243.2c-1.4-0.9-3.3-0.6-4.2,0.8c-0.9,1.4-0.6,3.3,0.8,4.2c1.4,0.9,3.3,0.6,4.2-0.8l0,0
	c0.1-0.2,0.2-0.3,0.3-0.5c0.2-0.4,0.2-0.8,0.2-1.2c0-0.6-0.2-1.2-0.5-1.7C424.3,243.7,424,243.4,423.7,243.2z"/>
<path class="st3" d="M420.3,217.7c1.4,0.9,3.3,0.6,4.3-0.8c0.3-0.5,0.5-1.1,0.5-1.7c0-1-0.5-2-1.3-2.5c-1.4-1-3.3-0.7-4.3,0.6
	c-1,1.4-0.7,3.3,0.6,4.3C420.1,217.6,420.2,217.6,420.3,217.7z"/>
<path class="st3" d="M486.1,184c-0.3-1.7-1.9-2.8-3.5-2.4c-1.2,0.2-2.2,1.2-2.5,2.4c0,0.2-0.1,0.4-0.1,0.6c0,1.7,1.4,3.1,3.1,3.1
	s3.1-1.4,3.1-3.1l0,0C486.1,184.4,486.1,184.2,486.1,184z"/>
<path class="st3" d="M455.6,306.8c0-0.2,0-0.4-0.1-0.6c-0.3-1.7-1.9-2.8-3.5-2.5c-1.2,0.2-2.2,1.2-2.5,2.5c0,0.2-0.1,0.4-0.1,0.6
	c-0.1,1.7,1.2,3.1,2.9,3.2s3.1-1.2,3.2-2.9C455.6,307,455.6,306.9,455.6,306.8L455.6,306.8z"/>
<path class="st3" d="M483.1,279.3c1.7,0,3.1-1.4,3.1-3s-1.4-3.1-3-3.1s-3.1,1.4-3.1,3l0,0C480,277.9,481.4,279.3,483.1,279.3z"/>
<path class="st3" d="M452.5,279.3c1.7,0,3.1-1.4,3.1-3.1l0,0c0-1.7-1.3-3-2.9-3h-0.1l0,0c-1.7-0.1-3.1,1.2-3.2,2.9s1.2,3.1,2.9,3.2
	C452.3,279.3,452.4,279.3,452.5,279.3L452.5,279.3z"/>
<path class="st3" d="M437.3,294.6c1.7-0.1,3-1.5,2.9-3.2c-0.1-1.6-1.3-2.8-2.9-2.9l0,0c-1.7,0.1-3,1.5-2.9,3.2
	C434.5,293.2,435.7,294.5,437.3,294.6z"/>
<path class="st3" d="M467.8,294.6c1.7-0.1,3-1.5,2.9-3.2c-0.1-1.6-1.3-2.8-2.9-2.9l0,0c-1.7,0.1-3,1.5-2.9,3.2
	C465,293.2,466.3,294.5,467.8,294.6z"/>
<path class="st3" d="M437.3,264c1.7-0.1,3-1.5,2.9-3.2c-0.1-1.6-1.3-2.8-2.9-2.9l0,0c-1.7,0.1-3,1.5-2.9,3.2
	C434.5,262.7,435.7,263.9,437.3,264z"/>
<path class="st3" d="M467.8,264c1.7-0.1,3-1.5,2.9-3.2c-0.1-1.6-1.3-2.8-2.9-2.9l0,0c-1.7,0.1-3,1.5-2.9,3.2
	C465,262.7,466.3,263.9,467.8,264z"/>
<path class="st3" d="M422,309.8c1.7,0,3-1.3,3-2.9c0,0,0,0,0-0.1l0,0c0-0.2,0-0.4-0.1-0.6c-0.3-1.7-1.9-2.7-3.6-2.4
	c-1.2,0.2-2.2,1.2-2.4,2.4c0,0.2-0.1,0.4-0.1,0.6c0,1.2,0.7,2.3,1.9,2.8C421.2,309.8,421.6,309.9,422,309.8z"/>
<path class="st3" d="M420.3,278.8c1.4,0.9,3.3,0.6,4.3-0.8c0.3-0.5,0.5-1.1,0.5-1.7c0-1.7-1.4-3.1-3.1-3.1s-3.1,1.4-3.1,3.1
	C418.9,277.2,419.4,278.2,420.3,278.8z"/>
<path class="st3" d="M483.1,248.7c1.7,0,3.1-1.4,3.1-3.1s-1.4-3.1-3.1-3.1s-3.1,1.4-3.1,3.1c0,0,0,0,0,0.1
	C480.1,247.4,481.4,248.7,483.1,248.7z"/>
<path class="st3" d="M440.3,322.1c0-1.7-1.3-3-3-3.1l0,0c-1.7,0-3.1,1.4-3.1,3.1s1.4,3.1,3.1,3.1C439,325.1,440.4,323.8,440.3,322.1
	L440.3,322.1L440.3,322.1z"/>
<path class="st3" d="M470.9,322.1c0-1.7-1.4-3.1-3-3.1l0,0c-1.7,0-3.1,1.4-3.1,3.1s1.4,3.1,3.1,3.1
	C469.5,325.1,470.9,323.8,470.9,322.1L470.9,322.1L470.9,322.1z"/>
<path class="st3" d="M483.1,309.8c1.7,0,3.1-1.4,3.1-3l0,0c0-0.2,0-0.4-0.1-0.6c-0.3-1.7-1.9-2.8-3.5-2.5c-1.2,0.2-2.2,1.2-2.5,2.5
	c0,0.2-0.1,0.4-0.1,0.6C480,308.5,481.4,309.8,483.1,309.8L483.1,309.8z"/>
<path class="st3" d="M388.6,2.5c0.6,1.5,2.4,2.3,3.9,1.7h0.1c0.7-0.3,1.3-0.9,1.6-1.6c0.2-0.4,0.3-0.8,0.3-1.2s-0.1-0.8-0.3-1.2
	h-5.6c-0.2,0.4-0.3,0.8-0.3,1.2C388.4,1.7,388.5,2.1,388.6,2.5z"/>
<path class="st3" d="M358.3,3c0.9,1.4,2.8,1.8,4.3,0.8c0.8-0.6,1.3-1.5,1.3-2.5c0-0.4-0.1-0.8-0.3-1.2H358
	C357.6,1,357.8,2.1,358.3,3z"/>
<path class="st3" d="M391.4,65.4c1.7,0,3-1.3,3.1-3c0-0.2,0-0.4-0.1-0.6c-0.3-1.7-1.9-2.8-3.5-2.5c-1.2,0.2-2.2,1.2-2.5,2.5
	c0,0.2-0.1,0.4-0.1,0.6C388.4,64.1,389.7,65.4,391.4,65.4L391.4,65.4z"/>
<path class="st3" d="M391.4,34.9c1.7,0,3-1.4,3-3s-1.4-3.1-3-3.1l0,0c-1.7,0-3,1.4-3,3.1S389.8,34.9,391.4,34.9L391.4,34.9z"/>
<path class="st3" d="M376.1,50.2c1.7,0.1,3.1-1.2,3.2-2.9c0.1-1.7-1.2-3.1-2.9-3.2c-0.1,0-0.2,0-0.3,0l0,0c-1.7,0.1-3,1.5-2.9,3.2
	C373.4,48.8,374.6,50.1,376.1,50.2z"/>
<path class="st3" d="M406.7,50.2c1.7-0.1,3-1.5,2.9-3.2c-0.1-1.6-1.3-2.8-2.9-2.9l0,0c-1.7,0.1-3,1.5-2.9,3.2
	C403.9,48.8,405.2,50.1,406.7,50.2z"/>
<path class="st3" d="M376.1,19.6c1.7,0,3.1-1.4,3.1-3.1l0,0c0-1.7-1.4-3-3-3l0,0c-1.7-0.1-3.1,1.2-3.2,2.9c-0.1,1.7,1.2,3.1,2.9,3.2
	C375.9,19.7,376,19.7,376.1,19.6L376.1,19.6z"/>
<path class="st3" d="M406.7,19.6c1.7-0.1,3-1.5,2.9-3.2c-0.1-1.6-1.3-2.8-2.9-2.9l0,0c-1.7-0.1-3.1,1.2-3.2,2.9
	c-0.1,1.7,1.2,3.1,2.9,3.2C406.5,19.6,406.6,19.6,406.7,19.6z"/>
<path class="st3" d="M360.9,65.4c1.7,0,3-1.3,3-2.9c0,0,0,0,0-0.1c0-0.2,0-0.4-0.1-0.6c-0.3-1.7-1.9-2.8-3.5-2.5
	c-1.2,0.2-2.2,1.2-2.5,2.5c0,0.2-0.1,0.4-0.1,0.6C357.9,64.1,359.2,65.4,360.9,65.4z"/>
<path class="st3" d="M360.9,34.9c1.7,0,3-1.4,3-3s-1.4-3.1-3-3.1l0,0c-1.7,0-3,1.4-3,3.1S359.2,34.9,360.9,34.9z"/>
<path class="st3" d="M389.7,121c-1.4,0.9-1.7,2.8-0.8,4.2c0.9,1.4,2.8,1.7,4.2,0.8c1.3-0.9,1.7-2.7,0.8-4.1
	C393.1,120.4,391.2,120,389.7,121C389.8,120.9,389.8,120.9,389.7,121z"/>
<path class="st3" d="M391.4,96c1.7-0.1,3-1.5,2.9-3.2c-0.1-1.6-1.3-2.8-2.9-2.9l0,0c-1.7,0.1-3,1.5-2.9,3.2
	C388.6,94.7,389.9,95.9,391.4,96z"/>
<path class="st3" d="M376.1,111.3c1.7,0,3-1.3,3.1-2.9v-0.1l0,0c0-1.7-1.4-3.1-3-3.1l0,0c-1.7-0.1-3.1,1.2-3.2,2.9s1.2,3.1,2.9,3.2
	C375.9,111.3,376,111.3,376.1,111.3L376.1,111.3z"/>
<path class="st3" d="M406.7,111.3c1.7-0.1,3-1.5,2.9-3.2c-0.1-1.6-1.3-2.8-2.9-2.9l0,0c-1.7,0.1-3,1.5-2.9,3.2
	C403.9,109.9,405.2,111.2,406.7,111.3z"/>
<path class="st3" d="M376.1,80.7c1.7,0.1,3.1-1.2,3.2-2.9s-1.2-3.1-2.9-3.2c-0.1,0-0.2,0-0.3,0l0,0c-1.7,0.1-3,1.5-2.9,3.2
	C373.4,79.4,374.6,80.6,376.1,80.7z"/>
<path class="st3" d="M406.7,80.7c1.7-0.1,3-1.5,2.9-3.2c-0.1-1.6-1.3-2.8-2.9-2.9l0,0c-1.7,0.1-3,1.5-2.9,3.2
	C403.9,79.4,405.2,80.6,406.7,80.7z"/>
<path class="st3" d="M362.1,126.3c1.5-0.6,2.3-2.4,1.6-3.9v-0.1c-0.1-0.2-0.2-0.3-0.3-0.5l0,0c-1-1.4-2.9-1.8-4.3-0.8
	c-0.8,0.6-1.3,1.5-1.3,2.5c0,0.4,0.1,0.8,0.2,1.2C358.7,126.2,360.5,126.9,362.1,126.3L362.1,126.3z"/>
<path class="st3" d="M360.9,96c1.7,0,3-1.4,3-3.1l0,0c0-1.7-1.3-3-3-3c0,0,0,0-0.1,0l0,0c-1.7-0.1-3.1,1.2-3.2,2.9s1.2,3.1,2.9,3.2
	C360.6,96,360.8,96,360.9,96L360.9,96z"/>
<path class="st3" d="M391.4,181.5c-1.5,0-2.7,1-3,2.4c0,0.2-0.1,0.4-0.1,0.6c-0.1,1.7,1.2,3.1,2.9,3.2c1.7,0.1,3.1-1.2,3.2-2.9
	c0-0.1,0-0.2,0-0.3c0-0.2,0-0.4-0.1-0.6C394.1,182.6,392.9,181.5,391.4,181.5z"/>
<path class="st3" d="M391.4,157.1c1.7,0,3-1.3,3.1-3l0,0c0-1.7-1.4-3-3-3l0,0c-1.7-0.1-3.1,1.2-3.2,2.9s1.2,3.1,2.9,3.2
	C391.3,157.2,391.4,157.2,391.4,157.1L391.4,157.1z"/>
<path class="st3" d="M376.1,172.4c1.7,0,3.1-1.4,3.1-3.1l0,0c0-1.7-1.4-3.1-3-3.1l0,0c-1.7,0-3.1,1.4-3.1,3.1
	S374.5,172.4,376.1,172.4L376.1,172.4z"/>
<path class="st3" d="M406.7,172.4c1.7,0,3.1-1.4,3.1-3.1c0-1.7-1.4-3.1-3.1-3.1l0,0c-1.7,0-3.1,1.4-3.1,3.1
	C403.7,171,405,172.4,406.7,172.4z"/>
<path class="st3" d="M376.1,135.7L376.1,135.7c-1.7,0-3.1,1.4-3.1,3.1c0,1.7,1.4,3.1,3.1,3.1s3.1-1.4,3.1-3.1l0,0l0,0
	C379.2,137.1,377.8,135.7,376.1,135.7z"/>
<path class="st3" d="M406.7,135.7c-1.7,0-3.1,1.4-3.1,3.1c0,1.7,1.4,3.1,3.1,3.1s3.1-1.4,3.1-3.1l0,0
	C409.8,137.1,408.4,135.7,406.7,135.7z"/>
<path class="st3" d="M360.9,181.5c-1.5,0-2.7,1-3,2.4c0,0.2-0.1,0.4-0.1,0.6c-0.1,1.7,1.2,3.1,2.9,3.2c1.7,0.1,3.1-1.2,3.2-2.9
	c0-0.1,0-0.2,0-0.3c0-0.2,0-0.4-0.1-0.6C363.6,182.6,362.4,181.5,360.9,181.5z"/>
<path class="st3" d="M360.9,157.1c1.7,0,3-1.3,3.1-3l0,0c0-1.7-1.3-3.1-3-3.1s-3.1,1.3-3.1,3C357.8,155.6,359.2,157,360.9,157.1
	L360.9,157.1z"/>
<path class="st3" d="M389.7,243.2c-1.4,0.9-1.8,2.8-0.8,4.2c0.9,1.4,2.8,1.8,4.2,0.8c0.5-0.3,0.9-0.8,1.1-1.3
	c0.2-0.4,0.3-0.8,0.3-1.2c0-1.7-1.4-3.1-3-3.1C390.8,242.6,390.2,242.8,389.7,243.2z"/>
<path class="st3" d="M391.4,218.2c1.7,0,3.1-1.4,3.1-3.1l0,0c0-1.7-1.4-3.1-3-3.1l0,0c-1.7,0-3.1,1.4-3.1,3.1
	C388.4,216.8,389.8,218.2,391.4,218.2L391.4,218.2z"/>
<path class="st3" d="M376.1,227.4c-1.7,0-3.1,1.4-3.1,3.1s1.4,3.1,3.1,3.1s3.1-1.4,3.1-3.1l0,0C379.2,228.7,377.8,227.4,376.1,227.4
	z"/>
<path class="st3" d="M406.7,227.4c-1.7,0-3.1,1.4-3.1,3.1s1.4,3.1,3.1,3.1s3.1-1.4,3.1-3.1l0,0C409.8,228.7,408.4,227.4,406.7,227.4
	z"/>
<path class="st3" d="M376.1,202.9c1.7,0,3.1-1.4,3.1-3.1l0,0c0-1.7-1.4-3.1-3-3.1l0,0c-1.7,0-3.1,1.4-3.1,3.1
	C373.1,201.6,374.5,202.9,376.1,202.9L376.1,202.9z"/>
<path class="st3" d="M406.7,202.9c1.7,0,3.1-1.4,3.1-3.1c0-1.7-1.4-3.1-3.1-3.1l0,0c-1.7,0-3.1,1.4-3.1,3.1
	C403.7,201.6,405,202.9,406.7,202.9z"/>
<path class="st3" d="M359.2,243.2c-1.4,0.9-1.9,2.8-1,4.2c0.9,1.4,2.8,1.9,4.2,1c0.1,0,0.1-0.1,0.2-0.1c0.5-0.3,0.9-0.8,1.1-1.3
	c0.2-0.4,0.2-0.8,0.2-1.2c0-0.6-0.2-1.2-0.5-1.7C362.5,242.6,360.6,242.2,359.2,243.2z"/>
<path class="st3" d="M360.9,218.2c1.7,0,3.1-1.4,3.1-3.1l0,0c0-1.7-1.4-3.1-3-3.1l0,0l0,0c-1.7,0-3.1,1.4-3.1,3.1
	C357.9,216.8,359.2,218.2,360.9,218.2z"/>
<path class="st3" d="M394.5,306.8c0-0.2,0-0.4-0.1-0.6c-0.3-1.7-1.9-2.8-3.5-2.5c-1.2,0.2-2.2,1.2-2.5,2.5c0,0.2-0.1,0.4-0.1,0.6
	c-0.1,1.7,1.2,3.1,2.9,3.2s3.1-1.2,3.2-2.9C394.5,307,394.5,306.9,394.5,306.8L394.5,306.8z"/>
<path class="st3" d="M391.4,279.3c1.7,0,3.1-1.4,3.1-3.1l0,0c0-1.7-1.3-3-2.9-3h-0.1l0,0c-1.7-0.1-3.1,1.2-3.2,2.9s1.2,3.1,2.9,3.2
	C391.2,279.3,391.3,279.3,391.4,279.3L391.4,279.3z"/>
<path class="st3" d="M376.1,294.6c1.7,0,3.1-1.4,3.1-3l0,0l0,0c0-1.7-1.4-3.1-3-3.1c-1.7,0-3.1,1.4-3.1,3S374.4,294.6,376.1,294.6
	L376.1,294.6z"/>
<path class="st3" d="M406.7,294.6c1.7-0.1,3-1.5,2.9-3.2c-0.1-1.6-1.3-2.8-2.9-2.9l0,0c-1.7,0.1-3,1.5-2.9,3.2
	C403.9,293.2,405.2,294.5,406.7,294.6z"/>
<path class="st3" d="M376.1,264c1.7,0,3.1-1.4,3.1-3l0,0l0,0c0-1.7-1.4-3.1-3-3.1l0,0c-1.7-0.1-3.1,1.2-3.2,2.9s1.2,3.1,2.9,3.2
	C375.9,264,376,264,376.1,264L376.1,264z"/>
<path class="st3" d="M406.7,264c1.7-0.1,3-1.5,2.9-3.2c-0.1-1.6-1.3-2.8-2.9-2.9l0,0c-1.7,0.1-3,1.5-2.9,3.2
	C403.9,262.7,405.2,263.9,406.7,264z"/>
<path class="st3" d="M363.9,306.8c0-0.2,0-0.4-0.1-0.6c-0.3-1.7-1.9-2.8-3.5-2.5c-1.2,0.2-2.2,1.2-2.5,2.5c0,0.2-0.1,0.4-0.1,0.6
	c-0.1,1.7,1.2,3.1,2.9,3.2s3.1-1.2,3.2-2.9C363.9,307,363.9,306.9,363.9,306.8L363.9,306.8z"/>
<path class="st3" d="M360.9,279.3c1.7,0,3.1-1.4,3.1-3l0,0c0-1.7-1.3-3-2.9-3H361l0,0c-1.7-0.1-3.1,1.2-3.2,2.9s1.2,3.1,2.9,3.2
	C360.7,279.3,360.8,279.3,360.9,279.3L360.9,279.3z"/>
<path class="st3" d="M376.2,319L376.2,319c-0.7,0-1.3,0.2-1.9,0.6c1.5,0.4,3,0.7,4.6,1C378.4,319.6,377.3,319,376.2,319z"/>
<path class="st3" d="M409.8,322.1c0-1.7-1.3-3-3-3.1l0,0c-1.7,0-3.1,1.4-3.1,3.1s1.4,3.1,3.1,3.1
	C408.4,325.1,409.8,323.8,409.8,322.1L409.8,322.1L409.8,322.1z"/>
<path class="st3" d="M299.8,4.3L299.8,4.3c0.2,0,0.4,0,0.6-0.1c1-0.2,1.8-0.9,2.2-1.8c0.3-0.8,0.3-1.6,0-2.4H297
	c-0.2,0.4-0.2,0.8-0.3,1.2C296.8,3,298.1,4.3,299.8,4.3z"/>
<path class="st3" d="M330.3,34.9c1.7,0,3-1.4,3-3s-1.4-3.1-3-3.1l0,0c-1.7,0-3,1.4-3,3.1S328.6,34.9,330.3,34.9L330.3,34.9z"/>
<path class="st3" d="M315,50.2c1.7,0.1,3.1-1.2,3.2-2.9c0.1-1.7-1.2-3.1-2.9-3.2c-0.1,0-0.2,0-0.3,0l0,0c-1.7,0.1-3,1.5-2.9,3.2
	C312.3,48.8,313.5,50.1,315,50.2z"/>
<path class="st3" d="M345.6,50.2c1.7-0.1,3-1.5,2.9-3.2c-0.1-1.6-1.3-2.8-2.9-2.9l0,0c-1.7,0.1-3,1.5-2.9,3.2
	C342.8,48.8,344.1,50.1,345.6,50.2z"/>
<path class="st3" d="M315,19.6c1.7,0,3.1-1.4,3.1-3.1l0,0c0-1.7-1.4-3-3-3l0,0c-1.7-0.1-3.1,1.2-3.2,2.9c-0.1,1.7,1.2,3.1,2.9,3.2
	C314.8,19.7,314.9,19.7,315,19.6L315,19.6z"/>
<path class="st3" d="M345.6,19.6c1.7-0.1,3-1.5,2.9-3.2c-0.1-1.6-1.3-2.8-2.9-2.9l0,0c-1.7,0.1-3,1.5-2.9,3.2
	C342.8,18.3,344.1,19.5,345.6,19.6z"/>
<path class="st3" d="M300.4,59.4c-0.2,0-0.4-0.1-0.6-0.1c-1.5,0-2.7,1-3,2.4c0,0.2-0.1,0.4-0.1,0.6c0,1.7,1.4,3,3.1,3l0,0
	c0.2,0,0.4,0,0.6-0.1c1.4-0.3,2.4-1.5,2.4-3c0-0.2,0-0.4-0.1-0.6C302.5,60.5,301.6,59.6,300.4,59.4z"/>
<path class="st3" d="M298.6,34.6c0.4,0.2,0.8,0.2,1.2,0.2c0.2,0,0.4,0,0.6-0.1c1.7-0.3,2.8-1.9,2.5-3.5c-0.2-1.2-1.2-2.2-2.5-2.5
	l0,0c-0.2,0-0.4-0.1-0.6-0.1c-0.4,0-0.8,0.1-1.2,0.2c-1.6,0.6-2.3,2.3-1.8,3.9C297.1,33.7,297.8,34.3,298.6,34.6L298.6,34.6z"/>
<path class="st3" d="M327.5,2.5c0.7,1.6,2.4,2.3,4,1.6c1.1-0.5,1.9-1.6,1.9-2.8c0-0.4-0.1-0.8-0.3-1.2h-5.6
	c-0.2,0.4-0.3,0.8-0.3,1.2C327.3,1.7,327.4,2.1,327.5,2.5z"/>
<path class="st3" d="M330.3,96c1.7,0,3-1.4,3-3.1l0,0c0-1.7-1.3-3-3-3l0,0c-1.7-0.1-3.1,1.2-3.2,2.9s1.2,3.1,2.9,3.2
	C330.1,96,330.2,96,330.3,96L330.3,96z"/>
<path class="st3" d="M315,111.3c1.7,0,3-1.3,3.1-2.9v-0.1l0,0c0-1.7-1.4-3.1-3-3.1l0,0c-1.7-0.1-3.1,1.2-3.2,2.9s1.2,3.1,2.9,3.2
	C314.8,111.3,314.9,111.3,315,111.3L315,111.3z"/>
<path class="st3" d="M345.6,111.3c1.7-0.1,3-1.5,2.9-3.2c-0.1-1.6-1.3-2.8-2.9-2.9l0,0c-1.7,0.1-3,1.5-2.9,3.2
	C342.8,109.9,344.1,111.2,345.6,111.3z"/>
<path class="st3" d="M315,80.7c1.7,0.1,3.1-1.2,3.2-2.9s-1.2-3.1-2.9-3.2c-0.1,0-0.2,0-0.3,0l0,0c-1.7,0.1-3,1.5-2.9,3.2
	C312.3,79.4,313.5,80.6,315,80.7z"/>
<path class="st3" d="M345.6,80.7c1.7-0.1,3-1.5,2.9-3.2c-0.1-1.6-1.3-2.8-2.9-2.9l0,0c-1.7,0.1-3,1.5-2.9,3.2
	C342.8,79.4,344.1,80.6,345.6,80.7z"/>
<path class="st3" d="M296.9,124.7c0.3,0.7,0.9,1.3,1.6,1.6c0.4,0.2,0.8,0.2,1.2,0.2c0.2,0,0.4,0,0.6-0.1c1.7-0.3,2.7-1.9,2.4-3.6
	c-0.2-1.2-1.2-2.2-2.4-2.4c-0.2,0-0.4-0.1-0.6-0.1c-1.7,0-3.1,1.4-3.1,3.1C296.7,123.9,296.8,124.3,296.9,124.7z"/>
<path class="st3" d="M299.8,96c0.2,0,0.4,0,0.6-0.1c1.7-0.3,2.7-1.9,2.4-3.6c-0.2-1.2-1.2-2.2-2.4-2.4l0,0c-0.2,0-0.4-0.1-0.6-0.1
	c-1.7-0.1-3.1,1.2-3.2,2.9s1.2,3.1,2.9,3.2C299.5,96,299.7,96,299.8,96L299.8,96z"/>
<path class="st3" d="M329.7,59.4c-1.2,0.3-2.1,1.2-2.4,2.4c0,0.2-0.1,0.4-0.1,0.6c0,1.7,1.3,3,3,3c0,0,0,0,0.1,0l0,0
	c1.7,0,3-1.3,3-3l0,0c0-0.2,0-0.4-0.1-0.6C332.9,60.1,331.3,59.1,329.7,59.4z"/>
<path class="st3" d="M330.3,157.1c1.7,0.1,3.1-1.2,3.2-2.9s-1.2-3.1-2.9-3.2c-0.1,0-0.2,0-0.3,0l0,0c-1.7-0.1-3.1,1.2-3.2,2.9
	s1.2,3.1,2.9,3.2C330.1,157.1,330.2,157.1,330.3,157.1z"/>
<path class="st3" d="M315.1,172.4c1.7,0,3.1-1.4,3.1-3.1c0-1.7-1.4-3.1-3.1-3.1l0,0c-1.7,0-3.1,1.4-3.1,3.1S313.4,172.4,315.1,172.4
	z"/>
<path class="st3" d="M345.6,172.4c1.7,0,3.1-1.4,3.1-3.1c0-1.7-1.4-3.1-3.1-3.1l0,0c-1.7,0-3.1,1.4-3.1,3.1
	C342.6,171,343.9,172.4,345.6,172.4z"/>
<path class="st3" d="M315,141.8c1.7,0,3-1.3,3.1-3l0,0c0-1.7-1.4-3.1-3-3.1l0,0c-1.7,0.1-3,1.5-2.9,3.2
	C312.3,140.5,313.5,141.8,315,141.8L315,141.8z"/>
<path class="st3" d="M345.6,135.7c-1.7,0-3.1,1.4-3.1,3.1c0,1.7,1.4,3.1,3.1,3.1s3.1-1.4,3.1-3.1l0,0
	C348.7,137.1,347.3,135.7,345.6,135.7z"/>
<path class="st3" d="M302.8,184c-0.2-1.2-1.2-2.1-2.4-2.4c-0.2,0-0.4-0.1-0.6-0.1c-0.4,0-0.8,0.1-1.2,0.2c-0.9,0.4-1.6,1.2-1.8,2.2
	c0,0.2-0.1,0.4-0.1,0.6c0,1.7,1.4,3.1,3.1,3.1c0.2,0,0.4,0,0.6-0.1c1.4-0.3,2.5-1.5,2.4-3C302.8,184.4,302.8,184.2,302.8,184z"/>
<path class="st3" d="M298.6,156.9c0.4,0.2,0.8,0.2,1.2,0.2c0.2,0,0.4,0,0.6-0.1c1.7-0.3,2.7-1.9,2.4-3.6c-0.2-1.2-1.2-2.2-2.4-2.4
	l0,0c-0.2,0-0.4-0.1-0.6-0.1c-1.7,0-3.1,1.3-3.1,3C296.7,155.2,297.4,156.4,298.6,156.9L298.6,156.9z"/>
<path class="st3" d="M330.3,120.5c-1.7,0-3,1.3-3,3c0,0,0,0,0,0.1c0,1.7,1.4,3,3,3c1.7,0,3-1.4,3-3c0-1.7-1.3-3-2.9-3.1H330.3z"/>
<path class="st3" d="M330.3,218.2c1.7,0,3.1-1.4,3.1-3.1l0,0c0-1.7-1.3-3-2.9-3.1c0,0,0,0-0.1,0l0,0c-1.7,0-3.1,1.4-3.1,3.1
	C327.3,216.8,328.7,218.2,330.3,218.2L330.3,218.2z"/>
<path class="st3" d="M315,227.4c-1.7,0-3.1,1.4-3.1,3.1s1.4,3.1,3.1,3.1s3.1-1.4,3.1-3.1l0,0C318.1,228.7,316.7,227.4,315,227.4z"/>
<path class="st3" d="M345.6,227.4c-1.7,0-3.1,1.4-3.1,3.1s1.4,3.1,3.1,3.1s3.1-1.4,3.1-3.1l0,0C348.7,228.7,347.3,227.4,345.6,227.4
	z"/>
<path class="st3" d="M315,202.9c1.7,0,3.1-1.4,3.1-3.1l0,0c0-1.7-1.4-3-3-3.1l0,0c-1.7,0-3.1,1.4-3.1,3.1
	C312,201.6,313.4,202.9,315,202.9L315,202.9z"/>
<path class="st3" d="M345.6,202.9c1.7,0,3.1-1.4,3.1-3.1c0-1.7-1.4-3.1-3.1-3.1l0,0c-1.7,0-3.1,1.4-3.1,3.1
	C342.6,201.6,343.9,202.9,345.6,202.9z"/>
<path class="st3" d="M298.6,248.5c0.4,0.2,0.8,0.2,1.2,0.2c0.2,0,0.4,0,0.6-0.1c1.6-0.3,2.7-1.9,2.4-3.5c-0.1-0.4-0.3-0.9-0.5-1.2
	l0,0c-0.4-0.7-1.1-1.1-1.9-1.3c-0.2,0-0.4-0.1-0.6-0.1c-1,0-2,0.5-2.5,1.4c-0.3,0.5-0.5,1.1-0.5,1.7
	C296.7,246.9,297.4,248,298.6,248.5z"/>
<path class="st3" d="M299.8,218.2c0.2,0,0.4,0,0.6-0.1c1.7-0.3,2.7-1.9,2.4-3.6c-0.2-1.2-1.2-2.2-2.4-2.4l0,0
	c-0.2,0-0.4-0.1-0.6-0.1c-1.7,0-3.1,1.4-3.1,3.1C296.7,216.8,298.1,218.2,299.8,218.2L299.8,218.2z"/>
<path class="st3" d="M329.7,181.6c-1.7,0.4-2.7,2-2.3,3.6c0.3,1.4,1.5,2.4,3,2.4l0,0c1.7,0,3-1.4,3.1-3.1l0,0c0-0.2,0-0.4-0.1-0.6
	C333,182.3,331.4,181.3,329.7,181.6L329.7,181.6z"/>
<path class="st3" d="M330.3,279.3c1.7,0,3.1-1.4,3.1-3l0,0c0-1.7-1.3-3-2.9-3c0,0,0,0-0.1,0l0,0c-1.7-0.1-3.1,1.2-3.2,2.9
	s1.2,3.1,2.9,3.2C330.1,279.3,330.3,279.3,330.3,279.3L330.3,279.3z"/>
<path class="st3" d="M315,294.6c1.7,0,3.1-1.4,3.1-3l0,0l0,0c0-1.7-1.4-3.1-3-3.1c-1.7,0-3.1,1.4-3.1,3S313.3,294.6,315,294.6
	L315,294.6z"/>
<path class="st3" d="M345.6,294.6c1.7-0.1,3-1.5,2.9-3.2c-0.1-1.6-1.3-2.8-2.9-2.9l0,0c-1.7,0.1-3,1.5-2.9,3.2
	C342.8,293.2,344.1,294.5,345.6,294.6z"/>
<path class="st3" d="M315,264c1.7,0,3.1-1.4,3.1-3l0,0l0,0c0-1.7-1.4-3.1-3-3.1l0,0c-1.7-0.1-3.1,1.2-3.2,2.9s1.2,3.1,2.9,3.2
	C314.8,264,314.9,264,315,264L315,264z"/>
<path class="st3" d="M345.6,264c1.7-0.1,3-1.5,2.9-3.2c-0.1-1.6-1.3-2.8-2.9-2.9l0,0c-1.7,0.1-3,1.5-2.9,3.2
	C342.8,262.7,344.1,263.9,345.6,264z"/>
<path class="st3" d="M299.8,279.3c0.2,0,0.4,0,0.6-0.1c1.7-0.3,2.7-1.9,2.4-3.6c-0.2-1.2-1.2-2.2-2.4-2.4l0,0
	c-0.2,0-0.4-0.1-0.6-0.1c-1.7,0.1-3,1.5-2.9,3.2S298.2,279.2,299.8,279.3L299.8,279.3z"/>
<path class="st3" d="M330.3,242.7c-1.7,0-3,1.3-3,3c0,0,0,0,0,0.1c0,0.4,0.1,0.8,0.2,1.2c0.7,1.5,2.5,2.2,4,1.5s2.2-2.5,1.5-4
	C332.5,243.4,331.5,242.7,330.3,242.7L330.3,242.7z"/>
<path class="st3" d="M333.4,306.8c0-0.2,0-0.4-0.1-0.6c-0.3-1.6-2-2.7-3.6-2.4c-0.6,0.1-1.2,0.5-1.6,0.9c1.8,0.7,3.5,1.5,5.3,2.2
	C333.4,306.9,333.4,306.8,333.4,306.8L333.4,306.8z"/>
<path class="st3" d="M266.7,3c0.9,1.4,2.8,1.8,4.2,0.8c0.5-0.3,0.9-0.8,1.1-1.3c0.3-0.8,0.3-1.6,0-2.4h-5.6C266,1,266.1,2.1,266.7,3
	z"/>
<path class="st3" d="M269.2,59.3c-1.4,0-2.7,1-3,2.4c0,0.2,0,0.4,0,0.6c0,1.7,1.4,3.1,3,3.1c1.7,0,3.1-1.4,3.1-3.1
	c0-0.2,0-0.4-0.1-0.6C271.9,60.3,270.7,59.3,269.2,59.3z"/>
<path class="st3" d="M269.2,34.9c1.7,0,3-1.4,3-3s-1.4-3.1-3-3.1l0,0c-1.7,0-3,1.4-3,3.1S267.5,34.9,269.2,34.9z"/>
<path class="st3" d="M257,47.1c0-1.7-1.4-3-3.1-3l0,0c-0.3,0-0.6,0.1-0.9,0.1c0.4,2,0.8,4,1.1,5.9C255.8,50.1,257.1,48.7,257,47.1z"
	/>
<path class="st3" d="M284.5,50.2c1.7-0.1,3-1.5,2.9-3.2c-0.1-1.6-1.3-2.8-2.9-2.9l0,0c-1.7,0.1-3,1.5-2.9,3.2
	C281.7,48.8,283,50.1,284.5,50.2z"/>
<path class="st3" d="M253.9,13.5L253.9,13.5c-1.7,0-3.1,1.4-3.1,3.1s1.4,3.1,3.1,3.1s3.1-1.4,3.1-3.1c0,0,0,0,0-0.1l0,0
	C256.9,14.8,255.6,13.5,253.9,13.5z"/>
<path class="st3" d="M284.5,19.6c1.7,0.1,3.1-1.2,3.2-2.9c0.1-1.7-1.2-3.1-2.9-3.2c-0.1,0-0.2,0-0.3,0l0,0c-1.7,0.1-3,1.5-2.9,3.2
	C281.7,18.3,282.9,19.5,284.5,19.6z"/>
<path class="st3" d="M267.5,121c-0.8,0.6-1.4,1.5-1.3,2.5c0,0.4,0.1,0.8,0.2,1.2c0.6,1.6,2.4,2.3,4,1.7c1.2-0.5,1.9-1.6,1.9-2.8
	c0-0.6-0.2-1.2-0.5-1.7C270.8,120.4,268.9,120,267.5,121z"/>
<path class="st3" d="M269.2,96c1.7,0,3-1.4,3.1-3.1l0,0l0,0c0-1.7-1.3-3-3-3c0,0,0,0-0.1,0l0,0c-1.7-0.1-3.1,1.2-3.2,2.9
	c-0.1,1.7,1.2,3.1,2.9,3.2C269,96,269.1,96,269.2,96L269.2,96z"/>
<path class="st3" d="M284.5,111.3c1.7,0.1,3.1-1.2,3.2-2.9s-1.2-3.1-2.9-3.2c-0.1,0-0.2,0-0.3,0l0,0c-1.7,0.1-3,1.5-2.9,3.2
	C281.7,109.9,282.9,111.2,284.5,111.3z"/>
<path class="st3" d="M284.5,80.7c1.7-0.1,3-1.5,2.9-3.2c-0.1-1.6-1.3-2.8-2.9-2.9l0,0c-1.7,0.1-3,1.5-2.9,3.2
	C281.7,79.4,283,80.6,284.5,80.7z"/>
<path class="st3" d="M269.2,181.5c-1.5,0-2.7,1-3,2.4c0,0.2,0,0.4,0,0.6c0,1.7,1.4,3,3,3c1.7,0,3.1-1.4,3.1-3l0,0
	c0-0.2,0-0.4-0.1-0.6C271.9,182.5,270.7,181.5,269.2,181.5z"/>
<path class="st3" d="M269.2,157.1c1.7,0,3-1.3,3.1-3l0,0c0-1.7-1.3-3-3-3c0,0,0,0-0.1,0l0,0c-1.7,0.1-3,1.5-2.9,3.2
	C266.4,155.9,267.6,157.1,269.2,157.1L269.2,157.1z"/>
<path class="st3" d="M253.9,172.4c1.7,0,3.1-1.4,3.1-3.1l0,0c0-1.7-1.3-3-3-3.1l0,0c-1.7,0-3.1,1.4-3.1,3.1S252.3,172.4,253.9,172.4
	L253.9,172.4z"/>
<path class="st3" d="M284.5,172.4c1.7,0,3.1-1.4,3.1-3.1c0-1.7-1.4-3.1-3.1-3.1l0,0c-1.7,0-3.1,1.4-3.1,3.1S282.8,172.4,284.5,172.4
	z"/>
<path class="st3" d="M284.5,135.7c-1.7,0-3.1,1.4-3.1,3.1c0,1.7,1.4,3.1,3.1,3.1s3.1-1.4,3.1-3.1l0,0
	C287.6,137.1,286.2,135.7,284.5,135.7z"/>
<path class="st3" d="M238.7,187.6c1.7,0,3.1-1.4,3.1-3.1c0-0.2,0-0.4-0.1-0.6c-0.3-1.7-1.9-2.7-3.6-2.4c-1.2,0.2-2.2,1.2-2.4,2.4
	c0,0.2-0.1,0.4-0.1,0.6C235.6,186.3,237,187.6,238.7,187.6L238.7,187.6z"/>
<path class="st3" d="M270.9,248.2c1.4-0.9,1.8-2.8,0.8-4.2c-0.9-1.4-2.8-1.8-4.2-0.8c-1.4,0.9-1.8,2.8-0.8,4.2
	C267.6,248.8,269.5,249.2,270.9,248.2z"/>
<path class="st3" d="M269.2,218.2c1.7,0,3.1-1.4,3.1-3.1l0,0c0-1.7-1.3-3-2.9-3.1c0,0,0,0-0.1,0l0,0c-1.7,0-3.1,1.4-3.1,3.1
	C266.2,216.8,267.6,218.2,269.2,218.2L269.2,218.2z"/>
<path class="st3" d="M257,230.4c0-1.7-1.3-3-3-3.1l0,0c-1.7,0-3.1,1.4-3.1,3.1s1.4,3.1,3.1,3.1C255.7,233.5,257.1,232.1,257,230.4
	L257,230.4L257,230.4z"/>
<path class="st3" d="M284.5,227.4c-1.7,0-3.1,1.4-3.1,3.1s1.4,3.1,3.1,3.1s3.1-1.4,3.1-3.1l0,0C287.6,228.7,286.2,227.4,284.5,227.4
	z"/>
<path class="st3" d="M253.9,202.9c1.7,0,3.1-1.4,3.1-3.1l0,0c0-1.7-1.3-3-3-3.1l0,0c-1.7,0-3.1,1.4-3.1,3.1
	C250.9,201.6,252.3,202.9,253.9,202.9L253.9,202.9z"/>
<path class="st3" d="M284.5,202.9c1.7,0,3.1-1.4,3.1-3.1c0-1.7-1.4-3.1-3.1-3.1l0,0c-1.7,0-3.1,1.4-3.1,3.1
	C281.4,201.6,282.8,202.9,284.5,202.9z"/>
<path class="st3" d="M238.7,218.2c1.7,0,3.1-1.3,3.1-3s-1.3-3.1-3-3.1s-3,1.3-3.1,3c0.3,0.7,0.5,1.4,0.8,2.1
	C237.1,217.8,237.8,218.2,238.7,218.2z"/>
<path class="st3" d="M284.5,264c1.7-0.1,3-1.5,2.9-3.2c-0.1-1.6-1.3-2.8-2.9-2.9l0,0c-1.7,0.1-3,1.5-2.9,3.2
	C281.7,262.7,282.9,263.9,284.5,264z"/>
<path class="st2" d="M137.6,939.8c21.3,10,40.5,23.3,59,37.6c6.6-0.2,13.2-1,19.7-2.4c41.4-8.8,78.1-50.1,68.3-91.3
	c-13-54.6-92.1-74.4-101.3-129.7c-4.8-29.2,12.5-57.5,14.4-87.1c2.9-45.1-31.8-86.4-73.8-103.4C83.5,547,41.6,550-0.1,556V904
	C14.7,908,29,914,43.2,921C75.6,920,108.2,926,137.6,939.8z"/>
<path class="st3" d="M147.1,198.7c33,2.6,70.3,0.6,93.3-23.3c24.7-25.8,23.2-66.3,17.9-101.6c-1.2-7.9-2.5-15.8-4-23.6
	c-0.4-2-0.8-4-1.1-5.9c-3-14.8-6.5-29.6-10.7-44.1H-0.1v165.1C47.1,183.3,96.7,194.6,147.1,198.7z"/>
<path class="st4" d="M1853.8,313.7c-10.8,34.7-3.4,72.4,6.7,107.3c10.2,34.9,23.3,69.6,24.1,106c0.6,29.9-7.1,59.2-11.5,88.7
	c-11.5,78.2,2.7,161.9,46.9,226.9v-588C1889.8,257.5,1862.9,283.8,1853.8,313.7z"/>
<path class="st1" d="M1907.1,1080.1h12.9v-71.6c-144.1-43-308.7-17.5-430.4,71.6h237c9-2.9,18.2-5.4,27.5-7.4
	C1804.5,1061.8,1857.5,1065.1,1907.1,1080.1z"/>
<path class="st3" d="M1323.8,24.7c29.9,18.8,66.3,24.1,100.3,14.7c23.1-6.5,44.1-19.7,67.9-23.2c16.1-2.3,32-0.1,48,3.3
	c19.2,4.1,38.4,9.7,57.9,10.9c31.7,1.9,63.1-10,87.4-30.3h-389.4C1303.8,9.6,1313.3,18,1323.8,24.7z"/>
<path class="st4" d="M292.5,1048.6c-34.7-19.4-64.4-46.8-95.8-71.2c-18.6-14.4-37.8-27.7-59-37.7c-29.5-13.7-62-19.7-94.4-18.6
	c-14.6,0.5-29.1,2.5-43.3,5.9v153h394.2c-8-1.3-16-2.3-23.9-3.7C343,1071.5,316.7,1062.1,292.5,1048.6z"/>
</svg>
