<svg xmlns="http://www.w3.org/2000/svg" viewBox="0 0 1920.06 3500"><defs><style>.cls-1{fill:#f8f4eb;}.cls-2{fill:#f2de79;}.cls-3{fill:#fff;}.cls-4{fill:#03588c;}.cls-5{fill:#0388a6;}</style></defs><g id="圖層_2" data-name="圖層 2"><g id="圖層_1-2" data-name="圖層 1"><path class="cls-1" d="M1669,3120.91c42.85-22.54,69.73-50.16,95.47-75.23a3.77,3.77,0,0,1,1.76-2.34h0a4,4,0,0,1,1.08-.42c37.16-36,73.08-66.1,152.73-67.07v-81.12a3.78,3.78,0,0,1-3.11-1.81h0a3.78,3.78,0,0,1,1.37-5.17h0a3.73,3.73,0,0,1,1.74-.52v-102.7a3.72,3.72,0,0,1-1.38-5.64,3.87,3.87,0,0,1,1.12-1c.09-.05.18-.08.26-.13v-80.12a3.75,3.75,0,0,1-1.82,2.71,3.75,3.75,0,1,1-3.83-6.45h0a3.78,3.78,0,0,1,5.2,1.27,3.68,3.68,0,0,1,.45,1.29v-23a1.59,1.59,0,0,1-.15-.21h0a3.76,3.76,0,0,1,.15-4v-79a2.22,2.22,0,0,1-.35.25,3.78,3.78,0,0,1-5.19-1.27h0a3.8,3.8,0,0,1,1.38-5.18h0a3.78,3.78,0,0,1,4.16.16V2053.54l-15,15h0a341.4,341.4,0,0,1-27.1-21.92l42.1-42.1v-48.87l-66.54,66.54a341.28,341.28,0,0,1-21.91-27.1l88.45-88.45v-49l-107.7,107.71a346.69,346.69,0,0,1-16.37-32.65l124.07-124.07v-48.87L1783,1896.85a338.39,338.39,0,0,1-9.25-39.75l146.35-146.36v-49l-150.87,150.87a350.94,350.94,0,0,1,2.44-51.45l148.43-148.43v-48.86L1785.92,1698a329.64,329.64,0,0,1,134.14-172.58V843.79c-44.36-65.09-58.64-148.94-47.13-227.29,4.38-29.51,12.09-58.82,11.47-88.69-.8-36.31-13.91-71.06-24.08-105.95s-17.51-72.52-6.74-107.24c9.3-30,36.18-56.33,66.48-59.12V179.24a2.89,2.89,0,0,1-1,1,2.76,2.76,0,0,1-2.67.17,2.87,2.87,0,0,1-1.63-2.69,2.7,2.7,0,0,1,.08-.57,2.85,2.85,0,0,1,1.72-2,2.63,2.63,0,0,1,1.11-.19,2.71,2.71,0,0,1,1.55.53,2.82,2.82,0,0,1,.79.93V151.65a2.77,2.77,0,0,1-2.66.18,2.92,2.92,0,0,1-1.42-1.52,2.89,2.89,0,0,1,1.6-3.76,2.76,2.76,0,0,1,2.48.26V123.42a3.08,3.08,0,0,1-.61,0,2.73,2.73,0,0,1-1.09-.26,2.88,2.88,0,0,1,.18-5.27,2.82,2.82,0,0,1,1.52-.13v-23a2.87,2.87,0,0,1-.56-5.49,2.73,2.73,0,0,1,.56-.15V65.86a2.88,2.88,0,0,1-1.4-2.57,2.7,2.7,0,0,1,.08-.57,2.9,2.9,0,0,1,1.32-1.79V36.31a2.38,2.38,0,0,1-.23-.45,2.9,2.9,0,0,1,.23-2.6V0H1812.64a2.65,2.65,0,0,1,.84.86h0a2.91,2.91,0,0,1,.17,2.72,2.84,2.84,0,0,1-2.08,1.63,2.69,2.69,0,0,1-.57,0,2.72,2.72,0,0,1-1.08-.26,2.81,2.81,0,0,1-1.44-1.57,2.87,2.87,0,0,1,.35-2.71,2.82,2.82,0,0,1,.76-.7h-24.14a2.93,2.93,0,0,1,.13,2.64,2.79,2.79,0,0,1-5.18-.18,3,3,0,0,1,.22-2.46h-8a136.22,136.22,0,0,1-58.57,41.07,2.89,2.89,0,0,1-2.76,3.79h0a2.85,2.85,0,0,1-2.59-2,116.71,116.71,0,0,1-41.07,5.08c-35.73-2.13-70.48-19.33-105.89-14.18-23.73,3.45-44.81,16.64-67.88,23.16a125.55,125.55,0,0,1-100.26-14.65A124.89,124.89,0,0,1,1353.27,0H451.49c1.55,24,2.5,49.17-8.4,70.51-20.42,40-78.84,49.73-117,26.1-26.52-16.4-44.86-44.91-73.55-57.15l-.73-.29c2.48,11.81,4.59,23.68,6.4,35.53C263.51,110,265,150.57,240.3,176.33c-23,23.87-60.22,25.95-93.27,23.3A529.36,529.36,0,0,1,0,166.13V669.5C31.76,690,55,724.59,52.57,761.8c-1.88,29.57-19.15,57.88-14.36,87.12,9.19,55.3,88.31,75.16,101.31,129.73,9.83,41.24-26.84,82.47-68.27,91.3a116.2,116.2,0,0,1-16.08,2.23c76.23,58,114.56,163.13,91.16,256.38-18,71.81-67.38,132-90.47,202.33a292,292,0,0,0-14.52,95.53c.34,21.59,3.06,43.37-.69,64.63-5,28.08-20.9,53-40.65,73.82v671.22c67.38,13.11,114.8,95.72,132.29,123.57,25.76,41,61.9,277.18,46,353.36-6.31,30.3-39.92,64.88-84.65,90.58a4.41,4.41,0,0,1-3.85,2.78,4.57,4.57,0,0,1-1-.06c-27,14.88-57.77,26.45-88.85,32v10.11A4.44,4.44,0,1,1,0,3054V3337a4.39,4.39,0,0,1,1.76,3.27A4.43,4.43,0,0,1,0,3344v152.21H1471.16c-26.42-34.71-43-74.8-42.64-118.5C1430,3208.17,1544.34,3186.48,1669,3120.91ZM1832.35,289.54s0,.08,0,.12c-1.61-.72-3.21-1.45-4.8-2.21a2.79,2.79,0,0,1,4.78,1.51,2.86,2.86,0,0,1,0,.58ZM1813,2867.4h0a3.79,3.79,0,0,1,1.38-5.18h0a3.79,3.79,0,0,1,5.2,1.28h0a3.83,3.83,0,0,1-6.58,3.9Zm.21,24.11a3.64,3.64,0,0,1-.37,1.4,3.86,3.86,0,0,1-5.07,1.83,3.68,3.68,0,0,1-1.63-1.47,3.75,3.75,0,0,1,.24-4.16,3.89,3.89,0,0,1,3.29-1.55,3.72,3.72,0,0,1,3,1.81A3.65,3.65,0,0,1,1813.16,2891.51Zm6.66-50a3.83,3.83,0,1,1,5.21,1.27A3.79,3.79,0,0,1,1819.82,2841.53Zm-39.73,45.36h0a3.78,3.78,0,0,1,1.37-5.17h0a3.79,3.79,0,0,1,5.2,1.28h0a3.82,3.82,0,0,1-6.57,3.89Zm.21,24.11a4,4,0,0,1-.34,1.32,3.86,3.86,0,0,1-5.11,1.92,3.71,3.71,0,0,1-1.64-1.47,3.83,3.83,0,0,1,6.58-3.9A3.7,3.7,0,0,1,1780.3,2911Zm-26.51-8.51h0a3.82,3.82,0,0,1-5.92,4.68c1.87-1.69,3.76-3.37,5.64-5.05A3.27,3.27,0,0,1,1753.79,2902.49Zm-13.44,29.77h0a3.78,3.78,0,0,1,1.38-5.17,4.37,4.37,0,0,1,.69-.33,3.77,3.77,0,0,1,4.5,1.61,3.69,3.69,0,0,1,.51,2.13,3.82,3.82,0,0,1-1.26,2.58,4,4,0,0,1-.62.46,3.83,3.83,0,0,1-3.57.19A3.63,3.63,0,0,1,1740.35,2932.26Zm-1.67,27.15a3.78,3.78,0,0,1-5.2-1.27h0a3.79,3.79,0,0,1,1.37-5.18h0a3.79,3.79,0,0,1,5.2,1.28h0A3.79,3.79,0,0,1,1738.68,2959.41Zm-24.63-11.55a3.64,3.64,0,0,1,.51,2.14h0a4,4,0,0,1-.33,1.31,3.88,3.88,0,0,1-5.12,1.92,3.63,3.63,0,0,1-1.63-1.47,3.76,3.76,0,0,1-.33-3c.59-.74,1.19-1.47,1.79-2.21A3.78,3.78,0,0,1,1714.05,2947.86Zm-12.07,24.6h0a3.79,3.79,0,0,1,5.2,1.27h0a3.83,3.83,0,1,1-5.21-1.27Zm131.62-157.71a3.58,3.58,0,0,1-.74,1.35C1833.11,2815.65,1833.36,2815.2,1833.6,2814.75Zm26.85-106.89c.1.13.21.26.3.4h0a3.79,3.79,0,0,1-1,4.93C1860,2711.41,1860.2,2709.64,1860.45,2707.86Zm4.18-27.28h0a3.71,3.71,0,0,1,3.46,4,3.82,3.82,0,0,1-1.88,3,3.78,3.78,0,0,1-2.86.42C1863.78,2685.51,1864.19,2683,1864.63,2680.58Zm-24.3,188a3.78,3.78,0,0,1,5.19,1.28,3.64,3.64,0,0,1,.52,2.13,4,4,0,0,1-.34,1.32,3.87,3.87,0,0,1-5.12,1.92,3.74,3.74,0,0,1-1.63-1.47h0A3.79,3.79,0,0,1,1840.33,2868.6Zm5.49-20.7a3.79,3.79,0,0,1,1.37-5.17h0a3.78,3.78,0,0,1,5.2,1.27h0a3.83,3.83,0,0,1-6.58,3.9Zm6.87-25.87a3.78,3.78,0,0,1,1.38-5.17,3,3,0,0,1,.7-.33,3.76,3.76,0,0,1,4.5,1.6,3.83,3.83,0,0,1-6.58,3.9Zm6.87-25.87h0a3.79,3.79,0,0,1,1.38-5.18h0a3.75,3.75,0,1,1-1.38,5.18Zm6.86-25.87a3.75,3.75,0,0,1-.48-1.41,3.86,3.86,0,0,1,6.06-3.6,3.75,3.75,0,0,1,1,1.1,3.42,3.42,0,0,1,.32.7,3.84,3.84,0,0,1-6.44,3.82A3.37,3.37,0,0,1,1866.42,2770.29Zm6.78,78.81a3.42,3.42,0,0,1,.7-.32,3.74,3.74,0,0,1,4.49,1.6,3.64,3.64,0,0,1,.51,2.14,3.87,3.87,0,0,1-1.25,2.58,4.53,4.53,0,0,1-.63.45,3.83,3.83,0,0,1-3.57.2,3.68,3.68,0,0,1-1.63-1.47A3.79,3.79,0,0,1,1873.2,2849.1Zm5.49-20.69h0a3.79,3.79,0,0,1,1.37-5.17h0a3.75,3.75,0,1,1-1.38,5.18Zm6.87-25.88a3.79,3.79,0,0,1,1.37-5.17h0a3.75,3.75,0,1,1-1.38,5.17Zm6.87-25.87h0a3.78,3.78,0,0,1,1.37-5.17h0a3.77,3.77,0,0,1,5.19,1.27h0a3.82,3.82,0,0,1-6.57,3.9Zm6.76,78.82h0a3.75,3.75,0,1,1-1.37,5.18h0A3.79,3.79,0,0,1,1899.19,2855.48Zm5.5-20.7a3.79,3.79,0,0,1,1.37-5.17h0a3.79,3.79,0,0,1,5.2,1.27,3.66,3.66,0,0,1,.51,2.14h0a3.79,3.79,0,0,1-.34,1.32,3.85,3.85,0,0,1-5.11,1.91A3.63,3.63,0,0,1,1904.69,2834.78Zm1.32-84.36h0a3.89,3.89,0,0,1-2.94,2.15,3.77,3.77,0,0,1-3.32-1.17,3.84,3.84,0,0,1-.45-.61,3.71,3.71,0,0,1-.49-1.41,3.76,3.76,0,0,1,.74-2.75,3.86,3.86,0,0,1,3.29-1.56,3.81,3.81,0,0,1,2,.72,3.76,3.76,0,0,1,1,1.1,3.6,3.6,0,0,1,.32.69A3.73,3.73,0,0,1,1906,2750.42Zm-5.23-109.5h0a3.78,3.78,0,0,1,1.37-5.17h0a3.78,3.78,0,0,1,5.2,1.27h0a3.79,3.79,0,0,1-1.37,5.18h0A3.79,3.79,0,0,1,1900.78,2640.92Zm-.3,22a3.61,3.61,0,0,1,.51,2.13h0a3.68,3.68,0,0,1-.34,1.31,3.85,3.85,0,0,1-5.11,1.92,3.66,3.66,0,0,1-1.63-1.46,3.79,3.79,0,0,1,1.37-5.18h0A3.79,3.79,0,0,1,1900.48,2662.9Zm-6.87,25.87h0a3.82,3.82,0,1,1-5.2-1.28h0A3.79,3.79,0,0,1,1893.61,2688.77Zm-6.73,29.4h0a3.88,3.88,0,0,1-2.94,2.14,3.71,3.71,0,0,1-3.52-5.94,3.89,3.89,0,0,1,1.12-1,3.85,3.85,0,0,1,2.17-.53,3.75,3.75,0,0,1,1.47.37A3.71,3.71,0,0,1,1886.88,2718.17Zm-7,22.34h0a3.78,3.78,0,0,1-1.38,5.17h0a3.79,3.79,0,0,1-5.2-1.28h0a3.78,3.78,0,0,1,1.37-5.17h0A3.78,3.78,0,0,1,1879.88,2740.51Zm-6.77-78.82a3.77,3.77,0,0,1-4.47-.42c.52-2.15,1.06-4.3,1.63-6.43a3.75,3.75,0,0,1,4.21,1.68h0A3.79,3.79,0,0,1,1873.11,2661.69ZM1736.28,160.16q-.46-2.81-.91-5.61a2,2,0,0,1,.35,0h0a2.86,2.86,0,0,1,.56,5.63Zm-64.19,2947.65a3.18,3.18,0,0,1-.63.46h0l-.13.07q-.52-3.48-1-7a3.71,3.71,0,0,1,1.74,6.45Zm6.24-25.41h0a3.79,3.79,0,0,1-5.2-1.28h0a3.78,3.78,0,0,1,1.38-5.17h0a3.78,3.78,0,0,1,5.2,1.27h0A3.79,3.79,0,0,1,1678.33,3082.4Zm6.87-25.87a3.8,3.8,0,0,1-4.75-.67,4.06,4.06,0,0,1-.46-.61,3.69,3.69,0,0,1-.48-1.41,3.86,3.86,0,0,1,6.06-3.59,3.51,3.51,0,0,1,1,1.1,3.64,3.64,0,0,1,.33.69A3.82,3.82,0,0,1,1685.2,3056.53Zm6.87-25.87a3.76,3.76,0,1,1-3.83-6.46h0a3.79,3.79,0,0,1,5.2,1.28h0A3.79,3.79,0,0,1,1692.07,3030.66Zm2.6-26.1a3.72,3.72,0,0,1-.68-5.22,4,4,0,0,1,3.29-1.55,3.71,3.71,0,0,1,3.17,5.35h0a3.89,3.89,0,0,1-2.93,2.15A3.73,3.73,0,0,1,1694.67,3004.56Zm9.66,84.22a3.75,3.75,0,1,1-3.82-6.45h0a3.77,3.77,0,0,1,5.19,1.27h0A3.8,3.8,0,0,1,1704.33,3088.78Zm6.87-25.88a3.75,3.75,0,1,1-3.83-6.45h0a3.79,3.79,0,0,1,5.2,1.28h0A3.78,3.78,0,0,1,1711.2,3062.9Zm8.38-27.51a3.85,3.85,0,0,1-2.94,2.14,3.76,3.76,0,0,1-3.32-1.16,4.35,4.35,0,0,1-.45-.61,3.64,3.64,0,0,1-.48-1.41,3.85,3.85,0,0,1,6-3.6,3.75,3.75,0,0,1,1,1.1,3.68,3.68,0,0,1,.32.7,3.73,3.73,0,0,1-.18,2.84Zm5.36-24.23a3.75,3.75,0,1,1-3.83-6.45h0a3.77,3.77,0,0,1,5.19,1.27h0A3.78,3.78,0,0,1,1724.94,3011.16Zm1.67-27.15a3.78,3.78,0,0,1,1.38-5.17h0a3.76,3.76,0,0,1,5.19,1.27h0a3.82,3.82,0,0,1-6.57,3.9Zm12.1,83.63a3.85,3.85,0,0,1-1.51,1.64,4,4,0,0,1-1.43.51,3.73,3.73,0,0,1-3.52-5.95,3.9,3.9,0,0,1,3.29-1.55,3.61,3.61,0,0,1,1.48.38A3.71,3.71,0,0,1,1738.71,3067.64Zm5.36-24.23a3.75,3.75,0,1,1-3.83-6.45h0a3.78,3.78,0,0,1,5.2,1.27h0A3.79,3.79,0,0,1,1744.07,3043.41Zm6.87-25.88a3.82,3.82,0,0,1-4.76-.66,3.43,3.43,0,0,1-.45-.61,3.69,3.69,0,0,1-.48-1.41,3.85,3.85,0,0,1,6.06-3.59,3.72,3.72,0,0,1,1.32,1.79A3.79,3.79,0,0,1,1750.94,3017.53Zm6.87-25.86a3.79,3.79,0,0,1-5.2-1.28h0a3.78,3.78,0,0,1,1.37-5.17h0a3.78,3.78,0,0,1,5.19,1.28h0A3.79,3.79,0,0,1,1757.81,2991.67Zm6.87-25.88h0a3.79,3.79,0,0,1-5.2-1.28h0a3.78,3.78,0,0,1,1.38-5.17,4.37,4.37,0,0,1,.69-.33,3.75,3.75,0,0,1,3.13,6.78Zm1.67-27.15a3.78,3.78,0,0,1,1.37-5.17h0a3.79,3.79,0,0,1,5.2,1.28h0a3.82,3.82,0,0,1-6.57,3.9Zm10.59,85.27h0a3.79,3.79,0,0,1-5.2-1.27h0a3.78,3.78,0,0,1,1.37-5.17h0a3.79,3.79,0,0,1,5.2,1.27h0A3.79,3.79,0,0,1,1776.94,3023.91Zm7.49-26.33a4,4,0,0,1-.62.46,3.81,3.81,0,0,1-4.75-.66,3.92,3.92,0,0,1-.45-.62,3.71,3.71,0,0,1-.49-1.41,3.84,3.84,0,0,1,1.86-3.76,4.94,4.94,0,0,1,.7-.33,3.77,3.77,0,0,1,4.5,1.6,3.6,3.6,0,0,1,.32.69A3.79,3.79,0,0,1,1784.43,2997.58Zm6.25-25.41a3.75,3.75,0,1,1-3.83-6.45h0a3.79,3.79,0,0,1,5.2,1.28h0A3.79,3.79,0,0,1,1790.68,2972.17Zm6.87-25.88a3.75,3.75,0,1,1-3.83-6.44h0a3.75,3.75,0,1,1,3.83,6.44Zm1.67-27.15h0a3.79,3.79,0,0,1,1.38-5.17h0a3.75,3.75,0,1,1-1.37,5.17Zm10.58,85.28A3.75,3.75,0,1,1,1806,2998h0a3.79,3.79,0,0,1,5.2,1.28h0A3.79,3.79,0,0,1,1809.8,3004.42Zm6.88-25.88a3.75,3.75,0,0,1-5.21-1.27,3.71,3.71,0,0,1-.49-1.41,3.9,3.9,0,0,1,.69-2.69,3.86,3.86,0,0,1,5.37-.91,3.78,3.78,0,0,1,1,1.1,3.68,3.68,0,0,1,.32.7A3.81,3.81,0,0,1,1816.68,2978.54Zm6.87-25.87a3.78,3.78,0,0,1-5.2-1.28h0a3.79,3.79,0,0,1,1.38-5.17h0a3.79,3.79,0,0,1,5.2,1.27h0A3.79,3.79,0,0,1,1823.55,2952.67Zm8.37-27.51a3.85,3.85,0,0,1-2.93,2.14,3.72,3.72,0,0,1-3.53-5.94,3.9,3.9,0,0,1,1.13-1,3.81,3.81,0,0,1,2.16-.54,3.7,3.7,0,0,1,3.17,5.34Zm.16-25.51h0a3.79,3.79,0,0,1,1.38-5.18h0a3.79,3.79,0,0,1,5.2,1.28h0a3.83,3.83,0,0,1-6.58,3.9Zm10.59,85.27h0a3.79,3.79,0,0,1-5.2-1.28h0a3.78,3.78,0,0,1,1.38-5.17h0a3.79,3.79,0,0,1,5.2,1.27h0A3.78,3.78,0,0,1,1842.67,2984.92Zm8.38-27.52a3.86,3.86,0,0,1-2.94,2.15,3.74,3.74,0,0,1-3.31-1.17,3.05,3.05,0,0,1-.46-.61,3.69,3.69,0,0,1-.48-1.41,3.81,3.81,0,0,1,.73-2.75,3.9,3.9,0,0,1,1.13-1,3.81,3.81,0,0,1,2.16-.54,3.72,3.72,0,0,1,2,.71,3.51,3.51,0,0,1,1,1.1,4.37,4.37,0,0,1,.33.69,3.73,3.73,0,0,1-.19,2.84Zm5.36-24.22a3.79,3.79,0,0,1-5.2-1.28h0a3.79,3.79,0,0,1,1.38-5.18h0a3.79,3.79,0,0,1,5.2,1.28h0A3.79,3.79,0,0,1,1856.41,2933.18Zm6.87-25.88h0a3.8,3.8,0,0,1-5.2-1.27h0a3.78,3.78,0,0,1,1.38-5.17h0a3.75,3.75,0,1,1,3.82,6.45Zm1.67-27.15a3.79,3.79,0,0,1,1.37-5.17h0a3.78,3.78,0,0,1,5.2,1.27h0a3.83,3.83,0,0,1-6.58,3.9Zm10.59,85.27h0a3.78,3.78,0,0,1-5.2-1.27h0a3.8,3.8,0,0,1,1.37-5.18h0a3.79,3.79,0,0,1,5.2,1.28h0A3.78,3.78,0,0,1,1875.54,2965.42Zm6.87-25.87a3.74,3.74,0,0,1-5-5.37,3.86,3.86,0,0,1,5.37-.91,3.75,3.75,0,0,1,1,1.1,3.42,3.42,0,0,1,.32.7A3.79,3.79,0,0,1,1882.41,2939.55Zm6.87-25.87a3.75,3.75,0,1,1-3.83-6.45h0a3.78,3.78,0,0,1,5.2,1.27h0A3.79,3.79,0,0,1,1889.28,2913.68Zm1.67-27.15a3.78,3.78,0,0,1,1.38-5.17,3.49,3.49,0,0,1,.7-.34,3.74,3.74,0,0,1,3.75,6.32,3.9,3.9,0,0,1-.63.46A3.78,3.78,0,0,1,1891,2886.53Zm10.59,85.27h0a3.79,3.79,0,0,1-5.2-1.28h0a3.78,3.78,0,0,1,1.38-5.17h0a3.75,3.75,0,1,1,3.82,6.45Zm6.87-25.87a3.75,3.75,0,1,1-3.83-6.45h0a3.78,3.78,0,0,1,5.19,1.28h0A3.8,3.8,0,0,1,1908.41,2945.93Zm8.24-31a3.6,3.6,0,0,1,.32.69,3.82,3.82,0,0,1-6.89,3.21,3.71,3.71,0,0,1-.49-1.41,3.85,3.85,0,0,1,1.86-3.77,4.58,4.58,0,0,1,.71-.33,3.82,3.82,0,0,1,3.49.51A3.76,3.76,0,0,1,1916.65,2914.88Zm1.48-109.87h0a3.82,3.82,0,0,1-6.57,3.9h0a3.78,3.78,0,0,1,1.37-5.17h0A3.79,3.79,0,0,1,1918.13,2805Zm-5.39-84h0a3.83,3.83,0,1,1-5.21-1.28h0A3.79,3.79,0,0,1,1912.74,2721Zm1.48-109.87a3.82,3.82,0,1,1-5.2-1.27,3.19,3.19,0,0,1,.7-.33A3.76,3.76,0,0,1,1914.22,2611.15Zm-32.87,19.5a3.82,3.82,0,0,1-5,5.29q1.31-3.53,2.76-7A3.71,3.71,0,0,1,1881.35,2630.65Zm34.3-2426.87a2.76,2.76,0,0,1,3.34,1.08,2.9,2.9,0,0,1-.84,4,2.8,2.8,0,0,1-1.59.43,2.73,2.73,0,0,1-1.09-.26,2.88,2.88,0,0,1,.18-5.27Zm-2.23,29.6a2.88,2.88,0,0,1,1.27-1,2.74,2.74,0,0,1,2.65.35,3,3,0,0,1,.74.8,2.92,2.92,0,0,1,.42,1.61,2.86,2.86,0,0,1-1.32,2.33,2.69,2.69,0,0,1-1.58.44,2.73,2.73,0,0,1-1.09-.26,2.83,2.83,0,0,1-1.44-1.58A2.9,2.9,0,0,1,1913.42,233.38ZM1906.07,19.9a2.84,2.84,0,0,1,2.9-2.77h0a2.87,2.87,0,0,1-.19,5.73h0a2.83,2.83,0,0,1-2.71-3Zm-1,28.61a2.81,2.81,0,1,1,2.71,3h0a2.83,2.83,0,0,1-2.71-3Zm-1,28.61a2.84,2.84,0,0,1,2.91-2.76h0a2.86,2.86,0,1,1-2.91,2.77Zm-1,28.61a2.83,2.83,0,0,1,2.9-2.76h0a2.86,2.86,0,0,1-.2,5.72h0a2.83,2.83,0,0,1-2.71-3Zm-1,28.62a2.84,2.84,0,0,1,2.9-2.77h0a2.87,2.87,0,0,1-.19,5.73h0a2.84,2.84,0,0,1-2.71-3Zm-1,28.61a2.85,2.85,0,0,1,2.91-2.77h0a2.87,2.87,0,1,1-2.91,2.77Zm-1,28.61a2.84,2.84,0,0,1,2.91-2.76h0a2.86,2.86,0,0,1-.2,5.72h0a2.84,2.84,0,0,1-2.71-2.95Zm-1,28.62a2.84,2.84,0,0,1,2.9-2.77h0a2.86,2.86,0,1,1-2.9,2.77Zm-1,28.61a2.82,2.82,0,0,1,2.9-2.77h0a2.87,2.87,0,1,1-2.9,2.77ZM1893.05,3.54a2.69,2.69,0,0,1,.83-.78,2.78,2.78,0,0,1,3.82.93h0a2.91,2.91,0,0,1,.17,2.73,2.79,2.79,0,0,1-5.17-.18A2.9,2.9,0,0,1,1893.05,3.54Zm-1.5,30.19a2.81,2.81,0,1,1,2.71,3,2.83,2.83,0,0,1-2.71-3Zm-.88,28a2.79,2.79,0,0,1,5.49.19,2.32,2.32,0,0,1,0,.53,2.86,2.86,0,0,1-2.91,2.81,2.83,2.83,0,0,1-2.71-2.95A2.8,2.8,0,0,1,1890.67,61.77Zm-1,29.19a2.81,2.81,0,1,1,2.71,3h0a2.84,2.84,0,0,1-2.7-3Zm-.43,27a2.69,2.69,0,0,1,.83-.78,2.77,2.77,0,0,1,3.82.94,2.89,2.89,0,0,1,.17,2.72,2.82,2.82,0,0,1-1.6,1.49,2.79,2.79,0,0,1-3.57-1.67A2.9,2.9,0,0,1,1889.2,118Zm-1.5,30.19a2.81,2.81,0,1,1,2.71,3,2.83,2.83,0,0,1-2.71-3Zm-.88,28a2.8,2.8,0,0,1,5.5.19,2.73,2.73,0,0,1,0,.57,2.83,2.83,0,0,1-2.9,2.77h0a2.83,2.83,0,0,1-2.7-3A2.24,2.24,0,0,1,1886.82,176.22Zm-1,29.18a2.81,2.81,0,1,1,5.61.2,2.81,2.81,0,1,1-5.61-.19Zm-.44,27a2.87,2.87,0,0,1,.84-.79,2.79,2.79,0,0,1,3.82.94,2.89,2.89,0,0,1,.17,2.72,2.79,2.79,0,0,1-5.17-.17A2.92,2.92,0,0,1,1885.34,232.44Zm-1.49,30.19a2.81,2.81,0,1,1,2.71,3,2.83,2.83,0,0,1-2.71-3ZM1878,19a2.84,2.84,0,0,1,2.91-2.76h0a2.83,2.83,0,0,1,2.71,3h0a2.83,2.83,0,0,1-2.9,2.76h0A2.84,2.84,0,0,1,1878,19Zm-1,28.62a2.84,2.84,0,0,1,2.91-2.77h0a2.85,2.85,0,0,1,2.71,3h0a2.84,2.84,0,0,1-2.91,2.76h0a2.83,2.83,0,0,1-2.71-3Zm-1,28.61a2.84,2.84,0,0,1,2.9-2.77h0a2.87,2.87,0,1,1-2.91,2.77Zm-1,28.61A2.83,2.83,0,0,1,1878,102h0a2.84,2.84,0,0,1,2.71,3h0a2.84,2.84,0,0,1-2.9,2.77h0a2.83,2.83,0,0,1-2.71-3Zm-1,28.61a2.84,2.84,0,0,1,2.91-2.76h0a2.84,2.84,0,0,1,2.71,3h0a2.84,2.84,0,0,1-2.91,2.76h0a2.84,2.84,0,0,1-2.71-3Zm-1,28.62a2.84,2.84,0,0,1,2.9-2.77h0a2.86,2.86,0,1,1-2.91,2.77Zm-1,28.61a2.84,2.84,0,0,1,2.9-2.77h0a2.83,2.83,0,0,1,2.7,3h0a2.84,2.84,0,0,1-2.9,2.77h0a2.84,2.84,0,0,1-2.71-3Zm-1,28.61a2.82,2.82,0,0,1,2.9-2.76h0a2.86,2.86,0,1,1-2.91,2.76Zm-1,28.61a2.84,2.84,0,0,1,2.91-2.76h0a2.86,2.86,0,1,1-2.91,2.77Zm1.94,25.85h0a2.83,2.83,0,0,1,2.71,3h0a2.82,2.82,0,0,1-2.9,2.76h0a2.82,2.82,0,0,1-2.71-2.95h0A2.84,2.84,0,0,1,1872.23,273.7ZM1865,2.59a2.69,2.69,0,0,1,.84-.77,2.78,2.78,0,0,1,3.82.93h0a2.94,2.94,0,0,1,.17,2.72,2.8,2.8,0,0,1-5.18-.17A2.94,2.94,0,0,1,1865,2.59Zm-1.49,30.2a2.82,2.82,0,0,1,2.9-2.77h0a2.86,2.86,0,1,1-2.9,2.77Zm-.89,28a2.85,2.85,0,1,1-.08.57A3.56,3.56,0,0,1,1862.59,60.83Zm1.86,26.42a2.84,2.84,0,0,1,2.72,3h0a2.84,2.84,0,0,1-2.91,2.77h0a2.86,2.86,0,0,1,.19-5.72ZM1861.12,117a2.85,2.85,0,0,1,.84-.78,2.79,2.79,0,0,1,3.82.94,2.91,2.91,0,0,1,.16,2.72,2.79,2.79,0,0,1-5.17-.17,3.06,3.06,0,0,1-.18-1.12A2.94,2.94,0,0,1,1861.12,117Zm1.41,27.43a2.87,2.87,0,1,1-2.9,2.77A2.84,2.84,0,0,1,1862.53,144.47Zm-3.79,30.81a2.81,2.81,0,0,1,5.54.76h0a2.84,2.84,0,0,1-2.91,2.76h0a2.83,2.83,0,0,1-2.71-3A3.56,3.56,0,0,1,1858.74,175.28Zm-1,29.18a2.83,2.83,0,0,1,2.9-2.76h0a2.86,2.86,0,1,1-2.9,2.76Zm-.43,27a2.85,2.85,0,0,1,.84-.78,2.77,2.77,0,0,1,3.82.94,2.91,2.91,0,0,1,.16,2.72,2.79,2.79,0,0,1-5.17-.17A2.91,2.91,0,0,1,1857.27,231.49Zm-1.5,30.2a2.84,2.84,0,0,1,2.91-2.77h0a2.87,2.87,0,1,1-2.91,2.77Zm2,25.84a2.83,2.83,0,0,1,2.67,2.38,3.77,3.77,0,0,1,0,.58,2.81,2.81,0,1,1-5.62-.19,2.89,2.89,0,0,1,.08-.58A2.84,2.84,0,0,1,1857.72,287.53ZM1849.92,18a2.84,2.84,0,0,1,2.9-2.77h0a2.87,2.87,0,0,1-.2,5.73h0a2.84,2.84,0,0,1-2.71-3Zm-1,28.61a2.81,2.81,0,1,1,2.71,3h0a2.83,2.83,0,0,1-2.71-3Zm-1,28.61a2.82,2.82,0,0,1,2.9-2.76h0a2.86,2.86,0,1,1-2.9,2.77Zm-1,28.62a2.84,2.84,0,0,1,2.91-2.77h0a2.86,2.86,0,0,1-.2,5.72h0a2.83,2.83,0,0,1-2.71-3Zm-1,28.61a2.84,2.84,0,0,1,2.9-2.77h0a2.87,2.87,0,0,1-.19,5.73h0a2.85,2.85,0,0,1-2.71-3Zm-1,28.61a2.83,2.83,0,0,1,2.9-2.76h0a2.86,2.86,0,1,1-2.9,2.76Zm-1,28.61a2.84,2.84,0,0,1,2.91-2.76h0a2.86,2.86,0,0,1-.19,5.72h0a2.84,2.84,0,0,1-2.71-2.95Zm-1,28.62a2.84,2.84,0,0,1,2.91-2.77h0a2.86,2.86,0,1,1-2.91,2.77Zm-1,28.61a2.84,2.84,0,0,1,2.9-2.77h0a2.87,2.87,0,1,1-2.9,2.77Zm1.94,25.84a2.87,2.87,0,0,1-.19,5.73h0a2.87,2.87,0,0,1,.19-5.73ZM1836.9,1.65a2.69,2.69,0,0,1,.83-.78,2.79,2.79,0,0,1,3.83.93,3,3,0,0,1,.42,1.62,3,3,0,0,1-.25,1.11,2.84,2.84,0,0,1-2.65,1.66,2.81,2.81,0,0,1-2.53-1.84A2.92,2.92,0,0,1,1836.9,1.65Zm-1.49,30.19a2.82,2.82,0,0,1,2.9-2.76h0a2.86,2.86,0,1,1-2.9,2.77Zm-.89,28a2.8,2.8,0,0,1,5.5.19,3.69,3.69,0,0,1,0,.58,2.84,2.84,0,0,1-2.91,2.76h0a2.84,2.84,0,0,1-2.71-2.95A2.8,2.8,0,0,1,1834.52,59.88Zm-1,29.19a2.81,2.81,0,1,1,5.61.19h0a2.84,2.84,0,0,1-2.9,2.77h0a2.84,2.84,0,0,1-2.71-3Zm-.43,27a2.72,2.72,0,0,1,.84-.78,2.77,2.77,0,0,1,3.82.94,2.92,2.92,0,0,1,.42,1.61,2.86,2.86,0,0,1-.26,1.11,2.79,2.79,0,0,1-5.17-.18,2.93,2.93,0,0,1,.35-2.7Zm-1.5,30.19a2.81,2.81,0,1,1,2.71,3,2.84,2.84,0,0,1-2.71-3Zm-.88,28a2.81,2.81,0,0,1,2.82-2.19,2.85,2.85,0,0,1,2.71,3h0a2.82,2.82,0,0,1-2.9,2.76h0a2.83,2.83,0,0,1-2.71-3A2.8,2.8,0,0,1,1830.67,174.33Zm-1,29.18a2.83,2.83,0,0,1,2.9-2.76h0a2.87,2.87,0,1,1-2.9,2.77Zm-.43,27a2.75,2.75,0,0,1,.84-.79,2.79,2.79,0,0,1,3.82.94,3,3,0,0,1,.42,1.62,2.77,2.77,0,0,1-.26,1.1,2.78,2.78,0,0,1-5.17-.17A2.9,2.9,0,0,1,1829.2,230.55Zm-1.5,30.19a2.83,2.83,0,0,1,2.9-2.76h0a2.86,2.86,0,1,1-2.91,2.76Zm-5.85-243.68a2.83,2.83,0,0,1,2.9-2.76h0a2.83,2.83,0,0,1,2.71,3h0a2.83,2.83,0,0,1-2.9,2.76h0a2.82,2.82,0,0,1-2.71-2.95Zm-1,28.62a2.84,2.84,0,0,1,2.91-2.77h0a2.84,2.84,0,0,1,2.71,3h0a2.83,2.83,0,0,1-2.9,2.76h0a2.84,2.84,0,0,1-2.71-3Zm-1,28.61a2.85,2.85,0,0,1,2.91-2.77h0a2.87,2.87,0,1,1-2.91,2.77Zm-1,28.61a2.84,2.84,0,0,1,2.9-2.77h0a2.84,2.84,0,0,1,2.7,3h0a2.82,2.82,0,0,1-2.9,2.77h0a2.83,2.83,0,0,1-2.71-3Zm-1,28.61a2.82,2.82,0,0,1,2.9-2.76h0a2.83,2.83,0,0,1,2.71,2.95h0a2.83,2.83,0,0,1-2.9,2.76h0a2.83,2.83,0,0,1-2.71-2.95Zm-1,28.62a2.84,2.84,0,0,1,2.91-2.77h0a2.87,2.87,0,1,1-2.91,2.77Zm-1,28.61A2.84,2.84,0,0,1,1819,186h0a2.85,2.85,0,0,1,2.71,3h0a2.85,2.85,0,0,1-2.91,2.77h0a2.84,2.84,0,0,1-2.71-3Zm-1,28.61a2.83,2.83,0,0,1,2.9-2.76h0a2.86,2.86,0,1,1-2.91,2.77Zm-1,28.61a2.82,2.82,0,0,1,2.9-2.76h0a2.86,2.86,0,1,1-2.9,2.77Zm-1,28.62a2.84,2.84,0,0,1,2.91-2.77h0a2.84,2.84,0,0,1,2.71,3h0a2.84,2.84,0,0,1-2.91,2.76h0a2.83,2.83,0,0,1-2.71-2.95Zm-4-246.26a3,3,0,0,1,1.1-.19,2.8,2.8,0,0,1,.57.08,2.88,2.88,0,0,1-.19,5.61,2.19,2.19,0,0,1-.57,0,2.73,2.73,0,0,1-1.09-.26,3,3,0,0,1-1.42-1.52A2.9,2.9,0,0,1,1809.13,28.32Zm-2.69,30.62a2.86,2.86,0,0,1,1.73-2,2.58,2.58,0,0,1,1.1-.19,2.78,2.78,0,0,1,.57.07,2.88,2.88,0,0,1-.19,5.61,2.8,2.8,0,0,1-1.66-.22,2.87,2.87,0,0,1-1.62-2.7A2.78,2.78,0,0,1,1806.44,58.94Zm.77,26.61a2.74,2.74,0,0,1,1.1-.19,2.1,2.1,0,0,1,.56.08,2.88,2.88,0,0,1-.19,5.61,2.73,2.73,0,0,1-.57,0,2.91,2.91,0,0,1-1.08-.27,2.88,2.88,0,0,1,.18-5.27Zm-2.24,29.6a2.88,2.88,0,0,1,1.27-1,2.74,2.74,0,0,1,1.67-.11,2.82,2.82,0,0,1,1.72,1.26h0a2.91,2.91,0,0,1,.17,2.72,2.84,2.84,0,0,1-2.08,1.63,2.92,2.92,0,0,1-1.65-.23,2.86,2.86,0,0,1-1.45-1.57,3.06,3.06,0,0,1-.18-1.12A2.94,2.94,0,0,1,1805,115.15Zm.31,27.62a2.93,2.93,0,0,1,1.1-.19,3.72,3.72,0,0,1,.57.08,2.88,2.88,0,0,1-.19,5.61,2.19,2.19,0,0,1-.57,0,2.73,2.73,0,0,1-1.09-.26,2.93,2.93,0,0,1-1.42-1.52A2.9,2.9,0,0,1,1805.28,142.77Zm-2.69,30.62a2.84,2.84,0,0,1,1.73-2,2.86,2.86,0,0,1,1.66-.12,2.88,2.88,0,0,1-.18,5.61,3.64,3.64,0,0,1-.57,0,2.58,2.58,0,0,1-1.09-.27,2.84,2.84,0,0,1-1.62-2.69A2.78,2.78,0,0,1,1802.59,173.39Zm.76,26.61a2.78,2.78,0,0,1,1.1-.19,2.62,2.62,0,0,1,.57.07,2.88,2.88,0,0,1-.19,5.62,3.64,3.64,0,0,1-.57,0,2.91,2.91,0,0,1-1.08-.27,2.89,2.89,0,0,1,.17-5.27Zm-2.23,29.6a2.88,2.88,0,0,1,1.27-1,2.74,2.74,0,0,1,1.67-.11,2.82,2.82,0,0,1,1.72,1.26h0a2.94,2.94,0,0,1,.17,2.72,2.84,2.84,0,0,1-2.08,1.63,2.73,2.73,0,0,1-.57,0,2.68,2.68,0,0,1-1.08-.26,2.86,2.86,0,0,1-1.45-1.57,3.06,3.06,0,0,1-.18-1.12A2.94,2.94,0,0,1,1801.12,229.6Zm.31,27.62a2.93,2.93,0,0,1,1.1-.19,2.8,2.8,0,0,1,.57.08,2.88,2.88,0,0,1-.19,5.61,2.8,2.8,0,0,1-1.66-.22,3,3,0,0,1-1.42-1.52A2.9,2.9,0,0,1,1801.43,257.22Zm-7.66-241.1a2.85,2.85,0,0,1,2.91-2.77h0a2.87,2.87,0,0,1-.2,5.73h0a2.85,2.85,0,0,1-2.71-3Zm-1,28.61a2.81,2.81,0,1,1,2.71,3h0a2.84,2.84,0,0,1-2.71-3Zm-1,28.61a2.83,2.83,0,0,1,2.9-2.76h0a2.86,2.86,0,1,1-2.9,2.77Zm-1,28.62a2.82,2.82,0,0,1,2.9-2.77h0a2.86,2.86,0,0,1-.19,5.72h0a2.82,2.82,0,0,1-2.71-3Zm-1,28.61a2.85,2.85,0,0,1,2.91-2.77h0a2.87,2.87,0,0,1-.2,5.73h0a2.84,2.84,0,0,1-2.71-3Zm-1,28.61a2.83,2.83,0,0,1,2.9-2.76h0a2.86,2.86,0,1,1-2.9,2.77Zm-1,28.61a2.83,2.83,0,0,1,2.9-2.76h0a2.86,2.86,0,0,1-.19,5.72h0a2.83,2.83,0,0,1-2.71-2.95Zm-1,28.62a2.84,2.84,0,0,1,2.91-2.77h0a2.86,2.86,0,1,1-2.91,2.77Zm-1,28.61a2.84,2.84,0,0,1,2.91-2.77h0a2.87,2.87,0,1,1-2.91,2.77ZM1779.26,30a2.83,2.83,0,0,1,2.9-2.76h0a2.86,2.86,0,1,1-2.9,2.77Zm-.89,28a2.8,2.8,0,0,1,5.5.19,3.69,3.69,0,0,1,0,.58,2.81,2.81,0,1,1-5.61-.19A2.79,2.79,0,0,1,1778.37,58Zm-1,29.19a2.81,2.81,0,1,1,5.61.19h0a2.84,2.84,0,0,1-2.9,2.77h0a2.84,2.84,0,0,1-2.71-3Zm-.43,27a2.72,2.72,0,0,1,.84-.78,2.77,2.77,0,0,1,3.82.94h0a2.94,2.94,0,0,1,.17,2.72,2.79,2.79,0,0,1-5.18-.18,3.06,3.06,0,0,1-.18-1.12A2.88,2.88,0,0,1,1776.9,114.21Zm-1.49,30.19a2.81,2.81,0,1,1,2.71,3,2.82,2.82,0,0,1-2.71-3Zm-.89,28a2.83,2.83,0,0,1,2.83-2.19,2.86,2.86,0,0,1,2.71,2.95h0a2.84,2.84,0,0,1-2.91,2.76h0a2.84,2.84,0,0,1-2.71-2.95A2.8,2.8,0,0,1,1774.52,172.44Zm-1,29.19a2.84,2.84,0,0,1,2.9-2.77h0a2.87,2.87,0,1,1-2.9,2.77Zm-.43,27a2.77,2.77,0,0,1,4.65.15h0a2.93,2.93,0,0,1,.16,2.73,2.78,2.78,0,0,1-5.17-.18A2.92,2.92,0,0,1,1773.05,228.66ZM1765.7,15.17a2.83,2.83,0,0,1,2.9-2.76h0a2.86,2.86,0,0,1-.19,5.72h0a2.83,2.83,0,0,1-2.71-2.95Zm-1,28.62a2.81,2.81,0,1,1,2.71,3h0a2.82,2.82,0,0,1-2.71-3Zm-1,28.61a2.85,2.85,0,0,1,2.91-2.77h0a2.87,2.87,0,1,1-2.91,2.77Zm-1,28.61a2.84,2.84,0,0,1,2.91-2.76h0a2.86,2.86,0,0,1-.2,5.72h0a2.84,2.84,0,0,1-2.71-3Zm-1,28.61a2.81,2.81,0,1,1,2.71,3h0a2.83,2.83,0,0,1-2.71-3Zm-1,28.62a2.82,2.82,0,0,1,2.9-2.77h0a2.87,2.87,0,1,1-2.9,2.77Zm-1,28.61a2.84,2.84,0,0,1,2.91-2.77h0a2.87,2.87,0,0,1-.2,5.73h0a2.85,2.85,0,0,1-2.71-3Zm-1,28.61a2.83,2.83,0,0,1,2.9-2.76h0a2.86,2.86,0,1,1-2.9,2.77ZM1751.18,29a2.85,2.85,0,0,1,2.91-2.77,2.73,2.73,0,0,1,1.55.55h0a2.71,2.71,0,0,1,.69.74,2.89,2.89,0,0,1-.85,4,2.79,2.79,0,0,1-1.59.44,2.84,2.84,0,0,1-2.71-3Zm-.88,28a2.81,2.81,0,0,1,2.82-2.19,2.77,2.77,0,0,1,1.56.54,2.92,2.92,0,0,1,1.12,1.83,2.82,2.82,0,0,1,0,.58,2.85,2.85,0,0,1-1.31,2.33,2.83,2.83,0,0,1-4.22-3.09Zm1.86,26.42a2.79,2.79,0,0,1,1.55.54,2.88,2.88,0,0,1-.16,4.75,2.75,2.75,0,0,1-1.58.43h0a2.86,2.86,0,0,1,.19-5.72Zm-3.33,29.8a2.77,2.77,0,0,1,3.92-.65,2.9,2.9,0,0,1-.16,4.75,2.76,2.76,0,0,1-1.59.43,2.8,2.8,0,0,1-2.52-1.83A2.89,2.89,0,0,1,1748.83,113.27Zm1.4,27.42a2.8,2.8,0,0,1,2.25,1.29,2.89,2.89,0,0,1-.85,4,2.72,2.72,0,0,1-1.59.44,2.87,2.87,0,0,1,.19-5.73Zm-3.79,30.81a2.82,2.82,0,0,1,2.83-2.19,2.72,2.72,0,0,1,1.55.54,2.9,2.9,0,0,1,1.13,1.83,3,3,0,0,1-1.29,2.91,2.76,2.76,0,0,1-1.58.44h0a2.83,2.83,0,0,1-2.71-3A3.7,3.7,0,0,1,1746.44,171.5Zm1.87,26.42a2.79,2.79,0,0,1,1.55.54h0a3.28,3.28,0,0,1,.7.74,2.91,2.91,0,0,1-.86,4,2.77,2.77,0,0,1-3.58-.53c-.24-.69-.48-1.37-.71-2.07A2.83,2.83,0,0,1,1748.31,197.92ZM1736.66,42.84a2.81,2.81,0,1,1,2.71,3h0a2.85,2.85,0,0,1-2.71-3Zm-1,28.62a2.84,2.84,0,0,1,2.9-2.77h0a2.86,2.86,0,1,1-2.91,2.77Zm-1,28.61a2.84,2.84,0,0,1,2.9-2.77h0a2.87,2.87,0,0,1-.19,5.73h0a2.84,2.84,0,0,1-2.71-3Zm-1,28.61a2.83,2.83,0,0,1,2.9-2.77h0a2.87,2.87,0,0,1-.19,5.73h0a2.83,2.83,0,0,1-2.7-3ZM1722.22,56.1a2.9,2.9,0,1,1-.07.58A2.79,2.79,0,0,1,1722.22,56.1Zm1.87,26.43a2.86,2.86,0,1,1-2.91,2.76A2.83,2.83,0,0,1,1724.09,82.53Zm-11-12.7c-.21-.4-.44-.79-.66-1.19A2.69,2.69,0,0,1,1713.13,69.83ZM126,3292.77a4.43,4.43,0,0,1,.71-8.32,5.32,5.32,0,0,1,.89-.14,4.43,4.43,0,0,1,2.64.71C128.87,3287.65,127.47,3290.23,126,3292.77Zm-44.42,42.75a4.44,4.44,0,0,1,4.18-4.42,4.37,4.37,0,0,1,2.21.48C85.84,3332.94,83.71,3334.26,81.54,3335.52Zm-64.77,23.91a4.37,4.37,0,0,1,6.59-1.57C21.17,3358.4,19,3358.93,16.77,3359.43Zm21.05-23.69a4.45,4.45,0,0,1,3.58-2.16,4.3,4.3,0,0,1,1.74.25,4.44,4.44,0,0,1-3,8.36,4.2,4.2,0,0,1-.77-.37A4.43,4.43,0,0,1,37.82,3335.74Zm20.31-20.88a4.44,4.44,0,1,1,4.68,4.18,4.43,4.43,0,0,1-4.68-4.18Zm44.33-2.47a4.43,4.43,0,0,1,8.85-.5c0,.12,0,.23,0,.35-1.4,1.48-2.85,2.92-4.32,4.33A4.42,4.42,0,0,1,102.46,3312.39ZM141.06,3128a4.44,4.44,0,1,1-4.18,4.69h0A4.43,4.43,0,0,1,141.06,3128Zm-6.65-39.62h0a4.44,4.44,0,1,1,4.68,4.18A4.44,4.44,0,0,1,134.41,3088.35Zm9.13,83.94a4.44,4.44,0,1,1-4.19,4.68h0A4.43,4.43,0,0,1,143.54,3172.3Zm-8.94-124.46a4.44,4.44,0,0,1-2.67-3.8h0a4.43,4.43,0,0,1,.79-2.75C133.37,3043.46,134,3045.65,134.6,3047.84Zm-16.44,68.08a3.88,3.88,0,0,1-.9,0,4.45,4.45,0,1,1,.9,0Zm6.66,39.65a4.43,4.43,0,0,1-4.18,4.67,4.59,4.59,0,0,1-.91,0,4.44,4.44,0,0,1-.48-8.68,3.84,3.84,0,0,1,.9-.14A4.43,4.43,0,0,1,124.82,3155.57Zm-6.36,43.9a4.44,4.44,0,0,1,3.26-3.65,5.32,5.32,0,0,1,.89-.14,4.45,4.45,0,0,1,4.68,4.19h0a4.44,4.44,0,0,1-4.18,4.67,4,4,0,0,1-.91,0A4.43,4.43,0,0,1,118.46,3199.47Zm5.73,40.68a4,4,0,0,1,.9-.14,4.44,4.44,0,1,1,.49,8.86,4.49,4.49,0,0,1-.9,0,4.44,4.44,0,0,1-.49-8.68ZM119.81,3067a4.43,4.43,0,0,1-4.12,4.61,3.88,3.88,0,0,1-.9,0,4.44,4.44,0,0,1-.48-8.68,3.84,3.84,0,0,1,.89-.14A4.42,4.42,0,0,1,119.81,3067Zm26.69,158.47a4.44,4.44,0,0,1-4.68-4.18h0a4.44,4.44,0,0,1,4.19-4.68,4.39,4.39,0,0,1,2.13.44c-.32,2.77-.66,5.55-1,8.33A3.64,3.64,0,0,1,146.5,3225.47Zm-34.66-206.9a5.32,5.32,0,0,1,.89-.14,4.44,4.44,0,0,1,.49,8.87,5.43,5.43,0,0,1-.9,0,4.44,4.44,0,0,1-.48-8.69Zm-3,249a4.44,4.44,0,0,1-8.87.5h0a4.44,4.44,0,0,1,8.87-.49Zm-2.47-44.32a4.44,4.44,0,0,1-8.87.5h0a4.44,4.44,0,0,1,8.87-.5ZM103.9,3179a4.44,4.44,0,0,1-8.87.49h0a4.44,4.44,0,0,1,8.87-.49Zm-2.47-44.33a4.44,4.44,0,0,1-8.87.51h0a4.44,4.44,0,0,1,8.87-.5ZM99,3090.33a4.44,4.44,0,0,1-8.86.5h0a4.44,4.44,0,1,1,8.86-.49Zm-7.15-48.51a4.44,4.44,0,1,1-4.18,4.69h0A4.45,4.45,0,0,1,91.8,3041.82ZM87,3288.53a4.44,4.44,0,1,1-6.22-.85A4.43,4.43,0,0,1,87,3288.53Zm-1.57-41.87a4.44,4.44,0,0,1-8.86.51v0a4.44,4.44,0,1,1,8.86-.49ZM83,3202.35a4.44,4.44,0,1,1-4.68-4.19A4.44,4.44,0,0,1,83,3202.35ZM80.51,3158a4.44,4.44,0,0,1-8.87.51h0a4.44,4.44,0,0,1,8.87-.5Zm-2.92-46a4.44,4.44,0,0,1-2,5.94,4.56,4.56,0,0,1-1.7.45,4.44,4.44,0,1,1,1.25-8.61A4.39,4.39,0,0,1,77.59,3112Zm-2-42.61a4.45,4.45,0,0,1-4.19,4.68h0a4.43,4.43,0,0,1-4.68-4.18h0a4.44,4.44,0,1,1,8.87-.5Zm-7.16-48.5a4.44,4.44,0,0,1,.5,8.87h0a4.44,4.44,0,0,1-4.68-4.18h0A4.43,4.43,0,0,1,68.41,3020.9Zm-3.88,249.16a4.44,4.44,0,0,1-8.87.5h0a4.44,4.44,0,0,1,8.87-.49Zm-2.47-44.33a4.44,4.44,0,0,1-8.87.51h0a4.44,4.44,0,0,1,8.87-.5Zm-2.48-44.3a4.44,4.44,0,0,1-8.86.5h0a4.44,4.44,0,1,1,8.86-.49Zm-2.47-44.32a4.44,4.44,0,0,1-8.86.5h0a4.44,4.44,0,0,1,8.87-.49Zm-2.47-44.31a4.44,4.44,0,0,1-8.87.5h0a4.44,4.44,0,0,1,8.87-.49Zm-7.15-48.51A4.44,4.44,0,1,1,43.3,3049h0A4.45,4.45,0,0,1,47.49,3044.29ZM42.7,3291a4.45,4.45,0,0,1-.84,6.23,5.09,5.09,0,0,1-.74.46,4.37,4.37,0,0,1-1.7.44,4.43,4.43,0,0,1-2.52-.61,4.55,4.55,0,0,1-1.26-1.13A4.44,4.44,0,1,1,42.7,3291Zm-2.19-39.33a4.44,4.44,0,0,1-3.56,2.15,4.36,4.36,0,0,1-2.52-.62,4.43,4.43,0,1,1,6.08-1.53Zm-1.85-46.84h0a4.43,4.43,0,0,1-2.48,4.23,4.56,4.56,0,0,1-1.71.45,4.44,4.44,0,1,1,4.19-4.68ZM35.57,3163a4.47,4.47,0,0,1-1.86,1.72,4.66,4.66,0,0,1-1.71.45,4.54,4.54,0,0,1-2.52-.62,4.44,4.44,0,1,1,6.09-1.55Zm-2.3-48.54A4.44,4.44,0,1,1,29,3112h0A4.41,4.41,0,0,1,33.27,3114.48ZM23,3069.85a4.44,4.44,0,0,1,7.64,4.54,4.5,4.5,0,0,1-1.87,1.72,4.37,4.37,0,0,1-1.7.44,4.43,4.43,0,0,1-4.07-6.7Zm-.31,247a4.44,4.44,0,0,1-8.86.51v0a4.44,4.44,0,1,1,8.86-.49Zm-2.47-44.31a4.44,4.44,0,0,1-8.86.5h0a4.44,4.44,0,1,1,8.86-.49Zm-2.47-44.32a4.44,4.44,0,0,1-8.87.5h0a4.44,4.44,0,0,1,8.87-.49Zm-2.47-44.31a4.44,4.44,0,0,1-8.87.5h0a4.44,4.44,0,0,1,8.87-.49Zm-2.48-44.32a4.44,4.44,0,1,1-8.86.5h0a4.44,4.44,0,1,1,8.86-.5ZM1.46,3095.77h0A4.44,4.44,0,1,1,6.14,3100,4.43,4.43,0,0,1,1.46,3095.76Z"/><path class="cls-2" d="M252.5,39.46c28.69,12.24,47,40.75,73.55,57.15,38.2,23.63,96.62,13.94,117-26.1C454,49.17,453,24,451.49,0H242c3.79,12.89,7,26,9.76,39.17Z"/><path class="cls-3" d="M55.17,1072.18A116.2,116.2,0,0,0,71.25,1070c41.43-8.83,78.1-50.06,68.27-91.3-13-54.57-92.12-74.43-101.31-129.73-4.79-29.24,12.48-57.55,14.36-87.12C55,724.59,31.76,690,0,669.5v370c13,6.61,25.94,13.25,38.11,20.84C44,1064.05,49.68,1068,55.17,1072.18Z"/><path class="cls-4" d="M240.3,176.33C265,150.57,263.51,110,258.17,74.7c-1.81-11.85-3.92-23.72-6.4-35.53C249,26,245.8,12.89,242,0H0V166.13a529.36,529.36,0,0,0,147,33.5C180.08,202.28,217.33,200.2,240.3,176.33Z"/><path class="cls-4" d="M1393.61,42.23a125.55,125.55,0,0,0,100.26,14.65c23.07-6.52,44.15-19.71,67.88-23.16,35.41-5.15,70.16,12.05,105.89,14.18a116.71,116.71,0,0,0,41.07-5.08,3.1,3.1,0,0,1-.12-.92h0a2.8,2.8,0,0,1,5.47-.83A136.22,136.22,0,0,0,1772.63,0h-14.92a2.32,2.32,0,0,1,0,.59,2.89,2.89,0,0,1-1.32,2.33,2.75,2.75,0,0,1-1.58.43,2.8,2.8,0,0,1-2.53-1.83A2.82,2.82,0,0,1,1752.2,0h-22.56a2.9,2.9,0,0,1-.21.75,2.82,2.82,0,0,1-2.65,1.66,2.84,2.84,0,0,1-2.53-1.84,2.64,2.64,0,0,1-.14-.57h-22.88a2.79,2.79,0,0,1-2,1.43,3.64,3.64,0,0,1-.57,0,2.92,2.92,0,0,1-1.09-.27,2.87,2.87,0,0,1-1.26-1.2h-24a3.24,3.24,0,0,1-.66.36A2.8,2.8,0,0,1,1669.1,0H1353.27A124.89,124.89,0,0,0,1393.61,42.23Zm344-28a2.83,2.83,0,0,1,2.9-2.77h0a2.87,2.87,0,0,1-.19,5.73h0a2.83,2.83,0,0,1-2.71-3Zm-14.52,13.83a2.81,2.81,0,1,1,2.71,3,2.83,2.83,0,0,1-2.71-3Zm-13.56-14.77a2.84,2.84,0,0,1,2.91-2.77h0a2.86,2.86,0,0,1-.2,5.72h0a2.83,2.83,0,0,1-2.71-2.95Zm-12.71,11.26a2.86,2.86,0,0,1,1.66-.12,2.88,2.88,0,0,1-.19,5.61,2.16,2.16,0,0,1-.57,0,2.72,2.72,0,0,1-1.08-.26,2.88,2.88,0,0,1,.18-5.27Zm-15.36-12.21a2.85,2.85,0,0,1,2.9-2.77h0a2.84,2.84,0,0,1,2.7,3h0a2.82,2.82,0,0,1-2.9,2.77h0a2.83,2.83,0,0,1-2.71-3Zm-25.17-3.71h0a2.83,2.83,0,0,1,2.69,2.64l-3.06-2.61C1656.06,8.65,1656.18,8.63,1656.31,8.63Z"/><path class="cls-5" d="M41.34,1626.42a292,292,0,0,1,14.52-95.53c23.09-70.34,72.44-130.52,90.47-202.33,23.4-93.25-14.93-198.39-91.16-256.38-5.49-4.18-11.18-8.13-17.06-11.79C25.94,1052.8,13,1046.16,0,1039.55v725.32c19.75-20.82,35.69-45.74,40.65-73.82C44.4,1669.79,41.68,1648,41.34,1626.42Z"/><path class="cls-4" d="M1812.36,1965.34l107.7-107.71v-49L1796,1932.69A346.69,346.69,0,0,0,1812.36,1965.34Z"/><path class="cls-4" d="M1853.52,2022.2l66.54-66.54v-49l-88.45,88.45A341.28,341.28,0,0,0,1853.52,2022.2Z"/><path class="cls-4" d="M1769.19,1812.59l150.87-150.87v-49l-148.43,148.43A350.94,350.94,0,0,0,1769.19,1812.59Z"/><path class="cls-4" d="M1785.92,1698l134.14-134.13V1525.4A329.64,329.64,0,0,0,1785.92,1698Z"/><path class="cls-4" d="M1905.06,2068.55h0l15-15v-49l-42.1,42.1A341.4,341.4,0,0,0,1905.06,2068.55Z"/><path class="cls-4" d="M1783,1896.85l137.1-137.1v-49L1773.71,1857.1A338.39,338.39,0,0,0,1783,1896.85Z"/><path class="cls-5" d="M40.14,3342.19a4.44,4.44,0,0,0,3-8.36,4.3,4.3,0,0,0-1.74-.25,4.43,4.43,0,0,0-2,8.24A4.2,4.2,0,0,0,40.14,3342.19Z"/><path class="cls-5" d="M1.76,3340.23A4.39,4.39,0,0,0,0,3337V3344A4.43,4.43,0,0,0,1.76,3340.23Z"/><path class="cls-5" d="M13.82,3317.33v0a4.44,4.44,0,1,0,4.18-4.7A4.44,4.44,0,0,0,13.82,3317.35Z"/><path class="cls-5" d="M16.77,3359.43c2.2-.5,4.4-1,6.59-1.57a4.37,4.37,0,0,0-6.59,1.57Z"/><path class="cls-5" d="M36.47,3290.15a4.44,4.44,0,0,0-.83,6.23,4.55,4.55,0,0,0,1.26,1.13,4.43,4.43,0,0,0,2.52.61,4.37,4.37,0,0,0,1.7-.44,5.09,5.09,0,0,0,.74-.46,4.45,4.45,0,0,0-5.39-7.07Z"/><path class="cls-5" d="M81.54,3335.52c2.17-1.26,4.3-2.58,6.39-3.94a4.37,4.37,0,0,0-2.21-.48A4.44,4.44,0,0,0,81.54,3335.52Z"/><path class="cls-5" d="M111.3,3312.24c0-.12,0-.23,0-.35a4.43,4.43,0,1,0-4.33,4.68C108.45,3315.16,109.9,3313.72,111.3,3312.24Z"/><path class="cls-5" d="M62.81,3319a4.44,4.44,0,1,0-4.68-4.18h0A4.42,4.42,0,0,0,62.81,3319Z"/><path class="cls-5" d="M126.67,3284.45a4.43,4.43,0,0,0-.71,8.32c1.51-2.54,2.91-5.12,4.24-7.75a4.43,4.43,0,0,0-2.64-.71A5.32,5.32,0,0,0,126.67,3284.45Z"/><path class="cls-5" d="M80.8,3287.68a4.44,4.44,0,1,0,6.22.85A4.46,4.46,0,0,0,80.8,3287.68Z"/><path class="cls-5" d="M32.89,3247.11a4.42,4.42,0,0,0,1.54,6.08,4.36,4.36,0,0,0,2.52.62,4.44,4.44,0,1,0-4.06-6.7Z"/><path class="cls-5" d="M8.87,3228.7h0a4.44,4.44,0,1,0,4.19-4.69A4.44,4.44,0,0,0,8.87,3228.71Z"/><path class="cls-5" d="M11.35,3273h0a4.44,4.44,0,1,0,4.18-4.69A4.43,4.43,0,0,0,11.35,3273Z"/><path class="cls-5" d="M124.68,3248.83a4.45,4.45,0,0,0,5.09-4.64,4.44,4.44,0,0,0-4.68-4.18,4,4,0,0,0-.9.14,4.44,4.44,0,0,0,.49,8.68Z"/><path class="cls-5" d="M76.59,3247.15v0a4.44,4.44,0,1,0,4.18-4.7A4.43,4.43,0,0,0,76.59,3247.17Z"/><path class="cls-5" d="M97.5,3223.76h0a4.44,4.44,0,1,0,4.19-4.68A4.44,4.44,0,0,0,97.5,3223.76Z"/><path class="cls-5" d="M100,3268.07h0a4.44,4.44,0,1,0,4.19-4.68A4.44,4.44,0,0,0,100,3268.08Z"/><path class="cls-5" d="M53.19,3226.23h0a4.44,4.44,0,1,0,4.18-4.69A4.44,4.44,0,0,0,53.19,3226.24Z"/><path class="cls-5" d="M55.66,3270.55h0a4.44,4.44,0,1,0,4.19-4.69A4.44,4.44,0,0,0,55.66,3270.56Z"/><path class="cls-5" d="M146,3216.61a4.44,4.44,0,0,0-4.19,4.68h0a4.44,4.44,0,0,0,4.68,4.18,3.64,3.64,0,0,0,.59-.09c.39-2.78.73-5.56,1-8.33A4.39,4.39,0,0,0,146,3216.61Z"/><path class="cls-5" d="M27.93,3158.48a4.45,4.45,0,0,0,1.55,6.09,4.54,4.54,0,0,0,2.52.62,4.66,4.66,0,0,0,1.71-.45,4.44,4.44,0,1,0-5.78-6.26Z"/><path class="cls-5" d="M3.93,3140.08h0a4.44,4.44,0,1,0,4.18-4.68A4.44,4.44,0,0,0,3.93,3140.08Z"/><path class="cls-5" d="M6.4,3184.39h0a4.44,4.44,0,1,0,4.19-4.68A4.44,4.44,0,0,0,6.4,3184.4Z"/><path class="cls-5" d="M29,3112a4.43,4.43,0,1,0,4.24,2.47A4.42,4.42,0,0,0,29,3112Z"/><path class="cls-5" d="M119.25,3151.52a4.44,4.44,0,0,0,.48,8.68,4.59,4.59,0,0,0,.91,0,4.44,4.44,0,0,0-.49-8.86A3.84,3.84,0,0,0,119.25,3151.52Z"/><path class="cls-5" d="M74.11,3202.84a4.44,4.44,0,1,0,4.19-4.68A4.45,4.45,0,0,0,74.11,3202.84Z"/><path class="cls-5" d="M71.64,3158.53h0a4.44,4.44,0,1,0,4.19-4.69A4.43,4.43,0,0,0,71.64,3158.54Z"/><path class="cls-5" d="M92.56,3135.13h0a4.44,4.44,0,1,0,4.18-4.69A4.45,4.45,0,0,0,92.56,3135.14Z"/><path class="cls-5" d="M95,3179.45h0a4.44,4.44,0,1,0,4.19-4.68A4.44,4.44,0,0,0,95,3179.45Z"/><path class="cls-5" d="M48.24,3137.6h0a4.44,4.44,0,1,0,4.18-4.69A4.43,4.43,0,0,0,48.25,3137.61Z"/><path class="cls-5" d="M50.72,3181.92h0a4.44,4.44,0,1,0,4.19-4.69A4.43,4.43,0,0,0,50.72,3181.93Z"/><path class="cls-5" d="M117.67,3107.06a4.44,4.44,0,0,0-.41,8.82,3.88,3.88,0,0,0,.9,0,4.44,4.44,0,1,0-.49-8.86Z"/><path class="cls-5" d="M69.42,3112.47a4.45,4.45,0,0,0,4.43,5.93,4.56,4.56,0,0,0,1.7-.45,4.44,4.44,0,0,0,2-5.94,4.39,4.39,0,0,0-2.49-2.22A4.44,4.44,0,0,0,69.42,3112.47Z"/><path class="cls-5" d="M29.79,3205.31a4.45,4.45,0,0,0,4.68,4.19,4.56,4.56,0,0,0,1.71-.45,4.43,4.43,0,0,0,2.48-4.23h0a4.44,4.44,0,0,0-8.87.49Z"/><path class="cls-5" d="M141.56,3136.84a4.44,4.44,0,1,0-4.68-4.18h0A4.43,4.43,0,0,0,141.56,3136.84Z"/><path class="cls-5" d="M144,3181.16a4.44,4.44,0,1,0-4.68-4.19h0A4.44,4.44,0,0,0,144,3181.16Z"/><path class="cls-5" d="M122.2,3204.51a4,4,0,0,0,.91,0,4.44,4.44,0,0,0,4.18-4.67h0a4.45,4.45,0,0,0-4.68-4.19,5.32,5.32,0,0,0-.89.14,4.44,4.44,0,0,0,.48,8.69Z"/><path class="cls-5" d="M24.54,3075.94a4.45,4.45,0,0,0,2.52.61,4.37,4.37,0,0,0,1.7-.44,4.5,4.5,0,0,0,1.87-1.72,4.44,4.44,0,1,0-6.09,1.55Z"/><path class="cls-5" d="M3.67,3055.63A4.44,4.44,0,1,0,0,3048.39V3054A4.39,4.39,0,0,0,3.67,3055.63Z"/><path class="cls-5" d="M6.14,3100a4.44,4.44,0,1,0-4.68-4.19h0A4.44,4.44,0,0,0,6.14,3100Z"/><path class="cls-5" d="M114.31,3062.89a4.44,4.44,0,0,0,.48,8.68,3.88,3.88,0,0,0,.9,0,4.44,4.44,0,0,0-.49-8.86A3.84,3.84,0,0,0,114.31,3062.89Z"/><path class="cls-5" d="M66.7,3069.9h0a4.43,4.43,0,0,0,4.68,4.18h0a4.44,4.44,0,1,0-4.68-4.18Z"/><path class="cls-5" d="M92.3,3050.69a4.44,4.44,0,1,0-4.69-4.19h0A4.43,4.43,0,0,0,92.3,3050.69Z"/><path class="cls-5" d="M90.09,3090.82h0a4.44,4.44,0,1,0,4.19-4.69A4.45,4.45,0,0,0,90.09,3090.83Z"/><path class="cls-5" d="M48,3053.16A4.44,4.44,0,1,0,43.3,3049h0A4.44,4.44,0,0,0,48,3053.16Z"/><path class="cls-5" d="M45.77,3093.29h0a4.44,4.44,0,1,0,4.19-4.69A4.44,4.44,0,0,0,45.77,3093.3Z"/><path class="cls-5" d="M112.32,3027.26a5.43,5.43,0,0,0,.9,0,4.44,4.44,0,0,0-.49-8.87,5.32,5.32,0,0,0-.89.14,4.44,4.44,0,0,0,.48,8.69Z"/><path class="cls-5" d="M68.91,3029.77h0a4.44,4.44,0,1,0-4.68-4.19h0A4.44,4.44,0,0,0,68.91,3029.77Z"/><path class="cls-5" d="M131.93,3044a4.44,4.44,0,0,0,2.67,3.8c-.61-2.19-1.23-4.38-1.88-6.56a4.43,4.43,0,0,0-.79,2.75Z"/><path class="cls-5" d="M143.27,3087.86a4.44,4.44,0,1,0-8.86.49h0a4.44,4.44,0,0,0,8.86-.5Z"/><path class="cls-5" d="M89.83,3006.38a4.41,4.41,0,0,0,3.85-2.78c-1.59.92-3.21,1.83-4.83,2.72A4.57,4.57,0,0,0,89.83,3006.38Z"/><path class="cls-2" d="M1915.65,2913.78a3.82,3.82,0,0,0-3.49-.51,4.58,4.58,0,0,0-.71.33,3.85,3.85,0,0,0-1.86,3.77,3.71,3.71,0,0,0,.49,1.41,3.84,3.84,0,0,0,.45.61,3.84,3.84,0,0,0,6.44-3.82,3.6,3.6,0,0,0-.32-.69A3.76,3.76,0,0,0,1915.65,2913.78Z"/><path class="cls-2" d="M1897.72,2965.35h0a3.78,3.78,0,0,0-1.38,5.17h0a3.79,3.79,0,0,0,5.2,1.28h0a3.75,3.75,0,1,0-3.82-6.45Z"/><path class="cls-2" d="M1876.92,2960.25a3.79,3.79,0,0,0-5.2-1.28h0a3.8,3.8,0,0,0-1.37,5.18h0a3.78,3.78,0,0,0,5.2,1.27h0a3.78,3.78,0,0,0,1.38-5.17Z"/><path class="cls-2" d="M1909.78,2940.75a3.78,3.78,0,0,0-5.19-1.28h0a3.75,3.75,0,1,0,5.21,1.27Z"/><path class="cls-2" d="M1851.24,2954.56a4.37,4.37,0,0,0-.33-.69,3.51,3.51,0,0,0-1-1.1,3.72,3.72,0,0,0-2-.71,3.81,3.81,0,0,0-2.16.54,3.9,3.9,0,0,0-1.13,1,3.81,3.81,0,0,0-.73,2.75,3.69,3.69,0,0,0,.48,1.41,3.05,3.05,0,0,0,.46.61,3.74,3.74,0,0,0,3.31,1.17,3.86,3.86,0,0,0,2.94-2.15h0A3.73,3.73,0,0,0,1851.24,2954.56Z"/><path class="cls-2" d="M1883.78,2934.37a3.75,3.75,0,0,0-1-1.1,3.86,3.86,0,0,0-6.06,3.6,3.81,3.81,0,1,0,7.38-1.8A3.42,3.42,0,0,0,1883.78,2934.37Z"/><path class="cls-2" d="M1811.18,2999.24a3.79,3.79,0,0,0-5.2-1.28h0a3.75,3.75,0,1,0,5.2,1.27Z"/><path class="cls-2" d="M1844.05,2979.74a3.79,3.79,0,0,0-5.2-1.27h0a3.78,3.78,0,0,0-1.38,5.17h0a3.79,3.79,0,0,0,5.2,1.28h0a3.78,3.78,0,0,0,1.38-5.17Z"/><path class="cls-2" d="M1785.18,2992.86a3.77,3.77,0,0,0-4.5-1.6,4.94,4.94,0,0,0-.7.33,3.84,3.84,0,0,0-1.86,3.76,3.71,3.71,0,0,0,.49,1.41,3.92,3.92,0,0,0,.45.62,3.81,3.81,0,0,0,4.75.66,4,4,0,0,0,.62-.46,3.79,3.79,0,0,0,1.07-4A3.6,3.6,0,0,0,1785.18,2992.86Z"/><path class="cls-2" d="M1818.05,2973.36a3.78,3.78,0,0,0-1-1.1,3.86,3.86,0,0,0-5.37.91,3.9,3.9,0,0,0-.69,2.69,3.71,3.71,0,0,0,.49,1.41,3.83,3.83,0,0,0,6.9-3.21A3.68,3.68,0,0,0,1818.05,2973.36Z"/><path class="cls-2" d="M1766.24,3043.34a3.77,3.77,0,0,0-1.76,2.34l2.85-2.77a4,4,0,0,0-1.08.42Z"/><path class="cls-2" d="M1745.44,3038.23a3.78,3.78,0,0,0-5.2-1.27h0a3.75,3.75,0,1,0,5.21,1.28Z"/><path class="cls-2" d="M1778.31,3018.73a3.79,3.79,0,0,0-5.2-1.27h0a3.78,3.78,0,0,0-1.37,5.17h0a3.79,3.79,0,0,0,5.2,1.27h0a3.79,3.79,0,0,0,1.38-5.17Z"/><path class="cls-2" d="M1719.76,3032.55a3.68,3.68,0,0,0-.32-.7,3.75,3.75,0,0,0-1-1.1,3.85,3.85,0,0,0-6,3.6,3.64,3.64,0,0,0,.48,1.41,4.35,4.35,0,0,0,.45.61,3.76,3.76,0,0,0,3.32,1.16,3.85,3.85,0,0,0,2.94-2.14h0A3.73,3.73,0,0,0,1719.76,3032.55Z"/><path class="cls-2" d="M1752.31,3012.36a3.63,3.63,0,0,0-1-1.1,3.85,3.85,0,0,0-6.06,3.59,3.69,3.69,0,0,0,.48,1.41,3.43,3.43,0,0,0,.45.61,3.84,3.84,0,0,0,6.45-3.82A3.6,3.6,0,0,0,1752.31,3012.36Z"/><path class="cls-2" d="M1705.7,3083.6a3.77,3.77,0,0,0-5.19-1.27h0a3.75,3.75,0,1,0,5.2,1.27Z"/><path class="cls-2" d="M1679.71,3077.22a3.78,3.78,0,0,0-5.2-1.27h0a3.78,3.78,0,0,0-1.38,5.17h0a3.79,3.79,0,0,0,5.2,1.28h0a3.79,3.79,0,0,0,1.38-5.18Z"/><path class="cls-2" d="M1712.58,3057.73a3.79,3.79,0,0,0-5.2-1.28h0a3.75,3.75,0,1,0,5.21,1.28Z"/><path class="cls-2" d="M1686.57,3051.35a3.51,3.51,0,0,0-1-1.1,3.86,3.86,0,0,0-6.06,3.59,3.69,3.69,0,0,0,.48,1.41,4.06,4.06,0,0,0,.46.61,3.84,3.84,0,0,0,6.45-3.82A3.64,3.64,0,0,0,1686.57,3051.35Z"/><path class="cls-2" d="M1737,3062.67a3.61,3.61,0,0,0-1.48-.38,3.9,3.9,0,0,0-3.29,1.55,3.73,3.73,0,0,0,3.52,5.95,4,4,0,0,0,1.43-.51,3.85,3.85,0,0,0,1.51-1.64A3.71,3.71,0,0,0,1737,3062.67Z"/><path class="cls-2" d="M1670.35,3101.36q.45,3.49,1,7l.13-.07h0a3.18,3.18,0,0,0,.63-.46,3.71,3.71,0,0,0-1.74-6.45Z"/><path class="cls-2" d="M1896.78,2887.34A3.74,3.74,0,0,0,1893,2881a3.49,3.49,0,0,0-.7.34,3.74,3.74,0,1,0,3.82,6.44A3.9,3.9,0,0,0,1896.78,2887.34Z"/><path class="cls-2" d="M1897.82,2860.66a3.82,3.82,0,1,0,1.37-5.18h0a3.79,3.79,0,0,0-1.37,5.17Z"/><path class="cls-2" d="M1918.32,2887.73a3.78,3.78,0,0,0-1.37,5.17h0a3.78,3.78,0,0,0,3.11,1.81v-7.51a3.73,3.73,0,0,0-1.74.52Z"/><path class="cls-2" d="M1873.45,2855.75a3.83,3.83,0,0,0,3.57-.2,4.53,4.53,0,0,0,.63-.45,3.87,3.87,0,0,0,1.25-2.58,3.64,3.64,0,0,0-.51-2.14,3.74,3.74,0,0,0-4.49-1.6,3.42,3.42,0,0,0-.7.32,3.79,3.79,0,0,0-1.38,5.18A3.68,3.68,0,0,0,1873.45,2855.75Z"/><path class="cls-2" d="M1906.32,2836.25a3.85,3.85,0,0,0,5.11-1.91,3.79,3.79,0,0,0,.34-1.32h0a3.66,3.66,0,0,0-.51-2.14,3.79,3.79,0,0,0-5.2-1.27h0a3.79,3.79,0,0,0-1.37,5.17A3.63,3.63,0,0,0,1906.32,2836.25Z"/><path class="cls-2" d="M1830.24,2920.19a3.69,3.69,0,0,0-1.49-.38,3.81,3.81,0,0,0-2.16.54,3.9,3.9,0,0,0-1.13,1,3.72,3.72,0,0,0,3.53,5.94,3.85,3.85,0,0,0,2.93-2.14h0A3.7,3.7,0,0,0,1830.24,2920.19Z"/><path class="cls-2" d="M1859.46,2900.85h0a3.78,3.78,0,0,0-1.38,5.17h0a3.8,3.8,0,0,0,5.2,1.27h0a3.75,3.75,0,1,0-3.82-6.45Z"/><path class="cls-2" d="M1838.66,2895.75h0a3.79,3.79,0,0,0-5.2-1.28h0a3.79,3.79,0,0,0-1.38,5.18h0a3.83,3.83,0,0,0,6.58-3.9Z"/><path class="cls-2" d="M1857.79,2928a3.79,3.79,0,0,0-5.2-1.28h0a3.79,3.79,0,0,0-1.38,5.18h0a3.83,3.83,0,0,0,6.58-3.9Z"/><path class="cls-2" d="M1871.53,2876.25h0a3.78,3.78,0,0,0-5.2-1.27h0a3.75,3.75,0,1,0,5.21,1.27Z"/><path class="cls-2" d="M1890.66,2908.5a3.78,3.78,0,0,0-5.2-1.27h0a3.75,3.75,0,1,0,5.21,1.27Z"/><path class="cls-2" d="M1809.62,2887.56a3.89,3.89,0,0,0-3.29,1.55,3.75,3.75,0,0,0-.24,4.16,3.68,3.68,0,0,0,1.63,1.47,3.86,3.86,0,0,0,5.07-1.83,3.78,3.78,0,0,0-.13-3.54A3.72,3.72,0,0,0,1809.62,2887.56Z"/><path class="cls-2" d="M1839,2873.78a3.74,3.74,0,0,0,1.63,1.47,3.87,3.87,0,0,0,5.12-1.92,4,4,0,0,0,.34-1.32,3.64,3.64,0,0,0-.52-2.13,3.82,3.82,0,0,0-6.57,3.9Z"/><path class="cls-2" d="M1761.55,2959a4.37,4.37,0,0,0-.69.33,3.78,3.78,0,0,0-1.38,5.17h0a3.79,3.79,0,0,0,5.2,1.28h0a3.75,3.75,0,0,0-3.13-6.78Z"/><path class="cls-2" d="M1793.72,2939.85h0a3.75,3.75,0,1,0,5.2,1.27A3.79,3.79,0,0,0,1793.72,2939.85Z"/><path class="cls-2" d="M1772.92,2934.74h0a3.79,3.79,0,0,0-5.2-1.28h0a3.75,3.75,0,1,0,5.2,1.27Z"/><path class="cls-2" d="M1792.05,2967a3.79,3.79,0,0,0-5.2-1.28h0a3.75,3.75,0,1,0,5.2,1.27Z"/><path class="cls-2" d="M1805.79,2915.24a3.79,3.79,0,0,0-5.2-1.27h0a3.79,3.79,0,0,0-1.38,5.17h0a3.82,3.82,0,0,0,6.57-3.9Z"/><path class="cls-2" d="M1824.92,2947.49a3.79,3.79,0,0,0-5.2-1.27h0a3.79,3.79,0,0,0-1.38,5.17h0a3.82,3.82,0,0,0,6.57-3.9Z"/><path class="cls-2" d="M1742,2933.73a3.83,3.83,0,0,0,3.57-.19,4,4,0,0,0,.62-.46,3.82,3.82,0,0,0,1.26-2.58,3.69,3.69,0,0,0-.51-2.13,3.77,3.77,0,0,0-4.5-1.61,4.37,4.37,0,0,0-.69.33,3.78,3.78,0,0,0-1.38,5.17h0A3.63,3.63,0,0,0,1742,2933.73Z"/><path class="cls-2" d="M1774.59,2907.59a3.8,3.8,0,0,0-1.38,5.18,3.71,3.71,0,0,0,1.64,1.47,3.86,3.86,0,0,0,5.11-1.92,4,4,0,0,0,.34-1.32,3.7,3.7,0,0,0-.51-2.13A3.79,3.79,0,0,0,1774.59,2907.59Z"/><path class="cls-2" d="M1700.45,3003.14h0a3.71,3.71,0,0,0-3.17-5.35,4,4,0,0,0-3.29,1.55,3.73,3.73,0,0,0,3.53,5.95A3.89,3.89,0,0,0,1700.45,3003.14Z"/><path class="cls-2" d="M1733.18,2980.11h0a3.76,3.76,0,0,0-5.19-1.27h0a3.74,3.74,0,1,0,5.19,1.27Z"/><path class="cls-2" d="M1705.81,2978.91a3.8,3.8,0,0,0,1.38-5.18h0a3.79,3.79,0,0,0-5.2-1.27h0a3.75,3.75,0,1,0,3.83,6.45Z"/><path class="cls-2" d="M1726.31,3006a3.77,3.77,0,0,0-5.19-1.27h0a3.75,3.75,0,1,0,5.21,1.28Z"/><path class="cls-2" d="M1740.06,2954.24a3.79,3.79,0,0,0-5.2-1.28h0a3.79,3.79,0,0,0-1.37,5.18h0a3.83,3.83,0,0,0,6.58-3.9Z"/><path class="cls-2" d="M1759.18,2986.49a3.78,3.78,0,0,0-5.19-1.28h0a3.78,3.78,0,0,0-1.37,5.17h0a3.83,3.83,0,0,0,6.58-3.9Z"/><path class="cls-2" d="M1707.48,2951.76a3.63,3.63,0,0,0,1.63,1.47,3.88,3.88,0,0,0,5.12-1.92,4,4,0,0,0,.33-1.31h0a3.64,3.64,0,0,0-.51-2.14,3.78,3.78,0,0,0-5.11-1.32c-.6.74-1.2,1.47-1.79,2.21A3.76,3.76,0,0,0,1707.48,2951.76Z"/><path class="cls-2" d="M1693.45,3025.48a3.79,3.79,0,0,0-5.2-1.28h0a3.76,3.76,0,1,0,5.21,1.28Z"/><path class="cls-2" d="M1905.87,2746.89a3.76,3.76,0,0,0-1-1.1,3.81,3.81,0,0,0-2-.72,3.86,3.86,0,0,0-3.29,1.56,3.76,3.76,0,0,0-.74,2.75,3.71,3.71,0,0,0,.49,1.41,3.84,3.84,0,0,0,.45.61,3.77,3.77,0,0,0,3.32,1.17,3.89,3.89,0,0,0,2.94-2.15h0a3.73,3.73,0,0,0,.18-2.84A3.6,3.6,0,0,0,1905.87,2746.89Z"/><path class="cls-2" d="M1890.76,2803.81a3.75,3.75,0,1,0-3.82-6.45h0a3.75,3.75,0,1,0,3.83,6.45Z"/><path class="cls-2" d="M1864.76,2797.43a3.75,3.75,0,1,0-3.82-6.45h0a3.79,3.79,0,0,0-1.38,5.18h0A3.79,3.79,0,0,0,1864.76,2797.43Z"/><path class="cls-2" d="M1883.89,2829.69a3.75,3.75,0,1,0-3.82-6.46h0a3.79,3.79,0,0,0-1.37,5.17h0A3.79,3.79,0,0,0,1883.89,2829.69Z"/><path class="cls-2" d="M1897.63,2777.94a3.79,3.79,0,0,0,1.37-5.18h0a3.77,3.77,0,0,0-5.19-1.27h0a3.78,3.78,0,0,0-1.37,5.17h0A3.79,3.79,0,0,0,1897.63,2777.94Z"/><path class="cls-2" d="M1912.93,2803.74a3.78,3.78,0,0,0-1.37,5.17h0a3.82,3.82,0,0,0,6.57-3.9h0a3.79,3.79,0,0,0-5.2-1.28Z"/><path class="cls-2" d="M1871.63,2771.56a3.8,3.8,0,0,0,1.69-4.48,3.42,3.42,0,0,0-.32-.7,3.75,3.75,0,0,0-1-1.1,3.86,3.86,0,0,0-6.06,3.6,3.75,3.75,0,0,0,.48,1.41,3.37,3.37,0,0,0,.46.61A3.8,3.8,0,0,0,1871.63,2771.56Z"/><path class="cls-2" d="M1918.68,2778.87a3.72,3.72,0,0,0,1.38,5.64v-6.78c-.08.05-.17.08-.26.13A3.87,3.87,0,0,0,1918.68,2778.87Z"/><path class="cls-2" d="M1825,2842.8a3.75,3.75,0,1,0-5.21-1.27A3.79,3.79,0,0,0,1825,2842.8Z"/><path class="cls-2" d="M1818.16,2868.68a3.79,3.79,0,0,0,1.37-5.18h0a3.79,3.79,0,0,0-5.2-1.28h0a3.79,3.79,0,0,0-1.38,5.18h0A3.8,3.8,0,0,0,1818.16,2868.68Z"/><path class="cls-2" d="M1832.86,2816.1a3.58,3.58,0,0,0,.74-1.35C1833.36,2815.2,1833.11,2815.65,1832.86,2816.1Z"/><path class="cls-2" d="M1851,2849.18a3.79,3.79,0,0,0,1.38-5.18h0a3.78,3.78,0,0,0-5.2-1.27h0a3.75,3.75,0,1,0,3.83,6.45Z"/><path class="cls-2" d="M1857.89,2823.31a3.82,3.82,0,0,0,1.38-5.18,3.76,3.76,0,0,0-4.5-1.6,3,3,0,0,0-.7.33,3.75,3.75,0,1,0,3.82,6.45Z"/><path class="cls-2" d="M1752.42,2907.67a3.79,3.79,0,0,0,1.37-5.18h0a3.27,3.27,0,0,0-.28-.37c-1.88,1.68-3.77,3.36-5.64,5.05A3.78,3.78,0,0,0,1752.42,2907.67Z"/><path class="cls-2" d="M1785.29,2888.17a3.78,3.78,0,0,0,1.37-5.17h0a3.79,3.79,0,0,0-5.2-1.28h0a3.78,3.78,0,0,0-1.37,5.17h0A3.78,3.78,0,0,0,1785.29,2888.17Z"/><path class="cls-2" d="M1885.18,2713.2a3.75,3.75,0,0,0-1.47-.37,3.85,3.85,0,0,0-2.17.53,3.89,3.89,0,0,0-1.12,1,3.71,3.71,0,0,0,3.52,5.94,3.88,3.88,0,0,0,2.94-2.14h0A3.71,3.71,0,0,0,1885.18,2713.2Z"/><path class="cls-2" d="M1914.41,2693.87h0a3.75,3.75,0,1,0,3.83,6.45,3.75,3.75,0,0,0,1.82-2.71v-1.18a3.68,3.68,0,0,0-.45-1.29A3.78,3.78,0,0,0,1914.41,2693.87Z"/><path class="cls-2" d="M1888.41,2687.49h0a3.75,3.75,0,1,0,5.2,1.28h0A3.79,3.79,0,0,0,1888.41,2687.49Z"/><path class="cls-2" d="M1907.54,2719.74h0a3.75,3.75,0,1,0,5.21,1.28h0A3.79,3.79,0,0,0,1907.54,2719.74Z"/><path class="cls-2" d="M1919.91,2673.17h0a1.59,1.59,0,0,0,.15.21v-4.23A3.76,3.76,0,0,0,1919.91,2673.17Z"/><path class="cls-2" d="M1895.28,2661.62h0a3.79,3.79,0,0,0-1.37,5.18,3.66,3.66,0,0,0,1.63,1.46,3.85,3.85,0,0,0,5.11-1.92,3.68,3.68,0,0,0,.34-1.31h0a3.61,3.61,0,0,0-.51-2.13A3.79,3.79,0,0,0,1895.28,2661.62Z"/><path class="cls-2" d="M1860.75,2708.26h0c-.09-.14-.2-.27-.3-.4-.25,1.78-.49,3.55-.73,5.33A3.79,3.79,0,0,0,1860.75,2708.26Z"/><path class="cls-2" d="M1874.68,2739.24h0a3.78,3.78,0,0,0-1.37,5.17h0a3.79,3.79,0,0,0,5.2,1.28h0a3.78,3.78,0,0,0,1.38-5.17h0A3.78,3.78,0,0,0,1874.68,2739.24Z"/><path class="cls-2" d="M1909.72,2609.55a3.19,3.19,0,0,0-.7.33,3.8,3.8,0,1,0,.7-.33Z"/><path class="cls-2" d="M1915.9,2584h0a3.8,3.8,0,0,0-1.38,5.18h0a3.78,3.78,0,0,0,5.19,1.27,2.22,2.22,0,0,0,.35-.25v-6A3.78,3.78,0,0,0,1915.9,2584Z"/><path class="cls-2" d="M1880,2635.82a3.78,3.78,0,0,0,1.37-5.17,3.71,3.71,0,0,0-2.29-1.7q-1.45,3.47-2.76,7A3.75,3.75,0,0,0,1880,2635.82Z"/><path class="cls-2" d="M1874.48,2656.52a3.75,3.75,0,0,0-4.21-1.68c-.57,2.13-1.11,4.28-1.63,6.43a3.82,3.82,0,0,0,5.85-4.75Z"/><path class="cls-2" d="M1906,2642.2a3.79,3.79,0,0,0,1.37-5.18h0a3.78,3.78,0,0,0-5.2-1.27h0a3.78,3.78,0,0,0-1.37,5.17h0a3.79,3.79,0,0,0,5.2,1.28Z"/><path class="cls-2" d="M1866.24,2687.56a3.82,3.82,0,0,0,1.88-3,3.71,3.71,0,0,0-3.46-4h0c-.44,2.46-.85,4.93-1.25,7.4A3.78,3.78,0,0,0,1866.24,2687.56Z"/><path class="cls-3" d="M1920.06,3500V2975.84c-79.65,1-115.57,31-152.73,67.07l-2.85,2.77c-25.74,25.07-52.62,52.69-95.47,75.23-124.67,65.57-239,87.26-240.49,256.83-.38,43.7,16.22,83.79,42.64,118.5q1.44,1.89,2.92,3.76Z"/><path class="cls-3" d="M93.68,3003.6c44.73-25.7,78.34-60.28,84.65-90.58,15.86-76.18-20.28-312.35-46-353.36C114.8,2531.81,67.38,2449.2,0,2436.09v602.19c31.08-5.51,61.82-17.08,88.85-32C90.47,3005.43,92.09,3004.52,93.68,3003.6Z"/><path class="cls-5" d="M1853.58,314.62c-10.77,34.72-3.43,72.35,6.74,107.24s23.28,69.64,24.08,105.95c.62,29.87-7.09,59.18-11.47,88.69-11.51,78.35,2.77,162.2,47.13,227.29V255.5C1889.76,258.29,1862.88,284.61,1853.58,314.62Zm16-11.76a2.86,2.86,0,0,1,1.73-.55h0a2.82,2.82,0,0,1,2.45,1.67C1872.32,303.62,1870.93,303.25,1869.54,302.86ZM1913.73,261a2.74,2.74,0,0,1,1.1-.19,2.79,2.79,0,0,1,1.55.54,2.87,2.87,0,0,1,.69.74,2.9,2.9,0,0,1-.85,4,2.76,2.76,0,0,1-2.67.18,2.92,2.92,0,0,1-1.42-1.52A2.89,2.89,0,0,1,1913.73,261Zm-2.7,30.61a2.92,2.92,0,0,1,1.73-2,3,3,0,0,1,1.11-.19,2.73,2.73,0,0,1,1.55.55,2.88,2.88,0,0,1,1.12,1.83,2.93,2.93,0,0,1-1.28,2.91,2.76,2.76,0,0,1-2.67.17,2.85,2.85,0,0,1-1.63-2.69A3.83,3.83,0,0,1,1911,291.61Zm-13.63-14.2a2.81,2.81,0,1,1,2.71,3h0a2.85,2.85,0,0,1-2.71-3Zm-1,28.61a2.83,2.83,0,0,1,2.9-2.76h0a2.86,2.86,0,1,1-2.91,2.77ZM1883,290.67a2.8,2.8,0,0,1,5.5.18,2.46,2.46,0,0,1,0,.54,2.85,2.85,0,0,1-2.9,2.81h0a2.83,2.83,0,0,1-2.7-3A2.78,2.78,0,0,1,1883,290.67Z"/><path class="cls-2" d="M1918.74,62.72a2.7,2.7,0,0,0-.08.57,2.88,2.88,0,0,0,1.4,2.57V60.93A2.9,2.9,0,0,0,1918.74,62.72Z"/><path class="cls-2" d="M1919.83,35.86a2.38,2.38,0,0,0,.23.45V33.26A2.9,2.9,0,0,0,1919.83,35.86Z"/><path class="cls-2" d="M1918.54,117.94a2.88,2.88,0,0,0-.18,5.27,2.73,2.73,0,0,0,1.09.26,3.08,3.08,0,0,0,.61,0v-5.61A2.82,2.82,0,0,0,1918.54,117.94Z"/><path class="cls-2" d="M1917.91,93.08a2.72,2.72,0,0,0,2.15,1.74V89.18a2.73,2.73,0,0,0-.56.15A2.88,2.88,0,0,0,1917.91,93.08Z"/><path class="cls-2" d="M1919.27,175.51a2.71,2.71,0,0,0-1.55-.53,2.63,2.63,0,0,0-1.11.19,2.85,2.85,0,0,0-1.72,2,2.7,2.7,0,0,0-.08.57,2.87,2.87,0,0,0,1.63,2.69,2.76,2.76,0,0,0,2.67-.17,2.89,2.89,0,0,0,1-1v-2.8A2.82,2.82,0,0,0,1919.27,175.51Z"/><path class="cls-2" d="M1917.58,146.55a2.89,2.89,0,0,0-1.6,3.76,2.92,2.92,0,0,0,1.42,1.52,2.77,2.77,0,0,0,2.66-.18v-4.84A2.76,2.76,0,0,0,1917.58,146.55Z"/><path class="cls-2" d="M1914.51,237.66a2.73,2.73,0,0,0,1.09.26,2.69,2.69,0,0,0,1.58-.44,2.86,2.86,0,0,0,1.32-2.33,2.92,2.92,0,0,0-.42-1.61,3,3,0,0,0-.74-.8,2.74,2.74,0,0,0-2.65-.35,2.87,2.87,0,0,0-1.62,3.69A2.83,2.83,0,0,0,1914.51,237.66Z"/><path class="cls-2" d="M1915.47,209.05a2.73,2.73,0,0,0,1.09.26,2.8,2.8,0,0,0,1.59-.43,2.9,2.9,0,0,0,.84-4,2.76,2.76,0,0,0-3.34-1.08,2.88,2.88,0,0,0-.18,5.27Z"/><path class="cls-2" d="M1912.59,294.88a2.76,2.76,0,0,0,2.67-.17,2.93,2.93,0,0,0,1.28-2.91,2.88,2.88,0,0,0-1.12-1.83,2.73,2.73,0,0,0-1.55-.55,3,3,0,0,0-1.11.19,2.92,2.92,0,0,0-1.73,2,3.83,3.83,0,0,0-.07.58A2.85,2.85,0,0,0,1912.59,294.88Z"/><path class="cls-2" d="M1913.55,266.28a2.76,2.76,0,0,0,2.67-.18,2.9,2.9,0,0,0,.85-4,2.87,2.87,0,0,0-.69-.74,2.79,2.79,0,0,0-1.55-.54,2.74,2.74,0,0,0-1.1.19,2.89,2.89,0,0,0-1.6,3.76A2.92,2.92,0,0,0,1913.55,266.28Z"/><path class="cls-2" d="M1896.27,7.91a2.79,2.79,0,0,0,1.6-1.49,2.91,2.91,0,0,0-.17-2.73h0a2.78,2.78,0,0,0-3.82-.93,2.69,2.69,0,0,0-.83.78,2.9,2.9,0,0,0-.35,2.7A2.79,2.79,0,0,0,1896.27,7.91Z"/><path class="cls-2" d="M1867.15,7.13a2.82,2.82,0,0,0,2.65-1.66,2.94,2.94,0,0,0-.17-2.72h0a2.78,2.78,0,0,0-3.82-.93,2.69,2.69,0,0,0-.84.77,2.94,2.94,0,0,0-.35,2.71A2.82,2.82,0,0,0,1867.15,7.13Z"/><path class="cls-2" d="M1893.3,65.3a2.86,2.86,0,0,0,2.91-2.81,2.32,2.32,0,0,0,0-.53,2.81,2.81,0,1,0-2.86,3.34Z"/><path class="cls-2" d="M1894.26,36.69a2.86,2.86,0,1,0-2.71-3h0A2.84,2.84,0,0,0,1894.26,36.69Z"/><path class="cls-2" d="M1879.74,50.52h0a2.84,2.84,0,0,0,2.91-2.76h0a2.85,2.85,0,0,0-2.71-3h0a2.84,2.84,0,0,0-2.91,2.77h0A2.83,2.83,0,0,0,1879.74,50.52Z"/><path class="cls-2" d="M1907.82,51.47h0a2.86,2.86,0,1,0-2.71-3h0A2.83,2.83,0,0,0,1907.82,51.47Z"/><path class="cls-2" d="M1880.7,21.91h0a2.83,2.83,0,0,0,2.9-2.76h0a2.83,2.83,0,0,0-2.71-3h0A2.84,2.84,0,0,0,1878,19h0A2.84,2.84,0,0,0,1880.7,21.91Z"/><path class="cls-2" d="M1908.78,22.86h0a2.87,2.87,0,0,0,.19-5.73h0a2.84,2.84,0,0,0-2.9,2.77h0A2.83,2.83,0,0,0,1908.78,22.86Z"/><path class="cls-2" d="M1865.22,64.36a2.87,2.87,0,1,0-2.63-3.53,3.56,3.56,0,0,0-.08.57A2.85,2.85,0,0,0,1865.22,64.36Z"/><path class="cls-2" d="M1866.19,35.74a2.86,2.86,0,0,0,.19-5.72h0a2.82,2.82,0,0,0-2.9,2.77h0A2.82,2.82,0,0,0,1866.19,35.74Z"/><path class="cls-2" d="M1892.42,122.36a2.82,2.82,0,0,0,1.6-1.49,2.89,2.89,0,0,0-.17-2.72,2.77,2.77,0,0,0-3.82-.94,2.69,2.69,0,0,0-.83.78,2.9,2.9,0,0,0-.35,2.7A2.79,2.79,0,0,0,1892.42,122.36Z"/><path class="cls-2" d="M1892.33,93.92h0a2.87,2.87,0,1,0-2.71-3h0A2.84,2.84,0,0,0,1892.33,93.92Z"/><path class="cls-2" d="M1877.82,107.75h0a2.84,2.84,0,0,0,2.9-2.77h0a2.84,2.84,0,0,0-2.71-3h0a2.83,2.83,0,0,0-2.9,2.77h0A2.83,2.83,0,0,0,1877.82,107.75Z"/><path class="cls-2" d="M1905.89,108.69h0a2.86,2.86,0,0,0,.2-5.72h0a2.83,2.83,0,0,0-2.9,2.76h0A2.83,2.83,0,0,0,1905.89,108.69Z"/><path class="cls-2" d="M1878.78,79.14a2.87,2.87,0,0,0,.2-5.73h0a2.84,2.84,0,0,0-2.9,2.77h0A2.84,2.84,0,0,0,1878.78,79.14Z"/><path class="cls-2" d="M1906.85,80.08a2.86,2.86,0,0,0,.2-5.72h0a2.84,2.84,0,0,0-2.91,2.76h0A2.84,2.84,0,0,0,1906.85,80.08Z"/><path class="cls-2" d="M1863.3,121.58a2.79,2.79,0,0,0,2.64-1.66,2.91,2.91,0,0,0-.16-2.72,2.79,2.79,0,0,0-3.82-.94,2.85,2.85,0,0,0-.84.78,2.94,2.94,0,0,0-.53,1.59,3.06,3.06,0,0,0,.18,1.12A2.82,2.82,0,0,0,1863.3,121.58Z"/><path class="cls-2" d="M1864.26,93h0a2.84,2.84,0,0,0,2.91-2.77h0a2.81,2.81,0,1,0-2.91,2.77Z"/><path class="cls-2" d="M1889.44,179.75h0a2.83,2.83,0,0,0,2.9-2.77,2.73,2.73,0,0,0,0-.57,2.8,2.8,0,0,0-5.5-.19,2.24,2.24,0,0,0-.08.57A2.83,2.83,0,0,0,1889.44,179.75Z"/><path class="cls-2" d="M1890.41,151.14a2.86,2.86,0,1,0-2.71-3h0A2.84,2.84,0,0,0,1890.41,151.14Z"/><path class="cls-2" d="M1875.89,165a2.86,2.86,0,0,0,.2-5.72h0a2.84,2.84,0,0,0-2.9,2.77h0A2.83,2.83,0,0,0,1875.89,165Z"/><path class="cls-2" d="M1904,165.92a2.87,2.87,0,0,0,.19-5.73h0a2.85,2.85,0,0,0-2.91,2.77h0A2.85,2.85,0,0,0,1904,165.92Z"/><path class="cls-2" d="M1876.85,136.36h0a2.84,2.84,0,0,0,2.91-2.76h0a2.84,2.84,0,0,0-2.71-3h0a2.84,2.84,0,0,0-2.91,2.76h0A2.84,2.84,0,0,0,1876.85,136.36Z"/><path class="cls-2" d="M1904.93,137.31h0a2.87,2.87,0,0,0,.19-5.73h0a2.84,2.84,0,0,0-2.9,2.77h0A2.84,2.84,0,0,0,1904.93,137.31Z"/><path class="cls-2" d="M1861.37,178.8h0a2.84,2.84,0,0,0,2.91-2.76h0a2.81,2.81,0,0,0-5.54-.76,3.56,3.56,0,0,0-.08.57A2.83,2.83,0,0,0,1861.37,178.8Z"/><path class="cls-2" d="M1862.34,150.2a2.87,2.87,0,1,0-2.71-3A2.85,2.85,0,0,0,1862.34,150.2Z"/><path class="cls-2" d="M1888.57,236.81a2.81,2.81,0,0,0,1.6-1.5,2.89,2.89,0,0,0-.17-2.72,2.79,2.79,0,0,0-3.82-.94,2.87,2.87,0,0,0-.84.79,2.92,2.92,0,0,0-.34,2.7A2.79,2.79,0,0,0,1888.57,236.81Z"/><path class="cls-2" d="M1888.48,208.37a2.87,2.87,0,0,0,.2-5.73,2.82,2.82,0,0,0-2.9,2.76h0A2.84,2.84,0,0,0,1888.48,208.37Z"/><path class="cls-2" d="M1874,222.2a2.86,2.86,0,0,0,.19-5.72h0a2.82,2.82,0,0,0-2.9,2.76h0A2.85,2.85,0,0,0,1874,222.2Z"/><path class="cls-2" d="M1902,223.14a2.86,2.86,0,0,0,.19-5.72h0a2.84,2.84,0,0,0-2.9,2.77h0A2.83,2.83,0,0,0,1902,223.14Z"/><path class="cls-2" d="M1874.93,193.59h0a2.84,2.84,0,0,0,2.9-2.77h0a2.83,2.83,0,0,0-2.7-3h0a2.84,2.84,0,0,0-2.9,2.77h0A2.84,2.84,0,0,0,1874.93,193.59Z"/><path class="cls-2" d="M1903,194.53h0a2.86,2.86,0,0,0,.2-5.72h0a2.84,2.84,0,0,0-2.91,2.76h0A2.84,2.84,0,0,0,1903,194.53Z"/><path class="cls-2" d="M1859.45,236a2.79,2.79,0,0,0,2.64-1.66,2.91,2.91,0,0,0-.16-2.72,2.77,2.77,0,0,0-3.82-.94,2.85,2.85,0,0,0-.84.78,2.91,2.91,0,0,0-.35,2.71A2.8,2.8,0,0,0,1859.45,236Z"/><path class="cls-2" d="M1860.41,207.42a2.86,2.86,0,0,0,.19-5.72h0a2.83,2.83,0,0,0-2.9,2.76h0A2.84,2.84,0,0,0,1860.41,207.42Z"/><path class="cls-2" d="M1885.59,294.2h0a2.85,2.85,0,0,0,2.9-2.81,2.46,2.46,0,0,0,0-.54,2.8,2.8,0,0,0-5.5-.18,2.78,2.78,0,0,0-.07.57A2.83,2.83,0,0,0,1885.59,294.2Z"/><path class="cls-2" d="M1886.56,265.59a2.86,2.86,0,1,0-2.71-3h0A2.83,2.83,0,0,0,1886.56,265.59Z"/><path class="cls-2" d="M1869.33,276.47a2.82,2.82,0,0,0,2.71,2.95h0a2.82,2.82,0,0,0,2.9-2.76h0a2.83,2.83,0,0,0-2.71-3h0a2.84,2.84,0,0,0-2.9,2.77Z"/><path class="cls-2" d="M1900.11,280.37h0a2.87,2.87,0,1,0-2.71-3h0A2.85,2.85,0,0,0,1900.11,280.37Z"/><path class="cls-2" d="M1873,250.81a2.86,2.86,0,0,0,.2-5.72h0a2.84,2.84,0,0,0-2.91,2.76h0A2.84,2.84,0,0,0,1873,250.81Z"/><path class="cls-2" d="M1901.08,251.76a2.87,2.87,0,0,0,.19-5.73h0a2.82,2.82,0,0,0-2.9,2.77h0A2.83,2.83,0,0,0,1901.08,251.76Z"/><path class="cls-2" d="M1854.81,290.3a2.81,2.81,0,1,0,5.62.19,3.77,3.77,0,0,0,0-.58,2.8,2.8,0,0,0-5.5-.19A2.89,2.89,0,0,0,1854.81,290.3Z"/><path class="cls-2" d="M1858.49,264.65a2.87,2.87,0,0,0,.19-5.73h0a2.84,2.84,0,0,0-2.91,2.77h0A2.85,2.85,0,0,0,1858.49,264.65Z"/><path class="cls-2" d="M1871.27,302.31h0a2.86,2.86,0,0,0-1.73.55c1.39.39,2.78.76,4.18,1.12A2.82,2.82,0,0,0,1871.27,302.31Z"/><path class="cls-2" d="M1899.15,309a2.86,2.86,0,0,0,.2-5.72h0a2.83,2.83,0,0,0-2.9,2.76h0A2.84,2.84,0,0,0,1899.15,309Z"/><path class="cls-2" d="M1808.83.7a2.87,2.87,0,0,0-.35,2.71A2.81,2.81,0,0,0,1809.92,5a2.72,2.72,0,0,0,1.08.26,2.69,2.69,0,0,0,.57,0,2.84,2.84,0,0,0,2.08-1.63,2.91,2.91,0,0,0-.17-2.72h0a2.65,2.65,0,0,0-.84-.86h-3.05A2.82,2.82,0,0,0,1808.83.7Z"/><path class="cls-2" d="M1838.11,34.8a2.86,2.86,0,0,0,.2-5.72h0a2.82,2.82,0,0,0-2.9,2.76h0A2.83,2.83,0,0,0,1838.11,34.8Z"/><path class="cls-2" d="M1823.59,48.63h0a2.83,2.83,0,0,0,2.9-2.76h0a2.84,2.84,0,0,0-2.71-3h0a2.84,2.84,0,0,0-2.91,2.77h0A2.84,2.84,0,0,0,1823.59,48.63Z"/><path class="cls-2" d="M1851.67,49.58h0a2.86,2.86,0,1,0-2.71-3h0A2.83,2.83,0,0,0,1851.67,49.58Z"/><path class="cls-2" d="M1824.56,20h0a2.83,2.83,0,0,0,2.9-2.76h0a2.83,2.83,0,0,0-2.71-3h0a2.83,2.83,0,0,0-2.9,2.76h0A2.82,2.82,0,0,0,1824.56,20Z"/><path class="cls-2" d="M1852.63,21h0a2.87,2.87,0,0,0,.2-5.73h0a2.84,2.84,0,0,0-2.9,2.77h0A2.84,2.84,0,0,0,1852.63,21Z"/><path class="cls-2" d="M1808,62.21a2.8,2.8,0,0,0,1.66.22,2.88,2.88,0,0,0,.19-5.61,2.78,2.78,0,0,0-.57-.07,2.58,2.58,0,0,0-1.1.19,2.86,2.86,0,0,0-1.73,2,2.78,2.78,0,0,0-.07.57A2.87,2.87,0,0,0,1808,62.21Z"/><path class="cls-2" d="M1809,33.6a2.73,2.73,0,0,0,1.09.26,2.19,2.19,0,0,0,.57,0,2.88,2.88,0,0,0,.19-5.61,2.8,2.8,0,0,0-.57-.08,3,3,0,0,0-1.1.19,2.9,2.9,0,0,0-1.6,3.76A3,3,0,0,0,1809,33.6Z"/><path class="cls-2" d="M1839.08,6.19a2.84,2.84,0,0,0,2.65-1.66,3,3,0,0,0,.25-1.11,3,3,0,0,0-.42-1.62,2.79,2.79,0,0,0-3.83-.93,2.69,2.69,0,0,0-.83.78,2.92,2.92,0,0,0-.35,2.7A2.81,2.81,0,0,0,1839.08,6.19Z"/><path class="cls-2" d="M1836.19,92h0a2.84,2.84,0,0,0,2.9-2.77h0a2.81,2.81,0,1,0-5.61-.19h0A2.84,2.84,0,0,0,1836.19,92Z"/><path class="cls-2" d="M1821.67,105.86h0a2.82,2.82,0,0,0,2.9-2.77h0a2.84,2.84,0,0,0-2.7-3h0a2.84,2.84,0,0,0-2.9,2.77h0A2.83,2.83,0,0,0,1821.67,105.86Z"/><path class="cls-2" d="M1849.74,106.8h0a2.86,2.86,0,0,0,.2-5.72h0a2.84,2.84,0,0,0-2.91,2.77h0A2.83,2.83,0,0,0,1849.74,106.8Z"/><path class="cls-2" d="M1822.63,77.25a2.87,2.87,0,0,0,.2-5.73h0a2.85,2.85,0,0,0-2.91,2.77h0A2.85,2.85,0,0,0,1822.63,77.25Z"/><path class="cls-2" d="M1850.71,78.19a2.86,2.86,0,0,0,.19-5.72h0a2.82,2.82,0,0,0-2.9,2.76h0A2.83,2.83,0,0,0,1850.71,78.19Z"/><path class="cls-2" d="M1806.07,119.43a2.92,2.92,0,0,0,1.65.23,2.84,2.84,0,0,0,2.08-1.63,2.91,2.91,0,0,0-.17-2.72h0a2.8,2.8,0,0,0-2.29-1.34,2.78,2.78,0,0,0-1.1.19,2.88,2.88,0,0,0-1.27,1,2.94,2.94,0,0,0-.53,1.59,3.06,3.06,0,0,0,.18,1.12A2.86,2.86,0,0,0,1806.07,119.43Z"/><path class="cls-2" d="M1807,90.82a2.91,2.91,0,0,0,1.08.27,2.73,2.73,0,0,0,.57,0,2.88,2.88,0,0,0,.19-5.61,2.1,2.1,0,0,0-.56-.08,2.74,2.74,0,0,0-1.1.19,2.88,2.88,0,0,0-.18,5.27Z"/><path class="cls-2" d="M1837.15,63.41h0a2.84,2.84,0,0,0,2.91-2.76,3.69,3.69,0,0,0,0-.58,2.8,2.8,0,0,0-5.5-.19,2.8,2.8,0,0,0-.08.58A2.84,2.84,0,0,0,1837.15,63.41Z"/><path class="cls-2" d="M1834.26,149.25a2.86,2.86,0,1,0-2.71-3h0A2.85,2.85,0,0,0,1834.26,149.25Z"/><path class="cls-2" d="M1819.74,163.09a2.87,2.87,0,0,0,.2-5.73h0a2.84,2.84,0,0,0-2.91,2.77h0A2.85,2.85,0,0,0,1819.74,163.09Z"/><path class="cls-2" d="M1847.82,164a2.86,2.86,0,0,0,.19-5.72h0a2.83,2.83,0,0,0-2.9,2.76h0A2.83,2.83,0,0,0,1847.82,164Z"/><path class="cls-2" d="M1820.71,134.47h0a2.83,2.83,0,0,0,2.9-2.76h0a2.83,2.83,0,0,0-2.71-2.95h0a2.82,2.82,0,0,0-2.9,2.76h0A2.83,2.83,0,0,0,1820.71,134.47Z"/><path class="cls-2" d="M1848.78,135.42h0a2.87,2.87,0,0,0,.19-5.73h0a2.84,2.84,0,0,0-2.9,2.77h0A2.85,2.85,0,0,0,1848.78,135.42Z"/><path class="cls-2" d="M1804.14,176.65a2.58,2.58,0,0,0,1.09.27,3.64,3.64,0,0,0,.57,0,2.88,2.88,0,0,0,.18-5.61,2.86,2.86,0,0,0-1.66.12,2.84,2.84,0,0,0-1.73,2,2.78,2.78,0,0,0-.07.57A2.84,2.84,0,0,0,1804.14,176.65Z"/><path class="cls-2" d="M1805.1,148.05a2.73,2.73,0,0,0,1.09.26,2.19,2.19,0,0,0,.57,0,2.88,2.88,0,0,0,.19-5.61,3.72,3.72,0,0,0-.57-.08,2.93,2.93,0,0,0-1.1.19,2.9,2.9,0,0,0-1.6,3.76A2.93,2.93,0,0,0,1805.1,148.05Z"/><path class="cls-2" d="M1835.23,120.64a2.82,2.82,0,0,0,2.64-1.66,2.86,2.86,0,0,0,.26-1.11,2.92,2.92,0,0,0-.42-1.61,2.77,2.77,0,0,0-3.82-.94,2.72,2.72,0,0,0-.84.78,2.93,2.93,0,0,0-.35,2.7A2.81,2.81,0,0,0,1835.23,120.64Z"/><path class="cls-2" d="M1832.34,206.48a2.87,2.87,0,0,0,.19-5.73h0a2.83,2.83,0,0,0-2.9,2.76h0A2.84,2.84,0,0,0,1832.34,206.48Z"/><path class="cls-2" d="M1817.82,220.31a2.86,2.86,0,0,0,.2-5.72h0a2.83,2.83,0,0,0-2.9,2.76h0A2.84,2.84,0,0,0,1817.82,220.31Z"/><path class="cls-2" d="M1845.89,221.25a2.86,2.86,0,0,0,.2-5.72h0a2.84,2.84,0,0,0-2.91,2.77h0A2.83,2.83,0,0,0,1845.89,221.25Z"/><path class="cls-2" d="M1818.78,191.7h0a2.85,2.85,0,0,0,2.91-2.77h0a2.85,2.85,0,0,0-2.71-3h0a2.84,2.84,0,0,0-2.9,2.77h0A2.84,2.84,0,0,0,1818.78,191.7Z"/><path class="cls-2" d="M1846.85,192.64h0a2.86,2.86,0,0,0,.19-5.72h0a2.84,2.84,0,0,0-2.91,2.76h0A2.84,2.84,0,0,0,1846.85,192.64Z"/><path class="cls-2" d="M1802.22,233.88a2.68,2.68,0,0,0,1.08.26,2.73,2.73,0,0,0,.57,0,2.84,2.84,0,0,0,2.08-1.63,2.94,2.94,0,0,0-.17-2.72h0a2.8,2.8,0,0,0-2.29-1.34,2.78,2.78,0,0,0-1.1.19,2.88,2.88,0,0,0-1.27,1,2.94,2.94,0,0,0-.53,1.59,3.06,3.06,0,0,0,.18,1.12A2.86,2.86,0,0,0,1802.22,233.88Z"/><path class="cls-2" d="M1803.18,205.27a2.91,2.91,0,0,0,1.08.27,3.64,3.64,0,0,0,.57,0,2.88,2.88,0,0,0,.19-5.62,2.62,2.62,0,0,0-.57-.07,2.78,2.78,0,0,0-1.1.19,2.89,2.89,0,0,0-.17,5.27Z"/><path class="cls-2" d="M1833.3,177.86h0a2.82,2.82,0,0,0,2.9-2.76h0a2.85,2.85,0,0,0-2.71-3,2.86,2.86,0,0,0-.19,5.72Z"/><path class="cls-2" d="M1830.41,263.7a2.86,2.86,0,0,0,.2-5.72h0a2.83,2.83,0,0,0-2.9,2.76h0A2.85,2.85,0,0,0,1830.41,263.7Z"/><path class="cls-2" d="M1815.89,277.53h0a2.84,2.84,0,0,0,2.91-2.76h0a2.84,2.84,0,0,0-2.71-3h0a2.84,2.84,0,0,0-2.91,2.77h0A2.83,2.83,0,0,0,1815.89,277.53Z"/><path class="cls-2" d="M1844,278.48h0a2.87,2.87,0,1,0-2.71-3A2.84,2.84,0,0,0,1844,278.48Z"/><path class="cls-2" d="M1816.86,248.92a2.86,2.86,0,0,0,.19-5.72h0a2.82,2.82,0,0,0-2.9,2.76h0A2.83,2.83,0,0,0,1816.86,248.92Z"/><path class="cls-2" d="M1844.93,249.87a2.87,2.87,0,0,0,.19-5.73h0a2.84,2.84,0,0,0-2.9,2.77h0A2.84,2.84,0,0,0,1844.93,249.87Z"/><path class="cls-2" d="M1801.25,262.5a2.8,2.8,0,0,0,1.66.22,2.88,2.88,0,0,0,.19-5.61,2.8,2.8,0,0,0-.57-.08,2.93,2.93,0,0,0-1.1.19,2.9,2.9,0,0,0-1.6,3.76A3,3,0,0,0,1801.25,262.5Z"/><path class="cls-2" d="M1831.37,235.09a2.82,2.82,0,0,0,2.65-1.67,2.77,2.77,0,0,0,.26-1.1,3,3,0,0,0-.42-1.62,2.79,2.79,0,0,0-3.82-.94,2.75,2.75,0,0,0-.84.79,2.9,2.9,0,0,0-.35,2.7A2.81,2.81,0,0,0,1831.37,235.09Z"/><path class="cls-2" d="M1829.64,286.59a2.83,2.83,0,0,0-2.1.86c1.59.76,3.19,1.49,4.8,2.21,0,0,0-.08,0-.12h0a2.81,2.81,0,0,0-2.71-3Z"/><path class="cls-2" d="M1780.4,2.46a2.79,2.79,0,0,0,5.18.18,2.93,2.93,0,0,0-.13-2.64h-4.83A3,3,0,0,0,1780.4,2.46Z"/><path class="cls-2" d="M1752.33,1.52a2.8,2.8,0,0,0,2.53,1.83,2.75,2.75,0,0,0,1.58-.43,2.89,2.89,0,0,0,1.32-2.33,2.32,2.32,0,0,0,0-.59h-5.51A2.82,2.82,0,0,0,1752.33,1.52Z"/><path class="cls-2" d="M1781,61.52a2.84,2.84,0,0,0,2.91-2.76,3.69,3.69,0,0,0,0-.58,2.8,2.8,0,0,0-5.5-.19,2.79,2.79,0,0,0-.07.58A2.83,2.83,0,0,0,1781,61.52Z"/><path class="cls-2" d="M1782,32.91a2.86,2.86,0,0,0,.19-5.72h0a2.83,2.83,0,0,0-2.9,2.76h0A2.83,2.83,0,0,0,1782,32.91Z"/><path class="cls-2" d="M1767.45,46.74h0a2.86,2.86,0,1,0-2.71-3h0A2.82,2.82,0,0,0,1767.45,46.74Z"/><path class="cls-2" d="M1795.52,47.69h0a2.86,2.86,0,1,0-2.71-3h0A2.84,2.84,0,0,0,1795.52,47.69Z"/><path class="cls-2" d="M1768.41,18.13h0a2.86,2.86,0,0,0,.19-5.72h0a2.83,2.83,0,0,0-2.9,2.76h0A2.83,2.83,0,0,0,1768.41,18.13Z"/><path class="cls-2" d="M1796.48,19.08h0a2.87,2.87,0,0,0,.2-5.73h0a2.85,2.85,0,0,0-2.91,2.77h0A2.85,2.85,0,0,0,1796.48,19.08Z"/><path class="cls-2" d="M1752.93,60.58a2.81,2.81,0,0,0,1.59-.44,2.85,2.85,0,0,0,1.31-2.33,2.82,2.82,0,0,0,0-.58,2.92,2.92,0,0,0-1.12-1.83,2.77,2.77,0,0,0-1.56-.54,2.86,2.86,0,0,0-.19,5.72Z"/><path class="cls-2" d="M1753.89,32a2.79,2.79,0,0,0,1.59-.44,2.89,2.89,0,0,0,.85-4,2.71,2.71,0,0,0-.69-.74h0a2.73,2.73,0,0,0-1.55-.55,2.85,2.85,0,0,0-2.91,2.77h0A2.84,2.84,0,0,0,1753.89,32Z"/><path class="cls-2" d="M1780.12,118.59a2.8,2.8,0,0,0,1.61-1.5,2.94,2.94,0,0,0-.17-2.72h0a2.77,2.77,0,0,0-3.82-.94,2.72,2.72,0,0,0-.84.78,2.88,2.88,0,0,0-.53,1.58,3.06,3.06,0,0,0,.18,1.12A2.79,2.79,0,0,0,1780.12,118.59Z"/><path class="cls-2" d="M1780,90.14h0a2.84,2.84,0,0,0,2.9-2.77h0a2.81,2.81,0,1,0-5.61-.19h0A2.84,2.84,0,0,0,1780,90.14Z"/><path class="cls-2" d="M1765.52,104h0a2.86,2.86,0,0,0,.2-5.72h0a2.84,2.84,0,0,0-2.91,2.76h0A2.84,2.84,0,0,0,1765.52,104Z"/><path class="cls-2" d="M1793.6,104.91h0a2.86,2.86,0,0,0,.19-5.72h0a2.82,2.82,0,0,0-2.9,2.77h0A2.82,2.82,0,0,0,1793.6,104.91Z"/><path class="cls-2" d="M1766.49,75.36a2.87,2.87,0,0,0,.19-5.73h0a2.85,2.85,0,0,0-2.91,2.77h0A2.85,2.85,0,0,0,1766.49,75.36Z"/><path class="cls-2" d="M1794.56,76.3a2.86,2.86,0,0,0,.19-5.72h0a2.83,2.83,0,0,0-2.9,2.76h0A2.84,2.84,0,0,0,1794.56,76.3Z"/><path class="cls-2" d="M1751,117.8a2.76,2.76,0,0,0,1.59-.43,2.9,2.9,0,0,0,.16-4.75,2.77,2.77,0,0,0-3.92.65,2.89,2.89,0,0,0-.35,2.7A2.8,2.8,0,0,0,1751,117.8Z"/><path class="cls-2" d="M1752,89.19h0a2.75,2.75,0,0,0,1.58-.43,2.88,2.88,0,0,0,.16-4.75,2.79,2.79,0,0,0-1.55-.54,2.86,2.86,0,0,0-.19,5.72Z"/><path class="cls-2" d="M1777.15,176h0a2.84,2.84,0,0,0,2.91-2.76h0a2.86,2.86,0,0,0-2.71-2.95,2.83,2.83,0,0,0-2.83,2.19,2.8,2.8,0,0,0-.08.58A2.84,2.84,0,0,0,1777.15,176Z"/><path class="cls-2" d="M1778.12,147.36a2.86,2.86,0,1,0-2.71-3h0A2.83,2.83,0,0,0,1778.12,147.36Z"/><path class="cls-2" d="M1763.6,161.2a2.87,2.87,0,0,0,.19-5.73h0a2.82,2.82,0,0,0-2.9,2.77h0A2.83,2.83,0,0,0,1763.6,161.2Z"/><path class="cls-2" d="M1791.67,162.14a2.86,2.86,0,0,0,.19-5.72h0a2.83,2.83,0,0,0-2.9,2.76h0A2.84,2.84,0,0,0,1791.67,162.14Z"/><path class="cls-2" d="M1764.56,132.58h0a2.86,2.86,0,1,0-2.71-3h0A2.83,2.83,0,0,0,1764.56,132.58Z"/><path class="cls-2" d="M1792.63,133.53h0a2.87,2.87,0,0,0,.2-5.73h0a2.85,2.85,0,0,0-2.91,2.77h0A2.84,2.84,0,0,0,1792.63,133.53Z"/><path class="cls-2" d="M1749.08,175h0a2.76,2.76,0,0,0,1.58-.44,3,3,0,0,0,1.29-2.91,2.9,2.9,0,0,0-1.13-1.83,2.72,2.72,0,0,0-1.55-.54,2.82,2.82,0,0,0-2.83,2.19,3.7,3.7,0,0,0-.07.57A2.83,2.83,0,0,0,1749.08,175Z"/><path class="cls-2" d="M1750,146.42a2.72,2.72,0,0,0,1.59-.44,2.89,2.89,0,0,0,.85-4,2.8,2.8,0,0,0-2.25-1.29,2.87,2.87,0,0,0-.19,5.73Z"/><path class="cls-2" d="M1776.27,233a2.78,2.78,0,0,0,1.6-1.5,2.93,2.93,0,0,0-.16-2.73h0a2.77,2.77,0,0,0-4.65-.15,2.92,2.92,0,0,0-.35,2.7A2.79,2.79,0,0,0,1776.27,233Z"/><path class="cls-2" d="M1776.19,204.59a2.87,2.87,0,0,0,.19-5.73h0a2.84,2.84,0,0,0-2.9,2.77h0A2.85,2.85,0,0,0,1776.19,204.59Z"/><path class="cls-2" d="M1761.67,218.42a2.86,2.86,0,0,0,.19-5.72h0a2.83,2.83,0,0,0-2.9,2.76h0A2.84,2.84,0,0,0,1761.67,218.42Z"/><path class="cls-2" d="M1789.75,219.36a2.86,2.86,0,0,0,.19-5.72h0a2.84,2.84,0,0,0-2.91,2.77h0A2.83,2.83,0,0,0,1789.75,219.36Z"/><path class="cls-2" d="M1762.63,189.81h0a2.87,2.87,0,0,0,.2-5.73h0a2.84,2.84,0,0,0-2.91,2.77h0A2.85,2.85,0,0,0,1762.63,189.81Z"/><path class="cls-2" d="M1790.71,190.75h0a2.86,2.86,0,0,0,.19-5.72h0a2.83,2.83,0,0,0-2.9,2.76h0A2.83,2.83,0,0,0,1790.71,190.75Z"/><path class="cls-2" d="M1746.12,202.68a2.77,2.77,0,0,0,3.58.53,2.91,2.91,0,0,0,.86-4,3.28,3.28,0,0,0-.7-.74h0a2.79,2.79,0,0,0-1.55-.54,2.83,2.83,0,0,0-2.9,2.69C1745.64,201.31,1745.88,202,1746.12,202.68Z"/><path class="cls-2" d="M1788.78,248a2.87,2.87,0,0,0,.2-5.73h0a2.84,2.84,0,0,0-2.91,2.77h0A2.84,2.84,0,0,0,1788.78,248Z"/><path class="cls-2" d="M1697.62,1.2a2.92,2.92,0,0,0,1.09.27,3.64,3.64,0,0,0,.57,0,2.79,2.79,0,0,0,2-1.43h-4.87A2.87,2.87,0,0,0,1697.62,1.2Z"/><path class="cls-2" d="M1725.82,31a2.86,2.86,0,1,0-2.71-3h0A2.84,2.84,0,0,0,1725.82,31Z"/><path class="cls-2" d="M1711.49,39.13a2.84,2.84,0,0,0-2.9,2.77h0a3.1,3.1,0,0,0,.12.92,2.85,2.85,0,0,0,2.59,2h0a2.87,2.87,0,0,0,.19-5.73Z"/><path class="cls-2" d="M1739.37,45.8h0a2.86,2.86,0,1,0-2.71-3h0A2.85,2.85,0,0,0,1739.37,45.8Z"/><path class="cls-2" d="M1712.26,16.24h0a2.86,2.86,0,0,0,.2-5.72h0a2.84,2.84,0,0,0-2.91,2.77h0A2.83,2.83,0,0,0,1712.26,16.24Z"/><path class="cls-2" d="M1740.34,17.19h0a2.87,2.87,0,0,0,.19-5.73h0a2.83,2.83,0,0,0-2.9,2.77h0A2.83,2.83,0,0,0,1740.34,17.19Z"/><path class="cls-2" d="M1696.66,29.82a2.72,2.72,0,0,0,1.08.26,2.16,2.16,0,0,0,.57,0,2.88,2.88,0,0,0,.19-5.61,2.86,2.86,0,0,0-1.66.12,2.88,2.88,0,0,0-.18,5.27Z"/><path class="cls-2" d="M1726.78,2.41a2.82,2.82,0,0,0,2.65-1.66,2.9,2.9,0,0,0,.21-.75h-5.53a2.64,2.64,0,0,0,.14.57A2.84,2.84,0,0,0,1726.78,2.41Z"/><path class="cls-2" d="M1723.89,88.25a2.86,2.86,0,1,0-2.71-3A2.85,2.85,0,0,0,1723.89,88.25Z"/><path class="cls-2" d="M1737.45,103h0a2.87,2.87,0,0,0,.19-5.73h0a2.84,2.84,0,0,0-2.9,2.77h0A2.84,2.84,0,0,0,1737.45,103Z"/><path class="cls-2" d="M1713.13,69.83a2.69,2.69,0,0,0-.66-1.19C1712.69,69,1712.92,69.43,1713.13,69.83Z"/><path class="cls-2" d="M1738.41,74.41a2.86,2.86,0,0,0,.2-5.72h0a2.84,2.84,0,0,0-2.9,2.77h0A2.84,2.84,0,0,0,1738.41,74.41Z"/><path class="cls-2" d="M1724.86,59.63a2.86,2.86,0,1,0-2.64-3.53,2.79,2.79,0,0,0-.07.58A2.82,2.82,0,0,0,1724.86,59.63Z"/><path class="cls-2" d="M1735.72,154.53h0a2,2,0,0,0-.35,0q.45,2.8.91,5.61a2.86,2.86,0,0,0-.56-5.63Z"/><path class="cls-2" d="M1736.48,131.64h0a2.87,2.87,0,0,0,.19-5.73h0a2.83,2.83,0,0,0-2.9,2.77h0A2.83,2.83,0,0,0,1736.48,131.64Z"/><path class="cls-2" d="M1671.68.36a3.24,3.24,0,0,0,.66-.36h-3.24A2.8,2.8,0,0,0,1671.68.36Z"/><path class="cls-2" d="M1656.31,8.63h0c-.13,0-.25,0-.37,0l3.06,2.61A2.83,2.83,0,0,0,1656.31,8.63Z"/><path class="cls-2" d="M1684.19,15.3h0a2.82,2.82,0,0,0,2.9-2.77h0a2.84,2.84,0,0,0-2.7-3h0a2.85,2.85,0,0,0-2.9,2.77h0A2.83,2.83,0,0,0,1684.19,15.3Z"/></g></g></svg>