<svg xmlns="http://www.w3.org/2000/svg" viewBox="0 0 1920 3500"><defs><style>.cls-1{fill:#f8f4eb;}.cls-2{fill:#fff;}.cls-3{fill:#f2de79;}.cls-4{fill:#ff9685;}.cls-5{fill:none;stroke:#ff9685;stroke-linecap:round;stroke-linejoin:round;stroke-width:0;}.cls-6{fill:#0388a6;}</style></defs><g id="圖層_2" data-name="圖層 2"><g id="圖層_1-2" data-name="圖層 1"><path class="cls-1" d="M1835.5,2605.87c-27.67-45.23-53.07-92.63-65.69-144.15s-11.52-107.91,12.22-155.31c26.13-52.19,80.36-88.26,138-95.65V841.61A688.54,688.54,0,0,1,1791.8,560h0L1920,724V606.76L1778.22,425.29A734.53,734.53,0,0,1,1786.28,318L1920,489.11V371.44L1807,226.78h0a703.53,703.53,0,0,1,29.31-80.12L1920,253.8V136.51l-47.55-60.86h0a722.23,722.23,0,0,1,42.25-63.56l5.29,6.76V0H201c-22.06,28.71-45.83,56.47-62.89,88.29a249.87,249.87,0,0,0-14.28,31.84c26,34.36,41.22,75.49,38.4,118.44-3.57,56-36.28,109.62-27.2,165C152.43,508.3,302.27,545.9,326.89,649.25c18.62,78.08-50.83,156.19-129.27,172.9C132,836.06,64.76,818,3,790V996.08l25-25h0a472,472,0,0,1,44.3,22.2L3,1062.58v66.48l109.64-109.64h0a465.89,465.89,0,0,1,36.77,29.73L3,1195.57v66.29L182.55,1082.3a465.89,465.89,0,0,1,29.73,36.77L3,1328.35v66.49l235.4-235.4a466,466,0,0,1,22.2,44.3L3,1461.34v66.29l275.27-275.28a455.12,455.12,0,0,1,12.56,53.94L3,1594.12v66.5l294-294a477.58,477.58,0,0,1-3.32,69.81L3,1727.12v66.28l271.26-271.25a444,444,0,0,1-107.88,174.37h0A444.08,444.08,0,0,1,3,1800.57v1145.1a150.21,150.21,0,0,1,80.58,89.92c7.66,23.26,9.68,48.48,20.75,70.32,18.58,36.64,58.28,56.5,88.82,84,65.44,58.89,87.12,161.3,51.15,241.66-11.09,24.77-26.72,46.87-43.3,68.45H1920V2729.65Q1874.79,2670,1835.5,2605.87Zm-224.27-687.69L1484,2045.37h0a156.75,156.75,0,0,1-22.92,1.08l151.2-151.2A156.89,156.89,0,0,1,1611.23,1918.18Zm-41.79,85.39a145.85,145.85,0,0,1-57.27,35.43l92.69-92.69a145.83,145.83,0,0,1-35.42,57.26Zm-101,837.17-115.8,115.8A183.47,183.47,0,0,1,1468.4,2840.74Zm141.9-965.31-169,169h0a149.11,149.11,0,0,1-17.71-4.12l182.6-182.61A147.33,147.33,0,0,1,1610.3,1875.43Zm-9.92-33.68-192.77,192.76h0a151.79,151.79,0,0,1-14.54-7.29l200-200A155.54,155.54,0,0,1,1600.38,1841.75ZM1584.5,1814l-204.69,204.7h0a153,153,0,0,1-12.08-9.77l207-207A148.73,148.73,0,0,1,1584.5,1814Zm-20.64-23-207,207a151,151,0,0,1-9.77-12.07l204.7-204.7A151,151,0,0,1,1563.86,1791Zm-144.44-30.12-92.69,92.69A146.85,146.85,0,0,1,1419.42,1760.87ZM367.11,2137.53h0l-52.72,52.72A83.51,83.51,0,0,1,367.11,2137.53Zm-56.35,68.73,72.35-72.36h0a88.72,88.72,0,0,1,13-.61l-86,86A88.72,88.72,0,0,1,310.76,2206.26Zm.53,24.31,96.14-96.14h0a85,85,0,0,1,10.07,2.35L313.63,2240.65A84.66,84.66,0,0,1,311.29,2230.57Zm5.65,19.16,109.65-109.65h0a88.78,88.78,0,0,1,8.28,4.14L321.09,2258A87.48,87.48,0,0,1,316.94,2249.73Zm9,15.82L442.4,2149.1h0q3.57,2.61,6.87,5.56L331.52,2272.41A84.85,84.85,0,0,1,326,2265.55Zm18.6,18.61h0c-2.38-1.74-4.68-3.59-6.87-5.55l117.76-117.76a85.42,85.42,0,0,1,5.55,6.87L344.58,2284.16h0Zm15.82,9h0a87.39,87.39,0,0,1-8.27-4.14L465.9,2175.26a87.48,87.48,0,0,1,4.15,8.27L360.39,2293.18h0Zm19.16,5.64h0a86.5,86.5,0,0,1-10.07-2.34l103.86-103.88a85.16,85.16,0,0,1,2.35,10.08l-96.14,96.14Zm72.9-23.25a83,83,0,0,1-32.58,20.16L472.59,2243a82.91,82.91,0,0,1-20.15,32.58ZM476.21,2227l-72.35,72.35h0a90.05,90.05,0,0,1-13,.62l86-86A87.49,87.49,0,0,1,476.21,2227Zm844.16-345.32,127.19-127.19h0a156.68,156.68,0,0,1,22.92-1.08l-151.2,151.2A155.51,155.51,0,0,1,1320.37,1881.69Zm.92,42.75,169-169a149.56,149.56,0,0,1,17.71,4.12l-182.6,182.61A151.29,151.29,0,0,1,1321.29,1924.44Zm9.93,33.68L1524,1765.36h0a152,152,0,0,1,14.55,7.29l-200,200A153.14,153.14,0,0,1,1331.22,1958.12Zm13.43,1033.57,158.9-158.9a194.44,194.44,0,0,1,28.64-1.36l-188.9,188.9A197.16,197.16,0,0,1,1344.65,2991.69Zm1.15,53.41L1557,2833.94h0a187.9,187.9,0,0,1,22.13,5.15L1351,3067.23A186.87,186.87,0,0,1,1345.8,3045.1Zm12.41,42.07L1599,2846.34h0a192.68,192.68,0,0,1,18.18,9.1l-249.89,249.89A190.22,190.22,0,0,1,1358.21,3087.17Zm19.82,34.74,255.74-255.74h0a190,190,0,0,1,15.08,12.2L1390.23,3137A191.78,191.78,0,0,1,1378,3121.91Zm25.8,28.68L1662.45,2892a191.78,191.78,0,0,1,12.2,15.08l-255.74,255.74h0A191.78,191.78,0,0,1,1403.83,3150.59Zm31.65,22.92,249.89-249.9a192.68,192.68,0,0,1,9.1,18.18l-240.82,240.82h0A194.94,194.94,0,0,1,1435.48,3173.51Zm38.11,16.35,228.13-228.13a186.87,186.87,0,0,1,5.16,22.13L1495.72,3195A184.89,184.89,0,0,1,1473.59,3189.86Zm182.23-45.9a182.25,182.25,0,0,1-71.54,44.26l115.8-115.8A182.25,182.25,0,0,1,1655.82,3144ZM1708,3037.27l-158.9,158.9a195.76,195.76,0,0,1-28.64,1.36l188.9-188.9A195.76,195.76,0,0,1,1708,3037.27Z"/><path class="cls-2" d="M197.62,822.15c78.44-16.71,147.89-94.82,129.27-172.9C302.27,545.9,152.43,508.3,135,403.56c-9.08-55.37,23.63-109,27.2-165,2.82-42.95-12.44-84.08-38.4-118.44a249.54,249.54,0,0,0-12.14,46.35c-2.92,18.21-3.87,36.94-10.19,54.26C91.93,247,70.82,267.59,47.48,283A186.91,186.91,0,0,1,0,305.59v483L3,790C64.76,818,132,836.06,197.62,822.15Z"/><path class="cls-3" d="M1920,841.61V724L1791.8,560A688.54,688.54,0,0,0,1920,841.61Z"/><path class="cls-3" d="M1872.46,75.65h0L1920,136.51V18.85l-5.29-6.76A722.23,722.23,0,0,0,1872.46,75.65Z"/><path class="cls-3" d="M1807,226.78h0l113,144.66V253.8l-83.71-107.14A703.53,703.53,0,0,0,1807,226.78Z"/><polygon class="cls-3" points="1791.8 559.94 1791.8 559.95 1791.8 559.94 1791.8 559.94"/><path class="cls-3" d="M1778.22,425.29,1920,606.76V489.11L1786.28,318A734.53,734.53,0,0,0,1778.22,425.29Z"/><path class="cls-3" d="M1484,2045.37h0l127.19-127.19a156.89,156.89,0,0,0,1.09-22.93l-151.2,151.2A156.75,156.75,0,0,0,1484,2045.37Z"/><path class="cls-3" d="M1524,1765.36h0l-192.76,192.76a153.14,153.14,0,0,0,7.29,14.55l200-200A152,152,0,0,0,1524,1765.36Z"/><polygon class="cls-3" points="1379.81 2018.65 1379.81 2018.65 1379.81 2018.65 1379.81 2018.65"/><path class="cls-3" d="M1407.61,2034.51l192.77-192.76a155.54,155.54,0,0,0-7.29-14.55l-200,200A151.79,151.79,0,0,0,1407.61,2034.51Z"/><path class="cls-3" d="M1326.73,1853.56l92.69-92.69A146.85,146.85,0,0,0,1326.73,1853.56Z"/><polygon class="cls-3" points="1407.61 2034.51 1407.61 2034.51 1407.61 2034.51 1407.61 2034.51"/><path class="cls-3" d="M1356.86,1998l207-207a151,151,0,0,0-12.07-9.77l-204.7,204.7A151,151,0,0,0,1356.86,1998Z"/><path class="cls-3" d="M1490.31,1755.43l-169,169a151.29,151.29,0,0,0,4.13,17.72L1508,1759.55A149.56,149.56,0,0,0,1490.31,1755.43Z"/><path class="cls-3" d="M1379.81,2018.65,1584.5,1814a148.73,148.73,0,0,0-9.76-12.07l-207,207A153,153,0,0,0,1379.81,2018.65Z"/><path class="cls-3" d="M1447.56,1754.5h0l-127.19,127.19a155.51,155.51,0,0,0-1.09,22.93l151.2-151.2A156.68,156.68,0,0,0,1447.56,1754.5Z"/><path class="cls-3" d="M1512.17,2039a145.85,145.85,0,0,0,57.27-35.43h0a145.83,145.83,0,0,0,35.42-57.26Z"/><polygon class="cls-3" points="1441.29 2044.44 1441.29 2044.44 1441.29 2044.44 1441.29 2044.44"/><path class="cls-3" d="M1441.29,2044.44l169-169a147.33,147.33,0,0,0-4.12-17.72l-182.6,182.61A149.11,149.11,0,0,0,1441.29,2044.44Z"/><path class="cls-4" d="M1694.47,2941.79a192.68,192.68,0,0,0-9.1-18.18l-249.89,249.9a194.94,194.94,0,0,0,18.17,9.1h0Z"/><path class="cls-4" d="M1701.72,2961.73l-228.13,228.13a184.89,184.89,0,0,0,22.13,5.15l211.16-211.15A186.87,186.87,0,0,0,1701.72,2961.73Z"/><path class="cls-4" d="M1674.65,2907.05a191.78,191.78,0,0,0-12.2-15.08l-258.62,258.62a191.78,191.78,0,0,0,15.08,12.2h0Z"/><path class="cls-4" d="M1633.77,2866.17h0L1378,3121.91a191.78,191.78,0,0,0,12.2,15.08l258.62-258.62A190,190,0,0,0,1633.77,2866.17Z"/><path class="cls-4" d="M1503.55,2832.79l-158.9,158.9a197.16,197.16,0,0,0-1.36,28.64l188.9-188.9A194.44,194.44,0,0,0,1503.55,2832.79Z"/><path class="cls-4" d="M1352.6,2956.54l115.8-115.8A183.47,183.47,0,0,0,1352.6,2956.54Z"/><path class="cls-4" d="M1599,2846.35h0l-240.82,240.83a190.22,190.22,0,0,0,9.11,18.17l249.89-249.89A192.68,192.68,0,0,0,1599,2846.35Z"/><path class="cls-4" d="M1520.49,3197.53a195.76,195.76,0,0,0,28.64-1.36l158.9-158.9a195.76,195.76,0,0,0,1.36-28.64Z"/><path class="cls-4" d="M1655.82,3144a182.25,182.25,0,0,0,44.26-71.54l-115.8,115.8A182.25,182.25,0,0,0,1655.82,3144Z"/><path class="cls-4" d="M1557,2833.94h0L1345.8,3045.1a186.87,186.87,0,0,0,5.16,22.13l228.13-228.14A187.9,187.9,0,0,0,1557,2833.94Z"/><line class="cls-5" x1="27.97" y1="971.11" x2="27.97" y2="971.11"/><path class="cls-4" d="M28,971.11l-25,25-3,3v66.5l3-3,69.27-69.27A472,472,0,0,0,28,971.11Z"/><path class="cls-4" d="M182.55,1082.3,3,1261.86l-3,3v66.49l3-3,209.28-209.28A465.89,465.89,0,0,0,182.55,1082.3Z"/><path class="cls-4" d="M238.4,1159.44,3,1394.84l-3,3v66.5l3-3,257.6-257.6A466,466,0,0,0,238.4,1159.44Z"/><path class="cls-4" d="M278.27,1252.35,3,1527.63l-3,3v66.49l3-3,287.83-287.83A455.12,455.12,0,0,0,278.27,1252.35Z"/><path class="cls-4" d="M166.38,1696.52a444,444,0,0,0,107.88-174.37L3,1793.4l-3,3v5.24l3-1.07a444.08,444.08,0,0,0,163.38-104Z"/><path class="cls-4" d="M112.64,1019.43h0L3,1129.06l-3,3v66.51l3-3,146.41-146.41A465.89,465.89,0,0,0,112.64,1019.43Z"/><path class="cls-4" d="M297,1366.66l-294,294-3,3v66.5l3-3,290.64-290.65A477.58,477.58,0,0,0,297,1366.66Z"/><polygon class="cls-3" points="379.55 2298.83 379.55 2298.83 379.55 2298.83 379.55 2298.83"/><polygon class="cls-3" points="360.39 2293.18 360.4 2293.18 360.39 2293.18 360.39 2293.18"/><path class="cls-3" d="M426.59,2140.08h0L316.94,2249.73a87.48,87.48,0,0,0,4.15,8.27l113.78-113.78A88.78,88.78,0,0,0,426.59,2140.08Z"/><polygon class="cls-3" points="344.57 2284.16 344.58 2284.16 344.58 2284.16 344.57 2284.16"/><path class="cls-3" d="M455.47,2160.85,337.71,2278.61c2.19,2,4.49,3.81,6.87,5.55L461,2167.72A85.42,85.42,0,0,0,455.47,2160.85Z"/><path class="cls-3" d="M442.41,2149.1h0L326,2265.55a84.85,84.85,0,0,0,5.55,6.86l117.76-117.75Q446,2151.71,442.41,2149.1Z"/><path class="cls-3" d="M465.9,2175.26,352.12,2289a87.39,87.39,0,0,0,8.27,4.14l109.66-109.65A87.48,87.48,0,0,0,465.9,2175.26Z"/><path class="cls-3" d="M473.34,2192.61,369.48,2296.49a86.5,86.5,0,0,0,10.07,2.34l96.14-96.14A85.16,85.16,0,0,0,473.34,2192.61Z"/><path class="cls-3" d="M407.44,2134.43h0l-96.14,96.14a84.66,84.66,0,0,0,2.34,10.08l103.88-103.87A85,85,0,0,0,407.44,2134.43Z"/><path class="cls-3" d="M367.11,2137.53a83.51,83.51,0,0,0-52.72,52.72l52.72-52.72Z"/><polygon class="cls-3" points="403.87 2299.36 403.86 2299.36 403.86 2299.36 403.87 2299.36"/><path class="cls-3" d="M419.87,2295.74a83,83,0,0,0,32.58-20.16h0A82.91,82.91,0,0,0,472.59,2243Z"/><path class="cls-3" d="M383.12,2133.9h0l-72.35,72.36a88.72,88.72,0,0,0-.61,13l86-86A88.72,88.72,0,0,0,383.12,2133.9Z"/><path class="cls-3" d="M390.83,2300a90.05,90.05,0,0,0,13-.62L476.21,2227a87.49,87.49,0,0,0,.62-13Z"/><path class="cls-2" d="M1782,2306.41c-23.74,47.4-24.84,103.79-12.22,155.31s38,98.92,65.69,144.15q39.15,64.1,84.5,123.78V2210.76C1862.39,2218.15,1808.16,2254.22,1782,2306.41Z"/><path class="cls-6" d="M193.15,3189.89c-30.54-27.48-70.24-47.34-88.82-84-11.07-21.84-13.09-47.06-20.75-70.32A150.21,150.21,0,0,0,3,2945.67c-1-.45-2-.9-3-1.33V3500H201c16.58-21.58,32.21-43.68,43.3-68.45C280.27,3351.19,258.59,3248.78,193.15,3189.89Z"/><path class="cls-6" d="M47.48,283c23.34-15.37,44.45-36,54-62.22,6.32-17.32,7.27-36.05,10.19-54.26a250.59,250.59,0,0,1,26.42-78.19C155.17,56.47,178.94,28.71,201,0H0V305.59A186.91,186.91,0,0,0,47.48,283Z"/></g></g></svg>