<svg xmlns="http://www.w3.org/2000/svg" viewBox="0 0 342.64 438.01"><defs><style>.cls-1{fill:#f2de79;}</style></defs><g id="圖層_2" data-name="圖層 2"><g id="圖層_1-2" data-name="圖層 1"><g id="Group_371" data-name="Group 371"><path id="Path_29643" data-name="Path 29643" class="cls-1" d="M61.86,149.14A17,17,0,0,1,50.61,136.9L46.11,118,41.6,136.9a17,17,0,0,1-11.25,12.24L19,152.87l11.34,3.74A17.06,17.06,0,0,1,41.6,168.84l4.5,18.9,4.51-18.9a17,17,0,0,1,11.24-12.23l11.35-3.74Z"/><path id="Path_29644" data-name="Path 29644" class="cls-1" d="M82,111.61,80,103l-2.06,8.65a7.79,7.79,0,0,1-5.15,5.6l-5.2,1.71,5.2,1.72a7.79,7.79,0,0,1,5.15,5.6L80,134.89,82,126.24a7.75,7.75,0,0,1,5.15-5.6l5.2-1.72-5.2-1.71A7.75,7.75,0,0,1,82,111.61Z"/></g><g id="Group_378" data-name="Group 378"><path id="Path_29643-2" data-name="Path 29643-2" class="cls-1" d="M312.12,399.4a17,17,0,0,1-11.24-12.23l-4.51-18.9-4.5,18.9a17.06,17.06,0,0,1-11.25,12.23l-11.35,3.74,11.35,3.74a17,17,0,0,1,11.24,12.23l4.51,18.9,4.5-18.9a17,17,0,0,1,11.25-12.23l11.35-3.74Z"/><path id="Path_29644-2" data-name="Path 29644-2" class="cls-1" d="M332.29,361.88l-2.06-8.66-2.07,8.66a7.82,7.82,0,0,1-5.15,5.6l-5.2,1.71,5.2,1.71a7.82,7.82,0,0,1,5.15,5.6l2.07,8.66,2.06-8.66a7.82,7.82,0,0,1,5.15-5.6l5.2-1.71-5.2-1.71A7.82,7.82,0,0,1,332.29,361.88Z"/></g><path id="Path_29647" data-name="Path 29647" class="cls-1" d="M319.82,214.48l-1.58-6.22-1.58,6.22a5.77,5.77,0,0,1-3.94,4l-4,1.23,4,1.23a5.76,5.76,0,0,1,3.94,4l1.58,6.23,1.58-6.23a5.76,5.76,0,0,1,3.94-4l4-1.23-4-1.23A5.77,5.77,0,0,1,319.82,214.48Z"/><path id="Path_29653" data-name="Path 29653" class="cls-1" d="M112.46,237.48l-1.58-6.22-1.58,6.22a5.79,5.79,0,0,1-4,4l-4,1.23,4,1.23a5.77,5.77,0,0,1,4,4l1.58,6.22,1.58-6.22a5.74,5.74,0,0,1,3.94-4l4-1.23-4-1.23A5.75,5.75,0,0,1,112.46,237.48Z"/><path id="Path_29651" data-name="Path 29651" class="cls-1" d="M189,36.39l-1.2-4.71-1.2,4.71a4.38,4.38,0,0,1-3,3l-3,.93,3,.93a4.38,4.38,0,0,1,3,3.05l1.2,4.71,1.2-4.71a4.38,4.38,0,0,1,3-3.05l3-.93-3-.93A4.38,4.38,0,0,1,189,36.39Z"/><path id="Path_29648" data-name="Path 29648" class="cls-1" d="M330.47,122.62l-2.17-8.57-2.18,8.57a7.91,7.91,0,0,1-5.43,5.54l-5.48,1.7,5.48,1.7a8,8,0,0,1,5.43,5.55l2.18,8.57,2.17-8.57a8,8,0,0,1,5.43-5.55l5.49-1.7-5.49-1.7A7.93,7.93,0,0,1,330.47,122.62Z"/><path id="Path_29652" data-name="Path 29652" class="cls-1" d="M15.27,323.78l-2.18-8.57-2.18,8.57a7.93,7.93,0,0,1-5.43,5.55L0,331l5.48,1.7a7.9,7.9,0,0,1,5.43,5.54l2.18,8.57,2.18-8.57a7.9,7.9,0,0,1,5.43-5.54l5.48-1.7-5.48-1.7A7.93,7.93,0,0,1,15.27,323.78Z"/><path id="Path_29649" data-name="Path 29649" class="cls-1" d="M218.78,10.78,216,0,213.3,10.78a10,10,0,0,1-6.83,7l-6.9,2.14,6.9,2.13a10,10,0,0,1,6.83,7L216,39.77,218.78,29a10,10,0,0,1,6.83-7l6.9-2.13-6.9-2.14A10,10,0,0,1,218.78,10.78Z"/></g></g></svg>