<svg xmlns="http://www.w3.org/2000/svg" viewBox="0 0 73.35 84.74"><defs><style>.cls-1{fill:#f2de79;}</style></defs><g id="圖層_2" data-name="圖層 2"><g id="圖層_1-2" data-name="圖層 1"><g id="Group_371" data-name="Group 371"><path id="Path_29643" data-name="Path 29643" class="cls-1" d="M42.86,46.14A17,17,0,0,1,31.61,33.9L27.11,15,22.6,33.9A17,17,0,0,1,11.35,46.14L0,49.87l11.34,3.74A17.07,17.07,0,0,1,22.6,65.84l4.5,18.9,4.51-18.9A17,17,0,0,1,42.85,53.61L54.2,49.87Z"/><path id="Path_29644" data-name="Path 29644" class="cls-1" d="M63,8.61,61,0,58.94,8.65a7.79,7.79,0,0,1-5.15,5.6L48.59,16l5.2,1.72a7.79,7.79,0,0,1,5.15,5.6L61,31.89l2-8.65a7.75,7.75,0,0,1,5.15-5.6l5.2-1.72-5.2-1.71A7.75,7.75,0,0,1,63,8.61Z"/></g></g></g></svg>