<svg xmlns="http://www.w3.org/2000/svg" viewBox="0 0 51.91 49.01"><defs><style>.cls-1{fill:#f2de79;}</style></defs><g id="圖層_2" data-name="圖層 2"><g id="圖層_1-2" data-name="圖層 1"><path id="Path_29651" data-name="Path 29651" class="cls-1" d="M8.4,36.39,7.2,31.68,6,36.39a4.39,4.39,0,0,1-3,3l-3,.93,3,.93a4.39,4.39,0,0,1,3,3L7.2,49,8.4,44.3a4.39,4.39,0,0,1,3-3l3-.93-3-.93A4.39,4.39,0,0,1,8.4,36.39Z"/><path id="Path_29649" data-name="Path 29649" class="cls-1" d="M38.18,10.78,35.4,0,32.7,10.78a10,10,0,0,1-6.83,7L19,19.92l6.9,2.13a10,10,0,0,1,6.83,7l2.7,10.72L38.18,29A10,10,0,0,1,45,22l6.9-2.13L45,17.73A10,10,0,0,1,38.18,10.78Z"/></g></g></svg>