<svg xmlns="http://www.w3.org/2000/svg" viewBox="0 0 99.11 86.08"><defs><style>.cls-1{fill:#fff;}</style></defs><g id="圖層_2" data-name="圖層 2"><g id="圖層_1-2" data-name="圖層 1"><g id="Path_29640" data-name="Path 29640"><path class="cls-1" d="M70.79,84.58c-6.38,0-13.55-.35-20.2-1a156.06,156.06,0,0,1-23.08-3.79c-8-2-14.31-4.63-18.68-7.73a19.53,19.53,0,0,1-5.42-5.49A12.44,12.44,0,0,1,1.5,59.94c0-5,1.75-11.24,5.06-18A93,93,0,0,1,19.47,22.7,81.87,81.87,0,0,1,36.4,7.53a44.19,44.19,0,0,1,8.68-4.45A23.81,23.81,0,0,1,53.17,1.5h1c10.17,0,21.7,0,30.12,2.72,4.32,1.39,7.47,3.36,9.65,6a15,15,0,0,1,2.65,4.9,21.69,21.69,0,0,1,1,6.69A150.49,150.49,0,0,1,96.29,41a118.64,118.64,0,0,1-4.52,20.79c-2.29,7.05-5.12,12.57-8.41,16.42a19.72,19.72,0,0,1-5.73,4.73A14.55,14.55,0,0,1,70.79,84.58Z"/><path class="cls-1" d="M54.22,3h-1c-4.6,0-10.12,2-16,5.79a80.17,80.17,0,0,0-16.6,14.89A90.58,90.58,0,0,0,7.91,42.62C4.7,49.15,3,55.14,3,59.94A10.79,10.79,0,0,0,4.69,65.8a18,18,0,0,0,5,5.06c4.22,3,10.34,5.51,18.18,7.49A151.7,151.7,0,0,0,50.73,82.1c6.6.63,13.73,1,20.06,1a12.89,12.89,0,0,0,6.14-1.51,18.43,18.43,0,0,0,5.29-4.39c3.16-3.69,5.9-9,8.13-15.91,4.24-13.06,5.76-28.94,5.76-39.45,0-4.47-1.08-8-3.28-10.64-2-2.42-4.92-4.23-9-5.53C75.69,3,64.28,3,54.22,3m0-3c21.7,0,44.89.17,44.89,21.82,0,22-6.32,64.26-28.32,64.26S0,81.94,0,59.94,31.17,0,53.17,0Z"/></g></g></g></svg>