<?xml version="1.0" encoding="utf-8"?>
<!-- Generator: Adobe Illustrator 24.2.1, SVG Export Plug-In . SVG Version: 6.00 Build 0)  -->
<svg version="1.1" id="圖層_1" xmlns="http://www.w3.org/2000/svg" xmlns:xlink="http://www.w3.org/1999/xlink" x="0px" y="0px"
	 viewBox="0 0 189.2 121" style="enable-background:new 0 0 189.2 121;" xml:space="preserve">
<style type="text/css">
	.st0{fill:#404040;}
	.st1{fill:#FFFFFF;}
</style>
<circle class="st0" cx="42" cy="108.1" r="12.9"/>
<circle class="st0" cx="79.6" cy="108.1" r="12.9"/>
<path class="st0" d="M101.6,82H34.4L33,74.4h55.3c1.6,0,3.1-1,3.7-2.5l13.2-33.2c0.8-2-0.2-4.3-2.2-5.1c-0.5-0.2-1-0.3-1.5-0.3H26.2
	l-3.2-18.1c-0.3-1.9-2-3.3-3.9-3.3H4c-2.2,0.3-3.7,2.4-3.3,4.6c0.3,1.7,1.6,3,3.3,3.3h11.8l11.3,66.8c0.3,1.9,2,3.3,3.9,3.3h70.5
	c2.2,0,3.9-1.8,3.9-4C105.5,83.8,103.8,82,101.6,82L101.6,82z"/>
<path class="st0" d="M145.5,23.1c0.1,0,0.3,0,0.4-0.1l0.5-0.2l-0.3-0.7l-0.9,0.3l0.2,0.5C145.3,23,145.4,23.1,145.5,23.1z"/>
<path class="st0" d="M142.8,24c0.1-0.2,0.1-0.5,0-0.8l-0.9,0.3l0.4,1.1C142.5,24.5,142.6,24.2,142.8,24z"/>
<rect x="141.5" y="19.7" transform="matrix(0.9398 -0.3417 0.3417 0.9398 1.7186 50.0636)" class="st0" width="3" height="0.8"/>
<rect x="143.3" y="36" transform="matrix(0.9398 -0.3419 0.3419 0.9398 -4.2532 51.4495)" class="st0" width="1.2" height="3.6"/>
<rect x="137.7" y="20.9" transform="matrix(0.9397 -0.342 0.342 0.9397 0.5688 48.6248)" class="st0" width="1" height="3.7"/>
<path class="st0" d="M188.4,18.9c-3.8-14.2-20.1-22.1-36.5-17.7s-26.6,19.4-22.8,33.6c2.2,8.4-13.9,15.2-5.7,17.8
	c6.1,2,35.6,1.6,42.2-0.1C182,48.1,192.2,33.1,188.4,18.9z M150.5,18.4c0.8-0.3,1.7-0.3,2.5-0.1c0.6,0.1,1.1,0.1,1.7,0.1
	c0.3,0,0.7,0,1-0.2c0.4-0.1,0.7-0.3,1-0.6c0.3-0.4,0.5-0.8,0.7-1.2l0.6,0.3c-0.3,1.1-1,2.1-2.1,2.6c-0.8,0.2-1.7,0.3-2.6,0.1
	c-0.6-0.1-1.1-0.1-1.7-0.1c-0.3,0-0.7,0.1-1,0.2c-0.4,0.1-0.7,0.3-1,0.6c-0.3,0.4-0.5,0.8-0.7,1.2l-0.6-0.3
	C148.7,19.8,149.5,18.9,150.5,18.4z M157.1,30.5c-0.1,0.3-0.2,0.5-0.2,0.8c0,0.2,0,0.3-0.1,0.3c-0.1,0-0.2,0-0.3,0
	c-0.6-0.2-1.2-0.5-1.8-0.8c-0.3,1-0.7,2-1.4,2.8c-0.1,0.1-0.1,0.1-0.2,0.2c-0.1,0-0.1,0-0.2-0.2c-0.2-0.3-0.4-0.5-0.6-0.7
	c0.7-0.8,1.1-1.7,1.4-2.7c0-0.2,0.1-0.4,0.1-0.6l1-0.2c0.1,0,0.2,0,0.2,0.1c0,0.1,0,0.2-0.1,0.2l-0.1,0.1
	C155.7,30.2,156.4,30.4,157.1,30.5L157.1,30.5z M145.9,20.5h-0.1l-1.4,0.5l-2,0.7l-1.4,0.5c-0.1,0-0.1,0-0.1,0c0,0-0.1-0.1-0.1-0.1
	l-0.2-0.8l-0.2-0.7l-0.3-0.8c0-0.1,0-0.1,0-0.1c0,0,0.1-0.1,0.1-0.1l1.4-0.5l2-0.7l1.4-0.5c0,0,0.1,0,0.1,0c0,0,0,0,0.1,0.1l0.2,0.8
	l0.2,0.7l0.3,0.7C145.9,20.4,145.9,20.4,145.9,20.5z M138.9,18.5l1.5-0.5l3.2-1.1l1.5-0.6c0.1,0,0.1,0,0.1,0c0,0,0,0.1,0,0.1
	l0.3,0.8c0,0.1,0,0.1,0,0.1c0,0-0.1,0-0.1,0.1l-1.5,0.5l-3.2,1.1l-1.5,0.6c0,0-0.1,0-0.1,0c0,0,0-0.1,0-0.1l-0.3-0.8
	c0-0.1,0-0.1,0-0.1S138.9,18.6,138.9,18.5L138.9,18.5z M140.8,25.7L140,26c-0.1,0-0.1,0-0.1,0c0,0-0.1-0.1-0.1-0.1l-0.2-0.6
	l-0.9,0.3l0.4,1.1c0,0.1,0,0.1,0,0.1s0,0-0.1,0.1l-0.8,0.3c-0.1,0-0.1,0-0.1,0s0,0-0.1-0.1l-1-2.8l-0.6-1.6l-0.8-2.2
	c0-0.1,0-0.1,0-0.1s0,0,0.1-0.1l1-0.3l0.9-0.3l0.9-0.4c0.1,0,0.1,0,0.1,0s0,0,0.1,0.1l0.6,1.8l0.6,1.7l1,2.6
	C140.9,25.6,140.9,25.6,140.8,25.7C140.9,25.7,140.9,25.7,140.8,25.7L140.8,25.7z M140.5,23.2c0,0,0-0.1,0-0.1l0.1-0.1l1.5-0.5
	l3-1.1l1.5-0.6c0.1,0,0.1,0,0.1,0s0,0,0.1,0.1l0.5,1.4l0.6,1.5l0.5,1.4c0.1,0.3,0.1,0.5,0,0.8c-0.1,0.2-0.2,0.3-0.4,0.4
	c-0.2,0.1-0.5,0.2-0.7,0.3c-0.1,0-0.2,0.1-0.3,0.1c-0.1-0.1-0.1-0.2-0.2-0.3c-0.1-0.2-0.3-0.5-0.5-0.7c0.3-0.1,0.5-0.1,0.8-0.2
	c0.2,0,0.3-0.1,0.3-0.3c0-0.1,0-0.1-0.1-0.2l-0.6-1.6c-0.2,0.1-0.4,0.2-0.6,0.2c-0.3,0.1-0.7,0.2-1,0.2c-0.1,0-0.2-0.1-0.3-0.1
	c-0.1-0.1-0.1-0.2-0.2-0.3l-0.3-0.8l-0.6,0.2c0.2,0.7,0.1,1.5-0.4,2c-0.1,0.1-0.1,0.1-0.2,0.2c-0.1,0-0.2,0-0.3-0.2
	c-0.1-0.1-0.3-0.2-0.4-0.2l0.7,2l0.5,1.2c0,0.1,0,0.1,0,0.1c0,0-0.1,0-0.1,0l-0.8,0.3c-0.1,0-0.1,0-0.1,0c0,0,0-0.1,0-0.1L142,27
	l-1-2.7L140.5,23.2z M145.6,26.1l0.3,0.7c0,0.1,0,0.1,0,0.1c0,0-0.1,0-0.1,0.1l-0.8,0.3c-0.1,0-0.1,0-0.1,0s0,0,0-0.1l-0.2-0.7
	l-0.3-0.8l0,0l-1,0.4c-0.1,0-0.1,0-0.1,0c0,0-0.1-0.1-0.1-0.1l-0.2-0.6c0,0,0-0.1,0-0.1l0.1-0.1l1-0.4l1.1-0.4l1-0.4
	c0.1,0,0.1,0,0.1,0s0,0,0,0.1l0.2,0.6c0,0,0,0.1,0,0.1c0,0,0,0-0.1,0.1l-1,0.4h-0.1L145.6,26.1z M153.6,40.7
	c-0.2,0.3-0.5,0.6-0.8,0.7c-0.5,0.3-1,0.5-1.5,0.7c-0.8,0.3-1.6,0.5-2.5,0.6c-0.5,0-0.9-0.3-1-0.8c-0.1-0.4-0.1-0.9,0-1.3
	c0.2-0.6,0.4-1.1,0.7-1.6l1.2-2.1l-1.4,0.5l-1,0.4c-0.1,0-0.1,0-0.1,0s0,0,0-0.1l-0.2-0.7c-0.1,0.2-0.1,0.3-0.2,0.3
	c-0.1,0-0.2,0-0.3-0.1c-0.2-0.1-0.5-0.1-0.7-0.1l0.2,0.7l1,2.7c0,0.1,0,0.1,0,0.1c0,0-0.1,0.1-0.1,0.1l-0.9,0.3c0,0-0.1,0-0.1,0
	c0,0,0-0.1,0-0.1l-0.2-0.6l-1.1,0.4l0.4,1.1c0,0.1,0,0.1-0.1,0.1l-0.9,0.3c-0.1,0-0.1,0-0.2-0.1l-1-2.8l-0.6-1.7l-0.8-2.1
	c0-0.1,0-0.1,0.1-0.2l1-0.4l1-0.4l1-0.4c0.1,0,0.1,0,0.2,0.1l0.6,1.8l0.3,0.7c0.4-1,0.6-2.1,0.5-3.2c0-0.4,0-0.8-0.1-1.1
	c0.4-0.1,0.8-0.1,1.2-0.2c0.1,0,0.2,0,0.2,0.1c0,0.1,0,0.2,0,0.3c-0.1,0.2-0.1,0.4-0.1,0.6V34l2.5-0.9l1.4-0.5c0,0,0.1,0,0.1,0
	c0,0,0,0.1,0,0.1l0.3,0.9c0,0.1,0,0.1,0,0.1s0,0-0.1,0.1l-1.4,0.5l-3,1.1c-0.1,0.5-0.2,1-0.3,1.4l1-0.3l2.2-0.8
	c0.1,0,0.2-0.1,0.2-0.1l0.2-0.1c0.2,0,0.5,0.1,0.6,0.2c0.2,0.1,0.4,0.2,0.5,0.4c0,0.1,0,0.3-0.1,0.3c-0.2,0.1-0.3,0.3-0.4,0.4
	c-0.3,0.4-0.7,1.1-1.3,2.1c-0.3,0.5-0.6,1.1-0.8,1.6c-0.1,0.2-0.1,0.5-0.1,0.8c0.1,0.2,0.2,0.2,0.5,0.2c0.5-0.1,1.1-0.3,1.6-0.5
	c0.8-0.3,1.3-0.6,1.4-0.9c0.1-0.2,0.1-0.4,0-0.7c-0.1-0.3-0.2-0.6-0.2-0.9c0.3,0.1,0.6,0.1,0.9,0.1c0.1,0,0.2,0,0.3,0
	c0.1,0,0.1,0.1,0.1,0.1c0,0.1,0,0.1,0.1,0.2C153.9,39.5,153.8,40.2,153.6,40.7L153.6,40.7z M165.3,36.3c0,0.2-0.1,0.3-0.2,0.5
	c-0.2,0.3-0.4,0.5-0.7,0.6c-0.5,0.2-1,0.5-1.5,0.6c-0.7,0.3-1.5,0.5-2.2,0.5c-0.4-0.2-0.6-0.5-0.7-0.9l-0.8-2.2l-0.4-1
	c0-0.1,0-0.1,0.1-0.2l0.7-0.2l1-0.4l-0.5-1.3l-0.6,0.2l-0.9,0.3c-0.1,0-0.1,0-0.1,0c0,0-0.1-0.1-0.1-0.1l-0.2-0.6l-0.1,0.2
	c-0.1,0.2-0.1,0.3-0.1,0.3s-0.1,0-0.3-0.1c-0.2-0.1-0.4-0.2-0.5-0.3l0,0l0.4,1.1l0.5,1.4l0.4,1.1c0,0.1,0,0.1,0,0.1s0,0-0.1,0.1
	l-1,0.3l-1.5,0.5l0.6,1.7c0.3-0.2,0.8-0.5,1.3-0.9l-0.5-0.5c0,0-0.1-0.1-0.1-0.1s0-0.1,0.1-0.2l0.5-0.4c0,0,0.1-0.1,0.1-0.1
	c0,0,0.1,0,0.1,0c0.6,0.5,1.3,1.1,1.8,1.8l0,0.1c0,0,0,0.1-0.1,0.2l-0.6,0.5l-0.1,0.1c0,0-0.1,0-0.1-0.1l-0.5-0.7
	c-0.6,0.5-1.4,1.1-2.4,1.8c-0.1,0.1-0.3,0.2-0.4,0.3c0,0.1-0.1,0.1-0.1,0.1c-0.1,0-0.1,0-0.2-0.1c-0.3-0.3-0.5-0.6-0.7-1l0.8-0.4
	l-1.5-4.1l-0.5-1.4c0,0,0-0.1,0-0.1c0,0,0,0,0.1-0.1l1.2-0.4l0,0l-0.1-0.3c-0.1-0.3-0.2-0.5-0.3-0.7l1-0.3c0.1,0,0.2,0,0.2,0.1
	c0,0.1,0,0.1,0,0.2c0,0.1,0,0.3,0.1,0.4l0.1,0.3l0.2-0.1l1-0.4l0,0c0.4-1,0.5-2,0.5-3c0-0.2-0.1-0.5-0.1-0.7
	c0.3-0.1,0.7-0.1,1.1-0.2c0.1,0,0.2,0,0.2,0.1c0,0.1,0,0.2,0,0.2c0,0.1,0,0.3,0,0.4c0,0.4,0,0.6,0,0.6l2.2-0.8l1.1-0.4
	c0.1,0,0.2,0,0.2,0.1v0.1c0,0.2,0.1,0.5,0.2,0.8c0.7,1.9,1.1,3.3,1.3,4s0.1,1.3-0.2,1.6c-0.3,0.2-0.6,0.4-0.9,0.5
	c-0.1,0.1-0.2,0.1-0.3,0.1c-0.1-0.1-0.1-0.2-0.2-0.3c-0.1-0.2-0.3-0.5-0.5-0.7c0.3-0.1,0.5-0.1,0.7-0.2s0.3-0.4,0.2-0.8
	s-0.5-1.7-1.2-3.8l-2.8,1c0,0.4-0.1,0.7-0.2,1.1c0.3-0.1,0.5-0.2,0.8-0.3l0.9-0.3l0.6-0.3c0.1,0,0.1,0,0.1,0s0,0.1,0,0.1l0.4,1
	l0.4,1.1l0.4,1c0,0.1,0,0.1,0,0.1s0,0-0.1,0.1l-0.7,0.2l-1,0.4l0.7,1.9c0.1,0.3,0.2,0.5,0.3,0.5c0.5,0,0.9-0.1,1.4-0.3
	c0.8-0.3,1.2-0.5,1.3-0.8c0.1-0.4,0-0.8-0.1-1.1c0.3,0,0.6,0,0.9,0h0.3c0.1,0,0.1,0.1,0.1,0.1c0,0,0,0.1,0,0.2
	C165.2,35.6,165.3,35.9,165.3,36.3L165.3,36.3z M173.3,24.5c-0.2,0.2-0.3,0.4-0.4,0.6c-0.7,1.3-1.5,2.5-2.4,3.6l1.1,2.9l0.5,1.3
	c0.1,0.2,0.1,0.5,0.1,0.7c0,0.2-0.1,0.3-0.2,0.5c-0.2,0.3-0.5,0.5-0.8,0.6c-0.3,0.1-0.7,0.3-1.3,0.5l-0.1,0.1c-0.1,0-0.2,0-0.2,0
	c-0.1-0.1-0.1-0.1-0.2-0.2c-0.2-0.3-0.4-0.6-0.7-0.8c0.6-0.1,1.1-0.3,1.6-0.5c0.3-0.1,0.4-0.4,0.4-0.6c0,0,0-0.1-0.1-0.1l-1.2-3.4
	c-0.2-0.5-0.4-1-0.7-1.5l0.9-0.2c0.6-0.8,1.2-1.6,1.7-2.5l-5.4,1.9l-1.5,0.6c0,0-0.1,0-0.1,0c0,0,0-0.1-0.1-0.1l-0.3-0.9
	c0,0,0-0.1,0-0.1l0.1-0.1l1.5-0.5l6-2.2c0.2-0.1,0.3-0.1,0.4-0.2c0,0,0.1-0.1,0.1-0.1c0.1,0,0.3,0,0.7,0.2s0.5,0.3,0.6,0.4
	C173.4,24.3,173.4,24.4,173.3,24.5L173.3,24.5z"/>
<rect x="155" y="33.5" transform="matrix(0.9396 -0.3422 0.3422 0.9396 -2.1853 55.3586)" class="st0" width="1.6" height="0.7"/>
<rect x="155.5" y="35" transform="matrix(0.9393 -0.3432 0.3432 0.9393 -2.6211 55.7929)" class="st0" width="1.6" height="0.7"/>
<path id="Path_6014" class="st1" d="M67.7,49.4c-0.6,0-1.2-0.3-1.5-0.8c-0.5-0.6-0.7-1.3-0.7-2c0.1-0.5,0.4-1,0.9-1.2h0
	c0.4-0.3,0.8-0.4,1.3-0.5c0.3,0.1,0.7,0.2,0.9,0.4c0.4,0.2,0.7,0.5,1,0.8l0,0c0.2,0.4,0.4,0.8,0.3,1.3c-0.1,0.4-0.2,0.7-0.4,1
	c-0.1,0.1-0.1,0.1-0.1,0.2c-0.2,0.3-0.5,0.6-0.8,0.9c-0.3,0.1-0.5,0.1-0.8,0.1L67.7,49.4z M54.9,46.5c0-0.5,0.1-1.1,0.4-1.5
	c0.6-0.4,1.4-0.6,2.2-0.5c0.4,0,0.7,0,1,0.2c0.3,0.2,0.5,0.5,0.7,0.8c0.2,0.3,0.3,0.7,0.4,1.1c0,0.6-0.1,1.2-0.4,1.7
	c-0.2,0.4-0.7,0.7-1.1,0.7c-0.9,0-1.7-0.4-2.2-1C55.3,47.6,55,47.1,54.9,46.5z M64.3,60.3c0.3,0,0.7-0.1,1-0.1
	c0.4-0.1,0.8-0.2,1.2-0.2h0l1.8-0.3c1.2-0.2,2.4-0.6,3.5-1.2c0.9-0.5,1.7-1.2,2.4-2c1-1.1,1.8-1.7,2.4-1.7c0.4,0,0.7,0.2,0.9,0.6
	c0.2,0.4,0.4,0.9,0.3,1.4c-0.1,0.5-0.3,1-0.6,1.4c-0.6,0.8-1.4,1.6-2.3,2.2c-0.9,0.7-1.8,1.3-2.9,1.8c-1.2,0.4-2.5,0.7-3.8,0.9
	c-1.5,0.3-3,0.5-4.5,0.5c-1.1,0-2.1,0-3.2-0.2c-0.9-0.2-1.8-0.4-2.6-0.8c-1.4-0.5-2.7-1.1-4-1.8c-0.9-0.4-1.8-0.9-2.7-1.5
	c-0.2-0.2-0.8-0.8-1.8-1.8l-1.2-1.3c-0.4-0.4-0.8-0.9-1.1-1.4c-0.2-0.5-0.3-1-0.3-1.5C47,52.6,47.4,52,47.9,52c0.1,0,0.2,0,0.3,0
	c0.3,0,0.8,0.3,1.4,1c1.1,1.2,2.2,2.2,3.2,3.1c1.4,1.1,2.9,2.1,4.6,2.8c1.7,0.9,3.6,1.4,5.5,1.5C63.4,60.4,63.9,60.3,64.3,60.3z"/>
</svg>
