<svg xmlns="http://www.w3.org/2000/svg" viewBox="0 0 278.33 181.25"><defs><style>.a{fill:#404040;}.b{fill:#f8f4eb;}</style></defs><circle class="a" cx="250.84" cy="305.33" r="20.88" transform="translate(-228.63 -100.83) rotate(-9.22)"/><path class="a" d="M311.76,284.45h0a20.88,20.88,0,1,0,20.88,20.88A20.88,20.88,0,0,0,311.76,284.45Z" transform="translate(-182.96 -144.95)"/><path class="a" d="M347.33,263.16H238.48l-2.13-12.35h89.47a6.39,6.39,0,0,0,6-4.05l21.3-53.68a6.4,6.4,0,0,0-6-8.74H225.27l-5.11-29.4a6.4,6.4,0,0,0-6.39-5.32h-24.5a6.39,6.39,0,0,0,0,12.78h19.18l18.32,108.22a6.39,6.39,0,0,0,6.39,5.33H347.33a6.39,6.39,0,0,0,0-12.78ZM292,206.94h0a4.59,4.59,0,0,1,2.28-.84,3.78,3.78,0,0,1,1.61.65,6,6,0,0,1,1.63,1.34h0l0,0,0,0a3.66,3.66,0,0,1,.57,2.2,4.61,4.61,0,0,1-.69,1.72,1.34,1.34,0,0,0-.18.28,6.56,6.56,0,0,1-1.29,1.49,3.07,3.07,0,0,1-1.37.22h-.23a3.46,3.46,0,0,1-2.63-1.45,5.14,5.14,0,0,1-1.23-3.46A2.65,2.65,0,0,1,292,206.94Zm-19-.51c.49-.52,1.73-.79,3.7-.79a3.61,3.61,0,0,1,1.8.35,3.89,3.89,0,0,1,1.2,1.38,3.62,3.62,0,0,1,.63,1.82,5.66,5.66,0,0,1-.74,2.95,2.22,2.22,0,0,1-2,1.24,4.86,4.86,0,0,1-3.83-1.78,5.08,5.08,0,0,1-1.53-2.61A3.62,3.62,0,0,1,273,206.43Zm-13.2,21.15a18,18,0,0,1,3.93-3.77,22,22,0,0,1,4.92-3,40.47,40.47,0,0,1,6.6-1.61,45.12,45.12,0,0,1,7.69-.83,35.11,35.11,0,0,1,5.52.31A26.25,26.25,0,0,1,293,220a67.82,67.82,0,0,1,6.82,3.14,44.82,44.82,0,0,1,4.6,2.55q.53.44,3,3.16l2.05,2.18a10.81,10.81,0,0,1,1.86,2.48,6,6,0,0,1,.51,2.65,1.8,1.8,0,0,1-1.52,2,1.68,1.68,0,0,1-.5,0c-.58,0-1.4-.57-2.48-1.71q-2.85-3-5.52-5.4A35.72,35.72,0,0,0,294,226.2a21.75,21.75,0,0,0-9.5-2.54,18.33,18.33,0,0,0-2.35.23h0a6.64,6.64,0,0,0-1.77.25,15.42,15.42,0,0,1-2.14.36h0l-3.07.56a22.55,22.55,0,0,0-6,2.07,14.2,14.2,0,0,0-4.13,3.38q-2.51,3-4.09,3a1.76,1.76,0,0,1-1.58-1,4.59,4.59,0,0,1-.59-2.43A4.93,4.93,0,0,1,259.81,227.58Z" transform="translate(-182.96 -144.95)"/><path class="b" d="M297.51,208.09h0l0,0Z" transform="translate(-182.96 -144.95)"/><rect class="a" x="244.62" y="33.08" width="2.08" height="1.12"/><rect class="a" x="244.62" y="30.63" width="2.08" height="1.1"/><path class="a" d="M406.94,178.61c.58.31,1.14.64,1.67,1a14.81,14.81,0,0,0,1.18-5h-1.71A34.83,34.83,0,0,1,406.94,178.61Z" transform="translate(-182.96 -144.95)"/><path class="a" d="M460.36,167.19c-4.47-16.66-23.71-26-43-20.81s-31.26,22.86-26.8,39.52c2.65,9.86-16.36,17.83-6.71,21,7.14,2.33,41.82,1.95,49.68-.16C452.83,201.55,464.82,183.85,460.36,167.19Zm-21.29,3.26L440,170l.19-.09s.09,0,.15.12a16.08,16.08,0,0,1,1.45,2.51.41.41,0,0,1,0,.15s-.06.11-.18.17l-1,.51a.5.5,0,0,1-.22.09c-.05,0-.11-.07-.16-.2A13.38,13.38,0,0,0,439,170.8a.36.36,0,0,1-.09-.18C438.87,170.57,438.94,170.51,439.07,170.45Zm-27,12.11-.76,1.23q-.1.15-.18.15a.24.24,0,0,1-.16-.09,18.11,18.11,0,0,0-1.69-1.54,12,12,0,0,1-3.35,3.3,1,1,0,0,1-.45.23c-.08,0-.22-.14-.4-.41a4.5,4.5,0,0,0-.89-1,10.78,10.78,0,0,0,3.55-3.21c-.43-.29-.9-.59-1.43-.89l-.24.56c-.07.15-.14.22-.2.22a.61.61,0,0,1-.25-.08l-1-.44q-.3-.13-.3-.21a.89.89,0,0,1,.11-.29,37.89,37.89,0,0,0,1.75-5.44c-.44,0-.85,0-1.22,0h-.38c-.12,0-.18-.08-.18-.22V173.1c0-.15.06-.22.18-.22l2,0c.16-.73.3-1.44.4-2.14a11.33,11.33,0,0,0,.13-1.79,9.63,9.63,0,0,1,1.92.27c.21.06.31.14.31.23a.92.92,0,0,1-.17.4,2.29,2.29,0,0,0-.29.89c0,.08-.08.47-.2,1.17-.07.39-.13.72-.18,1h1l2.13,0c.16,0,.23.06.23.18v.07c0,.53-.09,1-.12,1.4a18,18,0,0,1-1.48,6.13,18.88,18.88,0,0,1,1.9,1.52.17.17,0,0,1,.09.13A.52.52,0,0,1,412.05,182.56Zm9.73-4.18c0,.13-.07.19-.21.19l-2.48,0h-1.36v2.07l0,2.85a2.49,2.49,0,0,1-.67,2,2,2,0,0,1-1,.41,13.81,13.81,0,0,1-1.86.09H414c-.18,0-.29,0-.34-.12a1.67,1.67,0,0,1-.13-.46,4.23,4.23,0,0,0-.62-1.44A19.11,19.11,0,0,0,415,184c.51,0,.76-.29.76-.87v-4.64h-1.27l-2.45,0c-.11,0-.18,0-.2,0s0-.06,0-.15v-1.5c0-.1,0-.17.05-.18a.34.34,0,0,1,.18,0l2.45,0h1.27a17.26,17.26,0,0,0-.14-2.47l.69,0a18.92,18.92,0,0,0,2.12-2.44H415l-2.32,0c-.1,0-.16,0-.18,0a.38.38,0,0,1,0-.19v-1.45a.33.33,0,0,1,0-.19.32.32,0,0,1,.17,0l2.32,0h4.29a.73.73,0,0,0,.35-.06.49.49,0,0,1,.24-.07c.19,0,.45.16.79.49s.62.67.62.84a.35.35,0,0,1-.19.32,3.48,3.48,0,0,0-.7.81,30.48,30.48,0,0,1-2.59,2.94,7.93,7.93,0,0,0,0,1.09v.35h1.36l2.48,0c.1,0,.16,0,.18,0a.29.29,0,0,1,0,.17Zm20.54,4.75c-.23,1.89-.79,2.84-1.69,2.84s-1.78-.9-2.43-2.71a14.75,14.75,0,0,1-1.43,1.44,1,1,0,0,1-.38.26c-.08,0-.2-.13-.35-.4a4.85,4.85,0,0,0-.72-.89V184a2.28,2.28,0,0,1-.46,1.67,3,3,0,0,1-1.85.44.91.91,0,0,1-.54-.1,1.45,1.45,0,0,1-.17-.47,6.66,6.66,0,0,0-.25-.78l-1.17.49a1,1,0,0,1-.22.08s-.08-.06-.13-.17l-.34-.93c-1.6.51-2.81.88-3.61,1.1a2.93,2.93,0,0,0-.95.36.73.73,0,0,1-.28.11c-.1,0-.19-.09-.25-.25-.16-.48-.31-1.06-.46-1.72.38,0,.78-.09,1.2-.17v-6.82l0-2.37a.22.22,0,0,1,.25-.25l1.82,0H428v-.6a7.54,7.54,0,0,0-.09-1.25c.53,0,1.09.06,1.67.11.18,0,.27.09.27.2a1,1,0,0,1-.12.28,2,2,0,0,0-.07.66v.6h0l1.45,0c.11,0,.17,0,.19,0a.28.28,0,0,1,0,.16l0,1.83v2.29l0,1.83a.29.29,0,0,1,0,.18.34.34,0,0,1-.18,0l-1.45,0h-2.12v2.75c.9-.22,1.56-.4,2-.52-.11-.23-.3-.6-.57-1.09a.34.34,0,0,1,0-.15s.07-.11.23-.17l1-.37.18,0c.06,0,.13.05.18.15a24.6,24.6,0,0,1,1.52,3.19c.32,0,.61,0,.88,0a.7.7,0,0,0,.51-.13.74.74,0,0,0,.12-.5v-3a3.77,3.77,0,0,1-.46.15,2.2,2.2,0,0,0-.59.27.35.35,0,0,1-.29.13c-.09,0-.16-.09-.22-.27a17.22,17.22,0,0,1-.36-1.72,10.45,10.45,0,0,0,1.3-.24l.62-.18v-2.74l-1.51.07c-.1,0-.16,0-.18,0a.31.31,0,0,1,0-.18l0-1.39a.25.25,0,0,1,0-.17.31.31,0,0,1,.18,0h1.54v-2.21l-.57.21a2,2,0,0,1-.46.12c-.08,0-.15-.11-.23-.31a3.33,3.33,0,0,0-.13-.32,5.06,5.06,0,0,0-.65,1c-.13.27-.24.41-.34.41s-.21-.07-.38-.23a11.27,11.27,0,0,1-1.88-2.07,14.13,14.13,0,0,1-3.25,3.39,1.34,1.34,0,0,1-.42.2c-.1,0-.17-.12-.23-.36a4.51,4.51,0,0,0-.55-1.36,10.3,10.3,0,0,0,3.22-3.18,3.48,3.48,0,0,0,.38-.85c.61.08,1.18.17,1.72.29.2,0,.31.12.31.24a.3.3,0,0,1-.22.27l-.09.05a9.69,9.69,0,0,0,2.36,2.11,4.2,4.2,0,0,0-.51-.8,13.22,13.22,0,0,0,3.17-1.19,3.53,3.53,0,0,0,.83-.57,9.82,9.82,0,0,1,1.05,1.09.44.44,0,0,1,.13.29c0,.11-.12.2-.38.25a3.85,3.85,0,0,0-.67.29l-.47.26v2.93l1.63,0c0-1.11,0-2,0-2.57a24.19,24.19,0,0,0-.17-2.71,17.78,17.78,0,0,1,1.78.14c.22,0,.32.09.32.22a1,1,0,0,1-.11.4,4.2,4.2,0,0,0-.1,1.15c0,.17,0,.42,0,.75,0,.62,0,1.47,0,2.57l.7,0c1.16,0,2-.07,2.5-.12.12,0,.18.08.18.23l0,1.37q0,.21-.18.21l-2.52.05-.64,0c.09,1.59.19,2.76.3,3.5.14-.24.33-.6.56-1.08a7.17,7.17,0,0,0,.53-1.66,14.14,14.14,0,0,1,1.3.82c.21.17.31.3.31.4a.5.5,0,0,1-.19.32,4,4,0,0,0-.48.78,17.48,17.48,0,0,1-1.59,2.6c.4,1.41.76,2.11,1.08,2.11.15,0,.27-.17.35-.51a13.75,13.75,0,0,0,.24-1.65,5.08,5.08,0,0,0,.93.74c.19.1.29.22.29.38A4.22,4.22,0,0,1,442.32,183.13Z" transform="translate(-182.96 -144.95)"/><path class="a" d="M435.3,176v2.19c.48-.19.95-.41,1.43-.63,0,.37,0,.77,0,1.19,0,.16,0,.26,0,.32a.43.43,0,0,1-.08.3,1.37,1.37,0,0,1-.45.24l-.47.22c-.2.09-.34.14-.4.18v1.46c0,.92,0,1.58,0,2a16.44,16.44,0,0,0,2.32-2.1A29.76,29.76,0,0,1,437,176Z" transform="translate(-182.96 -144.95)"/></svg>