<svg xmlns="http://www.w3.org/2000/svg" viewBox="0 0 358.19 590.53"><defs><style>.cls-1{fill:#fb9589;}</style></defs><g id="圖層_2" data-name="圖層 2"><g id="圖層_1-2" data-name="圖層 1"><path class="cls-1" d="M358.17,325c.5,15.73-5.53,28.25-18.17,37.67a178.13,178.13,0,0,1-24,14.54c-18.91,9.91-37.69,19.93-53.81,34.31-21.52,19.21-36.14,43.3-49.73,68.24s-26.9,50.25-45.33,72.28c-29.07,34.76-66,45.14-109.11,34.47C23.47,578,3.28,551.82.38,514.38c-2.29-29.32,6-55.93,20.8-80.83C39.33,403,63,376.81,86.38,350.41c21.57-24.3,44.08-47.73,64.53-73,11.14-13.78,15.66-28.84,15.32-46.41-1.08-57-1.53-114-2.15-171-.12-10.36.16-20.73.16-31.09,0-6.15,2.77-10.63,7.83-13.9a60.08,60.08,0,0,1,21.5-8.71c44.61-8.48,89.08-8.66,128.38,1,24.65,7.53,25.78,8.79,24.82,29.16-1.85,39.6-5.08,79.13-5.65,118.81-.69,48.62,2.93,96.78,13.71,144.3A134.64,134.64,0,0,1,358.17,325Zm-20.41,33.37c10.57-8.35,16-19,15.63-32.59a138.46,138.46,0,0,0-2.68-22.52c-4.25-21.93-8.86-43.77-11.1-66-5-50-3.44-99.93-.56-149.9,1.14-19.91,2.06-39.81,3.19-59.7.33-5.89-2.22-9.27-7.78-11.07-8.17-2.65-16.3-5.44-24.73-7-34.46-6.43-69-5.59-103.58-.89a92.74,92.74,0,0,0-25.86,7.14c-7.78,3.53-11.88,8.82-11.62,18.09.64,21.71.31,43.44.53,65.16q.68,68.46,1.56,136.92a62.53,62.53,0,0,1-13,40.06c-11.6,15.26-24.26,29.59-37.12,43.76C95.28,347.69,69.44,375.15,46.41,405,31.25,424.66,17.6,445.2,9.3,472.53c-5.55,17-6.53,37.46-1.41,58.08,5.38,21.58,17.68,38,38.41,46.74,44.56,18.81,90.07,6.53,119.91-31.57,13.32-17,24.19-35.56,34.59-54.42,11.14-20.24,21.6-40.91,35.82-59.29,18.69-24.15,42.62-41.64,69.75-55.19C317.23,371.45,328.14,366,337.76,358.39Z"/><path class="cls-1" d="M353.39,325.8c.36,13.56-5.06,24.24-15.63,32.59-9.62,7.61-20.53,13.06-31.39,18.49-27.13,13.55-51.06,31-69.75,55.19-14.22,18.38-24.68,39.05-35.82,59.29-10.4,18.86-21.27,37.39-34.59,54.42-29.84,38.1-75.35,50.38-119.91,31.57-20.73-8.76-33-25.16-38.41-46.74C2.77,510,3.75,489.5,9.3,472.53c8.3-27.33,22-47.87,37.11-67.51,23-29.87,48.87-57.33,74.19-85.23,12.86-14.17,25.52-28.5,37.12-43.76a62.53,62.53,0,0,0,13-40.06q-1-68.46-1.56-136.92c-.22-21.72.11-43.45-.53-65.16-.26-9.27,3.84-14.56,11.62-18.09a92.74,92.74,0,0,1,25.86-7.14c34.57-4.7,69.12-5.54,103.58.89,8.43,1.58,16.56,4.37,24.73,7,5.56,1.8,8.11,5.18,7.78,11.07-1.13,19.89-2.05,39.79-3.19,59.7-2.88,50-4.45,99.94.56,149.9,2.24,22.27,6.85,44.11,11.1,66A138.46,138.46,0,0,1,353.39,325.8Z"/></g></g></svg>