<svg xmlns="http://www.w3.org/2000/svg" viewBox="0 0 16 13.74"><defs><style>.cls-1{fill:#fff;}.cls-2{fill:#f3dd87;}.cls-3{fill:#1d89a3;}.cls-3,.cls-4,.cls-5{opacity:0.8;isolation:isolate;}.cls-4{fill:#03588c;}.cls-5{fill:#fb9589;}</style></defs><g id="圖層_2" data-name="圖層 2"><g id="圖層_1-2" data-name="圖層 1"><g id="Group_63" data-name="Group 63"><path id="Path_4400" data-name="Path 4400" class="cls-1" d="M5.17,13.65h0a1.43,1.43,0,0,1-1.85-1L.08,2.14A1.67,1.67,0,0,1,1,.09H1a1.43,1.43,0,0,1,1.85,1L6.08,11.6A1.66,1.66,0,0,1,5.17,13.65Z"/><path id="Path_4401" data-name="Path 4401" class="cls-1" d="M4.12,13.57h0a1.69,1.69,0,0,1-.73-2.14l3.27-8A1.41,1.41,0,0,1,8.6,2.63h0a1.69,1.69,0,0,1,.72,2.14l-3.27,8A1.4,1.4,0,0,1,4.12,13.57Z"/><path id="Path_4402" data-name="Path 4402" class="cls-1" d="M10.83,13.65h0a1.43,1.43,0,0,0,1.85-1l3.24-10.5A1.67,1.67,0,0,0,15,.09h0a1.43,1.43,0,0,0-1.85,1L9.92,11.6A1.66,1.66,0,0,0,10.83,13.65Z"/><path id="Path_4403" data-name="Path 4403" class="cls-1" d="M11.88,13.57h0a1.69,1.69,0,0,0,.73-2.14l-3.26-8a1.41,1.41,0,0,0-1.94-.8h0A1.68,1.68,0,0,0,6.69,4.8l3.26,8A1.4,1.4,0,0,0,11.88,13.57Z"/></g><g id="Group_68" data-name="Group 68"><path id="Path_4406" data-name="Path 4406" class="cls-2" d="M5.17,13.65h0a1.43,1.43,0,0,1-1.85-1L.08,2.14A1.67,1.67,0,0,1,1,.09H1a1.43,1.43,0,0,1,1.85,1L6.08,11.6A1.66,1.66,0,0,1,5.17,13.65Z"/><path id="Path_4407" data-name="Path 4407" class="cls-3" d="M4.12,13.57h0a1.69,1.69,0,0,1-.73-2.14l3.27-8A1.41,1.41,0,0,1,8.6,2.63h0a1.69,1.69,0,0,1,.72,2.14l-3.27,8A1.4,1.4,0,0,1,4.12,13.57Z"/><path id="Path_4408" data-name="Path 4408" class="cls-4" d="M10.83,13.65h0a1.43,1.43,0,0,0,1.85-1l3.24-10.5A1.67,1.67,0,0,0,15,.09h0a1.43,1.43,0,0,0-1.85,1L9.92,11.6A1.66,1.66,0,0,0,10.83,13.65Z"/><path id="Path_4409" data-name="Path 4409" class="cls-5" d="M11.88,13.57h0a1.69,1.69,0,0,0,.73-2.14l-3.26-8a1.41,1.41,0,0,0-1.94-.8h0A1.68,1.68,0,0,0,6.69,4.8l3.26,8A1.4,1.4,0,0,0,11.88,13.57Z"/></g></g></g></svg>