<svg xmlns="http://www.w3.org/2000/svg" viewBox="0 0 56.14 64.44"><defs><style>.cls-1,.cls-2{fill:#fff;}.cls-2{stroke:#fff;stroke-miterlimit:10;stroke-width:0.5px;}</style></defs><g id="圖層_2" data-name="圖層 2"><g id="圖層_1-2" data-name="圖層 1"><path class="cls-1" d="M9.38,64.44a5.24,5.24,0,0,1-5.23-5.23V15.61a1,1,0,0,0-1-1H1.08A1.08,1.08,0,0,1,0,13.53V11.46a1.08,1.08,0,0,1,1.08-1.08H11.77a1,1,0,0,0,.86-.48L17,2.54A5.25,5.25,0,0,1,21.53,0H34.61A5.25,5.25,0,0,1,39.1,2.54L43.51,9.9a1,1,0,0,0,.86.48H55.06a1.08,1.08,0,0,1,1.08,1.08v2.07a1.08,1.08,0,0,1-1.08,1.08H53a1,1,0,0,0-1,1v43.6a5.24,5.24,0,0,1-5.23,5.23Zm0-49.82a1,1,0,0,0-1,1v43.6a1,1,0,0,0,1,1H46.76a1,1,0,0,0,1-1V15.62a1,1,0,0,0-1-1ZM22,4.23a1.79,1.79,0,0,0-1.53.86L18.18,8.87A1,1,0,0,0,19,10.38H37.1A1,1,0,0,0,38,8.87L35.7,5.09a1.8,1.8,0,0,0-1.53-.86Z"/><path id="Path_6014" data-name="Path 6014" class="cls-2" d="M33.49,33.4A2,2,0,0,1,32,32.56a3,3,0,0,1-.71-2,1.5,1.5,0,0,1,.91-1.24h0a2.66,2.66,0,0,1,1.32-.49,2.15,2.15,0,0,1,.94.38,3.47,3.47,0,0,1,1,.79v0a2.15,2.15,0,0,1,.32,1.28,2.42,2.42,0,0,1-.4,1l-.1.16a3.46,3.46,0,0,1-.75.87,1.78,1.78,0,0,1-.79.13ZM20.68,30.49A2.16,2.16,0,0,1,21.11,29a3.24,3.24,0,0,1,2.15-.46,2.24,2.24,0,0,1,1,.2,2.44,2.44,0,0,1,.7.8,2.07,2.07,0,0,1,.36,1.07,3.2,3.2,0,0,1-.43,1.71A1.26,1.26,0,0,1,23.8,33a2.8,2.8,0,0,1-2.23-1A3.06,3.06,0,0,1,20.68,30.49Zm5.72,8.65a4.42,4.42,0,0,0-1,.15,8.82,8.82,0,0,1-1.25.21h0l-1.78.33A12.64,12.64,0,0,0,18.89,41a8.24,8.24,0,0,0-2.4,2c-1,1.14-1.76,1.72-2.37,1.72a1,1,0,0,1-.92-.57,2.66,2.66,0,0,1-.34-1.41,2.81,2.81,0,0,1,.58-1.44,10.57,10.57,0,0,1,2.29-2.19,12.72,12.72,0,0,1,2.86-1.76,22.76,22.76,0,0,1,3.83-.93,25.79,25.79,0,0,1,4.47-.48,20.13,20.13,0,0,1,3.2.17,15.79,15.79,0,0,1,2.62.78,39.45,39.45,0,0,1,4,1.82,30.36,30.36,0,0,1,2.68,1.48c.2.17.78.78,1.76,1.84l1.18,1.26a6,6,0,0,1,1.08,1.44,3.46,3.46,0,0,1,.3,1.55,1,1,0,0,1-.87,1.18,1,1,0,0,1-.3,0c-.33,0-.81-.34-1.44-1q-1.66-1.77-3.2-3.13a20.84,20.84,0,0,0-4.58-2.84A12.66,12.66,0,0,0,27.76,39,12.27,12.27,0,0,0,26.4,39.14Z"/></g></g></svg>