<?xml version="1.0" encoding="utf-8"?>
<!-- Generator: Adobe Illustrator 24.2.1, SVG Export Plug-In . SVG Version: 6.00 Build 0)  -->
<svg version="1.1" id="Capa_1" xmlns="http://www.w3.org/2000/svg" xmlns:xlink="http://www.w3.org/1999/xlink" x="0px" y="0px"
	 viewBox="0 0 512 512" style="enable-background:new 0 0 512 512;" xml:space="preserve">
<style type="text/css">
	.st0{fill:#03588C;}
</style>
<path class="st0" d="M414,82.4H88c-8.2,0-14.9,6.7-14.9,14.9V363c0,8.2,6.7,14.9,14.9,14.9h114.2c5,0,9.7,2.5,12.5,6.6l28,40.7
	c4,5.8,12.6,5.8,16.5,0l28-40.7c2.8-4.1,7.5-6.6,12.5-6.6H414c8.2,0,14.9-6.7,14.9-14.9V97.3C428.9,89.1,422.2,82.4,414,82.4
	L414,82.4z M197.2,210.2c0-24.5,19.9-44.4,44.4-44.4c24.5,0,44.4,19.9,44.4,44.4v54.7c0,8.4-6.8,15.2-15.2,15.2
	c-8.4,0-15.2-6.8-15.2-15.2c0-9.4,0-7.4,0-16.8h-27.9v16.8c0,8.4-6.8,15.2-15.2,15.2c-8.4,0-15.2-6.8-15.2-15.2L197.2,210.2
	L197.2,210.2z M111.3,280.1c-8.4,0-15.2-6.8-15.2-15.2V181c0-8.4,6.8-15.2,15.2-15.2H164c8.4,0,15.2,6.8,15.2,15.2
	c0,8.4-6.8,15.2-15.2,15.2c-19,0-5.7,0-37.4,0v13.4H164c8.4,0,15.2,6.8,15.2,15.2c0,8.4-6.8,15.2-15.2,15.2c-19,0-5.7,0-37.4,0v24.8
	C126.5,273.3,119.7,280.1,111.3,280.1z M392.7,235.7c0,6.6-1.5,13-4.1,18.7c3.9,3.5,1.4,1.2,12.3,10.9c6.3,5.6,6.9,15.2,1.3,21.5
	c-5.6,6.3-15.2,6.9-21.5,1.3L366.9,276c-29.1,13.6-63-7.8-63-40.3c0-9.6,0-16,0-25.6c0-24.5,19.9-44.4,44.4-44.4
	c24.5,0,44.4,19.9,44.4,44.4V235.7z"/>
<path class="st0" d="M255.5,217.7v-7.5c0-7.7-6.3-13.9-13.9-13.9c-7.7,0-13.9,6.3-13.9,13.9v7.5H255.5z"/>
<path class="st0" d="M348.3,196.2c-7.7,0-13.9,6.2-13.9,13.9v25.6c0,7.6,6.2,13.9,13.9,13.9c7.7,0,13.9-6.3,13.9-13.9
	c0-9.6,0-16,0-25.6C362.2,202.5,356,196.2,348.3,196.2z"/>
</svg>
