<svg id="圖層_1" data-name="圖層 1" xmlns="http://www.w3.org/2000/svg" viewBox="0 0 417.81 159"><defs><style>.cls-1{fill:#ff9685;}.cls-2{fill:none;stroke:#ff9685;}</style></defs><path id="Path_4442" data-name="Path 4442" class="cls-1" d="M252.31,294.52s27.44-61,150.93-46.57,155.92,45.53,163.4,63.12S557.91,369,481.82,368s-183.36,2.07-217-21.73S252.31,294.52,252.31,294.52Z" transform="translate(-197.23 -227.23)"/><path id="Path_7766" data-name="Path 7766" class="cls-2" d="M206.24,290.77s35.45-78.89,195-60.17,201.47,58.83,211.14,81.56S601.12,387,502.8,385.7s-236.93,2.68-280.44-28.07S206.24,290.77,206.24,290.77Z" transform="translate(-197.23 -227.23)"/><path id="Path_7767" data-name="Path 7767" class="cls-2" d="M224.31,292.91s31.6-70.3,173.81-53.62S577.68,291.72,586.29,312s-10,66.73-97.67,65.54-211.16,2.38-249.94-25S224.31,292.91,224.31,292.91Z" transform="translate(-197.23 -227.23)"/></svg>