<?xml version="1.0" encoding="utf-8"?>
<!-- Generator: Adobe Illustrator 24.2.1, SVG Export Plug-In . SVG Version: 6.00 Build 0)  -->
<svg version="1.1" id="Capa_1" xmlns="http://www.w3.org/2000/svg" xmlns:xlink="http://www.w3.org/1999/xlink" x="0px" y="0px"
	 viewBox="0 0 424.4 424.4" style="enable-background:new 0 0 424.4 424.4;" xml:space="preserve">
<style type="text/css">
	.st0{fill:#FF9685;}
</style>
<g>
	<g>
		<g>
			<circle class="st0" cx="170.2" cy="374.3" r="50.2"/>
			<path class="st0" d="M316.7,324.1L316.7,324.1c-27.7,0-50.2,22.5-50.2,50.2s22.5,50.2,50.2,50.2s50.2-22.5,50.2-50.2
				S344.4,324.1,316.7,324.1z"/>
			<path class="st0" d="M402.2,272.9H140.5l-5.1-29.7h215c6.3,0,12-3.8,14.3-9.7l51.2-129c3.1-7.9-0.8-16.8-8.7-19.9
				c-1.8-0.7-3.7-1.1-5.7-1.1H108.8L96.5,12.8C95.3,5.3,88.7-0.1,81.2,0H22.3C13.8,0,6.9,6.9,6.9,15.4s6.9,15.4,15.4,15.4h46.1
				l44,260.1c1.3,7.5,7.8,12.9,15.4,12.8h274.4c8.5,0,15.4-6.9,15.4-15.4C417.5,279.8,410.7,272.9,402.2,272.9z"/>
		</g>
	</g>
</g>
</svg>
