<svg xmlns="http://www.w3.org/2000/svg" viewBox="0 0 24 18.84"><defs><style>.cls-1{fill:#03588c;}</style></defs><g id="圖層_2" data-name="圖層 2"><g id="圖層_1-2" data-name="圖層 1"><g id="Group_54" data-name="Group 54"><g id="Group_53" data-name="Group 53"><path id="Path_4361" data-name="Path 4361" class="cls-1" d="M24,3l-3.11-.12L21.82,0,19.16,1.84A4.87,4.87,0,0,0,15.62.36,4.45,4.45,0,0,0,11,4.58a3.07,3.07,0,0,0,.06.68,5.94,5.94,0,0,1,.16.58,1.65,1.65,0,0,0,0,.21H2.8A1.24,1.24,0,0,0,1.56,7.29v.16A1.24,1.24,0,0,0,2.8,8.68H4.68a1.26,1.26,0,0,0-.63,1.09v.16a1.24,1.24,0,0,0,1.24,1.25H7.17a1.23,1.23,0,0,0-.64,1.08v.17a1.24,1.24,0,0,0,1.24,1.23H9.09C5.77,16.72,0,16.34,0,16.34c3.12,2.36,12.13,4.27,17.14-.17A11.31,11.31,0,0,0,20.79,5Z"/></g></g></g></g></svg>