<svg xmlns="http://www.w3.org/2000/svg" viewBox="0 0 23.99 24"><defs><style>.cls-1{fill:#03588c;}</style></defs><g id="圖層_2" data-name="圖層 2"><g id="圖層_1-2" data-name="圖層 1"><g id="Group_50" data-name="Group 50"><g id="Group_49" data-name="Group 49"><path id="Path_4357" data-name="Path 4357" class="cls-1" d="M12,18.09a5.93,5.93,0,0,1-5.8-4.77H0v3.45A7.21,7.21,0,0,0,7.2,24h9.55A7.23,7.23,0,0,0,24,16.77h0V13.32H17.84A5.94,5.94,0,0,1,12,18.09Z"/><path id="Path_4358" data-name="Path 4358" class="cls-1" d="M16.75,0H7.22A7.2,7.2,0,0,0,0,7.22H0v3.45h6.3a5.91,5.91,0,0,1,11.45,0H24V7.23A7.24,7.24,0,0,0,16.75,0Zm1.56,7.25a1.42,1.42,0,1,1,1.41-1.42h0A1.44,1.44,0,0,1,18.31,7.25Z"/><path id="Path_4359" data-name="Path 4359" class="cls-1" d="M12,16a3.78,3.78,0,0,0,3.61-2.63,3.34,3.34,0,0,0,.19-1.17,3.57,3.57,0,0,0-.29-1.47,3.8,3.8,0,0,0-7,0,4.14,4.14,0,0,0-.29,1.47,3.35,3.35,0,0,0,.2,1.17A3.74,3.74,0,0,0,12,16Z"/></g></g></g></g></svg>