<?xml version="1.0" encoding="utf-8"?>
<!-- Generator: Adobe Illustrator 24.2.3, SVG Export Plug-In . SVG Version: 6.00 Build 0)  -->
<svg version="1.1" id="圖層_1" xmlns="http://www.w3.org/2000/svg" xmlns:xlink="http://www.w3.org/1999/xlink" x="0px" y="0px"
	 viewBox="0 0 24 24" style="enable-background:new 0 0 24 24;" xml:space="preserve">
<style type="text/css">
	.st0{fill:#03588C;}
</style>
<g>
	<path class="st0" d="M15,13c-0.6,0-1,0.4-1,1v4c0,0.6-0.4,1-1,1h-3V4c0-0.9-0.5-1.6-1.4-1.9L8.3,2H13c0.6,0,1,0.4,1,1v3
		c0,0.6,0.4,1,1,1s1-0.4,1-1V3c0-1.7-1.3-3-3-3H2.2c0,0-0.1,0-0.1,0C2.1,0,2,0,2,0C0.9,0,0,0.9,0,2v18c0,0.9,0.5,1.6,1.4,1.9l6,2
		C7.6,24,7.8,24,8,24c1.1,0,2-0.9,2-2v-1h3c1.7,0,3-1.3,3-3v-4C16,13.4,15.6,13,15,13z"/>
	<path class="st0" d="M23.7,9.3l-4-4C19.4,5,19,4.9,18.6,5.1C18.2,5.2,18,5.6,18,6v3h-4c-0.6,0-1,0.4-1,1s0.4,1,1,1h4v3
		c0,0.4,0.2,0.8,0.6,0.9c0.4,0.2,0.8,0.1,1.1-0.2l4-4C24.1,10.3,24.1,9.7,23.7,9.3z"/>
</g>
</svg>
