<svg id="圖層_1" data-name="圖層 1" xmlns="http://www.w3.org/2000/svg" viewBox="0 0 152 171.5"><defs><style>.cls-1{fill:#fff;}.cls-2{fill:#fb9589;}.cls-2,.cls-4{opacity:0.8;isolation:isolate;}.cls-3{fill:#f3dd87;}.cls-4{fill:#1d89a3;}</style></defs><g id="Group_64" data-name="Group 64"><path id="Rectangle_50" data-name="Rectangle 50" class="cls-1" d="M261.37,154.61h117a17,17,0,0,1,17,17h0a17,17,0,0,1-17,17h-117a17,17,0,0,1-17-17h0A17,17,0,0,1,261.37,154.61Z" transform="translate(-243.87 -154.61)"/><path id="Rectangle_51" data-name="Rectangle 51" class="cls-1" d="M248.44,295.77,365.58,160.61a17,17,0,0,1,24-1.73l0,0h0a17,17,0,0,1,1.73,24l0,0L274.14,318a17,17,0,0,1-24,1.73h0a17,17,0,0,1-1.71-24Z" transform="translate(-243.87 -154.61)"/><path id="Rectangle_52" data-name="Rectangle 52" class="cls-1" d="M260.87,291.11h118a17,17,0,0,1,17,17h0a17,17,0,0,1-17,17h-118a17,17,0,0,1-17-17h0A17,17,0,0,1,260.87,291.11Z" transform="translate(-243.87 -154.61)"/></g><path id="Rectangle_55" data-name="Rectangle 55" class="cls-2" d="M261.37,155.61h117a17,17,0,0,1,17,17h0a17,17,0,0,1-17,17h-117a17,17,0,0,1-17-17h0A17,17,0,0,1,261.37,155.61Z" transform="translate(-243.87 -154.61)"/><path id="Rectangle_57" data-name="Rectangle 57" class="cls-3" d="M260.87,292.11h118a17,17,0,0,1,17,17h0a17,17,0,0,1-17,17h-118a17,17,0,0,1-17-17h0A17,17,0,0,1,260.87,292.11Z" transform="translate(-243.87 -154.61)"/><path id="Rectangle_56" data-name="Rectangle 56" class="cls-4" d="M248.44,296.77,365.58,161.61a17,17,0,0,1,24-1.73l0,0h0a17,17,0,0,1,1.73,24l0,0L274.14,319a17,17,0,0,1-24,1.73h0a17,17,0,0,1-1.71-24Z" transform="translate(-243.87 -154.61)"/></svg>