<svg id="圖層_1" data-name="圖層 1" xmlns="http://www.w3.org/2000/svg" viewBox="0 0 147 170.5"><defs><style>.cls-1{fill:#fff;}.cls-2{fill:#f3dd87;}.cls-3{fill:#03588c;opacity:0.8;isolation:isolate;}</style></defs><g id="Group_65" data-name="Group 65"><path id="Rectangle_53" data-name="Rectangle 53" class="cls-1" d="M263.37,154.58h113a17,17,0,0,1,17,17h0a17,17,0,0,1-17,17h-113a17,17,0,0,1-17-17h0A17,17,0,0,1,263.37,154.58Z" transform="translate(-246.37 -154.58)"/><path id="Rectangle_54" data-name="Rectangle 54" class="cls-1" d="M303.37,307.58v-136a17,17,0,0,1,17-17h0a17,17,0,0,1,17,17v136a17,17,0,0,1-17,17h0A17,17,0,0,1,303.37,307.58Z" transform="translate(-246.37 -154.58)"/></g><path id="Rectangle_59" data-name="Rectangle 59" class="cls-2" d="M303.37,308.08v-136a17,17,0,0,1,17-17h0a17,17,0,0,1,17,17v136a17,17,0,0,1-17,17h0A17,17,0,0,1,303.37,308.08Z" transform="translate(-246.37 -154.58)"/><path id="Rectangle_58" data-name="Rectangle 58" class="cls-3" d="M263.37,155.08h113a17,17,0,0,1,17,17h0a17,17,0,0,1-17,17h-113a17,17,0,0,1-17-17h0A17,17,0,0,1,263.37,155.08Z" transform="translate(-246.37 -154.58)"/></svg>