<svg xmlns="http://www.w3.org/2000/svg" viewBox="0 0 716.05 171.5"><defs><style>.cls-1{fill:#fff;}.cls-2{fill:#f3dd87;}.cls-3{fill:#1d89a3;}.cls-3,.cls-4,.cls-5{opacity:0.8;isolation:isolate;}.cls-4{fill:#03588c;}.cls-5{fill:#fb9589;}</style></defs><g id="圖層_2" data-name="圖層 2"><g id="圖層_1-2" data-name="圖層 1"><g id="Group_67" data-name="Group 67"><g id="Group_63" data-name="Group 63"><path id="Path_4400" data-name="Path 4400" class="cls-1" d="M63.73,168.52h0c-9.4,3.56-19.61-2-22.83-12.4L1,26.76C-2.24,16.36,2.77,5,12.17,1.48h0c9.4-3.56,19.61,2,22.82,12.4L74.93,143.24C78.14,153.64,73.13,165,63.73,168.52Z"/><path id="Path_4401" data-name="Path 4401" class="cls-1" d="M50.73,167.55h0c-9-4.54-13-16.34-8.95-26.36L82.06,42.74c4.1-10,14.75-14.46,23.8-9.92h0c9,4.54,13,16.34,9,26.36L74.53,157.64C70.43,167.65,59.77,172.09,50.73,167.55Z"/><path id="Path_4402" data-name="Path 4402" class="cls-1" d="M133.32,168.52h0c9.4,3.56,19.61-2,22.83-12.4L196.08,26.76c3.21-10.4-1.8-21.72-11.2-25.28h0c-9.4-3.56-19.62,2-22.83,12.4L122.12,143.24C118.91,153.64,123.92,165,133.32,168.52Z"/><path id="Path_4403" data-name="Path 4403" class="cls-1" d="M146.32,167.55h0c9-4.54,13.05-16.34,9-26.36L115.12,43c-4.1-10-14.75-14.46-23.8-9.92h0c-9,4.54-13.06,16.34-9,26.36l40.16,98.16C126.62,167.65,137.27,172.09,146.32,167.55Z"/></g><g id="Group_64" data-name="Group 64"><path id="Rectangle_50" data-name="Rectangle 50" class="cls-1" d="M581.55,0h117a17,17,0,0,1,17,17h0a17,17,0,0,1-17,17h-117a17,17,0,0,1-17-17h0A17,17,0,0,1,581.55,0Z"/><path id="Rectangle_51" data-name="Rectangle 51" class="cls-1" d="M568.62,141.16,685.76,6a17,17,0,0,1,24-1.71h0a17,17,0,0,1,1.71,24L594.32,163.43a17,17,0,0,1-24,1.72h0A17,17,0,0,1,568.62,141.16Z"/><path id="Rectangle_52" data-name="Rectangle 52" class="cls-1" d="M581.05,136.5h118a17,17,0,0,1,17,17h0a17,17,0,0,1-17,17h-118a17,17,0,0,1-17-17h0A17,17,0,0,1,581.05,136.5Z"/></g><g id="Group_65" data-name="Group 65"><path id="Rectangle_53" data-name="Rectangle 53" class="cls-1" d="M402.38.5h113a17,17,0,0,1,17,17h0a17,17,0,0,1-17,17h-113a17,17,0,0,1-17-17h0A17,17,0,0,1,402.38.5Z"/><path id="Rectangle_54" data-name="Rectangle 54" class="cls-1" d="M442.38,153.5V17.5a17,17,0,0,1,17-17h0a17,17,0,0,1,17,17v136a17,17,0,0,1-17,17h0A17,17,0,0,1,442.38,153.5Z"/></g><g id="Group_66" data-name="Group 66"><path id="Path_4404" data-name="Path 4404" class="cls-1" d="M238.2,167.83h0c9.11,4.25,19.76-.66,23.8-11L312.16,28.93c4-10.29-.07-22.08-9.17-26.33h0c-9.1-4.24-19.76.66-23.8,11L229,141.5C225,151.8,229.1,163.58,238.2,167.83Z"/><path id="Path_4405" data-name="Path 4405" class="cls-1" d="M354,167.83h0c-9.1,4.25-19.76-.66-23.8-11L280,28.93c-4-10.29.07-22.08,9.17-26.33h0c9.11-4.24,19.76.66,23.8,11l50.16,128C367.2,151.8,363.09,163.58,354,167.83Z"/><circle id="Ellipse_9" data-name="Ellipse 9" class="cls-1" cx="296.06" cy="131.5" r="12.5"/></g></g><g id="Group_68" data-name="Group 68"><path id="Path_4406" data-name="Path 4406" class="cls-2" d="M63.73,169.12h0c-9.4,3.56-19.61-2-22.83-12.4L1,27.36C-2.24,17,2.77,5.63,12.17,2.08h0c9.4-3.56,19.61,2,22.82,12.4L74.93,143.84C78.14,154.25,73.13,165.57,63.73,169.12Z"/><path id="Path_4407" data-name="Path 4407" class="cls-3" d="M50.73,168.15h0c-9-4.54-13-16.34-8.95-26.36L82.06,43.34c4.1-10,14.75-14.46,23.8-9.92h0c9,4.54,13,16.34,9,26.36L74.53,158.24C70.43,168.25,59.77,172.69,50.73,168.15Z"/><path id="Path_4408" data-name="Path 4408" class="cls-4" d="M133.32,169.12h0c9.4,3.56,19.61-2,22.83-12.4L196.08,27.36c3.21-10.4-1.8-21.73-11.2-25.28h0c-9.4-3.56-19.62,2-22.83,12.4L122.12,143.84C118.91,154.25,123.92,165.57,133.32,169.12Z"/><path id="Path_4409" data-name="Path 4409" class="cls-5" d="M146.32,168.15h0c9-4.54,13.05-16.34,9-26.36L115.12,43.64c-4.1-10-14.75-14.46-23.8-9.92h0c-9,4.54-13.06,16.35-9,26.36l40.16,98.16C126.62,168.25,137.27,172.69,146.32,168.15Z"/></g><g id="Group_69" data-name="Group 69"><path id="Rectangle_55" data-name="Rectangle 55" class="cls-5" d="M581.55,1h117a17,17,0,0,1,17,17h0a17,17,0,0,1-17,17h-117a17,17,0,0,1-17-17h0A17,17,0,0,1,581.55,1Z"/><path id="Rectangle_57" data-name="Rectangle 57" class="cls-2" d="M581.05,137.5h118a17,17,0,0,1,17,17h0a17,17,0,0,1-17,17h-118a17,17,0,0,1-17-17h0A17,17,0,0,1,581.05,137.5Z"/><path id="Rectangle_56" data-name="Rectangle 56" class="cls-3" d="M568.62,142.16,685.76,7a17,17,0,0,1,24-1.71h0a17,17,0,0,1,1.71,24L594.32,164.43a17,17,0,0,1-24,1.72h0A17,17,0,0,1,568.62,142.16Z"/></g><g id="Group_70" data-name="Group 70"><path id="Rectangle_59" data-name="Rectangle 59" class="cls-2" d="M442.38,154V18a17,17,0,0,1,17-17h0a17,17,0,0,1,17,17V154a17,17,0,0,1-17,17h0A17,17,0,0,1,442.38,154Z"/><path id="Rectangle_58" data-name="Rectangle 58" class="cls-4" d="M402.38,1h113a17,17,0,0,1,17,17h0a17,17,0,0,1-17,17h-113a17,17,0,0,1-17-17h0A17,17,0,0,1,402.38,1Z"/></g><g id="Group_71" data-name="Group 71"><path id="Path_4410" data-name="Path 4410" class="cls-5" d="M238.2,167.75h0C247.31,172,258,167.1,262,156.8l50.16-128c4-10.29-.07-22.07-9.17-26.32h0c-9.1-4.25-19.76.65-23.8,11L229,141.42C225,151.72,229.1,163.51,238.2,167.75Z"/><path id="Path_4411" data-name="Path 4411" class="cls-3" d="M354,167.75h0c-9.1,4.25-19.76-.65-23.8-10.95L280,28.85c-4-10.29.07-22.07,9.17-26.32h0c9.11-4.25,19.76.65,23.8,11l50.16,127.94C367.2,151.72,363.09,163.51,354,167.75Z"/><circle id="Ellipse_10" data-name="Ellipse 10" class="cls-2" cx="296.06" cy="131.42" r="12.5"/></g></g></g></svg>