<svg id="圖層_1" data-name="圖層 1" xmlns="http://www.w3.org/2000/svg" viewBox="0 0 137.23 168.41"><defs><style>.cls-1{fill:#fff;}.cls-2{fill:#fb9589;}.cls-2,.cls-3{opacity:0.8;isolation:isolate;}.cls-3{fill:#1d89a3;}.cls-4{fill:#f3dd87;}</style></defs><g id="Group_66" data-name="Group 66"><path id="Path_4404" data-name="Path 4404" class="cls-1" d="M262,322.5h0c9.11,4.25,19.76-.66,23.8-11l50.16-127.9c4-10.29-.07-22.08-9.17-26.33h0c-9.1-4.24-19.76.66-23.8,11l-50.19,127.9C248.77,306.47,252.87,318.25,262,322.5Z" transform="translate(-251.24 -155.62)"/><path id="Path_4405" data-name="Path 4405" class="cls-1" d="M377.77,322.5h0c-9.1,4.25-19.76-.66-23.8-11l-50.2-127.9c-4-10.29.07-22.08,9.17-26.33h0c9.11-4.24,19.76.66,23.8,11l50.16,128C391,306.47,386.86,318.25,377.77,322.5Z" transform="translate(-251.24 -155.62)"/><circle id="Ellipse_9" data-name="Ellipse 9" class="cls-1" cx="68.59" cy="130.55" r="12.5"/></g><path id="Path_4410" data-name="Path 4410" class="cls-2" d="M262,322.42h0c9.11,4.25,19.8-.65,23.8-10.95l50.16-128c4-10.29-.07-22.07-9.17-26.32h0c-9.1-4.25-19.76.65-23.8,11L252.77,296.09C248.77,306.39,252.87,318.18,262,322.42Z" transform="translate(-251.24 -155.62)"/><path id="Path_4411" data-name="Path 4411" class="cls-3" d="M377.77,322.42h0c-9.1,4.25-19.76-.65-23.8-10.95l-50.2-128c-4-10.29.07-22.07,9.17-26.32h0c9.11-4.25,19.76.65,23.8,11L386.9,296.14C391,306.39,386.86,318.18,377.77,322.42Z" transform="translate(-251.24 -155.62)"/><circle id="Ellipse_10" data-name="Ellipse 10" class="cls-4" cx="68.59" cy="130.47" r="12.5"/></svg>