<svg xmlns="http://www.w3.org/2000/svg" viewBox="0 0 374.41 602.69"><defs><style>.cls-1{fill:#f2de79;}.cls-2{fill:#03588c;}.cls-3{fill:#ff9685;}.cls-4{fill:#0388a6;}.cls-5{fill:#efefef;}.cls-6{fill:#20b4a9;}</style></defs><g id="圖層_2" data-name="圖層 2"><g id="圖層_1-2" data-name="圖層 1"><path class="cls-1" d="M244.69,150.05l-.87,1.15c-.47.55-1.36,1.63-1.51,1.79q-1.42,1.6-2.89,3.16a135.43,135.43,0,0,1-11.15,10.4c-2.09,1.74-4.23,3.4-6.37,5.06l-.67.53-.2.15q-1.83,1.31-3.69,2.56a314,314,0,0,1-32.35,19c-1.58.83-3.17,1.66-4.77,2.47q.71-49.59,1.7-99.19c1.58,1.48,3.16,3,4.77,4.41,9,8.14,18.39,15.89,27.81,23.45a353.25,353.25,0,0,0,28.84,21.21c.4.27.82.51,1.22.76A16.29,16.29,0,0,0,244.69,150.05Z"/><path class="cls-2" d="M369.85,58.19,364.42,61l-5.08,2.63c-12.2,6.41-24.84,12.45-36.57,19.69-8.19,5-15.75,11.17-23.43,16.94l-5.51,4.13-2.26,1.66-1.19.85c-4.41,3.13-8.89,6.17-13.55,8.9a88.24,88.24,0,0,1-9.22,4.76c1-.5-1.65.4-3.12.87l-.49-.19-.94-.6c-1.34-.85-2.71-1.66-4-2.56-2.22-1.51-4.35-3.14-6.5-4.74-4.57-3.42-9.4-6.41-13.89-9.93-17.07-13.37-35.25-28.66-50.83-46.08-1.7-1.89-3.36-3.81-5-5.76.27-8.17.67-16.34.92-24.49.19-6.33,3.15-10.86,8.46-14.07A61.91,61.91,0,0,1,214.56,4.7c46.16-7.4,91.91-6.26,132.06,4.85,25.14,8.48,26.26,9.8,24.67,30.73Q370.6,49.24,369.85,58.19Z"/><path class="cls-1" d="M361.21,189.88c-1.6-.67-3.2-1.34-4.81-2-.61-.28-1.23-.53-1.84-.8L352.14,186c-.11-.07-2.86-1.34-2.86-1.34q-3.7-1.75-7.36-3.61-7.62-3.83-15-8c-13.9-7.88-27.24-16.66-40.29-25.87,16.31-7.92,30.53-20.41,45-31.12.11-.07,2.51-1.79,3.28-2.3,1.57-1.07,3.16-2.12,4.81-3.08,6.29-3.67,12.84-7,19.27-10.4L361.26,99l5.29-2.8c-1.9,22-3.66,44.05-4.61,66.15Q361.34,176.14,361.21,189.88Z"/><path class="cls-3" d="M362.06,230.64c-1.68.41-3.33.86-5,1.35-26.46,7.93-48.11,26.23-73,37.84-1.47.69-3,1.28-4.47,2a.75.75,0,0,1-.13.06c-.58.22-1.16.44-1.75.64a75.12,75.12,0,0,1-10.41,2.81c-.53.1-2.33.36-3.18.5s-2.77.14-3.2.14a65.55,65.55,0,0,1-10.37-.85l-1.9-.34-4.45-.84c-3.58-.7-7.16-1.47-10.71-2.31-7.09-1.68-14.12-3.64-21-6q-5.92-2-11.68-4.38-1.22-.51-2.43-1.05l-.34-.15c-1.88-.93-3.76-1.88-5.6-2.89a87.16,87.16,0,0,1-9.21-5.78l-.38-.28c-.5-.36-1-.73-1.47-1.12a2.43,2.43,0,0,1-.24-.23c-.8-.79-1.6-1.56-2.39-2.35a85.76,85.76,0,0,0,1-12.39c0-.84,0-1.67,0-2.51l4.63-2.29c30-14.88,61.65-31.7,82.94-57.5,28.16,19.72,57.54,36.86,89.36,49.72,1.68.69,3.37,1.38,5.06,2C361.86,226.53,362,228.59,362.06,230.64Z"/><path class="cls-4" d="M240.55,459.77c-7.44,10.45-14.15,21.44-20.67,32.61-14.75,25.33-29.18,50.89-48.8,73-30.94,34.89-69.26,44.48-113.27,32.21C22.53,587.75,2.54,560.26.67,521.66c-1.49-30.23,7.83-57.37,23.8-82.54C44.06,408.27,69.13,382,94,355.52c22.92-24.36,46.77-47.79,68.57-73.2,1.12-1.3,2.17-2.63,3.17-4q1.93,1.39,3.94,2.68a144.18,144.18,0,0,0,24.37,12.06,213.75,213.75,0,0,0,29.31,9.09c7.48,4.78,15.36,9.3,18.16,18a75,75,0,0,1,2.71,12c-1.92,39.86-5.62,79.67-4.1,119.51C240.27,454.39,240.4,457.09,240.55,459.77Z"/><path class="cls-1" d="M354.59,375.71c-7.92,5.57-16.45,10-25.13,14.25-19.75,9.63-39.36,19.38-56.38,33.7-.38.3-.73.64-1.1.94q0-3.11.12-6.23c.69-31,3.34-62,4.64-93,2.55-8.81,8.32-16.47,14.31-23.77,13.18-5.26,25.28-12.54,37.43-19.92,7.35-4.46,14.71-8.9,22.4-12.73,1.95-1,3.92-1.91,5.91-2.79.88-.39,1.77-.76,2.65-1.14a2.38,2.38,0,0,1,.29-.13.8.8,0,0,0,.16-.08l.35-.11c1.44-.5,2.89-1,4.33-1.41,1.69,16,4,32,7.16,47.92a137.9,137.9,0,0,1,2.68,26.28C374.45,353.7,367.87,366.4,354.59,375.71Z"/><path class="cls-5" d="M60.14,529.25c0-.08,0-.28-.08-.24l-.07.33Z"/><path class="cls-5" d="M59.5,528.63a.9.9,0,0,0-.19.74c.12-.32.15-.18.27-.56.1,0,.17.11.15.23,0-.08.15.08.21-.13-.12-.26-.28-.27-.45-.06A.33.33,0,0,1,59.5,528.63Z"/><path class="cls-5" d="M50.05,527.85l.06,0A.09.09,0,0,0,50.05,527.85Z"/><path class="cls-5" d="M44.23,527.32a.1.1,0,0,0,.07-.07S44.22,527.29,44.23,527.32Z"/><path class="cls-5" d="M43.27,526.87l0,0S43.28,526.85,43.27,526.87Z"/><path class="cls-5" d="M50.05,527.85l-.15-.11C49.89,527.85,50,527.82,50.05,527.85Z"/><path class="cls-5" d="M58.18,529.4a.24.24,0,0,0,.08-.09.2.2,0,0,1-.08,0Z"/><path class="cls-5" d="M52.64,527.68h0a1.27,1.27,0,0,0,0-.14Z"/><path class="cls-5" d="M54.62,527.68s-.07.27-.09.39c0-.11.07-.17.11-.19A.83.83,0,0,0,54.62,527.68Z"/><path class="cls-5" d="M57.75,528.25l.06,0Z"/><path class="cls-5" d="M51.23,527.57a.22.22,0,0,0,0-.1A.44.44,0,0,0,51.23,527.57Z"/><path class="cls-5" d="M1,508.39l0,0S.94,508.38,1,508.39Z"/><polygon class="cls-5" points="0.96 505.67 0.99 505.69 1.13 505.62 0.96 505.67"/><path class="cls-5" d="M41.49,526.34h0S41.52,526.32,41.49,526.34Z"/><path class="cls-5" d="M25.27,523.25c.09.31-.4.21-.22.57C25.06,523.7,25.43,523.49,25.27,523.25Z"/><path class="cls-5" d="M58.13,529.36h0Z"/><path class="cls-5" d="M25.05,523.82h0l0,0Z"/><path class="cls-5" d="M37.33,526l0,.13A.26.26,0,0,0,37.33,526Z"/><path class="cls-5" d="M40.37,526.79l-.07,0Z"/><path class="cls-5" d="M35.68,526.14s0-.07-.11,0,0,0,0,0S35.64,526.09,35.68,526.14Z"/><polygon class="cls-5" points="34.02 525.85 34.04 525.91 34.09 525.91 34.02 525.85"/><path class="cls-5" d="M4.28,512.59a1,1,0,0,1,.13-.23C4.28,512.52,4.06,512.37,4.28,512.59Z"/><path class="cls-5" d="M58.18,529.24c0,.07,0,.11,0,.12h0A.2.2,0,0,0,58.18,529.24Z"/><path class="cls-5" d="M35.25,528.32l-.27-.09A1.07,1.07,0,0,0,35.25,528.32Z"/><path class="cls-5" d="M13.93,520.54h-.07S13.9,520.56,13.93,520.54Z"/><path class="cls-5" d="M34.17,528.13a.56.56,0,0,0-.11-.22L34,528Z"/><path class="cls-5" d="M4.42,512.36h0Z"/><path class="cls-5" d="M2.72,511.37c.16.22.36-.13.57-.21.27.18-.13.28-.21.49.2.1.56,0,.65.12s0,.08-.12.1c.36,0,.42.46.85.41l0,.08a2,2,0,0,1,.35-.36c.09.08.32,0,.17.2,0-.06-.12,0-.2,0l.16,0c-.19.31-.2,0-.39.12.24.11.64.13.68.34-.22.25-.36-.25-.43.13l-.09-.3c-.25.52-.08-.16-.38.38.18.35.4.21.59.55.2-.07.19-.21.39-.28.61.15-.33.89.27.87.24-.09.57-.36.6,0l-.33.2c.23.29.53-.24.62.22-.16.06-.29-.12-.29-.05,0,.4.28,0,.41.11l-.21.27c.33.23.81.34,1.17.58-.09.06-.21.09-.21.24a3.06,3.06,0,0,1,1.12,1.29l.34-.09s0,.15-.09.16c.09.22.13-.13.28-.16s0,.23-.1.25c.43,0,1.12.24,1.24.7l-.12,0c.17.27.63-.28.69.1h-.07c.43.49,1.15.68,1.31,1.31.32-.3.43.51.79,0,.14.45,0,.48.32.93.1.1.37-.2.55-.16l-.16.26.37-.16-.09.38.18,0a.23.23,0,0,1,0-.26c.28,0,.4.5.33.64l.64.08c-.08.1-.18.08-.29.11.43-.11-.12.31.28.21,0-.08.11-.15.15-.2,0,.23.32.39.57.44l-.15.16a14.15,14.15,0,0,0,1.29.6c-.11-.17.1-.48.24-.44l-.1.31c.18-.14-.07-.17.21-.31.15.12-.06.38-.2.43h.25c0,.09-.1.12-.17.22.17-.14.2.46.47.21l0,.09c.44.22.69.22,1.06.38.13-.25.24-.12.44-.28.23.2.44.53.77.66.28,0,.16-.19.33-.3-.08.24.25.36,0,.46a2.58,2.58,0,0,0,1.09.18c0-.11-.06-.18,0-.25s.16.18.1.29l0,0c.7-.14,1,1.21,1.66.88h0l.56-.09c.2.12-.19.13-.09.34.65-.22.78.34,1.29.22.08.83,1.17.31,1.47.91l0-.18c.17-.13.11.15.18.21,0-.14-.08-.19,0-.26a10.46,10.46,0,0,1,2.9,1.23c.36.14.43-.84.79-.32l-.21.29c.83-.2,1.52.37,2.32.19-.06.07-.08.16-.15.15.1.27.56.13.6-.06.11,0,0,.18,0,.29s.44-.22.48,0c0,0-.06.07-.09.08.12-.1.47.12.42-.17.25.18.55,0,.74.17.19-.28.44.23.56-.19-.1.44.42.45.63.26-.08.13.13.17,0,.34.2,0,.39,0,.4-.26.28.59.8-.32.9.4a10.72,10.72,0,0,1,1.74-.27c-.08.44-.59,0-.64.43.54-.11.87-.46,1.36-.28.12.08-.1.18-.15.25.52-.12,1,.16,1.44,0,0,.05,0,.09-.1.12s.19.08.21-.12l-.1,0c-.1-.31.42-.57.45-.73-.21.57.43.2.11.91a.28.28,0,0,0,.15-.26c.08,0,.1.13,0,.28.33-.08.24-.31.52-.27,0,.09-.07.13-.11.24.16-.18.33-.36.56-.25,0,.06,0,.14-.07.13.42,0,.75-.45,1.19-.22-.17.42.14.16.14.53l.25-.09-.08-.19c.21,0,.43-.23.6-.1l-.17.15.41,0-.22-.16c.23-.18,0-.48.29-.35-.06,0,.21,0,.31.25h0c.11-.11.23-.23.38-.12s-.06.41,0,.49c.13-.3.51,0,.67-.37a.63.63,0,0,0-.06.31l.11-.25c.09.09.1.13.08.28.29.07-.07-.48.27-.25,0,0,0,.06-.07.09.35.13.69-.11,1,0,.08.38-.29.07-.2.4.48,0,1-.39,1.46-.28l-.08,0c.09-.52.32.28.57,0-.06,0-.09.29-.07.24.31.1.65-.1,1.13-.25l-.07.14c.18.13.49.09.68.16.07-.14.18-.11.12-.31.58.8,1.19-.37,1.71.29-.07,0-.16.12-.11.12l.47-.11c0-.23-.06-.14-.15-.33a.39.39,0,0,1,.31-.23c-.21.15,0,.37.08.5,0-.07,0-.14,0-.22.23.42.06-.46.38-.17l0,.12c.13-.06.24-.22.38-.18,0,.27-.14.12-.15.34.18,0,.38-.49.54-.22-.08.07-.19.07-.28.14.18.32.2.24.34.29h0l.31.15-.08-.09c.26-.69.48-.12.81-.56-.32.42-.06.24-.09.55.08.08.2.18.17.26.15-.24.24.2.46-.15,0,.1.16,0,.12.26.2-.07,0-.17,0-.29.31-.33.69.42,1.13,0,.38-.18.46-.51.8-.67.12.16-.1.36-.1.36a.38.38,0,0,0,.51,0c0,.09,0,.16.05.27s.1-.35.28-.2a1.5,1.5,0,0,1-.15.38c.17-.08.34-.26.52-.35,0,.18-.11.26-.18.37.2-.07.51-.14.57-.41l-.12-.1c.07,0,0,.23,0,.28-.17.21-.24-.1-.25-.2l.13-.06c-.12-.57-.5.09-.75,0l.12-.42-.26.34c-.06-.11-.09-.34,0-.4-.17-.21-.16.15-.3-.09a.06.06,0,0,1,0-.07l-.17.12c0-.08,0-.29.08-.23-.31-.25-.51.3-.62,0l0,0c-.44.13,0,.3-.38.65l-.21-.75,0,.3a.13.13,0,0,1-.12-.16c-.17.21,0,.14-.07.33-.21-.28-.6.12-.64-.37-.08.23.21.18,0,.34,0-.53-.26.08-.46-.16.07-.27.25-.12.06-.37-.13.45-.38-.11-.54,0,0,.37-.37.15-.65.26,0-.12-.51-.22-.77-.35v-.07c-.06.37-.32.29-.52.36a.5.5,0,0,1,.16-.4h-.18a.35.35,0,0,1-.23.21l.06-.27c-.24,0-.5.31-.81.11,0,.26.23.73-.11.88,0-.14,0-.37.08-.43s-.11.12-.16.05l.14-.22c-.14-.11-.08.19-.2.16,0-.2-.07-.14-.05-.3s.09.09.14,0a.49.49,0,0,1-.32-.31c0,.11,0,.26-.11.28s-.07-.24-.21-.34c-.06.13-.21,0-.23.28-.07,0-.07-.14-.1-.23-.13.13-.59,0-.46.34l0,0h0c-.42.28-.84-.2-1.26-.1v-.1c-.25.1-.55,0-.73.25-.07,0-.16-.19-.12-.31-.19.07-.22.18-.48,0,.2-.16-.06-.16.2-.12-.24-.09-.28-.26-.56,0,.11-.25-.16-.33-.28-.27l.16.2a.87.87,0,0,1-.36,0l.09-.33c-.47-.44-.94.63-1.27-.07-.14.22.26.18.13.44-.23,0-.43-.55-.5-.56-.3-.2-.33.47-.64.31,0,.13,0,.45-.2.54s-.24-.52-.09-.6.07,0,.07.07.18-.08.1-.22l0,.12c-.11-.13-.42-.14-.33-.33-.18.1-.09.19,0,.26-.27-.19-.45,0-.74-.18,0,.07.08.21,0,.21-.43-.19-.21.2-.51.23-.16-.2.09-.43-.22-.31-.17-.13,0-.31.07-.4-.29.2-.49-.2-.64-.26l.15-.08a.4.4,0,0,1-.23,0l.06.24c-.08-.05-.15-.06-.14-.16-.1.15,0,.4-.16.6-.1-.13-.36.1-.36-.22.34.14,0-.32.29-.34a.21.21,0,0,1-.21,0s0-.06,0-.08c-.3-.31-.19.34-.53.29.06-.17-.05-.34-.11-.31.14,0,0,.3-.11.42-.21-.16-.25.08-.37,0l.13.08c-.07.17-.17.13-.34.17,0-.14.16-.08.11-.14-.21.29-.36-.37-.62-.19-.1-.13,0-.33-.06-.42-.3.2-.26-.28-.57-.13,0,.25.07.2-.15.4l.48-.11-.34.31c.14,0,.32-.11.39-.06-.16.18-.14.12-.1.32-.14-.38-.41.16-.6-.11l.08-.58c-.29-.31-.63.22-1,0l.12.12c-.09.23-.27,0-.42.07,0-.19,0-.27-.08-.4,0,.14-.31-.06-.41.32l-.16-.29c-.33-.16-.48.49-.81.38.14-.2,0-.36.26-.48-.11,0-.21-.07-.23.07,0-.14-.36.21-.43,0-.06.08-.11.28-.23.24a.17.17,0,0,1,0-.09c0,.09-.22.09-.14.33-.24-.67-1-.13-1.18-.71a4.06,4.06,0,0,1-.78,0s0-.09.05-.06c-.27-.24-.29.51-.6.24-.11-.35.22-.13.13-.27.08-.65-.43,0-.59-.42l.07,0c-.13-.25-.49.15-.77,0a.29.29,0,0,0,0-.1,1.36,1.36,0,0,1-1,.32c.14-.22.15-.1.16-.36-.13,0-.06.41-.32.42a1,1,0,0,1-.16-.59l.23,0c0-.37-.3-.06-.41-.15l.05-.14c-.36,0-.46.34-.84.22v.12c-.31.33-.13-.25-.41,0l0-.4a3,3,0,0,1-.85.24,2.49,2.49,0,0,1,.77-.43c-.14,0-.47-.1-.59.07.06,0,.16-.09.2,0a.77.77,0,0,1-.79.26c.26-.72-.66-.38-.68-1-.55.13-.9-.4-1.46-.53,0,.62-.16,0-.32.56-.14,0-.19,0-.19-.08l-.27-.48c0-.2.17-.09.2-.22-.26-.14,0-.29-.16-.5,0,.21-.2.26-.33.12l.13.35c-.49.17-.16-.6-.66-.44l.19-.14c-.24,0-.73-.26-1.09.12,0-.08,0-.26.1-.26-.44-.26-1.24.07-1.49-.36l.09-.12c-.1,0-.26.2-.31,0s.09-.12.06-.15-.33.14-.41,0l.16-.11c-.37-.38-.86.07-1.28,0a.71.71,0,0,0-.26-.83l0-.06c-.49-.3-1-.1-1.59-.18-.08-.56-.9-.7-1.23-1.19,0,.11-.18.3-.29.29s-.45.1-.23-.24l0,0c.12-.4-.16-.42-.33-.53l-.29.44c-.05-.93-1.32-.47-1.2-1.21-.18.05-.32,0-.49,0l.16-.23a2.12,2.12,0,0,0-.77-.57l.19-.12c-.19-.15-.71.51-.91.4l.18-.39c-.36-.23-.48-.78-1-.72,0,0,.13-.14.19-.11-.15-.13-.44-.69-.74-.19.23-.3-.32-.28-.61-.29l.2-.2c-.37.16-.43.23-.71.13,0-.07.1-.21.12-.1-.07-.25-.29.1-.4-.18l.19-.08c-.16-.15-.21-.07-.43,0s-.28-.32-.14-.53c-.13.1-.35.18-.41,0a.27.27,0,0,1,.16-.11c-.16-.37-.62-.12-.63-.49a.27.27,0,0,0,.08-.15c.21.2.37.37.34.37.17-.19,0-.38.4-.53-.26,0-.78.12-.87-.13l0-.08h0a.13.13,0,0,0-.14-.06.47.47,0,0,0-.08-.19c.12-.17-.12-.26-.2-.35-.19.21-.27.07-.32.34,0,0,0,0,.1,0l.06,0h0l.23.18c-.16.05-.32.07-.31-.14a3.55,3.55,0,0,1-.43.22c.15-.39.07-.75.21-1-.36-.14-.65-.53-1.19-.32-.12,0,0-.19.06-.28s.12.06.2,0c-.24-.05-.46-.39-.77-.18-.06-.3.35-.12.06-.34l.12,0c0-.91-1.45-.24-1.39-1.32a.22.22,0,0,1,0,.16c-.28-.9-1.39-1.25-1.45-2.28,0-.26-.26-.15-.49-.18l.22-.21-.43,0c-.42-.17.25-.92-.39-1.06l-.14.16c0-.17-.37-.4-.15-.5,0,0-.21.06-.15-.05l.13-.08-.44-.22c-.06-.33.57-.27.37-.68-.14-.11-.65-.2-.71-.09a.25.25,0,0,1-.14.28l-.15-.1c-.42.19-.91.31-1,.81l.39.11-.15.19-.13-.2c-.12.22.09.21.25.22a.39.39,0,0,0-.16.23l.53,0c-.14.12-.38.07-.37.29.24,0,.29-.32.51-.2-.11.22-.28.28-.05.32a.26.26,0,0,1-.25.07c.2,0,.24.29.49.22-.15.27.31.37-.07.59a.93.93,0,0,1,.52.12c-.58.09.24.42-.26.69.49-.12.53.41.92.52,0,0-.12,0-.12,0,.07.17,0,.3,0,.44.34-.21.57-.05.86-.08-.18.4-.45.18-.7.44.24-.19.48.11.64-.1-.08.27,0,.18-.21.44.41-.27.16.07.48,0,0,.33-.32.33,0,.44C3,511.45,2.72,511.37,2.72,511.37Zm4.85,4h0l-.1-.08Zm.39.35-.16-.16c0-.08.13-.15.17-.11S8,515.56,8,515.67Zm.53-2.16c.08,0,.06.08,0,.13l-.12-.07,0,0Z"/><path class="cls-5" d="M8.13,513.68s0,0,0,0,0,.05,0,.07l.08,0Z"/><path class="cls-5" d="M50.12,527.9h0a.05.05,0,0,1,0,0A0,0,0,0,0,50.12,527.9Z"/><polygon class="cls-5" points="13.36 520.36 13.4 520.3 13.33 520.33 13.36 520.36"/><path class="cls-5" d="M52.87,529a.13.13,0,0,0,0,.08A.16.16,0,0,0,52.87,529Z"/><path class="cls-5" d="M54.07,529.06l.17.11A.77.77,0,0,0,54.07,529.06Z"/><path class="cls-5" d="M55,529.23a.3.3,0,0,0,0-.12h0Z"/><path class="cls-5" d="M40.23,528.67h0C40.1,528.72,40.16,528.7,40.23,528.67Z"/><path class="cls-5" d="M44.67,528.42a.79.79,0,0,1-.15.12C44.59,528.57,44.65,528.58,44.67,528.42Z"/><polygon class="cls-5" points="35.28 528.33 35.28 528.32 35.25 528.32 35.28 528.33"/><path class="cls-5" d="M44.31,528.52a.17.17,0,0,0,.21,0C44.46,528.52,44.38,528.48,44.31,528.52Z"/><path class="cls-5" d="M59,529.44h0v0Z"/><path class="cls-5" d="M59.05,529.41l.05,0S59.06,529.38,59.05,529.41Z"/><path class="cls-5" d="M59.21,529.31l-.11.07S59.18,529.39,59.21,529.31Z"/><path class="cls-5" d="M57.78,529.29l0,.1A.22.22,0,0,0,57.78,529.29Z"/><path class="cls-5" d="M57.41,529.31c.08,0,.21.22.34.16v-.08C57.7,529.54,57.49,529.14,57.41,529.31Z"/><path class="cls-5" d="M55.88,528l.31.08c0-.11-.12-.25,0-.28C55.83,527.49,56.29,528.07,55.88,528Z"/><path class="cls-5" d="M54.92,527.83c.17,0,0-.15,0-.21S54.8,527.74,54.92,527.83Z"/><path class="cls-5" d="M48,527.57l0-.26C47.86,527.34,48,527.41,48,527.57Z"/><polygon class="cls-5" points="46.55 528.81 46.67 528.98 46.74 528.75 46.55 528.81"/><polygon class="cls-5" points="45.88 526.94 45.94 526.91 45.72 526.99 45.88 526.94"/><path class="cls-5" d="M34.36,525.66l0,.32C34.44,525.94,34.52,525.59,34.36,525.66Z"/><path class="cls-5" d="M29.4,524.92c0-.17-.12-.3-.24-.17C29.26,524.8,29.34,524.94,29.4,524.92Z"/><polygon class="cls-5" points="15.82 518.9 15.96 518.86 15.75 518.84 15.82 518.9"/><path class="cls-6" d="M217.49,27.9c.09,0,.28,0,.23-.07l-.32,0Z"/><path class="cls-6" d="M218.05,27.57a2.41,2.41,0,0,0-.74.08c.32,0,.19,0,.57,0,0,0-.09.08-.21.1.08,0-.07.06.14,0s.24-.15,0-.16A.86.86,0,0,1,218.05,27.57Z"/><path class="cls-6" d="M218.06,24.39l0,0Z"/><path class="cls-6" d="M218,22.45l.08,0A.08.08,0,0,0,218,22.45Z"/><path class="cls-6" d="M218.35,22.09l0,0S218.37,22.09,218.35,22.09Z"/><path class="cls-6" d="M218.06,24.39l.09-.07C218.05,24.34,218.08,24.36,218.06,24.39Z"/><path class="cls-6" d="M217.19,27.29h.09l0,0Z"/><path class="cls-6" d="M218.44,25.19v0h0Z"/><path class="cls-6" d="M218.59,25.83a1.86,1.86,0,0,0-.39,0,.58.58,0,0,1,.2,0Z"/><path class="cls-6" d="M218.28,26.94h0Z"/><path class="cls-6" d="M218.43,24.72l.1,0Z"/><path class="cls-6" d="M216.91,6.21H217S216.92,6.2,216.91,6.21Z"/><polygon class="cls-6" points="218.43 5.74 218.44 5.75 218.6 5.79 218.43 5.74"/><path class="cls-6" d="M218.66,21.46h0S218.68,21.47,218.66,21.46Z"/><path class="cls-6" d="M218.29,16c-.25.06-.32-.11-.6,0C217.8,16,218.13,16.08,218.29,16Z"/><path class="cls-6" d="M217.22,27.26s0,0,0,0S217.21,27.26,217.22,27.26Z"/><path class="cls-6" d="M217.69,16Z"/><path class="cls-6" d="M218.4,20.11l-.13,0Z"/><path class="cls-6" d="M218.06,21.16l0,0S218.06,21.15,218.06,21.16Z"/><path class="cls-6" d="M218,19.59s.06,0,0,0h0S218,19.58,218,19.59Z"/><path class="cls-6" d="M218,19h-.06l0,0Z"/><path class="cls-6" d="M216.72,8,217,8C216.77,8,216.72,7.86,216.72,8Z"/><path class="cls-6" d="M217.35,27.26h-.13l0,0Z"/><path class="cls-6" d="M215.75,19.67l0-.09A.11.11,0,0,0,215.75,19.67Z"/><path class="cls-6" d="M216.21,12.07l0,0S216.18,12.06,216.21,12.07Z"/><path class="cls-6" d="M215.74,19.3a.59.59,0,0,0,.19-.06h-.07Z"/><path class="cls-6" d="M217,8h0Z"/><path class="cls-6" d="M216.42,7.26c0,.09.35.11.56.17s-.28,0-.47,0c.08.08.41.19.39.23a1,1,0,0,1-.16,0c.28.11,0,.2.33.34H217a3.17,3.17,0,0,1,.5.07s.21.11,0,.08c0,0-.08,0-.15-.06l.09.06c-.35,0-.11-.08-.36-.12.1.1.37.24.26.28-.34,0-.09-.16-.4-.13l.14-.07c-.54,0,.05-.05-.53-.08-.12.1.15.16,0,.27.18.06.28,0,.46.1.31.22-.86,0-.44.2.22.07.64.15.4.2l-.37-.09c-.06.12.54.15.26.24s-.11-.11-.16-.1c-.31,0,.21.09.2.15l-.34,0c0,.14.26.31.3.46a.83.83,0,0,0-.31,0c.14.2-.1.37-.32.52l.28.1s-.13,0-.19,0,.19,0,.3.08-.18,0-.26,0c.23.15.49.4.16.49l-.08,0c-.13.09.58.19.3.24l-.05,0c-.16.19.08.46-.37.57.41.07-.21.19.37.26-.3.09-.4.05-.61.2,0,0,.36.1.41.17l-.3,0,.31.1h-.37l.07.06a.48.48,0,0,1,.23,0c.13.09-.23.18-.39.17l.24.22a.93.93,0,0,1-.24-.09c.31.13-.32,0,0,.11l.24,0c-.19,0-.2.14-.13.23l-.21,0c-.06.14.08.31.07.47a.82.82,0,0,1,.5,0h-.33c.2,0,.13,0,.37,0,0,.06-.38,0-.48,0l.11.08a1.47,1.47,0,0,1-.27,0c.2,0-.34.11,0,.18h-.1c0,.16.09.24.1.37.28,0,.21.07.44.13-.09.09-.32.18-.3.3s.23,0,.4.08c-.26,0-.24.11-.42,0a.55.55,0,0,0,.24.37.66.66,0,0,1,.24,0s-.11.06-.23.05h0c.38.22-.77.44-.24.62h0l.28.17c-.05.07-.19,0-.35,0,.42.19-.07.28.21.43-.76.1.05.41-.44.55h.18c.17,0-.11,0-.15.07.14,0,.16,0,.26,0,.21.33-.26.69-.42,1-.05.13.92.06.5.22l-.33,0c.39.25,0,.53.33.77-.08,0-.17,0-.17,0-.24.06,0,.2.19.19,0,0-.18,0-.28,0s.31.13.07.16a.15.15,0,0,1-.1,0c.12,0,0,.16.26.12-.13.1.12.17,0,.25.31,0-.14.17.3.17-.46,0-.36.18-.15.23-.13,0-.14.05-.33,0,0,.07.1.12.33.1-.53.15.45.23-.24.33a2.35,2.35,0,0,1,.55.54c-.45,0-.06-.2-.53-.16.19.16.58.23.49.41s-.2,0-.28,0c.2.15,0,.33.24.46l-.12,0s-.06.07.14.05l-.06,0a2.94,2.94,0,0,1,.79.06c-.59,0-.14.16-.88.14a.64.64,0,0,0,.27,0s-.11.05-.27,0c.12.1.33,0,.34.14a2.44,2.44,0,0,1-.26,0c.2,0,.39.06.32.15s-.14,0-.14,0c0,.14.53.2.36.37-.44,0-.14.06-.51.1l.12.08.18-.05c0,.07.27.11.16.18l-.16,0,.08.13.14-.09c.2.05.47-.06.37.05s0,.07-.21.13h0c.12,0,.25.05.16.11s-.41,0-.49.05c.32,0,.11.16.44.17a1.42,1.42,0,0,0-.31,0H217a.58.58,0,0,1-.28.06c0,.11.47-.08.28.06h-.1c-.09.13.19.21.07.33-.37.08-.1-.08-.41,0,.08.15.48.27.42.44l0,0c.52,0-.25.15,0,.19,0,0-.3,0-.24,0s.16.2.35.34H217c-.11.08-.05.18-.1.25.13,0,.12,0,.31,0-.74.31.46.33-.15.61,0,0-.12,0-.12,0l.15.13a1.13,1.13,0,0,0,.31-.1c.13,0,.25,0,.25.07a.81.81,0,0,0-.49.1l.22,0c-.39.15.46-.05.21.1h-.12c.06,0,.23,0,.2.09-.26.06-.13,0-.35,0,0,.06.52,0,.27.14-.08,0-.09-.05-.16-.07-.31.11-.23.11-.27.16h0l-.12.12.08,0c.7,0,.15.14.61.17-.44,0-.25,0-.55.07a.6.6,0,0,1-.25.1c.25,0-.17.11.19.12-.1,0,0,.06-.25.09.09,0,.17-.05.29-.06.34,0-.35.3.12.37.21.09.54.05.72.13a.75.75,0,0,1-.36,0c-.13.08-.09.13,0,.16a.92.92,0,0,0-.26.07s.35,0,.22.05l-.39,0c.1,0,.29.06.39.1a1,1,0,0,1-.38,0,.58.58,0,0,0,.45.11l.09-.06s-.23.06-.28.05c-.21,0,.08-.1.18-.12l.06,0c.56-.15-.12-.14-.1-.23l.42,0-.36,0a1,1,0,0,1,.4-.06c.19-.09-.15,0,.06-.11,0,0,.06,0,.07,0l-.13,0c.09,0,.29-.06.24,0,.21-.14-.34-.1,0-.2h0c-.17-.12-.3,0-.68,0l.73-.2-.3,0s0-.05.15-.07c-.22,0-.13,0-.33,0,.26-.12-.17-.17.31-.27-.23,0-.16.1-.34.05.52-.11-.1-.07.13-.18s.14.06.36,0c-.45,0,.08-.14,0-.18-.36.05-.17-.09-.3-.17.12,0,.17-.2.28-.3h.06c-.36,0-.31-.06-.39-.11a1.15,1.15,0,0,1,.41,0v-.06a.41.41,0,0,1-.23,0l.27,0c0-.08-.35-.12-.18-.24-.25,0-.69.18-.88.1a1.52,1.52,0,0,1,.43-.05s-.12,0-.06,0H218c.09-.06-.2,0-.18,0,.19,0,.13,0,.29-.06s-.08,0,0,.05a.54.54,0,0,1,.28-.16c-.11,0-.26,0-.29,0s.23-.06.33-.12c-.14,0,0-.07-.3,0,0,0,.14,0,.21-.06-.13,0-.06-.19-.36-.1h0c-.31-.1.13-.3,0-.42h.1c-.12-.07-.09-.17-.31-.2,0,0,.17-.08.29-.09-.08-.05-.19,0,0-.15.18,0,.15,0,.13.05.07-.09.23-.13,0-.18.26,0,.31-.1.23-.13l-.17.08s0-.08,0-.12h.33c.38-.21-.72-.22-.06-.42-.23,0-.15.11-.43.1,0-.08.51-.21.51-.23.17-.12-.5-.05-.38-.17a1,1,0,0,1-.55,0c0-.08.48-.14.58-.11s0,0-.06,0a.31.31,0,0,0,.22,0h-.12c.12,0,.1-.15.29-.14a.22.22,0,0,0-.25,0c.16-.11,0-.15.09-.26-.06,0-.2.05-.2,0s-.23,0-.29-.13c.18-.07.44,0,.28-.11a.64.64,0,0,1,.41,0c-.24-.07.13-.18.17-.23l.1,0c-.06,0-.06,0-.06-.07l-.23.05s0-.05.13-.06a5.83,5.83,0,0,1-.61,0c.12,0-.13-.1.18-.14-.1.13.31,0,.37.06s0,0,0-.07a.26.26,0,0,1,.09,0c.27-.13-.36,0-.36-.13.17,0,.33-.06.29-.07s-.29,0-.43,0c.13-.08-.11-.07-.1-.11l-.06.05c-.18,0-.16,0-.22-.09.14,0,.1,0,.16,0-.32,0,.31-.16.1-.22.11-.05.33,0,.41-.07-.24-.07.23-.11,0-.19a.67.67,0,0,1-.42,0l.18.15-.35-.08c0,.05.15.09.11.12a.62.62,0,0,0-.33,0c.35-.09-.21-.11,0-.2l.59,0c.26-.12-.31-.18-.17-.33l-.1.05c-.24,0,0-.08-.14-.13a1.6,1.6,0,0,0,.39-.06c-.14,0,0-.11-.38-.1l.25-.08c.1-.12-.57-.1-.51-.22a2.08,2.08,0,0,1,.52,0s0-.07-.11-.06c.13,0-.27-.09-.08-.14-.09,0-.3,0-.28,0h.09a.81.81,0,0,0-.35,0c.61-.14,0-.32.47-.44a.75.75,0,0,1-.15-.25c.06,0,.1,0,.08,0,.18-.11-.57,0-.37-.17s.18.06.3,0c.65,0-.1-.14.28-.23l0,0c.22-.06-.25-.14-.21-.24h.1a.91.91,0,0,1-.54-.28,1.35,1.35,0,0,0,.4,0s-.42,0-.49-.07a2.16,2.16,0,0,1,.54-.1v.08c.36-.05,0-.1.05-.15h.16c-.06-.12-.45-.12-.42-.26l-.12,0c-.39-.07.22-.06-.07-.13l.4,0a1.58,1.58,0,0,1-.46-.25,3.16,3.16,0,0,1,.62.21s0-.16-.23-.18c0,0,.14,0,.08.06-.31-.06-.47-.13-.46-.23.76,0,.19-.24.79-.3-.28-.17.13-.33.08-.52-.59.06,0-.05-.62-.06,0,0,0-.06,0-.06l.37-.13c.18,0,.13.05.27.05s.26,0,.42-.1c-.22,0-.31,0-.23-.09l-.28.07c-.32-.15.52-.11.2-.25l.19.05c-.11-.08,0-.26-.48-.35.07,0,.24,0,.28,0,.09-.17-.5-.4-.19-.52l.15,0s-.28-.07-.13-.1a.48.48,0,0,0,.16,0s-.26-.1-.17-.14l.17.05c.2-.16-.4-.28-.5-.42a.89.89,0,0,0,.67-.16h.06c.07-.18-.34-.34-.5-.53.49-.08.23-.36.51-.52a1,1,0,0,1-.39-.06c.1,0-.29-.14.11-.1h0c.4,0,.3-.09.32-.16l-.53-.05c.78-.11-.23-.49.46-.51-.13-.06-.12-.11-.25-.17l.28,0a.28.28,0,0,0,.08-.32l.19,0c0-.07-.8-.18-.81-.26l.43,0c0-.14.39-.24,0-.42a.56.56,0,0,1,.19.05c0-.06.32-.22-.26-.27.38,0,.06-.14-.1-.23l.27,0c-.34-.11-.44-.12-.52-.22s.22,0,.15,0c.15-.06-.26-.09-.1-.16l.17.06c0-.08-.06-.08-.26-.15s.08-.13.33-.11c-.15,0-.34-.1-.27-.13a.69.69,0,0,1,.18,0c.2-.09-.29-.22,0-.27h.17c0,.1,0,.17-.07.16a2.43,2.43,0,0,1,.65.08c-.18-.09-.58-.26-.45-.32h.12s0,0,0-.05.08,0,.09-.06c.21,0,.13-.07.14-.11-.27,0-.22-.08-.46-.06,0,0,0,0,0,0l0,0h0a.31.31,0,0,1,0,.1c-.14,0-.25-.1-.09-.12L218,9.29c.39,0,.62-.07.86,0-.14-.14-.06-.29-.57-.45-.06,0,.15,0,.24,0s0,.05.11.08c-.12-.09,0-.21-.38-.29.17-.06.32.11.28,0l.11,0c.62-.13-.86-.53-.07-.66a.28.28,0,0,1-.13,0c.38-.23-.2-.66.37-.84.13-.07-.1-.12-.27-.2l.3,0-.32-.16c-.23-.17.77-.06.32-.3l-.2,0c.05,0-.08-.19.15-.14,0,0-.21-.06-.1-.06l.16,0-.24-.19c.13-.08.61.15.67,0a1.69,1.69,0,0,0-.52-.26s-.11,0-.27,0l-.07-.07a3.52,3.52,0,0,0-1.25-.19l.26.15-.23,0V5.61c-.21,0,0,.07.08.13a.81.81,0,0,0-.25,0l.42.18c-.18,0-.35-.11-.46-.07.2.08.41,0,.53.14-.22,0-.38,0-.22,0a.46.46,0,0,1-.23-.08c.13.08,0,.14.27.21-.27,0,0,.17-.4.08a.89.89,0,0,1,.33.19c-.5-.18-.06.15-.61,0,.45.15.16.25.4.4,0,0-.11,0-.08,0s-.2,0-.29.06a2.53,2.53,0,0,1,.68.28c-.38,0-.44-.13-.8-.17.31,0,.29.18.55.2a1.32,1.32,0,0,1-.44,0c.48.1.07.07.36.17-.25,0-.45-.07-.32.05A.59.59,0,0,1,216.42,7.26Zm.51,2.16h0V9.37Zm0,.17a.19.19,0,0,0,0-.08c.1,0,.19,0,.19.05A.4.4,0,0,0,216.91,9.59Zm2-.07s0,0-.08,0a.09.09,0,0,0,0,0h0Z"/><path class="cls-6" d="M218.53,9.42l0,0h-.06l.08,0Z"/><path class="cls-6" d="M218,24.42h0l0,0Z"/><polygon class="cls-6" points="216.09 11.87 216.16 11.88 216.1 11.86 216.09 11.87"/><path class="cls-6" d="M217.19,25.47l-.07,0Z"/><path class="cls-6" d="M217.19,25.88l-.09.07C217.16,25.92,217.18,25.9,217.19,25.88Z"/><path class="cls-6" d="M217.1,26.21h0Z"/><path class="cls-6" d="M216.19,21.32h0Z"/><path class="cls-6" d="M217,22.73l-.14,0S216.81,22.75,217,22.73Z"/><polygon class="cls-6" points="215.75 19.68 215.75 19.68 215.75 19.67 215.75 19.68"/><path class="cls-6" d="M216.83,22.63c-.05,0,0,.05,0,.07S216.88,22.64,216.83,22.63Z"/><path class="cls-6" d="M217.22,27.57h0Z"/><path class="cls-6" d="M217.25,27.58h0S217.28,27.57,217.25,27.58Z"/><path class="cls-6" d="M217.36,27.61l-.07,0S217.28,27.61,217.36,27.61Z"/><path class="cls-6" d="M217.27,27.14h0Z"/><path class="cls-6" d="M217.22,27s-.2.11-.13.14h.08C217,27.16,217.39,27,217.22,27Z"/><path class="cls-6" d="M218.36,26.29l-.06.12c.11,0,.25-.09.28-.05C218.88,26.18,218.34,26.43,218.36,26.29Z"/><path class="cls-6" d="M218.47,26c.06.05.16,0,.22,0C218.58,25.9,218.56,25.89,218.47,26Z"/><path class="cls-6" d="M218.14,23.68l.26,0S218.3,23.67,218.14,23.68Z"/><polygon class="cls-6" points="216.78 23.39 216.63 23.45 216.86 23.45 216.78 23.39"/><polygon class="cls-6" points="218.56 22.93 218.6 22.95 218.5 22.89 218.56 22.93"/><path class="cls-6" d="M218.2,19.13l-.31,0C217.94,19.18,218.3,19.17,218.2,19.13Z"/><path class="cls-6" d="M217.85,17.48c.15,0,.26-.07.1-.1S217.81,17.46,217.85,17.48Z"/><polygon class="cls-6" points="218.57 12.55 218.67 12.59 218.59 12.52 218.57 12.55"/><path class="cls-6" d="M235.65,25.87c.09,0,.28-.07.23-.1l-.33.07Z"/><path class="cls-6" d="M236.18,25.47a2.39,2.39,0,0,0-.74.13c.32,0,.19,0,.57-.05.05,0-.08.09-.2.11.08,0-.06.08.15,0s.23-.17,0-.18A.8.8,0,0,1,236.18,25.47Z"/><path class="cls-6" d="M236.24,22.05l0,0Z"/><path class="cls-6" d="M236.43,20s0,0,.07,0A.09.09,0,0,0,236.43,20Z"/><path class="cls-6" d="M236.8,19.61l0,0S236.83,19.62,236.8,19.61Z"/><path class="cls-6" d="M236.24,22.05l.1-.06C236.23,22,236.26,22,236.24,22.05Z"/><path class="cls-6" d="M235.28,25.19h.1l0,0Z"/><path class="cls-6" d="M236.55,23h0Z"/><path class="cls-6" d="M236.67,23.62a2,2,0,0,0-.39,0h.19Z"/><path class="cls-6" d="M236.36,24.78h0Z"/><path class="cls-6" d="M236.58,22.45h0Z"/><path class="cls-6" d="M235,2.37h0Z"/><polygon class="cls-6" points="236.4 1.58 236.42 1.59 236.57 1.6 236.4 1.58"/><path class="cls-6" d="M237.18,19Z"/><path class="cls-6" d="M237.16,12.87c-.26.06-.32-.12-.61,0C236.66,12.84,237,13,237.16,12.87Z"/><path class="cls-6" d="M235.32,25.16s0,0,0,0S235.3,25.15,235.32,25.16Z"/><path class="cls-6" d="M236.55,12.84Z"/><path class="cls-6" d="M237.06,17.43h0Z"/><path class="cls-6" d="M236.62,18.55l0,0Z"/><path class="cls-6" d="M236.68,16.82s.06,0,0,0h0S236.72,16.81,236.68,16.82Z"/><path class="cls-6" d="M236.7,16.21h-.06v0Z"/><path class="cls-6" d="M235.06,4.25a2.06,2.06,0,0,1,.26,0C235.12,4.23,235.05,4.14,235.06,4.25Z"/><path class="cls-6" d="M235.44,25.15h-.12v0Z"/><path class="cls-6" d="M234.46,16.73l0-.09A.12.12,0,0,0,234.46,16.73Z"/><path class="cls-6" d="M235,8.66l0,0S234.94,8.65,235,8.66Z"/><path class="cls-6" d="M234.47,16.35l.2-.05-.07,0Z"/><path class="cls-6" d="M235.32,4.22Z"/><path class="cls-6" d="M234.67,3.56c0,.09.36.06.57.08s-.27,0-.46.08c.1.07.43.13.42.18a.29.29,0,0,1-.16,0c.29.08,0,.22.37.32h.42s.23.08,0,.09c0,0-.09,0-.17-.05l.11.05c-.35,0-.12-.06-.38-.07.11.09.4.2.3.26-.34,0-.11-.16-.42-.08l.13-.1c-.53.07,0-.06-.53,0-.1.13.17.15.06.28.19,0,.28,0,.47,0s-.86.12-.41.27c.23,0,.66.07.43.16L235,5c0,.12.55.09.29.21s-.12-.1-.17-.08c-.31.08.22.07.21.13H235c.05.14.29.29.35.45a.81.81,0,0,0-.31,0c.16.2-.05.41-.26.59l.29.08a.38.38,0,0,1-.19,0c-.11.07.19,0,.3,0s-.17,0-.26,0c.25.13.53.38.21.5l-.09,0c-.12.1.6.14.32.23l-.05,0c-.13.22.13.48-.32.64.42,0-.19.22.4.25-.3.12-.4.08-.61.25,0,0,.37.09.43.15h-.31l.32.09-.37,0,.08.05a.45.45,0,0,1,.23,0c.14.09-.22.21-.38.2L235,9a.67.67,0,0,1-.24-.08c.31.13-.33,0,0,.13a1,1,0,0,1,.25,0c-.19.05-.2.16-.12.25l-.21,0c-.06.15.09.33.08.5a.75.75,0,0,1,.5,0h-.32c.2,0,.12-.05.36,0,0,.07-.37,0-.47,0l.11.08c-.1,0-.15,0-.27,0,.2,0-.33.13,0,.19h-.1c0,.17.1.25.11.39.28,0,.22.07.45.12-.1.1-.32.21-.3.33s.24,0,.4.08c-.25,0-.23.12-.42.05,0,.16,0,.2.25.39.11,0,.15,0,.24,0s-.11.07-.23.06h0c.38.23-.76.47-.23.66h0l.28.18c-.05.08-.19-.05-.36,0,.43.21-.07.3.21.47-.76.1,0,.43-.44.58h.18c.17.05-.11.05-.15.08.14,0,.16,0,.26,0,.2.36-.28.73-.46,1.09,0,.13.92.1.49.26l-.33-.06c.39.28,0,.55.3.83-.07,0-.17,0-.17-.05-.24.05,0,.21.18.22,0,0-.18,0-.28,0s.3.15.06.17a.11.11,0,0,1-.09,0c.11,0,0,.17.24.14-.14.09.12.19-.05.27.31.06-.15.16.28.19-.45,0-.37.17-.16.23-.13,0-.14.05-.33,0,0,.08.09.14.32.14-.54.12.43.28-.27.33a2.19,2.19,0,0,1,.5.62c-.45,0,0-.21-.51-.22.18.19.56.3.45.48s-.2,0-.27-.05c.18.19-.06.35.18.52a.28.28,0,0,1-.12,0s-.06.07.14.08l0,0c.29,0,.61.15.77.16-.59-.07-.15.15-.89,0a.48.48,0,0,0,.27.06s-.12,0-.28,0c.11.11.33.08.32.18a1.29,1.29,0,0,1-.25,0c.19.06.38.12.3.21s-.14,0-.14,0c0,.15.51.27.32.43-.43-.06-.15.05-.52.05l.11.09.18,0c0,.08.26.16.14.22l-.15-.06.06.15.15-.08c.19.08.47,0,.36.1s0,.08-.23.11h0c.12.05.25.09.15.14s-.41,0-.49,0c.31.05.08.19.41.24a1.78,1.78,0,0,0-.31,0l.25,0a.51.51,0,0,1-.27,0c-.05.11.47,0,.26.1l-.09,0c-.11.13.15.26,0,.37-.38,0-.09-.1-.41-.06.07.17.45.36.36.53l0,0c.53,0-.26.13,0,.21a1.41,1.41,0,0,0-.23,0c-.09.12.13.24.3.41l-.13,0c-.12.07-.07.18-.13.26.14,0,.12.06.32,0-.77.26.43.41-.2.64,0,0-.12-.05-.12,0l.13.17a1.14,1.14,0,0,0,.32-.08c.14,0,.25.05.25.09-.16-.07-.37,0-.5.07h.23c-.41.12.46,0,.19.12h-.12c.07,0,.23.07.2.12-.26.05-.13,0-.35,0,0,.07.52.09.26.17-.07,0-.08-.06-.16-.08-.3.1-.22.1-.26.16h0l-.13.14.08,0c.71,0,.15.16.62.22-.44-.06-.25,0-.55,0a.66.66,0,0,1-.25.1c.25,0-.18.12.18.15-.09,0,0,.06-.24.09.09.06.16,0,.29-.06.34.06-.36.34.12.42.21.1.54.06.73.15a.64.64,0,0,1-.36,0c-.12.1-.09.15,0,.19a.56.56,0,0,0-.25.08s.35-.05.23.05-.28,0-.39,0c.1,0,.29.06.39.1a1,1,0,0,1-.37,0,.54.54,0,0,0,.46.1l.08-.07s-.22.07-.27.07c-.22,0,.07-.11.16-.14l.07,0c.55-.19-.13-.16-.12-.26l.42,0-.36,0a.83.83,0,0,1,.39-.07c.19-.11-.15,0,.06-.13h.07l-.13,0c.08,0,.28-.07.23,0,.21-.15-.34-.11,0-.21h0c-.17-.12-.31,0-.68,0l.73-.21-.3,0s0,0,.14-.06c-.21,0-.13,0-.33,0,.27-.12-.16-.19.32-.28-.23,0-.17.1-.34,0,.52-.1-.1-.08.13-.19s.14.07.37,0c-.46,0,.08-.14,0-.19-.36,0-.16-.11-.29-.19.12,0,.17-.2.3-.3h.06c-.37,0-.31-.08-.39-.14a1.25,1.25,0,0,1,.41,0V23a.29.29,0,0,1-.22-.06h.27c0-.08-.33-.15-.16-.27-.25,0-.7.13-.88,0a1.52,1.52,0,0,1,.43,0s-.11,0-.06-.06l.24,0c.1-.06-.2,0-.18-.06.2,0,.14,0,.3,0s-.08,0,0,0a.43.43,0,0,1,.29-.13.6.6,0,0,1-.29,0c0-.08.23,0,.33-.09-.13,0,0-.08-.29-.07,0,0,.14,0,.22-.05-.13,0-.05-.2-.36-.14h0c-.3-.13.16-.3,0-.45h.1c-.12-.08-.07-.19-.28-.25,0,0,.18-.06.29-.05-.07-.07-.18-.08,0-.17.17.07.16,0,.13.07.08-.09.24-.11,0-.2.26,0,.32-.06.25-.11l-.19.06s0-.08,0-.12l.34,0c.4-.17-.69-.33,0-.45-.23-.05-.16.09-.44.05,0-.08.53-.16.53-.18.19-.11-.48-.12-.35-.23A1,1,0,0,1,236,20c.05-.08.5-.08.6,0s0,0-.07,0a.26.26,0,0,0,.22,0h-.12c.12,0,.11-.15.31-.12a.22.22,0,0,0-.26,0c.17-.1,0-.16.13-.27-.07,0-.21,0-.21,0,.16-.15-.22-.07-.27-.18.18-.06.43,0,.29-.08a.58.58,0,0,1,.41,0c-.23-.1.15-.18.2-.23l.09,0c-.06,0,0-.06,0-.08l-.24,0s0-.06.14-.05a5,5,0,0,1-.6-.06c.12,0-.13-.13.19-.13-.11.12.31,0,.36.1s0-.05,0-.08l.08,0c.29-.11-.35-.07-.34-.19.17,0,.33,0,.3-.05s-.3,0-.43,0c.14-.08-.1-.09-.09-.14l-.06.05c-.18,0-.16-.06-.21-.12.14,0,.09.05.16,0-.31-.08.32-.14.12-.23.12,0,.33,0,.41,0-.23-.11.25-.1.06-.21a.58.58,0,0,1-.41-.05l.16.18-.34-.12c0,.05.15.11.1.14a.47.47,0,0,0-.33,0c.36-.06-.2-.15,0-.22l.59,0c.27-.12-.3-.23-.14-.39l-.11.05c-.23,0,0-.1-.12-.15a1.33,1.33,0,0,0,.39,0c-.14,0,0-.12-.37-.14l.26-.07c.11-.12-.56-.16-.49-.28.22,0,.36,0,.51.08,0,0,0-.08-.1-.09.13,0-.26-.12-.07-.15-.09,0-.29,0-.28-.08h.1c-.1,0-.13-.07-.35,0,.62-.11,0-.36.5-.45a.65.65,0,0,1-.14-.29c.06,0,.1,0,.08,0,.19-.11-.56-.08-.36-.21s.17.08.3,0c.65,0-.09-.16.29-.23l0,0c.22-.06-.24-.17-.19-.28h.1a.82.82,0,0,1-.52-.34,1,1,0,0,0,.39,0c0-.05-.42,0-.49-.09a1.91,1.91,0,0,1,.54-.09v.09c.36,0,0-.12.06-.16h.15c0-.14-.43-.15-.4-.3l-.12,0c-.39-.09.22-.06-.07-.15h.4a2.31,2.31,0,0,1-.45-.29,2.24,2.24,0,0,1,.61.25c0-.06,0-.18-.22-.21,0,0,.14,0,.07.07-.3-.08-.45-.16-.44-.27.76,0,.2-.26.79-.32-.27-.19.13-.35.1-.57-.6.06,0-.06-.63-.07,0-.05,0-.06,0-.07l.37-.14c.18,0,.13.05.27.05s.26,0,.43-.1c-.22,0-.32-.05-.23-.11l-.28.08c-.33-.16.51-.11.19-.28l.2.06c-.12-.08,0-.29-.48-.38.07,0,.24,0,.28,0,.08-.19-.51-.43-.2-.57l.15,0c-.05,0-.28-.07-.13-.11s.15,0,.16,0-.26-.1-.17-.14l.16,0c.21-.17-.4-.29-.49-.44a.81.81,0,0,0,.66-.2h.06c.06-.22-.36-.38-.52-.58.48-.11.21-.41.48-.59a.76.76,0,0,1-.38-.06c.09,0-.3-.13.1-.11h0c.4,0,.3-.12.31-.19l-.53,0c.77-.17-.27-.51.42-.6-.13-.05-.12-.11-.25-.16h.28a.32.32,0,0,0,0-.35l.2,0c0-.09-.81-.14-.82-.22h.42c0-.16.37-.31,0-.48.07,0,.19,0,.2,0s.3-.27-.28-.26c.38,0,0-.17-.12-.26l.27,0c-.35-.09-.45-.09-.54-.19s.22,0,.15,0c.15-.07-.26-.07-.11-.16l.17,0c0-.08-.07-.08-.27-.13s.07-.15.32-.15c-.15,0-.35-.07-.28-.12a.48.48,0,0,1,.18,0c.2-.13-.31-.21,0-.3h.17c0,.11,0,.2-.05.19a1.81,1.81,0,0,1,.66,0c-.19-.08-.61-.21-.49-.29h.12s0,0,0,0,.08,0,.08-.07c.21,0,.12-.1.13-.14-.28,0-.24-.06-.47,0,0,0,0,0,.05,0l0,0h0a.34.34,0,0,1,0,.11c-.14,0-.26-.08-.1-.13l-.45-.07c.39-.05.61-.16.85-.16-.15-.14-.09-.32-.62-.42-.07,0,.15,0,.24-.05s0,.05.12.06c-.14-.08,0-.22-.42-.25.17-.09.34.06.28-.07l.12,0c.59-.24-.93-.45-.17-.71a.28.28,0,0,1-.13,0c.34-.31-.29-.68.25-1,.11-.09-.13-.11-.31-.17H237l-.35-.1c-.25-.15.75-.22.27-.4h-.2c0-.06-.12-.19.12-.18,0,0-.21,0-.11,0h.16l-.27-.16c.12-.11.63,0,.67-.13a1.2,1.2,0,0,0-.56-.18s-.1.07-.26.06l-.08-.06a3.47,3.47,0,0,0-1.27,0l.28.11-.23,0V1.69c-.21,0,0,.08.1.12a.73.73,0,0,0-.25,0l.44.11c-.18,0-.36-.05-.46,0,.21,0,.41,0,.54,0-.21,0-.38,0-.2.08a.73.73,0,0,1-.25,0c.14,0,.06.13.3.16-.26,0,.07.17-.37.15.1,0,.34.1.36.15-.53-.1,0,.17-.61.13.48.07.21.23.47.34,0,0-.12,0-.09,0s-.19.08-.28.11a2.33,2.33,0,0,1,.72.18c-.38.06-.46-.06-.82,0,.32,0,.31.14.58.13a1.6,1.6,0,0,1-.44.06c.49,0,.08.06.38.11-.25.08-.46,0-.31.11A.53.53,0,0,1,234.67,3.56Zm.78,2.2h0l0,0Zm0,.18a.11.11,0,0,0,0-.08c.09,0,.19,0,.19,0S235.54,5.92,235.45,5.94Zm2-.32s0,0-.07,0a.33.33,0,0,1,0-.06h0Z"/><path class="cls-6" d="M237.05,5.55H237l.09,0Z"/><path class="cls-6" d="M236.19,22.08h0Z"/><polygon class="cls-6" points="234.84 8.45 234.91 8.45 234.85 8.44 234.84 8.45"/><path class="cls-6" d="M235.28,23.14l-.07,0Z"/><path class="cls-6" d="M235.27,23.6l-.1.07A.7.7,0,0,0,235.27,23.6Z"/><path class="cls-6" d="M235.17,24h0Z"/><path class="cls-6" d="M234.74,18.52h0S234.7,18.5,234.74,18.52Z"/><path class="cls-6" d="M235.35,20.12l-.13-.05S235.19,20.12,235.35,20.12Z"/><polygon class="cls-6" points="234.46 16.74 234.46 16.75 234.46 16.73 234.46 16.74"/><path class="cls-6" d="M235.23,20c-.06,0,0,.05,0,.07S235.27,20,235.23,20Z"/><path class="cls-6" d="M235.33,25.5v0h0Z"/><path class="cls-6" d="M235.37,25.51h0Z"/><path class="cls-6" d="M235.49,25.55l-.08,0S235.41,25.56,235.49,25.55Z"/><path class="cls-6" d="M235.35,25l-.1,0Z"/><path class="cls-6" d="M235.29,24.88s-.19.13-.12.16h.08C235.1,25,235.47,24.87,235.29,24.88Z"/><path class="cls-6" d="M236.43,24.1l-.06.12c.1,0,.24-.09.28,0C237,24,236.41,24.24,236.43,24.1Z"/><path class="cls-6" d="M236.54,23.74c.06.05.16,0,.22,0A.22.22,0,0,0,236.54,23.74Z"/><path class="cls-6" d="M236.4,21.3h.26S236.56,21.31,236.4,21.3Z"/><polygon class="cls-6" points="235.08 20.81 234.93 20.86 235.16 20.88 235.08 20.81"/><polygon class="cls-6" points="236.91 20.56 236.95 20.58 236.85 20.5 236.91 20.56"/><path class="cls-6" d="M236.94,16.33h-.32C236.68,16.36,237,16.38,236.94,16.33Z"/><path class="cls-6" d="M236.67,14.49c.16,0,.27-.07.11-.1S236.63,14.46,236.67,14.49Z"/><polygon class="cls-6" points="237.35 9.01 237.46 9.05 237.37 8.98 237.35 9.01"/><path class="cls-6" d="M269.09,18.81c.09,0,.28,0,.25,0l-.33,0Z"/><path class="cls-6" d="M269.72,18.68a3.77,3.77,0,0,0-.74-.1c.31.06.18.05.55.11,0,0-.11,0-.23,0,.09,0-.07,0,.13.07s.28-.06.07-.12Z"/><path class="cls-6" d="M270.38,16.24l0,0S270.38,16.25,270.38,16.24Z"/><path class="cls-6" d="M270.64,14.72l.07,0Z"/><path class="cls-6" d="M271,14.47h0S271,14.47,271,14.47Z"/><path class="cls-6" d="M270.38,16.24l.11,0C270.38,16.2,270.41,16.23,270.38,16.24Z"/><path class="cls-6" d="M268.94,18.29l.09,0s0,0,0,0Z"/><path class="cls-6" d="M270.62,16.94h0l.13,0Z"/><path class="cls-6" d="M270.64,17.46s-.27,0-.39-.05l.19,0Z"/><path class="cls-6" d="M270.09,18.25l0,0Z"/><path class="cls-6" d="M270.7,16.57h0Z"/><path class="cls-6" d="M268.51,2.14h0Z"/><polygon class="cls-6" points="269.86 1.45 269.88 1.46 270.04 1.45 269.86 1.45"/><path class="cls-6" d="M271.39,14h0S271.41,14,271.39,14Z"/><path class="cls-6" d="M271.25,9.56c-.25,0-.33-.08-.6,0A2,2,0,0,0,271.25,9.56Z"/><path class="cls-6" d="M269,18.28v0A0,0,0,0,0,269,18.28Z"/><path class="cls-6" d="M270.65,9.56h0Z"/><path class="cls-6" d="M271.25,12.88h0Z"/><path class="cls-6" d="M270.83,13.7l0,0Z"/><path class="cls-6" d="M270.86,12.44s.06,0,0,0h0S270.91,12.43,270.86,12.44Z"/><path class="cls-6" d="M270.87,12h-.06l0,0Z"/><path class="cls-6" d="M268.73,3.47l.25,0C268.78,3.45,268.7,3.39,268.73,3.47Z"/><path class="cls-6" d="M269.1,18.3l-.12,0h.12Z"/><path class="cls-6" d="M268.65,12.38l0-.07A.09.09,0,0,0,268.65,12.38Z"/><path class="cls-6" d="M268.9,6.61h0S268.86,6.61,268.9,6.61Z"/><path class="cls-6" d="M268.65,12.1l.2,0h-.07Z"/><path class="cls-6" d="M269,3.43Z"/><path class="cls-6" d="M268.29,3c0,.07.36,0,.57,0s-.27.06-.45.09c.1.05.44.07.43.1a.42.42,0,0,1-.16,0c.29,0,0,.16.39.2H269l.51,0s.23,0,0,.06c0,0-.09,0-.16,0l.1,0c-.34,0-.12,0-.38,0,.12,0,.41.11.32.16-.34,0-.13-.1-.42,0l.12-.08c-.53.09,0,0-.53,0-.1.1.18.1.08.2.19,0,.28,0,.47,0,.35.11-.85.15-.39.22.23,0,.66,0,.43.09h-.38c0,.1.55,0,.3.14s-.13-.07-.18,0c-.3.07.22,0,.22.08l-.33,0c.05.1.3.2.37.3a1.08,1.08,0,0,0-.31,0c.18.13,0,.29-.22.43l.29,0a.45.45,0,0,1-.19,0c-.11,0,.19,0,.3,0s-.16,0-.25,0c.25.08.54.24.23.35l-.08,0c-.12.08.6.06.33.14h-.05c-.12.17.15.34-.29.48.42,0-.18.16.41.15a1.82,1.82,0,0,0-.59.22s.37,0,.43.08h-.31l.33,0-.37,0,.08,0a.55.55,0,0,1,.23,0c.14.06-.21.16-.37.16l.26.15a.72.72,0,0,1-.24,0c.31.08-.33,0,0,.09H269c-.19,0-.19.13-.11.19h-.21c-.05.11.11.23.11.35a1.21,1.21,0,0,1,.5,0l-.33,0c.21,0,.13,0,.37,0,0,0-.37,0-.47,0l.11.06h-.27c.2,0-.33.1,0,.13h-.1c0,.13.11.18.13.28a1.85,1.85,0,0,1,.45.07c-.09.07-.31.16-.29.25s.24,0,.41,0c-.26,0-.23.09-.42.05.05.11.06.14.27.27a1,1,0,0,1,.23,0c.05,0-.1.06-.23.06h0c.38.15-.75.36-.21.48h0l.28.12c0,.06-.19,0-.35,0,.43.14-.06.22.22.33-.75.09.06.31-.42.42h.17c.18,0-.1,0-.14,0,.14,0,.16,0,.26,0,.21.26-.26.53-.43.79,0,.09.92.06.5.17l-.33,0c.39.19,0,.39.31.58-.07,0-.17,0-.17,0-.24,0,0,.15.18.15,0,0-.17,0-.27,0s.3.11.06.13l-.09,0c.11,0,0,.12.24.1-.13.07.12.13,0,.19.31,0-.15.12.28.14-.45,0-.36.11-.15.16-.14,0-.14,0-.33,0,0,0,.09.1.32.09-.55.09.43.2-.27.24a2.15,2.15,0,0,1,.51.44c-.45,0,0-.15-.52-.16.18.14.57.22.46.35s-.2,0-.27,0c.18.14-.05.25.19.37l-.12,0s-.07.05.13.05l-.05,0a3.37,3.37,0,0,1,.78.12c-.59-.06-.16.11-.9,0a.74.74,0,0,0,.28,0,.49.49,0,0,1-.28,0c.11.08.33.06.32.13a2.42,2.42,0,0,1-.25,0c.19,0,.38.09.3.15s-.14,0-.14,0,.51.2.32.31c-.43-.05-.15,0-.52,0l.11.07.18,0c0,.06.26.12.14.16l-.15-.05.06.11.15-.06c.19.07.47,0,.36.09s0,0-.23.07h0c.12,0,.25.07.15.11l-.49,0c.31,0,.08.14.41.19a2,2,0,0,0-.31,0l.25,0a.77.77,0,0,1-.28,0c-.05.08.48,0,.27.08l-.1,0c-.11.08.16.18,0,.26-.38,0-.09-.08-.41-.06.06.12.44.27.35.39l0,0c.53,0-.27.07,0,.14l-.24,0c-.09.07.13.17.29.3l-.14,0c-.12,0-.08.12-.14.17a.83.83,0,0,0,.31,0c-.78.12.4.33-.25.43l-.12,0,.12.13a1.39,1.39,0,0,0,.32,0c.13,0,.24.07.24.1a1.06,1.06,0,0,0-.5,0l.22,0c-.42,0,.46,0,.18.1h-.12c.06,0,.21.08.18.11-.27,0-.12,0-.34-.06,0,.05.5.13.23.16-.08,0-.08-.06-.15-.08-.31,0-.23,0-.29.07h0l-.15.07.09,0c.69.11.12.14.57.25-.43-.11-.25,0-.55-.06a.83.83,0,0,1-.27,0c.25,0-.19,0,.16.13-.1,0,0,0-.25,0,.07.05.17,0,.29,0,.33.1-.42.15,0,.29.18.11.51.15.67.25a1,1,0,0,1-.36-.05c-.14,0-.12.08,0,.13h-.27s.35.05.21.09-.28,0-.39-.07l.35.16a1.16,1.16,0,0,1-.37-.07.71.71,0,0,0,.42.18l.09,0s-.23,0-.28,0,.1-.06.2-.05l.06,0c.57,0-.08-.13-.05-.19l.42.05-.34-.09a1.2,1.2,0,0,1,.4,0c.21,0-.15-.05.09-.08h.07L270,18.2c.08,0,.29,0,.23,0,.24-.06-.3-.15,0-.16h0c-.13-.12-.31,0-.66-.14h.76l-.31,0s0,0,.16,0c-.2-.06-.13,0-.33,0,.29,0-.12-.16.37-.14-.23,0-.18,0-.34,0,.52,0-.08-.08.16-.11s.12.07.37,0c-.46-.06.1-.09,0-.14-.37,0-.15-.1-.27-.18.13,0,.21-.13.35-.19h.06c-.37,0-.29-.1-.37-.16a1.24,1.24,0,0,1,.4.07V17a.5.5,0,0,1-.22-.07l.27,0c0-.07-.31-.15-.13-.22a3.41,3.41,0,0,1-.88-.07,1.6,1.6,0,0,1,.43,0s-.11,0,0-.05l.23.05c.1,0-.19,0-.17-.06.2,0,.14,0,.3,0s-.09,0,0,0a.61.61,0,0,1,.31-.07,1.23,1.23,0,0,1-.29,0c0-.07.24,0,.34,0-.14,0,0-.06-.29-.08a1.1,1.1,0,0,1,.22,0c-.13,0,0-.16-.34-.14h0c-.28-.12.18-.21.06-.33h.1c-.11-.07-.06-.15-.27-.2a.59.59,0,0,1,.3,0c-.07-.06-.18-.07,0-.13s.16,0,.13.06.25-.07,0-.15c.25,0,.32,0,.24-.07l-.18,0s0-.07,0-.1l.33,0c.41-.12-.67-.27,0-.34-.23,0-.17.07-.44,0a5.37,5.37,0,0,1,.53-.12c.19-.07-.48-.09-.35-.17a1.46,1.46,0,0,1-.55-.07,1.21,1.21,0,0,1,.6,0s0,0-.07,0a.3.3,0,0,0,.22,0h-.12c.12,0,.11-.11.31-.09a.29.29,0,0,0-.26,0c.18-.07,0-.12.13-.2h-.21c.16-.11-.22-.06-.27-.14.18,0,.43,0,.28,0a.84.84,0,0,1,.42,0c-.23-.08.15-.13.19-.17l.1,0c-.06,0-.06,0-.05-.06h-.24a.16.16,0,0,1,.14,0c-.15,0-.4,0-.61,0,.13,0-.12-.1.19-.1-.11.09.32,0,.37.08s0,0,0,0h.09c.28-.08-.36-.05-.35-.15.18,0,.34,0,.3,0a1.17,1.17,0,0,1-.43,0c.14-.06-.1-.07-.08-.1l-.07,0a.27.27,0,0,1-.21-.09c.14,0,.1,0,.16,0-.31-.06.33-.09.12-.17.12,0,.33,0,.41,0-.22-.08.25-.07.06-.15a.81.81,0,0,1-.41,0l.16.13-.34-.09s.15.08.11.1a.79.79,0,0,0-.34,0c.36,0-.2-.1,0-.15h.59c.27-.08-.3-.16-.15-.28l-.1,0c-.23,0,0-.07-.13-.11a2.1,2.1,0,0,0,.4,0c-.15,0,0-.08-.38-.1l.26,0c.11-.09-.56-.12-.49-.21a2.46,2.46,0,0,1,.51.06s0-.06-.1-.06c.12,0-.26-.09-.08-.11-.08,0-.29,0-.27-.06h.1a1.37,1.37,0,0,0-.36,0c.62-.08,0-.25.49-.33a.61.61,0,0,1-.14-.2c.06,0,.1,0,.08,0,.19-.08-.57-.06-.36-.15s.17.05.29,0c.65,0-.08-.12.3-.18l0,0c.22,0-.25-.12-.2-.2h.1a.93.93,0,0,1-.53-.23,1.67,1.67,0,0,0,.39,0s-.42,0-.49-.06a2.53,2.53,0,0,1,.54-.07v.06c.36,0,0-.08.05-.11h.16c-.05-.1-.44-.1-.41-.21h-.12c-.39-.06.22,0-.07-.1l.39,0a1.82,1.82,0,0,1-.45-.2,3.15,3.15,0,0,1,.61.17s0-.13-.22-.15c0,0,.13,0,.07.05-.31,0-.46-.11-.45-.18.76,0,.19-.19.79-.25-.29-.13.12-.26.07-.41-.59,0,0-.05-.63,0,0,0,0,0,0,0l.37-.11c.18,0,.13,0,.27,0s.26,0,.42-.09c-.22,0-.31,0-.23-.07l-.28.06c-.33-.1.51-.09.19-.2l.19,0c-.11-.05,0-.21-.49-.26a.71.71,0,0,1,.29,0c.07-.14-.53-.3-.23-.41h.15s-.28,0-.13-.07h.16c-.05,0-.27-.06-.18-.1l.17,0c.19-.14-.41-.2-.52-.31a1,1,0,0,0,.66-.16h.06c.05-.16-.37-.26-.55-.4.48-.1.2-.3.46-.45a1.23,1.23,0,0,1-.39,0c.09,0-.3-.09.1-.09h0c.4,0,.29-.1.3-.16h-.53c.77-.16-.29-.36.4-.46-.14,0-.14-.07-.27-.1h.28c.07-.09.11-.14,0-.25h.2c0-.06-.82,0-.84-.11l.42,0c0-.12.36-.25,0-.35.06,0,.19,0,.2,0s.28-.22-.3-.18c.38,0,0-.12-.13-.17h.28c-.36,0-.46,0-.56-.11s.22,0,.15,0c.15-.06-.26,0-.12-.11l.18,0c0-.06-.08,0-.28-.07s.06-.12.31-.14c-.15,0-.36,0-.29-.06a.48.48,0,0,1,.19,0c.18-.11-.33-.14-.06-.21l.16,0c0,.07,0,.14,0,.13a3,3,0,0,1,.65,0c-.19,0-.62-.11-.5-.18h.12s0,0-.05,0,.08,0,.08,0c.21,0,.11-.08.12-.11a1.75,1.75,0,0,0-.47,0,0,0,0,0,1,.05,0h0l0,.08c-.15,0-.27,0-.12-.08l-.45,0c.39-.06.6-.16.84-.18a.82.82,0,0,0-.65-.26c-.07,0,.15,0,.24-.05s0,0,.12,0c-.14,0-.06-.16-.43-.16.16-.07.34,0,.27-.07h.12c.58-.22-1-.25-.22-.5l-.12,0c.32-.25-.34-.46.17-.73.1-.07-.13-.06-.31-.09l.3,0-.36,0c-.26-.08.73-.22.24-.31l-.2,0c0-.05-.13-.13.11-.14,0,0-.22,0-.11,0h.16l-.28-.09c.11-.09.63,0,.65-.16a1.75,1.75,0,0,0-.57-.07.53.53,0,0,1-.26.07l-.08,0a5,5,0,0,0-1.26.15l.29,0-.23,0V1.64c-.21.05,0,.06.1.07a1.34,1.34,0,0,0-.24.05l.45,0c-.18,0-.37,0-.46.05.2,0,.4-.06.54,0-.21,0-.38,0-.2.08a1,1,0,0,1-.25,0c.15,0,.07.09.32.09-.26,0,.07.11-.37.14a1,1,0,0,1,.37.07c-.53,0,0,.12-.59.14.48,0,.22.15.49.21,0,0-.11,0-.09,0s-.18.06-.26.1a3.26,3.26,0,0,1,.72.06,5.7,5.7,0,0,1-.82,0c.32,0,.32.07.59,0a2.72,2.72,0,0,1-.44.08c.49,0,.09,0,.39,0-.24.07-.46,0-.31.1A.7.7,0,0,1,268.29,3Zm.93,1.51h0l0,0Zm0,.13a.06.06,0,0,0,0-.06c.1,0,.2,0,.2,0S269.31,4.63,269.23,4.65Zm1.93-.37s0,0-.07,0l0,0h.11Z"/><path class="cls-6" d="M270.79,4.26h0l-.07,0h.09Z"/><path class="cls-6" d="M270.34,16.26Z"/><polygon class="cls-6" points="268.75 6.47 268.82 6.47 268.76 6.46 268.75 6.47"/><path class="cls-6" d="M269.34,16.93h0Z"/><path class="cls-6" d="M269.25,17.24l-.1,0Z"/><path class="cls-6" d="M269.1,17.47h0Z"/><path class="cls-6" d="M269,13.66h0C268.88,13.62,268.9,13.64,269,13.66Z"/><path class="cls-6" d="M269.56,14.81l-.13,0S269.4,14.81,269.56,14.81Z"/><polygon class="cls-6" points="268.64 12.39 268.65 12.39 268.65 12.38 268.64 12.39"/><path class="cls-6" d="M269.44,14.72c-.06,0-.05,0,0,0S269.48,14.74,269.44,14.72Z"/><path class="cls-6" d="M268.9,18.5h0Z"/><path class="cls-6" d="M268.94,18.51l0,0S269,18.52,268.94,18.51Z"/><path class="cls-6" d="M269,18.56l-.07,0S269,18.55,269,18.56Z"/><path class="cls-6" d="M269.05,18.19h0Z"/><path class="cls-6" d="M269,18.09s-.22,0-.16.08H269C268.8,18.15,269.2,18.13,269,18.09Z"/><path class="cls-6" d="M270.32,17.77l-.09.08c.11,0,.26,0,.28,0C270.84,17.79,270.27,17.88,270.32,17.77Z"/><path class="cls-6" d="M270.49,17.53c.05,0,.16,0,.22,0A.28.28,0,0,0,270.49,17.53Z"/><path class="cls-6" d="M270.59,15.7l.26,0S270.75,15.71,270.59,15.7Z"/><polygon class="cls-6" points="269.29 15.29 269.13 15.32 269.36 15.35 269.29 15.29"/><polygon class="cls-6" points="271.12 15.17 271.15 15.18 271.06 15.12 271.12 15.17"/><path class="cls-6" d="M271.12,12.08h-.32C270.86,12.11,271.21,12.12,271.12,12.08Z"/><path class="cls-6" d="M270.81,10.75c.16,0,.26-.05.11-.08S270.77,10.73,270.81,10.75Z"/><polygon class="cls-6" points="271.29 6.75 271.39 6.78 271.31 6.73 271.29 6.75"/><path class="cls-6" d="M251.21,15.62c.09,0,.28,0,.24,0l-.33,0Z"/><path class="cls-6" d="M251.82,15.5a3.65,3.65,0,0,0-.74-.05c.32,0,.18,0,.56.06,0,0-.11,0-.23,0,.09,0-.07,0,.14.05s.26-.06,0-.1Z"/><path class="cls-6" d="M252.36,13.56h0Z"/><path class="cls-6" d="M252.55,12.36h.07A.08.08,0,0,0,252.55,12.36Z"/><path class="cls-6" d="M252.92,12.15l0,0S252.94,12.16,252.92,12.15Z"/><path class="cls-6" d="M252.36,13.56l.1,0C252.36,13.52,252.38,13.54,252.36,13.56Z"/><path class="cls-6" d="M251,15.22l.09,0,0,0Z"/><path class="cls-6" d="M252.62,14.09h.14Z"/><path class="cls-6" d="M252.67,14.5a2.87,2.87,0,0,0-.39,0l.19,0Z"/><path class="cls-6" d="M252.17,15.14h0Z"/><path class="cls-6" d="M252.69,13.8h0Z"/><path class="cls-6" d="M250.68,2.39h0S250.68,2.38,250.68,2.39Z"/><path class="cls-6" d="M252.08,1.93h0Z"/><path class="cls-6" d="M253.28,11.78Z"/><path class="cls-6" d="M253.11,8.33c-.25,0-.32-.07-.6,0A3.86,3.86,0,0,0,253.11,8.33Z"/><path class="cls-6" d="M251.07,15.21s0,0,0,0S251.05,15.21,251.07,15.21Z"/><path class="cls-6" d="M252.51,8.32h0Z"/><path class="cls-6" d="M253.12,10.91h0Z"/><path class="cls-6" d="M252.72,11.55h0Z"/><path class="cls-6" d="M252.73,10.57s.06,0,0,0h0S252.77,10.56,252.73,10.57Z"/><path class="cls-6" d="M252.73,10.22h0Z"/><path class="cls-6" d="M250.81,3.45h.25C250.86,3.44,250.79,3.39,250.81,3.45Z"/><path class="cls-6" d="M251.19,15.22h0Z"/><path class="cls-6" d="M250.51,10.54l0-.06S250.51,10.52,250.51,10.54Z"/><path class="cls-6" d="M250.82,6h0S250.79,6,250.82,6Z"/><path class="cls-6" d="M250.51,10.32l.2,0h-.07Z"/><path class="cls-6" d="M251.06,3.44Z"/><path class="cls-6" d="M250.4,3.06c0,.06.36,0,.57,0s-.27,0-.46,0c.1,0,.44.08.42.11h-.16c.3,0,0,.13.38.18h.42s.23,0,0,.06c0,0-.09,0-.16,0l.1,0c-.35,0-.12,0-.38,0,.12,0,.4.11.3.15-.34,0-.11-.09-.41-.05l.13,0c-.54,0,0,0-.54,0-.1.07.18.08.08.16.18,0,.28,0,.46,0,.34.11-.85.08-.4.16.23,0,.66,0,.43.09l-.39,0c0,.07.56.05.3.12S251,4,250.9,4c-.3,0,.22,0,.22.08h-.34c.05.08.3.17.36.26a1.08,1.08,0,0,0-.31,0c.17.11,0,.23-.25.34l.3,0a.54.54,0,0,1-.19,0c-.12,0,.18,0,.3,0s-.17,0-.26,0c.25.08.53.21.22.29l-.09,0c-.12.06.6.07.33.13h-.05c-.13.12.14.27-.31.36.42,0-.19.13.4.14a2.28,2.28,0,0,0-.59.15s.36,0,.43.08h-.31l.32,0-.37,0,.08,0,.23,0c.14,0-.22.12-.38.12l.26.12-.24,0c.31.06-.33,0,0,.07a2.09,2.09,0,0,1,.25,0c-.19,0-.19.1-.11.15l-.22,0c0,.09.1.19.1.29a1.17,1.17,0,0,1,.5,0h-.32a2.43,2.43,0,0,1,.36,0,1.25,1.25,0,0,1-.47,0l.11,0h-.27c.2,0-.33.07,0,.1h-.1c0,.1.11.15.13.23a1.73,1.73,0,0,1,.44.06c-.09.06-.31.12-.28.19a1.59,1.59,0,0,0,.4,0c-.26,0-.23.07-.42,0,0,.08,0,.1.26.21a1,1,0,0,1,.24,0s-.11,0-.23,0h0c.38.13-.75.27-.21.38h0L251,8c-.05.05-.2,0-.35,0,.42.11-.07.16.22.26-.76.06.05.24-.44.33h.18c.18,0-.1,0-.14.05.14,0,.16,0,.25,0,.22.21-.26.42-.42.62s.92.06.49.15l-.33,0c.4.15,0,.31.32.46l-.17,0c-.24,0,0,.12.18.12,0,0-.18,0-.28,0s.31.08.07.09a.28.28,0,0,1-.1,0c.12,0,0,.09.25.08-.13,0,.12.11,0,.15.31,0-.15.09.29.11-.46,0-.37.09-.16.13a3,3,0,0,1-.33,0c0,.05.09.08.32.08-.54.07.44.15-.26.19a1.77,1.77,0,0,1,.51.35c-.45,0,0-.13-.51-.13.18.11.57.17.46.27s-.2,0-.28,0c.19.1,0,.2.21.29l-.13,0s-.06,0,.14,0l-.05,0a4.42,4.42,0,0,1,.78.09c-.59,0-.15.08-.9,0a1.2,1.2,0,0,0,.28,0,.79.79,0,0,1-.28,0c.11.06.33,0,.33.1l-.26,0c.19,0,.39.06.3.11H251c0,.09.51.15.32.24-.43,0-.14,0-.51,0l.11.05h.18s.27.08.14.12l-.15,0,.07.09.14-.05c.19.05.47,0,.37.06s0,0-.23.06h0c.12,0,.25.05.15.08h-.49c.31,0,.09.1.42.13h-.32l.26,0a1,1,0,0,1-.28,0c-.05.06.48,0,.27.05h-.1c-.1.07.16.14,0,.21-.38,0-.09-.06-.41,0,.07.09.45.2.36.29h0c.53,0-.26.06,0,.11h-.24c-.08.06.13.13.3.23h-.14c-.12,0-.07.1-.13.14a1.28,1.28,0,0,0,.31,0c-.78.12.41.25-.24.35l-.11,0,.12.1c.23,0,.14,0,.32,0s.24,0,.24.06a1.66,1.66,0,0,0-.5,0h.22c-.41,0,.47,0,.19.08h-.12c.06,0,.22,0,.19.08-.27,0-.13,0-.35,0,0,0,.51.08.24.11-.07,0-.07,0-.15-.06-.31,0-.23,0-.28.07h0l-.14.06h.09c.69.05.12.1.58.16a2.17,2.17,0,0,0-.55,0,1.26,1.26,0,0,1-.27,0c.25,0-.19.05.17.09-.1,0,0,0-.26,0,.08,0,.17,0,.29,0,.34.07-.4.14.05.24.19.07.52.09.68.16a1,1,0,0,1-.35,0c-.15,0-.12.07,0,.1h-.26s.35,0,.21.06l-.39,0c.08,0,.27.07.35.11a2.6,2.6,0,0,1-.36,0,.79.79,0,0,0,.42.12l.09,0s-.23,0-.28,0c-.21,0,.1-.05.2-.05l.06,0c.57,0-.09-.1-.06-.15l.42,0-.35-.06a1.7,1.7,0,0,1,.4,0c.21,0-.14,0,.09-.06h.07l-.13,0c.09,0,.3,0,.24,0,.24-.06-.31-.1,0-.13h0c-.14-.09-.31,0-.67-.08l.76,0h-.31s0,0,.16,0a1.88,1.88,0,0,0-.33,0c.28,0-.13-.12.36-.13-.23,0-.18,0-.34,0,.52,0-.09,0,.15-.09s.12.05.37,0c-.46,0,.1-.07,0-.11-.36,0-.15-.07-.27-.13.12,0,.2-.11.33-.16h.06c-.37,0-.3-.06-.37-.11a2.22,2.22,0,0,1,.4,0v0a.44.44,0,0,1-.22,0l.28,0c0-.05-.33-.11-.14-.17a4.25,4.25,0,0,1-.89,0,1.88,1.88,0,0,1,.43,0s-.11,0-.05,0l.23,0c.1,0-.19,0-.17,0,.2,0,.14,0,.3,0s-.08,0,0,0a.73.73,0,0,1,.31-.07,1.11,1.11,0,0,1-.3,0s.24,0,.34,0c-.13,0,0-.05-.29-.05,0,0,.14,0,.22,0-.13,0,0-.12-.35-.1h0c-.29-.08.17-.17,0-.25h.1c-.11-.05-.06-.12-.28-.15a.67.67,0,0,1,.3,0c-.07,0-.18,0,0-.1s.15,0,.13,0,.24-.06,0-.11c.25,0,.32,0,.24-.06l-.18,0s0,0,0-.07l.33,0c.41-.1-.68-.19,0-.27-.23,0-.16.06-.43,0a4.25,4.25,0,0,1,.52-.1c.19-.07-.48-.07-.36-.13a2,2,0,0,1-.54,0,1.42,1.42,0,0,1,.59,0s0,0-.07,0a.34.34,0,0,0,.22,0h-.11c.12,0,.11-.08.3-.07a.44.44,0,0,0-.26,0c.18-.06,0-.09.13-.15h-.21c.15-.09-.22,0-.27-.1.18,0,.43,0,.28-.05a1.39,1.39,0,0,1,.41,0c-.23-.06.15-.1.19-.13l.1,0c-.06,0-.06,0-.06,0l-.23,0a.19.19,0,0,1,.14,0c-.16,0-.4,0-.61,0,.12,0-.13-.07.19-.08-.11.07.31,0,.36.06s0,0,0-.05h.08c.28-.07-.35,0-.35-.11.18,0,.34,0,.3,0a1.1,1.1,0,0,1-.43,0c.14,0-.1-.05-.08-.08l-.07,0c-.18,0-.15,0-.21-.07.14,0,.1,0,.16,0-.32,0,.32-.07.11-.13.12,0,.33,0,.42,0-.23-.06.24-.06.05-.12a1.12,1.12,0,0,1-.41,0l.16.1-.34-.07s.15.07.11.08a1,1,0,0,0-.34,0c.36,0-.2-.08,0-.13H253c.26-.07-.3-.13-.15-.22l-.11,0c-.23,0,0,0-.12-.08a3.27,3.27,0,0,0,.39,0c-.15,0,0-.07-.38-.08l.26,0c.11-.07-.56-.08-.5-.15a2.45,2.45,0,0,1,.51,0s0,0-.1,0c.13,0-.26-.07-.07-.09-.09,0-.3,0-.28,0h.1a1.44,1.44,0,0,0-.35,0c.61-.07-.05-.2.48-.26-.06-.05-.13-.11-.14-.16s.1,0,.08,0c.18-.06-.57-.05-.36-.12s.17,0,.29,0c.65,0-.09-.09.29-.13h0c.22,0-.24-.09-.2-.15h.1a1.09,1.09,0,0,1-.53-.19,1.67,1.67,0,0,0,.39,0s-.41,0-.48,0a2.76,2.76,0,0,1,.53-.05l0,.05c.35,0,0-.07.05-.1h.15c-.05-.08-.44-.08-.41-.16h-.12c-.39,0,.22,0-.07-.08h.4a3.11,3.11,0,0,1-.46-.16,3.91,3.91,0,0,1,.62.14s0-.1-.23-.12c0,0,.14,0,.08,0-.31,0-.46-.09-.46-.15.77,0,.2-.15.79-.18-.28-.11.13-.21.08-.33-.59,0,0,0-.63,0,0,0,0,0,0,0l.37-.09c.18,0,.13,0,.27,0s.26,0,.42-.06c-.21,0-.31,0-.23-.06l-.28,0c-.32-.09.52-.07.19-.16l.2,0c-.12-.05,0-.17-.49-.22a1.24,1.24,0,0,1,.28,0c.08-.11-.52-.24-.21-.32h.15s-.28,0-.13-.06h.15c-.05,0-.26-.06-.17-.08l.17,0c.19-.1-.41-.16-.51-.25a1.17,1.17,0,0,0,.65-.12h.07c0-.12-.37-.21-.54-.32.48-.07.2-.24.47-.35a1.15,1.15,0,0,1-.38,0c.09,0-.31-.08.09-.07h0c.39,0,.29-.07.3-.11h-.53c.77-.11-.28-.29.41-.35-.13,0-.13-.06-.26-.09h.28c.08-.07.11-.11,0-.2l.21,0s-.82-.07-.84-.12h.43c0-.09.36-.18,0-.27l.2,0s.29-.16-.29-.15c.38,0,0-.09-.13-.14h.28a1.65,1.65,0,0,1-.55-.1s.22,0,.15,0c.15,0-.26,0-.11-.09l.17,0s-.07,0-.28-.07.07-.08.33-.09c-.16,0-.36,0-.29-.06h.18c.19-.07-.32-.11-.05-.16h.17c0,.06,0,.11,0,.1a4.64,4.64,0,0,1,.65,0c-.19,0-.61-.11-.49-.16h.12s0,0,0,0l.08,0c.21,0,.11-.06.12-.08a2.45,2.45,0,0,0-.47,0,0,0,0,0,1,0,0h0a.08.08,0,0,1,0,.06c-.14,0-.26,0-.1-.07l-.46,0c.39,0,.61-.09.85-.1a.87.87,0,0,0-.63-.23c-.07,0,.15,0,.23,0s.05,0,.12,0c-.13,0,0-.12-.42-.14.17,0,.34,0,.28,0h.12c.59-.14-.94-.24-.18-.4l-.13,0c.33-.18-.31-.38.22-.56.1-.05-.13-.06-.31-.09h.3l-.35-.06c-.25-.08.75-.12.26-.23l-.2,0s-.12-.12.12-.11c0,0-.22,0-.11,0h.16l-.27-.09c.11-.07.63,0,.66-.08a1.93,1.93,0,0,0-.57-.1s-.1,0-.25,0l-.09,0a6.33,6.33,0,0,0-1.26,0l.28.06-.23,0V2c-.21,0,0,0,.1.06l-.24,0,.44.06a2.32,2.32,0,0,0-.46,0,4.06,4.06,0,0,1,.54,0c-.21,0-.38,0-.2,0l-.25,0c.14,0,.06.07.31.09-.27,0,.06.1-.38.09a1.21,1.21,0,0,1,.37.08c-.53-.05,0,.09-.6.08.47,0,.21.12.47.19,0,0-.11,0-.09,0s-.18,0-.27.07a3.56,3.56,0,0,1,.72.09,7.36,7.36,0,0,1-.82,0c.31,0,.31.08.58.07l-.44,0c.49,0,.08,0,.38.06-.24,0-.46,0-.31.06A.9.9,0,0,1,250.4,3.06Zm.83,1.25h0l0,0Zm0,.1a.06.06,0,0,0,0,0,.39.39,0,0,1,.19,0A.81.81,0,0,0,251.24,4.41Zm1.95-.2s0,0-.08,0l0,0h.11Z"/><path class="cls-6" d="M252.82,4.18h0Z"/><path class="cls-6" d="M252.31,13.57h0Z"/><polygon class="cls-6" points="250.69 5.84 250.76 5.84 250.69 5.83 250.69 5.84"/><path class="cls-6" d="M251.34,14.13h0Z"/><path class="cls-6" d="M251.28,14.38l-.1,0Z"/><path class="cls-6" d="M251.14,14.57h0Z"/><path class="cls-6" d="M250.83,11.55a0,0,0,0,0,0,0S250.79,11.54,250.83,11.55Z"/><path class="cls-6" d="M251.48,12.45l-.13,0S251.32,12.45,251.48,12.45Z"/><polygon class="cls-6" points="250.51 10.54 250.51 10.54 250.51 10.54 250.51 10.54"/><path class="cls-6" d="M251.36,12.38c-.06,0-.05,0,0,0S251.4,12.4,251.36,12.38Z"/><path class="cls-6" d="M251,15.39h0Z"/><path class="cls-6" d="M251,15.4h0Z"/><path class="cls-6" d="M251.14,15.43l-.07,0S251.06,15.43,251.14,15.43Z"/><path class="cls-6" d="M251.13,15.14h0Z"/><path class="cls-6" d="M251.1,15.06s-.21,0-.15.07H251C250.88,15.12,251.28,15.08,251.1,15.06Z"/><path class="cls-6" d="M252.37,14.76l-.08.06c.1,0,.25,0,.28,0C252.89,14.75,252.32,14.84,252.37,14.76Z"/><path class="cls-6" d="M252.53,14.56c.05,0,.15,0,.22,0A.41.41,0,0,0,252.53,14.56Z"/><path class="cls-6" d="M252.54,13.13h.26S252.7,13.13,252.54,13.13Z"/><polygon class="cls-6" points="251.22 12.84 251.06 12.87 251.3 12.88 251.22 12.84"/><polygon class="cls-6" points="253.04 12.7 253.08 12.71 252.99 12.66 253.04 12.7"/><path class="cls-6" d="M253,10.29h-.32C252.72,10.31,253.07,10.32,253,10.29Z"/><path class="cls-6" d="M252.67,9.25c.15,0,.26,0,.1-.06S252.63,9.24,252.67,9.25Z"/><polygon class="cls-6" points="253.21 6.14 253.31 6.16 253.23 6.12 253.21 6.14"/><path class="cls-6" d="M289.62,19.9c.09,0,.28,0,.25,0l-.33,0Z"/><path class="cls-6" d="M290.25,19.79a3.65,3.65,0,0,0-.74-.11c.31.06.18.05.56.11,0,0-.11,0-.24,0,.09,0-.07,0,.14.07s.27-.05.06-.11A.78.78,0,0,1,290.25,19.79Z"/><path class="cls-6" d="M291,17.43h0Z"/><path class="cls-6" d="M291.28,16l.07,0Z"/><path class="cls-6" d="M291.67,15.74h0Z"/><path class="cls-6" d="M291,17.43l.11,0C291,17.39,291,17.41,291,17.43Z"/><path class="cls-6" d="M289.48,19.39l.09,0,0,0Z"/><path class="cls-6" d="M291.18,18.11h0l.13,0Z"/><path class="cls-6" d="M291.19,18.62s-.27,0-.39-.06a.51.51,0,0,1,.19.05Z"/><path class="cls-6" d="M290.63,19.37l0,0Z"/><path class="cls-6" d="M291.27,17.75h0Z"/><path class="cls-6" d="M290.39,3.49h0Z"/><path class="cls-6" d="M291.82,3H292Z"/><path class="cls-6" d="M292.06,15.3Z"/><path class="cls-6" d="M292.23,11c-.26,0-.32-.1-.6,0A2.2,2.2,0,0,0,292.23,11Z"/><path class="cls-6" d="M289.52,19.38v0S289.51,19.37,289.52,19.38Z"/><path class="cls-6" d="M291.63,11Z"/><path class="cls-6" d="M292,14.22h0Z"/><path class="cls-6" d="M291.52,15l0,0Z"/><path class="cls-6" d="M291.63,13.77s.06,0,0,0h0S291.68,13.76,291.63,13.77Z"/><path class="cls-6" d="M291.67,13.34h0Z"/><path class="cls-6" d="M290.41,4.81h.25C290.46,4.8,290.4,4.74,290.41,4.81Z"/><path class="cls-6" d="M289.64,19.4l-.12,0h.12Z"/><path class="cls-6" d="M289.42,13.56l.05-.07S289.42,13.53,289.42,13.56Z"/><path class="cls-6" d="M290.18,7.91l0,0S290.15,7.9,290.18,7.91Z"/><path class="cls-6" d="M289.45,13.29l.19,0h-.07Z"/><path class="cls-6" d="M290.66,4.82Z"/><path class="cls-6" d="M290,4.31c0,.06.36.06.57.09s-.28,0-.47,0c.09.06.43.13.41.16h-.16c.29.08,0,.15.37.25h-.1c.19,0,.38,0,.51,0s.23.07,0,.06l-.17,0,.11,0c-.35,0-.12,0-.38-.07.11.07.39.16.29.2-.34,0-.11-.12-.41-.08l.13-.06c-.53,0,0,0-.53,0-.11.08.16.12.06.2.18,0,.27,0,.46.06s-.86,0-.42.16c.23,0,.65.09.42.14l-.38,0c0,.08.55.1.28.17s-.12-.08-.17-.07c-.3,0,.22.06.21.11l-.34,0c.05.1.28.22.34.34a.82.82,0,0,0-.31,0c.15.15-.07.28-.28.4l.29.07a.43.43,0,0,1-.19,0c-.12,0,.18,0,.29.06s-.17,0-.25,0c.24.11.51.3.19.37l-.09,0c-.12.07.59.14.32.18h-.05c-.15.14.11.34-.34.43.41,0-.21.14.38.2a1.89,1.89,0,0,0-.61.14s.36.08.42.13l-.3,0,.31.09h-.37l.08,0a.73.73,0,0,1,.23,0c.13.07-.23.13-.39.12l.25.17A.68.68,0,0,1,290,8.1c.31.11-.33,0,0,.08l.24,0c-.19,0-.2.1-.12.17l-.22,0c-.06.1.09.24.07.36a1,1,0,0,1,.5,0h-.32c.2,0,.12,0,.36,0a1,1,0,0,1-.47,0l.11.07-.27,0c.2,0-.34.07,0,.13h-.1c0,.12.1.18.1.28a2,2,0,0,1,.44.11c-.09.07-.32.13-.3.22s.23,0,.4.08c-.26,0-.24.07-.42,0,0,.11,0,.14.23.29a1,1,0,0,1,.24,0s-.11,0-.23,0h0c.37.18-.77.28-.25.45h0l.27.15c-.05.05-.19-.05-.35,0,.41.17-.08.21.19.34-.76,0,0,.31-.46.38h.18c.17,0-.11,0-.15.05a1.12,1.12,0,0,1,.26,0c.19.27-.31.5-.49.74-.05.09.91.13.48.22l-.33-.07c.38.23,0,.39.28.61-.08,0-.18,0-.17-.05-.25,0,0,.15.17.16,0,0-.18,0-.28,0s.3.13.06.13a.24.24,0,0,1-.1,0c.11,0,0,.12.24.12-.14.06.11.14-.06.18.31.07-.16.11.28.16-.45,0-.38.09-.17.15-.13,0-.14,0-.33,0,0,0,.08.1.32.11-.55.05.41.22-.28.22a1.86,1.86,0,0,1,.47.46c-.45,0,0-.15-.5-.18.17.14.55.25.43.36s-.19,0-.27,0c.18.14-.06.24.18.38l-.12,0s-.07.05.13.06l0,0a3.29,3.29,0,0,1,.76.16c-.58-.09-.15.1-.89,0a.83.83,0,0,0,.27.06.7.7,0,0,1-.27,0c.1.09.32.08.31.15l-.25,0c.19,0,.38.1.29.16s-.14,0-.14,0,.5.22.31.32c-.43-.07-.15,0-.52,0l.1.07h.19c0,.05.25.12.13.16l-.15-.05.06.1.15,0c.18.07.47,0,.36.1s0,.05-.23.06h0c.12,0,.24.07.15.11s-.41-.05-.49-.05c.31.06.07.14.4.2l-.31,0,.25.05a.63.63,0,0,1-.28,0c-.05.07.48,0,.26.09l-.09,0c-.11.08.14.19,0,.26-.37,0-.08-.08-.4-.08.06.13.43.29.33.4l0,0c.53.06-.27.06,0,.14l-.24,0c-.09.07.12.17.28.31l-.14,0c-.12,0-.08.12-.15.16a.67.67,0,0,0,.31,0c-.78.09.39.34-.26.42,0,0-.12-.05-.12,0l.11.13a1.7,1.7,0,0,0,.33,0c.13,0,.23.07.23.1a1.07,1.07,0,0,0-.5,0l.22,0c-.41,0,.46.05.18.11l-.12,0c.06,0,.22.08.18.11-.27,0-.12,0-.34-.06,0,.05.5.14.23.16-.08,0-.08-.06-.15-.09-.31,0-.23,0-.29.07h0l-.15.07h.09c.69.12.11.13.56.25a1.84,1.84,0,0,0-.55-.07.58.58,0,0,1-.26,0c.24.06-.2.05.15.14-.1,0,0,0-.26,0,.08.05.17,0,.3,0,.32.11-.42.15,0,.3.18.11.51.15.67.25a1,1,0,0,1-.36,0c-.14,0-.12.07,0,.13a.8.8,0,0,0-.27,0s.35.05.2.09l-.38-.07c.08,0,.26.1.34.16a1.38,1.38,0,0,1-.36-.08.64.64,0,0,0,.41.18l.1,0a.78.78,0,0,1-.28,0c-.21-.06.1-.05.2-.05l0,0c.58,0-.08-.13,0-.19l.41.06-.33-.1a1.18,1.18,0,0,1,.4.05c.21,0-.15-.06.09-.07a.16.16,0,0,1,.07,0l-.12-.05c.08,0,.29,0,.23,0,.24-.06-.3-.16,0-.16h0c-.13-.12-.3,0-.65-.15h.75l-.3,0s0,0,.16,0a2.21,2.21,0,0,0-.33-.05c.28,0-.12-.16.37-.13-.23,0-.18,0-.34,0,.52,0-.08-.07.16-.1s.12.07.37,0c-.46-.07.1-.09,0-.13-.36,0-.14-.11-.26-.19.12,0,.21-.12.35-.17h.06c-.36-.05-.29-.11-.36-.16a1.31,1.31,0,0,1,.4.07v-.05a.5.5,0,0,1-.22-.07l.28,0c0-.06-.31-.15-.12-.21a3.23,3.23,0,0,1-.88-.1,3.42,3.42,0,0,1,.43.05s-.12,0-.06,0l.23,0c.11,0-.19,0-.17-.06.2,0,.15,0,.3,0s-.08,0,0,0a.63.63,0,0,1,.31-.06.9.9,0,0,1-.29,0c0-.07.24,0,.35,0-.14,0,0-.06-.29-.08,0,0,.14,0,.22,0-.12-.05,0-.15-.34-.15h0c-.28-.13.19-.2.07-.31h.1c-.11-.08-.06-.15-.27-.21a.66.66,0,0,1,.3,0c-.07-.05-.18-.07,0-.12s.16,0,.12.06.25-.06,0-.15c.25.05.32,0,.25-.05l-.19,0s0-.07,0-.09l.33,0c.41-.09-.67-.29,0-.32-.23-.06-.17.05-.44,0,.05-.06.53-.08.53-.09.19-.07-.48-.12-.34-.19a1.39,1.39,0,0,1-.54-.09,1.2,1.2,0,0,1,.59,0s0,0-.07,0a.35.35,0,0,0,.22,0l-.12,0c.13,0,.12-.1.31-.06a.28.28,0,0,0-.25,0c.17-.06,0-.12.13-.18h-.2c.15-.1-.22-.07-.27-.15.19,0,.43.06.29,0a.8.8,0,0,1,.41,0c-.22-.09.16-.12.2-.15l.1,0c-.06,0-.06,0-.05-.06h-.24a.16.16,0,0,1,.14,0,5.57,5.57,0,0,1-.6-.08c.12,0-.12-.1.19-.08-.11.08.32,0,.36.1s0,0,0-.05a.09.09,0,0,1,.08,0c.29-.06-.35-.07-.33-.16s.34,0,.3,0-.3,0-.43-.05c.14-.05-.1-.07-.08-.1l-.07,0c-.17,0-.15-.06-.2-.1.14,0,.09,0,.16,0-.31-.07.33-.07.12-.15.12,0,.33,0,.42,0-.23-.09.25-.05.06-.14a.73.73,0,0,1-.41-.07l.16.14-.34-.11s.15.09.1.11a.74.74,0,0,0-.33-.05c.36,0-.2-.11.05-.15l.59.05c.27-.06-.29-.17-.13-.27l-.11,0c-.23,0,0-.07-.12-.11a2.62,2.62,0,0,0,.4,0c-.15,0,0-.09-.38-.13l.27,0c.11-.08-.55-.15-.48-.23a2.82,2.82,0,0,1,.5.09s.05-.05-.09-.07c.12,0-.26-.1-.07-.11-.09,0-.29,0-.27-.07h.1a1,1,0,0,0-.35-.06c.62,0,0-.25.51-.28a.55.55,0,0,1-.13-.21c.06,0,.1,0,.08,0,.19-.07-.56-.1-.35-.17s.17.06.29,0c.65,0-.08-.12.3-.14h0c.23,0-.23-.13-.18-.2h.1a.9.9,0,0,1-.51-.27,1.65,1.65,0,0,0,.38.05s-.41,0-.48-.1a2.78,2.78,0,0,1,.55,0v.06c.36,0,0-.08.06-.11l.16,0c0-.1-.43-.14-.4-.24h-.12c-.38-.09.23,0-.06-.11h.4a2.3,2.3,0,0,1-.44-.23,2.65,2.65,0,0,1,.6.22s0-.13-.21-.17c0,0,.13,0,.07.06-.31-.07-.45-.14-.44-.22.76.08.21-.17.8-.17-.27-.15.15-.24.11-.39-.59,0,0,0-.62-.09,0,0,0,0,0,0l.37-.08c.18,0,.13,0,.27.06s.26,0,.42,0c-.21,0-.31-.05-.22-.09l-.28,0c-.32-.14.51-.05.2-.18l.19.05c-.11-.07,0-.21-.46-.3a.82.82,0,0,1,.28,0c.08-.12-.5-.33-.19-.41l.15,0s-.27-.06-.12-.08a.48.48,0,0,0,.16,0s-.26-.09-.17-.11l.17,0c.2-.11-.4-.23-.49-.35a1.05,1.05,0,0,0,.67-.09h.06c.07-.15-.34-.29-.5-.44.48,0,.22-.27.5-.39a.89.89,0,0,1-.38-.06c.09,0-.3-.12.1-.08v0c.4,0,.3-.07.32-.12l-.53-.05c.78-.07-.25-.38.44-.4-.13,0-.12-.08-.25-.13l.28,0c.08-.09.12-.13.06-.25l.2,0c0-.06-.8-.15-.82-.21l.43,0c0-.11.38-.19,0-.33a.77.77,0,0,1,.2,0S293,7,292.41,7c.37,0,0-.11-.12-.18l.28,0c-.35-.08-.45-.09-.54-.17s.22,0,.15,0c.15,0-.26-.06-.1-.12l.17,0c0-.05-.07-.05-.27-.1s.08-.11.33-.09c-.15,0-.35-.07-.28-.1a.48.48,0,0,1,.18,0c.2-.08-.31-.17,0-.21h.17c0,.08,0,.14-.06.13a2.66,2.66,0,0,1,.66,0c-.19-.06-.6-.18-.48-.23h.12s0,0,0,0,.08,0,.08,0c.22,0,.12-.06.14-.09a2.07,2.07,0,0,0-.47,0s0,0,0,0l0,0h0s0,0,0,.08-.26-.07-.1-.09l-.45-.08c.4,0,.61-.07.86-.06a.84.84,0,0,0-.61-.34c-.07,0,.15,0,.24,0s0,0,.11.06c-.13-.07,0-.17-.4-.21.17,0,.33.07.28,0l.11,0c.61-.13-.91-.37-.14-.51a.28.28,0,0,1-.13,0c.35-.19-.27-.49.28-.67.11-.06-.13-.08-.3-.14h.3l-.34-.09c-.25-.12.75-.1.28-.26h-.2s-.11-.14.12-.12c0,0-.21,0-.1,0l.16,0-.26-.13c.12-.07.62.06.66,0a1.6,1.6,0,0,0-.55-.16s-.11,0-.26,0l-.08,0a4.69,4.69,0,0,0-1.27,0l.28.09h-.23V3c-.21,0,0,.05.1.08h-.25l.44.11a2.09,2.09,0,0,0-.47,0,4.84,4.84,0,0,1,.54.07c-.21,0-.38,0-.2,0a1,1,0,0,1-.25,0c.14,0,.05.09.3.13-.27,0,.05.13-.38.09a1.16,1.16,0,0,1,.35.12c-.52-.1,0,.12-.6,0,.47.09.19.18.45.28l-.09,0s-.18,0-.28.06a3.07,3.07,0,0,1,.71.17,5.28,5.28,0,0,1-.81-.09c.31,0,.3.12.57.13a2,2,0,0,1-.44,0c.48,0,.08,0,.37.11-.24,0-.46,0-.31.05A.73.73,0,0,1,290,4.31Zm.71,1.59h0v0Zm0,.13s0,0,0,0,.2,0,.19,0A.86.86,0,0,0,290.74,6Zm2-.1s0,0-.08,0l0,0h0Z"/><path class="cls-6" d="M292.34,5.86h0Z"/><path class="cls-6" d="M290.92,17.44h0Z"/><polygon class="cls-6" points="290.05 7.76 290.13 7.76 290.06 7.75 290.05 7.76"/><path class="cls-6" d="M289.9,18.07h0Z"/><path class="cls-6" d="M289.81,18.37l-.1,0Z"/><path class="cls-6" d="M289.65,18.59h0Z"/><path class="cls-6" d="M289.65,14.83h0Z"/><path class="cls-6" d="M290.2,16l-.12-.05S290.05,16,290.2,16Z"/><polygon class="cls-6" points="289.42 13.56 289.42 13.57 289.42 13.56 289.42 13.56"/><path class="cls-6" d="M290.08,15.9c-.05,0,0,0,0,0S290.13,15.92,290.08,15.9Z"/><path class="cls-6" d="M289.44,19.59h0Z"/><path class="cls-6" d="M289.47,19.61l0,0S289.5,19.61,289.47,19.61Z"/><path class="cls-6" d="M289.57,19.66l-.07,0S289.49,19.65,289.57,19.66Z"/><path class="cls-6" d="M289.59,19.3l-.1,0Z"/><path class="cls-6" d="M289.57,19.2s-.22,0-.16.07h.08C289.34,19.26,289.74,19.23,289.57,19.2Z"/><path class="cls-6" d="M290.86,18.91l-.09.08c.11,0,.26,0,.28,0C291.39,18.94,290.81,19,290.86,18.91Z"/><path class="cls-6" d="M291,18.68c0,.05.16,0,.22,0A.34.34,0,0,0,291,18.68Z"/><path class="cls-6" d="M291.19,16.91l.26,0S291.35,16.93,291.19,16.91Z"/><polygon class="cls-6" points="289.91 16.46 289.75 16.48 289.98 16.51 289.91 16.46"/><polygon class="cls-6" points="291.74 16.42 291.77 16.43 291.69 16.37 291.74 16.42"/><path class="cls-6" d="M291.91,13.43h-.32C291.65,13.44,292,13.48,291.91,13.43Z"/><path class="cls-6" d="M291.7,12.12c.16,0,.26,0,.11-.06S291.66,12.1,291.7,12.12Z"/><polygon class="cls-6" points="292.54 8.31 292.64 8.35 292.56 8.29 292.54 8.31"/><path class="cls-6" d="M311.78,21.93c.07,0,.26.1.23.06l-.3-.13Z"/><path class="cls-6" d="M312.41,22a3.38,3.38,0,0,0-.68-.32c.29.15.16.11.5.27,0,0-.11,0-.22,0,.07,0-.09,0,.1.1s.28,0,.1-.09A.7.7,0,0,1,312.41,22Z"/><path class="cls-6" d="M313.8,19.81h0Z"/><path class="cls-6" d="M314.51,18.41l.06,0A.07.07,0,0,0,314.51,18.41Z"/><path class="cls-6" d="M315,18.28h0S315,18.29,315,18.28Z"/><path class="cls-6" d="M313.8,19.81h.11C313.81,19.77,313.83,19.8,313.8,19.81Z"/><path class="cls-6" d="M311.79,21.37a.18.18,0,0,0,.08.06s0,0,0,0Z"/><path class="cls-6" d="M313.8,20.56h0l.12.06Z"/><path class="cls-6" d="M313.66,21.07a2.36,2.36,0,0,0-.36-.16l.17.09Z"/><path class="cls-6" d="M312.9,21.68l0,0Z"/><path class="cls-6" d="M314,20.22l.09,0Z"/><path class="cls-6" d="M316.63,5.54h0Z"/><polygon class="cls-6" points="318.14 5.33 318.15 5.34 318.3 5.39 318.14 5.33"/><path class="cls-6" d="M315.45,17.94h0S315.47,18,315.45,17.94Z"/><path class="cls-6" d="M316.74,13.61c-.26,0-.28-.19-.57-.2A2.22,2.22,0,0,0,316.74,13.61Z"/><path class="cls-6" d="M311.83,21.38a0,0,0,0,1,0,0S311.82,21.37,311.83,21.38Z"/><path class="cls-6" d="M316.17,13.41h0Z"/><path class="cls-6" d="M315.67,16.82l-.12,0Z"/><path class="cls-6" d="M315,17.48h0Z"/><path class="cls-6" d="M315.45,16.27s.06,0,0,0h0S315.49,16.27,315.45,16.27Z"/><path class="cls-6" d="M315.59,15.84h0v0Z"/><path class="cls-6" d="M316.38,6.89l.25.05C316.43,6.89,316.38,6.81,316.38,6.89Z"/><path class="cls-6" d="M311.94,21.43l-.11-.05v0Z"/><path class="cls-6" d="M313.36,15.52l.06,0A.1.1,0,0,0,313.36,15.52Z"/><path class="cls-6" d="M315.48,10l0,0Z"/><path class="cls-6" d="M313.45,15.25l.2,0-.07,0Z"/><path class="cls-6" d="M316.63,6.94Z"/><path class="cls-6" d="M316.12,6.3c0,.07.34.13.54.21s-.27,0-.46-.07c.08.08.39.21.37.24l-.16,0c.27.13,0,.16.31.32l-.09,0c.18,0,.36.1.49.14s.21.12,0,.06c0,0-.08,0-.15-.08l.09.06c-.34-.07-.1-.07-.35-.14.09.09.35.24.24.26-.33-.09-.08-.14-.38-.17l.14,0c-.53-.1.05,0-.51-.15-.13.07.13.16,0,.22.17.08.27.08.44.15.29.23-.85-.14-.44.09.21.09.62.22.38.22l-.36-.13c-.07.08.51.21.23.23s-.1-.11-.14-.11c-.31,0,.19.11.18.16l-.33-.09c0,.11.22.29.25.41a1.32,1.32,0,0,0-.3-.09c.13.19-.12.28-.35.35l.26.13a.37.37,0,0,1-.18,0c-.12,0,.17,0,.28.11s-.18,0-.25-.05c.21.16.43.41.1.41l-.08,0c-.13,0,.55.26.27.25l0,0c-.17.12,0,.38-.43.37.39.15-.23.1.33.28a2.11,2.11,0,0,0-.63,0s.34.16.38.22l-.29-.09.29.15-.36-.08.06.07a.56.56,0,0,1,.23,0c.11.11-.25.09-.41,0l.21.23a.86.86,0,0,1-.22-.12c.27.17-.32-.09-.06.07a1.55,1.55,0,0,1,.23.08c-.19,0-.22.06-.16.14l-.2-.07c-.09.09,0,.26,0,.38a.91.91,0,0,1,.48.15l-.31-.08c.18.08.12,0,.34.12a1,1,0,0,1-.45-.14l.09.09-.26-.1c.19.09-.34,0,0,.14l-.1,0c0,.12.05.21,0,.31.26.09.19.11.4.21-.11,0-.35.06-.35.15s.22.09.37.17c-.25-.07-.25,0-.41-.08,0,.11,0,.15.16.34a.77.77,0,0,1,.23.06s-.12,0-.24,0h0c.32.27-.82.11-.35.39h0l.22.21c-.06,0-.17-.1-.34-.1.37.26-.12.19.11.38-.75-.15-.05.32-.54.28l.17.05c.15.08-.11,0-.16,0,.13,0,.16,0,.25.07.12.32-.42.43-.66.63-.07.08.86.35.41.33l-.3-.14c.31.31-.14.38.11.67-.06,0-.16-.07-.15-.09-.24,0-.06.14.12.21,0,0-.17-.05-.27-.07s.26.2,0,.14a.36.36,0,0,1-.09-.05c.1.06-.07.11.2.18-.15,0,.07.17-.1.17.28.14-.18.07.23.22-.43-.15-.39,0-.2.12-.13-.06-.15,0-.32-.09,0,.05.05.12.27.19-.54-.09.35.33-.33.15a1.85,1.85,0,0,1,.34.59c-.42-.16,0-.17-.44-.32.13.19.47.39.33.48s-.18-.08-.25-.12c.13.19-.13.23.07.42a.39.39,0,0,1-.11-.06s-.08,0,.11.09l0,0a3.7,3.7,0,0,1,.7.36c-.54-.24-.18.06-.86-.25a1.46,1.46,0,0,0,.25.12.41.41,0,0,1-.26-.09c.07.12.29.16.26.23a1.2,1.2,0,0,1-.23-.11c.17.11.33.21.23.24s-.13,0-.12-.06.42.35.2.4c-.39-.18-.14,0-.5-.13l.09.1.18,0s.21.19.08.19l-.13-.09,0,.12h.15c.16.12.45.15.32.19s0,0-.24,0h0c.1.07.21.14.11.15s-.39-.15-.46-.17c.28.13,0,.15.33.3a2,2,0,0,0-.29-.12l.23.11a.59.59,0,0,1-.27-.07c-.07.06.45.14.23.16l-.08-.05c-.14.05.08.22-.06.26-.36-.1-.06-.1-.37-.18,0,.14.33.4.21.48h0c.49.2-.27,0-.06.14a1.44,1.44,0,0,0-.22-.1c-.1.05.07.21.18.38l-.12-.06c-.13,0-.11.1-.19.13a.81.81,0,0,0,.28.13c-.78-.12.28.44-.37.35,0,0-.1-.08-.11-.07l.08.16a1.63,1.63,0,0,0,.31.07c.12.06.21.14.2.16a1.08,1.08,0,0,0-.48-.15l.21.08c-.41-.09.43.17.14.16l-.11-.05c0,.05.18.14.14.16-.26-.08-.11-.08-.31-.16,0,.05.44.28.17.22-.06,0-.05-.07-.11-.12-.31-.07-.24,0-.3,0h0l-.16,0h.08c.63.31.08.17.47.41-.37-.23-.23-.1-.51-.22a.8.8,0,0,1-.26-.05c.22.12-.2,0,.11.17-.09,0,0,0-.25-.06.06.08.16.05.28.1.28.19-.45,0-.06.3.14.16.44.3.56.44a.92.92,0,0,1-.32-.15c-.16,0-.15,0-.06.12a.82.82,0,0,0-.25-.08s.32.15.17.14l-.35-.17c.06.07.22.18.28.25a1.32,1.32,0,0,1-.32-.17.64.64,0,0,0,.33.29h.11a.86.86,0,0,1-.26-.11c-.18-.12.11,0,.2,0l.05.05c.54.18,0-.16,0-.2l.38.17-.3-.19a1.12,1.12,0,0,1,.38.16c.2,0-.13-.1.1-.05l.07,0-.1-.09c.08,0,.28.1.21.1.25,0-.24-.23.06-.15l0,0c-.09-.16-.28-.13-.58-.33l.72.21-.28-.12s.05,0,.16,0c-.18-.12-.13,0-.3-.14.28.05-.07-.19.39,0-.21-.1-.18,0-.31-.13.49.17-.06-.09.18-.06s.1.11.34.15c-.41-.2.13-.06.06-.14-.33-.13-.1-.14-.19-.25.11.05.24-.06.38-.08l.06,0c-.34-.14-.25-.18-.3-.26a1.45,1.45,0,0,1,.36.18l0,0a.46.46,0,0,1-.19-.13l.26.1c0-.06-.26-.23-.06-.25A3,3,0,0,1,313,20a2.37,2.37,0,0,1,.4.17s-.1-.07,0-.06l.21.12c.11,0-.18-.09-.15-.11.19.07.14,0,.29.09s-.09,0,0,0a.61.61,0,0,1,.32,0,.77.77,0,0,1-.27-.12c0-.07.23.06.34.06-.12-.06,0-.05-.25-.16a1,1,0,0,1,.21.05c-.11-.08,0-.16-.28-.23h0c-.23-.21.24-.16.16-.3l.09,0c-.08-.1,0-.16-.19-.28a.79.79,0,0,1,.29.07c-.05-.07-.15-.11,0-.12s.15,0,.1.09c.1,0,.25,0,0-.15.23.11.32.06.26,0l-.19,0c0-.05,0-.07,0-.09l.31.13c.42,0-.56-.46.11-.32-.21-.12-.18,0-.43-.12a3.69,3.69,0,0,1,.54.05c.21,0-.43-.24-.28-.28a1.42,1.42,0,0,1-.5-.23,1.14,1.14,0,0,1,.57.17s0,0-.07,0a.33.33,0,0,0,.2.09l-.1,0c.12,0,.14-.07.31,0a.27.27,0,0,0-.24-.07c.19,0,0-.12.18-.15a.68.68,0,0,1-.2-.06c.18-.06-.19-.13-.21-.22.18,0,.4.16.28,0a.91.91,0,0,1,.39.15c-.19-.14.19-.07.24-.1l.08.07c-.05,0,0-.06,0-.08l-.23-.06a.24.24,0,0,1,.14,0c-.14-.07-.37-.12-.56-.23.13,0-.09-.13.21,0-.13.06.3.1.32.2s0-.05,0-.06l.07,0c.3,0-.32-.16-.28-.25.16.07.32.1.29.07s-.28-.08-.4-.16c.15,0-.07-.1-.05-.12h-.07c-.16-.07-.13-.09-.17-.15.13,0,.08.07.14.07-.28-.15.34,0,.17-.12.12,0,.31.11.4.11-.2-.15.25,0,.1-.13a.86.86,0,0,1-.38-.16l.12.17-.3-.19s.11.12.06.13a.67.67,0,0,0-.3-.13c.35.08-.17-.16.08-.14l.56.2c.28,0-.23-.25-.05-.31h-.11c-.22-.1,0-.08-.09-.15a2.42,2.42,0,0,0,.38.1c-.13-.05.05-.08-.32-.22l.26,0c.13-.05-.49-.29-.4-.35.19.1.34.1.46.21s.06,0-.07-.08c.12,0-.22-.17,0-.14-.07,0-.27-.11-.24-.14l.09,0A.81.81,0,0,0,315,16c.61.11,0-.27.57-.17a.49.49,0,0,1-.07-.24l.07,0c.2,0-.52-.23-.29-.25s.14.1.27.11c.61.2,0-.14.33-.07l0,0c.23,0-.19-.19-.12-.25l.09,0a.91.91,0,0,1-.43-.39,1.49,1.49,0,0,0,.37.14s-.4-.12-.44-.21a2.69,2.69,0,0,1,.53.1v.07c.35.08,0-.09.09-.1l.14,0c0-.11-.38-.23-.32-.33l-.12,0c-.35-.18.22,0,0-.13l.38.11a2,2,0,0,1-.37-.34,3.16,3.16,0,0,1,.53.36s0-.13-.16-.21c0,0,.11.07.05.07-.28-.14-.4-.25-.37-.32.72.26.25-.13.83,0-.23-.22.19-.22.2-.38-.58-.14,0,0-.58-.23,0-.05,0-.06,0-.05h.39c.17,0,.11.07.24.11s.26.05.43.05c-.21-.05-.29-.12-.19-.14l-.29,0c-.28-.2.52.07.25-.13l.17.09c-.09-.09.07-.2-.38-.41a.72.72,0,0,1,.27.09c.11-.11-.4-.46-.08-.47l.14.06s-.26-.13-.1-.11a.37.37,0,0,0,.15,0c-.05,0-.23-.14-.14-.15l.15.08c.23-.07-.32-.32-.39-.46a1,1,0,0,0,.68.05l.06,0c.1-.13-.27-.37-.39-.56.48.06.28-.23.58-.29a1,1,0,0,1-.36-.14c.1,0-.26-.18.12-.06h0c.39.1.31,0,.34-.05l-.51-.17c.78.1-.15-.44.53-.31-.12-.07-.1-.11-.22-.18l.27.08c.1-.07.15-.1.12-.24l.18.09c0-.06-.75-.33-.75-.39l.41.11c0-.12.42-.12.08-.34a.71.71,0,0,1,.19.08c0-.05.34-.12-.23-.27.37.11.08-.1-.07-.21l.27.09c-.33-.16-.42-.19-.49-.29s.22,0,.14.06c.16,0-.24-.12-.08-.15l.17.08c0-.05-.06-.08-.25-.17s.1-.09.35,0c-.15,0-.33-.15-.25-.16a.47.47,0,0,1,.17.07c.21,0-.27-.24,0-.23l.16,0c0,.08-.06.13-.08.12a3.19,3.19,0,0,1,.64.18c-.17-.11-.55-.31-.42-.34l.09,0h0s0,0,0-.05.08,0,.09,0c.2.06.13,0,.15-.06A2.06,2.06,0,0,0,318,8.3s0,0,0,0l0,0h0s0,.05,0,.08-.24-.13-.08-.12l-.42-.17c.39.07.62,0,.85.11-.12-.14,0-.25-.52-.46-.06,0,.15,0,.24,0s0,0,.1.08c-.12-.09,0-.17-.35-.29.18,0,.31.13.28,0l.1,0c.62,0-.81-.57,0-.55a.32.32,0,0,1-.13,0c.39-.13-.16-.56.41-.64.12,0-.1-.11-.26-.2l.29.07-.31-.16c-.22-.17.76,0,.33-.22l-.2,0s-.08-.17.15-.1c0,0-.2-.07-.1-.06l.16,0-.23-.18c.13,0,.59.19.66.07a1.64,1.64,0,0,0-.51-.26.49.49,0,0,1-.26,0l-.07-.07a4.78,4.78,0,0,0-1.24-.28l.25.15-.22,0V5.11c-.21,0,0,0,.08.1l-.25,0,.41.19a2.06,2.06,0,0,0-.45-.11c.19.09.41.08.52.17-.21,0-.37-.08-.21,0a.93.93,0,0,1-.24-.08c.13.07,0,.1.27.19-.26,0,0,.14-.39,0a1,1,0,0,1,.32.2c-.49-.21-.06.11-.6-.06.44.17.16.21.39.36,0,0-.11,0-.08,0s-.2,0-.29,0a3.47,3.47,0,0,1,.66.31,5.93,5.93,0,0,1-.78-.24c.3.09.27.18.53.23a1.6,1.6,0,0,1-.43-.06c.47.14.07.06.34.18-.24,0-.44-.12-.32,0A.68.68,0,0,1,316.12,6.3Zm.36,1.77h0v0Zm0,.13,0,0c.09,0,.18,0,.17.07A.41.41,0,0,0,316.45,8.2Zm1.95.29s0,0-.08,0a.13.13,0,0,0,0-.05h0Z"/><path class="cls-6" d="M318.05,8.34H318l.08,0Z"/><path class="cls-6" d="M313.75,19.82Z"/><polygon class="cls-6" points="315.39 9.81 315.46 9.83 315.4 9.8 315.39 9.81"/><path class="cls-6" d="M312.58,20.17l-.07,0Z"/><path class="cls-6" d="M312.41,20.44h0Z"/><path class="cls-6" d="M312.19,20.62l.11.05h0Z"/><path class="cls-6" d="M313.24,16.86v0S313.2,16.83,313.24,16.86Z"/><path class="cls-6" d="M313.46,18.17l-.11-.08S313.31,18.12,313.46,18.17Z"/><polygon class="cls-6" points="313.35 15.53 313.36 15.53 313.36 15.52 313.35 15.53"/><path class="cls-6" d="M313.37,18c-.06,0-.05,0,0,.05S313.41,18.07,313.37,18Z"/><path class="cls-6" d="M311.69,21.57h0Z"/><path class="cls-6" d="M311.72,21.59l0,0S311.74,21.61,311.72,21.59Z"/><path class="cls-6" d="M311.8,21.67l-.06-.05S311.73,21.63,311.8,21.67Z"/><path class="cls-6" d="M311.93,21.31l-.1,0Z"/><path class="cls-6" d="M311.94,21.21s-.23,0-.18,0l.07,0C311.7,21.2,312.09,21.29,311.94,21.21Z"/><path class="cls-6" d="M313.26,21.28l-.1,0c.1,0,.25.06.26.1C313.76,21.45,313.18,21.37,313.26,21.28Z"/><path class="cls-6" d="M313.5,21.1c0,.06.15,0,.2.08A.23.23,0,0,0,313.5,21.1Z"/><path class="cls-6" d="M314.16,19.35l.24.09S314.31,19.41,314.16,19.35Z"/><polygon class="cls-6" points="313.05 18.56 312.88 18.53 313.1 18.63 313.05 18.56"/><polygon class="cls-6" points="314.83 18.99 314.86 19.02 314.79 18.93 314.83 18.99"/><path class="cls-6" d="M315.8,16l-.3-.09C315.55,16,315.88,16.07,315.8,16Z"/><path class="cls-6" d="M315.94,14.61c.15,0,.26,0,.12,0S315.91,14.58,315.94,14.61Z"/><polygon class="cls-6" points="317.69 10.91 317.79 10.96 317.72 10.89 317.69 10.91"/><path class="cls-6" d="M332.68,29.46c.07,0,.26.11.23.07l-.3-.14Z"/><path class="cls-6" d="M333.31,29.51a2.3,2.3,0,0,0-.68-.31c.29.14.16.1.5.26,0,0-.11,0-.22,0,.07,0-.09,0,.1.1s.28,0,.1-.1A.6.6,0,0,1,333.31,29.51Z"/><path class="cls-6" d="M334.74,27.13h0S334.74,27.14,334.74,27.13Z"/><path class="cls-6" d="M335.49,25.6s0,0,.06,0Z"/><path class="cls-6" d="M335.93,25.45h0S336,25.47,335.93,25.45Z"/><path class="cls-6" d="M334.74,27.13h.12C334.76,27.09,334.77,27.12,334.74,27.13Z"/><path class="cls-6" d="M332.7,28.87a.22.22,0,0,0,.07.06l0,0Z"/><path class="cls-6" d="M334.74,27.92v0l.12,0Z"/><path class="cls-6" d="M334.59,28.48a3,3,0,0,0-.36-.16l.17.09Z"/><path class="cls-6" d="M333.81,29.15l0,0Z"/><path class="cls-6" d="M334.94,27.56l.09,0Z"/><path class="cls-6" d="M337.85,11.77h0Z"/><polygon class="cls-6" points="339.37 11.52 339.38 11.53 339.53 11.57 339.37 11.52"/><path class="cls-6" d="M336.44,25.08h0S336.46,25.09,336.44,25.08Z"/><path class="cls-6" d="M337.8,20.41c-.25,0-.27-.19-.57-.2A2.12,2.12,0,0,0,337.8,20.41Z"/><path class="cls-6" d="M332.74,28.87v0S332.73,28.86,332.74,28.87Z"/><path class="cls-6" d="M337.23,20.21Z"/><path class="cls-6" d="M336.68,23.87l-.12,0Z"/><path class="cls-6" d="M336,24.59h0Z"/><path class="cls-6" d="M336.46,23.29s.06,0,0,0h0S336.51,23.29,336.46,23.29Z"/><path class="cls-6" d="M336.62,22.83h-.06v0Z"/><path class="cls-6" d="M337.57,13.23l.25,0C337.62,13.23,337.58,13.14,337.57,13.23Z"/><path class="cls-6" d="M332.85,28.93l-.11-.06s0,0,0,0Z"/><path class="cls-6" d="M334.37,22.56l.06-.06A.09.09,0,0,0,334.37,22.56Z"/><path class="cls-6" d="M336.6,16.57l0,0S336.57,16.56,336.6,16.57Z"/><path class="cls-6" d="M334.47,22.27a.92.92,0,0,0,.2,0l-.07,0Z"/><path class="cls-6" d="M337.82,13.28h0Z"/><path class="cls-6" d="M337.32,12.6c0,.07.34.13.54.21s-.27,0-.46-.06c.08.08.39.21.36.25s-.08,0-.15,0c.27.13,0,.16.3.33h-.09l.49.13s.21.12,0,.07c0,0-.08-.05-.15-.08l.09.06c-.34-.07-.1-.08-.35-.15.09.1.35.25.24.28-.33-.09-.08-.15-.39-.17l.15,0c-.53-.09.05,0-.51-.14-.13.07.13.16,0,.23.18.08.27.07.45.15.28.24-.85-.13-.45.1.21.09.62.22.38.23l-.36-.13c-.07.09.51.21.23.24s-.1-.11-.15-.11c-.31,0,.2.11.18.16l-.33-.09c0,.12.23.31.25.44a1.32,1.32,0,0,0-.3-.09c.12.2-.13.3-.37.38l.27.14a.41.41,0,0,1-.18-.05c-.13,0,.17.06.27.12s-.17,0-.25-.05c.21.17.43.43.1.44l-.08,0c-.13,0,.55.27.27.26l-.05,0c-.17.13,0,.4-.44.4.4.15-.23.12.33.3-.31,0-.4-.05-.63,0,0,0,.34.17.38.23l-.29-.09.29.16-.37-.08.07.07s.14,0,.22,0-.25.1-.4.05l.2.24a.64.64,0,0,1-.22-.13c.27.18-.32-.08-.06.09a1.55,1.55,0,0,1,.23.08c-.19,0-.22.07-.17.15l-.2-.07c-.08.1,0,.27,0,.4a1,1,0,0,1,.48.16l-.32-.09c.19.09.13,0,.35.12-.05,0-.36-.07-.45-.13l.09.09-.26-.1c.19.09-.34,0,0,.15l-.09,0c-.05.13,0,.22,0,.34.27.08.2.11.4.21-.11.05-.34.07-.35.17s.22.09.37.17c-.25-.07-.25,0-.41-.08,0,.13,0,.16.15.37a.85.85,0,0,1,.24.05s-.13,0-.24,0h0c.31.28-.83.14-.37.43h0l.22.21c-.06.05-.17-.09-.34-.1.36.28-.13.21.1.41-.74-.14-.05.34-.55.32l.17,0c.16.09-.11,0-.15,0,.13,0,.16,0,.25.07.11.33-.43.47-.68.69-.08.09.86.35.41.34l-.3-.14c.31.33-.15.41.1.72-.07,0-.16-.07-.15-.09-.25,0-.07.15.12.21,0,0-.17-.05-.27-.06s.25.2,0,.15a.36.36,0,0,1-.09,0c.1.06-.07.12.2.18-.15,0,.07.18-.1.19.28.14-.19.08.22.23-.42-.15-.39,0-.2.13-.13-.06-.15,0-.32-.09,0,.06.05.14.27.2-.55-.08.34.34-.33.17a2.1,2.1,0,0,1,.33.62c-.43-.15,0-.17-.44-.32.13.19.47.4.32.5s-.18-.09-.25-.12c.13.19-.13.25.06.45l-.1-.07s-.09,0,.11.1l0,0a3.21,3.21,0,0,1,.7.35c-.54-.23-.18.07-.85-.24a.77.77,0,0,0,.24.13s-.12,0-.26-.09c.07.12.29.17.26.24a1.58,1.58,0,0,1-.23-.11c.17.11.34.21.23.25s-.13,0-.12-.06.42.36.2.42c-.39-.18-.15,0-.5-.12l.08.1.18,0c0,.06.21.2.08.21l-.13-.1,0,.14.15,0c.16.13.45.15.32.2s0,.05-.24,0h0c.1.07.21.14.11.15s-.39-.15-.47-.17c.29.14,0,.17.34.32a2.07,2.07,0,0,0-.3-.12l.23.11a.62.62,0,0,1-.27-.07c-.07.07.46.14.23.16a.45.45,0,0,1-.08-.05c-.14.06.08.24-.07.29-.36-.1,0-.11-.36-.19,0,.15.33.42.2.51H334c.49.2-.28,0-.07.15,0,0-.27-.12-.22-.09-.11.05.06.21.17.4l-.12-.07c-.13,0-.11.11-.19.14a.66.66,0,0,0,.28.14c-.79-.1.28.46-.38.38,0,0-.1-.08-.1-.07l.07.17a1.82,1.82,0,0,0,.31.07c.13.06.21.13.2.16a1,1,0,0,0-.48-.14l.21.07c-.41-.07.43.18.14.17l-.11-.05c0,.06.18.14.14.17-.26-.08-.11-.08-.31-.16,0,.06.44.27.17.23-.06,0-.05-.08-.11-.13-.32-.06-.24,0-.3,0h0l-.16,0h.09c.63.3.07.17.46.42-.37-.24-.22-.11-.51-.22a.59.59,0,0,1-.26,0c.21.12-.2,0,.11.18-.09,0,0,0-.25-.06.05.08.16.05.27.1.29.19-.44,0-.06.32.14.16.44.3.56.45a.92.92,0,0,1-.32-.15c-.16,0-.15,0-.06.13A1.47,1.47,0,0,0,333,29c0,.05.32.15.16.15l-.35-.17c.07.07.22.18.29.26a1.11,1.11,0,0,1-.33-.18.6.6,0,0,0,.34.3h.1a1,1,0,0,1-.26-.11c-.18-.12.11,0,.2,0l.05.06c.55.17,0-.17,0-.22l.38.17-.3-.19a1.37,1.37,0,0,1,.38.15c.21,0-.13-.09.1-.05l.07,0-.1-.09c.08,0,.28.1.21.11.26,0-.24-.25.07-.17l0,0c-.09-.17-.28-.12-.59-.33l.73.2-.28-.12s.05,0,.16,0c-.18-.12-.13,0-.3-.14.28,0-.07-.2.39-.05-.21-.1-.18,0-.31-.12.49.16-.06-.1.18-.07s.1.11.35.14c-.42-.19.13-.07.06-.15-.34-.12-.1-.15-.19-.26.11,0,.24-.07.39-.1l0,0c-.34-.14-.24-.18-.3-.26a1.13,1.13,0,0,1,.37.18l0,0c-.11-.06-.16-.09-.19-.14l.25.11c0-.07-.25-.24-.05-.27-.24-.09-.69-.17-.82-.32a2.05,2.05,0,0,1,.4.16s-.1-.06,0-.06l.21.12c.11,0-.18-.09-.15-.11.19.07.14,0,.29.08s-.09,0,0,0a.58.58,0,0,1,.32,0,.77.77,0,0,1-.27-.12c0-.08.24,0,.34,0-.12-.06,0-.06-.25-.16,0,0,.14,0,.22.05-.11-.08,0-.17-.29-.24h0c-.23-.21.24-.18.16-.33l.1,0c-.09-.1,0-.17-.2-.29a.83.83,0,0,1,.3.07c0-.08-.16-.12,0-.14s.15,0,.1.1c.11,0,.26,0,0-.16.23.11.32.05.26,0l-.19,0c0-.05,0-.07.05-.09l.3.13c.43,0-.56-.48.12-.35-.21-.12-.18,0-.43-.11a4.44,4.44,0,0,1,.55,0c.2,0-.43-.24-.28-.29a1.13,1.13,0,0,1-.5-.22c.06,0,.49.09.57.16s0,0-.07,0a.3.3,0,0,0,.2.09l-.11,0c.12,0,.14-.07.32,0a.29.29,0,0,0-.25-.07c.19,0,.05-.12.19-.17a.79.79,0,0,1-.2-.05c.18-.07-.19-.13-.21-.23.19,0,.4.16.29,0a.76.76,0,0,1,.38.14c-.19-.15.19-.08.25-.11l.07.07s0-.06,0-.08l-.23-.06a.19.19,0,0,1,.15,0,3.92,3.92,0,0,1-.56-.23c.12,0-.09-.13.21,0-.14.06.3.1.32.19s0,0,0-.05.06,0,.07,0c.3,0-.32-.17-.28-.26.16.07.33.09.3.06s-.29-.08-.41-.16c.16,0-.07-.1,0-.13l-.08,0c-.16-.07-.13-.1-.16-.16.13.05.07.07.13.08-.27-.15.35,0,.17-.14.13,0,.32.11.4.11-.19-.15.26,0,.11-.14a.77.77,0,0,1-.38-.17l.11.19-.3-.2s.12.13.07.14a.66.66,0,0,0-.31-.13c.36.07-.16-.17.09-.15l.56.19c.28,0-.23-.26-.05-.33h-.11c-.22-.09,0-.08-.08-.15a1.44,1.44,0,0,0,.38.09c-.14-.05.05-.08-.32-.22l.26,0c.14-.07-.49-.3-.4-.37.2.1.34.1.47.22,0,0,.05-.05-.08-.1.13,0-.22-.17,0-.14-.08,0-.27-.11-.24-.14l.09,0A1,1,0,0,0,336,23c.62.11,0-.28.58-.19a.54.54,0,0,1-.06-.26c.05,0,.09,0,.07,0,.2,0-.52-.24-.3-.27s.15.11.27.12c.62.19,0-.15.34-.09l0,0c.23,0-.19-.21-.12-.27l.1,0a.87.87,0,0,1-.43-.41,1.2,1.2,0,0,0,.37.15c0-.05-.4-.13-.45-.22a2.46,2.46,0,0,1,.54.09v.07c.35.08,0-.09.09-.1l.15.05c0-.12-.39-.24-.33-.34l-.11,0c-.35-.18.22,0,0-.13l.38.11a2.1,2.1,0,0,1-.37-.36,3.81,3.81,0,0,1,.53.37s0-.14-.16-.22c0,0,.11.08.05.07-.28-.14-.4-.25-.37-.33.72.25.25-.14.84,0-.23-.23.2-.24.21-.41-.59-.13,0-.06-.59-.24,0-.05,0-.06,0-.05h.39c.17,0,.11.08.24.12s.26,0,.43,0c-.21-.06-.28-.13-.19-.15l-.29,0c-.27-.21.52.06.25-.15l.17.09c-.08-.09.08-.22-.37-.43a1,1,0,0,1,.27.09c.11-.12-.4-.47-.07-.49l.13.06s-.25-.14-.09-.12a.37.37,0,0,0,.15,0c-.05,0-.23-.15-.14-.16l.15.09c.24-.08-.32-.34-.38-.49a1,1,0,0,0,.68,0l.06,0c.1-.15-.26-.39-.38-.59.48.05.29-.25.59-.32a.91.91,0,0,1-.36-.15c.1,0-.26-.19.12-.06h0c.39.09.31,0,.34-.07l-.5-.16c.78.08-.15-.47.53-.35-.12-.07-.1-.12-.22-.19L339,17c.1-.07.15-.11.12-.25l.19.08c0-.06-.75-.33-.75-.39l.41.1c0-.12.42-.13.09-.36.06,0,.18,0,.19.08s.34-.14-.22-.28c.36.1.07-.12-.07-.23l.26.09c-.32-.16-.42-.19-.49-.29s.22.05.15.05c.15,0-.24-.12-.08-.15l.16.07s0-.07-.24-.17.11-.09.35,0c-.15-.05-.33-.15-.25-.16a.47.47,0,0,1,.17.07c.21-.05-.26-.25,0-.24l.16,0c0,.08-.06.14-.08.13a2.47,2.47,0,0,1,.63.18c-.17-.11-.54-.33-.41-.36l.09,0,0,0s0,0,0-.06.08,0,.09,0c.2.05.13,0,.15-.07-.27-.08-.21-.11-.45-.14,0,0,0,0,0,.05l0,0h0a.34.34,0,0,1,0,.09c-.13-.07-.24-.13-.08-.12l-.42-.18c.39.07.62,0,.86.1-.12-.15,0-.27-.52-.49-.06,0,.16,0,.24,0s0,0,.1.08c-.11-.1,0-.19-.35-.31.18,0,.32.14.29,0l.1,0c.62,0-.81-.59,0-.59h-.13c.39-.16-.15-.6.43-.7.12,0-.11-.11-.27-.21l.3.07-.32-.17c-.21-.17.77,0,.34-.24l-.2,0c.05,0-.07-.19.15-.11,0,0-.2-.08-.09-.07l.15,0-.23-.18c.14-.06.6.18.67.06a1.32,1.32,0,0,0-.51-.28s-.11,0-.26,0l-.07-.07a4.26,4.26,0,0,0-1.24-.28l.25.15-.22,0V11.3c-.21,0,0,0,.08.11a.94.94,0,0,0-.25,0l.41.19a1.69,1.69,0,0,0-.45-.11c.19.09.4.08.52.17-.22,0-.38-.07-.22,0a.77.77,0,0,1-.23-.09c.13.08,0,.12.26.2-.26,0,0,.15-.39,0a1.19,1.19,0,0,1,.32.2c-.49-.2-.07.13-.61-.05.45.18.16.23.39.39,0,0-.11-.05-.08-.05s-.2,0-.29,0a3.71,3.71,0,0,1,.66.32,6.59,6.59,0,0,1-.79-.24c.31.08.28.18.54.24a2.24,2.24,0,0,1-.44-.06c.47.14.07.06.35.18-.25,0-.45-.11-.32,0A.68.68,0,0,1,337.32,12.6Zm.33,1.89h0v0Zm0,.14a.09.09,0,0,0,0-.06c.1,0,.19.06.18.07S337.7,14.63,337.61,14.63Zm2,.26s0,0-.08,0l0-.05h0Z"/><path class="cls-6" d="M339.23,14.75l0,0h-.07l.09,0Z"/><path class="cls-6" d="M334.69,27.14h0Z"/><polygon class="cls-6" points="336.52 16.38 336.59 16.4 336.53 16.37 336.52 16.38"/><path class="cls-6" d="M333.51,27.56l-.07,0Z"/><path class="cls-6" d="M333.34,27.86h0Z"/><path class="cls-6" d="M333.11,28.06l.11,0h0Z"/><path class="cls-6" d="M334.23,24h0C334.17,23.94,334.19,24,334.23,24Z"/><path class="cls-6" d="M334.43,25.39l-.11-.08S334.28,25.34,334.43,25.39Z"/><polygon class="cls-6" points="334.36 22.56 334.37 22.56 334.37 22.56 334.36 22.56"/><path class="cls-6" d="M334.34,25.25c-.06,0,0,0,0,.06S334.38,25.29,334.34,25.25Z"/><path class="cls-6" d="M332.59,29.08h0l0,0Z"/><path class="cls-6" d="M332.62,29.11l0,0S332.65,29.12,332.62,29.11Z"/><path class="cls-6" d="M332.7,29.19l-.06-.05S332.63,29.15,332.7,29.19Z"/><path class="cls-6" d="M332.84,28.8l-.1,0Z"/><path class="cls-6" d="M332.85,28.69s-.23,0-.18,0l.07,0C332.61,28.69,333,28.78,332.85,28.69Z"/><path class="cls-6" d="M334.18,28.72l-.1.05c.1,0,.25.06.26.1C334.68,28.88,334.1,28.81,334.18,28.72Z"/><path class="cls-6" d="M334.43,28.51c0,.06.15.06.2.08A.26.26,0,0,0,334.43,28.51Z"/><path class="cls-6" d="M335.12,26.62l.24.09S335.26,26.68,335.12,26.62Z"/><polygon class="cls-6" points="334 25.82 333.84 25.8 334.06 25.89 334 25.82"/><polygon class="cls-6" points="335.8 26.22 335.82 26.24 335.76 26.15 335.8 26.22"/><path class="cls-6" d="M336.82,23l-.3-.09C336.57,22.94,336.9,23.06,336.82,23Z"/><path class="cls-6" d="M337,21.51c.15,0,.26,0,.12-.05S337,21.48,337,21.51Z"/><polygon class="cls-6" points="338.82 17.5 338.91 17.55 338.84 17.48 338.82 17.5"/></g></g></svg>