<svg id="圖層_1" data-name="圖層 1" xmlns="http://www.w3.org/2000/svg" viewBox="0 0 197.04 169.79"><defs><style>.cls-1{fill:#fff;}.cls-2{fill:#f3dd87;}.cls-3{fill:#1d89a3;}.cls-3,.cls-4,.cls-5{opacity:0.8;isolation:isolate;}.cls-4{fill:#03588c;}.cls-5{fill:#fb9589;}</style></defs><g id="Group_63" data-name="Group 63"><path id="Path_4400" data-name="Path 4400" class="cls-1" d="M285.07,323h0c-9.4,3.56-19.61-2-22.83-12.4l-39.9-129.36c-3.24-10.4,1.77-21.76,11.17-25.28h0c9.4-3.56,19.61,2,22.82,12.4l39.94,129.36C299.48,308.16,294.47,319.52,285.07,323Z" transform="translate(-221.36 -154.92)"/><path id="Path_4401" data-name="Path 4401" class="cls-1" d="M272.07,322.07h0c-9-4.54-13-16.34-8.95-26.36l40.28-98.45c4.1-10,14.75-14.46,23.8-9.92h0c9,4.54,13,16.34,9,26.36l-40.33,98.46C291.77,322.17,281.11,326.61,272.07,322.07Z" transform="translate(-221.36 -154.92)"/><path id="Path_4402" data-name="Path 4402" class="cls-1" d="M354.66,323h0c9.4,3.56,19.61-2,22.83-12.4l39.93-129.36c3.21-10.4-1.8-21.72-11.2-25.28h0c-9.4-3.56-19.62,2-22.83,12.4L343.46,297.76C340.25,308.16,345.26,319.52,354.66,323Z" transform="translate(-221.36 -154.92)"/><path id="Path_4403" data-name="Path 4403" class="cls-1" d="M367.66,322.07h0c9-4.54,13-16.34,9-26.36l-40.2-98.19c-4.1-10-14.75-14.46-23.8-9.92h0c-9,4.54-13.06,16.34-9,26.36l40.16,98.16C348,322.17,358.61,326.61,367.66,322.07Z" transform="translate(-221.36 -154.92)"/></g><path id="Path_4406" data-name="Path 4406" class="cls-2" d="M285.07,323.64h0c-9.4,3.56-19.61-2-22.83-12.4l-39.9-129.36c-3.24-10.36,1.77-21.73,11.17-25.28h0c9.4-3.56,19.61,2,22.82,12.4l39.94,129.36C299.48,308.77,294.47,320.09,285.07,323.64Z" transform="translate(-221.36 -154.92)"/><path id="Path_4407" data-name="Path 4407" class="cls-3" d="M272.07,322.67h0c-9-4.54-13-16.34-8.95-26.36l40.28-98.45c4.1-10,14.75-14.46,23.8-9.92h0c9,4.54,13,16.34,9,26.36l-40.33,98.46C291.77,322.77,281.11,327.21,272.07,322.67Z" transform="translate(-221.36 -154.92)"/><path id="Path_4408" data-name="Path 4408" class="cls-4" d="M354.66,323.64h0c9.4,3.56,19.61-2,22.83-12.4l39.93-129.36c3.21-10.4-1.8-21.73-11.2-25.28h0c-9.4-3.56-19.62,2-22.83,12.4L343.46,298.36C340.25,308.77,345.26,320.09,354.66,323.64Z" transform="translate(-221.36 -154.92)"/><path id="Path_4409" data-name="Path 4409" class="cls-5" d="M367.66,322.67h0c9-4.54,13-16.34,9-26.36l-40.2-98.15c-4.1-10-14.75-14.46-23.8-9.92h0c-9,4.54-13.06,16.35-9,26.36l40.16,98.16C348,322.77,358.61,327.21,367.66,322.67Z" transform="translate(-221.36 -154.92)"/></svg>