<svg xmlns="http://www.w3.org/2000/svg" viewBox="0 0 25.11 29.63"><defs><style>.cls-1{fill:#c9bfc8;}.cls-1,.cls-2,.cls-3,.cls-4{stroke:#404040;stroke-width:0.5px;}.cls-2{fill:#fee45a;}.cls-3{fill:#fed402;}.cls-4{fill:#fee97d;}</style></defs><g id="圖層_2" data-name="圖層 2"><g id="圖層_1-2" data-name="圖層 1"><g id="magic"><path id="Path_6981" data-name="Path 6981" class="cls-1" d="M13.73,13.58,2.15,28.94a1.07,1.07,0,0,1-1.49.25,1.07,1.07,0,0,1-.18-1.51h0L12.06,12.31l2.18-2.74L16,10.88Z"/><path id="Path_6982" data-name="Path 6982" class="cls-2" d="M21.39,11.57l-2.54-3a.25.25,0,0,1-.05-.22l.72-3.78a.26.26,0,0,0-.21-.31.27.27,0,0,0-.17,0L15.71,6a.31.31,0,0,1-.23,0l-3-1.35-.26.14L13,8.67l-.89.82-2.11,2,3.7.53L15,14.64l.63.36.05.21L17,12.4a.24.24,0,0,1,.22-.15l4-.25a.27.27,0,0,0,.25-.28A.25.25,0,0,0,21.39,11.57Z"/><path id="Path_6983" data-name="Path 6983" class="cls-3" d="M14.23,11.78a.24.24,0,0,0-.2-.15l-3.27-.51,2.53-2.18a.27.27,0,0,0,.09-.26l-.87-3.94a.08.08,0,0,1,0-.07l-.63-.27a.26.26,0,0,0-.35.14.29.29,0,0,0,0,.16l.87,3.93a.29.29,0,0,1-.08.26L9.43,11.37a.22.22,0,0,0-.08.13h0v.06h0a.26.26,0,0,0,.23.27l3.6.56a.28.28,0,0,1,.2.15l1.52,3.3a.27.27,0,0,0,.35.13.27.27,0,0,0,.13-.13l.38-.81Z"/><path id="Path_6984" data-name="Path 6984" class="cls-4" d="M6.27,7a1.83,1.83,0,0,0-.2,2.11.25.25,0,0,0,.32.13h0L7.92,8.5A.24.24,0,0,0,8,8.18L8,8.09,6.59,7A.23.23,0,0,0,6.27,7Z"/><path id="Path_6985" data-name="Path 6985" class="cls-4" d="M15.43.41a1.82,1.82,0,0,0-2.07.41.23.23,0,0,0,0,.34h0l1.16,1.25a.25.25,0,0,0,.34,0l.06-.09L15.55.72A.24.24,0,0,0,15.43.41Z"/><g id="Group_159" data-name="Group 159"><path id="Path_6986" data-name="Path 6986" class="cls-4" d="M10.11,3.24a.4.4,0,0,1-.33-.1l-.87-.81a.42.42,0,0,1,0-.58.4.4,0,0,1,.58,0l.87.81a.41.41,0,0,1,0,.57.38.38,0,0,1-.24.13Z"/></g><path id="Path_6987" data-name="Path 6987" class="cls-4" d="M20.44,17.72a1.85,1.85,0,0,1-2,.77.25.25,0,0,1-.21-.27v0l.3-1.67a.25.25,0,0,1,.28-.2.22.22,0,0,1,.11.05l1.42,1A.25.25,0,0,1,20.44,17.72Z"/><path id="Path_6988" data-name="Path 6988" class="cls-4" d="M24.29,7.08a1.84,1.84,0,0,1,.18,2.11.25.25,0,0,1-.32.13h0l-1.52-.77a.24.24,0,0,1-.11-.32.27.27,0,0,1,.07-.08L24,7.05A.26.26,0,0,1,24.29,7.08Z"/><g id="Group_160" data-name="Group 160"><path id="Path_6989" data-name="Path 6989" class="cls-4" d="M24.51,13.93a.5.5,0,0,1-.27,0l-1-.61a.42.42,0,0,1,.43-.71l1,.62a.4.4,0,0,1,.14.56.39.39,0,0,1-.29.19Z"/></g><g id="Group_161" data-name="Group 161"><path id="Path_6990" data-name="Path 6990" class="cls-4" d="M20.91,2.94a.42.42,0,0,1-.47-.35.44.44,0,0,1,.09-.31l.88-1.09A.4.4,0,0,1,22,1.13a.41.41,0,0,1,.06.57l-.88,1.09A.41.41,0,0,1,20.91,2.94Z"/></g></g></g></g></svg>