<?xml version="1.0" encoding="utf-8"?>
<!-- Generator: Adobe Illustrator 24.2.3, SVG Export Plug-In . SVG Version: 6.00 Build 0)  -->
<svg class="diy-area transition pattern-pizza" version="1.1" id="pattern-pizza" xmlns="http://www.w3.org/2000/svg" xmlns:xlink="http://www.w3.org/1999/xlink" x="0px"
	 y="0px" viewBox="0 0 66.1 108" style="enable-background:new 0 0 66.1 108;" xml:space="preserve">
<style type="text/css">
	.socks-color{fill:#FFFFFF;stroke:#404040;stroke-width:3;}
	.socks-path{fill:#404040;}
	.socks-border{fill:#404040;}
</style>
<path id="Path_4445" class="socks-color" d="M64.6,59.5c0.1,2.3-1,4.5-2.8,5.9c-1.8,1.3-3.7,2.4-5.7,3.3c-4.9,2.3-9.2,5.7-12.6,10
	c-2.4,3.4-4.6,7-6.5,10.7c-1.8,3.4-3.9,6.7-6.3,9.8c-5.4,6.9-13.6,9.1-21.7,5.7c-3.6-1.5-6.2-4.7-7-8.5C1.2,93,1.3,89.4,2.4,86
	c1.4-4.5,3.7-8.6,6.7-12.2c4.2-5.4,8.8-10.4,13.4-15.4c2.3-2.6,4.6-5.2,6.7-7.9c1.6-2.1,2.4-4.6,2.4-7.2c-0.1-8.2-0.2-16.5-0.3-24.7
	c0-3.9,0-7.9-0.1-11.8c-0.1-1.4,0.7-2.8,2.1-3.3c1.5-0.7,3.1-1.1,4.7-1.3c6.2-1,12.5-0.9,18.7,0.2c1.5,0.3,3,0.7,4.5,1.3
	c0.9,0.2,1.5,1.1,1.4,2c-0.2,3.6-0.4,7.2-0.6,10.8c-0.7,9-0.6,18.1,0.1,27.1c0.4,4,1.2,8,2,11.9C64.3,56.8,64.5,58.1,64.6,59.5z"/>
<g>
	<g id="圖層_2_64_">
		<g id="圖層_1-2_63_">
			<path class="socks-path" d="M23.5,105.8c0.1-0.2,0.3-0.3,0.5-0.5c-0.2-0.1-0.6-0.2-0.8-0.2c-0.3,0-0.8-0.2-1.2-0.3
				c-0.3-0.2-0.7-0.5-0.8-0.7c-0.3-0.3-0.7-0.7-1-0.7s-0.7,0-1,0.2c-0.3,0.2-0.5,0.2-0.8,0.3l-0.5,2.4c0.3,0,0.5-0.1,0.8-0.1
				c0.7,0,1.4,0.1,1.9,0.4c0.4-0.5,0.9-0.9,1.6-0.9c0.3,0,0.6,0.1,0.9,0.2C23.2,105.9,23.3,105.9,23.5,105.8z M20.1,105.8h-0.8V105
				h0.8V105.8z"/>
			<path class="socks-path" d="M24.9,104.7c0.3-0.3,0.7-0.6,1.1-0.9c-1.9-1.8-4.4-2.9-7.1-2.9l-0.3,2c0.2,0,0.3-0.2,0.3-0.2
				c0.3-0.2,0.7-0.2,1.2-0.3c0.2,0,0.3,0,0.3,0c0.5,0.2,1,0.5,1.3,0.8c0.2,0.2,0.5,0.3,0.7,0.5c0.3,0.2,0.7,0.2,0.8,0.2
				C24.1,104.3,24.6,104.4,24.9,104.7C24.9,104.7,24.9,104.7,24.9,104.7z"/>
		</g>
	</g>
	<g id="圖層_2_4_">
		<g id="圖層_1-2_3_">
			<path class="socks-path" d="M55,69.9C55,69.9,55,69.9,55,69.9c-0.4-0.2-0.8-0.5-0.9-0.7c-0.3-0.3-0.7-0.7-1-0.7s-0.7,0-1,0.2
				c-0.3,0.2-0.5,0.2-0.8,0.3l-0.7,3.5c0.2,0,0.4,0.1,0.6,0.2c0.4-0.5,1-1,1.6-1.3C53.3,70.8,54,70.3,55,69.9C55,70,55,70,55,69.9z
				 M52.8,71.1h-0.8v-0.8h0.8V71.1z"/>
			<path class="socks-path" d="M55.5,69.4c0,0,0.1,0,0.2,0c0.1,0,0.1-0.1,0.2-0.1c0.4-0.4,1-0.8,1.6-1c-1.6-1.1-3.5-1.7-5.6-1.8l-0.3,2
				c0,0,0.2-0.2,0.3-0.2c0.5-0.2,0.8-0.3,1.2-0.3c0,0,0.2,0,0.3,0c0.5,0,1,0.5,1.3,0.8C55,69.1,55.1,69.2,55.5,69.4z"/>
		</g>
	</g>
	<g id="圖層_2_62_">
		<g id="圖層_1-2_61_">
			<path class="socks-path" d="M4.7,88.9c-0.3-0.2-0.5-0.5-0.8-0.8c-0.2-0.3-0.3-0.7-0.5-1c-0.2-0.3-0.2-0.8-0.5-1c0.2-0.3-0.3-0.3-0.7-0.3
				c0,0-0.1,0-0.1,0c-0.1,0.4-0.3,0.7-0.4,1.1c0.7,0.3,1.3,1,1.3,1.8c0,1.1-0.7,2-1.7,2.1c0.1,0.4,0.1,0.8,0.1,1.3
				c0.3,0.2,0.6,0.5,0.7,0.8l3.2-1c0-0.3,0.2-0.5,0.2-0.8c0.2-0.3,0.2-0.8,0.2-1.2C5.4,89.4,5.1,89.3,4.7,88.9z M4.1,91.5H3.2v-0.8
				h0.8V91.5z"/>
			<path class="socks-path" d="M6.3,91.5L8.1,91c-0.5-3.5-2.6-6.4-5.5-7.9c0,0.6-0.1,1.2-0.3,1.8c0,0,0,0.1,0,0.1c0.5,0,1.1,0.2,1.5,0.5
				c0.3,0.3,0.5,1,0.8,1.5c0,0.3,0.2,0.5,0.3,0.8c0.2,0.3,0.5,0.5,0.7,0.7c0.3,0.3,0.8,0.7,1,1.2c0.2,0.5,0,1-0.2,1.5
				C6.3,91.1,6.3,91.3,6.3,91.5z"/>
		</g>
	</g>
	<g id="圖層_2_61_">
		<g id="圖層_1-2_52_">
			<path id="Path_4461_13_" class="socks-path" d="M24,82.3l0.5-2.2c0.5,0.2,0.8,0.7,0.8,1.3c0,0.3-0.2,0.5-0.5,0.7
				C24.7,82.3,24.4,82.5,24,82.3z"/>
			<circle id="Ellipse_46_32_" class="socks-path" cx="28.9" cy="80" r="1.3"/>
			<path id="Path_4462_32_" class="socks-path" d="M26.4,84c0.5-1,1.8-1.5,2.9-0.8c0.3,0.2,0.7,0.5,0.8,0.8l3.2-1c0-0.3,0.2-0.5,0.2-0.8
				c0.2-0.3,0.2-0.8,0.2-1.2c-0.2-0.3-0.5-0.5-0.8-0.8c-0.3-0.2-0.5-0.5-0.8-0.8c-0.2-0.3-0.3-0.7-0.5-1c-0.2-0.3-0.2-0.8-0.5-1
				c-0.2-0.2-0.7-0.3-1-0.3c-0.3,0-0.8-0.2-1.2-0.3c-0.3-0.2-0.7-0.5-0.8-0.7c-0.3-0.3-0.7-0.7-1-0.7s-0.7,0-1,0.2
				c-0.3,0.2-0.5,0.2-0.8,0.3l-0.7,3.5c1,0.2,1.7,1.3,1.3,2.3c-0.2,1-1.2,1.5-2,1.3l-0.5,3l2.9-0.8C26.2,84.9,26.2,84.5,26.4,84z
				 M31.2,82h0.8v0.8h-0.8V82z M28.7,78c1.2,0,2.2,0.8,2.2,2s-0.8,2.2-2,2.2s-2.2-0.8-2.2-2l0,0C26.7,79,27.5,78,28.7,78L28.7,78z
				 M26,77.1h0.8V78H26V77.1z M25.5,84.7h-0.8v-0.8h0.8V84.7z"/>
			<path id="Path_4463_32_" class="socks-path" d="M34.3,82.8c0-0.2,0-0.3,0.2-0.3c0.2-0.5,0.3-1,0.2-1.5c-0.2-0.5-0.7-0.8-1-1.2
				c-0.2-0.2-0.5-0.3-0.7-0.7c-0.2-0.3-0.3-0.5-0.3-0.8c-0.2-0.5-0.3-1-0.7-1.3c-0.3-0.3-1-0.5-1.5-0.5c-0.3,0-0.7-0.2-0.8-0.2
				c-0.3-0.2-0.5-0.3-0.7-0.5C28.6,75.5,28,75,27.5,75c-0.2,0-0.3,0-0.3,0c-0.3,0-0.7,0.2-1.2,0.3c-0.2,0-0.3,0.2-0.3,0.2l0.3-2
				c5.2,0.2,9.6,4,10.2,9.2L34.3,82.8L34.3,82.8z"/>
			<path id="Path_4464_20_" class="socks-path" d="M29.6,84.4L27,85.2c0-0.7,0.3-1.2,1-1.3C28.6,83.5,29.2,83.8,29.6,84.4z"/>
		</g>
	</g>
	<g id="圖層_2_5_">
		<g id="圖層_1-2_5_">
			<path class="socks-path" d="M26,59.6c-0.3-0.2-0.5-0.5-0.8-0.8c-0.2-0.3-0.3-0.7-0.5-1c0-0.2-0.2-0.3-0.2-0.5c-0.3,0.3-0.5,0.7-0.8,1
				c0.2,0.3,0.3,0.7,0.3,1c0,1.2-0.8,2.2-2,2.2c-0.5,0-0.8-0.2-1.3-0.3c-0.2,0.2-0.2,0.2-0.3,0.3c-0.7,0.5-1.2,1-1.8,1.5
				c0,0.2-0.2,0.2-0.2,0.3l0,0v0.8h-0.5c-0.3,0.5-0.5,1-1,1.3l2.2-0.7c0-0.5,0-0.8,0.2-1.2c0.5-1,1.8-1.5,2.9-0.8
				c0.3,0.2,0.7,0.5,0.8,0.8l3.2-1c0-0.3,0.2-0.5,0.2-0.8c0.2-0.3,0.2-0.8,0.2-1.2C26.6,60.1,26.4,59.9,26,59.6z M24.2,62.1v-0.8H25
				v0.8H24.2z"/>
			<path class="socks-path" d="M25.9,55.2c-0.2,0.3-0.5,0.8-0.8,1.2c0.2,0.3,0.3,0.7,0.3,1c0,0.3,0.2,0.7,0.3,0.8s0.3,0.5,0.7,0.7
				c0.3,0.3,0.8,0.7,1,1.2s0,1-0.2,1.5c0,0.2,0,0.3-0.2,0.3l0,0l1.8-0.7C28.7,59.1,27.6,56.9,25.9,55.2z"/>
			<path id="Path_4464_1_" class="socks-path" d="M22.5,63.6L20,64.4c0-0.7,0.3-1.2,1-1.3C21.5,62.9,22.2,63.1,22.5,63.6z"/>
		</g>
	</g>
	<g id="圖層_2_6_">
		<g id="圖層_1-2_11_">
			<path id="Path_4461_2_" class="socks-path" d="M42.8,52l0.5-2.2c0.5,0.2,0.8,0.7,0.8,1.3c0,0.3-0.2,0.5-0.5,0.7C43.3,52,43,52.1,42.8,52
				z"/>
			<circle id="Ellipse_46_9_" class="socks-path" cx="47.5" cy="49.6" r="1.3"/>
			<path id="Path_4462_9_" class="socks-path" d="M45.2,53.6c0.5-1,1.8-1.5,2.9-0.8c0.3,0.2,0.7,0.5,0.8,0.8l3.2-1c0-0.3,0.2-0.5,0.2-0.8
				c0.2-0.3,0.2-0.8,0.2-1.2c-0.2-0.3-0.5-0.5-0.8-0.8c-0.3-0.2-0.5-0.5-0.8-0.8c-0.2-0.3-0.3-0.7-0.5-1c-0.2-0.3-0.2-0.8-0.5-1
				c-0.2-0.2-0.7-0.3-1-0.3c-0.3,0-0.8-0.2-1.2-0.3c-0.3-0.2-0.7-0.5-0.8-0.7c-0.3-0.3-0.7-0.7-1-0.7c-0.3,0-0.7,0-1,0.2
				c-0.3,0.2-0.5,0.2-0.8,0.3l-0.5,3.7c1,0.2,1.7,1.3,1.3,2.3c-0.2,1-1.2,1.5-2,1.3l-0.5,3L45,55C44.8,54.5,45,54.1,45.2,53.6z
				 M49.9,51.6h0.8v0.8h-0.8V51.6z M47.5,47.6c1.2,0,2.2,0.8,2.2,2c0,1.2-0.8,2.2-2,2.2s-2.2-0.8-2.2-2l0,0
				C45.5,48.6,46.3,47.6,47.5,47.6L47.5,47.6z M44.7,46.8h0.8v0.8h-0.8V46.8z M44.2,54.3h-0.8v-0.8h0.8V54.3z"/>
			<path id="Path_4463_9_" class="socks-path" d="M52.9,52.5c0-0.2,0-0.3,0.2-0.3c0.2-0.5,0.3-1,0.2-1.5c-0.2-0.5-0.7-0.8-1-1.2
				c-0.2-0.2-0.5-0.3-0.7-0.7c-0.2-0.3-0.3-0.5-0.3-0.8c-0.2-0.5-0.3-1-0.7-1.3c-0.3-0.3-1-0.5-1.5-0.5c-0.3,0-0.7-0.2-0.8-0.2
				c-0.3-0.2-0.5-0.3-0.7-0.5c-0.3-0.3-0.8-0.8-1.3-0.8c-0.2,0-0.3,0-0.3,0c-0.3,0-0.7,0.2-1.2,0.3c-0.2,0-0.3,0.2-0.3,0.2l0.3-2
				c5.2,0.2,9.6,4,10.2,9.2L52.9,52.5L52.9,52.5z"/>
			<path id="Path_4464_2_" class="socks-path" d="M48.2,54l-2.5,0.8c0-0.7,0.3-1.2,1-1.3C47.2,53.1,47.9,53.5,48.2,54z"/>
		</g>
	</g>
	<g id="圖層_2_12_">
		<g id="圖層_1-2_12_">
			<path class="socks-path" d="M35.2,26c-0.2-0.3-0.5-0.5-0.8-0.8c-0.3-0.2-0.5-0.5-0.8-0.8c-0.2-0.3-0.3-0.7-0.5-1c-0.2-0.3-0.2-0.8-0.5-1
				c-0.3-0.2-0.7-0.3-1-0.3c-0.3,0-0.7-0.1-1-0.2c0,0.1-0.1,0.2-0.1,0.3c0.1,0.3,0.1,0.6,0.1,0.8c1,0.1,1.9,0.9,1.9,2
				c0,1-0.7,1.9-1.6,2.1c0,0.3-0.1,0.7-0.1,1c0,0,0.1,0,0.1,0c0.3,0.2,0.7,0.5,0.8,0.8l3.2-1c0-0.3,0.2-0.5,0.2-0.8
				C35.2,26.7,35.4,26.4,35.2,26z M33.7,27.7h-0.8v-0.8h0.8V27.7z"/>
			<path class="socks-path" d="M30.9,18.6c0.1,0.7,0.1,1.4-0.1,2c0.3,0.1,0.6,0.2,0.8,0.2c0.5,0,1,0.2,1.5,0.5c0.3,0.3,0.5,0.8,0.7,1.3
				c0,0.3,0.2,0.7,0.3,0.8c0.2,0.2,0.3,0.5,0.7,0.7c0.3,0.3,0.8,0.7,1,1.2c0.2,0.5,0,1-0.2,1.5c0,0.1,0,0.2-0.1,0.3l1.7-0.6
				C37.1,23.2,34.5,20.1,30.9,18.6z"/>
		</g>
	</g>
	<g id="圖層_2_13_">
		<g id="圖層_1-2_13_">
			<path id="Path_4461_3_" class="socks-path" d="M56.1,28.5l0.5-2.2c0.5,0.2,0.8,0.7,0.8,1.3c0,0.3-0.2,0.5-0.5,0.7
				C56.7,28.5,56.4,28.6,56.1,28.5z"/>
			<circle id="Ellipse_46_11_" class="socks-path" cx="60.9" cy="26.1" r="1.3"/>
			<path class="socks-path" d="M61.9,29.8c0.2-0.7,0.4-1.4,0.8-1.9c-0.1-0.2-0.1-0.3-0.2-0.5c-0.4,0.5-0.9,0.9-1.6,0.9
				c-1.2,0-2.2-0.8-2.2-2c0-1.2,0.8-2.2,2-2.2c0.4,0,0.7,0.1,1.1,0.3c-0.1-0.4-0.2-0.9-0.3-1.3c-0.3-0.1-0.6-0.2-0.8-0.3
				c-0.3-0.2-0.7-0.5-0.8-0.7c-0.3-0.3-0.7-0.7-1-0.7c-0.3,0-0.7,0-1,0.2c-0.3,0.2-0.5,0.2-0.8,0.3l-0.7,3.5c1,0.2,1.7,1.3,1.3,2.3
				c-0.2,1-1.2,1.5-2,1.3l-0.5,3l2.9-0.8c0.2-0.3,0.2-0.7,0.3-1.2c0.5-1,1.8-1.5,2.9-0.8C61.5,29.4,61.7,29.6,61.9,29.8z M57.6,30.8
				h-0.8V30h0.8V30.8z M58.1,24.1v-0.8h0.8v0.8H58.1z"/>
			<path class="socks-path" d="M62,20.4c-1.2-0.5-2.5-0.8-3.9-0.9l-0.3,2c0,0,0.2-0.2,0.3-0.2c0.5-0.2,0.8-0.3,1.2-0.3c0,0,0.2,0,0.3,0
				c0.5,0,1,0.5,1.3,0.8c0.2,0.2,0.3,0.3,0.6,0.5C61.6,21.7,61.7,21,62,20.4z"/>
			<path id="Path_4464_7_" class="socks-path" d="M61.6,30.5l-2.5,0.8c0-0.7,0.3-1.2,1-1.3C60.6,29.6,61.3,30,61.6,30.5z"/>
		</g>
	</g>
	<g id="圖層_2_14_">
		<g id="圖層_1-2_14_">
			<path id="Path_4461_6_" class="socks-path" d="M43.9,5.5l0.5-2.2c0.5,0.2,0.8,0.7,0.8,1.3c0,0.3-0.2,0.5-0.5,0.7
				C44.4,5.5,44.1,5.7,43.9,5.5z"/>
			<circle id="Ellipse_46_12_" class="socks-path" cx="48.8" cy="3.2" r="1.3"/>
			<path class="socks-path" d="M52.6,3.3c-0.3-0.2-0.5-0.5-0.8-0.8c-0.1-0.2-0.2-0.3-0.2-0.5c-0.4,0-0.8-0.1-1.2-0.1
				c0.3,0.3,0.5,0.8,0.5,1.2c0,1.2-0.8,2.2-2,2.2c-1.2,0-2.2-0.8-2.2-2c0-0.7,0.3-1.4,0.8-1.8c-0.3,0-0.6-0.1-0.9-0.1
				c-0.6,0.3-1.2,0.5-2,0.6l-0.1,0.7c1,0.2,1.7,1.3,1.3,2.3c-0.2,1-1.2,1.5-2,1.3l-0.5,3l2.9-0.8c-0.2-0.5,0-0.8,0.2-1.3
				c0.5-1,1.8-1.5,2.9-0.8c0.3,0.2,0.7,0.5,0.8,0.8l3.2-1c0-0.3,0.2-0.5,0.2-0.8c0.2-0.3,0.2-0.8,0.2-1.2C53.3,3.8,53,3.7,52.6,3.3z
				 M45.3,7.9h-0.8V7h0.8V7.9z M51.8,6H51V5.2h0.8V6z"/>
			<path class="socks-path" d="M53.4,2.1c-0.3,0-0.6,0-0.9,0c0,0.1,0.1,0.1,0.1,0.2c0.2,0.3,0.5,0.5,0.7,0.7c0.3,0.3,0.8,0.7,1,1.2
				c0.2,0.5,0,1-0.2,1.5C54,5.7,54,5.9,54,6l2-0.2c-0.1-1.1-0.5-2.2-1-3.2C54.4,2.6,53.9,2.4,53.4,2.1z"/>
			<path id="Path_4464_8_" class="socks-path" d="M49.3,7.5l-2.5,0.8c0-0.7,0.3-1.2,1-1.3C48.3,6.7,48.9,7,49.3,7.5z"/>
		</g>
	</g>
</g>
<g id="圖層_2_3_">
	<g id="圖層_1-2_2_">
		<g id="Path_4454_1_">
			<path class="socks-border" d="M16.6,108c-2.6,0-5.4-0.6-8-1.7c-4-1.7-7-5.2-7.9-9.5c-0.9-3.7-0.8-7.6,0.3-11.2c1.5-4.7,3.9-8.9,7-12.7
				c3.5-4.6,7.5-8.9,11.4-13.2l2.1-2.3c2.6-2.8,4.7-5.2,6.6-7.8c1.4-1.8,2.1-4,2-6.3C30,35,29.9,26.7,29.8,18.5
				c0-3.8,0-7.8-0.1-11.7c-0.2-2.1,1.1-4,3-4.7c1.6-0.7,3.3-1.2,5-1.4c6.3-1,12.8-0.9,19.2,0.2c1.6,0.3,3.1,0.8,4.6,1.3
				c1.6,0.4,2.7,1.9,2.5,3.6c-0.1,1.5-0.2,3-0.2,4.5c-0.1,2.1-0.2,4.2-0.3,6.2c-0.7,8.9-0.6,18,0.1,26.9c0.3,3.4,1,6.8,1.7,10.2
				l0.3,1.6c0.3,1.4,0.5,2.8,0.5,4.3c0.1,2.8-1.2,5.5-3.4,7.2c-1.8,1.4-3.8,2.5-5.9,3.5c-4.7,2.2-8.8,5.5-12,9.6
				c-2.3,3.3-4.5,6.8-6.3,10.4c-1.9,3.5-4,6.9-6.4,10.1C28,105.3,22.5,108,16.6,108z M46.9,3c-2.9,0-5.8,0.2-8.7,0.7
				c-1.5,0.2-2.9,0.6-4.3,1.2h-0.1c-0.7,0.2-1.2,0.9-1.1,1.7v0.1c0.1,3.9,0.1,8,0.1,11.8c0.1,8.1,0.2,16.5,0.3,24.7
				c0.1,2.9-0.9,5.8-2.7,8.2c-2,2.7-4.2,5.1-6.8,8l-2.1,2.3c-3.8,4.2-7.8,8.5-11.2,13c-2.9,3.5-5.1,7.5-6.5,11.7
				c-1,3.1-1,6.5-0.2,9.7c0.7,3.4,3,6.1,6.1,7.4c7.4,3.1,14.9,1.2,19.9-5.3c2.3-3,4.3-6.2,6.1-9.6c1.9-3.8,4.1-7.4,6.6-10.9
				c3.5-4.5,8.1-8.1,13.2-10.5c1.9-0.9,3.7-1.9,5.4-3.2c1.5-1.1,2.3-2.8,2.2-4.6l0,0c-0.1-1.3-0.2-2.6-0.5-3.8L62.3,54
				c-0.7-3.4-1.4-6.9-1.7-10.5c-0.8-9.1-0.8-18.3-0.1-27.4c0.1-2,0.2-4.1,0.3-6.2c0.1-1.5,0.2-3,0.2-4.5V5.3C61,5.2,60.9,5,60.8,5
				h-0.1c-1.4-0.5-2.8-0.9-4.3-1.2C53.3,3.3,50.1,3,46.9,3z"/>
		</g>
	</g>
</g>
</svg>
