<?xml version="1.0" encoding="utf-8"?>
<!-- Generator: Adobe Illustrator 24.2.3, SVG Export Plug-In . SVG Version: 6.00 Build 0)  -->
<svg class="diy-area transition pattern-stripe" version="1.1" id="pattern-stripe" xmlns="http://www.w3.org/2000/svg" xmlns:xlink="http://www.w3.org/1999/xlink" x="0px" y="0px"
	 viewBox="0 0 66.1 108" style="enable-background:new 0 0 66.1 108;" xml:space="preserve">
	<style type="text/css">
	.socks-color{fill:#FFFFFF;stroke:#404040;stroke-width:3;}
	.socks-path{fill:none;stroke:#404040;}
	.stroke-width{stroke-width:5;}
	.round{stroke-linecap:round;}
	.socks-border{fill:#404040;}
	</style>
	<g id="圖層_2_1_">
		<g id="圖層_1-2">
			<g id="Group_83">
				<path id="Path_4445" class="socks-color" d="M64.6,59.5c0.1,2.3-1,4.5-2.8,5.9c-1.8,1.3-3.7,2.4-5.7,3.3c-4.9,2.3-9.2,5.7-12.6,10
				c-2.4,3.4-4.6,7-6.5,10.7c-1.8,3.4-3.9,6.7-6.3,9.8c-5.4,6.9-13.6,9.1-21.7,5.7c-3.6-1.5-6.2-4.7-7-8.5C1.2,93,1.3,89.4,2.4,86
				c1.4-4.5,3.7-8.6,6.7-12.2c4.2-5.4,8.8-10.4,13.4-15.4c2.3-2.6,4.6-5.2,6.7-7.9c1.6-2.1,2.4-4.6,2.4-7.2
				c-0.1-8.2-0.2-16.5-0.3-24.7c0-3.9,0-7.9-0.1-11.8c-0.1-1.4,0.7-2.8,2.1-3.3c1.5-0.7,3.1-1.1,4.7-1.3c6.2-1,12.5-0.9,18.7,0.2
				c1.5,0.3,3,0.7,4.5,1.3c0.9,0.2,1.5,1.1,1.4,2c-0.2,3.6-0.4,7.2-0.6,10.8c-0.7,9-0.6,18.1,0.1,27.1c0.4,4,1.2,8,2,11.9
				C64.3,56.8,64.5,58.1,64.6,59.5z"/>
				<line id="Line_1" class="socks-path stroke-width" x1="31.1" y1="10.1" x2="61.9" y2="10.1"/>
				<line id="Line_1-2" class="socks-path stroke-width" x1="31.1" y1="20.6" x2="61.9" y2="20.6"/>
				<line id="Line_1-3" class="socks-path stroke-width" x1="31.1" y1="31.1" x2="61.9" y2="31.1"/>
				<line id="Line_1-4" class="socks-path stroke-width" x1="31.1" y1="41.7" x2="61.9" y2="41.7"/>
				<line id="Line_1-5" class="socks-path round stroke-width" x1="29.9" y1="52.2" x2="61.9" y2="52.2"/>
				<line id="Line_1-6" class="socks-path round stroke-width" x1="19.9" y1="62.7" x2="61.2" y2="64.2"/>
				<line id="Line_1-7" class="socks-path round stroke-width" x1="11.6" y1="73.2" x2="45.1" y2="75"/>
				<line id="Line_1-8" class="socks-path stroke-width" x1="4.1" y1="83.7" x2="37.9" y2="86.7"/>
				<line id="Line_1-9" class="socks-path round stroke-width" x1="3.4" y1="95.8" x2="29.6" y2="98.7"/>
			</g>
		</g>
	</g>
	<g id="圖層_2_3_">
		<g id="圖層_1-2_2_">
			<g id="Path_4454_1_">
				<path class="socks-border" d="M16.5,108c-2.6,0-5.4-0.6-8-1.7c-4-1.7-7-5.2-7.9-9.5c-0.9-3.7-0.8-7.6,0.3-11.2c1.5-4.7,3.9-8.9,7-12.7
				c3.5-4.6,7.5-8.9,11.4-13.2l2.1-2.3c2.6-2.8,4.7-5.2,6.6-7.8c1.4-1.8,2.1-4,2-6.3c-0.1-8.3-0.2-16.6-0.3-24.8
				c0-3.8,0-7.8-0.1-11.7c-0.2-2.1,1.1-4,3-4.7c1.6-0.7,3.3-1.2,5-1.4c6.3-1,12.8-0.9,19.2,0.2c1.6,0.3,3.1,0.8,4.6,1.3
				c1.6,0.4,2.7,1.9,2.5,3.6c-0.1,1.5-0.2,3-0.2,4.5c-0.1,2.1-0.2,4.2-0.3,6.2c-0.7,8.9-0.6,18,0.1,26.9c0.3,3.4,1,6.8,1.7,10.2
				l0.3,1.6c0.3,1.4,0.5,2.8,0.5,4.3c0.1,2.8-1.2,5.5-3.4,7.2c-1.8,1.4-3.8,2.5-5.9,3.5c-4.7,2.2-8.8,5.5-12,9.6
				c-2.3,3.3-4.5,6.8-6.3,10.4c-1.9,3.5-4,6.9-6.4,10.1C27.9,105.3,22.4,108,16.5,108z M46.8,3c-2.9,0-5.8,0.2-8.7,0.7
				c-1.5,0.2-2.9,0.6-4.3,1.2l-0.1,0c-0.7,0.2-1.2,0.9-1.1,1.7l0,0.1c0.1,3.9,0.1,8,0.1,11.8c0.1,8.1,0.2,16.5,0.3,24.7
				c0.1,2.9-0.9,5.8-2.7,8.2c-2,2.7-4.2,5.1-6.8,8l-2.1,2.3c-3.8,4.2-7.8,8.5-11.2,13c-2.9,3.5-5.1,7.5-6.5,11.7
				c-1,3.1-1,6.5-0.2,9.7c0.7,3.4,3,6.1,6.1,7.4c7.4,3.1,14.9,1.2,19.9-5.3c2.3-3,4.3-6.2,6.1-9.6c1.9-3.8,4.1-7.4,6.6-10.9
				c3.5-4.5,8.1-8.1,13.2-10.5c1.9-0.9,3.7-1.9,5.4-3.2c1.5-1.1,2.3-2.8,2.2-4.6v0c-0.1-1.3-0.2-2.6-0.5-3.8l-0.3-1.6
				c-0.7-3.4-1.4-6.9-1.7-10.5c-0.8-9.1-0.8-18.3-0.1-27.4c0.1-2,0.2-4.1,0.3-6.2c0.1-1.5,0.2-3,0.2-4.5l0-0.1
				c0-0.1-0.1-0.3-0.2-0.3L60.6,5c-1.4-0.5-2.8-0.9-4.3-1.2C53.2,3.3,50,3,46.8,3z"/>
			</g>
		</g>
	</g>
</svg>
