<?xml version="1.0" encoding="utf-8"?>
<!-- Generator: Adobe Illustrator 24.2.3, SVG Export Plug-In . SVG Version: 6.00 Build 0)  -->
<svg class="diy-area transition pattern-strawberry" version="1.1" id="pattern-strawberry" xmlns="http://www.w3.org/2000/svg" xmlns:xlink="http://www.w3.org/1999/xlink" x="0px"
	 y="0px" viewBox="0 0 66.1 108" style="enable-background:new 0 0 66.1 108;" xml:space="preserve">
<style type="text/css">
	.socks-color{fill:#FFFFFF;stroke:#404040;stroke-width:3;}
	.socks-path{fill:#404040;}
	.socks-border{fill:#404040;}
</style>
<path id="Path_4445" class="socks-color" d="M64.6,59.5c0.1,2.3-1,4.5-2.8,5.9c-1.8,1.3-3.7,2.4-5.7,3.3c-4.9,2.3-9.2,5.7-12.6,10
	c-2.4,3.4-4.6,7-6.5,10.7c-1.8,3.4-3.9,6.7-6.3,9.8c-5.4,6.9-13.6,9.1-21.7,5.7c-3.6-1.5-6.2-4.7-7-8.5C1.2,93,1.3,89.4,2.4,86
	c1.4-4.5,3.7-8.6,6.7-12.2c4.2-5.4,8.8-10.4,13.4-15.4c2.3-2.6,4.6-5.2,6.7-7.9c1.6-2.1,2.4-4.6,2.4-7.2c-0.1-8.2-0.2-16.5-0.3-24.7
	c0-3.9,0-7.9-0.1-11.8c-0.1-1.4,0.7-2.8,2.1-3.3c1.5-0.7,3.1-1.1,4.7-1.3c6.2-1,12.5-0.9,18.7,0.2c1.5,0.3,3,0.7,4.5,1.3
	c0.9,0.2,1.5,1.1,1.4,2c-0.2,3.6-0.4,7.2-0.6,10.8c-0.7,9-0.6,18.1,0.1,27.1c0.4,4,1.2,8,2,11.9C64.3,56.8,64.5,58.1,64.6,59.5z"/>
<g>
	<g id="圖層_2_84_">
		<g id="圖層_1-2_83_">
			<path class="socks-path" d="M39.6,81.1c0.3,0.1,0.6,0.3,1,0.5c0.3-0.5,0.6-1,0.9-1.5c-0.6-0.1-1.2,0.1-1.6,0.4c-0.1-0.8-0.6-1.5-1.4-1.8L38,78.4
				c-0.2-0.1-0.4,0-0.4,0.2l-0.2,0.5c-0.2,0.4-0.2,0.8-0.2,1.3C38.1,80.4,38.9,80.8,39.6,81.1z"/>
			<path class="socks-path" d="M37,90c0.4-1.3,0.8-2.5,1.3-3.7c-0.1-0.1-0.1-0.2,0-0.3c0-0.1,0.1-0.2,0.2-0.2c0.5-1.2,1.1-2.5,1.7-3.6
				c-0.3-0.2-0.6-0.3-0.9-0.4c-0.7-0.3-1.6-0.7-2.6-0.8c-1.1-0.1-2.2,0.6-2.5,1.6c-0.7,1.5-0.7,3.2-0.2,4.8c0.4,1.2,1.1,2.3,1.7,2.6
				C36,90.1,36.5,90.1,37,90z M38,83.9c0.1-0.2,0.3-0.2,0.4-0.2c0.2,0.1,0.2,0.3,0.2,0.4c-0.1,0.2-0.3,0.2-0.4,0.2
				C38,84.3,37.9,84.1,38,83.9z M37.2,87.5L37.2,87.5c-0.1,0.2-0.3,0.2-0.4,0.2l0,0c-0.2-0.1-0.2-0.3-0.2-0.4s0.3-0.2,0.4-0.2
				S37.3,87.3,37.2,87.5z M36.2,83.5C36,83.4,35.9,83.2,36,83s0.3-0.3,0.4-0.2c0.2,0.1,0.3,0.3,0.2,0.4l0,0
				C36.6,83.5,36.4,83.5,36.2,83.5L36.2,83.5z M36.3,85.1c0.1-0.2,0.3-0.2,0.4-0.2s0.2,0.3,0.2,0.4l0,0c-0.1,0.2-0.3,0.2-0.4,0.2
				C36.3,85.5,36.2,85.3,36.3,85.1z"/>
		</g>
	</g>
	<g id="圖層_2_83_">
		<g id="圖層_1-2_82_">
			<path class="socks-path" id="Path_4457_29_" d="M12.7,68.6c-0.1-0.4,0-0.9,0.2-1.3l0.2-0.5l0,0c0.1-0.2,0.3-0.2,0.4-0.2l0.5,0.2
				c0.7,0.3,1.3,1,1.4,1.8c0.7-0.5,1.5-0.6,2.3-0.2l0.5,0.2l0,0c0.2,0.1,0.2,0.3,0.2,0.4l-0.2,0.5c-0.2,0.4-0.5,0.7-0.8,1
				c-0.7-0.6-1.6-1-2.2-1.2C14.5,69.1,13.6,68.7,12.7,68.6z"/>
			<path class="socks-path" id="Path_4458_49_" d="M17.1,71.4c-0.7-0.7-1.6-1.1-2.3-1.4s-1.6-0.7-2.6-0.8c-1.1-0.1-2.2,0.6-2.5,1.6
				C9,72.3,9,74,9.5,75.6c0.4,1.2,1.1,2.3,1.7,2.6c0.6,0.3,1.9,0.1,3.1-0.5c1.5-0.7,2.7-1.9,3.3-3.4C18.1,73.4,17.9,72.1,17.1,71.4z
				 M11.7,71.7c-0.2-0.1-0.3-0.3-0.2-0.4s0.3-0.3,0.4-0.2c0.2,0.1,0.3,0.3,0.2,0.4l0,0l0,0C12.1,71.7,11.9,71.8,11.7,71.7L11.7,71.7
				z M12,73.8c-0.2-0.1-0.2-0.3-0.2-0.4c0.1-0.2,0.3-0.2,0.4-0.2c0.2,0.1,0.2,0.3,0.2,0.4l0,0C12.3,73.8,12.1,73.9,12,73.8z
				 M12.2,75.9C12,75.8,12,75.6,12,75.5c0.1-0.2,0.3-0.2,0.4-0.2c0.2,0.1,0.2,0.3,0.2,0.4l0,0C12.6,75.9,12.4,76,12.2,75.9
				L12.2,75.9z M13.7,72.6c-0.2-0.1-0.2-0.3-0.2-0.4c0.1-0.2,0.3-0.2,0.4-0.2c0.2,0.1,0.2,0.3,0.2,0.4l0,0
				C14.1,72.6,13.9,72.7,13.7,72.6z M14,74.7c-0.2-0.1-0.3-0.3-0.2-0.4c0.1-0.2,0.3-0.3,0.4-0.2s0.3,0.3,0.2,0.4l0,0
				C14.3,74.7,14.1,74.8,14,74.7z M15.7,73.5c-0.2-0.1-0.2-0.3-0.2-0.4c0.1-0.2,0.3-0.2,0.4-0.2c0.2,0.1,0.2,0.3,0.2,0.4l0,0
				C16,73.5,15.8,73.5,15.7,73.5L15.7,73.5L15.7,73.5L15.7,73.5z"/>
		</g>
	</g>
	<g id="圖層_2_2_">
		<g id="圖層_1-2_1_">
			<path class="socks-path" id="Path_4457_1_" d="M15.8,90.4c-0.1-0.4,0-0.9,0.2-1.3l0.2-0.5l0,0c0.1-0.2,0.3-0.2,0.4-0.2l0.5,0.2
				c0.7,0.3,1.3,1,1.4,1.8c0.7-0.5,1.5-0.6,2.3-0.2l0.5,0.2l0,0c0.2,0.1,0.2,0.3,0.2,0.4l-0.2,0.5c-0.2,0.4-0.5,0.7-0.8,1
				c-0.7-0.6-1.6-1-2.2-1.2C17.6,90.9,16.7,90.5,15.8,90.4z"/>
			<path class="socks-path" id="Path_4458_1_" d="M20.2,93.2c-0.7-0.7-1.6-1.1-2.3-1.4c-0.7-0.3-1.6-0.7-2.6-0.8c-1.1-0.1-2.2,0.6-2.5,1.6
				c-0.7,1.5-0.7,3.2-0.2,4.8c0.4,1.2,1.1,2.3,1.7,2.6c0.6,0.3,1.9,0.1,3.1-0.5c1.5-0.7,2.7-1.9,3.3-3.4
				C21.2,95.1,21,93.9,20.2,93.2z M14.8,93.5c-0.2-0.1-0.3-0.3-0.2-0.4s0.3-0.3,0.4-0.2c0.2,0.1,0.3,0.3,0.2,0.4l0,0l0,0
				C15.2,93.5,15,93.6,14.8,93.5L14.8,93.5z M15.1,95.6c-0.2-0.1-0.2-0.3-0.2-0.4C15,95,15.2,95,15.3,95c0.2,0.1,0.2,0.3,0.2,0.4
				l0,0C15.4,95.6,15.2,95.7,15.1,95.6z M15.3,97.7c-0.2-0.1-0.2-0.3-0.2-0.4c0.1-0.2,0.3-0.2,0.4-0.2c0.2,0.1,0.2,0.3,0.2,0.4l0,0
				C15.7,97.7,15.5,97.8,15.3,97.7L15.3,97.7z M16.8,94.4c-0.2-0.1-0.2-0.3-0.2-0.4c0.1-0.2,0.3-0.2,0.4-0.2
				c0.2,0.1,0.2,0.3,0.2,0.4l0,0C17.2,94.4,17,94.5,16.8,94.4z M17.1,96.5c-0.2-0.1-0.3-0.3-0.2-0.4s0.3-0.3,0.4-0.2
				s0.3,0.3,0.2,0.4l0,0C17.4,96.5,17.2,96.6,17.1,96.5z M18.8,95.3c-0.2-0.1-0.2-0.3-0.2-0.4s0.3-0.2,0.4-0.2
				c0.2,0.1,0.2,0.3,0.2,0.4l0,0C19.2,95.3,19,95.3,18.8,95.3L18.8,95.3L18.8,95.3L18.8,95.3z"/>
		</g>
	</g>
	<g id="圖層_2_4_">
		<g id="圖層_1-2_3_">
			<path class="socks-path" d="M62.8,55.7c0.5,0.2,1.1,0.5,1.6,0.8c-0.3-0.6-0.5-1.2-0.7-1.8c-0.2,0.1-0.4,0.2-0.6,0.3c-0.1-0.8-0.6-1.5-1.4-1.8
				L61.3,53c-0.2-0.1-0.4,0-0.4,0.2l-0.2,0.5c-0.2,0.4-0.2,0.8-0.2,1.3C61.3,55,62.2,55.4,62.8,55.7z"/>
			<path class="socks-path" d="M63.2,63.4c1.3-1.7,2-3.6,1.6-5.7c-0.7-0.6-1.6-1-2.2-1.3c-0.7-0.3-1.6-0.7-2.6-0.8c-1.1-0.1-2.2,0.6-2.5,1.6
				c-0.7,1.5-0.7,3.2-0.2,4.8c0.4,1.2,1.1,2.3,1.7,2.6c0.6,0.3,1.9,0.1,3.1-0.5C62.5,63.9,62.9,63.6,63.2,63.4z M63.2,59.3
				c0.1-0.2,0.3-0.2,0.4-0.2c0.2,0.1,0.2,0.3,0.2,0.4c-0.1,0.2-0.3,0.2-0.4,0.2l0,0C63.2,59.7,63.2,59.5,63.2,59.3z M59.4,58
				c-0.2-0.1-0.3-0.3-0.2-0.4c0.1-0.2,0.3-0.3,0.4-0.2s0.3,0.3,0.2,0.4l0,0C59.8,58,59.6,58.1,59.4,58L59.4,58z M59.5,59.7
				c0.1-0.2,0.3-0.2,0.4-0.2s0.2,0.3,0.2,0.4l0,0c-0.1,0.2-0.3,0.2-0.4,0.2C59.5,60.1,59.5,59.9,59.5,59.7z M60.4,62.1L60.4,62.1
				c-0.1,0.2-0.3,0.2-0.4,0.2l0,0c-0.2-0.1-0.2-0.3-0.2-0.4s0.3-0.2,0.4-0.2S60.5,61.9,60.4,62.1z M61.3,58.5
				c0.1-0.2,0.3-0.2,0.4-0.2c0.2,0.1,0.2,0.3,0.2,0.4c-0.1,0.2-0.3,0.2-0.4,0.2C61.3,58.8,61.2,58.6,61.3,58.5z M61.7,61
				c-0.2-0.1-0.3-0.3-0.2-0.4c0.1-0.2,0.3-0.3,0.4-0.2c0.2,0.1,0.3,0.3,0.2,0.4l0,0C62.1,61,61.9,61.1,61.7,61z"/>
		</g>
	</g>
	<g id="圖層_2_5_">
		<g id="圖層_1-2_5_">
			<path class="socks-path" id="Path_4457_3_" d="M32.2,29.8c-0.1-0.4,0-0.9,0.2-1.3l0.2-0.5l0,0c0.1-0.2,0.3-0.2,0.4-0.2l0.5,0.2
				c0.7,0.3,1.3,1,1.4,1.8c0.7-0.5,1.5-0.6,2.3-0.2l0.5,0.2l0,0c0.2,0.1,0.2,0.3,0.2,0.4l-0.2,0.5c-0.2,0.4-0.5,0.7-0.8,1
				c-0.7-0.6-1.6-1-2.2-1.2C34,30.3,33.2,29.9,32.2,29.8z"/>
			<path class="socks-path" d="M36.7,32.5c-0.7-0.7-1.6-1.1-2.3-1.4s-1.6-0.7-2.6-0.8c-0.4,0-0.7,0-1,0.1c0,1.1,0.1,2.2,0.2,3.3
				c0.2,0.5,0.3,1.1,0.2,1.7c0,0.2-0.1,0.3-0.1,0.5c0.1,1.1,0.1,2.3,0,3.4c0.7,0.1,1.7-0.1,2.7-0.6c1.5-0.7,2.7-1.9,3.3-3.4
				C37.7,34.5,37.5,33.3,36.7,32.5z M31.3,32.9c-0.2-0.1-0.3-0.3-0.2-0.4c0.1-0.2,0.3-0.3,0.4-0.2c0.2,0.1,0.3,0.3,0.2,0.4l0,0
				C31.6,32.9,31.4,33,31.3,32.9L31.3,32.9z M31.3,34.5c0.1-0.2,0.3-0.2,0.4-0.2c0.2,0.1,0.2,0.3,0.2,0.4l0,0
				c-0.1,0.2-0.3,0.2-0.4,0.2C31.3,34.9,31.3,34.7,31.3,34.5z M32.2,36.9L32.2,36.9c-0.1,0.2-0.3,0.2-0.4,0.2l0,0
				c-0.2-0.1-0.2-0.3-0.2-0.4s0.3-0.2,0.4-0.2C32.2,36.5,32.3,36.7,32.2,36.9z M33.1,33.3c0.1-0.2,0.3-0.2,0.4-0.2
				c0.2,0.1,0.2,0.3,0.2,0.4c-0.1,0.2-0.3,0.2-0.4,0.2C33.1,33.7,33,33.5,33.1,33.3z M34,35.7L34,35.7c-0.1,0.2-0.3,0.3-0.4,0.2
				c-0.2-0.1-0.3-0.3-0.2-0.4c0.1-0.2,0.3-0.3,0.4-0.2C34,35.3,34,35.5,34,35.7z M35.7,34.5c-0.1,0.2-0.3,0.2-0.4,0.2l0,0
				c-0.2-0.1-0.2-0.3-0.2-0.4s0.3-0.2,0.4-0.2C35.7,34.1,35.8,34.3,35.7,34.5z"/>
		</g>
	</g>
	<g id="圖層_2_6_">
		<g id="圖層_1-2_11_">
			<path class="socks-path" id="Path_4457_7_" d="M50.2,39.1c-0.1-0.4,0-0.9,0.2-1.3l0.2-0.5l0,0c0.1-0.2,0.3-0.2,0.4-0.2l0.5,0.2
				c0.7,0.3,1.3,1,1.4,1.8c0.7-0.5,1.5-0.6,2.3-0.2l0.5,0.2l0,0c0.2,0.1,0.2,0.3,0.2,0.4L55.7,40c-0.2,0.4-0.5,0.7-0.8,1
				c-0.7-0.6-1.6-1-2.2-1.2C52,39.6,51.1,39.2,50.2,39.1z"/>
			<path class="socks-path" id="Path_4458_4_" d="M54.7,41.8c-0.7-0.7-1.6-1.1-2.3-1.4c-0.7-0.3-1.6-0.7-2.6-0.8c-1.1-0.1-2.2,0.6-2.5,1.6
				c-0.7,1.5-0.7,3.2-0.2,4.8c0.4,1.2,1.1,2.3,1.7,2.6c0.6,0.3,1.9,0.1,3.1-0.5c1.5-0.7,2.7-1.9,3.3-3.4
				C55.7,43.8,55.5,42.6,54.7,41.8z M49.2,42.2c-0.2-0.1-0.3-0.3-0.2-0.4c0.1-0.2,0.3-0.3,0.4-0.2c0.2,0.1,0.3,0.3,0.2,0.4l0,0l0,0
				C49.6,42.2,49.4,42.3,49.2,42.2L49.2,42.2z M49.5,44.3c-0.2-0.1-0.2-0.3-0.2-0.4c0.1-0.2,0.3-0.2,0.4-0.2
				c0.2,0.1,0.2,0.3,0.2,0.4l0,0C49.9,44.3,49.7,44.4,49.5,44.3z M49.8,46.4c-0.2-0.1-0.2-0.3-0.2-0.4s0.3-0.2,0.4-0.2
				c0.2,0.1,0.2,0.3,0.2,0.4l0,0C50.1,46.4,49.9,46.4,49.8,46.4L49.8,46.4z M51.2,43.1C51,43,51,42.8,51,42.7
				c0.1-0.2,0.3-0.2,0.4-0.2c0.2,0.1,0.2,0.3,0.2,0.4l0,0C51.6,43.1,51.4,43.1,51.2,43.1z M51.5,45.2c-0.2-0.1-0.3-0.3-0.2-0.4
				s0.3-0.3,0.4-0.2s0.3,0.3,0.2,0.4l0,0C51.9,45.1,51.7,45.2,51.5,45.2z M53.2,43.9c-0.2,0-0.2-0.2-0.2-0.4
				c0.1-0.2,0.3-0.2,0.4-0.2c0.2,0.1,0.2,0.3,0.2,0.4l0,0C53.6,43.9,53.4,44,53.2,43.9L53.2,43.9L53.2,43.9L53.2,43.9z"/>
		</g>
	</g>
	<g id="圖層_2_12_">
		<g id="圖層_1-2_12_">
			<path class="socks-path" id="Path_4457_8_" d="M56.8,14.7c-0.1-0.4,0-0.9,0.2-1.3l0.2-0.5l0,0c0.1-0.2,0.3-0.2,0.4-0.2l0.5,0.2
				c0.7,0.3,1.3,1,1.4,1.8c0.7-0.5,1.5-0.6,2.3-0.2l0.5,0.2l0,0c0.2,0.1,0.2,0.3,0.2,0.4l-0.2,0.5c-0.2,0.4-0.5,0.7-0.8,1
				c-0.7-0.6-1.6-1-2.2-1.2S57.7,14.8,56.8,14.7z"/>
			<path class="socks-path" id="Path_4458_5_" d="M61.3,17.4c-0.7-0.7-1.6-1.1-2.3-1.4c-0.7-0.3-1.6-0.7-2.6-0.8c-1.1-0.1-2.2,0.6-2.5,1.6
				c-0.7,1.5-0.7,3.2-0.2,4.8c0.4,1.2,1.1,2.3,1.7,2.6c0.6,0.3,1.9,0.1,3.1-0.5c1.5-0.7,2.7-1.9,3.3-3.4
				C62.3,19.4,62.1,18.2,61.3,17.4z M55.8,17.8c-0.2-0.1-0.3-0.3-0.2-0.4c0.1-0.2,0.3-0.3,0.4-0.2c0.2,0.1,0.3,0.3,0.2,0.4l0,0l0,0
				C56.2,17.8,56,17.9,55.8,17.8L55.8,17.8z M56.1,19.9c-0.2-0.1-0.2-0.3-0.2-0.4c0.1-0.2,0.3-0.2,0.4-0.2c0.2,0.1,0.2,0.3,0.2,0.4
				l0,0C56.5,19.9,56.3,20,56.1,19.9z M56.4,22c-0.2-0.1-0.2-0.3-0.2-0.4c0.1-0.2,0.3-0.2,0.4-0.2c0.2,0.1,0.2,0.3,0.2,0.4l0,0
				C56.7,22,56.5,22.1,56.4,22L56.4,22z M57.8,18.7c-0.2-0.1-0.2-0.3-0.2-0.4s0.3-0.2,0.4-0.2c0.2,0.1,0.2,0.3,0.2,0.4l0,0
				C58.2,18.7,58,18.7,57.8,18.7z M58.1,20.8c-0.2-0.1-0.3-0.3-0.2-0.4s0.3-0.3,0.4-0.2c0.2,0.1,0.3,0.3,0.2,0.4l0,0
				C58.5,20.8,58.3,20.8,58.1,20.8z M59.8,19.5c-0.2-0.1-0.2-0.3-0.2-0.4s0.3-0.2,0.4-0.2c0.2,0.1,0.2,0.3,0.2,0.4l0,0
				C60.2,19.5,60,19.6,59.8,19.5L59.8,19.5L59.8,19.5L59.8,19.5z"/>
		</g>
	</g>
	<g id="圖層_2_13_">
		<g id="圖層_1-2_13_">
			<path class="socks-path" id="Path_4457_9_" d="M36.2,7.4c-0.1-0.4,0-0.9,0.2-1.3l0.2-0.5l0,0c0.1-0.2,0.3-0.2,0.4-0.2l0.5,0.2c0.7,0.3,1.3,1,1.4,1.8
				c0.7-0.5,1.5-0.6,2.3-0.2l0.5,0.2l0,0c0.2,0.1,0.2,0.3,0.2,0.4l-0.2,0.5c-0.2,0.4-0.5,0.7-0.8,1c-0.7-0.6-1.6-1-2.2-1.2
				C37.9,7.9,37.1,7.5,36.2,7.4z"/>
			<path class="socks-path" id="Path_4458_11_" d="M40.6,10.2c-0.7-0.7-1.6-1.1-2.3-1.4c-0.7-0.3-1.6-0.7-2.6-0.8c-1.1-0.1-2.2,0.6-2.5,1.6
				c-0.7,1.5-0.7,3.2-0.2,4.8c0.4,1.2,1.1,2.3,1.7,2.6c0.6,0.3,1.9,0.1,3.1-0.5c1.5-0.7,2.7-1.9,3.3-3.4
				C41.6,12.1,41.4,10.9,40.6,10.2z M35.2,10.5c-0.2-0.1-0.3-0.3-0.2-0.4c0.1-0.2,0.3-0.3,0.4-0.2c0.2,0.1,0.3,0.3,0.2,0.4l0,0l0,0
				C35.6,10.5,35.4,10.6,35.2,10.5L35.2,10.5z M35.4,12.6c-0.2-0.1-0.2-0.3-0.2-0.4c0.1-0.2,0.3-0.2,0.4-0.2
				c0.2,0.1,0.2,0.3,0.2,0.4l0,0C35.8,12.6,35.6,12.7,35.4,12.6z M35.7,14.7c-0.2-0.1-0.2-0.3-0.2-0.4s0.3-0.2,0.4-0.2
				s0.2,0.3,0.2,0.4l0,0C36.1,14.7,35.9,14.8,35.7,14.7L35.7,14.7z M37.2,11.4C37,11.3,37,11.1,37,11c0.1-0.2,0.3-0.2,0.4-0.2
				c0.2,0.1,0.2,0.3,0.2,0.4l0,0C37.5,11.4,37.3,11.5,37.2,11.4z M37.4,13.5c-0.2-0.1-0.3-0.3-0.2-0.4s0.3-0.3,0.4-0.2
				c0.2,0.1,0.3,0.3,0.2,0.4l0,0C37.8,13.5,37.6,13.6,37.4,13.5z M39.2,12.3C39,12.2,38.9,12,39,11.8s0.3-0.2,0.4-0.2
				c0.2,0.1,0.2,0.3,0.2,0.4l0,0C39.5,12.3,39.3,12.3,39.2,12.3L39.2,12.3L39.2,12.3L39.2,12.3z"/>
		</g>
	</g>
	<g id="圖層_2_14_">
		<g id="圖層_1-2_14_">
			<path class="socks-path" d="M55.5,2.7L55.5,2.7L55.5,2.7C55.4,3,55.2,3,55,3l0,0c-0.2-0.1-0.2-0.2-0.2-0.4c-1-0.2-1.9-0.4-2.8-0.7
				c0.1,0.3,0.1,0.6,0.2,0.9C52.6,4,53.3,5,54,5.3s1.9,0.1,3.1-0.5c0.9-0.4,1.6-1,2.2-1.7C58,3.1,56.7,2.9,55.5,2.7z"/>
		</g>
	</g>
	<g id="圖層_2_81_">
		<g id="圖層_1-2_80_">
			<path class="socks-path" id="Path_4457_28_" d="M34.5,58c-0.1-0.4,0-0.9,0.2-1.3l0.2-0.5l0,0C35,56,35.2,56,35.3,56l0.5,0.2c0.7,0.3,1.3,1,1.4,1.8
				c0.7-0.5,1.5-0.6,2.3-0.2L40,58l0,0c0.2,0.1,0.2,0.3,0.2,0.4L39.9,59c-0.2,0.4-0.5,0.7-0.8,1c-0.7-0.6-1.6-1-2.2-1.2
				C36.3,58.5,35.4,58.1,34.5,58z"/>
			<path class="socks-path" id="Path_4458_47_" d="M38.9,60.8c-0.7-0.7-1.6-1.1-2.3-1.4c-0.7-0.3-1.6-0.7-2.6-0.8c-1.1-0.1-2.2,0.6-2.5,1.6
				c-0.7,1.5-0.7,3.2-0.2,4.8c0.4,1.2,1.1,2.3,1.7,2.6c0.6,0.3,1.9,0.1,3.1-0.5c1.5-0.7,2.7-1.9,3.3-3.4
				C40,62.8,39.8,61.5,38.9,60.8z M33.5,61.1c-0.2-0.1-0.3-0.3-0.2-0.4c0.1-0.2,0.3-0.3,0.4-0.2C34,60.6,34,60.8,34,61l0,0l0,0
				C33.9,61.1,33.7,61.2,33.5,61.1L33.5,61.1z M33.8,63.2c-0.2-0.1-0.2-0.3-0.2-0.4c0.1-0.2,0.3-0.2,0.4-0.2
				c0.2,0.1,0.2,0.3,0.2,0.4l0,0C34.2,63.2,34,63.3,33.8,63.2z M34.1,65.3c-0.2-0.1-0.2-0.3-0.2-0.4s0.3-0.2,0.4-0.2
				c0.2,0.1,0.2,0.3,0.2,0.4l0,0C34.4,65.3,34.2,65.4,34.1,65.3L34.1,65.3z M35.5,62c-0.2-0.1-0.2-0.3-0.2-0.4s0.3-0.2,0.4-0.2
				c0.2,0.1,0.2,0.3,0.2,0.4l0,0C35.9,62,35.7,62.1,35.5,62z M35.8,64.1c-0.2-0.1-0.3-0.3-0.2-0.4s0.3-0.3,0.4-0.2
				c0.2,0.1,0.3,0.3,0.2,0.4l0,0C36.2,64.1,36,64.2,35.8,64.1z M37.5,62.9c-0.2-0.1-0.2-0.3-0.2-0.4c0.1-0.2,0.3-0.2,0.4-0.2
				c0.2,0.1,0.2,0.3,0.2,0.4l0,0C37.9,62.9,37.7,63,37.5,62.9L37.5,62.9L37.5,62.9L37.5,62.9z"/>
		</g>
	</g>
</g>
<g id="圖層_2_3_">
	<g id="圖層_1-2_2_">
		<g id="Path_4454_1_">
			<path class="socks-border" d="M16.6,108c-2.6,0-5.4-0.6-8-1.7c-4-1.7-7-5.2-7.9-9.5c-0.9-3.7-0.8-7.6,0.3-11.2c1.5-4.7,3.9-8.9,7-12.7
				c3.5-4.6,7.5-8.9,11.4-13.2l2.1-2.3c2.6-2.8,4.7-5.2,6.6-7.8c1.4-1.8,2.1-4,2-6.3C30,35,29.9,26.7,29.8,18.5
				c0-3.8,0-7.8-0.1-11.7c-0.2-2.1,1.1-4,3-4.7c1.6-0.7,3.3-1.2,5-1.4c6.3-1,12.8-0.9,19.2,0.2c1.6,0.3,3.1,0.8,4.6,1.3
				c1.6,0.4,2.7,1.9,2.5,3.6c-0.1,1.5-0.2,3-0.2,4.5c-0.1,2.1-0.2,4.2-0.3,6.2c-0.7,8.9-0.6,18,0.1,26.9c0.3,3.4,1,6.8,1.7,10.2
				l0.3,1.6c0.3,1.4,0.5,2.8,0.5,4.3c0.1,2.8-1.2,5.5-3.4,7.2c-1.8,1.4-3.8,2.5-5.9,3.5c-4.7,2.2-8.8,5.5-12,9.6
				c-2.3,3.3-4.5,6.8-6.3,10.4c-1.9,3.5-4,6.9-6.4,10.1C28,105.3,22.5,108,16.6,108z M46.9,3c-2.9,0-5.8,0.2-8.7,0.7
				c-1.5,0.2-2.9,0.6-4.3,1.2h-0.1c-0.7,0.2-1.2,0.9-1.1,1.7v0.1c0.1,3.9,0.1,8,0.1,11.8c0.1,8.1,0.2,16.5,0.3,24.7
				c0.1,2.9-0.9,5.8-2.7,8.2c-2,2.7-4.2,5.1-6.8,8l-2.1,2.3c-3.8,4.2-7.8,8.5-11.2,13c-2.9,3.5-5.1,7.5-6.5,11.7
				c-1,3.1-1,6.5-0.2,9.7c0.7,3.4,3,6.1,6.1,7.4c7.4,3.1,14.9,1.2,19.9-5.3c2.3-3,4.3-6.2,6.1-9.6c1.9-3.8,4.1-7.4,6.6-10.9
				c3.5-4.5,8.1-8.1,13.2-10.5c1.9-0.9,3.7-1.9,5.4-3.2c1.5-1.1,2.3-2.8,2.2-4.6l0,0c-0.1-1.3-0.2-2.6-0.5-3.8L62.3,54
				c-0.7-3.4-1.4-6.9-1.7-10.5c-0.8-9.1-0.8-18.3-0.1-27.4c0.1-2,0.2-4.1,0.3-6.2c0.1-1.5,0.2-3,0.2-4.5V5.3C61,5.2,60.9,5,60.8,5
				h-0.1c-1.4-0.5-2.8-0.9-4.3-1.2C53.3,3.3,50.1,3,46.9,3z"/>
		</g>
	</g>
</g>
</svg>
