<?xml version="1.0" encoding="utf-8"?>
<!-- Generator: Adobe Illustrator 24.2.3, SVG Export Plug-In . SVG Version: 6.00 Build 0)  -->
<svg class="diy-area transition pattern-rhombus" version="1.1" id="pattern-rhombus" xmlns="http://www.w3.org/2000/svg" xmlns:xlink="http://www.w3.org/1999/xlink" x="0px"
	 y="0px" viewBox="0 0 66.1 108" style="enable-background:new 0 0 66.1 108;" xml:space="preserve">
<style type="text/css">
	.socks-color{fill:#FFFFFF;stroke:#404040;stroke-width:3;}
	.socks-path{fill:#404040;}
	.socks-border{fill:#404040;}
</style>
<path id="Path_4445" class="socks-color" d="M64.6,59.5c0.1,2.3-1,4.5-2.8,5.9c-1.8,1.3-3.7,2.4-5.7,3.3c-4.9,2.3-9.2,5.7-12.6,10
	c-2.4,3.4-4.6,7-6.5,10.7c-1.8,3.4-3.9,6.7-6.3,9.8c-5.4,6.9-13.6,9.1-21.7,5.7c-3.6-1.5-6.2-4.7-7-8.5C1.2,93,1.3,89.4,2.4,86
	c1.4-4.5,3.7-8.6,6.7-12.2c4.2-5.4,8.8-10.4,13.4-15.4c2.3-2.6,4.6-5.2,6.7-7.9c1.6-2.1,2.4-4.6,2.4-7.2c-0.1-8.2-0.2-16.5-0.3-24.7
	c0-3.9,0-7.9-0.1-11.8c-0.1-1.4,0.7-2.8,2.1-3.3c1.5-0.7,3.1-1.1,4.7-1.3c6.2-1,12.5-0.9,18.7,0.2c1.5,0.3,3,0.7,4.5,1.3
	c0.9,0.2,1.5,1.1,1.4,2c-0.2,3.6-0.4,7.2-0.6,10.8c-0.7,9-0.6,18.1,0.1,27.1c0.4,4,1.2,8,2,11.9C64.3,56.8,64.5,58.1,64.6,59.5z"/>
<g>
	<g id="圖層_2_37_">
		<g id="圖層_1-2_36_">
			<path class="socks-path" d="M63.1,5.6l-5.8,5.8l5.4,5.4C62.7,13.1,63,9.4,63.1,5.6z"/>
		</g>
	</g>
	<g id="圖層_2_36_">
		<g id="圖層_1-2_35_">
			<path class="socks-path" d="M61.8,37.5c0.3-2.7,0.5-5.4,0.6-8.1l-5,5l4.5,4.5C61.8,38.5,61.7,38,61.8,37.5z"/>
		</g>
	</g>
	<g id="圖層_2_35_">
		<g id="圖層_1-2_30_">
			<path class="socks-path" d="M63.3,62.9c1.4-1.6,2-3.2,2.3-4.9c0-0.1,0-0.3,0-0.4c0-2.4-1.5-4.2-1.9-6.5c0-0.1,0-0.1,0-0.2l-6.3,6.3
				l5.8,5.8C63.2,63,63.2,63,63.3,62.9z"/>
		</g>
	</g>
	<g id="圖層_2_27_">
		<g id="圖層_1-2_24_">
			<path class="socks-path" d="M47.3,1.5c-0.1,0-0.2,0-0.3,0h-2.7l-9.9,9.9l11.5,11.5l11.5-11.5L47.3,1.5z"/>
		</g>
	</g>
	<g id="圖層_2_24_">
		<g id="圖層_1-2_23_">
			
				<rect id="Rectangle_87_16_" x="37.7" y="26.3" transform="matrix(0.7071 -0.7071 0.7071 0.7071 -10.8831 42.4652)" class="socks-path" width="16.2" height="16.2"/>
		</g>
	</g>
	<g id="圖層_2_23_">
		<g id="圖層_1-2_20_">
			
				<rect id="Rectangle_87_15_" x="37.7" y="49.2" transform="matrix(0.7071 -0.7071 0.7071 0.7071 -27.1255 49.1512)" class="socks-path" width="16.2" height="16.2"/>
		</g>
	</g>
	<path class="socks-path" d="M45.9,76.7c1.2-1.6,2.7-2.9,4.2-3.7l-4.3-4.3L34.4,80.3l5.7,5.7C41.3,82.5,43.6,79.7,45.9,76.7z"/>
	<g id="圖層_2_19_">
		<g id="圖層_1-2_17_">
			<path class="socks-path" d="M34.4,11.4L31,8c0.2,1,0.3,2.1,0.3,3.1c0.1,1.1,0.1,2.2,0,3.4L34.4,11.4z"/>
		</g>
	</g>
	<g id="圖層_2_18_">
		<g id="圖層_1-2_16_">
			<path class="socks-path" d="M30.6,30.6c0,0.3,0,0.5,0,0.8c-0.2,2.2,0.1,4.4,0.2,6.6l3.6-3.6L30.6,30.6z"/>
		</g>
	</g>
	<g id="圖層_2_17_">
		<g id="圖層_1-2_15_">
			<path class="socks-path" d="M27.7,50.6c-0.6,1.8-1.8,3.4-3.4,4.8c-0.3,0.2-0.5,0.5-0.8,0.7c-0.1,0.7-0.2,1.4-0.6,2.1
				c-1,2.3-2.8,4.2-5,5.6l5,5l11.5-11.5L27.7,50.6z"/>
		</g>
	</g>
	
		<rect id="Rectangle_87_9_" x="14.8" y="72.2" transform="matrix(0.7071 -0.7071 0.7071 0.7071 -50.0833 39.7241)" class="socks-path" width="16.2" height="16.2"/>
	<g id="圖層_2_14_">
		<g id="圖層_1-2_13_">
			<path class="socks-path" d="M30.4,99.2l-7.5-7.5l-11.5,11.5l3.4,3.4c2.2-0.4,4.4-0.4,6.7-0.5c0.4-0.7,0.9-1.3,1.7-1.8
				c2.1-1.4,4.1-2.5,6.3-3.6C29.7,100.2,30,99.7,30.4,99.2z"/>
		</g>
	</g>
	<g id="圖層_2_5_">
		<g id="圖層_1-2_4_">
			<path class="socks-path" d="M7.1,75.9c-1.8,2.4-3.5,5.1-4.8,7.9c0,0.1,0,0.2,0,0.3c-0.3,2.1-0.5,4.2-1,6.3l10.2-10.2L7.1,75.9z"/>
		</g>
	</g>
	<g id="圖層_2_4_">
		<g id="圖層_1-2_3_">
			<path class="socks-path" d="M7.3,103.9c0.4,0.3,0.7,0.6,1,1c0.4,0.1,0.8,0.2,1.2,0.3l2-2L0.6,92.4c0,0.3,0.1,0.5,0.1,0.8
				c0.1,2.5,0.2,5.1,1.9,7.1C3.8,101.8,5.8,102.6,7.3,103.9z"/>
		</g>
	</g>
</g>
<g id="圖層_2_3_">
	<g id="圖層_1-2_2_">
		<g id="Path_4454_1_">
			<path class="socks-border" d="M16.6,108c-2.6,0-5.4-0.6-8-1.7c-4-1.7-7-5.2-7.9-9.5c-0.9-3.7-0.8-7.6,0.3-11.2c1.5-4.7,3.9-8.9,7-12.7
				c3.5-4.6,7.5-8.9,11.4-13.2l2.1-2.3c2.6-2.8,4.7-5.2,6.6-7.8c1.4-1.8,2.1-4,2-6.3C30,35,29.9,26.7,29.8,18.5
				c0-3.8,0-7.8-0.1-11.7c-0.2-2.1,1.1-4,3-4.7c1.6-0.7,3.3-1.2,5-1.4c6.3-1,12.8-0.9,19.2,0.2c1.6,0.3,3.1,0.8,4.6,1.3
				c1.6,0.4,2.7,1.9,2.5,3.6c-0.1,1.5-0.2,3-0.2,4.5c-0.1,2.1-0.2,4.2-0.3,6.2c-0.7,8.9-0.6,18,0.1,26.9c0.3,3.4,1,6.8,1.7,10.2
				l0.3,1.6c0.3,1.4,0.5,2.8,0.5,4.3c0.1,2.8-1.2,5.5-3.4,7.2c-1.8,1.4-3.8,2.5-5.9,3.5c-4.7,2.2-8.8,5.5-12,9.6
				c-2.3,3.3-4.5,6.8-6.3,10.4c-1.9,3.5-4,6.9-6.4,10.1C28,105.3,22.5,108,16.6,108z M46.9,3c-2.9,0-5.8,0.2-8.7,0.7
				c-1.5,0.2-2.9,0.6-4.3,1.2h-0.1c-0.7,0.2-1.2,0.9-1.1,1.7v0.1c0.1,3.9,0.1,8,0.1,11.8c0.1,8.1,0.2,16.5,0.3,24.7
				c0.1,2.9-0.9,5.8-2.7,8.2c-2,2.7-4.2,5.1-6.8,8l-2.1,2.3c-3.8,4.2-7.8,8.5-11.2,13c-2.9,3.5-5.1,7.5-6.5,11.7
				c-1,3.1-1,6.5-0.2,9.7c0.7,3.4,3,6.1,6.1,7.4c7.4,3.1,14.9,1.2,19.9-5.3c2.3-3,4.3-6.2,6.1-9.6c1.9-3.8,4.1-7.4,6.6-10.9
				c3.5-4.5,8.1-8.1,13.2-10.5c1.9-0.9,3.7-1.9,5.4-3.2c1.5-1.1,2.3-2.8,2.2-4.6l0,0c-0.1-1.3-0.2-2.6-0.5-3.8L62.3,54
				c-0.7-3.4-1.4-6.9-1.7-10.5c-0.8-9.1-0.8-18.3-0.1-27.4c0.1-2,0.2-4.1,0.3-6.2c0.1-1.5,0.2-3,0.2-4.5V5.3C61,5.2,60.9,5,60.8,5
				h-0.1c-1.4-0.5-2.8-0.9-4.3-1.2C53.3,3.3,50.1,3,46.9,3z"/>
		</g>
	</g>
</g>
</svg>
