<?xml version="1.0" encoding="utf-8"?>
<!-- Generator: Adobe Illustrator 24.2.3, SVG Export Plug-In . SVG Version: 6.00 Build 0)  -->
<svg class="diy-area transition pattern-cherry" version="1.1" id="pattern-cherry" xmlns="http://www.w3.org/2000/svg" xmlns:xlink="http://www.w3.org/1999/xlink" x="0px"
	 y="0px" viewBox="0 0 66.1 108" style="enable-background:new 0 0 66.1 108;" xml:space="preserve">
<style type="text/css">
	.socks-color{fill:#FFFFFF;stroke:#404040;stroke-width:3;}
	.socks-path{fill:#404040;}
	.socks-border{fill:#404040;}
</style>
<path id="Path_4445" class="socks-color" d="M64.6,59.5c0.1,2.3-1,4.5-2.8,5.9c-1.8,1.3-3.7,2.4-5.7,3.3c-4.9,2.3-9.2,5.7-12.6,10
	c-2.4,3.4-4.6,7-6.5,10.7c-1.8,3.4-3.9,6.7-6.3,9.8c-5.4,6.9-13.6,9.1-21.7,5.7c-3.6-1.5-6.2-4.7-7-8.5C1.2,93,1.3,89.4,2.4,86
	c1.4-4.5,3.7-8.6,6.7-12.2c4.2-5.4,8.8-10.4,13.4-15.4c2.3-2.6,4.6-5.2,6.7-7.9c1.6-2.1,2.4-4.6,2.4-7.2c-0.1-8.2-0.2-16.5-0.3-24.7
	c0-3.9,0-7.9-0.1-11.8c-0.1-1.4,0.7-2.8,2.1-3.3c1.5-0.7,3.1-1.1,4.7-1.3c6.2-1,12.5-0.9,18.7,0.2c1.5,0.3,3,0.7,4.5,1.3
	c0.9,0.2,1.5,1.1,1.4,2c-0.2,3.6-0.4,7.2-0.6,10.8c-0.7,9-0.6,18.1,0.1,27.1c0.4,4,1.2,8,2,11.9C64.3,56.8,64.5,58.1,64.6,59.5z"/>
<g>
	<g id="圖層_2_114_">
		<g id="圖層_1-2_113_">
			<g id="cherry_91_">
				<path id="Path_4465_91_" class="socks-path" d="M61.3,38.5c-0.5-0.4-1.1-0.5-1.7-0.4c-1-0.7-1.9-1.5-2.7-2.4c0.3,0,0.5-0.1,0.8-0.1
					c0.2,0,0.3-0.1,0.5-0.2c0.4-0.3,0.8-1.1,0.9-1.6l0,0c0.1-0.4-0.2-0.8-0.6-0.9l0,0c-0.4,0-0.7,0-1.1,0c-0.2-0.3-0.4-0.6-0.7-0.9
					c-0.3-0.3-0.8-0.3-1.1,0.1l0,0l0,0c-0.4,0.4-0.7,1.2-0.7,1.8c0,0.4,0.3,1,0.7,1.4c-0.8,1.4-1.3,3-1.5,4.6
					c-1.1,0.5-1.6,1.7-1.1,2.8s1.7,1.6,2.8,1.1s1.6-1.7,1.1-2.8c-0.4-0.8-1.2-1.3-2.1-1.3c0.2-1.3,0.7-2.6,1.3-3.9
					c0.8,1,1.7,1.9,2.7,2.6c-1,0.7-1.2,2-0.6,3c0.7,1,2,1.2,3,0.5s1.2-2,0.6-3C61.6,38.8,61.4,38.6,61.3,38.5z M54,41.6
					c-0.3,0.1-0.5-0.1-0.6-0.3c-0.1-0.3,0.1-0.5,0.3-0.6c0.3-0.1,0.5,0.1,0.6,0.3C54.4,41.2,54.2,41.5,54,41.6z M55.8,34.3
					c-0.1-0.2-0.2-0.3-0.2-0.5c0-0.3,0.2-0.9,0.5-1.3h0.1l0,0l0,0c0.2,0.2,0.3,0.4,0.5,0.6c0,0-0.1,0-0.1,0.1
					C56.2,33.4,55.9,33.8,55.8,34.3z M56.4,34.9C56.3,34.9,56.3,34.9,56.4,34.9c0.1-0.5,0.4-1.1,0.6-1.3c0.1-0.1,0.2-0.1,0.3-0.1
					l0,0c0.3-0.1,0.7-0.1,1.1-0.1c0,0,0.1,0,0.1,0.1l0,0l0,0c-0.1,0.5-0.4,1-0.6,1.2S56.9,35,56.4,34.9C56.4,35,56.4,35,56.4,34.9
					L56.4,34.9z M59.1,40c-0.3,0.1-0.5-0.1-0.6-0.3c-0.1-0.3,0.1-0.5,0.3-0.6c0.3-0.1,0.5,0.1,0.6,0.3C59.5,39.6,59.4,39.9,59.1,40
					L59.1,40L59.1,40z"/>
			</g>
		</g>
	</g>
	<g id="圖層_2_75_">
		<g id="圖層_1-2_74_">
			<g id="cherry_52_">
				<path class="socks-path" d="M55.8,69.7c-0.1-0.3,0.1-0.5,0.3-0.6s0.3,0,0.4,0.1c0.5-0.3,1-0.6,1.6-0.9c-0.3-0.1-0.6-0.2-1-0.2
					c0.2-1.3,0.7-2.6,1.3-3.9c0.8,1,1.7,1.9,2.7,2.6c-0.1,0.1-0.2,0.1-0.3,0.2c0.4-0.2,0.8-0.4,1.1-0.6h-0.1c-1-0.7-1.9-1.5-2.7-2.4
					c0.3,0,0.5-0.1,0.8-0.1c0.2,0,0.3-0.1,0.5-0.2c0.4-0.3,0.8-1.1,0.9-1.6c0.1-0.4-0.2-0.8-0.6-0.9l0,0c-0.4,0-0.7,0-1.1,0
					c-0.2-0.3-0.4-0.6-0.7-0.9c-0.3-0.3-0.8-0.3-1.1,0.1l0,0l0,0c-0.4,0.4-0.7,1.2-0.7,1.8c0,0.4,0.3,1,0.7,1.4
					c-0.8,1.4-1.3,3-1.5,4.6c-0.8,0.3-1.2,1.1-1.3,1.9C55.4,70,55.6,69.8,55.8,69.7z M59.4,62.2c0.1-0.1,0.2-0.1,0.3-0.1l0,0
					C60,62,60.4,62,60.8,62c0,0,0.1,0,0.1,0.1l0,0c-0.1,0.5-0.4,1-0.6,1.2c-0.2,0.2-0.9,0.3-1.3,0.2l0,0l0,0c0,0,0,0,0-0.1
					C58.9,62.9,59.2,62.3,59.4,62.2z M58.5,61C58.5,60.9,58.6,60.9,58.5,61C58.6,61,58.6,61,58.5,61c0.3,0.2,0.4,0.4,0.6,0.6
					c0,0-0.1,0-0.1,0.1c-0.3,0.2-0.6,0.7-0.8,1.2c-0.1-0.2-0.2-0.3-0.2-0.5C58,62,58.2,61.3,58.5,61z"/>
			</g>
		</g>
	</g>
	<g id="圖層_2_48_">
		<g id="圖層_1-2_44_">
			<g id="cherry_33_">
				<path class="socks-path" d="M35.4,4.1c0.1-0.5,0.2-1,0.3-1.5c-0.3,0.1-0.5,0.1-0.8,0.2c-0.1,0.5-0.2,1-0.3,1.4c-1,0.5-1.5,1.8-1.1,2.8
					c0.5,1.1,1.7,1.6,2.8,1.1s1.6-1.7,1.1-2.8C37.1,4.5,36.3,4,35.4,4.1z M34.7,6c-0.3,0.1-0.5-0.1-0.6-0.3
					c-0.1-0.3,0.1-0.5,0.3-0.6s0.5,0,0.6,0.3C35.1,5.6,34.9,5.9,34.7,6z"/>
				<path class="socks-path" d="M41.9,2.9c-0.5-0.4-1.1-0.5-1.7-0.4C40,2.3,39.7,2.2,39.5,2c0,0,0,0-0.1,0c-0.3,0-0.6,0-0.9,0.1h-0.1
					c0.3,0.3,0.6,0.5,0.9,0.8c-1,0.7-1.2,2-0.6,3c0.7,1,2,1.2,3,0.5s1.2-2,0.6-3C42.3,3.2,42.1,3,41.9,2.9z M39.8,4.4L39.8,4.4
					L39.8,4.4c-0.3,0.1-0.5-0.1-0.6-0.3c-0.1-0.3,0.1-0.5,0.3-0.6c0.3-0.1,0.5,0.1,0.6,0.3C40.2,4.1,40,4.3,39.8,4.4z"/>
			</g>
		</g>
	</g>
	<g id="圖層_2_44_">
		<g id="圖層_1-2_43_">
			<g id="cherry_32_">
				<path id="Path_4465_32_" class="socks-path" d="M62,15c-0.5-0.4-1.1-0.5-1.7-0.4c-1-0.7-1.9-1.5-2.7-2.4c0.3,0,0.5-0.1,0.8-0.1
					c0.2,0,0.3-0.1,0.5-0.2c0.4-0.3,0.8-1.1,0.9-1.6l0,0c0.1-0.4-0.2-0.8-0.6-0.9l0,0c-0.4,0-0.7,0-1.1,0c-0.2-0.3-0.4-0.6-0.7-0.9
					c-0.3-0.3-0.8-0.3-1.1,0.1l0,0l0,0c-0.4,0.4-0.7,1.2-0.7,1.8c0,0.4,0.3,1,0.7,1.4c-0.8,1.4-1.3,3-1.5,4.6
					c-1.1,0.5-1.6,1.7-1.1,2.8s1.7,1.6,2.8,1.1s1.6-1.7,1.1-2.8c-0.4-0.8-1.2-1.3-2.1-1.3c0.2-1.3,0.7-2.6,1.3-3.9
					c0.8,1,1.7,1.9,2.7,2.6c-1,0.7-1.2,2-0.6,3c0.7,1,2,1.2,3,0.5s1.2-2,0.6-3C62.4,15.3,62.2,15.1,62,15z M54.7,18.1
					c-0.3,0.1-0.5-0.1-0.6-0.3c-0.1-0.3,0.1-0.5,0.3-0.6c0.3-0.1,0.5,0.1,0.6,0.3C55.2,17.7,55,18,54.7,18.1z M56.5,10.8
					c-0.1-0.2-0.2-0.3-0.2-0.5c0-0.3,0.2-0.9,0.5-1.3h0.1l0,0l0,0c0.2,0.2,0.3,0.4,0.5,0.6c0,0-0.1,0-0.1,0.1
					C57,9.8,56.7,10.3,56.5,10.8z M57.1,11.4L57.1,11.4c0.1-0.5,0.4-1.1,0.6-1.3C57.8,10,57.9,10,58,10l0,0c0.3-0.1,0.7-0.1,1.1-0.1
					c0,0,0.1,0,0.1,0.1l0,0l0,0c-0.1,0.5-0.4,1-0.6,1.2C58.3,11.4,57.6,11.5,57.1,11.4L57.1,11.4L57.1,11.4z M59.9,16.5
					c-0.3,0.1-0.5-0.1-0.6-0.3c-0.1-0.3,0.1-0.5,0.3-0.6c0.3-0.1,0.5,0.1,0.6,0.3S60.1,16.4,59.9,16.5L59.9,16.5L59.9,16.5z"/>
			</g>
		</g>
	</g>
	<g id="圖層_2_38_">
		<g id="圖層_1-2_37_">
			<g id="cherry_28_">
				<path id="Path_4465_28_" class="socks-path" d="M41.9,28.5c-0.5-0.4-1.1-0.5-1.7-0.4c-1-0.7-1.9-1.5-2.7-2.4c0.3,0,0.5-0.1,0.8-0.1
					c0.2,0,0.3-0.1,0.5-0.2c0.4-0.3,0.8-1.1,0.9-1.6l0,0c0.1-0.4-0.2-0.8-0.6-0.9l0,0c-0.4,0-0.7,0-1.1,0c-0.2-0.3-0.4-0.6-0.7-0.9
					s-0.8-0.3-1.1,0.1l0,0l0,0c-0.4,0.4-0.7,1.2-0.7,1.8c0,0.4,0.3,1,0.7,1.4c-0.8,1.4-1.3,3-1.5,4.6c-1.1,0.5-1.6,1.7-1.1,2.8
					c0.5,1.1,1.7,1.6,2.8,1.1s1.6-1.7,1.1-2.8c-0.4-0.8-1.2-1.3-2.1-1.3c0.2-1.3,0.7-2.6,1.3-3.9c0.8,1,1.7,1.9,2.7,2.6
					c-1,0.7-1.2,2-0.6,3c0.7,1,2,1.2,3,0.5s1.2-2,0.6-3C42.3,28.8,42.1,28.7,41.9,28.5z M34.7,31.6c-0.3,0.1-0.5-0.1-0.6-0.3
					c-0.1-0.3,0.1-0.5,0.3-0.6s0.5,0.1,0.6,0.3C35.1,31.3,34.9,31.5,34.7,31.6z M36.4,24.3c-0.1-0.2-0.2-0.3-0.2-0.5
					c0-0.3,0.2-0.9,0.5-1.3h0.1l0,0l0,0c0.2,0.2,0.3,0.4,0.5,0.6c0,0-0.1,0-0.1,0.1C36.9,23.4,36.6,23.9,36.4,24.3z M37,25L37,25
					c0.1-0.5,0.4-1.1,0.6-1.3c0.1-0.1,0.2-0.1,0.3-0.1l0,0c0.3-0.1,0.7-0.1,1.1-0.1c0,0,0.1,0,0.1,0.1l0,0l0,0
					c-0.1,0.5-0.4,1-0.6,1.2C38.2,24.9,37.5,25.1,37,25L37,25L37,25z M39.8,30c-0.3,0.1-0.5-0.1-0.6-0.3s0.1-0.5,0.3-0.6
					s0.5,0.1,0.6,0.3C40.2,29.7,40,29.9,39.8,30L39.8,30L39.8,30z"/>
			</g>
		</g>
	</g>
	<g id="圖層_2_29_">
		<g id="圖層_1-2_28_">
			<g id="cherry_23_">
				<path id="Path_4465_23_" class="socks-path" d="M41.9,54.1c-0.5-0.4-1.1-0.5-1.7-0.4c-1-0.7-1.9-1.5-2.7-2.4c0.3,0,0.5-0.1,0.8-0.1
					c0.2,0,0.3-0.1,0.5-0.2c0.4-0.3,0.8-1.1,0.9-1.6l0,0c0.1-0.4-0.2-0.8-0.6-0.9l0,0c-0.4,0-0.7,0-1.1,0c-0.2-0.3-0.4-0.6-0.7-0.9
					c-0.3-0.3-0.8-0.3-1.1,0.1l0,0l0,0c-0.4,0.4-0.7,1.2-0.7,1.8c0,0.4,0.3,1,0.7,1.4c-0.8,1.4-1.3,3-1.5,4.6
					c-1.1,0.5-1.6,1.7-1.1,2.8s1.7,1.6,2.8,1.1s1.6-1.7,1.1-2.8c-0.4-0.8-1.2-1.3-2.1-1.3c0.2-1.3,0.7-2.6,1.3-3.9
					c0.8,1,1.7,1.9,2.7,2.6c-1,0.7-1.2,2-0.6,3c0.7,1,2,1.2,3,0.5s1.2-2,0.6-3C42.3,54.4,42.1,54.3,41.9,54.1z M34.7,57.2
					c-0.3,0.1-0.5-0.1-0.6-0.3c-0.1-0.3,0.1-0.5,0.3-0.6c0.3-0.1,0.5,0.1,0.6,0.3C35.1,56.9,34.9,57.1,34.7,57.2z M36.4,49.9
					c-0.1-0.2-0.2-0.3-0.2-0.5c0-0.3,0.2-0.9,0.5-1.3h0.1l0,0l0,0c0.2,0.2,0.3,0.4,0.5,0.6c0,0-0.1,0-0.1,0.1
					C36.9,49,36.6,49.5,36.4,49.9z M37,50.6L37,50.6c0.1-0.5,0.4-1.1,0.6-1.3c0.1-0.1,0.2-0.1,0.3-0.1l0,0c0.3-0.1,0.7-0.1,1.1-0.1
					c0,0,0.1,0,0.1,0.1l0,0l0,0c-0.1,0.5-0.4,1-0.6,1.2C38.2,50.6,37.5,50.7,37,50.6L37,50.6L37,50.6z M39.8,55.6
					c-0.3,0.1-0.5-0.1-0.6-0.3c-0.1-0.3,0.1-0.5,0.3-0.6c0.3-0.1,0.5,0.1,0.6,0.3C40.2,55.3,40,55.6,39.8,55.6L39.8,55.6L39.8,55.6z
					"/>
			</g>
		</g>
	</g>
	<g id="圖層_2_28_">
		<g id="圖層_1-2_27_">
			<g id="cherry_22_">
				<path class="socks-path" d="M13.6,68.1c0.1-0.5,0.2-1,0.3-1.4c-0.4,0.6-0.8,1.2-1.2,1.8c-0.2,0.4-0.6,0.6-0.9,0.8
					c-0.3,0.6-0.4,1.2-0.1,1.8c0.5,1.1,1.7,1.6,2.8,1.1s1.6-1.7,1.1-2.8C15.3,68.6,14.5,68.1,13.6,68.1z M12.9,70
					c-0.3,0.1-0.5-0.1-0.6-0.3c-0.1-0.3,0.1-0.5,0.3-0.6c0.3-0.1,0.5,0.1,0.6,0.3C13.3,69.7,13.1,70,12.9,70z"/>
				<path class="socks-path" d="M20.6,67.4c-0.1-0.2-0.3-0.4-0.5-0.5c-0.5-0.4-1.1-0.5-1.7-0.4c-0.9-0.7-1.8-1.4-2.5-2.3
					c-0.1,0.1-0.2,0.2-0.3,0.4c0,0-0.1,0.1-0.1,0.2c0.7,0.8,1.4,1.5,2.2,2.1c-1,0.7-1.2,2-0.6,3c0.7,1,2,1.2,3,0.5
					C21,69.7,21.3,68.4,20.6,67.4z M18,68.5L18,68.5L18,68.5c-0.3,0.1-0.5-0.1-0.6-0.3s0.1-0.5,0.3-0.6c0.3-0.1,0.5,0.1,0.6,0.3
					C18.4,68.1,18.3,68.4,18,68.5z"/>
			</g>
		</g>
	</g>
	<g id="圖層_2_21_">
		<g id="圖層_1-2_19_">
			<g id="cherry_18_">
				<path class="socks-path" d="M40.8,83.6c0.1-0.1,0.2-0.2,0.2-0.3c0.2-0.4,0.4-0.7,0.6-1c0.3-0.5,0.7-1,1-1.4c-0.1-0.2-0.1-0.4-0.3-0.5
					c-0.1-0.2-0.3-0.4-0.5-0.5c-0.5-0.4-1.1-0.5-1.7-0.4c-1-0.7-1.9-1.5-2.7-2.4c0.3,0,0.5-0.1,0.8-0.1c0.2,0,0.3-0.1,0.5-0.2
					c0.4-0.3,0.8-1.1,0.9-1.6c0.1-0.4-0.2-0.8-0.6-0.9l0,0c-0.4,0-0.7,0-1.1,0c-0.2-0.3-0.4-0.6-0.7-0.9c-0.2-0.4-0.7-0.4-1-0.1l0,0
					l0,0c-0.4,0.4-0.7,1.2-0.7,1.8c0,0.4,0.3,1,0.7,1.4c-0.8,1.4-1.3,3-1.5,4.6c-1.1,0.5-1.6,1.7-1.1,2.8c0.5,1.1,1.7,1.6,2.8,1.1
					s1.6-1.7,1.1-2.8c-0.4-0.8-1.2-1.3-2.1-1.3c0.2-1.3,0.7-2.6,1.3-3.9c0.8,1,1.7,1.9,2.7,2.6c-1,0.7-1.2,2-0.6,3
					C39.3,83.3,40.1,83.6,40.8,83.6z M34.7,82.8c-0.3,0.1-0.5-0.1-0.6-0.3c-0.1-0.3,0.1-0.5,0.3-0.6c0.3-0.1,0.5,0.1,0.6,0.3
					C35.1,82.5,34.9,82.8,34.7,82.8z M36.4,75.6c-0.1-0.2-0.2-0.3-0.2-0.5c0-0.3,0.2-0.9,0.5-1.3h0.1l0,0c0.2,0.2,0.3,0.4,0.5,0.6
					c0,0-0.1,0-0.1,0.1C36.9,74.6,36.6,75.1,36.4,75.6z M37.1,76.2C37,76.2,37,76.2,37.1,76.2L37.1,76.2C37,76.2,37,76.2,37.1,76.2
					c0-0.6,0.4-1.1,0.6-1.3c0.1-0.1,0.2-0.1,0.3-0.1l0,0c0.3-0.1,0.7-0.1,1.1-0.1c0,0,0.1,0,0.1,0.1l0,0c-0.1,0.5-0.4,1-0.6,1.2
					S37.5,76.3,37.1,76.2z M39.8,81.3L39.8,81.3L39.8,81.3c-0.3,0.1-0.5-0.1-0.6-0.3c-0.1-0.3,0.1-0.5,0.3-0.6
					c0.3-0.1,0.5,0.1,0.6,0.3C40.2,80.9,40,81.2,39.8,81.3z"/>
			</g>
		</g>
	</g>
	<g id="圖層_2_20_">
		<g id="圖層_1-2_18_">
			<g id="cherry_17_">
				<path id="Path_4465_17_" class="socks-path" d="M20.1,92.6c-0.5-0.4-1.1-0.5-1.7-0.4c-1-0.7-1.9-1.5-2.7-2.4c0.3,0,0.5-0.1,0.8-0.1
					c0.2,0,0.3-0.1,0.5-0.2c0.4-0.3,0.8-1.1,0.9-1.6l0,0c0.1-0.4-0.2-0.8-0.6-0.9l0,0c-0.4,0-0.7,0-1.1,0c-0.2-0.3-0.4-0.6-0.7-0.9
					s-0.8-0.3-1.1,0.1l0,0l0,0c-0.4,0.4-0.7,1.2-0.7,1.8c0,0.4,0.3,1,0.7,1.4c-0.8,1.4-1.3,3-1.5,4.6c-1.1,0.5-1.6,1.7-1.1,2.8
					c0.5,1.1,1.7,1.6,2.8,1.1s1.6-1.7,1.1-2.8c-0.4-0.8-1.2-1.3-2.1-1.3c0.2-1.3,0.7-2.6,1.3-3.9c0.8,1,1.7,1.9,2.7,2.6
					c-1,0.7-1.2,2-0.6,3c0.7,1,2,1.2,3,0.5s1.2-2,0.6-3C20.5,92.9,20.3,92.7,20.1,92.6z M12.9,95.7c-0.3,0.1-0.5-0.1-0.6-0.3
					c-0.1-0.3,0.1-0.5,0.3-0.6c0.3-0.1,0.5,0.1,0.6,0.3S13.1,95.6,12.9,95.7z M14.7,88.4c-0.1-0.2-0.2-0.3-0.2-0.5
					c0-0.3,0.2-0.9,0.5-1.3h0.1l0,0l0,0c0.2,0.2,0.3,0.4,0.5,0.6c0,0-0.1,0-0.1,0.1C15.1,87.4,14.8,87.9,14.7,88.4z M15.2,89
					L15.2,89c0.1-0.5,0.4-1.1,0.6-1.3c0.1-0.1,0.2-0.1,0.3-0.1l0,0c0.3-0.1,0.7-0.1,1.1-0.1c0,0,0.1,0,0.1,0.1l0,0l0,0
					c-0.1,0.5-0.4,1-0.6,1.2C16.4,89,15.8,89.1,15.2,89C15.3,89,15.3,89,15.2,89L15.2,89z M18,94.1c-0.3,0.1-0.5-0.1-0.6-0.3
					c-0.1-0.3,0.1-0.5,0.3-0.6c0.3-0.1,0.5,0.1,0.6,0.3C18.4,93.7,18.3,94,18,94.1L18,94.1L18,94.1z"/>
			</g>
		</g>
	</g>
</g>
<g id="圖層_2_3_">
	<g id="圖層_1-2_2_">
		<g id="Path_4454_1_">
			<path class="socks-border" d="M16.6,108c-2.6,0-5.4-0.6-8-1.7c-4-1.7-7-5.2-7.9-9.5c-0.9-3.7-0.8-7.6,0.3-11.2c1.5-4.7,3.9-8.9,7-12.7
				c3.5-4.6,7.5-8.9,11.4-13.2l2.1-2.3c2.6-2.8,4.7-5.2,6.6-7.8c1.4-1.8,2.1-4,2-6.3C30,35,29.9,26.7,29.8,18.5
				c0-3.8,0-7.8-0.1-11.7c-0.2-2.1,1.1-4,3-4.7c1.6-0.7,3.3-1.2,5-1.4c6.3-1,12.8-0.9,19.2,0.2c1.6,0.3,3.1,0.8,4.6,1.3
				c1.6,0.4,2.7,1.9,2.5,3.6c-0.1,1.5-0.2,3-0.2,4.5c-0.1,2.1-0.2,4.2-0.3,6.2c-0.7,8.9-0.6,18,0.1,26.9c0.3,3.4,1,6.8,1.7,10.2
				l0.3,1.6c0.3,1.4,0.5,2.8,0.5,4.3c0.1,2.8-1.2,5.5-3.4,7.2c-1.8,1.4-3.8,2.5-5.9,3.5c-4.7,2.2-8.8,5.5-12,9.6
				c-2.3,3.3-4.5,6.8-6.3,10.4c-1.9,3.5-4,6.9-6.4,10.1C28,105.3,22.5,108,16.6,108z M46.9,3c-2.9,0-5.8,0.2-8.7,0.7
				c-1.5,0.2-2.9,0.6-4.3,1.2h-0.1c-0.7,0.2-1.2,0.9-1.1,1.7v0.1c0.1,3.9,0.1,8,0.1,11.8c0.1,8.1,0.2,16.5,0.3,24.7
				c0.1,2.9-0.9,5.8-2.7,8.2c-2,2.7-4.2,5.1-6.8,8l-2.1,2.3c-3.8,4.2-7.8,8.5-11.2,13c-2.9,3.5-5.1,7.5-6.5,11.7
				c-1,3.1-1,6.5-0.2,9.7c0.7,3.4,3,6.1,6.1,7.4c7.4,3.1,14.9,1.2,19.9-5.3c2.3-3,4.3-6.2,6.1-9.6c1.9-3.8,4.1-7.4,6.6-10.9
				c3.5-4.5,8.1-8.1,13.2-10.5c1.9-0.9,3.7-1.9,5.4-3.2c1.5-1.1,2.3-2.8,2.2-4.6l0,0c-0.1-1.3-0.2-2.6-0.5-3.8L62.3,54
				c-0.7-3.4-1.4-6.9-1.7-10.5c-0.8-9.1-0.8-18.3-0.1-27.4c0.1-2,0.2-4.1,0.3-6.2c0.1-1.5,0.2-3,0.2-4.5V5.3C61,5.2,60.9,5,60.8,5
				h-0.1c-1.4-0.5-2.8-0.9-4.3-1.2C53.3,3.3,50.1,3,46.9,3z"/>
		</g>
	</g>
</g>
</svg>
