<?xml version="1.0" encoding="utf-8"?>
<!-- Generator: Adobe Illustrator 24.2.3, SVG Export Plug-In . SVG Version: 6.00 Build 0)  -->
<svg class="diy-area transition pattern-watz" version="1.1" id="pattern-watz" xmlns="http://www.w3.org/2000/svg" xmlns:xlink="http://www.w3.org/1999/xlink" x="0px" y="0px"
	 viewBox="0 0 66.1 108" style="enable-background:new 0 0 66.1 108;" xml:space="preserve">
	<style type="text/css">
	.socks-color{fill:#FFFFFF;stroke:#404040;stroke-width:3;}
	.socks-path{fill:#404040;}
	.socks-border{fill:#404040;}
	</style>
	<g id="圖層_2_1_">
		<g id="圖層_1-2">
			<g id="Group_84">
				<path id="Path_4446" class="socks-color" d="M64.6,59.5c0.1,2.3-1,4.5-2.8,5.9c-1.8,1.3-3.7,2.4-5.7,3.3c-4.9,2.3-9.2,5.7-12.6,10
				c-2.4,3.4-4.6,7-6.5,10.7c-1.8,3.4-3.9,6.7-6.3,9.8c-5.4,6.9-13.6,9.1-21.7,5.7c-3.6-1.5-6.2-4.7-7-8.5C1.2,93,1.3,89.4,2.4,86
				c1.4-4.5,3.7-8.6,6.7-12.2c4.2-5.4,8.8-10.4,13.4-15.4c2.3-2.6,4.6-5.2,6.7-7.9c1.6-2.1,2.4-4.6,2.4-7.2
				c-0.1-8.2-0.2-16.5-0.3-24.7c0-3.9,0-7.9-0.1-11.8c-0.1-1.4,0.7-2.8,2.1-3.3c1.5-0.7,3.1-1.1,4.7-1.3c6.2-1,12.5-0.9,18.7,0.2
				c1.5,0.3,3,0.7,4.5,1.3c0.9,0.2,1.5,1.1,1.4,2c-0.2,3.6-0.4,7.2-0.6,10.8c-0.7,9-0.6,18.1,0.1,27.1c0.4,4,1.2,8,2,11.9
				C64.3,56.8,64.5,58.1,64.6,59.5z"/>
				<path id="Path_4447" class="socks-path" d="M35.3,31.5c2-1.3,4-2.9,6-4.2l0,0c-3.6-1.6-7.1-3.5-10.4-5.5c0.3,3.9,0.6,7.8,0.9,11.7
				C33,32.9,34.2,32.2,35.3,31.5z"/>
				<path id="Path_4448" class="socks-path" d="M43,67.9c-0.1-1.7-0.3-3.4-0.4-5.1c-0.1-1.5-0.4-2.9-0.4-4.4c0-0.5,0-1,0-1.5
				c0-0.2,0-0.4,0-0.5l0,0c0-0.1-0.1-0.1-0.1-0.2c0,0-0.1-0.1,0-0.2L42,55.8c0,0-0.1-0.1-0.1-0.1l0,0c-1.1-0.6-2.3-1-3.5-1.4
				c-1.6-0.5-3.3-0.8-4.9-1.2c-1.9-0.5-3.9-1-5.8-1.7c-0.4,0.6-0.9,1.2-1.4,1.8c-3.6,3.9-7,7.9-10.5,11.8c-4,4.6-8.1,9.1-11.2,14.3
				c-2.8,4.6-4.3,9.5-3.3,14.8c0.9,4.7,3.4,8.5,8.5,10.3c4.1,1.5,8.5,1.6,12.7,0.6c4.5-1.1,8.4-4,10.8-8c2.6-4,5-8.1,7.1-12.3
				c1.1-2.2,2.4-4.2,3.8-6.1C43.7,75,43.3,71.4,43,67.9z"/>
				<path id="Path_4449" class="socks-path" d="M58.4,43c-0.3-2.1-0.6-4.3-0.8-6.4c-3.7-0.7-7.2-1.7-10.6-3.2c-0.9,0.6-1.8,1.1-2.6,1.8
				c-2.8,2.1-5.8,4.9-9.2,6.3c0,0.4,0.1,0.8,0.1,1.2c0.1,0.7,0.1,1.3,0.1,2c0.4,0.5,0.8,1,1.3,1.4c3,1.3,6.2,2.3,9.5,2.9
				c1,0,2.1,0,3.1-0.1c0.7-0.6,1.4-1.1,2.1-1.5C53.6,45.7,55.9,44.3,58.4,43z"/>
				<path id="Path_4450" class="socks-path" d="M63.9,58c-0.1-0.9-0.3-1.8-0.5-2.7c-0.6-2.1-1.2-4.2-1.6-6.4c-0.5,0.2-1,0.5-1.4,0.7
				c-4.1,2.3-8.2,6-9.6,10.6c-0.7,2.4-0.7,5,0,7.4c0.3,1.3,0.6,2.5,0.9,3.8c1.6-1.3,3.3-2.4,5.2-3.3c1.4-0.8,2.7-1.6,4-2.5
				C63.4,64.1,64.7,61,63.9,58z"/>
				<path id="Path_4451" class="socks-path" d="M32.4,14.2c2,1.4,4,2.8,6.1,4.1c3.2,2,6.6,3.9,10.1,5.5c1.2-0.8,2.5-1.6,3.7-2.4
				c3.4-2.3,6.6-5,9.5-8.1c0-2.7-0.1-5.4-0.1-8.1C61.8,4.2,61.1,3.2,60,3c-2.5-0.5-5-1-7.2-1.5c-2.9,0.1-5.5,0.1-8,0.2
				c-1.7,0.1-3.4,0.3-5.1,0.6c-2,0.4-3.9,0.9-5.8,1.6c-1.5,0.4-2.4,2-2,3.5C32.2,9.6,32.3,11.9,32.4,14.2z"/>
				<path id="Path_4452" class="socks-path" d="M60.8,23.9c-2,1.8-4.2,3.5-6.5,5L54.1,29c2.3,0.9,4.6,1.5,7,2c-0.1-2.4-0.2-4.9-0.2-7.3
				L60.8,23.9z"/>
			</g>
		</g>
	</g>
	<g id="圖層_2_3_">
		<g id="圖層_1-2_2_">
			<g id="Path_4454_1_">
				<path class="socks-border" d="M16.5,108c-2.6,0-5.4-0.6-8-1.7c-4-1.7-7-5.2-7.9-9.5c-0.9-3.7-0.8-7.6,0.3-11.2c1.5-4.7,3.9-8.9,7-12.7
				c3.5-4.6,7.5-8.9,11.4-13.2l2.1-2.3c2.6-2.8,4.7-5.2,6.6-7.8c1.4-1.8,2.1-4,2-6.3c-0.1-8.3-0.2-16.6-0.3-24.8
				c0-3.8,0-7.8-0.1-11.7c-0.2-2.1,1.1-4,3-4.7c1.6-0.7,3.3-1.2,5-1.4c6.3-1,12.8-0.9,19.2,0.2c1.6,0.3,3.1,0.8,4.6,1.3
				c1.6,0.4,2.7,1.9,2.5,3.6c-0.1,1.5-0.2,3-0.2,4.5c-0.1,2.1-0.2,4.2-0.3,6.2c-0.7,8.9-0.6,18,0.1,26.9c0.3,3.4,1,6.8,1.7,10.2
				l0.3,1.6c0.3,1.4,0.5,2.8,0.5,4.3c0.1,2.8-1.2,5.5-3.4,7.2c-1.8,1.4-3.8,2.5-5.9,3.5c-4.7,2.2-8.8,5.5-12,9.6
				c-2.3,3.3-4.5,6.8-6.3,10.4c-1.9,3.5-4,6.9-6.4,10.1C27.9,105.3,22.4,108,16.5,108z M46.8,3c-2.9,0-5.8,0.2-8.7,0.7
				c-1.5,0.2-2.9,0.6-4.3,1.2l-0.1,0c-0.7,0.2-1.2,0.9-1.1,1.7l0,0.1c0.1,3.9,0.1,8,0.1,11.8c0.1,8.1,0.2,16.5,0.3,24.7
				c0.1,2.9-0.9,5.8-2.7,8.2c-2,2.7-4.2,5.1-6.8,8l-2.1,2.3c-3.8,4.2-7.8,8.5-11.2,13c-2.9,3.5-5.1,7.5-6.5,11.7
				c-1,3.1-1,6.5-0.2,9.7c0.7,3.4,3,6.1,6.1,7.4c7.4,3.1,14.9,1.2,19.9-5.3c2.3-3,4.3-6.2,6.1-9.6c1.9-3.8,4.1-7.4,6.6-10.9
				c3.5-4.5,8.1-8.1,13.2-10.5c1.9-0.9,3.7-1.9,5.4-3.2c1.5-1.1,2.3-2.8,2.2-4.6v0c-0.1-1.3-0.2-2.6-0.5-3.8l-0.3-1.6
				c-0.7-3.4-1.4-6.9-1.7-10.5c-0.8-9.1-0.8-18.3-0.1-27.4c0.1-2,0.2-4.1,0.3-6.2c0.1-1.5,0.2-3,0.2-4.5l0-0.1
				c0-0.1-0.1-0.3-0.2-0.3L60.6,5c-1.4-0.5-2.8-0.9-4.3-1.2C53.2,3.3,50,3,46.8,3z"/>
			</g>
		</g>
	</g>
</svg>
