<svg xmlns="http://www.w3.org/2000/svg" width="246.759" height="211.541" viewBox="0 0 246.759 211.541">
  <g id="Group_499" data-name="Group 499" transform="translate(-6840.452 -6264.267)">
    <g id="Group_498" data-name="Group 498">
      <path id="Path_29705" data-name="Path 29705" d="M1042.528,320.752c.131,4.184-1.846,7.477-5.7,10.054a67.968,67.968,0,0,1-11.445,5.7c-9.891,4.18-18.614,9.574-25.429,17.025-5.183,5.671-9,12.048-13.059,18.292a123.64,123.64,0,0,1-12.61,16.789c-10.878,11.757-27.471,15.545-43.715,9.741-7.557-2.7-12.042-7.761-14-14.419a28,28,0,0,1,.515-17.919c3.024-8.434,8-14.77,13.526-20.829,8.4-9.216,17.819-17.686,27.047-26.293,4.69-4.372,9.307-8.8,13.535-13.5a17.392,17.392,0,0,0,4.752-12.359c-.24-14.079-.4-28.162-.567-42.241-.078-6.7.039-13.407-.192-20.1-.1-2.858,1.4-4.49,4.237-5.579a38.6,38.6,0,0,1,9.425-2.2c12.605-1.448,25.2-1.71,37.764.277a83.834,83.834,0,0,1,9.014,2.164c2.029.557,2.958,1.6,2.836,3.415-.41,6.137-.746,12.277-1.16,18.418-1.052,15.42-1.623,30.835.2,46.247a194.478,194.478,0,0,0,4.045,20.375A36.456,36.456,0,0,1,1042.528,320.752Z" transform="translate(5926.649 6073.242)" fill="#fff" stroke="#707070" stroke-width="3"/>
      <path id="Intersection_1" data-name="Intersection 1" d="M29.075,22.3a2.566,2.566,0,0,1-1.941-1.064,3.815,3.815,0,0,1-.9-2.553A1.942,1.942,0,0,1,27.378,17.1H27.36a3.383,3.383,0,0,1,1.677-.622,2.789,2.789,0,0,1,1.187.481,4.375,4.375,0,0,1,1.225,1.008l-.019-.019a2.71,2.71,0,0,1,.414,1.621,3.263,3.263,0,0,1-.509,1.262q-.113.17-.132.208a4.755,4.755,0,0,1-.951,1.1,2.2,2.2,0,0,1-1.008.159ZM13.944,20.54a3.807,3.807,0,0,1-1.13-1.931,2.7,2.7,0,0,1,.546-1.885q.547-.583,2.732-.584a2.671,2.671,0,0,1,1.328.255,2.951,2.951,0,0,1,.886,1.018,2.691,2.691,0,0,1,.462,1.347,4.169,4.169,0,0,1-.546,2.176,1.641,1.641,0,0,1-1.451.913A3.582,3.582,0,0,1,13.944,20.54Z" transform="translate(6909.669 6301)" fill="#707070"/>
      <path id="Intersection_2" data-name="Intersection 2" d="M32.531,20.915q-1.57-1.936-3.029-3.433a19.485,19.485,0,0,0-4.32-3.115,10.774,10.774,0,0,0-5.217-1.619,9.51,9.51,0,0,0-1.29.146,3.148,3.148,0,0,0-.968.163,7.562,7.562,0,0,1-1.178.228h.014l-1.683.357a11.133,11.133,0,0,0-3.275,1.318,8.2,8.2,0,0,0-2.265,2.148Q7.945,19,7.076,19a.972.972,0,0,1-.869-.618,3.321,3.321,0,0,1-.323-1.546,3.431,3.431,0,0,1,.554-1.587,10.824,10.824,0,0,1,2.16-2.4,11.685,11.685,0,0,1,2.7-1.928,19.14,19.14,0,0,1,3.619-1.024,21.264,21.264,0,0,1,4.222-.529,16.905,16.905,0,0,1,3.029.2,12.921,12.921,0,0,1,2.475.854,34.428,34.428,0,0,1,3.745,2,24.865,24.865,0,0,1,2.524,1.619q.288.276,1.662,2.017L33.7,17.433a6.888,6.888,0,0,1,1.023,1.578A4.388,4.388,0,0,1,35,20.7q0,1.3-1.108,1.3Q33.416,22,32.531,20.915Z" transform="matrix(0.995, -0.105, 0.105, 0.995, 6909.142, 6321.363)" fill="#707070"/>
      <path id="Path_29704" data-name="Path 29704" d="M50.1,0C70.042,0,86.208,13.981,86.208,31.228S70.042,62.457,50.1,62.457c-8.136,0-41.735-8.618-48.028-12.712-8.505-5.531,11.92-8.306,11.92-18.516C13.992,13.981,30.158,0,50.1,0Z" transform="matrix(0.966, -0.259, 0.259, 0.966, 6987.776, 6286.579)" fill="#707070"/>
      <text id="哭哭" transform="translate(7022.211 6312)" fill="#f8f4eb" font-size="19" font-family="NotoSansTC-Regular, Noto Sans TC" letter-spacing="0.08em"><tspan x="0" y="0">哭哭</tspan></text>
    </g>
  </g>
</svg>
