<svg xmlns="http://www.w3.org/2000/svg" viewBox="0 0 154 153.74"><defs><style>.cls-1{fill:#ff9685;}</style></defs><g id="圖層_2" data-name="圖層 2"><g id="圖層_1-2" data-name="圖層 1"><path class="cls-1" d="M154,77.08A77,77,0,0,1,0,76.65C0,34.51,34.66-.06,76.8,0,120,.06,154.05,34.1,154,77.08ZM5.38,76.45c-.1,39.79,31.8,72.23,71.3,72.49,39.34.26,72.14-32.27,72.25-71.67C149,37.56,117,5.08,77.51,4.91A71.76,71.76,0,0,0,5.38,76.45Z"/><path class="cls-1" d="M72.43,78c2.62-3,5.15-6.08,7.9-8.95,1.57-1.64,1.71-3.45,1.7-5.5,0-8.33-.15-16.66,0-25,.13-5.47,1.23-10.68,6.86-13.44,1.55-.75,3.27-1.45,4.36.53s-.37,2.9-2,3.68a6.62,6.62,0,0,0-4,5.94c-.17,8.41-.06,16.82-.06,26,5.12-3.43,8.4-7.82,12.27-11.53,5.77-5.52,11.29-11.31,17-16.89,1.42-1.39,3-4.2,5.27-2.09,2.58,2.42-.46,4.23-1.91,5.7q-14.88,15.11-30,30a8.76,8.76,0,0,0-3,7c.17,7.49.14,15,0,22.48-.06,2.86.91,4.31,3.56,5.71a28.18,28.18,0,0,1,15.44,22c.58,4.1-.42,6.19-5.15,6.14-16-.19-32-.16-48,0-4.35,0-5.51-1.84-5-5.84,1.2-8.92,4.93-16.51,12.83-20.91,4.72-2.63,5.85-5.68,4.67-10.41-1.67-.52-2.31.9-3.19,1.77Q50.18,106,38.34,117.83c-.47.47-.9,1-1.38,1.43-1.34,1.26-2.82,2.95-4.65,1.2s-.21-3.32,1.07-4.62q7.89-8,15.85-15.93c4.59-4.59,9.13-9.24,13.83-13.71a7.73,7.73,0,0,0,2.61-6.14c-.08-14,0-28,0-42,0-3.87-.8-7.33-4.83-9-1.43-.61-2.27-1.67-1.61-3.12.75-1.64,2.24-1.69,3.86-1.18,4.42,1.4,7.41,6.37,7.45,13,.08,11.49,0,23,0,34.47V77Zm4.12,46.84c6.48,0,13,0,19.44,0,5.46,0,5.71-.43,3.91-5.75-1.91-5.6-5.41-10.28-10.75-12.5C83.59,104.22,80.8,101.16,82,95c.21-1.08.27-2.75-1-3.05a17.1,17.1,0,0,0-9.31.11c-2.14.76-1.18,3.6-1,5.44.27,3.93-.74,6.35-4.82,8-6.16,2.46-9.88,7.53-12,13.84-1.32,3.9-.93,5.79,3.88,5.54C63.92,124.56,70.24,124.81,76.55,124.8ZM82,75.87l-1.74-.81c-2.75,3-5.52,6.09-8.26,9.14-1.66,1.84-1.33,2.93,1.25,3,2,0,4,0,5.94,0C81,87.2,82,86.44,82,84.56,82,81.66,82,78.77,82,75.87Z"/></g></g></svg>