<svg xmlns="http://www.w3.org/2000/svg" viewBox="0 0 153.75 153.75"><defs><style>.cls-1{fill:#ff9685;}</style></defs><g id="圖層_2" data-name="圖層 2"><g id="圖層_1-2" data-name="圖層 1"><path class="cls-1" d="M0,76.86C.15,33.91,34.3,0,77.35,0c42.21,0,76.53,34.78,76.4,77.37-.12,42.08-34.75,76.47-76.91,76.38A76.76,76.76,0,0,1,0,76.86Zm148.82-.8C148,35.49,115.35,4.18,74.64,4.91,35.22,5.62,4.17,39.06,5,79.94c.73,37.74,34.59,69.83,72.83,69C117.55,148.09,149.61,115.2,148.82,76.06Z"/><path class="cls-1" d="M76.34,128.74c-10.87.36-21.59-1.06-32.31-2.68-3.09-.47-4.37-1.74-4.21-4.86.22-4.16,1.56-9.06-.14-12.28-1.8-3.39-7.56-2.2-11.31-3.88s-9-2.17-9-7.36c0-5.45,5.35-6.16,9.31-7.57a68,68,0,0,1,9.22-2.2c4.05-.83,6.8-5.44,5.38-9.2-.9-2.36-2.69-1-3.74-.52-4.23,1.84-6.29.57-7.71-3.79C29.4,66.8,26.54,59.32,23.47,52,22,48.5,22.9,46.4,25.55,44.21c8-6.63,17.19-11.4,26.2-16.45,2.42-1.36,4.15-.68,5.31,1.67,5.49,11.13,33.88,11.19,39.66,0C98,27,99.54,26.49,102,27.8c9.1,4.9,18.11,9.92,26.23,16.4,2.74,2.19,3.33,4.5,2,7.83q-4.49,11.11-8.38,22.47c-1.33,3.86-3.11,5.67-7.3,3.74-3.38-1.55-4.7-.72-4,3.36,1,5.73,1.48,11.56,2,17.37.23,2.77,1.18,4,4.05,3.25,3.2-.88,6.43-1.69,9.62-2.65,1-.3,2.53-.52,2.29-2.1-.16-1.07-1.3-1.44-2.25-1.75s-1.87-.93-2.91.57c-2.63,3.79-3.71,3.57-5.56-.72-.66-1.52-1.21-3.09-1.72-4.67-.61-1.91,0-3.35,2-3.77,2.94-.6,5.89-1.16,8.86-1.52,1.48-.18,3.25,1.14,2.64,2.19-2.18,3.76,1.16,4.35,2.86,6,2.82,2.69,2.48,6-.91,8.4-4.22,2.94-9.19,3.92-14.1,4.77-3.09.54-4,1.77-3.83,4.93.69,13.63.58,13.67-12.81,15.5-4.29.59-8.6,1.08-12.92,1.33C84,128.92,80.17,128.74,76.34,128.74Zm.26-23.33c9.17,0,18.32-.35,27.46-1.26,2.89-.28,4.25-1.11,3.69-4.29s-.66-6.63-1.08-9.94c-1.11-8.76-2.3-17.5-3.41-26.26-.22-1.72-.21-3.6,2.1-3.77,1.88-.15,2.43,1.36,2.64,3,.26,2,.74,3.94.85,5.93.22,3.85,3.47,3.52,5.81,4.3,2.65.88,3-1.48,3.56-3.08,2.21-5.76,4.15-11.61,6.55-17.28,1.31-3.11.45-4.86-2.08-6.7-6.08-4.41-12.64-8-19-11.91-2.15-1.31-3.4-.8-5.12.86-10.86,10.46-32.37,10.38-43.44-.05-1.23-1.16-2.14-2.43-4.2-1.24C43.67,37.87,36.45,42,29.81,47.07c-1.52,1.16-2.06,2.27-1.29,4.23,2.56,6.51,5,13.08,7.32,19.66.8,2.24,2,2.35,4.21,2,5.5-.78,4.79-5,5.41-8.65.32-1.89.16-4.66,2.91-4.41,3.36.31,2.11,3.12,1.87,5.13C48.86,76.48,47.51,87.9,46,99.29c-.45,3.41.65,4.66,4.15,5C59,105,67.77,105.42,76.6,105.41Zm.48,18.82a152.27,152.27,0,0,0,23.85-1.77c9-1.33,9.45-2.14,7.72-11.07-.42-2.17-1.32-2.74-3.31-2.55a287.94,287.94,0,0,1-56.77,0c-2.65-.27-3.66.77-3.57,3.32a22.32,22.32,0,0,1-.19,4.48c-.61,3.61.89,5,4.45,5.41C58.51,123.18,67.74,124.4,77.08,124.23ZM41.22,97.51c1.42-5-1.09-5.47-4.94-4.35-1,.27-2,.39-2.89.69-2.93,1-8,1-8,3.64-.08,3.16,4.94,2.63,7.71,3.78a23.25,23.25,0,0,0,2.38.68C39.55,103.22,42,102.37,41.22,97.51Z"/></g></g></svg>