<svg xmlns="http://www.w3.org/2000/svg" viewBox="0 0 153.94 153.74"><defs><style>.cls-1{fill:#ff9685;}</style></defs><g id="圖層_2" data-name="圖層 2"><g id="圖層_1-2" data-name="圖層 1"><path class="cls-1" d="M153.94,76.73A77,77,0,1,1,77.36,0,76.78,76.78,0,0,1,153.94,76.73ZM77.11,4.87c-39.49,0-72,32.39-72,71.86s32.3,72.06,71.76,72.2c39.3.15,72-32.47,72-71.93S116.54,4.93,77.11,4.87Z"/><path class="cls-1" d="M107.5,42.65c-3.77,5.72-5.47,12.11-7.16,18.53-.71,2.72.52,3.22,2.74,3.25a38.27,38.27,0,0,0,16.48-3.54c3.21-1.45,4.81-.7,6.11,2.46,3.48,8.47,7.2,16.83,10.79,25.25,2.47,5.83,2.21,6.18-3.87,8.58-13,5.15-26.29,5.47-39.72,2.13-7.26-1.81-14.48-3.82-21.66-6-16.88-5-33.74-5.49-50.64-.18-1.41.45-2.86,1.38-4.19.08-1.54-1.49-.5-3.12.14-4.61,3.87-9,7.84-18,11.67-27,.89-2.11,2.53-2.92,4.47-3.56a57.14,57.14,0,0,1,15.19-2.77c3.22-.15,3.78-1.4,2.49-4s-2-5.66-4-8c-1.74.49-1.68,3.74-4.16,2.75s-1.73-3.29-1.8-5.2c0-1.16.16-2.33.15-3.49-.05-4.32,1.76-6.12,6.18-4.88,1.91.53,3.94.62,5.89,1a2.54,2.54,0,0,1,2.26,2.33,2,2,0,0,1-2.07,2.29c-3.52,0-2.31,1.76-1.42,3.48a9,9,0,0,1,1.3,2.68c1.4,11.17,9.85,12.34,18.57,13.38,2.33.28,3-.36,3-2.53-.07-6.48,0-13,0-19.79-2-.49-4.4,2.45-5.68-.49-1-2.4,1.16-3.72,2.47-5,2.06-1.95,3.3-6.24,6.6-5.13,3.55,1.19,5.77,4.95,7.75,8.17,1.31,2.14-.58,4-2.61,3.05-3.79-1.68-3,.85-3,2.69,0,5.83.13,11.66-.07,17.48-.1,3,.86,4.34,3.9,5.15,10.68,2.81,10.56,2.93,13.74-7.44,1.07-3.49,2.62-6.82,4-10.22.92-2.3,3.86-4.55-1.25-6.15-2.21-.69-.85-3.36,1.21-3.9A62.3,62.3,0,0,1,110,32.13c1.8-.21,2.79.84,3,2.61.2,2,.47,4,.49,6s.74,4.26-1.71,5.26C108.92,47.12,109.35,43.49,107.5,42.65ZM45.88,84.57a138.43,138.43,0,0,1,14.35,1.24c11.73,1.86,22.7,6.54,34.29,8.94,11.28,2.33,22.4,2.8,33.5-1.1,3.42-1.2,4.72-2.39,2.8-6s-3.38-7.6-5-11.41c-1.41-3.19-2-7.29-4.45-9.32-2.82-2.38-6.34,1.53-9.76,1.6a3.85,3.85,0,0,0-.49.08C107.28,69,102.5,68,100,70c-3.08,2.37-1,7.45-1.18,11.36-.06,1.58-.91,2.73-2.28,2.86-1.88.18-2.5-1.34-2.54-3a46.24,46.24,0,0,1,0-8c.53-3.63-.77-5.26-4.34-5.57-3.13-.28-6.77-3.08-9-1.5s-.6,5.92-.87,9c-.16,1.89-.13,4-2.61,4.06-2.8.07-2.86-2.22-2.89-4.29,0-.83,0-1.66,0-2.5,0-9.73,0-9.73-9.69-11.45-.82-.15-1.66-.17-2.48-.31-2.64-.47-3.69.45-3.23,3.23.49,2.95.74,5.95,1,8.93.15,1.67-.53,3.2-2.3,3.29s-2.39-1.39-2.55-3.07c-.29-3.14-.76-6.27-1.07-9.42-.28-2.86-1.67-4.06-4.62-3.74A99.59,99.59,0,0,0,35.93,62a5.44,5.44,0,0,0-4,3.36c-2.63,6.11-5.32,12.21-8,18.3-1.31,2.94-.37,3.54,2.56,2.82C32.48,85.06,38.63,84.69,45.88,84.57Z"/><path class="cls-1" d="M74.2,115c0-4,0-8,0-11.92,0-1.89.71-3.44,2.72-3.43s2.77,1.51,2.76,3.42c0,8.11,0,16.22,0,24.33,0,1.63-.7,3.06-2.47,3.19-2.08.16-2.93-1.33-3-3.18C74.15,123.22,74.2,119.08,74.2,115Z"/><path class="cls-1" d="M56.87,98.18A73.92,73.92,0,0,1,44,123.65c-.95,1.23-2.21,1.65-3.48.77a2.34,2.34,0,0,1-.5-3.52A77.56,77.56,0,0,0,52.49,96.07a2.13,2.13,0,0,1,2.66-1.69C57.06,94.87,57.08,96.39,56.87,98.18Z"/><path class="cls-1" d="M114.45,122.24a6.21,6.21,0,0,1-1.07,2.1,1.94,1.94,0,0,1-2.73.07c-3.94-4.7-7.4-9.73-9.42-15.59-.35-1,.55-1.86,1.48-2.33A1.68,1.68,0,0,1,105,107C108.12,112,111.23,117,114.45,122.24Z"/></g></g></svg>