<svg xmlns="http://www.w3.org/2000/svg" viewBox="0 0 153.65 153.62"><defs><style>.cls-1{fill:#ff9685;}</style></defs><g id="圖層_2" data-name="圖層 2"><g id="圖層_1-2" data-name="圖層 1"><path class="cls-1" d="M0,77.09A76.62,76.62,0,0,1,76.66,0c42.56,0,77.19,34.58,77,76.86A76.83,76.83,0,0,1,0,77.09Zm4.85.08A71.9,71.9,0,0,0,148.65,77c0-40-32.48-72.53-72-72.23A72,72,0,0,0,4.85,77.17Z"/><path class="cls-1" d="M25.06,77.66c-1.53,1.69-3,3.42-4.59,5.06a2.41,2.41,0,0,1-3.56.39,2.31,2.31,0,0,1-.27-3.54q6.9-8.55,13.93-17c.29-.35,1.09-.78,1.25-.65,4,3.12,8.08-1.79,11.38-.37,6,2.58,11.26.76,17,0,6.91-1,11.15,4.92,9.66,12.22-.83,4.07-2.14,8-3.18,12.06-.36,1.4-1.34,2.75-.52,4.27,1.6.7,2.08-.68,2.76-1.49C75.64,80.7,82.24,72.76,89,65c1.26-1.46,2.3-4.36,5.06-2.69,2.23,1.34,1.07,3.58.57,5.46-2,7.35-4,14.68-6,22,2.44.92,3.06-.83,3.92-1.84,4.77-5.56,9.38-11.27,14.22-16.77,4-4.59,7.28-9.51,8.41-15.63.34-1.87,1-4,3.3-3.55,2.83.55,2.23,2.94,1.55,4.85-1.12,3.12-.61,4.79,3.15,4.5,1.78-.14,3.55.37,3.36,2.64-.17,2.11-1.91,2.71-3.69,2.4-4.9-.86-6.21,2-7,6-.94,4.55-2.47,9-3.64,13.5-.4,1.54-1.27,3.51.56,4.55,2.1,1.18,3.38-.74,4.54-2.07,3.71-4.27,7.32-8.63,11-12.93C129.61,73.89,131,72,133.19,74c1.94,1.8.23,3.33-.92,4.7-3.86,4.59-7.72,9.18-11.66,13.7-2.88,3.32-6.49,5.08-10.62,2.71-3.93-2.25-4-6-3-10.1.52-2,1.93-3.95.86-6.94C104,82.57,100.4,86.77,96.8,91c-1.87,2.18-3.9,4.12-6.77,4.91-4.57,1.26-7.69-1.47-6.75-6.14.82-4,2-8,2.19-12.44-3.72,4.34-7.41,8.69-11.16,13a28.93,28.93,0,0,1-3.8,3.94c-2.54,2-5.46,2.72-8.37.9S60,90.53,60.71,87.93c1.2-4.67,2.61-9.3,3.77-14,.7-2.83,1.08-5.93-2.4-7.25-3.17-1.2-5.9,0-7.91,2.69-2.49,3.3-3,7.36-4.14,11.17-.87,2.87-1.58,5.78-2.5,8.64-.52,1.6-1.7,2.59-3.46,1.91-1.5-.57-1.7-2-1.34-3.37,1.17-4.51,2.48-9,3.57-13.52.62-2.55,1.63-5.55-1.33-7.23s-5.75-.07-8,2.13C33,72.89,31.84,78,30.37,82.93,29.51,85.8,28.74,88.7,28,91.6c-.51,2-1.06,4.35-3.66,3.76C21.08,94.62,22.5,92,23,90c1-4,2.11-8,3.17-11.92Z"/><path class="cls-1" d="M95.69,56c-2.1-.33-3.45-1.4-3.32-3.62a3.07,3.07,0,0,1,3.18-3.17,3.15,3.15,0,0,1,3.57,3.29C99.18,54.7,97.72,55.7,95.69,56Z"/></g></g></svg>