<svg xmlns="http://www.w3.org/2000/svg" viewBox="0 0 92.05 79.95"><defs><style>.cls-1{fill:none;}.cls-2{fill:#ead879;}</style></defs><g id="圖層_2" data-name="圖層 2"><g id="圖層_1-2" data-name="圖層 1"><g id="Path_7768" data-name="Path 7768"><path class="cls-1" d="M49.38,0C69.82,0,92.05-.16,92.05,20.27S86.18,80,65.75,80,0,76.11,0,55.67,29,0,49.38,0Z"/><path class="cls-2" d="M50.36,3h-1c-4.23,0-9.31,1.85-14.7,5.34A74.55,74.55,0,0,0,19.3,22.13C9.4,33.63,3,46.79,3,55.67c0,3.79,2,7,6.13,10C13,68.4,18.69,70.73,26,72.57a142.77,142.77,0,0,0,21.19,3.48c6.13.58,12.74.9,18.61.9a11.75,11.75,0,0,0,5.6-1.38,16.8,16.8,0,0,0,4.85-4c2.92-3.41,5.45-8.36,7.51-14.7C87.65,44.74,89.05,30,89.05,20.27c0-4.1-1-7.29-3-9.75a16.84,16.84,0,0,0-8.21-5.07C70.27,3,59.69,3,50.36,3m0-3C70.52,0,92.05.16,92.05,20.27,92.05,40.7,86.19,80,65.75,80S0,76.11,0,55.67,29,0,49.38,0Z"/></g></g></g></svg>