<svg xmlns="http://www.w3.org/2000/svg" viewBox="0 0 20.68 31.36"><defs><style>.cls-1{fill:#0388a6;}</style></defs><g id="圖層_2" data-name="圖層 2"><g id="Capa_1" data-name="Capa 1"><path class="cls-1" d="M9.91,0c5.43,0,10.77,2.5,10.77,8.47,0,5.51-6.31,7.63-7.67,9.62-1,1.48-.68,3.56-3.48,3.56a2.69,2.69,0,0,1-2.71-2.83c0-5.05,7.42-6.19,7.42-10.35,0-2.28-1.53-3.64-4.07-3.64-5.42,0-3.31,5.59-7.41,5.59A2.53,2.53,0,0,1,0,7.84C0,3.68,4.74,0,9.91,0ZM9.7,24.41a3.48,3.48,0,1,1-3.47,3.47A3.49,3.49,0,0,1,9.7,24.41Z"/></g></g></svg>