<svg xmlns="http://www.w3.org/2000/svg" viewBox="0 0 183.49 230.12"><defs><style>.cls-1{fill:#707070;}.cls-2,.cls-3,.cls-4,.cls-5{fill:none;stroke:#707070;}.cls-2{stroke-dasharray:3 1;}.cls-3{stroke-miterlimit:4;stroke-width:1px;}.cls-3,.cls-4{opacity:0.33;isolation:isolate;}</style></defs><g id="圖層_2" data-name="圖層 2"><g id="圖層_1-2" data-name="圖層 1"><path id="Path_4426" data-name="Path 4426" class="cls-1" d="M125.46,2.84c9.61,2.94,10,3.43,9.67,11.37-.72,15.43-2,30.83-2.2,46.3-.27,18.95,1.15,37.71,5.34,56.23a51.85,51.85,0,0,1,1.3,9.92,16.64,16.64,0,0,1-7.07,14.67,69.18,69.18,0,0,1-9.36,5.67c-7.37,3.86-14.69,7.77-21,13.37-8.39,7.49-14.08,16.87-19.38,26.59s-10.48,19.58-17.67,28.17C53.8,228.67,39.4,232.72,22.61,228.56,9.15,225.22,1.28,215,.15,200.45-.74,189,2.48,178.65,8.25,169c7.08-11.89,16.28-22.12,25.41-32.4,8.4-9.47,17.18-18.6,25.15-28.46a26.55,26.55,0,0,0,6-18.08c-.42-22.21-.6-44.42-.84-66.63,0-4,.06-8.07.06-12.11a6.13,6.13,0,0,1,3-5.42,23.58,23.58,0,0,1,8.38-3.39C92.82-.85,110.15-.92,125.46,2.84ZM3.63,184.14a41.44,41.44,0,0,0-.55,22.63c2.09,8.41,6.89,14.8,15,18.21,17.36,7.33,35.1,2.55,46.72-12.3a156.75,156.75,0,0,0,13.48-21.21c4.34-7.88,8.42-15.93,14-23.1,7.28-9.41,16.61-16.23,27.18-21.5a69.84,69.84,0,0,0,12.23-7.2,14.92,14.92,0,0,0,6.09-12.7,54,54,0,0,0-1-8.78c-1.66-8.54-3.45-17.06-4.33-25.73C130.39,73,131,53.52,132.12,34c.45-7.75.8-15.51,1.25-23.26a3.85,3.85,0,0,0-3-4.32,80.58,80.58,0,0,0-9.63-2.73c-13.43-2.51-26.9-2.18-40.36-.35A35.73,35.73,0,0,0,70.26,6.17c-3,1.37-4.63,3.43-4.53,7,.25,8.46.12,16.93.2,25.4q.27,26.67.61,53.35a24.32,24.32,0,0,1-5.08,15.61c-4.52,6-9.46,11.53-14.47,17.06-9.86,10.87-19.93,21.56-28.91,33.2C12.18,165.48,6.86,173.48,3.63,184.14Z"/><line id="Line_5" data-name="Line 5" class="cls-2" x1="132.5" y1="25.84" x2="183.49" y2="25.84"/><line id="Line_7" data-name="Line 7" class="cls-2" x1="132.5" y1="55.84" x2="183.49" y2="55.84"/><line id="Line_8" data-name="Line 8" class="cls-2" x1="132.5" y1="84.84" x2="183.49" y2="84.84"/><path id="Path_4427" data-name="Path 4427" class="cls-3" d="M65.11,105.16s42.6,10.63,67.63-20.31"/><path id="Path_4428" data-name="Path 4428" class="cls-4" d="M66.27,58.8s32.37-9.63,65.89-3.47"/><path id="Path_4429" data-name="Path 4429" class="cls-4" d="M64.35,26.29s32-19.65,69.73,0"/><path id="Path_4430" data-name="Path 4430" class="cls-5" d="M7.32,174.92s7.71,34.29,66.27-10.4,58.18-37.76,62.8-51.24"/><line id="Line_9" data-name="Line 9" class="cls-2" x1="136.5" y1="114.84" x2="182.86" y2="114.84"/></g></g></svg>