<svg xmlns="http://www.w3.org/2000/svg" viewBox="0 0 49.2 65.63"><defs><style>.cls-1{fill:#404040;fill-rule:evenodd;}</style></defs><g id="圖層_2" data-name="圖層 2"><g id="圖層_1-2" data-name="圖層 1"><path id="Path_4457" data-name="Path 4457" class="cls-1" d="M24.6,10.57c4,0,9.3,0,14.33,1.46a13.11,13.11,0,0,0,2-7V1.92A1.92,1.92,0,0,0,39,0H35.93A13.3,13.3,0,0,0,24.6,6.37,13.3,13.3,0,0,0,13.28,0H10.19A1.93,1.93,0,0,0,8.26,1.92h0V5a13.2,13.2,0,0,0,2,7C15.31,10.57,20.6,10.57,24.6,10.57Z"/><path id="Path_4458" data-name="Path 4458" class="cls-1" d="M39.72,16.35c-5-1.93-10.84-1.93-15.12-1.93s-10.14,0-15.11,1.93A14.38,14.38,0,0,0,0,30.75,38.53,38.53,0,0,0,9.61,56.21c4.82,5.55,11,9.42,15,9.42s10.18-3.87,15-9.42a38.59,38.59,0,0,0,9.58-25.46A14.41,14.41,0,0,0,39.72,16.35ZM12.25,30.62a1.93,1.93,0,1,1,1.92-1.93h0A1.92,1.92,0,0,1,12.25,30.62Zm6.17,10.3A1.93,1.93,0,1,1,20.35,39a1.94,1.94,0,0,1-1.93,1.92Zm6.18,10.3a1.93,1.93,0,1,1,1.93-1.92A1.92,1.92,0,0,1,24.6,51.22Zm0-20.6a1.92,1.92,0,1,1,1.93-1.92h0A1.94,1.94,0,0,1,24.6,30.62Zm6.19,10.3A1.93,1.93,0,1,1,32.71,39,1.93,1.93,0,0,1,30.79,40.92ZM37,30.61a1.92,1.92,0,1,1,1.93-1.92h0A1.93,1.93,0,0,1,37,30.62h0Z"/></g></g></svg>