<svg xmlns="http://www.w3.org/2000/svg" viewBox="0 0 56.29 56.29"><defs><style>.cls-1{fill:#404040;}</style></defs><g id="圖層_2" data-name="圖層 2"><g id="圖層_1-2" data-name="圖層 1"><path id="Path_4461" data-name="Path 4461" class="cls-1" d="M7.4,39.23a4.83,4.83,0,0,0,2.2-3,4.9,4.9,0,0,0-3.12-5.74L4.12,39.88A4.83,4.83,0,0,0,7.4,39.23Z"/><circle id="Ellipse_46" data-name="Ellipse 46" class="cls-1" cx="25.51" cy="30.78" r="5.77"/><path id="Path_4462" data-name="Path 4462" class="cls-1" d="M13.9,47.76a9.32,9.32,0,0,1,16.47.91l13.94-3.5a22,22,0,0,1,.95-3.67c.56-1.76,1.1-3.43.75-4.72s-1.7-2.56-3.1-3.83a15.75,15.75,0,0,1-3.3-3.66,16.06,16.06,0,0,1-1.56-4.75C37.65,22.7,37.27,21,36.3,20s-2.71-1.36-4.54-1.76A16.3,16.3,0,0,1,27,16.69a16.2,16.2,0,0,1-3.66-3.3c-1.27-1.41-2.47-2.74-3.84-3.1s-2.95.18-4.71.75a22.24,22.24,0,0,1-3.67,1L7.28,27.26a8.18,8.18,0,0,1-4,15.84L0,56.29l12.6-3.16A9.29,9.29,0,0,1,13.9,47.76Zm21-7.84h3.49v3.3H34.87ZM25.51,21.71a9.07,9.07,0,1,1-9.07,9.07h0A9.07,9.07,0,0,1,25.51,21.71Zm-11.86-4.3h3.49v3.3H13.65ZM9.6,50H6.11v-3.3H9.6Z"/><path id="Path_4463" data-name="Path 4463" class="cls-1" d="M47.87,44.28l8.42-2.11A46.7,46.7,0,0,0,14.12,0L12,8.42c.57-.15,1.16-.34,1.77-.54a16.59,16.59,0,0,1,4.82-1,7,7,0,0,1,1.76.23c2.31.62,4,2.46,5.43,4.08a13.62,13.62,0,0,0,2.86,2.66A13.83,13.83,0,0,0,32.46,15c2.21.48,4.51,1,6.17,2.64s2.16,4,2.64,6.17a13.66,13.66,0,0,0,1.19,3.8,13.43,13.43,0,0,0,2.66,2.87c1.62,1.46,3.46,3.12,4.08,5.43s-.11,4.44-.8,6.58c-.19.61-.38,1.2-.54,1.77Z"/><path id="Path_4464" data-name="Path 4464" class="cls-1" d="M20.4,46.72a6.06,6.06,0,0,0-4.51,5.58l11.19-2.8A6,6,0,0,0,20.4,46.72Z"/></g></g></svg>