<svg xmlns="http://www.w3.org/2000/svg" viewBox="0 0 37.53 78.14"><defs><style>.cls-1{fill:#404040;}</style></defs><g id="圖層_2" data-name="圖層 2"><g id="圖層_1-2" data-name="圖層 1"><g id="Group_109" data-name="Group 109"><g id="Group_108" data-name="Group 108"><path id="Path_4466" data-name="Path 4466" class="cls-1" d="M37.53,18.31A18.77,18.77,0,0,0,0,18.42,17.78,17.78,0,0,0,1.6,25.7,4.55,4.55,0,0,0,0,29.1a4.6,4.6,0,0,0,4.57,4.62A4.67,4.67,0,0,0,7.15,33a.46.46,0,0,1,.49,0h0a.44.44,0,0,1,.18.38c0,.09,0,.18,0,.28A4.64,4.64,0,0,0,12.5,38.3a4.76,4.76,0,0,0,3.18-1.21,2.06,2.06,0,0,1,1.65-.5h0A1.86,1.86,0,0,1,18.91,38a4.43,4.43,0,0,0,4.84,3.39,4.77,4.77,0,0,0,4.39-4.4,4.49,4.49,0,0,0-.2-1.5A1.26,1.26,0,0,1,28.51,34h0a1.3,1.3,0,0,1,1.28,0,4.84,4.84,0,0,0,2.69.54,4.64,4.64,0,0,0,4.23-4.15,4.45,4.45,0,0,0-1.3-3.59A17.82,17.82,0,0,0,37.53,18.31Z"/></g></g><g id="Group_111" data-name="Group 111"><g id="Group_110" data-name="Group 110"><path id="Path_4467" data-name="Path 4467" class="cls-1" d="M24.15,45.89a7.45,7.45,0,0,1-1.06.07,8.76,8.76,0,0,1-5.22-1.72,9.06,9.06,0,0,1-1.94-2,9.18,9.18,0,0,1-9-1.41l9.93,37.28h3.83L30,43A9.51,9.51,0,0,1,24.15,45.89Z"/></g></g></g></g></svg>