<svg xmlns="http://www.w3.org/2000/svg" viewBox="0 0 58.89 69.8"><defs><style>.cls-1{fill:#404040;}</style></defs><g id="圖層_2" data-name="圖層 2"><g id="圖層_1-2" data-name="圖層 1"><g id="cherry"><path id="Path_4465" data-name="Path 4465" class="cls-1" d="M56.36,49a13.15,13.15,0,0,0-9.45-5.31A84.71,84.71,0,0,1,35.77,24.6a20.12,20.12,0,0,0,4.88.65,10.55,10.55,0,0,0,3.25-.45c3.17-1.05,6.75-4.88,8.38-8h0a4.75,4.75,0,0,0-2-6.41l-.18-.09A20.43,20.43,0,0,0,43.61,8.6a20.44,20.44,0,0,0-2.38-6.31A4.74,4.74,0,0,0,34.71.69l-.16.1c-2.91,1.93-6.36,5.88-7.1,9.14-.58,2.61.23,6.37,1.5,9.29A89.35,89.35,0,0,0,11.67,43.7a13.09,13.09,0,1,0,4.69.34A84.85,84.85,0,0,1,30.7,23.68,89.36,89.36,0,0,0,41.87,44.23,13.08,13.08,0,1,0,56.36,49ZM8.45,54a3,3,0,1,1,3-3,3,3,0,0,1-3,3ZM31.94,14.35a9,9,0,0,1-.23-3.47c.36-1.61,2.74-4.79,5.25-6.45a.38.38,0,0,1,.53.1v0a15.73,15.73,0,0,1,1.69,4.24c-.19.05-.38.1-.55.16C36.32,9.72,33.78,12,31.94,14.35Zm2.22,5a.4.4,0,0,1,0-.43c1.41-2.67,4.33-5.35,5.9-5.87a5.67,5.67,0,0,1,1.73-.22h.13a16.14,16.14,0,0,1,6.38,1.4.38.38,0,0,1,.18.51h0c-1.4,2.67-4.32,5.35-5.9,5.87s-5.51.12-8.23-1.18A.38.38,0,0,1,34.16,19.39Zm7,34.59a3,3,0,1,1,3-3A3,3,0,0,1,41.17,54Z"/></g></g></g></svg>