<svg xmlns="http://www.w3.org/2000/svg" viewBox="0 0 65 65"><defs><style>.cls-1{fill:#404040;}</style></defs><g id="圖層_2" data-name="圖層 2"><g id="圖層_1-2" data-name="圖層 1"><g id="Group_105" data-name="Group 105"><g id="Group_104" data-name="Group 104"><path id="Path_4459" data-name="Path 4459" class="cls-1" d="M34.13.85A2,2,0,0,0,31.37.36a1.9,1.9,0,0,0-.49.49l-24.52,40A43.81,43.81,0,0,0,32.5,49.64a43.45,43.45,0,0,0,26.16-8.73Zm-7.9,33-3.81,3.8A1.9,1.9,0,0,1,19.73,35l3.81-3.81a1.91,1.91,0,0,1,2.69,2.7Zm8.18,6.27a1.9,1.9,0,0,1-1.9,1.9h0a1.92,1.92,0,0,1-1.93-1.9V36.31a1.92,1.92,0,0,1,1.93-1.9,1.9,1.9,0,0,1,1.9,1.9h0Zm8.17-2.47-3.81-3.8a1.91,1.91,0,0,1,2.7-2.7L45.28,35a1.91,1.91,0,1,1-2.7,2.69Z"/></g></g><g id="Group_107" data-name="Group 107"><g id="Group_106" data-name="Group 106"><path id="Path_4460" data-name="Path 4460" class="cls-1" d="M64.72,50.67l-3.93-6.38a47.65,47.65,0,0,1-56.56,0L.28,50.67A1.92,1.92,0,0,0,.76,53.2C8.77,59.2,18,65,32.5,65c13.92,0,23.16-5.37,31.74-11.8A1.91,1.91,0,0,0,64.72,50.67Z"/></g></g></g></g></svg>