<svg xmlns="http://www.w3.org/2000/svg" viewBox="0 0 640 1080"><defs><style>.cls-1{fill:#171d3a;}.cls-2{fill:#f3f3f1;}</style></defs><g id="圖層_2" data-name="圖層 2"><g id="圖層_1-2" data-name="圖層 1"><path class="cls-1" d="M634,1037.5a41.5,41.5,0,0,1,0-83,40.94,40.94,0,0,1,6,.44V779.06a40.94,40.94,0,0,1-6,.44,41.5,41.5,0,0,1,0-83,40.94,40.94,0,0,1,6,.44V525.06a40.94,40.94,0,0,1-6,.44,41.5,41.5,0,0,1,0-83,40.94,40.94,0,0,1,6,.44V267.06a40.94,40.94,0,0,1-6,.44,41.5,41.5,0,0,1,0-83,40.94,40.94,0,0,1,6,.44V12.06a40.94,40.94,0,0,1-6,.44A41.35,41.35,0,0,1,604.33,0H483.52a41.35,41.35,0,0,1-29.88,12.72A41.35,41.35,0,0,1,423.76,0H303.86A41.37,41.37,0,0,1,274,12.72,41.35,41.35,0,0,1,244.09,0H124.19A41.35,41.35,0,0,1,94.31,12.72,41.37,41.37,0,0,1,64.42,0H.14V69a41.83,41.83,0,0,1,4.5-.25,41.5,41.5,0,0,1,0,83,41.83,41.83,0,0,1-4.5-.25V312a41.83,41.83,0,0,1,4.5-.25,41.5,41.5,0,0,1,0,83,41.83,41.83,0,0,1-4.5-.25V581a41.83,41.83,0,0,1,4.5-.25,41.5,41.5,0,0,1,0,83,41.83,41.83,0,0,1-4.5-.25V824a41.83,41.83,0,0,1,4.5-.25,41.5,41.5,0,0,1,0,83,41.83,41.83,0,0,1-4.5-.25v170.31c.72,0,1.44-.06,2.17-.06A41.36,41.36,0,0,1,18.5,1080H165.78a41.62,41.62,0,0,1,32.39,0H345.45a41.62,41.62,0,0,1,32.39,0H529.38a41.41,41.41,0,0,1,30.5,0H640v-42.94A40.94,40.94,0,0,1,634,1037.5Zm-539.69.22a41.5,41.5,0,1,1,41.5-41.5A41.5,41.5,0,0,1,94.31,1037.72Zm0-258a41.5,41.5,0,1,1,41.5-41.5A41.5,41.5,0,0,1,94.31,779.72Zm0-254a41.5,41.5,0,1,1,41.5-41.5A41.5,41.5,0,0,1,94.31,525.72Zm0-258a41.5,41.5,0,1,1,41.5-41.5A41.5,41.5,0,0,1,94.31,267.72Zm90,639a41.5,41.5,0,1,1,41.5-41.5A41.5,41.5,0,0,1,184.31,906.72Zm0-243a41.5,41.5,0,1,1,41.5-41.5A41.5,41.5,0,0,1,184.31,663.72Zm0-269a41.5,41.5,0,1,1,41.5-41.5A41.5,41.5,0,0,1,184.31,394.72Zm0-243a41.5,41.5,0,1,1,41.5-41.5A41.5,41.5,0,0,1,184.31,151.72Zm89.66,886a41.5,41.5,0,1,1,41.5-41.5A41.5,41.5,0,0,1,274,1037.72Zm0-258a41.5,41.5,0,1,1,41.5-41.5A41.5,41.5,0,0,1,274,779.72Zm0-254a41.5,41.5,0,1,1,41.5-41.5A41.5,41.5,0,0,1,274,525.72Zm0-258a41.5,41.5,0,1,1,41.5-41.5A41.5,41.5,0,0,1,274,267.72Zm90,639a41.5,41.5,0,1,1,41.5-41.5A41.5,41.5,0,0,1,364,906.72Zm0-243a41.5,41.5,0,1,1,41.5-41.5A41.5,41.5,0,0,1,364,663.72Zm0-269a41.5,41.5,0,1,1,41.5-41.5A41.5,41.5,0,0,1,364,394.72Zm0-243a41.5,41.5,0,1,1,41.5-41.5A41.5,41.5,0,0,1,364,151.72Zm89.67,886a41.5,41.5,0,1,1,41.5-41.5A41.5,41.5,0,0,1,453.64,1037.72Zm0-258a41.5,41.5,0,1,1,41.5-41.5A41.5,41.5,0,0,1,453.64,779.72Zm0-254a41.5,41.5,0,1,1,41.5-41.5A41.5,41.5,0,0,1,453.64,525.72Zm0-258a41.5,41.5,0,1,1,41.5-41.5A41.5,41.5,0,0,1,453.64,267.72Zm90,639a41.5,41.5,0,1,1,41.5-41.5A41.5,41.5,0,0,1,543.64,906.72Zm0-243a41.5,41.5,0,1,1,41.5-41.5A41.5,41.5,0,0,1,543.64,663.72Zm0-269a41.5,41.5,0,1,1,41.5-41.5A41.5,41.5,0,0,1,543.64,394.72Zm0-243a41.5,41.5,0,1,1,41.5-41.5A41.5,41.5,0,0,1,543.64,151.72Z"/><path class="cls-2" d="M46.14,110.22a41.5,41.5,0,0,0-41.5-41.5A41.83,41.83,0,0,0,.14,69H0v82.48H.14a41.83,41.83,0,0,0,4.5.25A41.5,41.5,0,0,0,46.14,110.22Z"/><circle class="cls-2" cx="184.31" cy="110.22" r="41.5"/><circle class="cls-2" cx="363.97" cy="110.22" r="41.5"/><circle class="cls-2" cx="543.64" cy="110.22" r="41.5"/><circle class="cls-2" cx="94.31" cy="226.22" r="41.5"/><circle class="cls-2" cx="273.97" cy="226.22" r="41.5"/><circle class="cls-2" cx="453.64" cy="226.22" r="41.5"/><path class="cls-2" d="M592.5,226A41.5,41.5,0,0,0,634,267.5a40.94,40.94,0,0,0,6-.44V184.94a40.94,40.94,0,0,0-6-.44A41.5,41.5,0,0,0,592.5,226Z"/><path class="cls-2" d="M94.31,12.72A41.35,41.35,0,0,0,124.19,0H64.42A41.37,41.37,0,0,0,94.31,12.72Z"/><path class="cls-2" d="M274,12.72A41.37,41.37,0,0,0,303.86,0H244.09A41.35,41.35,0,0,0,274,12.72Z"/><path class="cls-2" d="M453.64,12.72A41.35,41.35,0,0,0,483.52,0H423.76A41.35,41.35,0,0,0,453.64,12.72Z"/><path class="cls-2" d="M634,12.5a40.94,40.94,0,0,0,6-.44V0H604.33A41.35,41.35,0,0,0,634,12.5Z"/><path class="cls-2" d="M46.14,353.22a41.5,41.5,0,0,0-41.5-41.5,41.83,41.83,0,0,0-4.5.25H0v82.48H.14a41.83,41.83,0,0,0,4.5.25A41.5,41.5,0,0,0,46.14,353.22Z"/><circle class="cls-2" cx="184.31" cy="353.22" r="41.5"/><circle class="cls-2" cx="363.97" cy="353.22" r="41.5"/><circle class="cls-2" cx="543.64" cy="353.22" r="41.5"/><circle class="cls-2" cx="94.31" cy="484.22" r="41.5"/><circle class="cls-2" cx="273.97" cy="484.22" r="41.5"/><circle class="cls-2" cx="453.64" cy="484.22" r="41.5"/><path class="cls-2" d="M592.5,484A41.5,41.5,0,0,0,634,525.5a40.94,40.94,0,0,0,6-.44V442.94a40.94,40.94,0,0,0-6-.44A41.5,41.5,0,0,0,592.5,484Z"/><path class="cls-2" d="M46.14,622.22a41.5,41.5,0,0,0-41.5-41.5,41.83,41.83,0,0,0-4.5.25H0v82.48H.14a41.83,41.83,0,0,0,4.5.25A41.5,41.5,0,0,0,46.14,622.22Z"/><circle class="cls-2" cx="184.31" cy="622.22" r="41.5"/><circle class="cls-2" cx="363.97" cy="622.22" r="41.5"/><circle class="cls-2" cx="543.64" cy="622.22" r="41.5"/><circle class="cls-2" cx="94.31" cy="738.22" r="41.5"/><circle class="cls-2" cx="273.97" cy="738.22" r="41.5"/><circle class="cls-2" cx="453.64" cy="738.22" r="41.5"/><path class="cls-2" d="M592.5,738A41.5,41.5,0,0,0,634,779.5a40.94,40.94,0,0,0,6-.44V696.94a40.94,40.94,0,0,0-6-.44A41.5,41.5,0,0,0,592.5,738Z"/><path class="cls-2" d="M46.14,865.22a41.5,41.5,0,0,0-41.5-41.5,41.83,41.83,0,0,0-4.5.25H0v82.48H.14a41.83,41.83,0,0,0,4.5.25A41.5,41.5,0,0,0,46.14,865.22Z"/><circle class="cls-2" cx="184.31" cy="865.22" r="41.5"/><circle class="cls-2" cx="363.97" cy="865.22" r="41.5"/><circle class="cls-2" cx="543.64" cy="865.22" r="41.5"/><circle class="cls-2" cx="94.31" cy="996.22" r="41.5"/><circle class="cls-2" cx="273.97" cy="996.22" r="41.5"/><circle class="cls-2" cx="453.64" cy="996.22" r="41.5"/><path class="cls-2" d="M.14,1076.78H0V1080H18.5a41.36,41.36,0,0,0-16.19-3.28C1.58,1076.72.86,1076.74.14,1076.78Z"/><path class="cls-2" d="M165.78,1080h32.39a41.62,41.62,0,0,0-32.39,0Z"/><path class="cls-2" d="M345.45,1080h32.39a41.62,41.62,0,0,0-32.39,0Z"/><path class="cls-2" d="M529.38,1080h30.5a41.41,41.41,0,0,0-30.5,0Z"/><path class="cls-2" d="M592.5,996a41.5,41.5,0,0,0,41.5,41.5,40.94,40.94,0,0,0,6-.44V954.94a40.94,40.94,0,0,0-6-.44A41.5,41.5,0,0,0,592.5,996Z"/></g></g></svg>