<svg xmlns="http://www.w3.org/2000/svg" viewBox="0 0 638.5 1078.5"><defs><style>.cls-1{fill:#00c5f2;}.cls-2{fill:#fe5801;}</style></defs><g id="圖層_2" data-name="圖層 2"><g id="圖層_1-2" data-name="圖層 1"><path class="cls-1" d="M632.5,1036a41.5,41.5,0,0,1,0-83,40.94,40.94,0,0,1,6,.44V777.56a40.94,40.94,0,0,1-6,.44,41.5,41.5,0,0,1,0-83,40.94,40.94,0,0,1,6,.44V523.56a40.94,40.94,0,0,1-6,.44,41.5,41.5,0,0,1,0-83,40.94,40.94,0,0,1,6,.44V265.56a40.94,40.94,0,0,1-6,.44,41.5,41.5,0,0,1,0-83,40.94,40.94,0,0,1,6,.44V7.56a40.94,40.94,0,0,1-6,.44A41.3,41.3,0,0,1,608,0H476.94a41.34,41.34,0,0,1-24.8,8.22A41.29,41.29,0,0,1,427.35,0H297.27a41.34,41.34,0,0,1-24.8,8.22A41.33,41.33,0,0,1,247.68,0H117.6A41.33,41.33,0,0,1,92.81,8.22,41.34,41.34,0,0,1,68,0H0V67.35c1-.08,2.08-.13,3.14-.13a41.5,41.5,0,0,1,0,83c-1.06,0-2.1-.05-3.14-.13V310.35c1-.08,2.08-.13,3.14-.13a41.5,41.5,0,0,1,0,83c-1.06,0-2.1-.05-3.14-.13V579.35c1-.08,2.08-.13,3.14-.13a41.5,41.5,0,0,1,0,83c-1.06,0-2.1-.05-3.14-.13V822.35c1-.08,2.08-.13,3.14-.13a41.5,41.5,0,0,1,0,83c-1.06,0-2.1-.05-3.14-.13v170.15l.81,0A41.36,41.36,0,0,1,17,1078.5H164.28a41.62,41.62,0,0,1,32.39,0H344a41.62,41.62,0,0,1,32.39,0H521.88a41.41,41.41,0,0,1,30.5,0H638.5v-42.94A40.94,40.94,0,0,1,632.5,1036Zm-539.69.22a41.5,41.5,0,1,1,41.5-41.5A41.5,41.5,0,0,1,92.81,1036.22Zm0-258a41.5,41.5,0,1,1,41.5-41.5A41.5,41.5,0,0,1,92.81,778.22Zm0-254a41.5,41.5,0,1,1,41.5-41.5A41.5,41.5,0,0,1,92.81,524.22Zm0-258a41.5,41.5,0,1,1,41.5-41.5A41.5,41.5,0,0,1,92.81,266.22Zm90,639a41.5,41.5,0,1,1,41.5-41.5A41.5,41.5,0,0,1,182.81,905.22Zm0-243a41.5,41.5,0,1,1,41.5-41.5A41.5,41.5,0,0,1,182.81,662.22Zm0-269a41.5,41.5,0,1,1,41.5-41.5A41.5,41.5,0,0,1,182.81,393.22Zm0-243a41.5,41.5,0,1,1,41.5-41.5A41.5,41.5,0,0,1,182.81,150.22Zm89.66,886a41.5,41.5,0,1,1,41.5-41.5A41.5,41.5,0,0,1,272.47,1036.22Zm0-258a41.5,41.5,0,1,1,41.5-41.5A41.5,41.5,0,0,1,272.47,778.22Zm0-254a41.5,41.5,0,1,1,41.5-41.5A41.5,41.5,0,0,1,272.47,524.22Zm0-258a41.5,41.5,0,1,1,41.5-41.5A41.5,41.5,0,0,1,272.47,266.22Zm90,639a41.5,41.5,0,1,1,41.5-41.5A41.5,41.5,0,0,1,362.47,905.22Zm0-243a41.5,41.5,0,1,1,41.5-41.5A41.5,41.5,0,0,1,362.47,662.22Zm0-269a41.5,41.5,0,1,1,41.5-41.5A41.5,41.5,0,0,1,362.47,393.22Zm0-243a41.5,41.5,0,1,1,41.5-41.5A41.5,41.5,0,0,1,362.47,150.22Zm89.67,886a41.5,41.5,0,1,1,41.5-41.5A41.5,41.5,0,0,1,452.14,1036.22Zm0-258a41.5,41.5,0,1,1,41.5-41.5A41.5,41.5,0,0,1,452.14,778.22Zm0-254a41.5,41.5,0,1,1,41.5-41.5A41.5,41.5,0,0,1,452.14,524.22Zm0-258a41.5,41.5,0,1,1,41.5-41.5A41.5,41.5,0,0,1,452.14,266.22Zm90,639a41.5,41.5,0,1,1,41.5-41.5A41.5,41.5,0,0,1,542.14,905.22Zm0-243a41.5,41.5,0,1,1,41.5-41.5A41.5,41.5,0,0,1,542.14,662.22Zm0-269a41.5,41.5,0,1,1,41.5-41.5A41.5,41.5,0,0,1,542.14,393.22Zm0-243a41.5,41.5,0,1,1,41.5-41.5A41.5,41.5,0,0,1,542.14,150.22Z"/><path class="cls-2" d="M44.64,108.72a41.5,41.5,0,0,0-41.5-41.5c-1.06,0-2.1,0-3.14.13v82.74c1,.08,2.08.13,3.14.13A41.5,41.5,0,0,0,44.64,108.72Z"/><circle class="cls-2" cx="182.81" cy="108.72" r="41.5"/><circle class="cls-2" cx="362.47" cy="108.72" r="41.5"/><circle class="cls-2" cx="542.14" cy="108.72" r="41.5"/><circle class="cls-2" cx="92.81" cy="224.72" r="41.5"/><circle class="cls-2" cx="272.47" cy="224.72" r="41.5"/><circle class="cls-2" cx="452.14" cy="224.72" r="41.5"/><path class="cls-2" d="M591,224.5A41.5,41.5,0,0,0,632.5,266a40.94,40.94,0,0,0,6-.44V183.44a40.94,40.94,0,0,0-6-.44A41.5,41.5,0,0,0,591,224.5Z"/><path class="cls-2" d="M117.6,0H68a41.34,41.34,0,0,0,24.8,8.22A41.33,41.33,0,0,0,117.6,0Z"/><path class="cls-2" d="M297.27,0H247.68a41.33,41.33,0,0,0,24.79,8.22A41.34,41.34,0,0,0,297.27,0Z"/><path class="cls-2" d="M476.94,0H427.35a41.29,41.29,0,0,0,24.79,8.22A41.34,41.34,0,0,0,476.94,0Z"/><path class="cls-2" d="M638.5,7.56V0H608A41.3,41.3,0,0,0,632.5,8,40.94,40.94,0,0,0,638.5,7.56Z"/><path class="cls-2" d="M44.64,351.72a41.5,41.5,0,0,0-41.5-41.5c-1.06,0-2.1,0-3.14.13v82.74c1,.08,2.08.13,3.14.13A41.5,41.5,0,0,0,44.64,351.72Z"/><circle class="cls-2" cx="182.81" cy="351.72" r="41.5"/><circle class="cls-2" cx="362.47" cy="351.72" r="41.5"/><circle class="cls-2" cx="542.14" cy="351.72" r="41.5"/><circle class="cls-2" cx="92.81" cy="482.72" r="41.5"/><circle class="cls-2" cx="272.47" cy="482.72" r="41.5"/><circle class="cls-2" cx="452.14" cy="482.72" r="41.5"/><path class="cls-2" d="M591,482.5A41.5,41.5,0,0,0,632.5,524a40.94,40.94,0,0,0,6-.44V441.44a40.94,40.94,0,0,0-6-.44A41.5,41.5,0,0,0,591,482.5Z"/><path class="cls-2" d="M44.64,620.72a41.5,41.5,0,0,0-41.5-41.5c-1.06,0-2.1,0-3.14.13v82.74c1,.08,2.08.13,3.14.13A41.5,41.5,0,0,0,44.64,620.72Z"/><circle class="cls-2" cx="182.81" cy="620.72" r="41.5"/><circle class="cls-2" cx="362.47" cy="620.72" r="41.5"/><circle class="cls-2" cx="542.14" cy="620.72" r="41.5"/><circle class="cls-2" cx="92.81" cy="736.72" r="41.5"/><circle class="cls-2" cx="272.47" cy="736.72" r="41.5"/><circle class="cls-2" cx="452.14" cy="736.72" r="41.5"/><path class="cls-2" d="M591,736.5A41.5,41.5,0,0,0,632.5,778a40.94,40.94,0,0,0,6-.44V695.44a40.94,40.94,0,0,0-6-.44A41.5,41.5,0,0,0,591,736.5Z"/><path class="cls-2" d="M44.64,863.72a41.5,41.5,0,0,0-41.5-41.5c-1.06,0-2.1,0-3.14.13v82.74c1,.08,2.08.13,3.14.13A41.5,41.5,0,0,0,44.64,863.72Z"/><circle class="cls-2" cx="182.81" cy="863.72" r="41.5"/><circle class="cls-2" cx="362.47" cy="863.72" r="41.5"/><circle class="cls-2" cx="542.14" cy="863.72" r="41.5"/><circle class="cls-2" cx="92.81" cy="994.72" r="41.5"/><circle class="cls-2" cx="272.47" cy="994.72" r="41.5"/><circle class="cls-2" cx="452.14" cy="994.72" r="41.5"/><path class="cls-2" d="M0,1075.24v3.26H17a41.36,41.36,0,0,0-16.19-3.28Z"/><path class="cls-2" d="M164.28,1078.5h32.39a41.62,41.62,0,0,0-32.39,0Z"/><path class="cls-2" d="M344,1078.5h32.39a41.62,41.62,0,0,0-32.39,0Z"/><path class="cls-2" d="M521.88,1078.5h30.5a41.41,41.41,0,0,0-30.5,0Z"/><path class="cls-2" d="M591,994.5a41.5,41.5,0,0,0,41.5,41.5,40.94,40.94,0,0,0,6-.44V953.44a40.94,40.94,0,0,0-6-.44A41.5,41.5,0,0,0,591,994.5Z"/></g></g></svg>