<?xml version="1.0" encoding="iso-8859-1"?>
<!-- Generator: Adobe Illustrator 19.0.0, SVG Export Plug-In . SVG Version: 6.00 Build 0)  -->
<svg version="1.1" id="Layer_1" xmlns="http://www.w3.org/2000/svg" xmlns:xlink="http://www.w3.org/1999/xlink" x="0px" y="0px"
	 viewBox="0 0 512.001 512.001" style="enable-background:new 0 0 512.001 512.001;" xml:space="preserve">
<g>
	<g>
		<path d="M396.032,390.354l-97.741-120.766c-9.312-11.733-14.673-26.438-15.1-41.412L276.953,8.59C276.818,3.807,272.9,0,268.115,0
			H117.744c-2.441,0-4.774,1.01-6.446,2.79c-1.67,1.78-2.531,4.173-2.378,6.61l14.849,234.615l-19.517,43.913
			c-6.539,14.712-6.637,31.63-0.269,46.416c6.367,14.786,18.726,26.34,33.909,31.698l49.753,17.56l95.249,104.127
			c14.21,15.533,34.125,24.273,55.065,24.271c1.076,0,2.156-0.024,3.237-0.07c22.114-0.95,42.528-11.563,56.012-29.115
			C418.326,455.322,417.842,417.301,396.032,390.354z M243.697,17.683h15.825l2.03,71.464h-17.855V17.683z M204.355,17.683h21.659
			v71.464h-21.659V17.683z M186.672,17.683v71.464h-20.18l-4.35-71.464H186.672z M144.425,17.683l4.35,71.464h-17.09l-4.522-71.464
			H144.425z M184.689,363.807l-40.913-14.44c-10.699-3.776-19.063-11.595-23.551-22.017c-4.488-10.422-4.422-21.871,0.186-32.24
			l16.407-36.916c14.349,4.61,27.248,13.379,36.846,25.187c11.273,13.868,17.481,31.372,17.481,49.285
			C191.146,343.44,188.932,354.035,184.689,363.807z M295.946,475.793l-95.355-104.239c5.407-12.182,8.239-25.422,8.239-38.888
			c0-21.964-7.615-43.429-21.442-60.44c-11.964-14.718-28.119-25.594-46.085-31.168l-8.495-134.23h129.249l3.462,121.848
			c0.534,18.785,7.268,37.233,18.958,51.945c0.018,0.021,0.033,0.041,0.049,0.061l97.763,120.793
			c0.328,0.404,0.638,0.818,0.953,1.229c-41.757,1.694-77.933,31.593-86.504,73.907
			C296.476,476.337,296.204,476.075,295.946,475.793z M383.184,472.044c-10.29,13.396-25.87,21.495-42.746,22.22
			c-9.674,0.417-19.129-1.63-27.59-5.793c0.213-2.431,0.531-4.853,0.98-7.243c7.055-37.655,41.048-63.456,78.651-60.713
			C397.83,437.764,394.758,456.976,383.184,472.044z"/>
	</g>
</g>
<g>
</g>
<g>
</g>
<g>
</g>
<g>
</g>
<g>
</g>
<g>
</g>
<g>
</g>
<g>
</g>
<g>
</g>
<g>
</g>
<g>
</g>
<g>
</g>
<g>
</g>
<g>
</g>
<g>
</g>
</svg>
