<svg xmlns="http://www.w3.org/2000/svg" viewBox="0 0 46.32 53.52"><defs><style>.cls-1{fill:#ead879;}</style></defs><g id="圖層_2" data-name="圖層 2"><g id="圖層_1-2" data-name="圖層 1"><g id="Group_378" data-name="Group 378"><path id="Path_29643" data-name="Path 29643" class="cls-1" d="M27.06,29.15A10.73,10.73,0,0,1,20,21.43L17.11,9.5,14.27,21.43a10.76,10.76,0,0,1-7.1,7.72L0,31.51l7.17,2.36a10.78,10.78,0,0,1,7.1,7.73l2.84,11.92L20,41.6a10.74,10.74,0,0,1,7.1-7.73l7.16-2.36Z"/><path id="Path_29644" data-name="Path 29644" class="cls-1" d="M39.79,5.46,38.49,0l-1.3,5.46A4.92,4.92,0,0,1,33.94,9l-3.28,1.08,3.28,1.08a5,5,0,0,1,3.25,3.54l1.3,5.46,1.3-5.46A5,5,0,0,1,43,11.16l3.28-1.08L43,9A4.92,4.92,0,0,1,39.79,5.46Z"/></g></g></g></svg>