<svg xmlns="http://www.w3.org/2000/svg" viewBox="0 0 180.29 192.42"><defs><style>.cls-1{fill:#4d4c4c;}.cls-2{fill:#696868;}.cls-3{fill:#323131;}.cls-4{fill:#333232;}.cls-5{fill:#595858;}.cls-6{fill:#3c3b3b;}.cls-7{fill:#484747;}.cls-8{fill:#575656;}.cls-9{fill:#4c4c4c;}.cls-10{fill:#6b6a6a;}.cls-11{fill:#636262;}.cls-12{fill:#525151;}.cls-13{fill:#4c4b4b;}.cls-14{fill:#f8f8f8;}.cls-15{fill:#8a8a8a;}.cls-16{fill:#b8b8b8;}.cls-17{fill:#414040;}.cls-18{fill:#807f7f;}.cls-19{fill:#9d9c9c;}.cls-20{fill:#8f8f8f;}.cls-21{fill:#9d9d9d;}.cls-22{fill:#717171;}.cls-23{fill:#8a8989;}.cls-24{fill:#464545;}.cls-25{fill:#999;}.cls-26{fill:#939393;}.cls-27{fill:#3d3c3c;}.cls-28{fill:#504f4f;}.cls-29{fill:#b1b0b0;}.cls-30{fill:#9a9999;}.cls-31{fill:#929292;}.cls-32{fill:#b5b5b5;}.cls-33{fill:#646363;}.cls-34{fill:#4b4a4a;}.cls-35{fill:#898888;}.cls-36{fill:#989797;}.cls-37{fill:#9e9d9d;}.cls-38{fill:#908f8f;}.cls-39{fill:#5f5f5f;}.cls-40{fill:#403f3f;}.cls-41{fill:#adacac;}.cls-42{fill:#959595;}.cls-43{fill:#686767;}.cls-44{fill:#c2c2c2;}.cls-45{fill:#d6d6d6;}.cls-46{fill:#e3e3e3;}.cls-47{fill:#4d4d4d;}.cls-48{fill:#d2d2d2;}.cls-49{fill:#f3f3f3;}.cls-50{fill:#d1d1d1;}.cls-51{fill:#bdbdbd;}.cls-52{fill:#eaeaea;}.cls-53{fill:#3a3939;}.cls-54{fill:#393838;}.cls-55{fill:#d3d3d3;}</style></defs><g id="圖層_2" data-name="圖層 2"><g id="圖層_1-2" data-name="圖層 1"><g id="McLNuP"><g id="Group_109" data-name="Group 109"><path id="Path_15284" data-name="Path 15284" class="cls-1" d="M128.21,1.21c-.07-.71.4-1.19.91-.8,1,.74,1.5.09,2.13-.41l1.23.8.1,1.33c-.9.12-1.87-.08-2.32,1.16-.27.73-.85.53-1.11-.2S129,1.62,128.21,1.21Z"/><path id="Path_15285" data-name="Path 15285" class="cls-2" d="M179.5,121.84a.19.19,0,0,1-.28,0v0c-.26-1.47-1-3,.54-4.24.64.95,0,2.12.54,3.08Z"/><path id="Path_15286" data-name="Path 15286" class="cls-3" d="M32.6,49.37l-1-1A1.55,1.55,0,0,1,30.5,48c-2.2-2.22-3-5.1-3.66-8-.24-1.06,1-.53,1.43-1.09A3.53,3.53,0,0,1,27.34,35a2.28,2.28,0,0,1,2.83-1.53l0,0c.76.36,1.37.42,1.46-.46.18-1.63.85-.77,1.2-.24.58.87.94.66,1-.16.09-1.79,1.13-1.2,2-.82a9.69,9.69,0,0,1,5.41,6.61,34.49,34.49,0,0,0,7.93,14.49,70,70,0,0,1,9.56,13.36c-.09.67.51,1.11.58,1.73a43.08,43.08,0,0,1,2.59,7.49c.3,1.07,0,2.39,1.6,2.88.35.11.4,1.19.6,1.82s.72.84.77,1.42h0c-.06.76.83,1.16.73,1.94,1.59.59,1.28,2.32,1.89,3.47.43.81-1.24,1.11-1.94,1.68-.35.28-1.27,0-.83,1,.08.18-.6.55-.87.31-2.12-1.91-5.55-.81-7.46-3.38-.71-1-2.39-.4-3.09.83-.43.74-1.05.35-1.6.42a1.41,1.41,0,0,1-1.63-1.07c-.32-.94-.31-2-1.71-2.83l.87,1.69c-2,.34-2.43-1-3-1.93-2.28-3.92-4.34-8-6.71-11.84A42.23,42.23,0,0,1,33.8,57.54c-.39-2.1,0-4.34-1-6.36C32.82,50.57,32.46,50,32.6,49.37Z"/><path id="Path_15287" data-name="Path 15287" class="cls-3" d="M2.23,119.31c2.12-1.28,1.33-2.74.52-4.48a22.09,22.09,0,0,1-1.61-5.08c-.27-1.29.73-2.66,1.45-3.89L4,107c.75.11,1.16-.17,1.1-1,.25-.68,1.94.14,1.42-1.35.76-.22,1.74-.2,2.1.34,1,1.45,2.4,2.44,3.43,3.91a27.67,27.67,0,0,0,7.15,7.56c.6.4,1.28.86,1,1.74s-1,.68-1.74.51a6.31,6.31,0,0,0,2.48,1.89c.39.24.92.57.46,1.15-.3.37-.26,1-1,1.05-1.91,0-2.88,2-2.06,3.95,1.61,3.81,2.58,7.7,1,11.79a1.05,1.05,0,0,0-.07.53c.75,4-.17,8.15,1.4,12.06.44,1.08-.58,1.95-1,2.89-.64-.86-1.57-.28-2.33-.5-.53-.15-.53-.21-.51.35.05,1.36-1.67,1.16-1.77,1.08-1.68-1.21-3.4-2.16-4.3-4.45-2.76-7.05-6.2-13.82-8.92-20.9a35.72,35.72,0,0,1-1.69-5.92,3.92,3.92,0,0,1,1.86-4.12c.65.32.66,1,1,1.54,0,.22-.24,0,0,.08s.13-.08,0-.18A7.31,7.31,0,0,1,2.23,119.31Z"/><path id="Path_15288" data-name="Path 15288" class="cls-3" d="M111.39,171.81c-.36-1.34-1.56-2.27-1.42-4,.06-.75-1.21-1.91-1.6-3.13-.75-2.31-.19-3.52,2.18-4.39.73-.27.92-1.36,2.23-1.2,2.6.32,4.28,2,6.21,3.42,2.5,1.79,3.24,4.62,4.3,7.26a92.42,92.42,0,0,1,4,11.52,3.26,3.26,0,0,1-.58,3.34,2.12,2.12,0,0,0-.45,1.7c.1.71.23,1.34-1,1.07-.79-.18-1,.7-1.17,1.28-.42,1.49-1.64,2.14-2.83,2.77-1,.54-1.56-.76-2.46-.78-.4-.05-.48.13-.32.46.57.4.43,1,0,1.12a2.11,2.11,0,0,1-2.2-.36c-.64-.63-1.18-1.35-1.77-2,0-.23.2-.33.36-.45.3-.4-.13-.56-.28-.82a6.36,6.36,0,0,1-.88-1.18,7.43,7.43,0,0,0-3.35-2.92,2.31,2.31,0,0,1-.64-.38c-.36-.41-.9-.64-1.2-1.12-1.14-1-1.71-.11-2.3.7-1.31.54-.6-.41-.62-.83L106.7,181c.13-.39,0-.84.23-1.2a2.69,2.69,0,0,1,1.54-.76c.69-.59,1.73-.4,2.39-1.07a.66.66,0,0,0,.66-.67.78.78,0,0,0,0-.22,4.13,4.13,0,0,1,.27-4.58C112.22,172,111.41,172.09,111.39,171.81Z"/><path id="Path_15289" data-name="Path 15289" class="cls-3" d="M128.21,1.21c.58-.36,1-.36,1.12.46.08.58.19,1.16.37,2.35.5-2.08,1.13-3.27,2.88-1.89,1,3.59,1.37,7.31,2.62,10.83.31.9.63,2-1,2a2.14,2.14,0,0,0-1.79,1.87c.85,3.28,1.67,6.56,2.56,9.83.53,1.93-.73,3-1.82,4.21-.16.17-.47.22-.59.4-1.43,2.31-1.56.49-1.87-.74-.62.65.07,1.25-.27,2-.47-1.16-1.59-1.58-2.14-2.64-.37-.7-1.52-.57-2.29-.94-2.17-1-2.55-2.95-3.16-4.82a14.9,14.9,0,0,1-.35-7.81c-.71-.33-.13-1.28-.79-1.63A14.56,14.56,0,0,1,121,8.38c.06-1.07,1.34-1.93,1.73-3.1.08-.25.28-.48.37-.77.45-1.35,1.57-1.82,2.68-.92s1.14.5,1.42-.49A9,9,0,0,1,128.21,1.21Z"/><path id="Path_15290" data-name="Path 15290" class="cls-3" d="M133.66,92.48l1.61,2.82c.09.15.28.42.24.46-1.1,1.18-.13,2.08.31,3.11.15.35-.13,1-.86.65-1.3-.61-1.18.73-1.64,1.25-.21.23.56.94-.53.91-.6,0-1,.2-1.4-.49a9.37,9.37,0,0,0-1.63-1.64c-.44.34-.06.58,0,.83,0,.45.26,1-.22,1.29s-1-.21-1.27-.68l-11.1-16.1a3.47,3.47,0,0,1-.46-3.22c.47-1.48-.23-3.39,1.82-4.26.46.84,1.66,1.3,1.84,2.55a.4.4,0,0,0,.41.39h.09a.73.73,0,0,0,.64-.76,1.3,1.3,0,0,1,.78-1.67,1.28,1.28,0,0,1,.28-.07c.93-.24.79.72,1.16,1.1a73.72,73.72,0,0,1,7.77,10.17.36.36,0,0,1-.18.37,1.06,1.06,0,0,1-.63.08c-.31-.13-.43,0-.3.3a10.47,10.47,0,0,0,2.25,2.91c.33.3.31-.08.43-.19A.73.73,0,0,1,133.66,92.48Z"/><path id="Path_15291" data-name="Path 15291" class="cls-3" d="M64.12,21.45a7.86,7.86,0,0,1-2-6.85c.07-.53,2.34-3.4,2.76-3.44a.17.17,0,0,1,.13.07c1.2,1.82,2,0,3-.29l.2.12c.16.24.47.7.48.7,2-1.26,1.71,1,2.42,1.64A8,8,0,0,1,72.28,15c-.41.72.17,1.11.53,1.57a27.83,27.83,0,0,1,2.5,3.33A17.16,17.16,0,0,1,78,23c-1.63-.35-2.14-.14-1.62,1.43.3.91.61,2.3-.51,3.2a2.3,2.3,0,0,1-2.22-1.32l-2.21-1.58c-.45-.32-.86-.5-1.14.19s-.62.3-.88-.08c-.76-.72-.43-2-1.33-2.65-.11,0-.2,0-.24-.05s-.06-.12,0-.13a.1.1,0,0,0,0-.07v.37A3.57,3.57,0,0,1,64.12,21.45Z"/><path id="Path_15292" data-name="Path 15292" class="cls-4" d="M87.46,114.05c.23-.3-.37-1.1.58-.94a4.55,4.55,0,0,1,.69,1.88c.07.25.12.49.18.73,0,.9,1.45,1,1.25,1.77a2.63,2.63,0,0,0-.39-1.15c-.09-.23-.16-.47-.24-.71a3.55,3.55,0,0,1-.13-3.35h0c.12-.43.27-.8.81-.43A7.78,7.78,0,0,1,92,114.93a4.16,4.16,0,0,0,.67,1.66,2,2,0,0,1,.18,1.84,15.12,15.12,0,0,0,2.53,7.44c.33.49.94,1.06.33,1.78-.59.1-.9-.58-1.47-.53s-1.11-1-1.86-.31a2.29,2.29,0,0,0-.8,1,1.39,1.39,0,0,0,.25.81c.14.28.28.56,0,.86s-.57-.2-.88-.15l-1.12-1.6a5.35,5.35,0,0,1-1.52-3.9l-.27-.73c-1-1.12-.92-2.58-1.33-3.89a.93.93,0,0,1,.12-.33c1-.8.29-1.81.37-2.73C87.69,115.5,87.44,114.76,87.46,114.05Z"/><path id="Path_15293" data-name="Path 15293" class="cls-4" d="M179.75,117.54c-1,1.31.05,2.88-.55,4.24-.51.62-.88.06-1.3-.16a1.33,1.33,0,0,1-.82-.8c0-.21.21-.39.09-.61,0,0-.09,0-.11.06a1,1,0,0,0,0,.66,1.63,1.63,0,0,1,.13,1.15c0,1-.4,1.44-1.33,1-1.33-.7-2.88-1.14-3.36-2.9a11.14,11.14,0,0,0-1.12-2.27c-.24-.46-.51-.72,0-1.34.77-.91-1.07-1.08-.88-2,.68-.33,1.59,1.93,2.09-.2,0-.65.38-.77.92-.73l1.64.57c.31.07.67-.12.95.18-.1-.28-.47-.36-.51-.68l-2.23-3.46C175.74,109.9,179.81,114.5,179.75,117.54Z"/><path id="Path_15294" data-name="Path 15294" class="cls-5" d="M133.1,92.65c-.1.42.47.73.17,1.24-1.48-1.17-2.92-2.33-3.41-4.27a5.19,5.19,0,0,1,.88-.13l.62-.26c-.25.68.64.55.7,1,.26.27.8.28.77.82S133.38,92.06,133.1,92.65Z"/><path id="Path_15295" data-name="Path 15295" class="cls-6" d="M67.74,21.93l.33.28c-.08.57-.16,1.13-.24,1.71-.7,0-.59-.69-.91-1-.64.26,0,.92-.45,1.27-1.12-.6-1.64-1.75-2.35-2.75a5.68,5.68,0,0,0,3.67.47Z"/><path id="Path_15296" data-name="Path 15296" class="cls-7" d="M115,189.81l-.47.07a40.33,40.33,0,0,0-4.6-4.55c-.32-.31-.68-.16-1-.33a.54.54,0,0,1,.26-.63,1,1,0,0,1,.5-.05c.23.09.47.19.7.3a4.15,4.15,0,0,1,2.37,1.82,17.23,17.23,0,0,1,1.75,2C114.71,188.88,115.52,189.13,115,189.81Z"/><path id="Path_15297" data-name="Path 15297" class="cls-8" d="M75.31,19.91c-1.19-1.32-2.39-2.62-3.56-3.95-.23-.26-.92-.4-.47-.91.14-.18.66,0,1,0A22.81,22.81,0,0,1,75.31,19.91Z"/><path id="Path_15298" data-name="Path 15298" class="cls-9" d="M173.51,113.61l-.92.73-.86-.65c-.49-.37-1.56-.54-1.12-1.29.29-.49,1.31-.23,2,.16A1.83,1.83,0,0,1,173.51,113.61Z"/><path id="Path_15299" data-name="Path 15299" class="cls-10" d="M89.41,112.28a10.2,10.2,0,0,0,.44,3.34c-.75.68-1-.25-1.41-.47a4.13,4.13,0,0,1-.39-2.05A1.51,1.51,0,0,0,89.41,112.28Z"/><path id="Path_15300" data-name="Path 15300" class="cls-11" d="M88.36,123.85l1.52,3.9c-1.49-.66-1.65-2.18-2.17-3.44C87.46,123.67,88.23,124.13,88.36,123.85Z"/><path id="Path_15301" data-name="Path 15301" class="cls-12" d="M87.48,116.13c-.15.94,1.7,2.3-.6,2.77l-.41-1.5a3.11,3.11,0,0,1,.3-.82C87,116.41,87.14,116.11,87.48,116.13Z"/><path id="Path_15302" data-name="Path 15302" class="cls-10" d="M86.76,119.23c1.24,1,.66,2.67,1.33,3.89A3.55,3.55,0,0,1,86.76,119.23Z"/><path id="Path_15303" data-name="Path 15303" class="cls-13" d="M132.43,16.88c-.31-1.49.35-2,1.79-1.87Z"/><path id="Path_15304" data-name="Path 15304" class="cls-14" d="M108.47,179.05c-.24.65-.88.67-1.4.86a.55.55,0,0,1-.64-.3C107,179,107.45,178,108.47,179.05Z"/><path id="Path_15305" data-name="Path 15305" class="cls-15" d="M73.63,26.33l2.21,1.32-1,.27A1.94,1.94,0,0,1,73.35,27C73.44,26.76,73.53,26.55,73.63,26.33Z"/><path id="Path_15306" data-name="Path 15306" class="cls-16" d="M92.85,118.43c-.66-.44.06-1.3-.54-1.75,0-.42.34-.38.62-.38C93.1,117,94.32,117.77,92.85,118.43Z"/><path id="Path_15307" data-name="Path 15307" class="cls-5" d="M94.39,126.8c.64,0,.82.67,1.32.85-.47.35-1.22-.57-1.67.41-.1.23-.49-.42-.5-.82A8.53,8.53,0,0,1,94.39,126.8Z"/><path id="Path_15308" data-name="Path 15308" class="cls-17" d="M91.81,129.46a.78.78,0,0,0-.43-.68c.64-.77,1.15-.39,1.64.19.49.25.77.54.18,1C92.73,129.8,92.15,130,91.81,129.46Z"/><path id="Path_15309" data-name="Path 15309" class="cls-18" d="M108.55,183c.54,0,1.16-.05,1.23.75a.57.57,0,0,1-.44.67l0,0c-.54.15-1,.19-.93-.62Z"/><path id="Path_15310" data-name="Path 15310" class="cls-19" d="M86.88,116.84l-.41.56a5.8,5.8,0,0,1-.75-2.53c.84.09.43,1.2,1.13,1.37C87,116.43,86.92,116.64,86.88,116.84Z"/><path id="Path_15311" data-name="Path 15311" class="cls-20" d="M32.6,49.37a1.34,1.34,0,0,1,.18,1.81,10.89,10.89,0,0,0-.67-1C31.43,49.39,32.39,49.61,32.6,49.37Z"/><path id="Path_15312" data-name="Path 15312" class="cls-21" d="M65.61,83.53c-.77-.45-1.25-1-.74-1.94C65.23,82.19,66.34,82.51,65.61,83.53Z"/><path id="Path_15313" data-name="Path 15313" class="cls-22" d="M91.81,129.46c.48.1,1,0,1.39.5-.83.13-1.66.29-2.2-.62Z"/><path id="Path_15314" data-name="Path 15314" class="cls-23" d="M108.44,183.83a1.13,1.13,0,0,0,.93.61l-.4.57c-.33-.2-.67-.38-1-.6-.16-.11-.51-.24-.32-.46S108.17,183.86,108.44,183.83Z"/><path id="Path_15315" data-name="Path 15315" class="cls-24" d="M94.39,126.79a.82.82,0,0,1-.85.45c-.64-.69-1-.33-1.25.35a.47.47,0,0,1-.49-.2.67.67,0,0,1,.46-.65C93,125.87,93.67,127,94.39,126.79Z"/><path id="Path_15316" data-name="Path 15316" class="cls-25" d="M106.43,179.61l.64.29c-.16.36,0,.82-.38,1.1-.17-.65-.6-.55-1-.35-.3-.11-.4-.26-.12-.51Z"/><path id="Path_15317" data-name="Path 15317" class="cls-26" d="M2.78,121.54l-.84-2,.3-.24c.3.61.92,1.06.92,1.82a.36.36,0,0,1-.28.41Z"/><path id="Path_15318" data-name="Path 15318" class="cls-12" d="M86.88,116.84l0-.6c1-.51.09-1.55.61-2.2a2,2,0,0,1,0,2.09Z"/><path id="Path_15319" data-name="Path 15319" class="cls-27" d="M175.59,113.67c.56.36,1.27.62,1.12,1.67-.63-.39-.88-1.09-1.56-1.16Z"/><path id="Path_15320" data-name="Path 15320" class="cls-28" d="M105.63,182.87c.13.33-.08.92.62.84-.21.48-.58,1-1,.51S105.35,183.29,105.63,182.87Z"/><path id="Path_15321" data-name="Path 15321" class="cls-29" d="M111.49,177.08c.32.31.5.74.23,1.08s-.55-.21-.87-.18c-.18-.14-.53-.33-.51-.42.11-.48.42,0,.61-.08A4.19,4.19,0,0,0,111.49,177.08Z"/><path id="Path_15322" data-name="Path 15322" class="cls-30" d="M121.71,14.73c1.29,0,.38,1.16.79,1.63C121.51,16.17,121.31,15.59,121.71,14.73Z"/><path id="Path_15323" data-name="Path 15323" class="cls-31" d="M92.93,116.3l-.62.38a1.81,1.81,0,0,1-.3-1.75Z"/><path id="Path_15324" data-name="Path 15324" class="cls-17" d="M133.1,92.65c-.6-.44-.1-1.08-.27-1.6a2.1,2.1,0,0,1,.83,1.43Z"/><path id="Path_15325" data-name="Path 15325" class="cls-1" d="M93,129a2,2,0,0,0-1.64-.18,1.29,1.29,0,0,1-.22-1,1.07,1.07,0,0,1,.47,0c.32.2.78.14,1,.54Z"/><path id="Path_15326" data-name="Path 15326" class="cls-32" d="M177.18,122.07a1.08,1.08,0,0,1-.24-1c-.06-.23,0-.35.28-.35.36.19.7.4.68.89Z"/><path id="Path_15327" data-name="Path 15327" class="cls-33" d="M73.35,27l1.52.94C73.9,28.36,73.6,27.7,73.35,27Z"/><path id="Path_15328" data-name="Path 15328" class="cls-34" d="M111.39,171.81c.33.2.51-.76.84-.14.23.42.19.85-.47.83C111.52,172.33,111.32,172.14,111.39,171.81Z"/><path id="Path_15329" data-name="Path 15329" class="cls-35" d="M90.18,111.85l-.81.43c-.13-.49-.19-1,.4-1.17S90.11,111.56,90.18,111.85Z"/><path id="Path_15330" data-name="Path 15330" class="cls-36" d="M5.1,106c.09.31.47.6,0,.92s-.72.46-1.1,0Z"/><path id="Path_15331" data-name="Path 15331" class="cls-32" d="M30.5,48c.56-.47.8.06,1.11.36C31.06,48.79,30.64,48.83,30.5,48Z"/><path id="Path_15332" data-name="Path 15332" class="cls-37" d="M59.3,68c-.47-.48-1-1-.58-1.72A1.7,1.7,0,0,1,59.3,68Z"/><path id="Path_15333" data-name="Path 15333" class="cls-38" d="M64.86,81.59a1.54,1.54,0,0,1-.78-1.42C64.51,80.55,65.08,80.85,64.86,81.59Z"/><path id="Path_15334" data-name="Path 15334" class="cls-39" d="M92.62,128.26l-1.16-.3a.48.48,0,0,1,.38-.57h0l.42.2A.64.64,0,0,1,92.62,128.26Z"/><path id="Path_15335" data-name="Path 15335" class="cls-40" d="M132.06,90.24c-.29-.31-1.27-.11-.7-1l.08-.13C131.61,89.5,132.18,89.68,132.06,90.24Z"/><path id="Path_15336" data-name="Path 15336" class="cls-41" d="M118.54,191.15c-.32-.25-.75-.43-.56-1l.87.5Z"/><path id="Path_15337" data-name="Path 15337" class="cls-42" d="M69.39,24.86a1,1,0,0,0,.89.08c.16.36.12.77-.28.77S69.38,25.3,69.39,24.86Z"/><path id="Path_15338" data-name="Path 15338" class="cls-43" d="M68.28,11.06a.19.19,0,0,1-.2-.12c.26-.28-.28-.89.42-1C68.89,10.42,68.38,10.7,68.28,11.06Z"/><path id="Path_15339" data-name="Path 15339" class="cls-44" d="M105.52,180.14l.12.51c-.26.26-.64.48-.81.07C104.57,180.08,105.17,180.2,105.52,180.14Z"/><path id="Path_15340" data-name="Path 15340" class="cls-45" d="M46.72,82.25c-.14-.37-.55-.5-.37-.86a.37.37,0,0,1,.48-.16.31.31,0,0,1,.11.09,1.44,1.44,0,0,1,.09.82C47,82.25,46.79,82.41,46.72,82.25Z"/><path id="Path_15341" data-name="Path 15341" class="cls-46" d="M2.78,121.54l.38-.41c.3.3.62.61.18,1-.1.1-.32.21-.41.17C2.58,122.15,2.74,121.83,2.78,121.54Z"/><path id="Path_15342" data-name="Path 15342" class="cls-47" d="M112.4,186.73c-.32-1.32-1.82-1.19-2.5-2.06-.14-.46,1,.28.5-.55a5.15,5.15,0,0,1,3.6,3.23C113.31,187.54,113,186.73,112.4,186.73Z"/><path id="Path_15343" data-name="Path 15343" class="cls-48" d="M112.47,181.39a7.25,7.25,0,0,1-2.83-1.73A2.62,2.62,0,0,1,112.47,181.39Z"/><path id="Path_15344" data-name="Path 15344" class="cls-49" d="M112.4,186.73c.75-.37,1,.51,1.6.62l.93,1.18c-.13.3-.29.45-.51.07Z"/><path id="Path_15345" data-name="Path 15345" class="cls-50" d="M114.42,188.6l.5-.07c.38.21,1,.26.87.89-.07.44-.41.47-.78.39Z"/><path id="Path_15346" data-name="Path 15346" class="cls-51" d="M110.39,184.12l.35.54h-.85l-.55-.25.44-.67Z"/><path id="Path_15347" data-name="Path 15347" class="cls-52" d="M67.79,21.92a1.69,1.69,0,0,1-.25-1.41.92.92,0,0,1,.34,1.25,1.15,1.15,0,0,1-.14.17Z"/><path id="Path_15348" data-name="Path 15348" class="cls-53" d="M90,116.13a5.48,5.48,0,0,1,.43,3c-.06-1.52-1.8-2-1.88-3.52C89.17,115.45,89.48,116.12,90,116.13Z"/><path id="Path_15349" data-name="Path 15349" class="cls-12" d="M90,116.13c-.62.25-1-.28-1.45-.48l-.13-.5c.58-.15.92.4,1.42.47Z"/><path id="Path_15350" data-name="Path 15350" class="cls-54" d="M91.87,127.38l-.42.58-.29-.2c.07-.65.55-.87,1.09-1Z"/><path id="Path_15351" data-name="Path 15351" class="cls-55" d="M177.22,120.73l-.28.35c0-.67-.81-1.39.34-2.14C177.09,119.64,177.88,120.12,177.22,120.73Z"/></g></g></g></g></svg>