<svg xmlns="http://www.w3.org/2000/svg" viewBox="0 0 370.67 250.56"><defs><style>.cls-1{fill:#009b76;}.cls-2{fill:#0ba07c;}.cls-3{fill:#e7f5f1;}.cls-4{fill:#0ea17d;}.cls-5{fill:#2ead8e;}.cls-6{fill:#39b294;}.cls-7{fill:#65c2ac;}.cls-8{fill:#67c3ad;}.cls-9{fill:#7acbb7;}.cls-10{fill:#51bba1;}.cls-11{fill:#35b092;}.cls-12{fill:#6dc5b0;}.cls-13{fill:#4fbaa0;}.cls-14{fill:#7ccbb8;}.cls-15{fill:#16a481;}.cls-16{fill:#23a988;}.cls-17{fill:#60c0a9;}.cls-18{fill:#2cac8d;}.cls-19{fill:#fefefe;}.cls-20{fill:#fcfdfd;}.cls-21{fill:#fdfefd;}.cls-22{fill:#caeae2;}.cls-23{fill:#f9fcfb;}.cls-24{fill:#f5faf9;}.cls-25{fill:#3cb296;}.cls-26{fill:#e6f5f1;}.cls-27{fill:#aaddd1;}.cls-28{fill:#eff8f6;}.cls-29{fill:#0ca07c;}.cls-30{fill:#dcf1ec;}.cls-31{fill:#d1ede6;}.cls-32{fill:#2fae8f;}.cls-33{fill:#59bea5;}.cls-34{fill:#43b59a;}.cls-35{fill:#bce4da;}.cls-36{fill:#58bea5;}.cls-37{fill:#d3ede7;}.cls-38{fill:#addfd3;}.cls-39{fill:#0da07c;}.cls-40{fill:#a5dbce;}.cls-41{fill:#a0d9cc;}.cls-42{fill:#36b092;}.cls-43{fill:#81cdbb;}.cls-44{fill:#97d6c7;}.cls-45{fill:#84cfbc;}.cls-46{fill:#ff8e5e;}.cls-47{fill:#fff5f1;}.cls-48{fill:#ff986d;}.cls-49{fill:#ffa580;}.cls-50{fill:#ffe9e0;}.cls-51{fill:#ff9e75;}.cls-52{fill:#ffe5da;}.cls-53{fill:#ffefe9;}.cls-54{fill:#ffbda2;}.cls-55{fill:#ffe7dd;}.cls-56{fill:#ffa883;}.cls-57{fill:#ffddcf;}.cls-58{fill:#ff9f76;}.cls-59{fill:#ffceba;}.cls-60{fill:#ffcfbc;}.cls-61{fill:#ffccb7;}.cls-62{fill:#ffebe2;}.cls-63{fill:#ffa27b;}.cls-64{fill:#ffb99b;}.cls-65{fill:#ffab88;}.cls-66{fill:#ffbb9f;}.cls-67{fill:#ffb698;}.cls-68{fill:#ffa078;}.cls-69{fill:#ffc6af;}.cls-70{fill:#ffd4c2;}.cls-71{fill:#ffb393;}.cls-72{fill:#ffb08f;}.cls-73{fill:#ffcab3;}.cls-74{fill:#ffe4d8;}.cls-75{fill:#ffede5;}.cls-76{fill:#ffaf8d;}.cls-77{fill:#ffc3aa;}.cls-78{fill:#ffc9b2;}.cls-79{fill:#ffb597;}.cls-80{fill:#ffd7c7;}.cls-81{fill:#ffe2d5;}.cls-82{fill:#ffc4ab;}.cls-83{fill:#ffd6c5;}.cls-84{fill:#fffaf9;}.cls-85{fill:#fff0ea;}.cls-86{fill:#ffbea3;}.cls-87{fill:#fff3ed;}.cls-88{fill:#ffeee7;}.cls-89{fill:#ffa47e;}.cls-90{fill:#ffa985;}.cls-91{fill:#ffad8b;}.cls-92{fill:#ffdccd;}.cls-93{fill:#ffdfd2;}.cls-94{fill:#ffded0;}.cls-95{fill:#ffd2bf;}.cls-96{fill:#ffb190;}.cls-97{fill:#fdc5c3;}.cls-98{fill:#fefafa;}.cls-99{fill:#fecac8;}.cls-100{fill:#fed1d0;}.cls-101{fill:#fef4f4;}.cls-102{fill:#fecdcb;}.cls-103{fill:#fed1cf;}.cls-104{fill:#fef2f2;}.cls-105{fill:#fef7f7;}.cls-106{fill:#fef2f1;}.cls-107{fill:#fedddc;}.cls-108{fill:#fef3f2;}.cls-109{fill:#fed2d0;}.cls-110{fill:#feeeed;}.cls-111{fill:#fecdcc;}.cls-112{fill:#fee6e5;}.cls-113{fill:#fee7e6;}.cls-114{fill:#fee5e4;}.cls-115{fill:#fef5f5;}.cls-116{fill:#fecfce;}.cls-117{fill:#fedbda;}.cls-118{fill:#fed4d3;}.cls-119{fill:#fedcdb;}.cls-120{fill:#fecfcd;}.cls-121{fill:#fedad8;}.cls-122{fill:#fececc;}.cls-123{fill:#fee2e1;}.cls-124{fill:#fee9e8;}.cls-125{fill:#fed8d6;}.cls-126{fill:#fed6d5;}.cls-127{fill:#fee4e3;}.cls-128{fill:#fef1f1;}.cls-129{fill:#fef6f5;}.cls-130{fill:#fed6d4;}.cls-131{fill:#fee0df;}.cls-132{fill:#fee3e2;}.cls-133{fill:#fed9d8;}.cls-134{fill:#fedad9;}.cls-135{fill:#feebea;}.cls-136{fill:#fef0f0;}.cls-137{fill:#fee1e0;}.cls-138{fill:#feeae9;}.cls-139{fill:#fefdfd;}.cls-140{fill:#fef8f8;}.cls-141{fill:#fededd;}.cls-142{fill:#fef6f6;}.cls-143{fill:#fef9f8;}.cls-144{fill:#fececd;}.cls-145{fill:#fef7f6;}.cls-146{fill:#fed0cf;}.cls-147{fill:#fed8d7;}.cls-148{fill:#fee9e9;}.cls-149{fill:#fed3d1;}.cls-150{fill:#fed9d7;}.cls-151{fill:#fed5d3;}.cls-152{fill:#feeded;}.cls-153{fill:#feefef;}.cls-154{fill:#fededc;}.cls-155{fill:#feeeee;}.cls-156{fill:#fee8e7;}.cls-157{fill:#fed7d5;}.cls-158{fill:#f2f0d5;}.cls-159{fill:#faf9f0;}</style></defs><g id="圖層_2" data-name="圖層 2"><g id="圖層_1-2" data-name="圖層 1"><g id="Group_459" data-name="Group 459"><g id="Group_113" data-name="Group 113"><path id="Path_17655" data-name="Path 17655" class="cls-1" d="M179.59,13.06A18,18,0,0,0,178,8.37c-.18-.38-.37-.76-.54-1.14s-.17-1.05-1-1.08c-.26,0-.5-.63-.75-1-.21-.15-.47-.06-.68-.17l-.65-.22c-.22-.3-.61-.41-.83-.72s-.42-.43-.75-.42c-.4.18-.08.41,0,.62.51,1.62,1.49,3.06,2,5-.91-.57-1.61-.19-2.47,0a8.9,8.9,0,0,0,.46-4.92c-.12-.25-.31-.49-.05-.76.06-.28-.06-.55,0-.82a1.19,1.19,0,0,0,1-1.34,1.1,1.1,0,0,0,0-.87A1.93,1.93,0,0,0,171,.6a2,2,0,0,0-.42.69c-.29,1-.44,2-.65,3a.9.9,0,0,0-.1.39c0,.12.4.68-.26.31-.6,1.47-.87,3.06-1.4,4.55A83.48,83.48,0,0,1,164,19.56c-1.87,3.72-3.46,7.55-5,11.4a65.63,65.63,0,0,0-3.62,11.85,59.44,59.44,0,0,0-1.46,11.11c0,1.75-.1,3.52-.22,5.28A15.37,15.37,0,0,0,155,66.64a8.43,8.43,0,0,1,.45,1.18c.53,1.88,1.1,2.31,3,2.4.4,0,1-.45,1.22.38a.26.26,0,0,0,.27,0,1.14,1.14,0,0,0,.51-.7,2.83,2.83,0,0,0,0-.29c-.15-.64.41-1,.61-1.49,0-.13.17-.15.08,0l.12.16a.5.5,0,0,1,0,.58,14.55,14.55,0,0,0-.62,1.59,1.82,1.82,0,0,0,0,.57c.16.73-.45,1-.8,1.5a2.54,2.54,0,0,0-.4.46c-.23.52-.05.78.49.91s.88.5,1.52,0c1.26-1,1.63-2.44,2.42-3.66a18.34,18.34,0,0,1,5.63-5.6,8.37,8.37,0,0,0,2.51-3,44.69,44.69,0,0,0,2.21-4.23c.31-.64.73-1.31.25-2.09-.28-.46.24-.59.43-.84,1.75-2.37,3.78-4.59,4.58-7.5.52-1.9.78-3.88,1.15-5.82.1-.2,0-.36-.07-.54a1.44,1.44,0,0,1,0-1.08,5.87,5.87,0,0,1,.39-2.9,1.89,1.89,0,0,1,.28-.76,1,1,0,0,0,.1-.21c.17-.22.26.23.42,0s0-.67.05-1c.3-.39.2-.9.39-1.32a1,1,0,0,1,.15-.24c-.29-5.45-.16-10.95-2-16.21-.05-.77-.05-1.84-.58-2.13-.72-.37-.53-.88-.68-1.34S179.35,13.13,179.59,13.06Z"/><path id="Path_17656" data-name="Path 17656" class="cls-2" d="M179.59,13.06c-.54-.41-.88-.24-.84.39a6.63,6.63,0,0,0,.4,1.53c0,.13,0,.42.27.09s.36-.1.4.18a5.85,5.85,0,0,0,.5,1.72A9,9,0,0,0,179.59,13.06Z"/><path id="Path_17657" data-name="Path 17657" class="cls-3" d="M181.16,35.61s0,.11,0,.16a2.86,2.86,0,0,1-.39.68,5.45,5.45,0,0,0-.41,3.16c0,.28-.19.59.2.74.18-.09.19-.27.24-.42a15.52,15.52,0,0,0,.29-1.79c.07-.27-.06-.55.08-.85,0-.11.18,0,0,0s-.1.09-.1.16,0,.36.15.47l.36-1.31C181.23,36.37,181.84,35.73,181.16,35.61Z"/><path id="Path_17658" data-name="Path 17658" class="cls-4" d="M173.51,1.39c-.17.39.06,1.14-.84.85-.14,0-.19.32-.16.54.2.19.34.47.68.46s.59-.31.81-.56c.43-.38-.33-.7-.05-1.08C173.94,1.23,173.76,1.24,173.51,1.39Z"/><path id="Path_17659" data-name="Path 17659" class="cls-5" d="M173.55,4.11c0,.68.52.57.9.69l-.28-1.07c-.21-.36-.44-.45-.71-.06A.44.44,0,0,0,173.55,4.11Z"/><path id="Path_17660" data-name="Path 17660" class="cls-6" d="M173.53,3.82c.16-.37.4-.2.64-.09l-.17-1-.88.44C172.88,3.57,173.15,3.73,173.53,3.82Z"/><path id="Path_17661" data-name="Path 17661" class="cls-7" d="M169.56,5a.41.41,0,0,1,.27.5c0,.16,0,.3.22.24a1.19,1.19,0,0,0,.42-.28.18.18,0,0,0-.07-.33c-.45-.12-.45-.48-.48-.83Z"/><path id="Path_17662" data-name="Path 17662" class="cls-8" d="M181,38.15l-.32,1.73a.18.18,0,0,0,.26,0l.05,0a4.69,4.69,0,0,0,.18-1.53A.27.27,0,0,0,181,38.15Z"/><path id="Path_17663" data-name="Path 17663" class="cls-9" d="M182.14,33.2a1.61,1.61,0,0,0-.35,1.54c.76.46.44-.27.56-.5C182,33.94,182.47,33.49,182.14,33.2Z"/><path id="Path_17664" data-name="Path 17664" class="cls-10" d="M159.79,70.6h-.19l-.23.26c0,.22.07.3.28.21s0,.92.59.39c0-.23.19-.45.06-.69S160,70.49,159.79,70.6Z"/><path id="Path_17665" data-name="Path 17665" class="cls-11" d="M173.51,1.39a.45.45,0,0,1,.44.21c.73-.54-.06-.74-.24-1.07Z"/><path id="Path_17666" data-name="Path 17666" class="cls-12" d="M181.16,35.61c.41.23,0,.81.42,1,.06-.3.11-.6.16-.89l-.26-.76A.76.76,0,0,0,181.16,35.61Z"/><path id="Path_17667" data-name="Path 17667" class="cls-13" d="M181,39.88h-.31l-.09.38c-.11.14-.33.24-.17.48l.23.43Z"/><path id="Path_17668" data-name="Path 17668" class="cls-14" d="M160.21,70.87c.07.19-.25.4,0,.58l.4-.44a.41.41,0,0,0,.19-.45.47.47,0,0,0-.61.28Z"/><path id="Path_17669" data-name="Path 17669" class="cls-10" d="M159.65,71.06l-.28-.2a.38.38,0,0,0-.09.67C159.64,71.69,159.55,71.25,159.65,71.06Z"/><path id="Path_17670" data-name="Path 17670" class="cls-15" d="M175.1,5c.15.38.4.34.68.16a.53.53,0,0,0-.39-.54C175.32,4.63,175.2,4.89,175.1,5Z"/><path id="Path_17671" data-name="Path 17671" class="cls-16" d="M182.14,33.2c.26.3-.55.84.21,1l0-1.06Z"/><path id="Path_17672" data-name="Path 17672" class="cls-17" d="M181,38.15l.17.2c0-.14.05-.28.08-.42l-.08-.66C180.84,37.56,181,37.87,181,38.15Z"/><path id="Path_17673" data-name="Path 17673" class="cls-18" d="M159.44,73a.4.4,0,0,0,.4-.4v-.06C159.44,72.44,159.42,72.7,159.44,73Z"/><path id="Path_17674" data-name="Path 17674" class="cls-19" d="M176.78,14.46c.55,5.59.41,11.09.61,16.5a9.82,9.82,0,0,1,1.19-.84,1.47,1.47,0,0,0,.82-1.91l0,0a6.89,6.89,0,0,1,.05-2.22c.17-2.34-1-4.41-1.32-6.64-.21-1.29-.55-2.55-.82-3.83A1.75,1.75,0,0,0,176.78,14.46Z"/><path id="Path_17675" data-name="Path 17675" class="cls-20" d="M165.22,24.14l-.63,1.36c-.41.11-.58.35-.36.76a4.34,4.34,0,0,1-.44,3c-.53,1.15-.82,2.38-1.25,3.57-.12.34-.14.52.22.63s.24-.29.33-.45c.7-1.23.81-2.75,1.9-4,.08.34.13.58.17.71,1.9-1.45,2-3.58,2-5.72-.64.24-.48.92-.73,1.36s-.16,1-.33,1.48l-.05.08a.65.65,0,0,1,.1-.15c.15-.4-.16-.87.23-1.21a3.86,3.86,0,0,1,.35-1.09c.12-.33.2-.69-.26-.86s-.27.92-.88.44a.22.22,0,0,0-.31-.06A.24.24,0,0,0,165.22,24.14Z"/><path id="Path_17676" data-name="Path 17676" class="cls-21" d="M178.66,39.3c-1.58,3.45-2.78,7.08-4.43,10.51a5,5,0,0,0-.46,2c.23.12.34-.1.5-.17s.28-.59.46-.87.51-.68.47-1.14a31,31,0,0,0,3.38-7.92,6.67,6.67,0,0,0,.33-1.77C178.9,39.71,179.18,39.35,178.66,39.3Z"/><path id="Path_17677" data-name="Path 17677" class="cls-20" d="M172.73,4.2A15.78,15.78,0,0,1,172,9.79a4.41,4.41,0,0,1,1.49-.6,1.08,1.08,0,0,1,.79,0c.21.07.13.69.57.3s.25-.55.11-.91a37.6,37.6,0,0,0-2.06-4.41C172.86,4.12,172.79,4.12,172.73,4.2Z"/><path id="Path_17678" data-name="Path 17678" class="cls-22" d="M173.57,53.34l-.34.47c.33.25.65.09,1,0s.59-.29.89-.44.83-.34.63-.93a1.7,1.7,0,0,0-1.09,0l0,0C174.19,52.64,173.68,52.75,173.57,53.34Z"/><path id="Path_17679" data-name="Path 17679" class="cls-23" d="M171.21,11.87c-.21.74-.44,1.47-.63,2.22,0,.14-.24.44.17.45.2,0,.51.05.46-.27C171.08,13.45,171.46,12.66,171.21,11.87Z"/><path id="Path_17680" data-name="Path 17680" class="cls-24" d="M160.21,70.87l.62-.31.63-1.7c-.22-.12-.38,0-.55.13-.33.25-.45.66-.7,1l-.41.65Z"/><path id="Path_17681" data-name="Path 17681" class="cls-25" d="M173.57,53.34l1.07-.88c-.38,0-.44-.25-.45-.55.13-.1.13-.19,0-.29l-.41.2C173.61,52.32,173.13,52.77,173.57,53.34Z"/><path id="Path_17682" data-name="Path 17682" class="cls-26" d="M164.23,26.26l.36-.76c-.25,0-.57-.39-.75.16a7.35,7.35,0,0,0-.68,1.87C163.79,27.26,163.65,26.47,164.23,26.26Z"/><path id="Path_17683" data-name="Path 17683" class="cls-27" d="M166.52,25.58c.43-.41.14-1.14.66-1.51.2-.16.23-.36,0-.52s-.52-.07-.74.12a1,1,0,0,1,0,1.15c-.1.23-.55.43-.15.77C166.39,25.69,166.46,25.69,166.52,25.58Z"/><path id="Path_17684" data-name="Path 17684" class="cls-28" d="M161.24,68.21a1,1,0,0,0-.2-.95c.05,1-1.31,1.4-.85,2.5.5,0,.38-.6.71-.78A1,1,0,0,0,161.24,68.21Z"/><path id="Path_17685" data-name="Path 17685" class="cls-29" d="M174.63,52.44a1.74,1.74,0,0,0,1.08,0c0-.28,0-.56,0-1C175.19,51.75,174.67,51.83,174.63,52.44Z"/><path id="Path_17686" data-name="Path 17686" class="cls-29" d="M175.2,49.65a2.45,2.45,0,0,0-.66,1.09c0,.2.07.27.26.21C175.17,50.59,175.77,50.29,175.2,49.65Z"/><path id="Path_17687" data-name="Path 17687" class="cls-30" d="M173.53,3.83a1.22,1.22,0,0,1-.4-.71c-.21-.11-.28-.47-.62-.34a.92.92,0,0,0,.22.78.29.29,0,0,0,.2.19c.19.15.29.46.62.36Z"/><path id="Path_17688" data-name="Path 17688" class="cls-31" d="M178.15,16.13a8.17,8.17,0,0,0,.44,1.91c.24-.26,0-.6.17-.87l-.21-1.05C178.41,16,178.28,16,178.15,16.13Z"/><path id="Path_17689" data-name="Path 17689" class="cls-32" d="M161.24,68.21l-.44.63c-.05.22,0,.3.26.24l.4-.23c.06-.2.41-.23.33-.48S161.43,68.24,161.24,68.21Z"/><path id="Path_17690" data-name="Path 17690" class="cls-33" d="M174.27,53.62l-1,.2c-.14.25-.12.46.16.6.21-.28.69-.06.85-.45h0a.24.24,0,0,0,0-.33Z"/><path id="Path_17691" data-name="Path 17691" class="cls-34" d="M165.22,24.14l.39,0c.33-.23.31-.56.28-1A2,2,0,0,0,165.22,24.14Z"/><path id="Path_17692" data-name="Path 17692" class="cls-35" d="M174.8,51l-.26-.21-.36.88a2.71,2.71,0,0,0,0,.29C174.54,51.69,174.85,51.43,174.8,51Z"/><path id="Path_17693" data-name="Path 17693" class="cls-36" d="M161.06,69.08l-.25-.24c-.43.15-.27.71-.62.92a.21.21,0,0,0,0,.2C160.67,69.83,160.8,69.39,161.06,69.08Z"/><path id="Path_17694" data-name="Path 17694" class="cls-37" d="M178.76,17.17c-.26.25-.13.58-.17.87s0,.51.4.55C179.14,18.07,178.72,17.65,178.76,17.17Z"/><path id="Path_17695" data-name="Path 17695" class="cls-38" d="M178.66,39.29c.29.15.17.44.25.67.33-.42.13-.87.13-1.35C178.71,38.75,178.75,39.06,178.66,39.29Z"/><path id="Path_17696" data-name="Path 17696" class="cls-29" d="M174.26,53.62l0,.35a1,1,0,0,0,.84-.64Z"/><path id="Path_17697" data-name="Path 17697" class="cls-39" d="M170.78,4.25c.07-.15.15-.26.13-.3a.54.54,0,0,0-.29-.25c-.19,0-.23.12-.16.26S170.64,4.12,170.78,4.25Z"/><path id="Path_17698" data-name="Path 17698" class="cls-29" d="M174.24,54c-.26.2-.74,0-.85.45C173.72,54.37,174.18,54.54,174.24,54Z"/><path id="Path_17699" data-name="Path 17699" class="cls-40" d="M180.39,40.75c.05-.16.11-.32.17-.48-.27-.15-.14-.44-.24-.65C180.15,40,180,40.4,180.39,40.75Z"/><path id="Path_17700" data-name="Path 17700" class="cls-41" d="M178.93,18.94a1.6,1.6,0,0,0,.26.93C179.3,19.49,179.42,19.16,178.93,18.94Z"/><path id="Path_17701" data-name="Path 17701" class="cls-12" d="M180.73,36.45c.51,0,.41-.36.39-.67A.68.68,0,0,0,180.73,36.45Z"/><path id="Path_17702" data-name="Path 17702" class="cls-42" d="M178.15,16.13h.4l-.27-.66C178,15.65,178.14,15.9,178.15,16.13Z"/><path id="Path_17703" data-name="Path 17703" class="cls-43" d="M172.93,3.75l-.2-.2c-.27.22-.34.44,0,.65h.19C172.92,4.06,172.64,3.89,172.93,3.75Z"/><path id="Path_17704" data-name="Path 17704" class="cls-44" d="M166.52,25.58h-.2c-.46.38-.33.84-.18,1.3h0C166.55,26.54,166.42,26,166.52,25.58Z"/><path id="Path_17705" data-name="Path 17705" class="cls-45" d="M166.14,26.89a.59.59,0,0,0-.38.76v0a1.11,1.11,0,0,0,.35-.8Z"/></g><g id="Group_114" data-name="Group 114"><path id="Path_17706" data-name="Path 17706" class="cls-1" d="M107.08,29.08a19.5,19.5,0,0,1-1.14-5.22c0-.45-.06-.91-.12-1.36s-.42-1.07.31-1.54c.24-.15.12-.85.17-1.31.12-.24.41-.31.55-.52l.48-.56c0-.41.34-.72.37-1.13s.16-.63.47-.8c.47-.05.3.33.38.55.42,1.79.3,3.67.86,5.74.53-1,1.39-1.07,2.29-1.37a9.59,9.59,0,0,1-3.12-4.33c0-.3,0-.63-.38-.74-.2-.22-.24-.54-.44-.76a1.31,1.31,0,0,1-1.65-.72c-.2-.25-.47-.46-.44-.83a2.08,2.08,0,0,1,2.57-1.43,2,2,0,0,1,.77.41c.8.74,1.5,1.6,2.24,2.4.14.06.2.2.3.3s0,.86.41.16c1.38,1,2.5,2.36,3.8,3.46a91.49,91.49,0,0,0,9.45,7.07c3.78,2.43,7.37,5.13,11,7.84a71.21,71.21,0,0,1,9.88,9A65,65,0,0,1,153.5,53c1,1.62,2,3.22,3.1,4.8a16.67,16.67,0,0,1,2.83,7.66,9,9,0,0,0,.23,1.36c.53,2,.24,2.75-1.47,3.87-.36.24-1.21.15-.93,1a.28.28,0,0,1-.23.19,1.17,1.17,0,0,1-.86-.38,1.2,1.2,0,0,1-.18-.26c-.21-.67-.93-.69-1.39-1-.11-.09-.24,0-.1,0s0,.14,0,.22a.5.5,0,0,0,.27.55,16.27,16.27,0,0,1,1.45,1.15,1.92,1.92,0,0,1,.32.53c.25.77,1,.72,1.56.95a2.77,2.77,0,0,1,.63.22c.5.35.48.69.05,1.12s-.54.94-1.41.84c-1.7-.21-2.86-1.38-4.27-2.09a20.11,20.11,0,0,0-8.32-2.13,9.12,9.12,0,0,1-4-1.38,46.94,46.94,0,0,1-4.37-2.73c-.65-.43-1.41-.82-1.39-1.81,0-.58-.55-.42-.86-.55-2.93-1.25-6-2.2-8.39-4.47-1.53-1.49-2.84-3.19-4.26-4.79-.2-.13-.16-.36-.22-.54a1.63,1.63,0,0,0-.6-1,6.37,6.37,0,0,0-2-2.49,1.92,1.92,0,0,0-.68-.55l-.21-.14c-.27-.12-.1.36-.35.27l-.6-.9c-.49-.2-.68-.73-1.09-1a1.82,1.82,0,0,0-.27-.15c-2.72-5.23-5.86-10.28-7-16.2-.37-.74-1-1.74-.62-2.3.46-.74,0-1.11-.11-1.62S107.33,29,107.08,29.08Z"/><path id="Path_17707" data-name="Path 17707" class="cls-2" d="M107.08,29.08c.27-.67.68-.7,1-.1a7.84,7.84,0,0,1,.46,1.64c0,.14.2.4-.2.24s-.39.1-.28.38a6.13,6.13,0,0,1,.48,1.88A9.75,9.75,0,0,1,107.08,29.08Z"/><path id="Path_17708" data-name="Path 17708" class="cls-3" d="M118,51l.13.13a3.54,3.54,0,0,0,.73.42A5.83,5.83,0,0,1,121,54.22c.18.24.5.44.21.8-.21,0-.32-.14-.46-.26a17.61,17.61,0,0,1-1.24-1.5c-.22-.21-.25-.55-.54-.75-.08-.1-.16.12,0,0s.15,0,.18.1.24.31.13.52l-1.06-1C118.34,51.7,117.42,51.43,118,51Z"/><path id="Path_17709" data-name="Path 17709" class="cls-4" d="M106.33,14.88c.37.27.57,1.1,1.25.33.1-.12.36.19.44.41-.08.29,0,.63-.37.8a1.29,1.29,0,0,1-1.07-.07c-.61-.13-.07-.85-.54-1C105.84,15,106,14.87,106.33,14.88Z"/><path id="Path_17710" data-name="Path 17710" class="cls-5" d="M107.79,17.43c.41.61-.17.81-.46,1.14L107,17.42c0-.46.16-.66.62-.45A.45.45,0,0,1,107.79,17.43Z"/><path id="Path_17711" data-name="Path 17711" class="cls-6" d="M107.65,17.15c-.36-.26-.49,0-.64.27l-.43-1.07,1.06-.08C108.11,16.55,108,16.85,107.65,17.15Z"/><path id="Path_17712" data-name="Path 17712" class="cls-7" d="M112,16a.45.45,0,0,0,0,.61c.12.13.12.31-.07.35a1.27,1.27,0,0,1-.55,0,.2.2,0,0,1-.18-.22.21.21,0,0,1,.07-.13c.35-.36.15-.69,0-1Z"/><path id="Path_17713" data-name="Path 17713" class="cls-8" d="M119.55,53.21l1.26,1.44a.19.19,0,0,1-.21.18.11.11,0,0,1-.08,0c-.33-.45-.83-.76-1-1.32A.35.35,0,0,1,119.55,53.21Z"/><path id="Path_17714" data-name="Path 17714" class="cls-9" d="M115.75,49.24a1.74,1.74,0,0,1,1.17,1.24c-.45.85-.55,0-.8-.16C116.27,49.87,115.6,49.69,115.75,49.24Z"/><path id="Path_17715" data-name="Path 17715" class="cls-10" d="M157.09,71.81l.17-.11.36.12c.13.19.1.32-.14.35s.53.83-.34.68c-.13-.21-.42-.31-.43-.61S156.83,71.84,157.09,71.81Z"/><path id="Path_17716" data-name="Path 17716" class="cls-11" d="M106.33,14.88a.47.47,0,0,0-.29.43c-1-.1-.35-.72-.37-1.13Z"/><path id="Path_17717" data-name="Path 17717" class="cls-12" d="M118,51c-.25.44.48.73.17,1.18l-.64-.75c-.05-.27-.1-.55-.16-.84A.79.79,0,0,1,118,51Z"/><path id="Path_17718" data-name="Path 17718" class="cls-13" d="M120.52,54.81l.29-.16.29.31c.19.07.45,0,.43.35v.53Z"/><path id="Path_17719" data-name="Path 17719" class="cls-14" d="M156.85,72.29c0,.22.46.24.29.56l-.61-.19a.44.44,0,0,1-.42-.32.51.51,0,0,1,.72-.07Z"/><path id="Path_17720" data-name="Path 17720" class="cls-10" d="M157.48,72.17l.15-.35c.43,0,.6.37.45.58S157.67,72.28,157.48,72.17Z"/><path id="Path_17721" data-name="Path 17721" class="cls-15" d="M106.85,19.13c.07.43-.19.53-.55.52a.56.56,0,0,1,.07-.72C106.42,18.88,106.68,19.05,106.85,19.13Z"/><path id="Path_17722" data-name="Path 17722" class="cls-16" d="M115.75,49.24c-.08.43,1,.48.37,1.08l-.56-1Z"/><path id="Path_17723" data-name="Path 17723" class="cls-17" d="M119.55,53.21l0,.28-.3-.34-.29-.67C119.35,52.59,119.37,53,119.55,53.21Z"/><path id="Path_17724" data-name="Path 17724" class="cls-18" d="M158.73,73.83a.44.44,0,0,1-.6-.16l0-.06C158.44,73.33,158.59,73.57,158.73,73.83Z"/><path id="Path_17725" data-name="Path 17725" class="cls-19" d="M110.46,28.85c2.56,5.5,5.7,10.55,8.49,15.71a9.26,9.26,0,0,0-1.57-.14,1.58,1.58,0,0,1-1.8-1.33V43a7.58,7.58,0,0,0-1.27-2c-1.44-2.08-1.52-4.64-2.41-6.91-.51-1.31-.89-2.68-1.33-4A1.83,1.83,0,0,1,110.46,28.85Z"/><path id="Path_17726" data-name="Path 17726" class="cls-20" d="M126.53,31.51l1.34.92c.45-.11.74,0,.76.52a4.65,4.65,0,0,0,2.08,2.59c1.12.78,2.07,1.76,3.11,2.64.31.25.43.4.15.7s-.38-.14-.55-.24c-1.33-.76-2.27-2.11-3.95-2.66l.23.75c-2.57-.3-3.8-2.25-5-4.21.73-.13,1,.58,1.43.86s.7.84,1.12,1.2l.1.05-.18-.1c-.36-.28-.33-.89-.88-1a4.73,4.73,0,0,0-.92-.81c-.3-.25-.57-.53-.23-.95s.75.7,1-.07C126.22,31.5,126.34,31.43,126.53,31.51Z"/><path id="Path_17727" data-name="Path 17727" class="cls-21" d="M122.33,53c3.38,2.35,6.49,5.06,9.9,7.36A5.44,5.44,0,0,1,133.78,62c-.15.25-.37.1-.56.12-.39,0-.59-.39-.9-.55s-.85-.35-1.07-.8a33.05,33.05,0,0,1-7.5-5.53,6.8,6.8,0,0,1-1.27-1.46C122.35,53.53,121.89,53.35,122.33,53Z"/><path id="Path_17728" data-name="Path 17728" class="cls-20" d="M108.6,17.06a16.83,16.83,0,0,0,3.73,4.82,4.74,4.74,0,0,0-1.71.26,1.13,1.13,0,0,0-.71.47c-.16.19.26.72-.38.6-.48-.1-.53-.39-.6-.8a41.66,41.66,0,0,1-.49-5.24C108.43,17.05,108.49,17,108.6,17.06Z"/><path id="Path_17729" data-name="Path 17729" class="cls-22" d="M134.79,63.3l.58.25c-.18.41-.56.44-.93.49a2.53,2.53,0,0,1-1.06.08c-.38-.15-1,.14-1.1-.52a1.78,1.78,0,0,1,1-.56v0C133.83,63,134.36,62.81,134.79,63.3Z"/><path id="Path_17730" data-name="Path 17730" class="cls-23" d="M114.23,23.37c.6.57,1.21,1.14,1.8,1.72.11.11.46.28.09.51-.18.12-.44.33-.57,0C115.22,24.77,114.43,24.25,114.23,23.37Z"/><path id="Path_17731" data-name="Path 17731" class="cls-24" d="M156.85,72.29l-.75,0-1.52-1.23c.14-.24.37-.2.58-.18a5,5,0,0,1,1.19.51l.74.37Z"/><path id="Path_17732" data-name="Path 17732" class="cls-25" d="M134.79,63.3l-1.48-.23c.36-.2.28-.48.12-.76q-.27,0-.15-.27l.5,0C134.19,62.37,134.88,62.53,134.79,63.3Z"/><path id="Path_17733" data-name="Path 17733" class="cls-26" d="M128.63,33l-.76-.52c.26-.09.32-.66.79-.25a8.08,8.08,0,0,1,1.66,1.37C129.59,33.64,129.28,32.82,128.63,33Z"/><path id="Path_17734" data-name="Path 17734" class="cls-27" d="M126.12,33.58c-.62-.16-.76-1-1.45-1.06-.27,0-.4-.2-.31-.46s.44-.34.75-.28c-.07.52.25.79.63,1s.76.1.57.64C126.3,33.6,126.24,33.64,126.12,33.58Z"/><path id="Path_17735" data-name="Path 17735" class="cls-28" d="M154.43,70.38a1.12,1.12,0,0,1-.33-1c.53,1,2,.59,2.16,1.86-.47.26-.68-.35-1.09-.32A1.08,1.08,0,0,1,154.43,70.38Z"/><path id="Path_17736" data-name="Path 17736" class="cls-29" d="M133.31,63a2,2,0,0,1-1,.56l-.51-.92C132.4,62.7,132.93,62.49,133.31,63Z"/><path id="Path_17737" data-name="Path 17737" class="cls-29" d="M131.25,60.75a2.72,2.72,0,0,1,1.21.66c.12.17.09.3-.13.34C131.78,61.62,131.07,61.67,131.25,60.75Z"/><path id="Path_17738" data-name="Path 17738" class="cls-30" d="M107.65,17.15a1.33,1.33,0,0,0,0-.88c.13-.22,0-.59.38-.66a1,1,0,0,1,.23.85.34.34,0,0,1-.08.29c-.1.25,0,.59-.39.68Z"/><path id="Path_17739" data-name="Path 17739" class="cls-31" d="M110.1,31.15a8.16,8.16,0,0,1,.63,2c-.35-.11-.32-.56-.63-.72l-.38-1.1C109.77,31.14,109.89,31.07,110.1,31.15Z"/><path id="Path_17740" data-name="Path 17740" class="cls-32" d="M154.43,70.38l.75.35c.17.18.13.3-.1.36l-.5,0c-.16-.15-.51,0-.57-.27S154.27,70.51,154.43,70.38Z"/><path id="Path_17741" data-name="Path 17741" class="cls-33" d="M134.29,63.94l1.08-.39c.26.16.36.37.18.65-.36-.14-.68.33-1,0h0a.26.26,0,0,1-.22-.29Z"/><path id="Path_17742" data-name="Path 17742" class="cls-34" d="M126.53,31.51l-.37.19c-.43,0-.6-.35-.84-.81A2.14,2.14,0,0,1,126.53,31.51Z"/><path id="Path_17743" data-name="Path 17743" class="cls-35" d="M132.33,61.75c0-.11.08-.23.13-.35l.82.63.15.28A1.08,1.08,0,0,1,132.33,61.75Z"/><path id="Path_17744" data-name="Path 17744" class="cls-36" d="M155.08,71.09c0-.12.07-.24.1-.36.48-.09.64.51,1.08.51a.27.27,0,0,1,.09.2C155.86,71.58,155.49,71.25,155.08,71.09Z"/><path id="Path_17745" data-name="Path 17745" class="cls-37" d="M110.11,32.45c.38.09.43.47.63.73s.25.48-.08.72C110.24,33.5,110.41,32.88,110.11,32.45Z"/><path id="Path_17746" data-name="Path 17746" class="cls-38" d="M122.34,53c-.18.29.08.5.13.75-.53-.2-.6-.74-.86-1.18C122,52.53,122.12,52.84,122.34,53Z"/><path id="Path_17747" data-name="Path 17747" class="cls-29" d="M134.29,63.94l.22.31a1.1,1.1,0,0,1-1.13-.13Z"/><path id="Path_17748" data-name="Path 17748" class="cls-39" d="M110.44,16c-.14-.1-.28-.16-.28-.21a.61.61,0,0,1,.13-.39c.16-.14.28,0,.29.15A1.39,1.39,0,0,1,110.44,16Z"/><path id="Path_17749" data-name="Path 17749" class="cls-29" d="M134.51,64.25c.35,0,.67-.43,1,0C135.21,64.34,134.88,64.75,134.51,64.25Z"/><path id="Path_17750" data-name="Path 17750" class="cls-40" d="M121.53,55.31,121.1,55c.18-.29-.11-.49-.13-.74C121.34,54.49,121.71,54.76,121.53,55.31Z"/><path id="Path_17751" data-name="Path 17751" class="cls-41" d="M110.91,34.2a1.64,1.64,0,0,1,.27,1C110.88,34.92,110.58,34.68,110.91,34.2Z"/><path id="Path_17752" data-name="Path 17752" class="cls-12" d="M118.84,51.5c-.47.27-.58-.12-.73-.42A.73.73,0,0,1,118.84,51.5Z"/><path id="Path_17753" data-name="Path 17753" class="cls-42" d="M110.1,31.15l-.38.2-.1-.75C110,30.61,110,30.94,110.1,31.15Z"/><path id="Path_17754" data-name="Path 17754" class="cls-43" d="M108.17,16.75c0-.1,0-.2.08-.29.37.06.55.22.35.6l-.08.06-.09.05C108.34,17,108.51,16.73,108.17,16.75Z"/><path id="Path_17755" data-name="Path 17755" class="cls-44" d="M126.12,33.58l.19-.11c.64.1.77.6.89,1.11v0C126.62,34.48,126.45,33.93,126.12,33.58Z"/><path id="Path_17756" data-name="Path 17756" class="cls-45" d="M127.2,34.58c.37,0,.62.08.77.53a1.14,1.14,0,0,1-.77-.55Z"/></g><g id="d9xVzo"><g id="Group_115" data-name="Group 115"><path id="Path_17757" data-name="Path 17757" class="cls-46" d="M181.16,169.27c2.22,2.39,4.35,4.86,6.69,7.15A33.62,33.62,0,0,0,192,180c1.16.8,1.49,2.12,2.06,3.27.84,1.69,1.62,3.4,2.44,5.1a2.58,2.58,0,0,0,.71,1,1.5,1.5,0,0,1,.81.68l.14.21c1.29.14,2.11,1.11,3.12,1.72a3.47,3.47,0,0,1,.93.63c1.16.69,2.48.47,3.72.5.64,0,1-.64.87-1.3a3.53,3.53,0,0,0-.25-.84.42.42,0,0,1,.22-.52c.23-.16.39,0,.56.11a2.07,2.07,0,0,0,2.92-.25,1.86,1.86,0,0,0,.21-.28c.39-.6-.56-.71-.28-1.16-.05-.33-.13-.7.45-.44a.76.76,0,0,0,.83-.69.69.69,0,0,0,0-.32c-.11-.37-.32-.7-.46-1.06s-.46-.92.34-1.15c.38-.11.28-.49.23-.82a14.18,14.18,0,0,0-3.25-7.64,2,2,0,0,1-.18-.32,4.56,4.56,0,0,0,.64,0c.7-.1.94-.57.55-1.11-.27-.36-.36-.87-.09-1,.63-.43.49-1,.61-1.6,0-.08-.11-.18-.08-.23s.07.07.13.05l.17,0c.17.25.2.61.62.63.46.27,1.09.1,1.46.64.23.32.47.28.63-.16a2.81,2.81,0,0,0,.13-1,.64.64,0,0,1,.2,0c.31.07.55.6.85.33s-.1-.63-.26-.93c-.3-.58-.82-1.18.26-1.53.1,0,.25-.21.23-.24-.52-.91.7-1.88-.14-2.77-.07-.08-.15-.27-.12-.31.74-.82-.16-1.35-.51-1.78-1.09-1.33-1.7-2.91-2.72-4.27a16.77,16.77,0,0,0-3.13-3.33A5.18,5.18,0,0,1,206,156.3a5.41,5.41,0,0,0-2-2,29,29,0,0,1-2.42-2.16,19.21,19.21,0,0,1-3.9-4.15,24.2,24.2,0,0,0-2.05-3.33c-1.12-1.23-2.21-2.48-3.31-3.73-1.51-1.72-3.12-3.36-4.52-5.17a17,17,0,0,0-3.72-3.76,10.22,10.22,0,0,1-1.64-1.89c-.1-.27,0-.55-.18-.95a26.76,26.76,0,0,0,2.28,1.68c1.17.8,2.2,1.76,3.29,2.66a19.67,19.67,0,0,0,2.83,2.06,11.83,11.83,0,0,1,1.36.84,4.1,4.1,0,0,1-.56-.36c-.3-.16-.67-.41-.91-.14s.2.53.36.79A13.22,13.22,0,0,0,194.4,139a7.19,7.19,0,0,1,1.38,1,78.31,78.31,0,0,0,8.86,6.38.42.42,0,0,0,.59,0h0c-.14-.55-.14-.55-.71-1,.78.71,1.71,1.24,2.53,1.9a8.17,8.17,0,0,0,2.23,1.16,37.1,37.1,0,0,1,4.86,2.77A25.46,25.46,0,0,1,220,157.4c1.37,1.9,2.66,3.86,4,5.77,1,1.45,2.29,2.73,3.47,4.08a54.6,54.6,0,0,1,5,6,3,3,0,0,0,.3.32c1.28.34,1.65.81,1.67,2.12a1.18,1.18,0,0,0,.12.36,15.56,15.56,0,0,1,1.41,2.4c.24,1.1,1.32,1.48,2,2.18a1.46,1.46,0,0,1,.16.19c.53.42.65,1.08,1,1.61,0,.1.1.14.16.21.25.62.83.68,1.39.81.34.09.72-.08,1,.18.55.6,1.38.53,2.05.83.86,0,.76-.83.92-1.28.36-1,.27-1,1.28-.53.12.06.29.08.37.21.2.35.31.92.88.34-.6-.73-.26-1.75-.84-2.49h0a2.23,2.23,0,0,1-.31-.64c1,.3,1.35-.57,2-.88a.28.28,0,0,0,.11-.39,12.36,12.36,0,0,1-.66-2.38c.22.25.34.68.75.87s.58.22.46-.28l-.31-.7c1.25.58,2.23,1.31,3.3,1.91,2.95,1.69,5.42,4,8.16,5.93,3.1,2.2,6.06,4.58,9.37,6.5.6.35,1.14.79,1.71,1.19.18.18.33.13.46-.05-.05-.57-.6-.72-1-1-1.7-1.38-3.53-2.59-5.33-3.84,1.8,1.23,3.63,2.43,5.32,3.81,1.16.9,2.31,1.83,3.52,2.67a3.94,3.94,0,0,0,1,.61,2.44,2.44,0,0,1,1,.52,7.15,7.15,0,0,0,1.07.72q3.65,2.39,7.22,4.87a11.72,11.72,0,0,1,1.34,1.2,83,83,0,0,0,6.56,5.87,1.48,1.48,0,0,1,.82.35,18.59,18.59,0,0,1,1.75,1.9,23.93,23.93,0,0,0,4.42,3.8,55.6,55.6,0,0,1,6.11,4.43,3.17,3.17,0,0,0,3.16.83c.3-.08.51.15.74.27,1.13.62,2.2.82,3.23-.15.1-.1.28-.1.42-.16a.2.2,0,0,0,.13-.16c.06-.76.74-.66,1.23-.8.6.37.36.69-.07.95-.24.14-.51.21-.4.55s.4.28.65.29c.47-.36,1.19-.5,1.19-1.27a.26.26,0,0,1,.28-.23h0c1.17.39,1.66-.53,2.35-1.08.19-.13.39-.26.59-.37.27-.46,0-.89-.11-1.32a1.84,1.84,0,0,1,.24-1.35h0a1.36,1.36,0,0,0,.84-1.46c.08-.62-.29-1.31.32-1.88.17-.16.09-.52,0-.76-.47-.84-.52-1.82-.92-2.67-.91-1.92-1-4.06-2-6-1.34-2.57-2.23-5.36-4-7.7-2-2.65-4.29-5.15-6.29-7.82-1.26-1.67-2.73-3.3-3.39-5.24-.77-2.27-2.36-4-3.62-5.92a52.55,52.55,0,0,0-6.78-7.81,38.68,38.68,0,0,1-6.47-8.07,25.4,25.4,0,0,0-1.75-2.58c-.28-.38-.33-.62.13-.92a2.37,2.37,0,0,0,1.38-2.33c.1-.53-.37-.5-.82-.65,0,0,.22-.1.16,0,.4.1.74.11.68-.44h0c-.13-.13,0-.44-.2-.44-.47,0-.17-.05-.06-.18s-.06-.45.1-.66.08-.27.25-.3a1.44,1.44,0,0,0,.65.3,4.34,4.34,0,0,1,2.3.94,27.43,27.43,0,0,1,4.4,4.48,23.78,23.78,0,0,0,3.7,3.67,1.8,1.8,0,0,0,1,.48l-2.39-2.66c.82,0,1.14.63,1.71.78a3,3,0,0,0,.9.73c.4.23.1.34,0,.5A17.69,17.69,0,0,0,301.9,162c0,.08.08.18.16.21a32.69,32.69,0,0,1,6.4,3.94c.84.58,1.44,1.43,2.24,2.06a1.38,1.38,0,0,1,.68,1.06c1.14.83,2,2,3.33,2.58.44.19,1,.84,1.33-.12.09-.21.32,0,.45.1a3.86,3.86,0,0,0,2.77.67,2,2,0,0,1,1.17.08.88.88,0,0,0,1.16-.12,1,1,0,0,0,0-1.08c-.12-.29-.39-.53-.26-.91a1,1,0,0,1,.79.29,2,2,0,0,0,2.09.13c.44-.16.32-.79.22-1.24,0-.18-.31-.35-.11-.54s.45.05.66.14a4.88,4.88,0,0,0,.66.29c.31.08.51,0,.5-.39,0-1.24.45-2.41.33-3.72-.07-.65.4-1.37-.23-2a.15.15,0,0,1,0-.16c.18-.16.32,0,.47.06s.51.38.71-.05c-.26-.62-.93-.8-1.38-1.27a8.32,8.32,0,0,1,1.77,1.22,3,3,0,0,0,1.13.69,64.77,64.77,0,0,1,8.39,5.4.28.28,0,0,1-.38.12l0,0a1.21,1.21,0,0,0-.42-.13,7.26,7.26,0,0,0,2.33,1.74c2.77,1.33,5.15,3.27,7.77,4.82a35.7,35.7,0,0,1,6.25,5c.2.17.34.18.4-.11-.27-.39-.78-.56-1-1.11a9.36,9.36,0,0,1,2.39,1.48,2.45,2.45,0,0,0,1.86.9,2.63,2.63,0,0,1,1.54.87,13.33,13.33,0,0,0,2.63,2c.2.11.47.29.66.25a9.47,9.47,0,0,1,3.44,0c.58-.07.68-.39.47-.87s-.51-.93-.8-1.5c.57.09,1.07-.2,1.47.25,1.7.95,2.95.54,3.57-1.24.14-.39.57-.41.72-.87a3.48,3.48,0,0,0,.3-1.19c-.11-1.09.21-2.14.18-3.22a.94.94,0,0,0-.2-.74c-1.17-1.12-1.6-2.63-2.34-4a41.91,41.91,0,0,0-5.56-7.67c-1.92-2.14-3.43-4.55-5.14-6.83a112.38,112.38,0,0,0-7.15-8.85,102.22,102.22,0,0,1-8.33-10.67,72.66,72.66,0,0,0-5.95-7.28,17.26,17.26,0,0,1-1.89-2.6,10.84,10.84,0,0,0-1.6-2,42.56,42.56,0,0,1-3.13-4.09c-2.6-3.44-5.39-6.7-8.27-9.91-2.53-2.81-5.28-5.4-8-8-.8-.76-1.37-1.75-2.21-2.47-2.21-1.89-4.09-4.12-6.47-5.85-.69-.5-1.43-.91-2.12-1.39-2.53-1.76-4.82-3.8-7.23-5.69a16.54,16.54,0,0,0-2.76-1.87,13.63,13.63,0,0,1-2.61-1.77,21.84,21.84,0,0,0-4.14-2.57,49.13,49.13,0,0,0-4.65-2.47c-2.86-1-5.27-2.93-8.07-4.1a15.55,15.55,0,0,0-1.91-.57,1.74,1.74,0,0,1-.93-.52c.37-.2.59.26,1.12.15-1.26-.61-2.34-1.23-3.5-1.67a65.09,65.09,0,0,1-10.81-5.67,77.47,77.47,0,0,0-9-4.73c-1.76-.79-3.48-1.71-5.2-2.62a47.23,47.23,0,0,0-7.9-3,43.35,43.35,0,0,0-9-1.45,20.75,20.75,0,0,0-3.15.31,4.89,4.89,0,0,0-1.86.28c-.3.14-.43-.13-.6-.29-3-2.73-6.12-5.33-9.1-8.08a68,68,0,0,1-5.82-6.42,31.94,31.94,0,0,0-4.52-4.1c-2-1.59-3.95-3.16-5.91-4.76s-4-3.67-6.15-5.3a33.78,33.78,0,0,0-6.6-3.6,3.15,3.15,0,0,0-2.44.24c-.86.28-1.64.83-2.55.15,0,0-.13-.07-.17-.05-.66.23-1.12.77-1.93.85s-.76,1-.77,1.63a1.71,1.71,0,0,1-.83,1.65c-.09.1-.05.22-.09.32-.54,1.34-.3,1.15-1.34.24a6.16,6.16,0,0,0-.18,2c.35,1-.07,2,0,3A6.76,6.76,0,0,0,173.09,37c1.32,1.06,1.93,2.58,2.82,3.92,1.87,2.38,3,5.2,4.52,7.74a1.79,1.79,0,0,1,.3,1.19,40.81,40.81,0,0,0-5.07-2.45A12.52,12.52,0,0,0,171,46.11a2.54,2.54,0,0,1-.54-.09c-2.06-.64-4.15-.19-6.23-.2a.65.65,0,0,0-.27,0,44.53,44.53,0,0,0-5.33,2.83,3.38,3.38,0,0,0-1,1.64,6,6,0,0,0-.2,4.93,3.56,3.56,0,0,1,.2,1.8,8.87,8.87,0,0,0,.66,3.26c0,.17.07.35.1.52.3.21.27.63.58.83,0,.09,0,.2,0,.26a5.64,5.64,0,0,1,1.34,2.71,11.42,11.42,0,0,0,2.81,4.79c2.07,2.19,4.2,4.33,6.42,6.38.27.38.43.82.73,1.18a8.4,8.4,0,0,1,1.21,1.69c-1.64-.39-3.12-.68-4.55-1.1-3.17-.92-6.19-2.3-9.4-3.06-1.72-.41-3.46-.68-5.2-1a5.19,5.19,0,0,1-2.25-.92,2.17,2.17,0,0,0-2.07-.56c-.66.19-1.3-.49-2-.68a1.86,1.86,0,0,0-1.21-.07,16.71,16.71,0,0,1-7.7.31,52.81,52.81,0,0,0-7-.2,27.8,27.8,0,0,0-6,.62.63.63,0,0,1-.57-.17,27.52,27.52,0,0,1-5.87-5.53c-.25-.36-.45-.76-.73-1.1a5.25,5.25,0,0,0-3.46-2.11,2.38,2.38,0,0,1-1-.34,1,1,0,0,0-1.19.11c-.43.29,0,.57.07.86s.23.29.1.5c-.4.11-.6-.2-.81-.42a2.11,2.11,0,0,0-3-.46,2,2,0,0,0-.53.56.88.88,0,0,1-1.12.4,1.61,1.61,0,0,0-1.29.29c-.69.35.25.65.06,1.06-.83-.22-.92.28-1.25.92-.67,1.28-.27,2.45-.06,3.66a2.45,2.45,0,0,1,0,1.11.89.89,0,0,0,.37,1c.22.52.8.6,1.19.91a12.35,12.35,0,0,1,1.09,1.08,1.49,1.49,0,0,1,.37,1.07.82.82,0,0,0,.09.19.43.43,0,0,0,.1.09c-.07,0-.14,0-.22,0a.59.59,0,0,0-.45.1c-.2.92.58,1.4,1.08,1.92,1.12,1.2,2.36,2.3,3.58,3.41a1,1,0,0,1,.37.82c.09,2.93-.14,5.9.83,8.76A17.89,17.89,0,0,0,113.23,94a4.76,4.76,0,0,1,1.29,2.38c.21.36,0,.7,0,1.06,1.16,2.9,3.17,5.35,4.76,8a63.79,63.79,0,0,0,5.59,7.4c.84,1,1.58,2.16,2.45,3.19,2,2.39,4,4.84,6,7.22a48.69,48.69,0,0,0,6.24,5.68l1.5,1.28c1,.15,1.37,1,2,1.54.14.22.42.24.61.38a3.51,3.51,0,0,1,1,1,30,30,0,0,0,4.19,3.94,21.66,21.66,0,0,1,2,2.32,9.47,9.47,0,0,0,1.78,1.74c.53,0,.34-.35.18-.57A6.64,6.64,0,0,0,151.4,139c.86.62,1.23,1.51,2,2.07a13,13,0,0,0,2.26,1.86c.45.71,1.38,1.11,1.5,2l1.11,1a15.45,15.45,0,0,0,1.48,1.16c2.58,1.86,4.13,4.6,6.3,6.81,2,2,3.25,4.55,5.44,6.37,1,.86,2.38,1.35,3.17,2.47a23.56,23.56,0,0,0,3.71,3.76,22.8,22.8,0,0,0,2.09,1.57A6.15,6.15,0,0,1,181.16,169.27Z"/><path id="Path_17758" data-name="Path 17758" class="cls-47" d="M310.85,168.1a21.94,21.94,0,0,0-5.77-4.45,1.51,1.51,0,0,1-.45-.29A4.22,4.22,0,0,0,301.9,162a3.33,3.33,0,0,0,1.52,1.88c.06-.22.14-.33.39-.13,1.67,1.26,3.59,2.2,5.12,3.65a4.32,4.32,0,0,0,1.13.81C310.33,168.32,310.66,168.55,310.85,168.1Z"/><path id="Path_17759" data-name="Path 17759" class="cls-48" d="M275.17,194.35a14.31,14.31,0,0,0,3.93,3.2c1.52,1,3.12,1.79,4.69,2.67.24.2.39.17.37-.15s-.2-.28-.35-.39c-2.26-1.58-4.58-3.08-6.89-4.6C276.3,194.91,276,194.11,275.17,194.35Z"/><path id="Path_17760" data-name="Path 17760" class="cls-49" d="M248.76,177c-.06.22-.18.29-.39.13a1.91,1.91,0,0,1-.62-.86c-.09-.23-.25-.48-.52-.34s0,.36.08.55c.36.51.08,1.15.38,1.68s.65,1.05-.24,1.2c-.48.07-.46,1.13-1.22.5-.14-.13-.37,0-.43.2-.14.47.41.41.58.65-.06-.82,1-.27,1.12-.81.46.28.4-.26.62-.38.3.2.28.66.66.78.8-1,0-1.79-.54-2.58.31-.16.7.11.84-.21S248.92,177.11,248.76,177Z"/><path id="Path_17761" data-name="Path 17761" class="cls-50" d="M276.88,195.21q3.15,2.11,6.31,4.22a4.57,4.57,0,0,1,.79.6c.18.2-.05.2-.19.2a3.57,3.57,0,0,0,1.84,1.06c-.21-.77-.88-1.15-1.48-1.56-2.2-1.52-4.41-3-6.63-4.52a2.07,2.07,0,0,0-.42-.14C276.92,195,276.87,195.05,276.88,195.21Z"/><path id="Path_17762" data-name="Path 17762" class="cls-51" d="M309,167.22a15.72,15.72,0,0,0-3.52-2.6,11.48,11.48,0,0,0-2.35-1.48c-.08.38.33.46.33.73a21.2,21.2,0,0,0,3.59,2.4c.25.17.47.37.71.54a3.09,3.09,0,0,1,.66.48h0C308.6,167.42,308.82,167.63,309,167.22Z"/><path id="Path_17763" data-name="Path 17763" class="cls-49" d="M202.18,192.65a6.83,6.83,0,0,0-1.65-1.43c-.47-.24-1-.33-1.26-1s-.74.09-1.14.06c.09.41.11.81.76.78.3,0,.33.43.46.68.27.53.53,1,1.19.4.25-.21.57-.25.74.13S201.81,192.69,202.18,192.65Z"/><path id="Path_17764" data-name="Path 17764" class="cls-52" d="M276.88,195.21l.22-.14-1-.72a6.2,6.2,0,0,1-1-.54c-1.33-.76-2.46-1.76-3.71-2.61-.3-.2-.61-.39-.92-.58a.13.13,0,0,0-.07.11s0,.07,0,.07l1,.89c.08.35.5.48.58.83a21.09,21.09,0,0,0,3.2,1.82C275.82,194.49,276.25,195,276.88,195.21Z"/><path id="Path_17765" data-name="Path 17765" class="cls-53" d="M106.19,75.85l.54.08a.22.22,0,0,0,.1-.29l0,0h0c-.52-.34-.25-.86-.32-1.3A7.48,7.48,0,0,0,104,72.42c.08.26-.52.84.44.69.44-.07.28.67.25.76-.18.76.43,1,.88,1.2A.91.91,0,0,1,106.19,75.85Z"/><path id="Path_17766" data-name="Path 17766" class="cls-52" d="M190.81,135.4a56,56,0,0,1-5.3-4.15,10.61,10.61,0,0,0-.9-.58c-.25-.1-.25.05-.19.2a1.56,1.56,0,0,0,.4.45c1.22,1,2.39,2,3.59,3,.25.2.64.35.6.77.22.5.94.41,1.14.93C190.34,135.75,190.77,135.78,190.81,135.4Z"/><path id="Path_17767" data-name="Path 17767" class="cls-52" d="M171.68,30.68a6.9,6.9,0,0,0,.22-1.76c.13.2.22.46.4.58s.43.4.73.26.18-.35.15-.56c-.06-.37.36-.7.11-1.09-.48.42-.93.17-.83-.46,0-.21.3-.37.16-.65A3.89,3.89,0,0,0,171.68,30.68Z"/><path id="Path_17768" data-name="Path 17768" class="cls-54" d="M175.92,41c-.77-1.42-1-3.16-2.82-3.92a6,6,0,0,0,1.33,2.14C174.87,39.81,175.42,40.37,175.92,41Z"/><path id="Path_17769" data-name="Path 17769" class="cls-55" d="M365.9,183c-.36-.87-1.21-.1-1.76-.71a4.86,4.86,0,0,0,.87,1.94c.23.45.2.69-.25.89,1-.11,1.17-.44.78-1.33C365.4,183.5,364.67,182.78,365.9,183Z"/><path id="Path_17770" data-name="Path 17770" class="cls-56" d="M189,135.06c.28,0,.34-.09.14-.27a33.07,33.07,0,0,0-4.29-3.54q-.24-.1-.21.15Z"/><path id="Path_17771" data-name="Path 17771" class="cls-57" d="M312.88,218.27a1,1,0,0,1,0,.17c.2.09.49,0,.62.28-.16.3-.59.06-.76.38a2.23,2.23,0,0,0,1.68.16c-.14-.18-.51-.07-.52-.4s.32-.19.48-.23c.64-.16.35-.66.4-1s-.16-.53-.54-.36a2.6,2.6,0,0,0-.67.73l-.17.1A1.4,1.4,0,0,0,312.88,218.27Z"/><path id="Path_17772" data-name="Path 17772" class="cls-58" d="M327.41,163.25c-.41.31-.64-.15-1-.23-.13,0-.27-.21-.38,0s.07.31.22.42a3.31,3.31,0,0,1,1.88.8,13.78,13.78,0,0,0,2.17,1.39c.18.09.24,0,.22-.15l-1.79-1.4A1.38,1.38,0,0,0,327.41,163.25Z"/><path id="Path_17773" data-name="Path 17773" class="cls-59" d="M184.66,131.4l.21-.15c.07-.26-.43-.27-.26-.58-.68-.79-1.78-1-2.46-2a1.49,1.49,0,0,0,.33,1.4c.1-.36.3-.17.45,0C183.51,130.49,184.08,131,184.66,131.4Z"/><path id="Path_17774" data-name="Path 17774" class="cls-60" d="M289.38,151.09a2.18,2.18,0,0,0-2-1.1c-.35,0-.63-.14-.95-.14.08.09.15.22.24.25a14.8,14.8,0,0,1,3.08,2h0C289.77,151.69,289,151.58,289.38,151.09Z"/><path id="Path_17775" data-name="Path 17775" class="cls-61" d="M309,167.22c-.17.18-.38.11-.58.07a10.57,10.57,0,0,0,3,2c.37-.62-.1-.88-.53-1.17-.57.28-.86-.23-1.25-.42S309.26,167.27,309,167.22Z"/><path id="Path_17776" data-name="Path 17776" class="cls-62" d="M327.41,163.25a5.86,5.86,0,0,1,1.35.78l.22-.14a11.26,11.26,0,0,0-3.36-2.31C326,162.39,326.79,162.73,327.41,163.25Z"/><path id="Path_17777" data-name="Path 17777" class="cls-63" d="M234.62,175.66c.34-1-.52-1.64-1-2.35a3.17,3.17,0,0,1-.8.22c.05.56.65.68.92,1.07S234,175.57,234.62,175.66Z"/><path id="Path_17778" data-name="Path 17778" class="cls-59" d="M294.76,209.41a5.5,5.5,0,0,0-2.1-2.4c-.21-.15-.3.12-.47.15A12.29,12.29,0,0,0,294.76,209.41Z"/><path id="Path_17779" data-name="Path 17779" class="cls-64" d="M153.38,141.08a8.06,8.06,0,0,0-2.33-2.6c.15.55.2.51.56.94s1.16.88,1,1.72C152.9,141.42,153.2,141.91,153.38,141.08Z"/><path id="Path_17780" data-name="Path 17780" class="cls-49" d="M243.83,184.33l-2.1-.75a7.53,7.53,0,0,0,.2.85c.25.62.75.7,1.15.16.18-.24.36-.14.55-.13S243.84,184.47,243.83,184.33Z"/><path id="Path_17781" data-name="Path 17781" class="cls-65" d="M243.84,184.33l-.21.14.14.2c.15.4.43.22.67.14a.34.34,0,0,0,.24-.42.24.24,0,0,0,0-.08c-.09-.19-.06-.4-.15-.58a1.88,1.88,0,0,0,.24-.25c.47-.71.64-.78,1.6-.66-.07-.21-.27-.31-.45-.42-1-.6-1.08-.51-1.31.6A1.73,1.73,0,0,1,243.84,184.33Z"/><path id="Path_17782" data-name="Path 17782" class="cls-66" d="M190.81,135.4c-.24.17-.71.11-.66.59.3.19.38.62.8.69,0-.27-.35-.42-.27-.74.7,0,1.15.61,2,.91A5.35,5.35,0,0,0,190.81,135.4Z"/><path id="Path_17783" data-name="Path 17783" class="cls-63" d="M238.18,180.61a2.17,2.17,0,0,0-1.31-1.08c-.57-.13-.4-.88-.89-1.12a5.27,5.27,0,0,0,.94,2A2.39,2.39,0,0,0,238.18,180.61Z"/><path id="Path_17784" data-name="Path 17784" class="cls-49" d="M114.69,96.38c-.23-.94-.3-2-1.44-2.4l.66,1.55C114.17,95.81,114.13,96.35,114.69,96.38Z"/><path id="Path_17785" data-name="Path 17785" class="cls-67" d="M143.2,131.69a12,12,0,0,1-1-1.11c-.32-.42-.64-.59-1.13-.35l1.9,1.78A.47.47,0,0,0,143.2,131.69Z"/><path id="Path_17786" data-name="Path 17786" class="cls-68" d="M157.13,145a.6.6,0,0,0-.08-.85,5.8,5.8,0,0,0-1.42-1.19A4.56,4.56,0,0,0,157.13,145Z"/><path id="Path_17787" data-name="Path 17787" class="cls-69" d="M319.81,212.2c-.07.6-.63.93-.84,1.46.36,0,.45.42.78.58A3.54,3.54,0,0,0,319.81,212.2Z"/><path id="Path_17788" data-name="Path 17788" class="cls-65" d="M246.39,180.67a6.16,6.16,0,0,1,.32,1.86.59.59,0,0,0,.52.63l.29.07C246.86,182.48,247.15,181.36,246.39,180.67Z"/><path id="Path_17789" data-name="Path 17789" class="cls-70" d="M114.69,96.38c-.32-.23-.37-.7-.78-.85a4.74,4.74,0,0,0,.59,1.9C115.05,97.16,115,96.79,114.69,96.38Z"/><path id="Path_17790" data-name="Path 17790" class="cls-71" d="M205.22,146.27c-.17.18-.38.1-.58.07l2,1.27c.25.15.5.3.77.06a.23.23,0,0,0-.1-.24c-.5-.26-.88-.69-1.37-1C205.71,146.34,205.52,146.1,205.22,146.27Z"/><path id="Path_17791" data-name="Path 17791" class="cls-72" d="M298.71,159.08c.2-.29.42.15.67,0-.44-.52-.82-1.08-1.57-1.2A1.74,1.74,0,0,0,298.71,159.08Z"/><path id="Path_17792" data-name="Path 17792" class="cls-70" d="M207.39,147.57c-.24.22-.5.06-.75,0l2.64,1.51c0-.38-.25-.42-.4-.56A2.76,2.76,0,0,0,207.39,147.57Z"/><path id="Path_17793" data-name="Path 17793" class="cls-73" d="M244.51,183.73c-.16.37.39,1.27-.74.94.19.72.78.43,1.13.32.53-.17,0-.51,0-.76A2.15,2.15,0,0,0,244.51,183.73Z"/><path id="Path_17794" data-name="Path 17794" class="cls-74" d="M318.53,215l.31,1.31c.8-.33.4-.88.27-1.39C318.87,214.68,318.64,214.48,318.53,215Z"/><path id="Path_17795" data-name="Path 17795" class="cls-75" d="M207.39,147.57a9.44,9.44,0,0,0,1.5,1,.42.42,0,0,1,.4-.11,13.22,13.22,0,0,0-2.2-1.32c-.15.19,0,.29.12.41Z"/><path id="Path_17796" data-name="Path 17796" class="cls-58" d="M286.19,150.16c-.33.2-.15.77-.73.82-.26,0-.13.37,0,.5s.26,0,.34-.18c.32-.51.36.09.54.13A1.92,1.92,0,0,0,286.19,150.16Z"/><path id="Path_17797" data-name="Path 17797" class="cls-76" d="M239.31,182.6l-.17-.21c-.57.07-.53-.9-1.2-.67C237.8,182.88,238.7,182.53,239.31,182.6Z"/><path id="Path_17798" data-name="Path 17798" class="cls-77" d="M353.28,180.7a.4.4,0,0,1-.4.11,3.37,3.37,0,0,0,1.72,1.06A3.11,3.11,0,0,0,353.28,180.7Z"/><path id="Path_17799" data-name="Path 17799" class="cls-52" d="M234.62,175.66c-.4-.28-.41-.86-.92-1.06-.22.75.17,1.17.87,1.4C234.58,175.89,234.6,175.78,234.62,175.66Z"/><path id="Path_17800" data-name="Path 17800" class="cls-77" d="M318.53,215c.14-.38.39,0,.58-.08.16-.44-.2-.84-.14-1.27C318.28,213.94,318.51,214.51,318.53,215Z"/><path id="Path_17801" data-name="Path 17801" class="cls-59" d="M289.75,152.07c.24.79,1.15.91,1.57,1.52a3,3,0,0,0-1.56-1.53Z"/><path id="Path_17802" data-name="Path 17802" class="cls-58" d="M286.34,151.43c-.07.36-.44.32-.69.49.17.25.56.28.67.6C286.78,152.17,286.55,151.8,286.34,151.43Z"/><path id="Path_17803" data-name="Path 17803" class="cls-72" d="M181.16,169.27c0-.51-.11-1-.72-1.2C180.25,168.71,180.87,168.9,181.16,169.27Z"/><path id="Path_17804" data-name="Path 17804" class="cls-77" d="M272,192.52c.08,0,.33,0,.2-.12s-.37-.63-.78-.71a.39.39,0,0,1-.4.11A2.13,2.13,0,0,0,272,192.52Z"/><path id="Path_17805" data-name="Path 17805" class="cls-68" d="M159.72,147.09a3.28,3.28,0,0,0-1.47-1.16A2.29,2.29,0,0,0,159.72,147.09Z"/><path id="Path_17806" data-name="Path 17806" class="cls-78" d="M238.18,180.61a1.65,1.65,0,0,0-1.26-.23c.21.72.84.22,1.24.4A.88.88,0,0,1,238.18,180.61Z"/><path id="Path_17807" data-name="Path 17807" class="cls-79" d="M198,190.09c0-.48-.16-.88-.81-.68A1.2,1.2,0,0,0,198,190.09Z"/><path id="Path_17808" data-name="Path 17808" class="cls-67" d="M210.6,188.46c-.07-.22-.18-.49-.47-.33s-.15.52,0,.78A.53.53,0,0,1,210.6,188.46Z"/><path id="Path_17809" data-name="Path 17809" class="cls-80" d="M330.55,165.44l-.22.15a.77.77,0,0,0,.79.4C331.08,165.64,330.84,165.52,330.55,165.44Z"/><path id="Path_17810" data-name="Path 17810" class="cls-81" d="M170.35,77a1.94,1.94,0,0,0-.73-1.18A1.54,1.54,0,0,0,170.35,77Z"/><path id="Path_17811" data-name="Path 17811" class="cls-82" d="M210.63,173.22a1.7,1.7,0,0,0-.62-.63C209.93,173.06,210.05,173.35,210.63,173.22Z"/><path id="Path_17812" data-name="Path 17812" class="cls-82" d="M209.84,172.54a.63.63,0,0,0-.37-.67c-.22.41.1.62.32.86C209.81,172.67,209.82,172.61,209.84,172.54Z"/><path id="Path_17813" data-name="Path 17813" class="cls-69" d="M159,61.69c-.12-.33-.12-.74-.59-.84C158.62,61.13,158.35,61.71,159,61.69Z"/><path id="Path_17814" data-name="Path 17814" class="cls-83" d="M143.2,131.69a.38.38,0,0,0-.26.32.63.63,0,0,0,.72.14Z"/><path id="Path_17815" data-name="Path 17815" class="cls-61" d="M308.38,167.29a.65.65,0,0,0-.66-.47A1,1,0,0,0,308.38,167.29Z"/><path id="Path_17816" data-name="Path 17816" class="cls-84" d="M260.45,148.14a12.19,12.19,0,0,1-1.34-2.49,3.39,3.39,0,0,0-.84-1.33c-1.69-1.36-3.36-2.73-5-4.1a.5.5,0,0,0-.35-.1,51.9,51.9,0,0,0,7.34,8.33C260.53,148.51,260.54,148.36,260.45,148.14Z"/><path id="Path_17817" data-name="Path 17817" class="cls-84" d="M226.9,83.78c-2.25-2.13-4.48-4.29-6.77-6.38A6.48,6.48,0,0,0,217.54,76c-.19-.15-.34-.18-.4.12,1.53,1,2.43,2.64,3.79,3.77,1.79,1.5,3.83,2.72,5.76,4.06C226.87,84,226.92,84,226.9,83.78Z"/><path id="Path_17818" data-name="Path 17818" class="cls-85" d="M345.09,173.48c-1.33-1.1-2.87-1.91-4.28-2.91-.72-.51-1.74-.12-2.5-.66,2.09,1.47,4.44,2.47,6.54,3.89C345.17,173.87,345.18,173.71,345.09,173.48Z"/><path id="Path_17819" data-name="Path 17819" class="cls-71" d="M256.76,181a35.13,35.13,0,0,0,5.37,4.2,6.62,6.62,0,0,0,1.86.93c-.91-.65-1.79-1.34-2.73-2a11.82,11.82,0,0,1-3.52-2.88.92.92,0,0,0-.57-.43C257.05,180.94,256.86,180.82,256.76,181Z"/><path id="Path_17820" data-name="Path 17820" class="cls-57" d="M215,73.37a5.93,5.93,0,0,0-2.55-1,6.84,6.84,0,0,0,2.15,2.2c.11-.06.25-.06.28-.22s-.31-.14-.33-.28c.31,0,.44.5.87.3C215.74,73.86,215.16,73.7,215,73.37Z"/><path id="Path_17821" data-name="Path 17821" class="cls-86" d="M270.43,190.8l0-.18c-1.6-1.6-3.66-2.59-5.41-4l-.16.2Z"/><path id="Path_17822" data-name="Path 17822" class="cls-75" d="M293.37,117.62a8.28,8.28,0,0,0-3.22-2.23,15.46,15.46,0,0,0,2.82,2.34C293.16,117.88,293.31,117.91,293.37,117.62Z"/><path id="Path_17823" data-name="Path 17823" class="cls-87" d="M215,73.37c-.15.42.46.56.38,1a3,3,0,0,0,1.89.89l.33.24c.2.08.44.35.56-.08A15.81,15.81,0,0,0,215,73.37Z"/><path id="Path_17824" data-name="Path 17824" class="cls-78" d="M207.21,147.53l-.11-.41a24.23,24.23,0,0,0-2.64-2c0,.64.55.78.76,1.13Z"/><path id="Path_17825" data-name="Path 17825" class="cls-74" d="M312.37,169.44a4.62,4.62,0,0,0,2.15,1.43C314.33,169.58,313.22,169.69,312.37,169.44Z"/><path id="Path_17826" data-name="Path 17826" class="cls-63" d="M254.32,140a15.58,15.58,0,0,0-3.37-2.57,25.08,25.08,0,0,0,3.33,2.75c.07,0,.1-.06.09-.11S254.34,140,254.32,140Z"/><path id="Path_17827" data-name="Path 17827" class="cls-55" d="M214.86,74.4l-.22.14c.91.4,1.52,1.26,2.5,1.54a.42.42,0,0,1,.4-.11l-.48-.44A3.67,3.67,0,0,0,214.86,74.4Z"/><path id="Path_17828" data-name="Path 17828" class="cls-68" d="M231,85.83c-.19.71.77,2,1.81,2.41C232.4,87.29,231.37,86.8,231,85.83Z"/><path id="Path_17829" data-name="Path 17829" class="cls-88" d="M306.22,217.05a4.53,4.53,0,0,0-2-1.26c-.18-.09-.23,0-.2.14.9.47,1.5,1.33,2.46,1.72C306.83,217.27,306.33,217.23,306.22,217.05Z"/><path id="Path_17830" data-name="Path 17830" class="cls-77" d="M134,100.09l0-.17c-.51,0-.36.37-.3.66l1.24,1.31c.52-.2.43-.52.17-.87l-.33-.25C134.69,100.33,134.21,100.34,134,100.09Z"/><path id="Path_17831" data-name="Path 17831" class="cls-89" d="M214.86,74.4c.83.2,1.41.86,2.2,1.13-.06-.21-.06-.38.25-.31l-1.89-.9c-.36-.16-.81-.23-.87-.77C214.14,74.07,214.72,74.15,214.86,74.4Z"/><path id="Path_17832" data-name="Path 17832" class="cls-71" d="M304,215.93l.2-.14a28.18,28.18,0,0,0-3.11-2.35c-.07,0-.1.06-.09.1s0,.07.06.07Z"/><path id="Path_17833" data-name="Path 17833" class="cls-70" d="M306.22,217c.06.21.34.34.25.6a.54.54,0,0,0,.5.12c.23-.07.54.27.7-.12.06-.16.11-.34-.08-.46s-.45-.46-.78-.21A.63.63,0,0,1,306.22,217Z"/><path id="Path_17834" data-name="Path 17834" class="cls-89" d="M133.68,100.58c.07-.24,0-.53.3-.66a1.47,1.47,0,0,0-.86-1.41c-.26.15,0,.52-.3.65C133.25,99.56,133.36,100.13,133.68,100.58Z"/><path id="Path_17835" data-name="Path 17835" class="cls-59" d="M132.83,99.16c1,.2.1-.48.3-.65-.42-.31-.68-.8-1.29-1C131.93,98.23,132.66,98.55,132.83,99.16Z"/><path id="Path_17836" data-name="Path 17836" class="cls-90" d="M282.17,175.76a5.73,5.73,0,0,0,1.85,2.12c.06-.33.19-.68-.2-.93a3.31,3.31,0,0,1-1.07-.93C282.6,175.85,282.48,175.59,282.17,175.76Z"/><path id="Path_17837" data-name="Path 17837" class="cls-69" d="M250.7,176.33a4.8,4.8,0,0,0-1.92-1.29l-.16.23,1.95,1.24Z"/><path id="Path_17838" data-name="Path 17838" class="cls-66" d="M267.52,157.31a3.23,3.23,0,0,0-1.55-1.72h0c-.14.63.55.88.67,1.39C267,157,267.09,157.54,267.52,157.31Z"/><path id="Path_17839" data-name="Path 17839" class="cls-65" d="M312.88,218.28c.2,0,.41.11.58-.07h0c.56-.08.44-.67.73-1a2.76,2.76,0,0,0-1.75.8Z"/><path id="Path_17840" data-name="Path 17840" class="cls-61" d="M256,67.43c.62.5,1,1.27,2.07,1.4A5.08,5.08,0,0,0,256,67.43Z"/><path id="Path_17841" data-name="Path 17841" class="cls-79" d="M254.32,140l0,.18,2.27,1.78A5.35,5.35,0,0,0,254.32,140Z"/><path id="Path_17842" data-name="Path 17842" class="cls-75" d="M256.76,181a.44.44,0,0,0,.42-.13,3.43,3.43,0,0,1-1.13-1.08c-.26-.17-.52-.41-.75,0Z"/><path id="Path_17843" data-name="Path 17843" class="cls-79" d="M106.48,74.29c-.49.62-.39,1,.32,1.3A1.19,1.19,0,0,0,106.48,74.29Z"/><path id="Path_17844" data-name="Path 17844" class="cls-91" d="M255.3,179.8c.24-.23.5-.07.75,0a4.51,4.51,0,0,0-.4-.47c-.16-.16-.32-.41-.58-.35a.49.49,0,0,0-.32.36C254.74,179.62,255.05,179.7,255.3,179.8Z"/><path id="Path_17845" data-name="Path 17845" class="cls-92" d="M267.52,157.31c-.26,0-.37-.23-.5-.43s-.3-.09-.39.1a3.33,3.33,0,0,0,.75,1,.33.33,0,0,1,.36-.3l.06,0A.6.6,0,0,0,267.52,157.31Z"/><path id="Path_17846" data-name="Path 17846" class="cls-71" d="M268.76,162.89c-.61.8-.31,1.07.4,1.23C269.23,163.66,268.93,163.38,268.76,162.89Z"/><path id="Path_17847" data-name="Path 17847" class="cls-60" d="M229.54,84.5a3,3,0,0,0-.7-1.25.26.26,0,0,0-.35-.1l0,0c-.2.18,0,.29.1.41Z"/><path id="Path_17848" data-name="Path 17848" class="cls-78" d="M282.17,175.76c.49.12.64.59,1,.88s.3.55.7.31a5.69,5.69,0,0,0-1.43-1.34c-.17-.07-.24,0-.23.15Z"/><path id="Path_17849" data-name="Path 17849" class="cls-93" d="M108.07,67c-.34.07-.83-.22-1,.31,0,.12.15.42.25.42C107.81,67.73,107.8,67.24,108.07,67Z"/><path id="Path_17850" data-name="Path 17850" class="cls-79" d="M326.11,168c-.08-.31.2-.75-.31-.85-.13,0-.5-.12-.5.18S325.84,167.79,326.11,168Z"/><path id="Path_17851" data-name="Path 17851" class="cls-79" d="M261.72,150.09a3.09,3.09,0,0,0,1.08,1.64Z"/><path id="Path_17852" data-name="Path 17852" class="cls-56" d="M135.09,101a1.17,1.17,0,0,1-.17.87.46.46,0,0,0,.53.23c-.14-.32.26-.54.19-.84a.38.38,0,0,0-.44-.3A.25.25,0,0,0,135.09,101Z"/><path id="Path_17853" data-name="Path 17853" class="cls-86" d="M298.84,212.15a2.7,2.7,0,0,0-1.57-1.18A4.05,4.05,0,0,0,298.84,212.15Z"/><path id="Path_17854" data-name="Path 17854" class="cls-94" d="M268.94,164.73c.09.39.1.81.56,1C269.77,165.16,269.72,164.76,268.94,164.73Z"/><path id="Path_17855" data-name="Path 17855" class="cls-95" d="M345.09,173.48a.37.37,0,0,1-.24.32c.3.42.81.55,1.37.93C346,174,345.26,174,345.09,173.48Z"/><path id="Path_17856" data-name="Path 17856" class="cls-94" d="M268.3,166.06a2.26,2.26,0,0,1,.64-1.33c-.39-.46-.57-.1-.65.19A1.55,1.55,0,0,0,268.3,166.06Z"/><path id="Path_17857" data-name="Path 17857" class="cls-66" d="M226.9,83.78l-.21.14a2.24,2.24,0,0,0,1.08.74A1.48,1.48,0,0,0,226.9,83.78Z"/><path id="Path_17858" data-name="Path 17858" class="cls-90" d="M282.17,175.76l.22-.15c-.11-.44-.3-.76-.85-.48C281.68,175.41,281.81,175.69,282.17,175.76Z"/><path id="Path_17859" data-name="Path 17859" class="cls-91" d="M134.86,123.31a1.76,1.76,0,0,0,1,1.12C135.74,123.9,135.41,123.66,134.86,123.31Z"/><path id="Path_17860" data-name="Path 17860" class="cls-59" d="M293.37,117.62a.42.42,0,0,1-.4.1,1.68,1.68,0,0,0,1.08.7C294,118,293.63,117.83,293.37,117.62Z"/><path id="Path_17861" data-name="Path 17861" class="cls-89" d="M134,100.09c.18.33.53.46.81.68C135.12,99.85,134.21,100.34,134,100.09Z"/><path id="Path_17862" data-name="Path 17862" class="cls-59" d="M260.45,148.14a.33.33,0,0,1-.24.3l.74.85.14-.08Z"/><path id="Path_17863" data-name="Path 17863" class="cls-96" d="M297.55,156.83a2.18,2.18,0,0,0,.91.73C298.23,157.06,298.23,157.06,297.55,156.83Z"/><path id="Path_17864" data-name="Path 17864" class="cls-67" d="M300,212.84a1.15,1.15,0,0,0-.9-.59A1,1,0,0,0,300,212.84Z"/><path id="Path_17865" data-name="Path 17865" class="cls-66" d="M266,155.59l-.5-.8-.18.12c.16.27.26.59.68.68Z"/><path id="Path_17866" data-name="Path 17866" class="cls-76" d="M219.94,76.18c.08.39.3.49.58.6C220.5,76.39,220.3,76.26,219.94,76.18Z"/><path id="Path_17867" data-name="Path 17867" class="cls-48" d="M275.08,193.81a1.35,1.35,0,0,0,1,.55A1.72,1.72,0,0,0,275.08,193.81Z"/><path id="Path_17868" data-name="Path 17868" class="cls-89" d="M218.2,75.38c-.16.19-.37.09-.56.08.22.32.56.27.89.3C218.54,75.52,218.32,75.49,218.2,75.38Z"/><path id="Path_17869" data-name="Path 17869" class="cls-79" d="M106.8,75.6c0,.11,0,.22-.07.33l.61.12A.66.66,0,0,0,106.8,75.6Z"/><path id="Path_17870" data-name="Path 17870" class="cls-61" d="M301.07,213.61l0-.17c-.18-.08-.29-.32-.56-.21C300.63,213.47,300.85,213.54,301.07,213.61Z"/><path id="Path_17871" data-name="Path 17871" class="cls-57" d="M313.46,218.2c0-.16.12-.34-.08-.46,0,0-.17,0-.19.1-.08.23.09.3.27.36Z"/></g></g><g id="d9xVzo-2"><g id="Group_116" data-name="Group 116"><path id="Path_17872" data-name="Path 17872" class="cls-97" d="M118.89,232.38c3,1.72,6.07,3.59,9.12,5.11a28.36,28.36,0,0,0,5.12,2.16c1.31.35,2.37,1.79,3.5,2.9,1.65,1.61,3.27,3.31,4.92,4.94a3.18,3.18,0,0,0,1.13.86,1.28,1.28,0,0,1,1,.39l.23.18c1-.54,2.15.2,3.23.4a2.5,2.5,0,0,1,1,.26c1.23.2,2-.8,2.86-1.46.45-.33.25-1.31-.22-2.08a9.21,9.21,0,0,0-.71-.91.84.84,0,0,1-.19-.76c.06-.33.25-.25.46-.17,1.23.51,2-.66,1.8-2.4-.11-1-.83-.56-.92-1.27-.25-.39-.54-.8,0-.8a1.25,1.25,0,0,0-.1-1.69c-.3-.38-.66-.68-1-1s-.9-.87-.5-1.6c.19-.34-.12-.76-.37-1.15a22.88,22.88,0,0,0-7.09-7.62l-.32-.29a2.13,2.13,0,0,0,.45-.34,1.13,1.13,0,0,0-.2-1.58,1,1,0,0,0-.13-.09,1.6,1.6,0,0,1-.73-1.25,4.35,4.35,0,0,0-.59-2.31c-.08-.07-.19-.16-.2-.23s.08,0,.11,0l.15,0c.27.21.53.65.83.44.48.07.81-.48,1.41,0,.35.27.5.07.32-.55a6.05,6.05,0,0,0-.55-1.31c.06-.08.08-.14.12-.16.26-.07.76.44.79-.06s-.46-.72-.77-1c-.57-.54-1.31-1-.79-2a.79.79,0,0,0,0-.43c-.94-.83-.72-2.7-1.86-3.34-.1-.06-.28-.24-.28-.32,0-1.42-1-1.57-1.49-1.91-1.59-1-3-2.65-4.58-3.76a16.94,16.94,0,0,0-4.26-2.37,5.3,5.3,0,0,1-2-1.08,5.19,5.19,0,0,0-2.65-1.38,24.44,24.44,0,0,1-3-1.32,19.28,19.28,0,0,1-5.32-3,34.45,34.45,0,0,0-3.53-3c-1.54-.9-3.09-1.84-4.63-2.77-2.13-1.28-4.28-2.4-6.39-3.87a16.51,16.51,0,0,0-4.94-2.57,10.62,10.62,0,0,1-2.32-1.42c-.25-.28-.4-.66-.74-1.08,1,.57,1.79.42,2.64.82a36.41,36.41,0,0,1,3.94,1.45,14.9,14.9,0,0,0,3.26,1,7.4,7.4,0,0,1,1.46.29,4.13,4.13,0,0,1-.61-.13c-.31,0-.72-.14-.71.33s.47.55.74.77a9.67,9.67,0,0,0,3.81.9,5.22,5.22,0,0,1,1.59.48,61.23,61.23,0,0,0,10.13,2.95c.24.1.41.05.44-.29a1.51,1.51,0,0,0-1.12-.82c1,.43,2,.58,3,.93.75.08,1.56.47,2.26.19a23.77,23.77,0,0,1,5.1.73,25.26,25.26,0,0,1,7.93,4.38c2.15,1.58,4.28,3.29,6.43,4.89,1.63,1.21,3.31,2.09,5,3.1a62.28,62.28,0,0,1,7.2,4.6,2.13,2.13,0,0,0,.42.23c1.09-.29,1.64.08,2.49,1.69a1.52,1.52,0,0,0,.3.37,22.65,22.65,0,0,1,2.5,2.19c.86,1.23,1.84,1.09,2.77,1.56l.23.15c.63.23,1.13,1,1.69,1.45.08.12.17.11.25.17.56.62,1,.37,1.47.23.29-.09.44-.5.82-.36.76.44,1.28-.1,1.93-.11.56-.53,0-1.45-.18-2.09-.4-1.45-.48-1.44.53-1.37.13,0,.25-.06.4.06.36.31.79,1,.82-.07-.88-.57-1.3-2-2.17-2.6h0a4,4,0,0,1-.61-.62c.87-.19.56-1.46.82-2.21a.63.63,0,0,0-.17-.55,21.58,21.58,0,0,1-2-2.57c.3.19.67.65,1.07.66s.53,0,.14-.6l-.66-.68a26.91,26.91,0,0,1,3.47.53c3.1.44,6.25,1.9,9.37,2.78a89.65,89.65,0,0,0,10.55,2.82,18.36,18.36,0,0,1,1.93.53c.24.12.31,0,.28-.32-.4-.68-.86-.57-1.31-.73a61.69,61.69,0,0,0-6.1-1.77,56,56,0,0,1,6.07,1.75c1.37.46,2.75,1,4.11,1.34a2.63,2.63,0,0,0,1.07.19,1.58,1.58,0,0,1,1,.08,4.41,4.41,0,0,0,1.19.29c2.68.62,5.36,1.28,8.05,2a10.46,10.46,0,0,1,1.68.74,71.68,71.68,0,0,0,8.23,3.6c.24-.07.47-.21.78,0a19.22,19.22,0,0,1,2.41,1.38,19.93,19.93,0,0,0,5.45,2.23c2.33.68,4.64,1,7,2.09a1.84,1.84,0,0,0,2.56-.51,1.59,1.59,0,0,0,.13-.22c.15-.27.44-.1.68-.08,1.16.14,2-.21,2.11-2,0-.17.12-.28.19-.42a.39.39,0,0,0,0-.28c-.45-1,.09-1.22.33-1.67.65.12.69.65.55,1.21-.07.3-.21.54.08.9s.45.13.63,0c.1-.7.5-1.27,0-2.23-.1-.19-.05-.43.09-.45,1-.17.8-1.58.92-2.63,0-.28.11-.53.16-.8a3.35,3.35,0,0,0-.91-1.56,4,4,0,0,1-.69-1.8h0a2.7,2.7,0,0,0-.36-2.26c-.34-.82-1-1.47-1-2.5a1.46,1.46,0,0,0-.52-.92c-.85-.79-1.51-2-2.33-2.79-1.84-1.87-3.3-4.43-5.18-6.24-2.55-2.43-5-5.38-7.67-7.27-3.08-2.14-6.21-4-9.29-6.17a26.45,26.45,0,0,1-5.64-4.58c-2-2.38-4.16-3.6-6.25-5.29a57.13,57.13,0,0,0-9.62-5.89,44.19,44.19,0,0,1-9.57-6.37,33.73,33.73,0,0,0-2.84-2.21,1,1,0,0,1-.5-1.21,4.7,4.7,0,0,0-.53-3.64c-.27-.7-.57-.41-1-.35,0,0,.09-.24.12-.08.33-.1.57-.27.18-.92h0c-.17-.09-.29-.54-.42-.42-.31.27-.15,0-.15-.2s-.33-.53-.35-.87c-.06-.19-.12-.38,0-.52.22,0,.47.14.63,0a2.53,2.53,0,0,1,2.18-.12,26.7,26.7,0,0,1,5.86,3.09,23.51,23.51,0,0,0,4.87,2.48,1.11,1.11,0,0,0,1,0l-3.32-1.95c.54-.51,1.18.14,1.67,0a2.45,2.45,0,0,0,1.08.41c.42.06.29.36.32.62a16.34,16.34,0,0,0,4,1.83c.08.07.17.17.24.17,2.23-.17,4.58.7,6.89,1.31,1,.25,1.9,1,2.85,1.29a1.83,1.83,0,0,1,1.14,1c1.3.38,2.64,1.37,3.92,1.33.42,0,1.2.5.84-.9-.08-.3.23-.16.37-.11a2.11,2.11,0,0,0,2.32-.73c.25-.26.49-.59.86-.54s.72-.23.71-.79a2.26,2.26,0,0,0-.67-1.35c-.26-.3-.6-.44-.75-1,.19-.23.45-.2.73-.08.82.34,1.21-.37,1.51-1,.2-.43-.28-1.15-.63-1.64-.15-.2-.45-.26-.43-.61s.34-.18.54-.19a2.74,2.74,0,0,0,.64,0c.26-.07.35-.26.1-.76-.8-1.53-1.23-3.23-2.15-4.77-.46-.78-.59-1.92-1.44-2.38a.23.23,0,0,1-.1-.19c0-.3.2-.2.36-.19s.59.19.45-.46c-.56-.61-1.15-.47-1.75-.8a6,6,0,0,1,2,.53,2,2,0,0,0,1.21.22,45.85,45.85,0,0,1,9.19,2c0,.31-.07.37-.22.36a.59.59,0,0,0-.37.07,5.73,5.73,0,0,0,2.7.86c2.75.11,5.61,1.17,8.39,1.64a29.47,29.47,0,0,1,7.45,2.67c.24.1.35,0,.2-.36-.43-.33-.89-.25-1.41-.79a6.55,6.55,0,0,1,2.58.5c.66.33,1.27.55,1.84.08.38-.31,1,0,1.61.22a11.37,11.37,0,0,0,3.1,1.06c.21,0,.51.1.61-.06a5.44,5.44,0,0,1,2.36-1.91c.35-.41.22-.86-.23-1.33s-.94-.87-1.5-1.4c.44-.22.6-.85,1.16-.52,1.77.24,2.37-1,1.66-3.51-.16-.55.13-.83-.06-1.47a7.82,7.82,0,0,0-.55-1.63c-.77-1.28-1.22-2.77-1.93-4.08a1.77,1.77,0,0,0-.6-.8c-1.51-.73-2.77-2.35-4.13-3.6a50.33,50.33,0,0,0-8.69-6.38c-2.68-1.58-5.25-3.72-7.87-5.59a125.37,125.37,0,0,0-10.52-6.94A118.27,118.27,0,0,1,209,104.27a83.05,83.05,0,0,0-8.72-5.69,20.66,20.66,0,0,1-2.95-2.16A13.32,13.32,0,0,0,195,94.8a45.81,45.81,0,0,1-4.75-3.31c-4-2.8-8-5.28-12-7.64-3.51-2.06-7.05-3.72-10.58-5.44-1-.5-2.06-1.4-3.08-1.83-2.72-1.11-5.43-2.81-8.16-3.62-.79-.24-1.56-.34-2.34-.55-2.85-.77-5.72-2-8.57-3a11.4,11.4,0,0,0-3.09-.78,10.13,10.13,0,0,1-2.91-.74A14.84,14.84,0,0,0,135,67c-1.57-.09-3.23-.64-4.75-.47-2.64.29-5.49-.7-8.15-.59a9.45,9.45,0,0,0-1.66.36,1.14,1.14,0,0,1-1-.12c.12-.46.56,0,.86-.44a28.51,28.51,0,0,0-3.46-.12,40.76,40.76,0,0,1-11-1,48.59,48.59,0,0,0-9.16-.87c-1.71,0-3.47-.18-5.22-.35a26,26,0,0,0-7.3.74c-2.63.47-4.85,1.91-7.12,3.23-.8.47-1.28,1.47-2,2.13A3.26,3.26,0,0,0,74,70.89c-.12.34-.38.08-.6,0-3.79-1.72-7.58-3.19-11.37-4.93A72.33,72.33,0,0,1,54,61.25a28.85,28.85,0,0,0-5.7-2.55c-2.36-.88-4.72-1.71-7.08-2.6-2.52-.94-5-2.32-7.58-3.12a21.53,21.53,0,0,0-6.82-.78c-.85,0-1.17.9-1.53,1.65s-.58,1.94-1.64,1.61c-.05,0-.13,0-.15,0-.31.65-.28,1.57-.78,2.12s.08,1.59.51,2.44a3.51,3.51,0,0,1,.47,2.49,3.53,3.53,0,0,0,.15.46c.48,1.95.52,1.58-.77,1a14.23,14.23,0,0,0,1.16,2.58c.88,1.05,1.23,2.51,1.9,3.72a11,11,0,0,0,3.11,3.33c1.58.57,3,2.12,4.43,3.27,2.8,1.9,5.32,4.78,8,7a3.53,3.53,0,0,1,1,1.31c-1.79-.43-3.37-.13-5-.21a6.66,6.66,0,0,0-4,1,1.3,1.3,0,0,1-.43.2c-1.82.35-3,2.06-4.4,3.21a.43.43,0,0,0-.15.2c-.59,2.18-1.51,4.06-1.86,6.45a7.18,7.18,0,0,0,.39,2.56,13.24,13.24,0,0,0,3,6.19A7.67,7.67,0,0,1,31.4,107a17.32,17.32,0,0,0,2.53,3.66c.14.18.26.39.39.59.34.08.59.61.93.7.06.1.12.25.19.29a8.73,8.73,0,0,1,2.64,2.6,15.75,15.75,0,0,0,5,4.35c2.81,1.57,5.63,3,8.46,4.32.42.31.81.78,1.25,1.05a10.88,10.88,0,0,1,1.9,1.41c-1.37.43-2.57.9-3.82,1.18-2.75.61-5.69.6-8.39,1.43a41.87,41.87,0,0,0-4.17,1.7,3,3,0,0,1-2.13.11c-.68-.2-1.32-.36-1.77.46-.33.61-1.2.12-1.8.27-.36.1-.67.14-.88.58-1.17,2.47-3.09,3.64-5.07,4.67A29.06,29.06,0,0,0,21.72,140,17.64,17.64,0,0,0,18,144c-.12.2-.29.18-.5.11A25.47,25.47,0,0,1,10,140.56c-.4-.3-.79-.69-1.2-.95-1.3-.85-2.58-1.29-3.71-.69a1.26,1.26,0,0,1-.91.14c-.43-.09-.65.3-.74.8s.38.69.59,1,.34.23.39.57c-.21.36-.54.08-.83-.07-1.5-.83-2.5,0-2.32,2.05.06.73-.07,1-.51,1.11s-.56.62-.7,1.08c-.25.81.58.67.71,1.28-.7.18-.44.85-.27,1.83a11.48,11.48,0,0,0,2.29,4.54,5.21,5.21,0,0,1,.74,1.35,1.47,1.47,0,0,0,.9,1c.48.52.93.3,1.4.47a11.81,11.81,0,0,1,1.42.72c.42.18.66.67.94,1.11a1.07,1.07,0,0,0,.18.19l.13,0c0,.09-.1.08-.16.11a.43.43,0,0,0-.24.38c.44,1.25,1.28,1.4,2,1.77,1.53.85,3.08,1.52,4.62,2.23a1.52,1.52,0,0,1,.78.8c1.92,3.57,3.65,7.36,6.14,10.35a29.2,29.2,0,0,0,2.87,3.32,7,7,0,0,1,2.4,2.23,3.47,3.47,0,0,1,.65,1.32c2.64,2.95,5.57,4.85,8.36,7.27a76.9,76.9,0,0,0,8.54,6c1.24.82,2.46,1.78,3.71,2.57,2.9,1.84,5.8,3.78,8.7,5.59a44,44,0,0,0,7.89,3.55c.62.24,1.23.5,1.85.75.75-.36,1.56.47,2.35.78.24.19.44.06.66.13a3.18,3.18,0,0,1,1.34.66c1.79,1.28,3.59,1.72,5.38,2.54a22.12,22.12,0,0,1,2.81,1.77,9.43,9.43,0,0,0,2.33,1.17c.34-.35,0-.63-.23-.82a7.47,7.47,0,0,0-1.94-1.15c1,.28,1.8,1.18,2.66,1.47a10.62,10.62,0,0,0,2.73,1c.76.62,1.65.6,2.32,1.69l1.36.55a12.21,12.21,0,0,0,1.76.61c3,.87,5.76,3.39,8.65,4.91,2.64,1.38,5.12,3.81,7.78,4.84,1.25.49,2.49.34,3.75,1.3a23.42,23.42,0,0,0,4.93,2.59,19,19,0,0,0,2.43.77A9.82,9.82,0,0,1,118.89,232.38Z"/><path id="Path_17873" data-name="Path 17873" class="cls-98" d="M207,159a17.22,17.22,0,0,0-6.78-2.29,1.16,1.16,0,0,1-.49-.1,2.67,2.67,0,0,0-2.74-.18c.71.71,1.42,1.49,2.24,1.49-.1-.31-.11-.48.18-.39,1.95.64,3.86.72,5.83,1.67a3.11,3.11,0,0,0,1.3.38C206.78,159.53,207.15,159.63,207,159Z"/><path id="Path_17874" data-name="Path 17874" class="cls-99" d="M199.25,211.17a11.67,11.67,0,0,0,4.73,1.77c1.65.35,3.28.48,4.91.7.3.11.37,0,.16-.4-.13-.22-.31-.23-.48-.28-2.56-.71-5.1-1.27-7.65-1.85C200.38,211.24,199.64,210.43,199.25,211.17Z"/><path id="Path_17875" data-name="Path 17875" class="cls-100" d="M170.1,204.37c.1.31.06.45-.18.38a2.29,2.29,0,0,1-1-.71c-.22-.24-.48-.47-.58-.14s.19.47.41.63c.57.43.78,1.38,1.32,1.86s1.12.94.6,1.61c-.28.36.41,1.66-.51,1.29-.18-.07-.25.23-.17.48.2.67.54.29.81.49-.57-1,.48-.87.25-1.62.49.08.11-.55.18-.82.34.09.61.66,1,.6-.1-1.7-1.11-2.22-2-2.89.12-.36.56-.25.45-.72C170.57,204.53,170.3,204.46,170.1,204.37Z"/><path id="Path_17876" data-name="Path 17876" class="cls-101" d="M201,211.28l7,1.71a3.31,3.31,0,0,1,.92.3c.26.14.1.27,0,.35a2.37,2.37,0,0,0,1.94.28,3.09,3.09,0,0,0-2-1.1l-7.41-1.89a.82.82,0,0,0-.38.06C200.84,211,200.86,211.08,201,211.28Z"/><path id="Path_17877" data-name="Path 17877" class="cls-102" d="M205.14,158.93a11.89,11.89,0,0,0-4.07-1.25,7.62,7.62,0,0,0-2.54-.52c.18.51.51.39.69.72,1.36.72,2.65.63,4,1,.28.07.56.2.83.28a2,2,0,0,1,.76.22h0C205,159.38,205.3,159.5,205.14,158.93Z"/><path id="Path_17878" data-name="Path 17878" class="cls-103" d="M148.16,249.58a5.82,5.82,0,0,0-2-.85c-.47,0-.9.15-1.48-.52s-.45.53-.75.7c.32.47.59.94,1,.54.19-.18.5.36.75.6.52.5,1,.9,1.07-.17,0-.4.23-.62.59-.26S147.93,249.83,148.16,249.58Z"/><path id="Path_17879" data-name="Path 17879" class="cls-104" d="M201,211.28l.06-.3-1.13-.33a3.68,3.68,0,0,1-1.05-.11,40.8,40.8,0,0,1-4.2-1.16c-.34-.08-.67-.13-1-.2a.2.2,0,0,0,0,.17c0,.05.06.07.07.07L195,210c.27.39.64.32.92.7a13.62,13.62,0,0,0,3.35.48C199.78,211,200.42,211.4,201,211.28Z"/><path id="Path_17880" data-name="Path 17880" class="cls-105" d="M8.09,158.69l.41-.2a.45.45,0,0,0-.16-.46h0c-.58-.13-.72-.92-1-1.43a6,6,0,0,0-2.87-.94c.22.27.18,1.32.74.61.26-.34.62.67.66.8a1.22,1.22,0,0,0,1.36,1A1.06,1.06,0,0,1,8.09,158.69Z"/><path id="Path_17881" data-name="Path 17881" class="cls-104" d="M104,185.22A44.72,44.72,0,0,1,97.68,183a7.9,7.9,0,0,0-1-.21c-.23,0-.14.2,0,.35a1.68,1.68,0,0,0,.56.34c1.45.51,2.9,1.12,4.35,1.67.3.11.66.07.9.61.47.49.9,0,1.37.51C103.85,185.92,104.16,185.71,104,185.22Z"/><path id="Path_17882" data-name="Path 17882" class="cls-106" d="M24.22,66.6a16.05,16.05,0,0,0-1-2.3c.22.18.44.44.65.49s.55.26.66-.09-.1-.53-.25-.76c-.28-.43-.19-1.06-.62-1.4-.06.78-.53.72-.86-.12-.11-.27,0-.62-.3-.88A8.58,8.58,0,0,0,24.22,66.6Z"/><path id="Path_17883" data-name="Path 17883" class="cls-107" d="M33.66,76.92c-1.43-1.31-2.74-3.31-4.43-3.26a8.3,8.3,0,0,0,2.27,1.9C32.21,76.08,32.94,76.47,33.66,76.92Z"/><path id="Path_17884" data-name="Path 17884" class="cls-108" d="M254.2,146.82c-.8-.87-.9.54-1.66.09a7.59,7.59,0,0,0,1.83,1.92,1,1,0,0,1,.4,1.24c.61-.7.52-1.2-.32-2.07C254.17,147.7,253.2,147.21,254.2,146.82Z"/><path id="Path_17885" data-name="Path 17885" class="cls-109" d="M102.5,185.8c.21-.13.18-.3-.07-.42a27.62,27.62,0,0,0-5.19-2c-.16,0-.17.1,0,.3Z"/><path id="Path_17886" data-name="Path 17886" class="cls-110" d="M240.31,219.76a2,2,0,0,1,.07.23c.2,0,.34-.27.6,0,.09.46-.36.4-.27.89a1.24,1.24,0,0,0,1.25-.73c-.2-.14-.4.19-.61-.2s.1-.42.18-.56c.34-.55-.17-1-.37-1.46s-.44-.58-.6-.14a4.83,4.83,0,0,0,0,1.26l-.06.22A1.3,1.3,0,0,0,240.31,219.76Z"/><path id="Path_17887" data-name="Path 17887" class="cls-111" d="M215.26,143.79c-.09.61-.55.17-.81.26-.11,0-.33-.11-.29.16s.24.34.41.4c.5-.45,1.17-.21,1.8-.06a9.72,9.72,0,0,0,2.38.51c.17,0,.17-.11.05-.31l-2.12-.74C216.16,143.58,215.66,143.35,215.26,143.79Z"/><path id="Path_17888" data-name="Path 17888" class="cls-112" d="M97.19,183.7l0-.3c-.12-.36-.48-.1-.55-.57-1-.6-1.88-.3-2.94-1.07a2.72,2.72,0,0,0,1.12,1.54c-.17-.5.1-.37.27-.31Z"/><path id="Path_17889" data-name="Path 17889" class="cls-113" d="M181.47,149.89c-.78-.67-1.51-.75-2.07-.25-.24.21-.53.17-.74.35.11.06.23.19.32.18,1.08-.18,2.24.49,3.36.71h0C182.11,150.41,181.54,150.69,181.47,149.89Z"/><path id="Path_17890" data-name="Path 17890" class="cls-114" d="M205.14,158.93c0,.32-.19.34-.35.41a7.46,7.46,0,0,0,3.31.78c-.14-1-.63-1-1.11-1.15-.21.66-.73.19-1.13.17C205.63,159.13,205.37,158.82,205.14,158.93Z"/><path id="Path_17891" data-name="Path 17891" class="cls-115" d="M215.26,143.79a3.84,3.84,0,0,1,1.42.22l.06-.3a8.19,8.19,0,0,0-3.78-1C213.72,143.54,214.49,143.48,215.26,143.79Z"/><path id="Path_17892" data-name="Path 17892" class="cls-116" d="M159.58,210.61c-.44-1.49-1.4-1.74-2.21-2.33,0,0-.19.57-.4.71.39.68.88.49,1.31.82S159.09,210.84,159.58,210.61Z"/><path id="Path_17893" data-name="Path 17893" class="cls-112" d="M222.25,218.88a5.88,5.88,0,0,0-3-1.8c-.24-.06-.13.32-.23.44A10.35,10.35,0,0,0,222.25,218.88Z"/><path id="Path_17894" data-name="Path 17894" class="cls-117" d="M81.92,213a8.5,8.5,0,0,0-3.25-1.91,2.37,2.37,0,0,0,1,.85c.62.39,1.36.44,1.78,1.56C81.81,213.7,82.32,214.13,81.92,213Z"/><path id="Path_17895" data-name="Path 17895" class="cls-103" d="M171.41,216.19l-1.92.25c.21.32.44.64.68.94.56.62,1,.44.89-.45,0-.4.15-.37.29-.46S171.5,216.36,171.41,216.19Z"/><path id="Path_17896" data-name="Path 17896" class="cls-118" d="M171.41,216.19l-.06.28.23.18c.35.41.43,0,.54-.2a.66.66,0,0,0-.16-.73c-.18-.2-.3-.46-.47-.65a3.23,3.23,0,0,0,0-.44c-.13-1.13-.06-1.31.68-1.7a.83.83,0,0,0-.57-.27c-1-.21-1.07,0-.52,1.48A3.46,3.46,0,0,1,171.41,216.19Z"/><path id="Path_17897" data-name="Path 17897" class="cls-119" d="M104,185.22c-.06.35-.41.54-.08,1.09.33.07.66.56,1,.42-.17-.32-.5-.32-.65-.76.5-.35,1.17.11,1.94,0A4.24,4.24,0,0,0,104,185.22Z"/><path id="Path_17898" data-name="Path 17898" class="cls-120" d="M165.17,214.73c-.54-.42-1-.77-1.59-.6s-.83-.87-1.32-.89a8.31,8.31,0,0,0,1.89,1.9C164.59,215.27,164.84,214.92,165.17,214.73Z"/><path id="Path_17899" data-name="Path 17899" class="cls-100" d="M27,179.32c-.75-1-1.45-2.25-2.51-2.17l1.43,1.55C26.25,178.9,26.57,179.58,27,179.32Z"/><path id="Path_17900" data-name="Path 17900" class="cls-121" d="M69,207.06a14,14,0,0,1-1.41-.79c-.47-.34-.81-.38-1,.2L69,207.61A.75.75,0,0,0,69,207.06Z"/><path id="Path_17901" data-name="Path 17901" class="cls-122" d="M87,215.74a1.16,1.16,0,0,0-.6-1,5,5,0,0,0-1.72-.68A5.5,5.5,0,0,0,87,215.74Z"/><path id="Path_17902" data-name="Path 17902" class="cls-123" d="M241.19,208.42a12.34,12.34,0,0,1,.36,2.27c.26-.16.58.27.9.28A7.7,7.7,0,0,0,241.19,208.42Z"/><path id="Path_17903" data-name="Path 17903" class="cls-118" d="M170.83,210.25a13.64,13.64,0,0,1,1.4,2.12c.16.36.46.61.75.49a.84.84,0,0,0,.24-.07C172.31,212.23,171.79,210.68,170.83,210.25Z"/><path id="Path_17904" data-name="Path 17904" class="cls-124" d="M27,179.32c-.37-.11-.7-.66-1.08-.62a8.94,8.94,0,0,0,1.62,2A1.14,1.14,0,0,0,27,179.32Z"/><path id="Path_17905" data-name="Path 17905" class="cls-125" d="M120.73,190.64c0,.32-.19.34-.35.42l2.18.45c.26,0,.53.1.57-.36a.45.45,0,0,0-.23-.24c-.51,0-1-.35-1.55-.42C121.11,190.45,120.83,190.27,120.73,190.64Z"/><path id="Path_17906" data-name="Path 17906" class="cls-126" d="M192.94,154.57c-.05-.47.38,0,.44-.41-.63-.39-1.24-.87-1.84-.62A2.08,2.08,0,0,0,192.94,154.57Z"/><path id="Path_17907" data-name="Path 17907" class="cls-124" d="M123.05,191.05c0,.4-.31.34-.49.46l2.77.4c-.24-.47-.45-.38-.63-.48A2,2,0,0,0,123.05,191.05Z"/><path id="Path_17908" data-name="Path 17908" class="cls-127" d="M171.48,215.07c.13.56,1.08,1.36.1,1.58.58.77.8.1,1-.24.25-.51-.3-.65-.51-.91A2.61,2.61,0,0,0,171.48,215.07Z"/><path id="Path_17909" data-name="Path 17909" class="cls-128" d="M242.1,212.6l1.05,1.44c.34-.84-.29-1.31-.7-1.86C242.13,212,241.85,211.89,242.1,212.6Z"/><path id="Path_17910" data-name="Path 17910" class="cls-129" d="M123.05,191a6.72,6.72,0,0,0,1.65.39.36.36,0,0,1,.21-.37,8.9,8.9,0,0,0-2.34-.4c0,.3.19.34.33.43Z"/><path id="Path_17911" data-name="Path 17911" class="cls-111" d="M178.68,150.51c-.1.42.39,1,0,1.42-.16.17.15.53.32.62s.15-.2.13-.41c-.12-.82.3-.09.45-.14A4.1,4.1,0,0,0,178.68,150.51Z"/><path id="Path_17912" data-name="Path 17912" class="cls-130" d="M167.21,216.57l-.25-.17c-.35.4-.94-.83-1.26-.16C166.35,217.76,166.74,216.82,167.21,216.57Z"/><path id="Path_17913" data-name="Path 17913" class="cls-131" d="M244.08,151a.34.34,0,0,1-.2.36,2.35,2.35,0,0,0,1.86.35A2.77,2.77,0,0,0,244.08,151Z"/><path id="Path_17914" data-name="Path 17914" class="cls-104" d="M159.58,210.61c-.45-.13-.84-.84-1.31-.8.34,1,.86,1.34,1.49,1.24Z"/><path id="Path_17915" data-name="Path 17915" class="cls-131" d="M242.1,212.61c-.14-.55.26-.25.35-.43-.18-.63-.67-.92-.91-1.5C241.25,211.42,241.77,212,242.1,212.61Z"/><path id="Path_17916" data-name="Path 17916" class="cls-112" d="M182.34,150.88c.67.85,1.37.49,2,1a2.85,2.85,0,0,0-2-1Z"/><path id="Path_17917" data-name="Path 17917" class="cls-111" d="M179.6,152c.18.48-.1.63-.17,1,.28.22.57,0,.84.36A1.41,1.41,0,0,0,179.6,152Z"/><path id="Path_17918" data-name="Path 17918" class="cls-126" d="M118.89,232.38c-.35-.61-.72-1.17-1.26-1.07C117.91,232.2,118.45,232.09,118.89,232.38Z"/><path id="Path_17919" data-name="Path 17919" class="cls-131" d="M195.89,210.69c.05-.08.25-.15.06-.26s-.65-.58-1-.45a.36.36,0,0,1-.21.37A1.78,1.78,0,0,0,195.89,210.69Z"/><path id="Path_17920" data-name="Path 17920" class="cls-122" d="M90.09,216.9a2.75,2.75,0,0,0-1.76-.61A1.83,1.83,0,0,0,90.09,216.9Z"/><path id="Path_17921" data-name="Path 17921" class="cls-132" d="M165.17,214.73a.94.94,0,0,0-1,.42c.61.77.72-.19,1.1-.2A2,2,0,0,0,165.17,214.73Z"/><path id="Path_17922" data-name="Path 17922" class="cls-133" d="M143.66,248.74c-.33-.58-.66-1-1-.39A1,1,0,0,0,143.66,248.74Z"/><path id="Path_17923" data-name="Path 17923" class="cls-134" d="M151.27,239.73c-.19-.24-.44-.5-.53-.15s.22.73.5,1A.83.83,0,0,1,151.27,239.73Z"/><path id="Path_17924" data-name="Path 17924" class="cls-135" d="M218.8,144.75a2.87,2.87,0,0,0-.05.31c.27.19.54.35.8.05C219.29,144.7,219.05,144.69,218.8,144.75Z"/><path id="Path_17925" data-name="Path 17925" class="cls-136" d="M52.77,124.51a2.62,2.62,0,0,0-1.25-1.05C51.89,124,52.28,124.46,52.77,124.51Z"/><path id="Path_17926" data-name="Path 17926" class="cls-137" d="M141.59,220.9a2,2,0,0,0-.83-.44C141,221.09,141.28,221.39,141.59,220.9Z"/><path id="Path_17927" data-name="Path 17927" class="cls-137" d="M140.62,220.51a.92.92,0,0,0-.69-.63c.12.63.47.71.77.88Z"/><path id="Path_17928" data-name="Path 17928" class="cls-123" d="M35.26,111.9c-.29-.35-.55-.85-.93-.7C34.64,111.42,34.82,112.29,35.26,111.9Z"/><path id="Path_17929" data-name="Path 17929" class="cls-138" d="M69,207.06a.72.72,0,0,0,0,.54.37.37,0,0,0,.52-.08.35.35,0,0,0,.06-.14Z"/><path id="Path_17930" data-name="Path 17930" class="cls-114" d="M204.79,159.34c-.27-.36-.52-.35-.76-.22A.8.8,0,0,0,204.79,159.34Z"/><path id="Path_17931" data-name="Path 17931" class="cls-139" d="M159.76,162.3a18.29,18.29,0,0,1-2.5-2.32,4.38,4.38,0,0,0-1.42-1.18c-2-.74-4-1.51-6.06-2.26a.28.28,0,0,0-.31.07,56,56,0,0,0,10.33,6.2C160.05,162.72,160,162.53,159.76,162.3Z"/><path id="Path_17932" data-name="Path 17932" class="cls-139" d="M95.83,101.49c-2.9-1.39-5.8-2.82-8.7-4.12A4.13,4.13,0,0,0,84.45,97c-.23-.09-.35,0-.2.36,1.7.42,3.34,1.91,5,2.56a56.9,56.9,0,0,0,6.53,1.81C96,101.8,96,101.68,95.83,101.49Z"/><path id="Path_17933" data-name="Path 17933" class="cls-140" d="M233.88,146.61a46.67,46.67,0,0,0-4.79-1.22c-.82-.23-1.26.82-2.13.57,2.36.66,4.61.59,6.95,1.17C234.18,147,234.08,146.84,233.88,146.61Z"/><path id="Path_17934" data-name="Path 17934" class="cls-125" d="M178.13,204.88a28,28,0,0,0,6.36,2.21,4,4,0,0,0,1.86.11c-1-.3-2.09-.67-3.12-.9a9.71,9.71,0,0,1-4.24-1.6c-.21-.15-.44-.31-.66-.21C178.31,204.67,178.1,204.63,178.13,204.88Z"/><path id="Path_17935" data-name="Path 17935" class="cls-110" d="M81.09,95.22a3.4,3.4,0,0,0-2.41.14,6.6,6.6,0,0,0,2.87,1.52c0-.12.14-.21.06-.41s-.3,0-.41-.17c.23-.15.63.38.8-.11C81.87,95.43,81.38,95.57,81.09,95.22Z"/><path id="Path_17936" data-name="Path 17936" class="cls-141" d="M193.75,209.42l-.1-.24c-2.11-1.09-4.16-1.17-6.25-1.94l0,.34Z"/><path id="Path_17937" data-name="Path 17937" class="cls-142" d="M162.89,106.36a6.09,6.09,0,0,0-3.62-1,12.83,12.83,0,0,0,3.42,1.32C162.92,106.8,163,106.75,162.89,106.36Z"/><path id="Path_17938" data-name="Path 17938" class="cls-143" d="M81.08,95.22c.17.6.67.44.87,1,.72.52,1.27.2,1.86,0l.38.12c.19,0,.52.19.33-.41A11,11,0,0,0,81.08,95.22Z"/><path id="Path_17939" data-name="Path 17939" class="cls-132" d="M122.9,191.09l-.33-.44a19.73,19.73,0,0,0-3.08-1c.43.78.87.66,1.24,1Z"/><path id="Path_17940" data-name="Path 17940" class="cls-128" d="M208.89,159.78a3.39,3.39,0,0,0,2.38.57C210.31,158.87,209.63,159.61,208.89,159.78Z"/><path id="Path_17941" data-name="Path 17941" class="cls-120" d="M150.4,155.68a12,12,0,0,0-4-1.3,21.47,21.47,0,0,0,4,1.55.17.17,0,0,0-.09-.25Z"/><path id="Path_17942" data-name="Path 17942" class="cls-108" d="M81.61,96.6l-.06.29c.88,0,1.84.7,2.7.51a.34.34,0,0,1,.2-.36l-.61-.28C83.05,96.43,82.27,96.15,81.61,96.6Z"/><path id="Path_17943" data-name="Path 17943" class="cls-144" d="M100,101.72a3.43,3.43,0,0,0,2.77,2C101.83,102.76,100.82,102.73,100,101.72Z"/><path id="Path_17944" data-name="Path 17944" class="cls-145" d="M235,221.94a3.18,3.18,0,0,0-2.17-.43c-.18,0-.18.09,0,.28.91.08,1.88.8,2.78.75C235.53,221.89,235.16,222.12,235,221.94Z"/><path id="Path_17945" data-name="Path 17945" class="cls-131" d="M42.53,173.2l-.09-.23c-.32.33,0,.66.21,1l1.69.93a.89.89,0,0,0-.44-1.17l-.38-.12C43.19,173.09,42.86,173.36,42.53,173.2Z"/><path id="Path_17946" data-name="Path 17946" class="cls-146" d="M81.61,96.6c.7-.23,1.51.27,2.23.16-.17-.22-.29-.43,0-.52l-1.86,0c-.35,0-.7.17-1.08-.47C80.91,96.58,81.36,96.36,81.61,96.6Z"/><path id="Path_17947" data-name="Path 17947" class="cls-147" d="M232.74,221.79l0-.28c-1.2-.3-2.44-1.1-3.63-1.18a.17.17,0,0,0,0,.18s.06.06.08.06Z"/><path id="Path_17948" data-name="Path 17948" class="cls-148" d="M235,221.94c.18.23.45.23.56.6.17,0,.33.06.42-.13s.54,0,.4-.53c-.06-.24-.14-.49-.35-.53s-.6-.32-.67.17A.45.45,0,0,1,235,221.94Z"/><path id="Path_17949" data-name="Path 17949" class="cls-146" d="M42.65,174c-.1-.33-.33-.65-.21-1-.41-.72-.87-1.27-1.48-1.26-.09.32.32.65.21,1C41.71,172.94,42.14,173.58,42.65,174Z"/><path id="Path_17950" data-name="Path 17950" class="cls-112" d="M41.17,172.68c.83-.34-.24-.65-.21-1-.49-.15-1-.62-1.54-.57C40,172,40.66,172,41.17,172.68Z"/><path id="Path_17951" data-name="Path 17951" class="cls-149" d="M192.22,184.34a6.22,6.22,0,0,0,2.62,1.59c-.17-.45-.3-.94-.72-1a2.85,2.85,0,0,1-1.34-.56C192.57,184.21,192.32,184,192.22,184.34Z"/><path id="Path_17952" data-name="Path 17952" class="cls-123" d="M171,202.51a3.51,3.51,0,0,0-2.14-.53l0,.37,2.13.46Z"/><path id="Path_17953" data-name="Path 17953" class="cls-119" d="M170.44,169.69a3.32,3.32,0,0,0-2.15-1.25h0c.3.84.93.78,1.34,1.34C169.85,169.57,170.3,170.22,170.44,169.69Z"/><path id="Path_17954" data-name="Path 17954" class="cls-118" d="M240.31,219.76c.16-.07.35-.09.35-.41h0c.34-.41-.12-1.06-.1-1.57a2.85,2.85,0,0,0-.69,2Z"/><path id="Path_17955" data-name="Path 17955" class="cls-114" d="M105.35,65.18c.74.27,1.5,1,2.31.58C106.78,65.39,106,65,105.35,65.18Z"/><path id="Path_17956" data-name="Path 17956" class="cls-150" d="M150.4,155.69l.09.24,2.69.94A4.74,4.74,0,0,0,150.4,155.69Z"/><path id="Path_17957" data-name="Path 17957" class="cls-142" d="M178.13,204.88a.37.37,0,0,0,.2-.39,3.22,3.22,0,0,1-1.46-.71c-.28-.07-.62-.21-.5.45Z"/><path id="Path_17958" data-name="Path 17958" class="cls-150" d="M7.29,156.6c.06,1,.39,1.5,1,1.43A2.2,2.2,0,0,0,7.29,156.6Z"/><path id="Path_17959" data-name="Path 17959" class="cls-151" d="M176.38,204.23c0-.41.3-.35.5-.45a5.84,5.84,0,0,0-.57-.35c-.22-.11-.48-.33-.63-.12a.91.91,0,0,0,0,.63C175.89,204.33,176.15,204.25,176.38,204.23Z"/><path id="Path_17960" data-name="Path 17960" class="cls-152" d="M170.44,169.69c-.2.09-.4-.07-.61-.25s-.26.06-.2.34a4,4,0,0,0,1.16.85c-.1-.3-.08-.5.11-.58A.72.72,0,0,0,170.44,169.69Z"/><path id="Path_17961" data-name="Path 17961" class="cls-147" d="M174.84,175.89c.09,1.33.48,1.5,1.06,1.3C175.66,176.58,175.28,176.4,174.84,175.89Z"/><path id="Path_17962" data-name="Path 17962" class="cls-113" d="M98.09,100.91a4,4,0,0,0-1.27-1.16c-.12-.1-.29-.1-.31.14s.16.38.33.45Z"/><path id="Path_17963" data-name="Path 17963" class="cls-132" d="M192.22,184.34c.41-.12.81.37,1.22.56.25.11.56.51.67,0a5,5,0,0,0-1.83-.86c-.15,0-.17.11-.06.31Z"/><path id="Path_17964" data-name="Path 17964" class="cls-153" d="M3.73,146.7c-.19.27-.71.19-.46.91,0,.17.37.43.43.38C4,147.77,3.71,147.17,3.73,146.7Z"/><path id="Path_17965" data-name="Path 17965" class="cls-133" d="M217.41,150.41c-.26-.33-.35-1-.76-.88-.11,0-.42.14-.23.5S217.06,150.26,217.41,150.41Z"/><path id="Path_17966" data-name="Path 17966" class="cls-133" d="M161.87,164a4,4,0,0,0,1.79,1.43Z"/><path id="Path_17967" data-name="Path 17967" class="cls-109" d="M43.9,173.71a2.73,2.73,0,0,1,.44,1.17c.21.2.37.15.5,0-.3-.33-.16-.82-.4-1.14S44,173.43,43.9,173.71Z"/><path id="Path_17968" data-name="Path 17968" class="cls-154" d="M226.79,220a2.12,2.12,0,0,0-1.82-.58A3.2,3.2,0,0,0,226.79,220Z"/><path id="Path_17969" data-name="Path 17969" class="cls-155" d="M176.14,178.07c.3.42.58.94,1,.92C177,178.14,176.69,177.67,176.14,178.07Z"/><path id="Path_17970" data-name="Path 17970" class="cls-156" d="M233.88,146.61a.67.67,0,0,1,0,.52c.48.36.91.23,1.54.39C234.83,146.8,234.32,147.13,233.88,146.61Z"/><path id="Path_17971" data-name="Path 17971" class="cls-155" d="M176.54,180.07a5.08,5.08,0,0,1-.41-2c-.56-.35-.45.19-.32.6A3.36,3.36,0,0,0,176.54,180.07Z"/><path id="Path_17972" data-name="Path 17972" class="cls-119" d="M95.83,101.49l0,.29a1.61,1.61,0,0,0,1.2.3A1.4,1.4,0,0,0,95.83,101.49Z"/><path id="Path_17973" data-name="Path 17973" class="cls-149" d="M192.22,184.34l.06-.31c-.36-.49-.69-.77-.89-.13C191.66,184.17,191.93,184.45,192.22,184.34Z"/><path id="Path_17974" data-name="Path 17974" class="cls-151" d="M57.92,201.35c.54.62.91.82,1.41.82A2,2,0,0,0,57.92,201.35Z"/><path id="Path_17975" data-name="Path 17975" class="cls-112" d="M162.89,106.36a.31.31,0,0,1-.2.35,1.23,1.23,0,0,0,1.19.26C163.55,106.44,163.21,106.48,162.89,106.36Z"/><path id="Path_17976" data-name="Path 17976" class="cls-146" d="M42.53,173.2a2.32,2.32,0,0,0,1,.39C43.18,172.26,42.86,173.36,42.53,173.2Z"/><path id="Path_17977" data-name="Path 17977" class="cls-112" d="M159.76,162.3a.61.61,0,0,1,0,.51l1,.64,0-.18Z"/><path id="Path_17978" data-name="Path 17978" class="cls-157" d="M190.71,152.43a1.69,1.69,0,0,0,1.09.4C191.33,152.34,191.33,152.34,190.71,152.43Z"/><path id="Path_17979" data-name="Path 17979" class="cls-134" d="M228,220.24c-.31-.23-.62-.44-1-.22C227.42,220.37,227.71,220.47,228,220.24Z"/><path id="Path_17980" data-name="Path 17980" class="cls-119" d="M168.29,168.44l-.86-.72-.05.25c.29.25.56.59.91.47Z"/><path id="Path_17981" data-name="Path 17981" class="cls-130" d="M86.22,96c.31.44.52.44.78.41C86.74,95.92,86.52,95.87,86.22,96Z"/><path id="Path_17982" data-name="Path 17982" class="cls-99" d="M198.85,210.54a.85.85,0,0,0,1.05.11A1.12,1.12,0,0,0,198.85,210.54Z"/><path id="Path_17983" data-name="Path 17983" class="cls-146" d="M84.52,96c0,.32-.2.31-.33.41.35.27.56,0,.8-.12C84.85,95.94,84.68,96,84.52,96Z"/><path id="Path_17984" data-name="Path 17984" class="cls-150" d="M8.34,158l.16.46.49-.2A.55.55,0,0,0,8.34,158Z"/><path id="Path_17985" data-name="Path 17985" class="cls-114" d="M229.25,220.57l-.09-.23c-.17,0-.4-.24-.51,0A.54.54,0,0,0,229.25,220.57Z"/><path id="Path_17986" data-name="Path 17986" class="cls-110" d="M240.66,219.36c-.1-.2-.13-.49-.35-.53,0,0-.08.16-.06.23.09.33.25.32.41.29Z"/></g></g><g id="_9ovSSK" data-name=" 9ovSSK"><g id="Group_117" data-name="Group 117"><path id="Path_17987" data-name="Path 17987" class="cls-158" d="M253.09,128,239,119.94c-3.66-2.12-7.29-4.29-10.95-6.4-5.74-3.3-11.36-6.81-17.37-9.58a5.6,5.6,0,0,0-4.46-.37c-2.43,1-3.12,4-1.53,6.3a17.23,17.23,0,0,0,1.93,2.25c4,4.17,8.25,8.09,11.54,12.9a19.8,19.8,0,0,1,3.18,5.85c.28,1,.1,1.42-.91,1.68a16.13,16.13,0,0,1-7.05-.07c-7.77-1.5-15-4.51-22.14-8A162.52,162.52,0,0,1,177,116.68a81.45,81.45,0,0,1-12.54-9c-2.07-1.9-3.74-4.26-5.81-6.2-.24-.22-.42-.51-.67-.73-2.37-2.15-4.47-4.6-7-6.56a18.51,18.51,0,0,0-4.36-3,3.57,3.57,0,0,0-4.55,1.3c-1,1.45-.7,3.19.54,4.8s3,3.05,4.47,4.88c-2-.79-3.84-1.5-5.67-2.23-5.37-2.16-10.78-4.17-16.31-5.83a104.71,104.71,0,0,0-17.2-3.92,19.6,19.6,0,0,0-8.75.47,6.62,6.62,0,0,0-3.82,9.86,24,24,0,0,0,2.93,4.16c-.62.19-.92-.26-1.3-.44q-10.73-4.9-21.51-9.66-9.09-4-18-8.25c-3.73-1.78-7.49-3.47-11.21-5.26-3.27-1.57-6.57-3.09-9.74-4.9a5.89,5.89,0,0,0-2.55-.94,3.17,3.17,0,0,0-3.19,2,3.68,3.68,0,0,0,1,4.19,14.25,14.25,0,0,0,4.24,2.83c4.51,2.18,9,4.32,13.55,6.5,8,3.84,16.12,7.43,24.2,11.12,4.76,2.17,9.58,4.2,14.34,6.37q10.44,4.78,20.72,10c6.44,3.22,13,6.3,19.13,10,4.06,2.45,7.86,5.35,11.82,8a124.24,124.24,0,0,0,11.93,7.42c1.39.71,2.87,1.29,4.4.62,2.38-1,3-3.69,1.46-5.94a14.75,14.75,0,0,0-4.06-3.57,229,229,0,0,0-20.32-12.15,69.84,69.84,0,0,1-7.61-5.24q-5.17-3.77-10.27-7.63c-2-1.5-4-3-5.88-4.63a45.53,45.53,0,0,1-6.4-6.17c-.31-.39-1-.77-.69-1.31s.9-.26,1.36-.25a50.12,50.12,0,0,1,10.2,1.41,143.89,143.89,0,0,1,21.18,6.6c6.68,2.63,13.35,5.28,20,7.86a12.87,12.87,0,0,0,5.49,1.2c.85-.06,1.36.65,1.92,1.09a136.27,136.27,0,0,0,18.48,12,141.16,141.16,0,0,0,18.65,8.72,70.33,70.33,0,0,0,14,3.84,20.07,20.07,0,0,0,8.79-.31c5.34-1.58,7.58-6.23,5.72-11.66-1-3-2.89-5.59-4.57-8.25-.06-.1-.11-.22-.3-.59,1,.58,1.85,1,2.64,1.48,8,4.79,16,9.37,24.05,14q6.36,3.63,12.94,6.84a65,65,0,0,0,10.3,4.31,4.67,4.67,0,0,0,4.13-.36,4,4,0,0,0,1.36-5.56,3.48,3.48,0,0,0-.43-.58,39.36,39.36,0,0,0-5.76-5.26q-2.71-2.21-5.41-4.44-4.3-3.54-8.59-7.1a14.67,14.67,0,0,1-2.33-2.46,35.84,35.84,0,0,1,5.17,1.38A86.46,86.46,0,0,1,272,125.76a47.79,47.79,0,0,1,11.1,6.83,3.16,3.16,0,0,0,4.46,0,3.12,3.12,0,0,0,.68-1,3.5,3.5,0,0,0-.8-3.68,43.88,43.88,0,0,0-10.65-7.74,75.81,75.81,0,0,0-20.71-7.6,13,13,0,0,0-5.61-.18c-4.23.94-5.58,5.22-3.12,8.89a24.48,24.48,0,0,0,3.4,4,31.31,31.31,0,0,0,2.68,2.6c.1.16.14.36.26.39C253.59,128.08,253.31,128.17,253.09,128Z"/><path id="Path_17988" data-name="Path 17988" class="cls-159" d="M253.09,128l1.19.74a1.58,1.58,0,0,0-.82-1A.38.38,0,0,1,253.09,128Z"/></g></g></g></g></g></svg>