<svg xmlns="http://www.w3.org/2000/svg" viewBox="0 0 253.89 120.91"><defs><style>.cls-1{fill:#fff;}</style></defs><g id="圖層_2" data-name="圖層 2"><g id="圖層_1-2" data-name="圖層 1"><g id="Group_127" data-name="Group 127"><path id="Path_29449" data-name="Path 29449" class="cls-1" d="M32.37,22q8.46,1,16.92,2c4.42.51,8.84.95,13.25,1.47,6.92.81,13.86,1.37,20.69,2.8a6,6,0,0,1,4,2.46c1.51,2.31.28,5.26-2.49,6.22a19.31,19.31,0,0,1-3,.69c-5.94,1-12,1.62-17.69,3.6a20.38,20.38,0,0,0-6.25,2.91c-.86.69-1,1.13-.23,2a17.37,17.37,0,0,0,6.09,4.32C71.27,54,79.31,56,87.5,57.52a167.73,167.73,0,0,0,17,2.33,87.46,87.46,0,0,0,16.18.28c2.93-.3,5.78-1.23,8.73-1.57.34,0,.67-.17,1-.2,3.33-.32,6.61-1.07,10-1.13a19.35,19.35,0,0,1,5.53.22A3.84,3.84,0,0,1,149,61.37c0,1.81-1.31,3.1-3.35,3.68s-4.42.69-6.78,1.29c2.19.59,4.2,1.15,6.21,1.67,5.91,1.53,11.76,3.22,17.51,5.27a114.37,114.37,0,0,1,17.12,7.42A21.35,21.35,0,0,1,187,86.54a6.79,6.79,0,0,1-.92,9.57,6.62,6.62,0,0,1-1.75,1,24.63,24.63,0,0,1-5,1.66c.41.54.94.35,1.38.44q12.17,2.56,24.28,5.3c6.8,1.54,13.62,3,20.47,4.33,4.26.83,8.51,1.76,12.78,2.57,3.76.72,7.5,1.51,11.31,2a6.57,6.57,0,0,1,2.77.8,3.38,3.38,0,0,1,1.52,3.66,3.72,3.72,0,0,1-3.35,2.91,15,15,0,0,1-5.34-.27c-5.18-1-10.36-2-15.54-3-9.19-1.76-18.32-3.81-27.47-5.76-5.4-1.15-10.76-2.45-16.16-3.59q-11.83-2.51-23.77-4.57c-7.47-1.31-14.92-2.79-22.47-3.5-5-.47-10-.41-14.95-.68A131.61,131.61,0,0,1,110,98.2c-1.63-.27-3.24-.71-4.16-2.22-1.41-2.34-.35-5,2.34-5.88a15.27,15.27,0,0,1,5.63-.45,242.1,242.1,0,0,1,24.77,2.47,73,73,0,0,0,9.69.35q6.7.07,13.41,0c2.61,0,5.23,0,7.84-.22a47.69,47.69,0,0,0,9.21-1.18c.5-.13,1.28,0,1.38-.66s-.61-.78-1-1.06a54.82,54.82,0,0,0-9.6-5.17,156.24,156.24,0,0,0-22.15-7.65c-7.32-2-14.65-3.89-21.95-5.9A13.73,13.73,0,0,1,120,68.23c-.7-.58-1.56-.3-2.31-.28a142.46,142.46,0,0,1-23.07-1.49,150.82,150.82,0,0,1-21.26-4.31A76.71,76.71,0,0,1,59,56.65a21.85,21.85,0,0,1-7.35-5.73C48,46.28,48.91,41,53.79,37.6c2.73-1.9,5.85-2.87,8.9-4.05l.61-.31c-1.24-.16-2.2-.31-3.16-.4-9.7-.94-19.38-2.13-29.06-3.28C26,29,20.91,28.15,15.85,27.23A69.47,69.47,0,0,1,4.41,24.42a5.12,5.12,0,0,1-3.33-2.86,4.12,4.12,0,0,1,2.06-5.44A3.68,3.68,0,0,1,4,15.84,40.93,40.93,0,0,1,12.1,15c2.44-.1,4.88-.23,7.32-.35l11.66-.59a15.77,15.77,0,0,0,3.48-.61,36.78,36.78,0,0,0-5.28-2.06,90.61,90.61,0,0,0-11.8-3.1A50.8,50.8,0,0,0,3.84,7.13,3.39,3.39,0,0,1,.08,3,3.53,3.53,0,0,1,3,.44a46.94,46.94,0,0,1,13.8.15A81.88,81.88,0,0,1,39.14,7.12a14.3,14.3,0,0,1,4.92,3.35c3.06,3.41,1.64,7.83-2.69,9.37a24.89,24.89,0,0,1-5.32,1.22,33.61,33.61,0,0,1-3.87.52c-.18.07-.33.22-.46.16C31.9,21.72,32.08,22,32.37,22Z"/><path id="Path_29450" data-name="Path 29450" class="cls-1" d="M32.37,22l-1.47-.13a1.71,1.71,0,0,1,1.28-.29A.41.41,0,0,0,32.37,22Z"/></g></g></g></svg>