<svg xmlns="http://www.w3.org/2000/svg" viewBox="0 0 75.04 359.92"><defs><style>.cls-1{isolation:isolate;}.cls-2{fill:#ffd3cb;}</style></defs><g id="圖層_2" data-name="圖層 2"><g id="圖層_1-2" data-name="圖層 1"><g id="芒果派對" class="cls-1"><g class="cls-1"><path class="cls-2" d="M42.4,41.52v26.8h-9V20.08h-15c-3.44,0-4.72,1.12-4.72,6.16V52.16a94,94,0,0,0,.8,13.28c-2.64.24-6.56.72-9,1.12-.56-2.48-.72-8.72-.72-14V27c0-12.24,3.28-16.72,13.84-16.72h14.8V2.72h9V34.64c2.8-1.76,5.92-4.08,8.48-6l4.32,8a89.52,89.52,0,0,1-10.72,8.08Zm17.36-26V0h8.88V15.52H75V25h-6.4v9.36H59.76V25H51.6V15.52Zm8.88,55.76H59.76V55.84H51.6V46.4h8.16V37h8.88V46.4H75v9.44h-6.4Z"/><path class="cls-2" d="M24.56,143.84a78.39,78.39,0,0,0-13.44,25.92A38.45,38.45,0,0,0,3,163.36a80.27,80.27,0,0,1,17-26.48H.4V126.8H19.68A76.82,76.82,0,0,1,2.56,100.16a49.33,49.33,0,0,0,7.92-6.48c2.8,9.52,8.08,19.44,14.08,26.16V96.16h8.72V126.8H38V103.92H71.44v56.16H38v-23.2H33.28v30.56H24.56Zm21.36-17H51V113.92H45.92ZM51,149.6V136.88H45.92V149.6Zm7.36-35.68V126.8h5.12V113.92Zm5.12,35.68V136.88H58.4V149.6Z"/><path class="cls-2" d="M67.28,262c-3.36-10.64-5.84-24.4-7.44-37.2h-13c-13.44,0-33.68-1.36-46.8-9.68a28.24,28.24,0,0,0,4.56-7.6c12.24,8,29.92,8.64,42.24,8.64H67c1.76,13.68,4.64,28.88,8,38.24Zm-31.92,3.68c-2.72-3.92-5.76-7.68-8-11-7.36,2.64-13.52,6.24-17.28,11.52A36.86,36.86,0,0,0,2,259.44c9.12-10.64,25.76-14.88,45.44-17.28-.24-1.2-.4-2.48-.64-3.68H14.24l3.52,9a41.87,41.87,0,0,0-7.44,1.92c-6.16-14.64-7.68-17.2-9.12-18.8A28.28,28.28,0,0,0,9,227a6,6,0,0,0,5.68,3.12h39v.08l.08-.08c1.2,8.48,3.36,17.76,5.68,23.52L52,261a85.24,85.24,0,0,1-3-11,100.35,100.35,0,0,0-13.6,2.32,65.5,65.5,0,0,0,7,6.64ZM26.64,210.8c-8.32-3.6-17.36-7.92-25.12-12.08l6.56-7.12a215.38,215.38,0,0,0,25,13Zm10.08-6.88c2.64-3,6.48-9.28,8.88-13.84l7.12,4.4a88.27,88.27,0,0,1-8,13.92Zm21,3.92c2.72-3,6.8-9.36,9.44-13.84l7,4.56c-2.32,4.4-6,10.88-8.64,14.08Z"/><path class="cls-2" d="M46.08,359.92v-6.08H11.2c-4.88,0-7.28-1-8.8-3.92-1.6-2.8-1.92-7-1.84-13.28a40.77,40.77,0,0,0,9-3.2c-.16,4.08-.16,8.08-.16,9.36s.4,1.84,1.76,1.84H46.08v-17.2H55v17.2H75v9.2H55v6.08ZM14.56,311.84c.56,5,1.12,10.24,1.68,15.36L8,327.36c-1.76-13.76-3.36-28.64-4.48-39.2l8.64-1.2c.4,4.48.88,10.08,1.52,16.08h6V291h7.68v12h5.36V289.52H40.4v8.64A45.24,45.24,0,0,0,48,293l2.24,4.08v-10h7.84V298h3.76L59,293.92a41.07,41.07,0,0,0,9.6-6.56l3.76,5.76A58.92,58.92,0,0,1,66.48,298H75v7.44h-17v3.68H75v7.6H65.76A46.72,46.72,0,0,0,72,321l-4.08,7.44c-3.44-3.2-6.88-6.56-9.2-9.12l1.68-2.64H58.08v10.4H50.24v-10.4l-1.92,5.44c-2.72-1.36-5.44-2.88-7.92-4.32v7H32.72v-13H27.36v12H19.68v-12Zm6.32,22.24c4.72-.48,12.24-3,18.08-5.76l2.64,7.84c-5.6,3-12.88,5.68-17.76,6.32ZM50.24,300.8a29.82,29.82,0,0,1-7.12,4.64l-2.72-4.72v8.56a68.19,68.19,0,0,0,9.84,4.4Z"/></g></g></g></g></svg>