<svg xmlns="http://www.w3.org/2000/svg" viewBox="0 0 426.28 232.17"><defs><style>.cls-1{fill:#fff;}</style></defs><g id="圖層_2" data-name="圖層 2"><g id="圖層_1-2" data-name="圖層 1"><g id="_9ovSSK" data-name=" 9ovSSK"><g id="Group_110" data-name="Group 110"><path id="Path_15352" data-name="Path 15352" class="cls-1" d="M60.8,191.05l20.79-20.17C87,165.61,92.33,160.26,97.75,155c8.49-8.24,16.68-16.79,25.9-24.26,2.22-1.8,4.75-3,7.58-2.7,4.68.5,7.25,5.28,5.54,10a31.88,31.88,0,0,1-2.34,4.72c-5,8.9-10.69,17.49-14.24,27.17-1.34,3.68-2.83,7.34-2.87,11.36,0,1.86.47,2.46,2.35,2.42a29.79,29.79,0,0,0,12.24-3.37c12.85-6.14,24.11-14.58,34.93-23.73a290.32,290.32,0,0,0,21.31-19.9c6.38-6.61,12.69-13.33,17.75-21,2.74-4.18,4.58-9,7.3-13.19.31-.49.5-1.07.82-1.55,3.15-4.72,5.69-9.86,9.22-14.34,1.94-2.46,3.6-5.17,6.22-7.06,3.21-2.32,6.39-1.74,8.53.1,2.32,2,2.67,5.06,1.24,8.37-1.51,3.51-3.84,6.56-5.58,10.33,3.13-2.26,6-4.31,8.87-6.4,8.36-6.14,16.88-12,25.75-17.42A194.93,194.93,0,0,1,296.42,59.9c4.93-2,10-3.51,15.46-3.25C320,57,325,63.68,323,71.56a42.89,42.89,0,0,1-3.2,8.4c1.15,0,1.48-.87,2.06-1.34q16.44-13.28,33.06-26.31,14-11,27.67-22.32c5.68-4.74,11.47-9.33,17.13-14.08,5-4.18,10-8.27,14.72-12.8a11,11,0,0,1,4-2.79,5.74,5.74,0,0,1,6.45,1.93c1.73,2.15,1.8,4.79.23,7.53a25.51,25.51,0,0,1-6.1,6.75c-6.85,5.78-13.76,11.5-20.63,17.26-12.19,10.22-24.69,20.06-37.08,30-7.3,5.88-14.78,11.54-22.08,17.43q-16,12.93-31.55,26.42C298,116.09,288,124.33,279,133.51c-6,6-11.25,12.68-17,19s-11.1,12.54-17.41,18.08c-2.1,1.84-4.4,3.51-7.38,3.09-4.6-.65-6.9-4.85-5.24-9.38,1.14-3.1,3.33-5.51,5.45-7.92a411.84,411.84,0,0,1,29.86-30c4.05-3.74,7.35-8.17,10.87-12.39q7.29-8.76,14.41-17.66c2.78-3.47,5.57-6.93,8.13-10.56,3-4.3,6.19-8.55,8.34-13.4.35-.8,1.3-1.75.61-2.54s-1.68,0-2.49.2a92.71,92.71,0,0,0-17.11,7.1,266.17,266.17,0,0,0-33.87,21c-10.44,7.55-20.86,15.12-31.35,22.59-2.75,2-5.57,3.9-9,4.56-1.5.29-2.06,1.72-2.84,2.74a244.49,244.49,0,0,1-26.74,28.79,254.57,254.57,0,0,1-28.51,23.4,129.44,129.44,0,0,1-22.66,13c-4.91,2.11-10,3.64-15.44,3.54-10-.2-16-7-15.27-17.09.43-5.64,2.49-10.8,4.21-16.08.06-.2.09-.42.25-1.14-1.54,1.47-2.76,2.57-3.92,3.74-11.66,11.77-23.62,23.25-35.53,34.77C63.1,207,56.6,212.78,50,218.45c-5.09,4.34-10.2,8.64-16,12.06-2.27,1.34-4.63,2.18-7.35,1.31a7,7,0,0,1-5-8.54,6.71,6.71,0,0,1,.55-1.43c2-4.21,4.86-7.85,7.64-11.56,2.49-3.32,4.94-6.67,7.4-10l11.73-16A27,27,0,0,0,51.93,179a62.77,62.77,0,0,0-8.38,4.73A156.72,156.72,0,0,0,26.79,196c-5.94,5-11.76,10.19-16.21,16.7a5.78,5.78,0,0,1-7.93,1.9,5.87,5.87,0,0,1-1.51-1.34,6,6,0,0,1-.29-6.6c4-6.88,9.28-12.66,15-18a138.71,138.71,0,0,1,32.6-22.44,24.27,24.27,0,0,1,9.69-2.9c7.79-.36,12.08,6.26,9.47,13.6a42.52,42.52,0,0,1-4.11,8.34,53.38,53.38,0,0,1-3.48,5.64c-.09.31-.06.68-.28.78C60,191.4,60.49,191.42,60.8,191.05Z"/><path id="Path_15353" data-name="Path 15353" class="cls-1" d="M60.8,191.05l-1.74,1.8a2.9,2.9,0,0,1,1-2A.69.69,0,0,0,60.8,191.05Z"/></g></g></g></g></svg>