<svg xmlns="http://www.w3.org/2000/svg" viewBox="0 0 271.01 249.64"><defs><style>.cls-1{fill:#4d4c4c;}.cls-2{fill:#696868;}.cls-3{fill:#323131;}.cls-4{fill:#333232;}.cls-5{fill:#595858;}.cls-6{fill:#3c3b3b;}.cls-7{fill:#484747;}.cls-8{fill:#575656;}.cls-9{fill:#4c4c4c;}.cls-10{fill:#6b6a6a;}.cls-11{fill:#636262;}.cls-12{fill:#525151;}.cls-13{fill:#4c4b4b;}.cls-14{fill:#f8f8f8;}.cls-15{fill:#8a8a8a;}.cls-16{fill:#b8b8b8;}.cls-17{fill:#414040;}.cls-18{fill:#807f7f;}.cls-19{fill:#9d9c9c;}.cls-20{fill:#8f8f8f;}.cls-21{fill:#9d9d9d;}.cls-22{fill:#717171;}.cls-23{fill:#8a8989;}.cls-24{fill:#464545;}.cls-25{fill:#999;}.cls-26{fill:#939393;}.cls-27{fill:#3d3c3c;}.cls-28{fill:#504f4f;}.cls-29{fill:#b1b0b0;}.cls-30{fill:#9a9999;}.cls-31{fill:#929292;}.cls-32{fill:#b5b5b5;}.cls-33{fill:#646363;}.cls-34{fill:#4b4a4a;}.cls-35{fill:#898888;}.cls-36{fill:#989797;}.cls-37{fill:#9e9d9d;}.cls-38{fill:#908f8f;}.cls-39{fill:#5f5f5f;}.cls-40{fill:#403f3f;}.cls-41{fill:#adacac;}.cls-42{fill:#959595;}.cls-43{fill:#686767;}.cls-44{fill:#c2c2c2;}.cls-45{fill:#d6d6d6;}.cls-46{fill:#e3e3e3;}.cls-47{fill:#4d4d4d;}.cls-48{fill:#d2d2d2;}.cls-49{fill:#f3f3f3;}.cls-50{fill:#d1d1d1;}.cls-51{fill:#bdbdbd;}.cls-52{fill:#eaeaea;}.cls-53{fill:#3a3939;}.cls-54{fill:#393838;}.cls-55{fill:#d3d3d3;}</style></defs><g id="圖層_2" data-name="圖層 2"><g id="圖層_1-2" data-name="圖層 1"><g id="McLNuP"><g id="Group_120" data-name="Group 120"><path id="Path_24457" data-name="Path 24457" class="cls-1" d="M3.42,140.52c-.87.52-1.77.22-1.58-.69.34-1.73-.81-2-1.84-2.49l.27-2.07,1.65-1c.71,1.09,1.05,2.46,2.93,2.28,1.09-.11,1.2.76.43,1.55S3.48,139.29,3.42,140.52Z"/><path id="Path_24458" data-name="Path 24458" class="cls-2" d="M127.16.27a.29.29,0,0,1,.12.38l0,0c-1.73,1.24-3.26,3.1-5.79,1.9.82-1.41,2.72-1.3,3.62-2.59Z"/><path id="Path_24459" data-name="Path 24459" class="cls-3" d="M124.24,234c-.25.64-.5,1.28-.74,1.92a2.21,2.21,0,0,1,.23,1.65c-1.51,4.21-4.73,7-8.08,9.65-1.21,1-1.31-1-2.28-1.17-.58,2.22-2.31,3.14-4.41,3.57a3.24,3.24,0,0,1-3.72-2.77c0-1.2-.3-2-1.49-1.6-2.2.78-1.51-.61-1-1.39.77-1.28.28-1.62-.81-1.16-2.35,1-2.24-.72-2.25-2a13.79,13.79,0,0,1,5.18-11,49.18,49.18,0,0,0,13.77-19.12A100.15,100.15,0,0,1,129.91,190c.92-.3,1.12-1.34,1.87-1.81a59.88,59.88,0,0,1,8.05-8c1.18-1,3-1.51,2.72-3.83-.08-.52,1.28-1.25,2-1.89.5-.58.63-1.44,1.35-1.87h0c1-.39,1-1.79,2-2.14-.21-2.41,2.2-3.09,3.3-4.57.78-1,2.2.92,3.36,1.47.58.28.74,1.66,1.79.46.19-.22,1.08.43.93.92-1.16,3.91,2.38,7.65.24,11.69-.8,1.51.95,3.32,3,3.47,1.23.09,1.1,1.13,1.53,1.79a2,2,0,0,1-.38,2.76c-1,1-2.44,1.66-2.58,3.94l1.63-2.16c1.64,2.31.24,3.73-.65,5-3.64,5.35-7.59,10.49-11.11,15.92A60.19,60.19,0,0,1,134,227.39c-2.46,1.8-5.57,2.7-7.56,5.22C125.65,232.94,125.13,233.76,124.24,234Z"/><path id="Path_24460" data-name="Path 24460" class="cls-3" d="M233,230c-2.95-1.93-4.34,0-6.08,2.09a32.23,32.23,0,0,1-5.56,5.2c-1.49,1.13-3.87.7-5.9.52.2-.9.37-1.69.55-2.49-.32-1-.92-1.38-1.92-.82-1,.1-1-2.59-2.62-1-.75-.85-1.32-2.13-.85-2.92,1.28-2.13,1.67-4.58,2.92-6.81,2.38-4.23,4.66-8.82,5.33-13.87.14-1,.32-2.17,1.63-2.35s1.5.89,1.73,1.92c.94-1.41.73-2.91.9-4.35.08-.65.18-1.54,1.2-1.3.67.16,1.5-.31,2,.69,1.21,2.44,4.37,2.47,6.35.23,3.92-4.43,8.32-8.06,14.58-8.51A1.32,1.32,0,0,0,248,196c4.67-3.41,10.6-4.79,14.67-9.22,1.13-1.22,2.87-.45,4.34-.47-.71,1.36.6,2.2.8,3.3.13.77.05.81.76.44,1.72-.9,2.52,1.44,2.48,1.62-.52,2.91-.68,5.71-3.08,8.26-7.38,7.89-14,16.49-21.42,24.34a49.9,49.9,0,0,1-6.59,5.82,5.58,5.58,0,0,1-6.44.14c0-1,.92-1.47,1.4-2.16.3-.08.12.32.1,0,0-.14-.17-.11-.23.08C234.12,228.77,233.72,229.57,233,230Z"/><path id="Path_24461" data-name="Path 24461" class="cls-3" d="M233.39,57.2c-1.51,1.3-2,3.42-4.27,4.29-1,.38-1.71,2.73-3,4-2.51,2.39-4.41,2.4-7-.1-.8-.78-2.33-.35-2.93-2.13-1.19-3.55,0-6.77.58-10.1.77-4.32,4-7,6.71-10a131.22,131.22,0,0,1,12.35-12.27c1.33-1.11,2.74-1.9,4.66-1.3a3.09,3.09,0,0,0,2.47-.47c.85-.57,1.59-1.13,2,.58.25,1.12,1.52.85,2.36.71,2.18-.38,3.77.8,5.32,1.94,1.31,1,0,2.47.5,3.65.19.54.47.54.8.12.16-1,1-1.14,1.46-.65a3,3,0,0,1,.89,3.06c-.41,1.21-1,2.35-1.52,3.52a1,1,0,0,1-.81-.19c-.7-.12-.64.53-.87.87a9.7,9.7,0,0,1-1,1.86,10.6,10.6,0,0,0-1.7,6.12,3.38,3.38,0,0,1-.1,1.05,15.63,15.63,0,0,1-.71,2.23c-.57,2.08.91,2.27,2.32,2.53,1.5,1.36-.17,1-.7,1.31l-3.06-.21c-.58.06-1.06.54-1.69.43a3.82,3.82,0,0,1-1.91-1.52c-1.19-.52-1.58-2-2.85-2.41a1,1,0,0,0-1.28-.45.92.92,0,0,0-.25.19,5.94,5.94,0,0,1-6.07,2.47C233.07,56,233.74,57,233.39,57.2Z"/><path id="Path_24462" data-name="Path 24462" class="cls-3" d="M3.42,140.52c-.81-.53-1.09-1.08-.09-1.73.7-.46,1.38-.95,2.8-1.93-3,.64-4.91.57-4.21-2.54,4-3.44,8.57-6.25,12.34-10,1-1,2.16-2,3.24,0A3.06,3.06,0,0,0,21,125.45c3.69-3.11,7.42-6.19,11.07-9.35,2.17-1.87,4.34-.91,6.54-.24.32.1.58.47.89.5,3.85.43,1.58,1.71.2,2.87,1.21.4,1.56-.86,2.71-.88-1.2,1.33-1.05,3-2.07,4.38-.67.9.2,2.31.19,3.53,0,3.45-2.23,5.1-4.25,7a21.4,21.4,0,0,1-9.84,5.26c0,1.12-1.57.95-1.62,2a20.45,20.45,0,0,1-7.71,4.89c-1.41.59-3.3-.53-5.05-.32-.36,0-.78-.06-1.22,0-2,.26-3.3-.9-2.83-2.88.42-1.75,0-1.78-1.51-1.53A12.82,12.82,0,0,1,3.42,140.52Z"/><path id="Path_24463" data-name="Path 24463" class="cls-3" d="M117.56,77.35l2.64-3.8c.15-.21.37-.62.45-.6,2.2.7,2.76-1.11,3.82-2.31.36-.41,1.35-.44,1.36.7,0,2,1.67,1.08,2.61,1.35.44.13.87-1.3,1.5.11.36.78.86,1.16.24,2.11A13.34,13.34,0,0,0,129.07,78c.71.36.78-.28,1.1-.45.57-.3,1.17-1,1.79-.51.8.6.32,1.36-.08,2.05L118,103.32a5,5,0,0,1-3.88,2.57c-2.19.31-4.22,2.39-6.59.28.8-1.11.66-2.94,2.14-3.93a.57.57,0,0,0,.27-.75.38.38,0,0,0-.09-.13,1,1,0,0,0-1.37-.36,1.85,1.85,0,0,1-2.62,0,1.92,1.92,0,0,1-.26-.32c-.89-1,.43-1.46.7-2.16,2.12-5.75,5.23-11,8.3-16.27a.53.53,0,0,1,.59,0,1.4,1.4,0,0,1,.48.76c0,.48.22.57.58.2a15,15,0,0,0,2.37-4.69c.18-.61-.3-.34-.51-.44A1,1,0,0,1,117.56,77.35Z"/><path id="Path_24464" data-name="Path 24464" class="cls-3" d="M68.91,210.56c-1.36,3.58-4.1,5.6-7.62,6.74-.71.23-5.81-.93-6.12-1.45a.22.22,0,0,1,0-.21C56.79,213,53.94,213,53,211.93l0-.32c.2-.37.61-1.05.59-1.06-2.87-1.83.23-2.81.62-4.12A11.19,11.19,0,0,1,55.61,204c1.17.08,1.32-.91,1.69-1.65A39.77,39.77,0,0,1,60,197.11a24.85,24.85,0,0,1,2.37-5.35c.56,2.32,1.14,2.85,2.84,1.21,1-.95,2.58-2.2,4.44-1.31.45,1.27.7,2.53-.34,3.66-.22,1.28-.44,2.55-.67,3.83-.14.77-.11,1.41.94,1.34,1,.09.76.62.44,1.19-.46,1.43-2.3,1.78-2.6,3.34.12.13.15.24.09.34s-.11.15-.14.13-.07,0-.09.06c.15-.08.31-.16.48-.23A5.1,5.1,0,0,1,68.91,210.56Z"/><path id="Path_24465" data-name="Path 24465" class="cls-4" d="M173.75,123.54c-.52-.1-1.18,1.16-1.57-.16a6.63,6.63,0,0,1,2-2l.84-.68c1.15-.57.34-2.46,1.5-2.7a3.87,3.87,0,0,0-1.24,1.21c-.25.26-.51.51-.77.76a5.11,5.11,0,0,1-4.23,2.22l0,0c-.63.11-1.19.14-1.05-.79a11,11,0,0,1,2.83-4.23,5.9,5.9,0,0,0,1.74-1.88,2.8,2.8,0,0,1,2.25-1.36,21.57,21.57,0,0,0,8-7.85c.43-.72.79-1.86,2.09-1.51.49.7-.19,1.51.23,2.21s-.56,2,.74,2.59a3.33,3.33,0,0,0,1.8.4,2.11,2.11,0,0,0,.89-.81c.27-.36.55-.71,1.08-.61.41.33.09.86.34,1.24-.46.8-.91,1.61-1.37,2.42a7.63,7.63,0,0,1-4.09,4.36l-.77.8c-.86,1.91-2.75,2.77-4.19,4.11a1.34,1.34,0,0,1-.49,0c-1.62-.73-2.51.75-3.74,1.21C175.49,122.37,174.68,123.14,173.75,123.54Z"/><path id="Path_24466" data-name="Path 24466" class="cls-4" d="M121.47,2.6c2.28.43,3.67-1.84,5.79-1.9,1.11.28.63,1.1.59,1.77A1.86,1.86,0,0,1,127.32,4c-.24.18-.62,0-.83.26,0,0,.05.11.14.1a1.37,1.37,0,0,0,.86-.39,2.31,2.31,0,0,1,1.4-.87c1.23-.62,2.1-.38,2,1.13-.09,2.14.3,4.4-1.67,6.11A16.5,16.5,0,0,0,127,13.19c-.44.6-.6,1.1-1.72.81-1.65-.43-.73,2-2,2.35-.84-.68,1.5-3.23-1.54-2.57-.83.43-1.24,0-1.51-.73L120,10.59c-.1-.45-.57-.8-.35-1.33-.3.3-.17.83-.57,1.07l-3.08,5C114.1,12.46,117.53,4.39,121.47,2.6Z"/><path id="Path_24467" data-name="Path 24467" class="cls-5" d="M118.13,78c.6-.13.64-1.06,1.49-1-.6,2.62-1.21,5.2-3.4,7a7.47,7.47,0,0,1-.7-1.06l-.72-.63c1-.09.31-1.17.86-1.52.19-.5-.13-1.2.58-1.5C116.84,78.81,117.2,78,118.13,78Z"/><path id="Path_24468" data-name="Path 24468" class="cls-6" d="M67.31,205.61l.15-.59,2.35-.75c.39.92-.53,1.19-.71,1.78.72.66,1.19-.54,1.91-.21-.09,1.81-1.25,3.2-2.1,4.72a8.09,8.09,0,0,0-1.66-5Z"/><path id="Path_24469" data-name="Path 24469" class="cls-7" d="M254.33,41.47l.38.57c-1.43,2.76-2.05,5.8-3,8.72-.2.6.22,1,.19,1.45a.83.83,0,0,1-1,.06,1.43,1.43,0,0,1-.36-.62,9.75,9.75,0,0,1,0-1.08c0-1.46-.16-2.94.88-4.17a23.07,23.07,0,0,1,1.46-3.48C253.32,42.43,253.14,41.23,254.33,41.47Z"/><path id="Path_24470" data-name="Path 24470" class="cls-8" d="M60,197.11c-1,2.34-1.9,4.69-2.89,7-.2.46.06,1.43-.89,1.18-.31-.09-.44-.84-.65-1.28A32.77,32.77,0,0,1,60,197.11Z"/><path id="Path_24471" data-name="Path 24471" class="cls-9" d="M120.24,13.05l1.51.73c-.1.5-.2,1-.31,1.51-.17.85.27,2.34-1,2.23-.81-.07-1.09-1.55-1-2.61A2.63,2.63,0,0,1,120.24,13.05Z"/><path id="Path_24472" data-name="Path 24472" class="cls-10" d="M170.28,122.14a15,15,0,0,0,4-2.63c1.34.54.26,1.4.26,2.11a6,6,0,0,1-2.39,1.76A2.16,2.16,0,0,0,170.28,122.14Z"/><path id="Path_24473" data-name="Path 24473" class="cls-11" d="M185.81,116.35,189.9,112c.07,2.32-1.78,3.47-3.1,4.91C186.14,117.64,186.26,116.35,185.81,116.35Z"/><path id="Path_24474" data-name="Path 24474" class="cls-12" d="M176.42,122.24c1.3-.37,1.92-3.61,3.94-.93l-1.69,1.45a4,4,0,0,1-1.24.13C177.08,122.69,176.61,122.69,176.42,122.24Z"/><path id="Path_24475" data-name="Path 24475" class="cls-10" d="M180.85,121.27c.56-2.23,3-2.5,4.19-4.12C184.42,119.32,183.22,120.88,180.85,121.27Z"/><path id="Path_24476" data-name="Path 24476" class="cls-13" d="M21,125.45c-1.72,1.31-2.85.8-3.51-1.16Z"/><path id="Path_24477" data-name="Path 24477" class="cls-14" d="M244.5,56.52c1-.1,1.4.71,2,1.27a.76.76,0,0,1,0,1C245.29,58.49,243.77,58.48,244.5,56.52Z"/><path id="Path_24478" data-name="Path 24478" class="cls-15" d="M69.35,195.32l.34-3.66.94,1.08a2.76,2.76,0,0,1-.28,2.54Z"/><path id="Path_24479" data-name="Path 24479" class="cls-16" d="M176.08,113.92c-.16,1.11-1.71.72-1.92,1.77-.56.22-.7-.2-.88-.57C174.1,114.46,174.33,112.42,176.08,113.92Z"/><path id="Path_24480" data-name="Path 24480" class="cls-5" d="M185.9,106.79c-.43-.81.37-1.46.29-2.23.75.4,0,1.93,1.56,1.9.35,0-.24.88-.76,1.15C186.62,107.35,186.25,107.08,185.9,106.79Z"/><path id="Path_24481" data-name="Path 24481" class="cls-17" d="M190.92,108.48a1.11,1.11,0,0,0-.61,1c-1.39-.35-1.21-1.24-.77-2.22,0-.78.23-1.32,1.17-.84C190.79,107.07,191.34,107.73,190.92,108.48Z"/><path id="Path_24482" data-name="Path 24482" class="cls-18" d="M249.54,54c-.27-.72-.78-1.46.2-2a.82.82,0,0,1,1.14.15v0c.52.61.87,1.19-.22,1.57Z"/><path id="Path_24483" data-name="Path 24483" class="cls-19" d="M177.7,122.58l1,.18c-.87.9-1.52,2-2.79,2.52-.41-1.14,1.27-1.29,1.07-2.3C177.1,122.64,177.42,122.65,177.7,122.58Z"/><path id="Path_24484" data-name="Path 24484" class="cls-20" d="M124.24,234a2,2,0,0,1,2.23-1.35,14.84,14.84,0,0,0-.87,1.49C125,235.46,124.68,234.09,124.24,234Z"/><path id="Path_24485" data-name="Path 24485" class="cls-21" d="M147.91,170.46c-.1,1.27-.52,2.23-2,2.14C146.42,171.77,146.15,170.14,147.91,170.46Z"/><path id="Path_24486" data-name="Path 24486" class="cls-22" d="M190.92,108.47c-.18-.69-.61-1.35-.21-2.1.67,1,1.4,2,.56,3.21C191.15,109.21,191,108.84,190.92,108.47Z"/><path id="Path_24487" data-name="Path 24487" class="cls-23" d="M250.67,53.61a1.64,1.64,0,0,0,.22-1.57l1,.17c-.05.54-.08,1.09-.16,1.63-.05.28,0,.81-.39.7S250.88,53.94,250.67,53.61Z"/><path id="Path_24488" data-name="Path 24488" class="cls-24" d="M185.9,106.79a1.17,1.17,0,0,1,1.09.82c-.48,1.24.19,1.48,1.22,1.4a.66.66,0,0,1,0,.75,1,1,0,0,1-1.12-.19C185.57,109.16,186.62,107.58,185.9,106.79Z"/><path id="Path_24489" data-name="Path 24489" class="cls-25" d="M246.47,58.79v-1c.55,0,1.05-.52,1.64-.19-.72.62-.34,1.1.2,1.57.05.46-.09.68-.58.46Z"/><path id="Path_24490" data-name="Path 24490" class="cls-26" d="M235.5,228l-2,2.3L233,230c.6-.76.8-1.83,1.77-2.3a.51.51,0,0,1,.7.11A.31.31,0,0,1,235.5,228Z"/><path id="Path_24491" data-name="Path 24491" class="cls-12" d="M177.7,122.58l-.74.4c-1.26-.93-2.05.84-3.2.56a2.78,2.78,0,0,1,2.67-1.3Z"/><path id="Path_24492" data-name="Path 24492" class="cls-27" d="M119.05,10.33c.11-.94,0-2,1.45-2.47-.11,1-.86,1.81-.53,2.72Z"/><path id="Path_24493" data-name="Path 24493" class="cls-28" d="M251.17,57.82c.34-.38,1.23-.47.7-1.32.75,0,1.62.15,1.31,1S251.88,57.92,251.17,57.82Z"/><path id="Path_24494" data-name="Path 24494" class="cls-29" d="M240.12,53.84c.2-.6.64-1.1,1.24-1s.07.84.3,1.23c-.07.32-.09.89-.23.92-.68.16-.23-.55-.48-.74A5.06,5.06,0,0,0,240.12,53.84Z"/><path id="Path_24495" data-name="Path 24495" class="cls-30" d="M24.83,140.56c-.73-1.68,1.26-1.2,1.61-2C26.8,139.94,26.18,140.55,24.83,140.56Z"/><path id="Path_24496" data-name="Path 24496" class="cls-31" d="M173.28,115.12l.88.57a2.6,2.6,0,0,1-2.07,1.47Z"/><path id="Path_24497" data-name="Path 24497" class="cls-17" d="M118.13,78c-.2,1.05-1.33.8-1.9,1.33a3,3,0,0,1,1.33-1.94Z"/><path id="Path_24498" data-name="Path 24498" class="cls-1" d="M189.54,107.22a3,3,0,0,0,.77,2.21,1.79,1.79,0,0,1-1.18.91,1.5,1.5,0,0,1-.34-.57c.05-.54-.31-1.1.09-1.61Z"/><path id="Path_24499" data-name="Path 24499" class="cls-32" d="M128.89,3.12a1.57,1.57,0,0,1-1.14.92c-.26.21-.47.16-.62-.15,0-.58.09-1.15.72-1.43Z"/><path id="Path_24500" data-name="Path 24500" class="cls-33" d="M70.34,195.28c.1-.84.19-1.69.29-2.54C71.78,193.73,71.12,194.51,70.34,195.28Z"/><path id="Path_24501" data-name="Path 24501" class="cls-34" d="M233.39,57.2c.05-.54-1.29-.18-.7-1,.4-.55,1-.77,1.36.1C234,56.72,233.85,57.09,233.39,57.2Z"/><path id="Path_24502" data-name="Path 24502" class="cls-35" d="M169.26,121.39l1.05.79c-.55.46-1.24.89-1.77.2S168.93,121.67,169.26,121.39Z"/><path id="Path_24503" data-name="Path 24503" class="cls-36" d="M214.05,234.52c.35-.3.5-1,1.19-.57s1,.65.73,1.4Z"/><path id="Path_24504" data-name="Path 24504" class="cls-32" d="M123.73,237.53c-1-.43-.42-1.06-.23-1.65C124.46,236.31,124.76,236.82,123.73,237.53Z"/><path id="Path_24505" data-name="Path 24505" class="cls-37" d="M131.78,188.15c-.34.9-.63,1.84-1.87,1.81C130.29,189.1,130.71,188.29,131.78,188.15Z"/><path id="Path_24506" data-name="Path 24506" class="cls-38" d="M145.87,172.61a2.17,2.17,0,0,1-1.34,1.87C144.75,173.7,144.79,172.78,145.87,172.61Z"/><path id="Path_24507" data-name="Path 24507" class="cls-39" d="M188.88,108.16l.33,1.69a.7.7,0,0,1-1-.15l0,0V109A.93.93,0,0,1,188.88,108.16Z"/><path id="Path_24508" data-name="Path 24508" class="cls-40" d="M115.66,80.79c-.2.55.64,1.69-.86,1.52l-.21,0C115,81.81,114.87,81,115.66,80.79Z"/><path id="Path_24509" data-name="Path 24509" class="cls-41" d="M253.88,36.11c-.11.56-.09,1.23-.9,1.32l.11-1.44Z"/><path id="Path_24510" data-name="Path 24510" class="cls-42" d="M70.06,201.68c0-.44,0-.89-.44-1.18.36-.44.92-.64,1.16-.12A1.05,1.05,0,0,1,70.06,201.68Z"/><path id="Path_24511" data-name="Path 24511" class="cls-43" d="M53,211.61a.26.26,0,0,1,0,.32c-.52-.16-1,.91-1.53.08C51.78,211.21,52.45,211.7,53,211.61Z"/><path id="Path_24512" data-name="Path 24512" class="cls-44" d="M247.72,59.64l.58-.47c.5.17,1,.53.59,1C248.23,60.9,248,60.05,247.72,59.64Z"/><path id="Path_24513" data-name="Path 24513" class="cls-45" d="M157.88,195.56c-.39.41-.3,1-.87,1a.52.52,0,0,1-.5-.52.41.41,0,0,1,0-.19,2,2,0,0,1,1-.62C157.71,195.18,158,195.37,157.88,195.56Z"/><path id="Path_24514" data-name="Path 24514" class="cls-46" d="M235.5,228l-.76-.23c.2-.57.4-1.18,1.21-.87.19.08.47.28.47.42C236.41,227.83,235.88,227.82,235.5,228Z"/><path id="Path_24515" data-name="Path 24515" class="cls-47" d="M252,46.73c-1.49,1.22-.41,3.08-1.11,4.49-.5.46-.28-1.52-1-.3a7.35,7.35,0,0,1,1.94-6.63C252.45,45.06,251.59,45.94,252,46.73Z"/><path id="Path_24516" data-name="Path 24516" class="cls-48" d="M245.05,49.93a10.28,10.28,0,0,1-.48,4.7C243.71,53.1,243.62,51.77,245.05,49.93Z"/><path id="Path_24517" data-name="Path 24517" class="cls-49" d="M252,46.73c-.94-.74,0-1.63-.18-2.44l1-1.93c.46,0,.75.1.4.61Z"/><path id="Path_24518" data-name="Path 24518" class="cls-50" d="M253.14,43l-.4-.62c0-.61-.24-1.38.61-1.65.61-.19.86.24,1,.76Z"/><path id="Path_24519" data-name="Path 24519" class="cls-51" d="M249.85,50.92l.48-.79.54,1.09c0,.29,0,.57,0,.86l-1.14-.15C249.78,51.59,249.82,51.25,249.85,50.92Z"/><path id="Path_24520" data-name="Path 24520" class="cls-52" d="M67.26,205.55a2.36,2.36,0,0,1-1.67,1.19,1.31,1.31,0,0,1,1.4-1.2,1.14,1.14,0,0,1,.32.07Z"/><path id="Path_24521" data-name="Path 24521" class="cls-53" d="M174.87,119a7.6,7.6,0,0,1,3.65-2.42c-1.93,1-1.53,3.56-3.38,4.58C174.5,120.49,175.18,119.68,174.87,119Z"/><path id="Path_24522" data-name="Path 24522" class="cls-12" d="M174.87,119c.7.64.24,1.43.27,2.16l-.57.47c-.55-.65,0-1.43-.26-2.11Z"/><path id="Path_24523" data-name="Path 24523" class="cls-54" d="M188.2,109.67l1,.18c0,.16,0,.33-.07.5-.88.3-1.46-.18-2-.78Z"/><path id="Path_24524" data-name="Path 24524" class="cls-55" d="M127.13,3.89l.62.15c-.83.46-1.28,1.9-3,.89C125.81,4.73,126,3.41,127.13,3.89Z"/></g></g></g></g></svg>