<svg xmlns="http://www.w3.org/2000/svg" viewBox="0 0 282.89 208.3"><defs><style>.cls-1{fill:#383737;}.cls-2{fill:#b2b2b2;}.cls-3{fill:#f9f9f9;}.cls-4{fill:#323131;}.cls-5{fill:#393838;}.cls-6{fill:#3f3e3e;}.cls-7{fill:#484747;}.cls-8{fill:#5e5d5d;}.cls-9{fill:#737373;}.cls-10{fill:#3b3a3a;}.cls-11{fill:#535353;}.cls-12{fill:#444343;}.cls-13{fill:#616161;}.cls-14{fill:#504f4f;}.cls-15{fill:#f1f1f1;}.cls-16{fill:#4b4a4a;}.cls-17{fill:#595858;}.cls-18{fill:#474747;}.cls-19{fill:#e7e7e7;}.cls-20{fill:#505050;}.cls-21{fill:#6d6c6c;}.cls-22{fill:#5c5b5b;}.cls-23{fill:#525151;}.cls-24{fill:#ededed;}.cls-25{fill:#5f5e5e;}.cls-26{fill:#6d6d6d;}.cls-27{fill:#e1e1e1;}.cls-28{fill:#d2d2d2;}.cls-29{fill:#3d3c3c;}.cls-30{fill:#555454;}.cls-31{fill:#4d4c4c;}.cls-32{fill:#7f7e7e;}.cls-33{fill:#585757;}.cls-34{fill:#4e4d4d;}.cls-35{fill:#d4d4d4;}.cls-36{fill:#aaa;}.cls-37{fill:#575757;}.cls-38{fill:#676767;}.cls-39{fill:#686767;}.cls-40{fill:gray;}.cls-41{fill:#eee;}.cls-42{fill:#898888;}.cls-43{fill:#e9e9e9;}.cls-44{fill:#a5a5a5;}.cls-45{fill:#939292;}.cls-46{fill:#f5f5f5;}.cls-47{fill:#d8d8d8;}.cls-48{fill:#9d9c9c;}.cls-49{fill:#dadada;}.cls-50{fill:#969595;}.cls-51{fill:#5b5a5a;}.cls-52{fill:#7a7a7a;}.cls-53{fill:#707070;}.cls-54{fill:#cacaca;}.cls-55{fill:#605f5f;}.cls-56{fill:#939393;}.cls-57{fill:#fcfcfc;}.cls-58{fill:#a7a6a6;}.cls-59{fill:#d8d7d7;}.cls-60{fill:#d5d5d5;}.cls-61{fill:#807f7f;}.cls-62{fill:#575656;}.cls-63{fill:#5a5959;}.cls-64{fill:#535252;}.cls-65{fill:#5d5d5d;}.cls-66{fill:#7c7c7c;}.cls-67{fill:#b0b0b0;}.cls-68{fill:#878686;}.cls-69{fill:#474646;}.cls-70{fill:#b1b0b0;}.cls-71{fill:#e8e8e8;}.cls-72{fill:#d5d4d4;}.cls-73{fill:#6e6d6d;}.cls-74{fill:#414040;}.cls-75{fill:#bababa;}.cls-76{fill:#bbb;}.cls-77{fill:#d1d1d1;}.cls-78{fill:#f6f6f6;}.cls-79{fill:#6e6e6e;}.cls-80{fill:#bfbfbf;}.cls-81{fill:#919191;}.cls-82{fill:#e0e0e0;}.cls-83{fill:#676666;}.cls-84{fill:#8c8b8b;}.cls-85{fill:#e3e3e3;}.cls-86{fill:#a8a8a8;}.cls-87{fill:#858484;}.cls-88{fill:#aaa9a9;}.cls-89{fill:#c9c9c9;}.cls-90{fill:#f8f8f8;}.cls-91{fill:#636262;}.cls-92{fill:#706f6f;}.cls-93{fill:#d9d9d9;}.cls-94{fill:#cecece;}.cls-95{fill:#dbdbdb;}.cls-96{fill:#666565;}.cls-97{fill:#b7b7b7;}.cls-98{fill:#7b7a7a;}.cls-99{fill:#818080;}.cls-100{fill:#8a8989;}.cls-101{fill:#cbcbcb;}.cls-102{fill:#c4c4c4;}.cls-103{fill:#838282;}.cls-104{fill:#e2e2e2;}.cls-105{fill:#b8b7b7;}.cls-106{fill:#d3d3d3;}.cls-107{fill:#6c6c6c;}.cls-108{fill:#616060;}.cls-109{fill:#f3f3f3;}.cls-110{fill:#c5c5c5;}.cls-111{fill:#969696;}.cls-112{fill:#a4a4a4;}.cls-113{fill:#c2c1c1;}.cls-114{fill:#888787;}.cls-115{fill:#b8b8b8;}.cls-116{fill:#656565;}.cls-117{fill:#bdbdbd;}.cls-118{fill:#fbfbfb;}.cls-119{fill:#ebebeb;}.cls-120{fill:#666;}.cls-121{fill:#9c9b9b;}.cls-122{fill:#787777;}.cls-123{fill:#efefef;}.cls-124{fill:#b9b9b9;}.cls-125{fill:#f0f0f0;}</style></defs><g id="圖層_2" data-name="圖層 2"><g id="圖層_1-2" data-name="圖層 1"><g id="_4r9jlS" data-name=" 4r9jlS"><g id="Group_128" data-name="Group 128"><path id="Path_29451" data-name="Path 29451" class="cls-1" d="M282.14,64.83a.67.67,0,0,0,.1-.23c.57,0,.31.37.35.63,0,.66-.3,1.32,0,2l-.34,3.47c-.65.39-.2,1.64-1.31,1.67-.32.1-.5-.09-.67-.31-.1-.66.06-1.39-.47-1.94a1.29,1.29,0,0,1,0-.8c.26-.7.67-1.34,1-2,.13-.24.28-.47.42-.7C281.51,66,281.54,65.27,282.14,64.83Z"/><path id="Path_29452" data-name="Path 29452" class="cls-2" d="M282.52,65.2c-.08-.21,0-.5-.27-.61.08-1.22.08-1.22.64-.84-.05.48-.09,1-.14,1.45C282.67,65.31,282.6,65.3,282.52,65.2Z"/><path id="Path_29453" data-name="Path 29453" class="cls-3" d="M282.52,65.2a.18.18,0,0,0,.23,0l-.2,2C282,66.56,282.5,65.88,282.52,65.2Z"/><path id="Path_29454" data-name="Path 29454" class="cls-4" d="M236.62,31.39A46,46,0,0,1,239,22.26c1.21-3.68,2-7.51,3.71-11,1-2.12,1.84-4.44,3.71-6.08a.72.72,0,0,0,1,.09c.34-.08.71,1,1,0,.1-.32.19-.75.62-.64s.33.52.36.86-.36.79.32.91.71-.29.83-.74a3.08,3.08,0,0,1,.4-.91,1.82,1.82,0,0,1,1.6-1c.83.07.76.83.89,1.4.07.29-.16.7.39.78a.65.65,0,0,0,.7-.58h0c.2-1,.64-.47,1.14-.3a3.7,3.7,0,0,1,1.88,1.67,21.58,21.58,0,0,1,2,4.82,5.82,5.82,0,0,1-.25,3.12c-.89,4.42-2.69,8.55-4.29,12.75a59.58,59.58,0,0,0-2.31,7.07,7.5,7.5,0,0,1-2.94,4.07c-.59-.82-.41.29-.67.28-.5.31-1.33-.13-1.58.71-.76-.05-.15-.65-.37-.92,0-.17-.07-.35-.11-.52-.23-.41.22-1.5-1-1-.23,1-1.28,1.52-1.5,2.56-.06.3-.47.36-.86.31a1.4,1.4,0,0,0-1.48.44,1.22,1.22,0,0,1-1.72.08l-.06-.06a6.72,6.72,0,0,0-1.33-.86,1.78,1.78,0,0,1-1-2.14c.16-.84.08-.76-.64-1.22-.42-.27-.35-.94-.37-1.46a3.28,3.28,0,0,1-.25-1.8c0-.29.16-.56.18-.85A.76.76,0,0,0,236.62,31.39Z"/><path id="Path_29455" data-name="Path 29455" class="cls-4" d="M241.76,139.9a12.08,12.08,0,0,1,1.91-2.47,2.19,2.19,0,0,1,2.16-.66c.35-.09.5,0,.4.39l1.06-.54c.57-.37.79-1.08,1.34-1.46a2.19,2.19,0,0,1,.7-.62c.4.29.94.24,1.32.67s.74.22,1.3,0c2.86-1,4.1-3.71,6.14-5.55a5,5,0,0,1,2.56-1c.5-.11.62.14.41.69a8.18,8.18,0,0,0-.27,1.85c.17,1-.76,1.47-1,2.28,1,0,1.05-1.45,2.11-1.31.32-.35.48-.94,1.14-.77s1.55-.39,2.06.5c-.13.64.34,1.23.14,1.88,0,.32-.22.76-.08,1,1,1.37.2,2.48-.46,3.57-1.31,2.16-2.61,4.33-4.06,6.4-2,2.86-4.12,5.63-6.19,8.44a3,3,0,0,0-2.28,1.54c-.47.75-1.43.76-2,1.33l-1.92,1.82a2.11,2.11,0,0,0-1,1.07c-1.38,1-2.34,2.51-4,3.16-.77.3-1.32.55-1.89-.26-.41-.59-.46-.06-.56.23a7.77,7.77,0,0,1-.93.79,2.79,2.79,0,0,1-1.95.07c-.27-.26-.48-.61-.93-.57-1-.07-1.35-.57-.95-1.54.12-.29.28-.69,0-.92s-.65.07-.82.33a.75.75,0,0,1-1,.33l-.1-.06c-.49-.23-.43-.68-.34-1.13,0-.19.47-.44.11-.55-1.89-.57-.51-1.58-.36-2.42.6-.78.3-1.73.5-2.59.39-.47.5-1.13,1-1.52.11-.08.26-.27.24-.34-.94-2.37,1.14-3.52,2.06-5.13l.61-1.11c.23-.57.75-.95,1-1.5C240,142.88,240.67,141.24,241.76,139.9Z"/><path id="Path_29456" data-name="Path 29456" class="cls-4" d="M189.31,35.83c.32-.51.57-1.65,1.15-1.22s1.68.32,2,1.14c.27.6.44,1,1.25.75s1.56-.2,1.76-1.22c.08-.45-.09-1.32.77-1,.57.2,1.32.55,1,1.57-.17.5-.8,1.21.14,1.72,1.15.62,1.34.56,2-.86a9.11,9.11,0,0,1,2.15,5.1,8.15,8.15,0,0,1-.85,5.17c-2.5,4.51-4.06,9.46-6.2,14.15-.52,1.13-.81,2.64-2.6,2.64-.21,0-.55.45-.61.73-.24,1.13-1.15,1.63-2,2.18-1.63,1.06-2.22.92-3.17-.66-.16-.2-.17-.62-.6-.38-.63.21-.71.82-1,1.29-.15.24.08.84-.57.68-.39-.1-1-.36-.78-.65.61-1-.52-2,.08-3-.06-.5.24-.94.23-1.43,0-.12,0-.23,0-.34a.46.46,0,0,0,0-.23c-.15,0-.18.17-.25.28-.23.3-.12.68-.24,1-.4.05,0,.5-.28.59a1.15,1.15,0,0,0-.55.6c-.46,1.09-.89,1-1.72.18-1.08-1-1.8-1.9-.87-3.34a2.33,2.33,0,0,0-.12-2.09c-.44,0-.25.45-.41.64s-.36.55-.68.42a.86.86,0,0,1-.38-.58,7.15,7.15,0,0,1,.23-4.72,17.48,17.48,0,0,1,1.37-2.82c1.7-2.27,1.32-5.16,2.45-7.58a19.75,19.75,0,0,0,1.2-3.33c.2-.76,1-.8,1.35-1.38a26.17,26.17,0,0,1,3.51-3.55C188.41,36,189,36.15,189.31,35.83Z"/><path id="Path_29457" data-name="Path 29457" class="cls-4" d="M280,69.27l-.1,1a9.91,9.91,0,0,1-.14,2.37,17.58,17.58,0,0,1-.38,2.81c0,.22-.05.44-.1.65-.12.45-.64.87-.1,1.38-1.83,2.67-2.93,5.79-5.17,8.21a5.7,5.7,0,0,1-3.39,2,25.44,25.44,0,0,0-2.7.69c-.2,0-.65.2-.58-.31,0-.2-.57-.66.2-.6-.28-.35-.41-.81-.87-1a1,1,0,0,1,.05-.92c.19,0-.12,0,.05-.12s.24-.23.1-.1c-.74.72-1.66,1.3-1.9,2.41a2.16,2.16,0,0,1-2.78-1.28,2.37,2.37,0,0,1-.11-.46c-.16-1.22-1-2.1-1.43-3.12-1.13-2.6-1.21-2.48-.91-6,.17-2.1.39-4.06,1.62-5.81.25-.48.3.62.56.07a18.45,18.45,0,0,0,.78-1.76,1.85,1.85,0,0,1,.6-.78c1.34-2.79,3-5.47,3.7-8.49.51-2.12,2.14-3.06,3.67-4.16.19-.14.38-.26.56-.41.47-.4,1-1,1.59-.78s.1,1.06.34,1.56c.83.09,1-.62,1.4-1.08a2.92,2.92,0,0,1,3.13-.63.46.46,0,0,1,.15.37c-.26,1.92,1.4,2.1,2.51,2.66,1.67.84,1.95,1.31,1.29,3.06a13.59,13.59,0,0,0-.55,4.11,2.67,2.67,0,0,1,.08,1.63,4.19,4.19,0,0,1-.39.83A19.93,19.93,0,0,0,280,69.27Z"/><path id="Path_29458" data-name="Path 29458" class="cls-4" d="M217.38,75.36c1.33,1.27.82,2.86.53,4.24-.52,2.5-1.36,4.92-2.06,7.38a3.66,3.66,0,0,0,0,.57,17.1,17.1,0,0,0-.91,1.47.29.29,0,0,0-.09.23c-.15.18-.07.46-.27.62-1,2.53-1.66,5.17-2.86,7.62a6,6,0,0,1-.6,1.12c-.48.58-.79,1.74-1.77.22-.68-1-1.56-.86-2.14.29a2.73,2.73,0,0,1-2.36,1.79c-.88,0-1.2.71-1.7,1.2,0,.67-.56.88-.91,1.27-.88.48-.88-.13-.95-.78,0,1.13-.92,1.3-1.62,1.71-.52.41-1.18.59-1.73,1a1.49,1.49,0,0,1-.36.17.84.84,0,0,1-1-.33c-.06-.09,0-.63-.3-.1-.39.23-.75.64-1.26.32s-.16-.65-.1-1c.17-.62-.1-1.24,0-1.86.13-.9-1.27-.22-1.15-1.11,0-.54-.46-.52-.79-.68s-.94-.35-.77-1h0a7.37,7.37,0,0,1,1.57-1.43c.69-.46.82-1.29,1.24-1.93a2.06,2.06,0,0,1,.64-1.16A4.1,4.1,0,0,0,197,94c.88-.82.68-2,1.13-3,1.07-2.21,1.68-4.58,2.64-6.82a18.86,18.86,0,0,1,2.5-5.07c.74-.9.85-2.37,1.13-3.61.12-.55.53-.77.85-1.11.15-.16.51-.35.53,0,.06.66.62.89.88.64.48-.47,1.26-.8,1.3-1.55,0-.32.29-.48.22-.87a.92.92,0,0,1,.78-1h.17c.77.1.23.79.24,1.18A3.08,3.08,0,0,1,209,73.9c-.12.26-.61.53,0,.74.3.1.68.18.82-.3a7.61,7.61,0,0,0,.31-.79c.17-1,.86-1.28,1.64-.9s.84,0,1-.58-.27-1.28.41-1.32.3,1,.73,1.39c.53.22.25-.74.8-.53a1,1,0,0,1,.09.34c0,1.36,0,1.34,1.1,2.1.22.15.3.49.44.74a.86.86,0,0,1,.06.63c0,.17,0,.19.07,0A.83.83,0,0,1,217.38,75.36Z"/><path id="Path_29459" data-name="Path 29459" class="cls-4" d="M2.72,168.6c.13-.26.26-.52.38-.78s.5-.4.18-.73-.6-.24-.87,0c-.51.53-.85.16-1.2-.22C3,165.7,3.29,165,2.88,163.16c-.57.16-.64.85-1.1,1.07s-.56,1-.94.51-1.28-1-.6-1.82a2,2,0,0,0,.47-2.29c-.42-1.14.5-2.43,1.24-3.39a29.9,29.9,0,0,0,4.92-9.61c.17-.58.34-1.34,1.39-1,.82.27,1.34-.36,1.45-1.11a1.43,1.43,0,0,1,1.18-1.25,30.45,30.45,0,0,0,3-.8c1.41-.56,2.83,1,2.5,2.47-.17.35-.05.46.31.36.57.06,1.18.43,1.52-.48.14-.36.76-.89,1.11-.24.21.38,1.28.72.35,1.52a1.26,1.26,0,0,0-.3,1.42c.27.42.72.48,1.27.22s.54.3.7.66c1,2.18.36,4.4-.18,6.46a44,44,0,0,1-3.77,10c-.54,1-1.19,2.14-2.05,2.45a3.75,3.75,0,0,0-2.09,1.35c-.13.18-.46,0-.49-.1-.19-.78-.87-.45-1.08-.31-.86.54-2.19.23-2.61,1.63-.19.62-2.46.46-2.8-.16s-.32-.94.41-1.23a.86.86,0,0,0,.64-1.05.82.82,0,0,0-.16-.34c-.48-.87-1-.22-1.29,0-.85.68-2,.17-2.82.88C2.74,169,2.59,168.93,2.72,168.6Z"/><path id="Path_29460" data-name="Path 29460" class="cls-4" d="M83.64,63c0-3.4,2.1-6.13,2.77-9.3A6,6,0,0,1,88.5,50c.66-.53.17-1.65,1-2.16.38-.24.69-1.13,1.1,0,.19.49.71.52.88.09.36-1,.58-1.76,1.79-.71.21.18,1.15,0,1.67-.52a1.33,1.33,0,0,1,1.85-.35l.14.11c.53.42,1.42,1.16,1.57-.41,0-.24.24-.26.44-.24s.46.19.42.48c-.08.71.3.6.8.55,1.48-.14,1.78.19,1.59,1.7-.08.66-.25,1.3-.38,2,.85-.11.33-1,.76-1.31,1.31,1.21,1.48,2.2.55,3.91-.37.7-.79,1.22-.07,2,.57.64-.1,1.42-.31,2a86.79,86.79,0,0,1-4.73,10.94c-.54,1.07-2.61,1.8-3.56,1.26-.51-.28.06-1-.45-1.38-1.27.52-1.5,2.53-3.29,2.33-.39-.13-.45-.43-.4-.79a1.3,1.3,0,0,0-.3-1.51c-.8-.54-1,.38-1.35.66-.54.42-.83.68-1.27-.12-.66-1.23-2-2.1-2.07-3.66C84.46,64.22,83.79,63.76,83.64,63Z"/><path id="Path_29461" data-name="Path 29461" class="cls-4" d="M86.06,206.14a1.46,1.46,0,0,1-1.48,1.1c-.85,0-.8-.82-1.1-1.3-.92-1.44-.06-3-.25-4.5-.18-.37.51-.92-.24-1.18.68-3.26,1-6.6,2.43-9.69A28.77,28.77,0,0,0,86.78,186c.19-.73.47-1,1.18-.52.23-.11.35,0,.46.2s0,.28.12.37a1.5,1.5,0,0,0,.11-.36,3.56,3.56,0,0,1,.58-1.23.36.36,0,0,1,.48.15.42.42,0,0,1,0,.15c.07,1,.43.07.64.11a3.66,3.66,0,0,0,.23-2.48c-.2-.64-.28-1.8.56-1.81s1.78-2.21,2.71-.13c1.58-.62,1.94,1,2.91,1.56.4.22.82.38,1,.89s.37.63.76,0c.56-.83.81-.28,1.14.33.51.94-.18,1.65-.28,2.47.2.4,0,.79,0,1.18a5.06,5.06,0,0,0,0,.77c.23.4-.14,1,.41,1.3a.47.47,0,0,1,.16.63h0c-.88,1.81-.62,4-1.62,5.71A51,51,0,0,0,95,202.66c-.3.79-.66,1.55-1,2.35-.36-.24-.21-.56-.31-.8,0-.44.08-.87.07-1.3a6.34,6.34,0,0,1-.17,1.29A2.39,2.39,0,0,1,91.93,206a1.3,1.3,0,0,0-1,1.1c0,1.4-.68,1.34-1.63.81-.12-.06-.35.09-.53.14-.74-.42-.88-1.34-1.6-1.81C86.74,206,86.47,205.79,86.06,206.14Z"/><path id="Path_29462" data-name="Path 29462" class="cls-4" d="M183,151.43c-.07,1.14-.92,1.7-1.71,2.3a.46.46,0,0,1-.65,0c-.85-1.27-1.22-.34-1.61.35a40,40,0,0,1-2.55,4.5c-.12.15-.17.34-.4.28-.55-.54.53-1-.06-1.7-.27.83-1.16.52-1.63,1a.35.35,0,0,1-.51,0,.28.28,0,0,1-.08-.11,7.15,7.15,0,0,0-1.1-1.1c0-.33-.27-.65-.09-1l.42-1.34c-.52-.68-1-.57-1.55,0-.59.21-.52,1.27-1.4,1.1,0-1.14-.25-2.29.28-3.41.18-.37.25-1-.5-1.06-.24-.08-.54,0-.72-.28-.32-.46-.11-.92,0-1.39.76-.73.67-1.71.8-2.64a4.51,4.51,0,0,1,.21-1c.33-.45.14-1,.43-1.51,1.25-2.47,1.77-5.3,3.41-7.57a16.78,16.78,0,0,1,3.11-3,2,2,0,0,1,2.66,0,.81.81,0,0,1,.95.08.34.34,0,0,0,.26.08c.42-.14.49.21.63.45a.76.76,0,0,0,.48.61,1.54,1.54,0,0,1,1.22,1.21,1.73,1.73,0,0,0,.08.27c.14.35.36.55.75.36l.6-1.56c1.82.79,1.84.56.7,3.45-.38.27-.35.58-.06.9.13.26-.53,1.08.44.75,1.48-.5,2.33.16,2.24,1.81a6.61,6.61,0,0,1-.81,2.41c-.9,1.92-2.33,3.63-2.39,5.92a1.14,1.14,0,0,1-1.21.92c-.34-.29,0-.73-.24-1A.91.91,0,0,1,183,151.43Z"/><path id="Path_29463" data-name="Path 29463" class="cls-4" d="M102.06,111.33l.07-.58c.74-.44-.15-1.25.4-1.72a20,20,0,0,0,1.86-4.81c.19-.84.89-1.23,1.29-1.86a7.1,7.1,0,0,0,.81-1.16c.25-.66.16-1.56.91-1.84,1-.37,2-1.17,3.16-.77,1.32.48,2.74.52,4,1.06a1.86,1.86,0,0,1,.33,1.21c0,.56.36.43.69.34.08,0,.17.13.25.13,1.59-.12,1.93.08,2,1.84,0,1.92,1,3.71.54,5.71s-.91,3.86-3.29,4.43c-1,.24-1.26,1.33-1.79,2.07-.41.58-.9,1.16-1.56,1.18-.81,0-1.06.38-1,1.2-.5-.29-.26-1.42-1.2-.77-.36.25-.69-.1-.56-.6.28-.41.26-.76-.21-1a.76.76,0,0,1-.17-.32c.24-.48,0-.55-.4-.48-.92.66-2-.23-2.95.34a1.41,1.41,0,0,1-.87-.4l-.47-1C103.49,112.62,102.09,112.52,102.06,111.33Z"/><path id="Path_29464" data-name="Path 29464" class="cls-4" d="M62.34,128.22c0-.6.56-1.07.43-1.71-.22,0,.31-.61-.27-.36-.37.12-.62-.34-1.13-.05-.94.53-1.48.06-1.4-1a8.37,8.37,0,0,1,1.71-2.53,1.34,1.34,0,0,0,.26-.8c0-.09.15-.24-.09-.27a2,2,0,0,1-.42.06.19.19,0,0,1-.15-.21c.38-2.71,2.31-4.77,3.13-7.33.35-1.09,1.86-1,2.87-1.28.43-.13.16.56.38.78s0,.64.38.67.51-.27.63-.52c.55-1.16,1.11-1.28,2.12-.33.59.55,1.69.92,1.94-.58.06-.38.52-.5.51-.22,0,1.19,1.45,1,1.59,2,.1.63.22,1.27.26,1.91.29.55-.56,1.44.5,1.78.47-.2,1-.68,1,.43a12.45,12.45,0,0,1-1.51,6.44c-1,1.58-1.58,3.8-3.81,4.42-.55.19-.94-.23-1.4-.37-.28,0-.28,0-.14.7-.26.39-.51.78-.78,1.16s-.43.82-.82.65.06-.66,0-.84c-.1-.72-1.06-.68-1.46-1.28-.11-.17-.42.33-.51.65s-.28.92-.85.64-1.2-.41-.68-1.23c.16-.25.27-.56-.05-.76a.47.47,0,0,0-.66.09.35.35,0,0,0-.07.12c-.37.86-1,.43-1.56.33C62.56,129,62.27,128.59,62.34,128.22Z"/><path id="Path_29465" data-name="Path 29465" class="cls-4" d="M162.52,16.55l-.51-.29c-.8,0-.24-.72-.51-1a1.22,1.22,0,0,1,0-.27c.22-.86-1-.58-1-1.28.15-1.8,1.27-3.27,1.7-5a14.84,14.84,0,0,0,.39-2.66c-.2-.52.1-.75.53-.89h.2c.83-.67.7-1.67.74-2.54.08-1.83,1.82-1.7,2.77-2.45.68-.54,1.26.32,1.73.86.94,1.09,1.74,1.08,2.65,0,.29-.35.4-1,1.05-.47.15.35-.15.67,0,1,.17.12,0-.07,0-.06a.51.51,0,0,1,.32-.52c.34,1.17-.14,2.47.65,3.56.33-.1.3-.38.3-.67s-.22-1,.43-1a1,1,0,0,1,.89,1,15,15,0,0,1,0,3.67c.11.43.43.44.78.37a14.59,14.59,0,0,1-3.08,8.75c-.25.33-.61.24-.94.23s-.89-.09-1.08.45c-.22.2-.52.46-.76.36-1-.41-1.22.38-1.6,1-.21.41-.55.74-.67,0-.15-.87-.5-.19-.75-.2a2.16,2.16,0,0,1-2.36-.37c-.34-.35-.87.13-1.2-.26h0C163,17.39,163.43,16.6,162.52,16.55Z"/><path id="Path_29466" data-name="Path 29466" class="cls-4" d="M155.43,50.46c.21.23-.14,1.22.77.5a2.13,2.13,0,0,1,3,.39,2.27,2.27,0,0,1,.36.71,3.31,3.31,0,0,1,.24,1.25,2.18,2.18,0,0,0,1,2.4c.55.33.12,1.23,0,1.86-.24.87-.52,1.73-.78,2.6-.35.07-.4-.2-.5-.42a5.28,5.28,0,0,1-.16-.66c-.06-.18-.16-.19-.3-.05a4.29,4.29,0,0,0-.9,1.47c-.68,1.14-.08,2.45-.5,3.63a.94.94,0,0,1-.6.52,1.21,1.21,0,0,1-1,0,.48.48,0,0,1-.2.07.65.65,0,0,1-.53-.48c0-.12,0-.29-.14-.37s-.14.07-.18.18a7.5,7.5,0,0,0-.15.93.36.36,0,0,1,0,.27,2.69,2.69,0,0,0-1.53,1c-.88,1.28-1.48,1.34-2.8.41-.76-.53-1.59-1-2.38-1.43-.14-.58,0-1.37-1-1.37a5.45,5.45,0,0,1,.54-3.74c.18-.29.21-.93-.15-1-1.32-.24-.91-1.15-.7-1.82.5-1.62.54-3.4,1.63-4.86.31-.41.6-.83,1.07-.77s.37.69.38,1.09.25.52.06.83a.35.35,0,0,0,0,.51.37.37,0,0,0,.28.1c.27,0,.71,0,.7-.51a3.26,3.26,0,0,1,.57-1.89c.23-.38.11-.9.52-1.2s.7-.27,1-.44c.1-.48,0-1.12.92-1a11.28,11.28,0,0,0-.44,2.77c.14.39.43.41.58.08.31-.67.92-1.19.93-2h0C155.37,50,155.55,50.09,155.43,50.46Z"/><path id="Path_29467" data-name="Path 29467" class="cls-4" d="M233.55,101.35a3,3,0,0,1-.14-1.49,1.27,1.27,0,0,1,.41-1.41c.17-.55.3-1.1.5-1.64.46-1.24,2.91-1.93,4-1.12,1.38,1,2.45.88,3.37-.5.57.25.12.78.31,1.14a10.74,10.74,0,0,1,.13,1.88c-.1.54.22.2.39.18a.33.33,0,0,1,.33.09l.06.55c.22.43-.2,1.27.77,1.22.24.47,0,.92,0,1.37-.34.86.69,1.42.49,2.25a17.71,17.71,0,0,0-1.87,4.63c-.28.82-.53,1.26-1.5,1-.78-.22-1.32.25-1.7.92-.23.4-.27,1-.86,1.09a1.9,1.9,0,0,1-1.86-.17c-.24-.13-.06-.64-.49-.59-2,.21-2,.22-2-2,0-.1-.13-.2-.22-.29a1.26,1.26,0,0,0-.2.14c-.3.13-.41-.1-.54-.28-.56-.12-.68-.67-1-1-.24-.18-.19-.36,0-.55.15-1,1.12-1.71.92-2.82C233.05,103.08,234.35,102.54,233.55,101.35Z"/><path id="Path_29468" data-name="Path 29468" class="cls-5" d="M170.22,146.92c.14,1.09-.52,2-.84,2.9a2.58,2.58,0,0,0-1.2,1.56c.32-.38.62-.64,1.1-.4l.54.27c-.66.29-.75,1-1,1.51a4.48,4.48,0,0,1-1.8,1.57c-.4-.13-.94.08-1.18-.47a51.83,51.83,0,0,1,3.95-8.1.26.26,0,0,1,.33,0C170.38,146.1,169.89,146.56,170.22,146.92Z"/><path id="Path_29469" data-name="Path 29469" class="cls-6" d="M157.6,64.14c-.28-1.29-.6-2.59.33-3.77a1.22,1.22,0,0,1,1.42-.36c.46.54,0,1.07,0,1.61-.22.75-.84,1.34-.87,2.2C158.43,64.28,158,64.37,157.6,64.14Z"/><path id="Path_29470" data-name="Path 29470" class="cls-7" d="M250.17,156a30.22,30.22,0,0,0,2.9-2.87,1.49,1.49,0,0,1,1.42,0c-.56.75-1.09,1.52-1.68,2.25-.34.43-.72,1-1.37.38S250.72,156.6,250.17,156Z"/><path id="Path_29471" data-name="Path 29471" class="cls-8" d="M195.18,104.36c-.08.25-.44.51-.12.74.51.35.83-.25,1.26-.36.14.21.17.4-.1.54s-.55.38-.81.58c-.42.33-.74-.08-1-.21-.51-.2.09-.39.15-.58.2-.64-.37-1.12,0-1.87-.92.5-1.45,1.6-2.43.83-.59-.46-.22-.9.3-1.21.43.61.73.06,1-.13,1.26-.78,1.32-.77,1.56.69C195,103.71,195.1,104,195.18,104.36Z"/><path id="Path_29472" data-name="Path 29472" class="cls-9" d="M202,103.24l1.1-1.13c.27,0,.68,0,.64.37-.15,1.19-2.94,3.82-4.19,4,0,0-.06-.07-.2-.2L201,105C201,104.24,201.6,103.8,202,103.24Z"/><path id="Path_29473" data-name="Path 29473" class="cls-10" d="M195.18,104.36c-.1-.1-.28-.18-.3-.3-.17-1.1-.16-2.47-1.65-.74-.21.25-.85.16-.85-.5a.22.22,0,0,1,.09-.21c.55-.41.61-1.39,1.56-1.33.29,1,.65-.2,1.09.13A10.42,10.42,0,0,1,195.18,104.36Z"/><path id="Path_29474" data-name="Path 29474" class="cls-7" d="M99,186.85a1.94,1.94,0,0,1,.42-1.16c.63-.28,1.1-.25,1.1.6a4,4,0,0,1-.79,2.65c-.19.12-.39.36-.56.34-.33,0-.28-.3-.09-.5.4-.43-.43-.68-.15-1.09a.52.52,0,0,0,.19-.7A.41.41,0,0,0,99,186.85Z"/><path id="Path_29475" data-name="Path 29475" class="cls-11" d="M261.94,132.19c-.6.59-1.21,1.17-1.8,1.78a.53.53,0,0,1-.74.12.5.5,0,0,1-.12-.13c-.28-.29,0-.5.17-.72.46-.67.9-1.34,1.35-2C261.09,131.64,261.86,131.5,261.94,132.19Z"/><path id="Path_29476" data-name="Path 29476" class="cls-12" d="M202,103.24a4,4,0,0,1-1,1.75l-.8-.13c-.49,0-.71-.19-.56-.69l0-.13c.93-.35,1.12-1.47,1.87-1.89C202.17,102.33,200.94,103.25,202,103.24Z"/><path id="Path_29477" data-name="Path 29477" class="cls-13" d="M241.76,139.9a14.11,14.11,0,0,1-2.61,4.46c-.4.2-.45,0-.43-.35C239.71,142.62,240.19,140.86,241.76,139.9Z"/><path id="Path_29478" data-name="Path 29478" class="cls-7" d="M172.75,156.84c.47.52.67-.4,1.1-.19.41.42-.41,1.27.49,1.55a.28.28,0,0,1-.3.28l-.1,0a1.84,1.84,0,0,0-2.49.65l1.05-2.25a.17.17,0,0,1,.25,0Z"/><path id="Path_29479" data-name="Path 29479" class="cls-14" d="M171.28,154.39c.74-1.28.74-1.28,1.7.24-.47-.21-.77-.15-1,.4a9.37,9.37,0,0,1-.9,1.44c-.31,0-.52.57-.91.18A3.68,3.68,0,0,1,171.28,154.39Z"/><path id="Path_29480" data-name="Path 29480" class="cls-15" d="M62,122.64a18.65,18.65,0,0,1-2,2.42,1.56,1.56,0,0,1-.46-1c.47-.33.56-.93,1-1.3.2-.3.32-.67.71-.8C61.5,122.17,62.12,122,62,122.64Z"/><path id="Path_29481" data-name="Path 29481" class="cls-16" d="M88.28,185.77l-.33-.34c.3-.93.6-1.85.94-2.92.42.65-.14,1.25.41,1.64.11,0,.15.11.12.17s-.08.09-.11.09a2.17,2.17,0,0,1-.48,1.49.38.38,0,0,1-.53-.1Z"/><path id="Path_29482" data-name="Path 29482" class="cls-17" d="M183.24,136.26c-.41-.38-.72-.89-1.31-1a.64.64,0,0,1,.07-.87c.25-.33.47-.84.94-.73s.33.72.39,1.09A6.64,6.64,0,0,1,183.24,136.26Z"/><path id="Path_29483" data-name="Path 29483" class="cls-18" d="M262.64,67.61a12.44,12.44,0,0,1,2-3.58c-.36,1.31-.53,2.7-1.7,3.64C262.8,67.79,262.7,67.77,262.64,67.61Z"/><path id="Path_29484" data-name="Path 29484" class="cls-14" d="M234,153.8c0,.09,0,.23,0,.27,1.06,1,.19,1.66-.49,2.32C232.58,155.32,233.1,154.52,234,153.8Z"/><path id="Path_29485" data-name="Path 29485" class="cls-19" d="M279.12,75.62l.31-3.09c.32-.14.59-.57,1-.17.7.82-.05,1.42-.33,2.09a.39.39,0,0,1,0,.28C279.64,74.9,279.74,75.65,279.12,75.62Z"/><path id="Path_29486" data-name="Path 29486" class="cls-20" d="M115.6,101.2c-.09.37-.18.82-.65.73s-.46-.52-.44-.91,0-.92.08-1.38C115.27,99.94,116.12,100.12,115.6,101.2Z"/><path id="Path_29487" data-name="Path 29487" class="cls-6" d="M75.59,118.2c0,.22,0,.51-.28.6s-.28-.15-.35-.34a5,5,0,0,1-.12-2c-.13-.54-.13-1,.45-1.34.77.15.39.66.34,1.08C75.56,116.88,75,117.53,75.59,118.2Z"/><path id="Path_29488" data-name="Path 29488" class="cls-21" d="M86.06,206.14a1.66,1.66,0,0,1,2.19.86c0,.07,0,.14.07.21a8.72,8.72,0,0,0,.42.87c-.95.44-.44-.81-.8-.81-.83-.17-.06.8-.71.65-.37-.1-.36-.48-.35-.71C86.9,206.59,87,206,86.06,206.14Z"/><path id="Path_29489" data-name="Path 29489" class="cls-22" d="M153.26,66.21a1.35,1.35,0,0,1,1.52-1c-.14.48-.26,1-.42,1.44s.11.92-.43.9-.4-.54-.43-.91A1.24,1.24,0,0,0,153.26,66.21Z"/><path id="Path_29490" data-name="Path 29490" class="cls-23" d="M233.83,98.45a2.23,2.23,0,0,1-.42,1.41l-.28,0a.66.66,0,0,1-.82-.15,5.07,5.07,0,0,1,.71-2.14C233.43,97.81,233.33,98.42,233.83,98.45Z"/><path id="Path_29491" data-name="Path 29491" class="cls-24" d="M233.55,101.35c1.11,1.17,1,1.38-.79,2.58-.18,0-.5-.16-.4-.26C233.06,103,233.08,102.08,233.55,101.35Z"/><path id="Path_29492" data-name="Path 29492" class="cls-16" d="M243.22,101.8c-.17-.57.29-1,.38-1.48a1.52,1.52,0,0,1,.35-.89c.68,0,.91.24.7.85a15.3,15.3,0,0,1-.67,1.42C243.77,102.09,243.49,101.91,243.22,101.8Z"/><path id="Path_29493" data-name="Path 29493" class="cls-9" d="M199.61,104.17a1.08,1.08,0,0,0,.56.69c-.26.25-.48.56-.9.49-.42.19-.64.85-1.27.54a.82.82,0,0,1-.26-.78C198.15,104.38,199,104.42,199.61,104.17Z"/><path id="Path_29494" data-name="Path 29494" class="cls-25" d="M194,101.29c-.65.28-.8,1.17-1.56,1.32,0-.68.65-1,.92-1.51-1.42-.58-1.65-.84-1.24-1.44C192.39,100.65,193.81,100.28,194,101.29Z"/><path id="Path_29495" data-name="Path 29495" class="cls-26" d="M168.2,18.62c0-1.22.42-1.54,1.42-1.21a2.26,2.26,0,0,0,.94-.11C169.92,18,169,18.1,168.2,18.62Z"/><path id="Path_29496" data-name="Path 29496" class="cls-15" d="M280.89,66.47l.23-1.72c.31.46.72-.39,1,.08a8.25,8.25,0,0,1-.69,2C281.1,67,281,66.74,280.89,66.47Z"/><path id="Path_29497" data-name="Path 29497" class="cls-27" d="M147.11,63.82c.35-.35.88-.72,1.22-.31s-.17,1.11-.26,1.68A1.3,1.3,0,0,1,147.11,63.82Z"/><path id="Path_29498" data-name="Path 29498" class="cls-28" d="M243.22,101.8l.76-.1c.27.71,1,1.39.11,2.16A5.7,5.7,0,0,1,243.22,101.8Z"/><path id="Path_29499" data-name="Path 29499" class="cls-16" d="M102.06,111.33c.36.93,1.92.91,1.78,2.23C103,113,101.68,112.85,102.06,111.33Z"/><path id="Path_29500" data-name="Path 29500" class="cls-29" d="M170.48,156.67c.25.06.26-.6.62-.2A6.33,6.33,0,0,1,170,159c-.57,0-.41-.33-.25-.64s.06-.55.1-.83C169.65,156.89,170.21,156.9,170.48,156.67Z"/><path id="Path_29501" data-name="Path 29501" class="cls-30" d="M164.5,17.84a3.93,3.93,0,0,0,2.28.62c-1,.68-1.91,1-2.66-.3A.41.41,0,0,1,164.5,17.84Z"/><path id="Path_29502" data-name="Path 29502" class="cls-31" d="M155.06,50c.31,1.1-.54,1.71-1.05,2.46-.14.2-.44.49-.7.19s.13-.5.23-.74C154.63,51.71,154.15,50.29,155.06,50Z"/><path id="Path_29503" data-name="Path 29503" class="cls-32" d="M198,105.78c.5.1.73-.6,1.25-.43a1.67,1.67,0,0,1-1.69,1.54.62.62,0,0,1-.62-.39A1.1,1.1,0,0,1,198,105.78Z"/><path id="Path_29504" data-name="Path 29504" class="cls-33" d="M265,87.68c-.1-1.58,1.46-2,2.17-3.1l-.2,1.06a3.27,3.27,0,0,1-1,.72Z"/><path id="Path_29505" data-name="Path 29505" class="cls-34" d="M170.48,156.67c0,.45-.48.53-.69.81-.65-.68.3-1.15.23-1.76.8-.08.33-1.36,1.26-1.33C171.08,155.17,170.25,155.74,170.48,156.67Z"/><path id="Path_29506" data-name="Path 29506" class="cls-35" d="M242.68,98.47a9.28,9.28,0,0,1-.69.71c-.15.13-.39.19-.5,0s.21-.35.3-.54c.28-.45,0-1.07.41-1.47.29.07.37-1.42.83-.11C242.68,97.46,242.93,98,242.68,98.47Z"/><path id="Path_29507" data-name="Path 29507" class="cls-36" d="M280.1,74.45c-.39-.77.81-1.39.2-2.17-.06-.06-.08-.12-.05-.17s.05-.07.07-.07l.58.33A1.65,1.65,0,0,1,280.1,74.45Z"/><path id="Path_29508" data-name="Path 29508" class="cls-37" d="M165.81,153.86c.34.29.94-.09,1.17.47-.23.45-.52,1.1-1,.9S165.79,154.34,165.81,153.86Z"/><path id="Path_29509" data-name="Path 29509" class="cls-38" d="M197,106.55c.22.06.46.09.56.34-.61.66-1.31.61-2.22.28l1.38-.69a.17.17,0,0,1,.23,0A.22.22,0,0,1,197,106.55Z"/><path id="Path_29510" data-name="Path 29510" class="cls-39" d="M279.21,77.44c-.25,0-.6.34-.74,0-.22-.53.15-.92.55-1.25.23,0,.31-.38.59-.19C279.43,76.47,279.81,77.09,279.21,77.44Z"/><path id="Path_29511" data-name="Path 29511" class="cls-40" d="M161.5,15.26l.51,1c-.24.32-.2,1-.87.75s0-.75.06-1.12A2.6,2.6,0,0,1,161.5,15.26Z"/><path id="Path_29512" data-name="Path 29512" class="cls-29" d="M160.5,13.72c.26.08.37.58.66.37s-.08-1,.54-.67-.12.74-.14,1.14a3.18,3.18,0,0,1-.06.43C161.1,14.61,160.35,14.52,160.5,13.72Z"/><path id="Path_29513" data-name="Path 29513" class="cls-41" d="M89.31,184.41a.46.46,0,0,0,0-.26,1,1,0,0,1,1.08.66c-.15.48-.31,1-.46,1.45C89.14,185.8,90,184.87,89.31,184.41Z"/><path id="Path_29514" data-name="Path 29514" class="cls-42" d="M246,37.08c0-.59.55-.89.77-.72.55.4.37,1.08.19,1.68C246.52,37.88,246.69,37.07,246,37.08Z"/><path id="Path_29515" data-name="Path 29515" class="cls-11" d="M265,132c-.46-.8-1.43.09-1.94-.58.73-.28,1.52-1.08,2.05.25C265.26,131.82,265.22,131.93,265,132Z"/><path id="Path_29516" data-name="Path 29516" class="cls-43" d="M83.64,63c.52,0,.27,1.3,1.27.8.15-.08,0,.71,0,1.1C83.77,64.67,83.7,63.82,83.64,63Z"/><path id="Path_29517" data-name="Path 29517" class="cls-44" d="M244,99.43a1,1,0,0,1-.35.89c-.34-.2-.68-.06-1.06.1.13-.53.24-1,.35-1.39C243.23,99.19,243.37,99.89,244,99.43Z"/><path id="Path_29518" data-name="Path 29518" class="cls-45" d="M162.46,5.13c-.17-.38-.31-.75,0-1.12A.36.36,0,0,1,163,4c.77.2.34.75.34,1.18l0,.06A.77.77,0,0,1,162.46,5.13Z"/><path id="Path_29519" data-name="Path 29519" class="cls-46" d="M263,69.41c-.38.64-.13,1.61-1.06,2-.43-.55.15-1,.14-1.5,0-.16,0-.32.05-.48a.49.49,0,0,1,.54-.21A.71.71,0,0,1,263,69.41Z"/><path id="Path_29520" data-name="Path 29520" class="cls-47" d="M179.42,59.2c.72.65,1.1,1.33.11,2.09A4.24,4.24,0,0,1,179.42,59.2Z"/><path id="Path_29521" data-name="Path 29521" class="cls-48" d="M237,32.9l0,1.83a2.1,2.1,0,0,1-.62-1.88C236.62,32.41,236.64,32.41,237,32.9Z"/><path id="Path_29522" data-name="Path 29522" class="cls-49" d="M62,122.64c-.19-.31-.8-.11-.79-.65,0-.23,0-.45.08-.68a.11.11,0,0,1,.13.06l.37-.07a.43.43,0,0,1,.32.17C62.35,121.89,62.5,122.3,62,122.64Z"/><path id="Path_29523" data-name="Path 29523" class="cls-23" d="M169.71,158.31a.64.64,0,0,0,.24.64l-.61,1.63A1.79,1.79,0,0,1,169.71,158.31Z"/><path id="Path_29524" data-name="Path 29524" class="cls-24" d="M183.72,62.59A1.25,1.25,0,0,1,183.2,64l-.52-.13c0-.19-.27-.46.12-.57S182.76,61.94,183.72,62.59Z"/><path id="Path_29525" data-name="Path 29525" class="cls-50" d="M249.33,134.54c.06.36-.23.54-.39.78-.49,0-.7-.15-.51-.65,0-.31,0-.62.52-.63S249.35,134.27,249.33,134.54Z"/><path id="Path_29526" data-name="Path 29526" class="cls-51" d="M248.43,134.67a.87.87,0,0,0,.51.65c-.62.35-.92,1.1-1.65,1.3A8.89,8.89,0,0,1,248.43,134.67Z"/><path id="Path_29527" data-name="Path 29527" class="cls-52" d="M232.83,108.34l.53.28c0,.5-.28.87-.47,1.35C232.25,109.41,232.58,108.87,232.83,108.34Z"/><path id="Path_29528" data-name="Path 29528" class="cls-53" d="M237.05,32.9c-.2,0-.37-.39-.6,0a.81.81,0,0,1,0-1.15l0,0c.42-.16.64.14.87.4Z"/><path id="Path_29529" data-name="Path 29529" class="cls-54" d="M155.44,64.14l.39.57-1,.26c-.7-.33,0-.8-.11-1.18C155.07,63.68,155.27,63.89,155.44,64.14Z"/><path id="Path_29530" data-name="Path 29530" class="cls-55" d="M195.81,95.32a1.73,1.73,0,0,0-.71,1.11.17.17,0,0,1-.24,0,.11.11,0,0,1-.06-.07,4,4,0,0,1,.73-1.7c.29-.06.1-.72.61-.49a.8.8,0,0,0,.09.26C196.39,94.9,196.14,95.13,195.81,95.32Z"/><path id="Path_29531" data-name="Path 29531" class="cls-56" d="M232.31,99.73c.33-.23.57,0,.82.15-.12.35-.15.94-.52.88S232.25,100.13,232.31,99.73Z"/><path id="Path_29532" data-name="Path 29532" class="cls-57" d="M69.91,128.69c.53.13.61,1,1.34.79l-.32.5c0,.15-.06.28-.19.27s-.18-.16-.12-.3a.57.57,0,0,0-.55-.39C69.39,129.39,69.67,129,69.91,128.69Z"/><path id="Path_29533" data-name="Path 29533" class="cls-58" d="M238.72,144l.43.35a3.31,3.31,0,0,1-1.24,1.33C237.7,144.9,238.43,144.56,238.72,144Z"/><path id="Path_29534" data-name="Path 29534" class="cls-25" d="M193.81,98.41a6.14,6.14,0,0,1-1.66,1.25c.15-.93,1-1.14,1.63-1.54a.18.18,0,0,1,.07.18C193.84,98.38,193.83,98.41,193.81,98.41Z"/><path id="Path_29535" data-name="Path 29535" class="cls-59" d="M175.66,7.87a1.48,1.48,0,0,0-.28.28c-.15.25,0,.84-.46.71s-.21-.5,0-.81c.08-.13,0-.37,0-.55C175.15,7.61,175.71,7.12,175.66,7.87Z"/><path id="Path_29536" data-name="Path 29536" class="cls-10" d="M181.41,134.61l-.5-.63a4.09,4.09,0,0,0,0-.7c0-.23-.15-.49.18-.51s.4.15.32.53.21.69.33,1S181.66,134.69,181.41,134.61Z"/><path id="Path_29537" data-name="Path 29537" class="cls-60" d="M197,106.55a.89.89,0,0,1-.28-.07l.43-.79a1.07,1.07,0,0,1,.3-.51,1.34,1.34,0,0,1,.27-.07c.27.15.21.44.28.67C197.89,106.32,197.3,106.25,197,106.55Z"/><path id="Path_29538" data-name="Path 29538" class="cls-61" d="M262.68,69.34l-.54,0a2.19,2.19,0,0,1,.5-1.77l.29.07a.33.33,0,0,0,0,.24A1.78,1.78,0,0,1,262.68,69.34Z"/><path id="Path_29539" data-name="Path 29539" class="cls-62" d="M236.31,111.33l1.86.17C237.48,112.19,236.85,112.28,236.31,111.33Z"/><path id="Path_29540" data-name="Path 29540" class="cls-16" d="M170.1,145.8l-.34,0c0-.57.52-.89.76-1.35-.08.47.52,1-.18,1.41C170.25,146,170.17,145.94,170.1,145.8Z"/><path id="Path_29541" data-name="Path 29541" class="cls-63" d="M69.91,128.69a.71.71,0,0,0,.16.88l-.36.24c-.08-.66-.85,0-.85-.35C68.86,128.89,69.44,128.79,69.91,128.69Z"/><path id="Path_29542" data-name="Path 29542" class="cls-64" d="M193.81,98.41a1.43,1.43,0,0,1,0-.29l1-1.72.3,0C194.68,97.1,194.54,97.94,193.81,98.41Z"/><path id="Path_29543" data-name="Path 29543" class="cls-11" d="M83,200.26c.25-.06.53-.32.75,0,.37.61-.4.75-.51,1.16C82.76,201.12,83,200.67,83,200.26Z"/><path id="Path_29544" data-name="Path 29544" class="cls-65" d="M262.09,69.87c.47.55-.32,1-.14,1.5-.45.29-.26-.41-.56-.35A2.19,2.19,0,0,1,262.09,69.87Z"/><path id="Path_29545" data-name="Path 29545" class="cls-66" d="M183.2,149.45c.3-.34.5-.21.5.16a4.38,4.38,0,0,1-.12,1.87h-.32C183,150.81,183.46,150.12,183.2,149.45Z"/><path id="Path_29546" data-name="Path 29546" class="cls-67" d="M214.89,89c.16-.58.1-1.3.91-1.47C215.65,88.13,215.75,88.88,214.89,89Z"/><path id="Path_29547" data-name="Path 29547" class="cls-68" d="M265,132l.1-.33c.18.7.69,1.38.15,2.13C265,133.21,264.65,132.65,265,132Z"/><path id="Path_29548" data-name="Path 29548" class="cls-7" d="M152.16,50.65l-.65,1.12c.15-.67-.2-1.54.71-1.93a.55.55,0,0,1,0,.77Z"/><path id="Path_29549" data-name="Path 29549" class="cls-69" d="M108.63,115.21c.32,0,.74,0,.8.41a.69.69,0,0,1-.53.76.58.58,0,0,0-.5-.66h-.08C108.24,115.43,108.39,115.3,108.63,115.21Z"/><path id="Path_29550" data-name="Path 29550" class="cls-70" d="M108.63,115.21l-.3.5c-.16.27-.3.58-.82.45l.65-1.34c.32-.06.38.2.49.4Z"/><path id="Path_29551" data-name="Path 29551" class="cls-71" d="M62.34,128.22c.45.38.27.75,0,1.13C61.33,129,61.93,128.58,62.34,128.22Z"/><path id="Path_29552" data-name="Path 29552" class="cls-72" d="M217.38,75.37c-.36.11-.88-.06-1,.52-.29.15-.34,0-.27-.24l.16-.87C216.49,75.27,217.36,74.51,217.38,75.37Z"/><path id="Path_29553" data-name="Path 29553" class="cls-51" d="M164.5,17.84l-.38.32c-.43.23-.94.69-.9-.33C163.65,17.91,164.08,17.35,164.5,17.84Z"/><path id="Path_29554" data-name="Path 29554" class="cls-73" d="M159.32,61.61c-.24-.51.2-1,.1-1.48q-.27-.51.3-.57l.24.61C159.69,60.63,159.78,61.24,159.32,61.61Z"/><path id="Path_29555" data-name="Path 29555" class="cls-74" d="M247.24,158.93c-.26-.93.33-1.05,1-1.08C248.17,158.44,247.7,158.68,247.24,158.93Z"/><path id="Path_29556" data-name="Path 29556" class="cls-75" d="M89.55,68c1,.23.73.84.45,1.46-.15.11-.26.08-.32-.1C89.92,68.87,89.46,68.45,89.55,68Z"/><path id="Path_29557" data-name="Path 29557" class="cls-69" d="M108.64,115.22l-.49-.4a1.94,1.94,0,0,1,0-.24.62.62,0,0,1,.86-.19l.11.09C109.4,114.88,108.49,114.77,108.64,115.22Z"/><path id="Path_29558" data-name="Path 29558" class="cls-76" d="M162.46,5.12l.9.1c-.29.24-.68.38-.76.83C162.39,6,162,6,162,5.88,161.89,5.52,162.34,5.41,162.46,5.12Z"/><path id="Path_29559" data-name="Path 29559" class="cls-16" d="M102.53,109c-.4.51.78,1.39-.4,1.72C102.19,110.16,102,109.5,102.53,109Z"/><path id="Path_29560" data-name="Path 29560" class="cls-77" d="M242.2,97.16c-.18.48,0,1.07-.41,1.47.06-.77.12-1.54.19-2.3C242.27,96.55,242.18,96.87,242.2,97.16Z"/><path id="Path_29561" data-name="Path 29561" class="cls-78" d="M195.81,95.32l.43-.85c.26-.17.38-.56.79-.49C196.6,94.41,196.79,95.4,195.81,95.32Z"/><path id="Path_29562" data-name="Path 29562" class="cls-62" d="M279.61,76c-.25-.1-.23.63-.59.19l.1-.58c.39-.22.25-1,1-.89Z"/><path id="Path_29563" data-name="Path 29563" class="cls-51" d="M162.52,16.55c1.38-.2.76.7.71,1.28Z"/><path id="Path_29564" data-name="Path 29564" class="cls-54" d="M75.29,115.14l-.44,1.35c-.49-.66-.07-1.32,0-2Z"/><path id="Path_29565" data-name="Path 29565" class="cls-79" d="M60.49,122.8c-.17.55-.19,1.22-1,1.3C59.86,123.69,59.62,122.83,60.49,122.8Z"/><path id="Path_29566" data-name="Path 29566" class="cls-80" d="M231.84,106.75c0,.18,0,.36,0,.55-.29-.1-.75.4-.87-.2,0-.2-.2-.61.26-.71C231.25,106.81,231.42,107,231.84,106.75Z"/><path id="Path_29567" data-name="Path 29567" class="cls-81" d="M180.64,133.9l-.94-.08c.11-.25,0-.69.33-.71S180.65,133.46,180.64,133.9Z"/><path id="Path_29568" data-name="Path 29568" class="cls-82" d="M197.45,105.18l-.3.51a1.61,1.61,0,0,1-.93-.41l.1-.54C196.73,104.81,196.9,105.48,197.45,105.18Z"/><path id="Path_29569" data-name="Path 29569" class="cls-83" d="M247.11,38.57c.12.3.24.61.37.91s.08.45,0,.52a.3.3,0,0,1-.43,0,.32.32,0,0,1-.07-.19A7,7,0,0,1,247.11,38.57Z"/><path id="Path_29570" data-name="Path 29570" class="cls-84" d="M239.82,162.84c.1-.52.37-.83.94-.78C240.67,162.59,240.51,163,239.82,162.84Z"/><path id="Path_29571" data-name="Path 29571" class="cls-34" d="M189.31,35.83c-.26.57-.75.54-1.25.47C188.15,35.26,188.83,35.83,189.31,35.83Z"/><path id="Path_29572" data-name="Path 29572" class="cls-35" d="M262.68,69.34c-.2-.53.29-.92.28-1.42l.37.62-.32.87Z"/><path id="Path_29573" data-name="Path 29573" class="cls-85" d="M249.05,38.77c0-.45.09-.9.17-1.68.24.68.38,1,.51,1.41Z"/><path id="Path_29574" data-name="Path 29574" class="cls-83" d="M251,133.48c.27.06.26.26.14.4s-.2.57-.51.5c-.11,0-.23-.41-.19-.59A.51.51,0,0,1,251,133.48Z"/><path id="Path_29575" data-name="Path 29575" class="cls-36" d="M184.07,136.88c-.09.47-.25.61-.76.35s-.06-.48,0-.71Z"/><path id="Path_29576" data-name="Path 29576" class="cls-86" d="M185.3,139.67c-.58-.12-.6-.56-.45-1s.34,0,.52.07Z"/><path id="Path_29577" data-name="Path 29577" class="cls-57" d="M185.47,65.61c.14-.27.1-.84.49-.69s.11.69.11,1.06Z"/><path id="Path_29578" data-name="Path 29578" class="cls-87" d="M156,64.64c.34-.3.65,0,1,0-.09.25.17.67-.12.74C156.34,65.54,156.27,65,156,64.64Z"/><path id="Path_29579" data-name="Path 29579" class="cls-88" d="M104.31,114.51c.38-.05.76-.13.87.4C104.47,115.68,104.44,115,104.31,114.51Z"/><path id="Path_29580" data-name="Path 29580" class="cls-89" d="M183.2,149.45c.46.66,0,1.36.06,2l-.31,0Z"/><path id="Path_29581" data-name="Path 29581" class="cls-38" d="M152.16,50.65l.07-.81c.36-.15.55.21.84.29C153,50.65,152.6,50.71,152.16,50.65Z"/><path id="Path_29582" data-name="Path 29582" class="cls-32" d="M163,4l-.52,0c-.39-.69.27-.75.6-1C163.52,3.38,162.77,3.63,163,4Z"/><path id="Path_29583" data-name="Path 29583" class="cls-90" d="M172,1.72c-.35-.49.05-.82.23-1.2l.31.42-.18.76C172.29,1.88,172.17,1.88,172,1.72Z"/><path id="Path_29584" data-name="Path 29584" class="cls-91" d="M246.23,137.16l-.4-.39c0-.34.31-.78.51-.65C246.78,136.4,246.47,136.82,246.23,137.16Z"/><path id="Path_29585" data-name="Path 29585" class="cls-92" d="M237.39,32.07l-.87-.4.1-.28C237.24,31.21,237.46,31.47,237.39,32.07Z"/><path id="Path_29586" data-name="Path 29586" class="cls-93" d="M181.41,134.61c.22,0,.28-.11.34-.27l.25,0c0,.29-.05.58-.07.87C181.54,135.21,181.29,135.07,181.41,134.61Z"/><path id="Path_29587" data-name="Path 29587" class="cls-94" d="M62.5,126.15c.21-.32.42-.63.88-.41l-.6.77Z"/><path id="Path_29588" data-name="Path 29588" class="cls-95" d="M236.94,162.34c.84-.67.83,0,.93.57A1.27,1.27,0,0,1,236.94,162.34Z"/><path id="Path_29589" data-name="Path 29589" class="cls-34" d="M155.43,50.46,155,50c-.33-.56.09-.58.39-.45C156,49.79,155.81,50.15,155.43,50.46Z"/><path id="Path_29590" data-name="Path 29590" class="cls-96" d="M70.62,130c.08.2.19.2.31,0,.14.13.41.3.39.37-.12.35-.47.3-.7.2S70.27,130.16,70.62,130Z"/><path id="Path_29591" data-name="Path 29591" class="cls-6" d="M2.73,168.6,3,169c0,.17.17.43.1.5s-.45.09-.59-.1S2.27,168.77,2.73,168.6Z"/><path id="Path_29592" data-name="Path 29592" class="cls-97" d="M266,86.36c.1-.54.58-.57,1-.73l-.27.77Z"/><path id="Path_29593" data-name="Path 29593" class="cls-98" d="M105.1,116.85a1.21,1.21,0,0,1,.5-1.46C105.29,116,105.5,116.46,105.1,116.85Z"/><path id="Path_29594" data-name="Path 29594" class="cls-35" d="M247.38,5.26c-.2.24-.34.57-.74.47s-.18-.35-.22-.55Z"/><path id="Path_29595" data-name="Path 29595" class="cls-99" d="M172.76,156.84l-.26,0c-.33-.33-.35-.63.07-.89Z"/><path id="Path_29596" data-name="Path 29596" class="cls-100" d="M196.15,94.21l-.62.49a7.35,7.35,0,0,1,.27-.79c0-.1.2-.14.3-.21Z"/><path id="Path_29597" data-name="Path 29597" class="cls-33" d="M242.68,98.47c.09-.48-.21-1.06.35-1.42-.07.47-.14,1-.2,1.43h-.08Z"/><path id="Path_29598" data-name="Path 29598" class="cls-101" d="M214.53,89.87l.27-.62c.08.33.43.63.09,1Z"/><path id="Path_29599" data-name="Path 29599" class="cls-102" d="M16.67,146.33c-.08.23-.25.57-.45.44-.39-.26,0-.56.14-.81Z"/><path id="Path_29600" data-name="Path 29600" class="cls-103" d="M89.68,69.35l.32.1c.09.28.17.56.26.84C89.51,70.31,89.49,69.9,89.68,69.35Z"/><path id="Path_29601" data-name="Path 29601" class="cls-104" d="M93.6,204.19a2.37,2.37,0,0,1,.17-1.46,1.65,1.65,0,0,1-.06,1.47Z"/><path id="Path_29602" data-name="Path 29602" class="cls-52" d="M280.32,72a1.94,1.94,0,0,1,0,.24c-.32,0-.47.54-.87.25a3.7,3.7,0,0,1,.5-2.3C281.21,70.58,280.31,71.41,280.32,72Z"/><path id="Path_29603" data-name="Path 29603" class="cls-105" d="M280,69.27a5.93,5.93,0,0,1,.53-2.23.36.36,0,0,1,.44.25s0,0,0,.06A5.3,5.3,0,0,1,280,69.27Z"/><path id="Path_29604" data-name="Path 29604" class="cls-76" d="M281,67.35l-.45-.31.33-.57.56.39Z"/><path id="Path_29605" data-name="Path 29605" class="cls-6" d="M235.14,158.83c.12.39,0,.61-.4.7C234.64,159.16,234.84,159,235.14,158.83Z"/><path id="Path_29606" data-name="Path 29606" class="cls-106" d="M182.94,62.16c0-.52.31-.76.82-.95,0,.36,0,.68,0,1a.6.6,0,0,1-.84,0Z"/><path id="Path_29607" data-name="Path 29607" class="cls-107" d="M182.94,62.16l.84.05-.06.39c-.73-.35-.4.74-.92.68C182.83,62.9,182.64,62.5,182.94,62.16Z"/><path id="Path_29608" data-name="Path 29608" class="cls-108" d="M183.64,42.88c-.1-.19-.2-.3-.2-.42s.12-.39.36-.3c.07,0,.13.25.11.36S183.77,42.72,183.64,42.88Z"/><path id="Path_29609" data-name="Path 29609" class="cls-109" d="M278.11,64.45c-.24.59-.5,1.18-.7,1.78-.1.32-.19.56-.55.39s-.2-.45-.07-.71c.29-.59.57-1.18.85-1.77a.37.37,0,0,1,.46.26A.07.07,0,0,0,278.11,64.45Z"/><path id="Path_29610" data-name="Path 29610" class="cls-110" d="M278.11,64.45l-.46-.31c.37-.65.1-1.61,1-2,.29,0,.42.07.31.38C278.3,63,278.75,64,278.11,64.45Z"/><path id="Path_29611" data-name="Path 29611" class="cls-111" d="M278.71,61.58c-.16-.83.35-1.38.8-2l0,0c-.27.55.59,1.24-.2,1.74A.6.6,0,0,1,278.71,61.58Z"/><path id="Path_29612" data-name="Path 29612" class="cls-24" d="M260.84,74.47c-.21-.9.36-1.45.57-2.38A2.35,2.35,0,0,1,260.84,74.47Z"/><path id="Path_29613" data-name="Path 29613" class="cls-112" d="M278.71,61.58l.58-.25c-.08.4,0,.85-.36,1.16l-.31-.37Z"/><path id="Path_29614" data-name="Path 29614" class="cls-113" d="M279.51,59.62a1.24,1.24,0,0,1,.2-1c.28.43,0,.72-.22,1Z"/><path id="Path_29615" data-name="Path 29615" class="cls-23" d="M216.11,75.65l.27.24c0,.22,0,.58-.3.47C215.64,76.19,215.84,75.88,216.11,75.65Z"/><path id="Path_29616" data-name="Path 29616" class="cls-114" d="M210.94,74.12c.13.33.16.72-.1.78s-.28-.27-.18-.49A1.28,1.28,0,0,1,210.94,74.12Z"/><path id="Path_29617" data-name="Path 29617" class="cls-31" d="M195.58,96.77c0-.21-.11-.36-.06-.44s.2-.16.31-.23c0,.12.11.25.08.35S195.74,96.62,195.58,96.77Z"/><path id="Path_29618" data-name="Path 29618" class="cls-115" d="M7.58,170.19c.35-.1.67-.21,1,0a.7.7,0,0,1-.18.31C7.88,170.91,7.93,170.12,7.58,170.19Z"/><path id="Path_29619" data-name="Path 29619" class="cls-116" d="M94.88,68.14a2.19,2.19,0,0,1-.51.1c-.06,0-.1-.21-.16-.33a3,3,0,0,1,.42,0C94.74,67.88,94.92,67.87,94.88,68.14Z"/><path id="Path_29620" data-name="Path 29620" class="cls-117" d="M88.28,185.77l.55.13c-.13.33.08,1-.55.87S88.12,186.11,88.28,185.77Z"/><path id="Path_29621" data-name="Path 29621" class="cls-118" d="M99,186.85c.34,0,.65-.06.59.45s-.31.5-.67.39Z"/><path id="Path_29622" data-name="Path 29622" class="cls-12" d="M169.27,151c-.09,0-.18.1-.26.09-.73-.11-.21,1.19-.95.89-.35-.14-.13-.66,0-1,.21-.66.32-1.43,1.34-1.14C169.34,150.21,169,150.57,169.27,151Z"/><path id="Path_29623" data-name="Path 29623" class="cls-119" d="M170.1,145.8l.23,0-.11,1.1c-.13-.08-.59.47-.41-.21C169.9,146.41,170,146.11,170.1,145.8Z"/><path id="Path_29624" data-name="Path 29624" class="cls-120" d="M184.55,139.15c-.35-.66-.43-.91-.28-1.18,0,0,.21,0,.21.07C184.51,138.27,184.52,138.49,184.55,139.15Z"/><path id="Path_29625" data-name="Path 29625" class="cls-121" d="M62.1,121.47H62l-.12,0c-.09-.06-.12-.12-.1-.19s0-.1.07-.1l.44.15Z"/><path id="Path_29626" data-name="Path 29626" class="cls-122" d="M163.4,7.49l-.22.24a1.77,1.77,0,0,1-.28-.43s.14-.25.23-.25C163.39,7,163.37,7.26,163.4,7.49Z"/><path id="Path_29627" data-name="Path 29627" class="cls-123" d="M172,1.72l.36,0c0,.3.2.84-.22.82S172.05,2,172,1.72Z"/><path id="Path_29628" data-name="Path 29628" class="cls-124" d="M159.72,59.56l-.3.57-1.49.24A1.9,1.9,0,0,1,159,58.73c.36-.27.36.14.51.27Z"/><path id="Path_29629" data-name="Path 29629" class="cls-125" d="M155.45,64.14l-.73-.35c.21-.3.16-1,.72-.76C155.85,63.21,155.58,63.75,155.45,64.14Z"/><path id="Path_29630" data-name="Path 29630" class="cls-42" d="M148.91,62.4c-.08.5-.24.82-.56.73s-.1-.35.06-.49A2.3,2.3,0,0,1,148.91,62.4Z"/><path id="Path_29631" data-name="Path 29631" class="cls-62" d="M149.84,61l-.47.35c-.07-.1-.21-.22-.19-.28a.48.48,0,0,1,.29-.25C149.56,60.84,149.68,61,149.84,61Z"/><path id="Path_29632" data-name="Path 29632" class="cls-30" d="M159.53,59l-.51-.26c0-.23,0-.58.34-.48S159.54,58.73,159.53,59Z"/></g></g></g></g></svg>