<svg xmlns="http://www.w3.org/2000/svg" viewBox="0 0 58.14 66.44"><defs><style>.cls-1{fill:#fff;}</style></defs><g id="圖層_2" data-name="圖層 2"><g id="圖層_1-2" data-name="圖層 1"><path id="trash-alt-regular" class="cls-1" d="M56.06,10.38H45.37L41,3a6.26,6.26,0,0,0-5.35-3H22.53a6.23,6.23,0,0,0-5.34,3l-4.42,7.36H2.08A2.08,2.08,0,0,0,0,12.46H0v2.07a2.08,2.08,0,0,0,2.08,2.08H4.15v43.6a6.23,6.23,0,0,0,6.23,6.23H47.76A6.23,6.23,0,0,0,54,60.21h0V16.61h2.07a2.08,2.08,0,0,0,2.08-2.08h0V12.46A2.08,2.08,0,0,0,56.06,10.38ZM22.3,6.61A.78.78,0,0,1,23,6.23h12.2a.78.78,0,0,1,.67.38l2.26,3.77H20ZM47.76,60.22H10.38V16.62H47.76Z"/><path id="Path_6014" data-name="Path 6014" class="cls-1" d="M34.49,32.4A2.07,2.07,0,0,1,33,31.56a3,3,0,0,1-.71-2,1.5,1.5,0,0,1,.91-1.24h0a2.66,2.66,0,0,1,1.32-.49,2.26,2.26,0,0,1,.94.37,3.69,3.69,0,0,1,1,.8v0a2.13,2.13,0,0,1,.32,1.28,2.42,2.42,0,0,1-.4,1l-.1.16a3.46,3.46,0,0,1-.75.87,1.78,1.78,0,0,1-.79.13ZM21.68,29.49A2.16,2.16,0,0,1,22.11,28a3.24,3.24,0,0,1,2.15-.46,2.22,2.22,0,0,1,1,.2,2.44,2.44,0,0,1,.7.8,2.18,2.18,0,0,1,.37,1.07,3.31,3.31,0,0,1-.44,1.71A1.28,1.28,0,0,1,24.8,32a2.86,2.86,0,0,1-2.23-1A3.06,3.06,0,0,1,21.68,29.49Zm5.72,8.65a4.5,4.5,0,0,0-1,.15,8.68,8.68,0,0,1-1.24.21h0l-1.78.33A12.64,12.64,0,0,0,19.89,40,8.37,8.37,0,0,0,17.49,42c-1,1.15-1.76,1.73-2.37,1.73a1,1,0,0,1-.92-.57,2.66,2.66,0,0,1-.34-1.41,2.81,2.81,0,0,1,.58-1.44,10.34,10.34,0,0,1,2.29-2.19,12.72,12.72,0,0,1,2.86-1.76,23,23,0,0,1,3.83-.93,25.79,25.79,0,0,1,4.47-.48,20.13,20.13,0,0,1,3.2.17,15.79,15.79,0,0,1,2.62.78,39.45,39.45,0,0,1,4,1.82,30.36,30.36,0,0,1,2.68,1.48c.2.17.78.78,1.76,1.84l1.18,1.26a6,6,0,0,1,1.08,1.44,3.46,3.46,0,0,1,.3,1.55,1,1,0,0,1-.87,1.18,1,1,0,0,1-.3,0c-.33,0-.81-.34-1.44-1q-1.66-1.77-3.2-3.13a21.27,21.27,0,0,0-4.58-2.85A12.79,12.79,0,0,0,28.76,38,12.27,12.27,0,0,0,27.4,38.14Z"/></g></g></svg>