<?xml version="1.0" encoding="utf-8"?>
<!-- Generator: Adobe Illustrator 24.2.1, SVG Export Plug-In . SVG Version: 6.00 Build 0)  -->
<svg version="1.1" id="圖層_1" focusable="false" xmlns="http://www.w3.org/2000/svg" xmlns:xlink="http://www.w3.org/1999/xlink"
	 x="0px" y="0px" viewBox="0 0 448 512" style="enable-background:new 0 0 448 512;" xml:space="preserve">
<style type="text/css">
	.st0{fill:#FFFFFF;}
</style>
<path class="st0" d="M432,80h-82.4l-34-56.7C306.9,8.8,291.3,0,274.4,0H173.6c-16.9,0-32.5,8.8-41.2,23.3L98.4,80H16
	C7.2,80,0,87.2,0,96v16c0,8.8,7.2,16,16,16h16v336c0,26.5,21.5,48,48,48l0,0h288c26.5,0,48-21.5,48-48l0,0V128h16
	c8.8,0,16-7.2,16-16V96C448,87.2,440.8,80,432,80z M171.8,50.9c1.1-1.8,3-2.9,5.2-2.9h94c2.1,0,4.1,1.1,5.1,2.9L293.6,80H154.4
	L171.8,50.9z M368,464H80V128h288V464z"/>
<path id="Path_6014" class="st0" d="M257.9,232.9c-4-0.2-7.6-2.2-9.9-5.4c-3.1-3.6-4.7-8.3-4.6-13.1c0.4-3.6,2.6-6.7,5.9-8.1h-0.1
	c2.5-1.8,5.5-2.9,8.6-3.2c2.2,0.3,4.3,1.2,6.1,2.5c2.4,1.3,4.5,3.1,6.3,5.2l-0.1-0.1c1.6,2.5,2.3,5.4,2.1,8.3
	c-0.4,2.3-1.3,4.5-2.6,6.5c-0.4,0.6-0.6,0.9-0.6,1.1c-1.3,2.1-3,4-4.9,5.6c-1.6,0.7-3.4,1-5.2,0.8L257.9,232.9z M174.8,214
	c-0.3-3.4,0.7-6.9,2.8-9.6c4.2-2.6,9.1-3.7,14-3c2.3-0.2,4.7,0.3,6.8,1.3c1.9,1.4,3.4,3.1,4.5,5.2c1.4,2,2.2,4.4,2.4,6.9
	c0.1,3.9-0.9,7.7-2.8,11.1c-1.4,2.8-4.3,4.6-7.4,4.7c-5.6,0.1-10.9-2.4-14.4-6.7C177.7,221.3,175.7,217.8,174.8,214z M211.8,270.2
	c-2.2,0-4.5,0.3-6.6,1c-2.7,0.6-5.4,1.1-8.1,1.3h0.1l-11.6,2.1c-7.8,1.5-15.4,4.1-22.5,7.8c-5.9,3.2-11.2,7.5-15.6,12.7
	c-6.3,7.4-11.4,11.2-15.4,11.2c-2.5,0-4.8-1.4-6-3.7c-1.6-2.8-2.3-6-2.2-9.1c0.4-3.4,1.7-6.7,3.8-9.4c4.2-5.5,9.2-10.2,14.8-14.2
	c5.6-4.6,11.9-8.4,18.5-11.4c8.1-2.7,16.4-4.8,24.8-6.1c9.6-1.9,19.2-2.9,29-3.1c7-0.2,13.9,0.2,20.8,1.2c5.8,1.2,11.5,2.9,17,5.1
	c8.8,3.5,17.4,7.4,25.7,11.8c6,2.9,11.7,6.1,17.3,9.6c1.3,1.1,5.1,5.1,11.4,11.9l7.7,8.2c2.8,2.8,5.1,5.9,7,9.3
	c1.4,3.1,2.1,6.6,1.9,10c0.6,3.7-2,7.1-5.7,7.7c-0.6,0.1-1.3,0.1-1.9,0c-2.2,0-5.3-2.2-9.3-6.5c-7.2-7.6-14.1-14.4-20.8-20.3
	c-9-7.4-19-13.6-29.7-18.4c-11.1-5.9-23.3-9.1-35.8-9.6C217.7,269.4,214.8,269.7,211.8,270.2z"/>
<path class="st0" d="M1036.8,80h-82.4l-34-56.7C911.7,8.8,896.1,0,879.2,0H778.4c-16.9,0-32.5,8.8-41.2,23.3l-34,56.7h-82.4
	c-8.8,0-16,7.2-16,16v16c0,8.8,7.2,16,16,16h16v336c0,26.5,21.5,48,48,48l0,0h288c26.5,0,48-21.5,48-48l0,0V128h16
	c8.8,0,16-7.2,16-16V96C1052.8,87.2,1045.6,80,1036.8,80z M776.6,50.9c1.1-1.8,3-2.9,5.2-2.9h94c2.1,0,4.1,1.1,5.2,2.9L898.4,80
	H759.2L776.6,50.9z M972.8,464h-288V128h288V464z"/>
<path id="Path_6014_1_" class="st0" d="M862.7,232.9c-4-0.2-7.6-2.2-9.9-5.4c-3.1-3.6-4.7-8.3-4.6-13.1c0.4-3.6,2.6-6.7,5.9-8.1
	h-0.1c2.5-1.8,5.5-2.9,8.6-3.2c2.2,0.3,4.3,1.2,6.1,2.5c2.4,1.3,4.5,3.1,6.3,5.2l-0.1-0.1c1.6,2.5,2.3,5.4,2.1,8.3
	c-0.4,2.3-1.3,4.5-2.6,6.5c-0.4,0.6-0.6,0.9-0.6,1.1c-1.3,2.1-3,4-4.9,5.6c-1.6,0.7-3.4,1-5.2,0.8L862.7,232.9z M779.6,214
	c-0.3-3.4,0.7-6.9,2.8-9.6c4.2-2.6,9.1-3.7,14-3c2.3-0.2,4.7,0.3,6.8,1.3c1.9,1.4,3.4,3.1,4.5,5.2c1.4,2,2.2,4.4,2.4,6.9
	c0.1,3.9-0.9,7.7-2.8,11.1c-1.4,2.8-4.3,4.6-7.4,4.7c-5.6,0.1-10.9-2.4-14.4-6.7C782.5,221.3,780.5,217.8,779.6,214z M816.6,270.2
	c-2.2,0-4.5,0.3-6.6,1c-2.7,0.6-5.4,1.1-8.1,1.3h0.1l-11.6,2.1c-7.8,1.5-15.4,4.1-22.5,7.8c-5.9,3.2-11.2,7.5-15.6,12.7
	c-6.3,7.4-11.4,11.2-15.4,11.2c-2.5,0-4.8-1.4-6-3.7c-1.6-2.8-2.3-6-2.2-9.1c0.4-3.4,1.7-6.7,3.8-9.4c4.2-5.5,9.2-10.2,14.8-14.2
	c5.6-4.6,11.9-8.4,18.5-11.4c8.1-2.7,16.4-4.8,24.8-6.1c9.6-1.9,19.2-2.9,29-3.1c7-0.2,13.9,0.2,20.8,1.2c5.8,1.2,11.5,2.9,17,5.1
	c8.8,3.5,17.4,7.4,25.7,11.8c6,2.9,11.7,6.1,17.3,9.6c1.3,1.1,5.1,5.1,11.4,11.9l7.7,8.2c2.8,2.8,5.1,5.9,7,9.3
	c1.4,3.1,2.1,6.6,1.9,10c0.6,3.7-2,7.1-5.7,7.7c-0.6,0.1-1.3,0.1-1.9,0c-2.2,0-5.3-2.2-9.3-6.5c-7.2-7.6-14.1-14.4-20.8-20.3
	c-9-7.4-19-13.6-29.7-18.4c-11.1-5.9-23.3-9.1-35.8-9.6C822.5,269.4,819.6,269.7,816.6,270.2z"/>
</svg>
