<?xml version="1.0" encoding="utf-8"?>
<!-- Generator: Adobe Illustrator 24.2.3, SVG Export Plug-In . SVG Version: 6.00 Build 0)  -->
<svg version="1.1" id="圖層_1" xmlns="http://www.w3.org/2000/svg" xmlns:xlink="http://www.w3.org/1999/xlink" x="0px" y="0px"
	 viewBox="0 0 300 470" style="enable-background:new 0 0 300 470;" xml:space="preserve">
<style type="text/css">
	.st0{fill:#F2DE79;}
	.st1{fill:#F8F4EB;}
	.st2{fill:none;stroke:#03588C;stroke-width:0.41;stroke-miterlimit:10;}
	.st3{fill:none;stroke:#03588C;stroke-width:0.55;stroke-miterlimit:10;}
	.st4{enable-background:new    ;}
	.st5{fill:#03588C;}
	.st6{opacity:0.15;}
	.st7{clip-path:url(#SVGID_2_);}
	.st8{fill:#FF9685;}
	.st9{fill:#0388A6;}
	.st10{fill:none;stroke:#EDEDED;stroke-width:0.52;stroke-miterlimit:10;}
	.st11{fill:none;stroke:#00A99D;stroke-width:0.52;stroke-miterlimit:10;}
</style>
<g id="圖層_2_1_">
	<g id="圖層_1-2">
		<path class="st0" d="M34.1,0h231.7C284.7,0,300,15.3,300,34.1v401.7c0,18.8-15.3,34.1-34.1,34.1H34.1C15.3,470,0,454.7,0,435.9
			V34.1C0,15.3,15.3,0,34.1,0z"/>
		<path class="st1" d="M33.8,10.5h232.4c12,0,21.8,9.8,21.8,21.8v402.4c0,12-9.8,21.8-21.8,21.8H33.8c-12,0-21.8-9.8-21.8-21.8V32.3
			C12,20.3,21.8,10.5,33.8,10.5z"/>
		<line id="Line_7" class="st2" x1="215" y1="34.6" x2="271.8" y2="34.6"/>
		<line id="Line_7-2" class="st3" x1="30.4" y1="34.6" x2="85" y2="34.6"/>
		<g id="MEMBERSHIP">
			<g class="st4">
				<path class="st5" d="M105.9,37.4l-2.8-7.5h0c0,0.2,0,0.6,0.1,1c0,0.4,0,0.9,0,1.3v5.2h-1v-8.6h1.6l2.6,7h0l2.7-7h1.6v8.6h-1.1
					v-5.3c0-0.4,0-0.8,0-1.2c0-0.4,0-0.7,0.1-1h0l-2.9,7.5H105.9z"/>
				<path class="st5" d="M119.7,37.4H115v-8.6h4.8v0.9H116v2.7h3.5v0.9H116v3.1h3.7V37.4z"/>
				<path class="st5" d="M127.4,37.4l-2.8-7.5h0c0,0.2,0,0.6,0.1,1c0,0.4,0,0.9,0,1.3v5.2h-1v-8.6h1.6l2.6,7h0l2.7-7h1.6v8.6h-1.1
					v-5.3c0-0.4,0-0.8,0-1.2c0-0.4,0-0.7,0.1-1h0l-2.9,7.5H127.4z"/>
				<path class="st5" d="M136.5,28.9h2.4c1.1,0,1.9,0.2,2.4,0.5c0.6,0.3,0.8,0.9,0.8,1.6c0,0.5-0.1,0.9-0.4,1.3
					c-0.3,0.3-0.7,0.5-1.2,0.6v0.1c0.4,0.1,0.7,0.2,1,0.3c0.3,0.2,0.5,0.4,0.7,0.6c0.2,0.3,0.3,0.6,0.3,1.1c0,0.8-0.3,1.4-0.8,1.8
					c-0.5,0.4-1.3,0.6-2.2,0.6h-3V28.9z M137.6,32.5h1.6c0.7,0,1.2-0.1,1.5-0.4c0.3-0.2,0.4-0.6,0.4-1c0-0.5-0.2-0.8-0.5-1
					s-0.9-0.3-1.6-0.3h-1.4V32.5z M137.6,33.4v3.1h1.7c0.8,0,1.3-0.1,1.6-0.4c0.3-0.3,0.4-0.7,0.4-1.2c0-0.4-0.2-0.8-0.5-1.1
					c-0.3-0.3-0.9-0.4-1.6-0.4H137.6z"/>
				<path class="st5" d="M151.1,37.4h-4.8v-8.6h4.8v0.9h-3.7v2.7h3.5v0.9h-3.5v3.1h3.7V37.4z"/>
				<path class="st5" d="M157.3,28.9c1.1,0,1.8,0.2,2.4,0.6c0.5,0.4,0.8,1,0.8,1.8c0,0.5-0.1,0.8-0.3,1.1c-0.2,0.3-0.4,0.5-0.6,0.7
					c-0.3,0.2-0.5,0.3-0.8,0.4l2.4,3.8h-1.3l-2.1-3.5H156v3.5H155v-8.6H157.3z M157.3,29.8H156V33h1.3c0.7,0,1.2-0.1,1.5-0.4
					c0.3-0.3,0.5-0.7,0.5-1.2c0-0.6-0.2-1-0.5-1.2C158.5,29.9,158,29.8,157.3,29.8z"/>
				<path class="st5" d="M169.3,35.1c0,0.8-0.3,1.4-0.8,1.8c-0.6,0.4-1.3,0.6-2.2,0.6c-0.5,0-0.9,0-1.3-0.1c-0.4-0.1-0.7-0.2-1-0.3
					v-1c0.3,0.1,0.6,0.2,1.1,0.3c0.4,0.1,0.9,0.2,1.3,0.2c0.6,0,1.1-0.1,1.4-0.4c0.3-0.2,0.5-0.6,0.5-1c0-0.3-0.1-0.5-0.2-0.7
					c-0.1-0.2-0.3-0.4-0.6-0.5s-0.7-0.3-1.2-0.5c-0.7-0.3-1.3-0.6-1.7-1c-0.4-0.4-0.6-0.9-0.6-1.6c0-0.4,0.1-0.8,0.3-1.2
					c0.2-0.3,0.6-0.6,1-0.8c0.4-0.2,0.9-0.3,1.4-0.3c0.5,0,0.9,0,1.3,0.1c0.4,0.1,0.8,0.2,1.1,0.3l-0.3,0.9c-0.3-0.1-0.6-0.2-1-0.3
					c-0.4-0.1-0.7-0.1-1.1-0.1c-0.5,0-0.9,0.1-1.2,0.3c-0.3,0.2-0.4,0.5-0.4,0.9c0,0.3,0.1,0.5,0.2,0.7c0.1,0.2,0.3,0.4,0.6,0.5
					c0.3,0.2,0.6,0.3,1.1,0.5c0.5,0.2,0.9,0.4,1.3,0.6c0.3,0.2,0.6,0.5,0.8,0.8S169.3,34.7,169.3,35.1z"/>
				<path class="st5" d="M179.5,37.4h-1.1v-4h-4.4v4H173v-8.6h1.1v3.6h4.4v-3.6h1.1V37.4z"/>
				<path class="st5" d="M186.3,37.4h-3.1v-0.6l1-0.2v-6.9l-1-0.2v-0.6h3.1v0.6l-1,0.2v6.9l1,0.2V37.4z"/>
				<path class="st5" d="M192.2,28.9c1.1,0,1.9,0.2,2.4,0.7c0.5,0.4,0.8,1.1,0.8,1.9c0,0.5-0.1,0.9-0.3,1.3s-0.6,0.7-1.1,1
					c-0.5,0.3-1.2,0.4-2,0.4h-1v3.3h-1.1v-8.6H192.2z M192.1,29.8H191v3.4h0.9c0.8,0,1.4-0.1,1.8-0.4c0.4-0.3,0.6-0.7,0.6-1.3
					c0-0.6-0.2-1-0.5-1.2C193.4,29.9,192.9,29.8,192.1,29.8z"/>
			</g>
		</g>
		<g class="st6">
			<g>
				<g>
					<defs>
						<path id="SVGID_1_" d="M33.8,10.5h232.4c12,0,21.8,9.8,21.8,21.8v402.4c0,12-9.8,21.8-21.8,21.8H33.8
							c-12,0-21.8-9.8-21.8-21.8V32.3C12,20.3,21.8,10.5,33.8,10.5z"/>
					</defs>
					<clipPath id="SVGID_2_">
						<use xlink:href="#SVGID_1_"  style="overflow:visible;"/>
					</clipPath>
					<g class="st7">
						<g id="Group_2">
							<path id="Path_4412" class="st0" d="M63.8-106.1c-0.1,0.1-0.1,0.2-0.2,0.3c-0.1,0.1-0.3,0.4-0.3,0.4
								c-0.2,0.3-0.4,0.5-0.5,0.8c-0.7,0.9-1.4,1.8-2.2,2.6c-0.4,0.4-0.8,0.9-1.3,1.3l-0.1,0.1l0,0l-0.7,0.7c-2.1,1.8-4.2,3.5-6.5,5
								l-1,0.7c-0.5-7.5-1-15-1.5-22.6l1.1,0.9c2,1.7,4.2,3.3,6.3,4.8s4.3,2.9,6.5,4.2c0.1,0.1,0.2,0.1,0.3,0.2
								C63.7-106.6,63.7-106.4,63.8-106.1z"/>
							<path id="Path_4413" class="st5" d="M88.4-129.4l-1.1,0.8l-1,0.7c-2.4,1.7-5,3.3-7.3,5.2c-1.6,1.3-3.1,2.8-4.6,4.3l-1.1,1
								l-0.4,0.4l-0.2,0.2c-0.9,0.8-1.8,1.6-2.7,2.3c-0.6,0.5-1.3,0.9-1.9,1.3c0.2-0.1-0.3,0.1-0.6,0.3h-0.1l-0.2-0.1l-0.9-0.5
								c-0.5-0.3-1-0.6-1.4-1c-1-0.7-2.1-1.3-3.1-2c-4.1-2.8-8-6-11.5-9.5c-0.4-0.4-0.8-0.8-1.2-1.2c-0.1-1.9-0.2-3.7-0.3-5.6
								c-0.1-1.3,0.5-2.6,1.5-3.4c1.3-1.1,2.9-1.9,4.5-2.3c9.6-2.6,19.2-3.2,27.9-1.5c5.4,1.4,5.7,1.7,5.8,6.5
								C88.4-132.2,88.4-130.8,88.4-129.4z"/>
							<path id="Path_4414" class="st0" d="M89-99.4l-1-0.4l-0.4-0.2l-0.5-0.2l-0.6-0.2l-1.7-0.7c-1.1-0.5-2.2-1-3.3-1.5
								c-3.1-1.5-6.1-3.2-9-5.1c3.3-2.1,6-5.2,8.9-7.9c0,0,0.5-0.5,0.7-0.6c0.3-0.3,0.6-0.5,1-0.8c1.3-1,2.6-1.8,3.9-2.7l0.5-0.3
								l1.1-0.7c0,5,0,10.1,0.2,15.1C88.7-103.5,88.8-101.5,89-99.4z"/>
							<path id="Path_4415" class="st8" d="M89.9-90.1c-0.3,0.1-0.7,0.3-1,0.4c-5.4,2.3-9.7,6.9-14.7,10l-0.9,0.5l0,0L73-79
								c-0.7,0.3-1.4,0.6-2.1,0.8c-0.1,0-0.5,0.1-0.7,0.2l-0.7,0.1c-0.7,0.1-1.5,0.1-2.2,0h-0.4l-1-0.1c-0.8-0.1-1.5-0.2-2.3-0.3
								c-1.5-0.3-3-0.6-4.5-0.9c-0.8-0.2-1.7-0.5-2.5-0.8L56-80.2h-0.1c-0.4-0.2-0.8-0.3-1.2-0.6c-0.7-0.3-1.4-0.7-2-1.1L52.6-82
								c-0.1-0.1-0.2-0.1-0.3-0.2h-0.1l-0.5-0.5c0.1-0.9,0.1-1.9,0-2.8c0-0.2,0-0.4,0-0.6l0.9-0.6c6-4,12.4-8.4,16.4-14.7
								c6.2,4,12.8,7.2,19.7,9.5c0.4,0.1,0.7,0.3,1.1,0.4C89.8-91,89.9-90.6,89.9-90.1z"/>
							<path id="Path_4416" class="st9" d="M68.5-35.7c-1.4,2.5-2.6,5.1-3.8,7.8c-2.7,6-5.2,12.1-8.9,17.5C50-1.8,42.1,1.1,32.6-0.8
								C25-2.3,20.3-8.2,19.2-16.9c-0.7-6.6,0.5-13.3,3.5-19.2C26.2-43.5,31-50,35.8-56.5c4.4-6,9-11.8,13.1-18
								c0.2-0.3,0.4-0.7,0.6-1l0.9,0.5c1.7,0.9,3.5,1.7,5.3,2.3c2.1,0.7,4.2,1.2,6.3,1.6c1.7,0.9,3.4,1.8,4.2,3.7
								c0.4,0.9,0.6,1.8,0.8,2.7c0.3,9.1,0.3,18.2,1.3,27.2C68.4-36.9,68.4-36.3,68.5-35.7z"/>
							<path id="Path_4417" class="st0" d="M91-57c-1.6,1.4-3.2,2.6-5,3.7c-4,2.6-7.9,5.2-11.3,8.8c-0.1,0.1-0.1,0.2-0.2,0.2
								c0-0.5-0.1-0.9-0.1-1.4C74-52.8,74-59.9,73.7-66.9c0.5-2,1.4-4,2.6-5.7c2.6-1.5,5.2-3.3,7.5-5.3c1.5-1.2,2.9-2.3,4.5-3.3
								c0.4-0.3,0.8-0.5,1.2-0.8l0.5-0.3h0.1l0,0h0.1c0.3-0.2,0.6-0.3,0.9-0.4c0.7,3.6,1.4,7.2,2.4,10.7c0.5,1.9,0.8,3.9,1,5.9
								C94.8-62.6,93.5-59.3,91-57z"/>
							<path id="Path_4418" class="st10" d="M18.9-20.5c1.3,2,3.5,3.4,5.9,3.9c2.3,0.4,4.7,0.4,7,0.1"/>
							<path id="Path_4419" class="st11" d="M55.6-138.4c-0.2,1.7-0.1,3.4,0.4,5"/>
							<path id="Path_4420" class="st11" d="M59.3-139.7l0.2,4c0,0.5,0.1,1,0.2,1.4"/>
							<path id="Path_4421" class="st11" d="M66.3-140.4c0.2,1.3,0.3,2.7,0.3,4"/>
							<path id="Path_4422" class="st11" d="M62.6-139.9l0.2,3.1"/>
							<path id="Path_4423" class="st11" d="M71-140.4v3.9"/>
							<path id="Path_4424" class="st11" d="M76.6-140.4c-0.2,1.3-0.5,2.6-0.9,3.9"/>
							<path id="Path_4425" class="st11" d="M81.1-139.5c-0.2,1.4-0.6,2.9-0.9,4.3"/>
						</g>
						<g id="Group_2-2">
							<path id="Path_4412-2" class="st0" d="M176.5,22.6l-0.2,0.3l-0.3,0.4c-0.2,0.3-0.4,0.5-0.6,0.8c-0.7,0.9-1.4,1.8-2.1,2.6
								c-0.4,0.4-0.8,0.9-1.3,1.3l-0.1,0.1l0,0l-0.7,0.6c-2,1.8-4.2,3.5-6.5,5l-1,0.7c-0.5-7.5-1-15-1.4-22.6l1.1,0.9
								c2,1.7,4.2,3.3,6.3,4.8s4.2,2.9,6.5,4.3l0.3,0.1C176.4,22.2,176.5,22.4,176.5,22.6z"/>
							<path id="Path_4413-2" class="st5" d="M201.2-0.7l-1.1,0.8l-1,0.7c-2.4,1.7-5,3.3-7.3,5.2c-1.6,1.3-3.1,2.8-4.6,4.3l-1.1,1
								l-0.4,0.4l-0.2,0.2c-0.9,0.8-1.8,1.6-2.7,2.3c-0.6,0.5-1.2,0.9-1.9,1.3c0.2-0.1-0.4,0.1-0.6,0.3h-0.1l-0.2-0.1l-0.9-0.5
								c-0.5-0.3-1-0.6-1.5-0.9c-1-0.7-2.1-1.3-3.1-2c-4.1-2.8-8-6-11.5-9.5c-0.4-0.4-0.8-0.8-1.1-1.2c-0.1-1.9-0.2-3.7-0.3-5.6
								c-0.1-1.3,0.5-2.6,1.5-3.3c1.3-1.1,2.9-1.9,4.6-2.3c9.6-2.6,19.2-3.2,27.9-1.5c5.4,1.4,5.7,1.7,5.8,6.5
								C201.2-3.4,201.2-2,201.2-0.7z"/>
							<path id="Path_4414-2" class="st0" d="M201.8,29.4l-1-0.4l-0.4-0.1l-0.5-0.2l-0.6-0.2c-0.6-0.2-1.1-0.5-1.6-0.7
								c-1.1-0.5-2.2-1-3.3-1.5c-3.1-1.5-6.1-3.2-8.9-5.1c3.3-2.1,6.1-5.2,8.9-7.9l0.6-0.6c0.3-0.3,0.6-0.5,1-0.8
								c1.3-1,2.6-1.8,3.9-2.7l0.5-0.3l1-0.8c0,5,0,10.1,0.2,15.1C201.5,25.2,201.6,27.3,201.8,29.4z"/>
							<path id="Path_4415-2" class="st8" d="M202.7,38.7c-0.3,0.1-0.7,0.3-1,0.4c-5.4,2.3-9.6,6.9-14.7,10l-0.9,0.5l0,0l-0.4,0.2
								c-0.7,0.3-1.4,0.6-2.1,0.8l-0.7,0.2l-0.7,0.1c-0.7,0.1-1.5,0.1-2.2,0h-0.4l-0.9-0.1c-0.8-0.1-1.5-0.2-2.3-0.3
								c-1.5-0.3-3-0.5-4.5-1c-0.9-0.2-1.7-0.5-2.5-0.8l-0.5-0.2h-0.1c-0.4-0.2-0.8-0.3-1.2-0.5c-0.7-0.3-1.4-0.7-2-1.1l-0.1-0.1
								l-0.3-0.2c0,0,0,0-0.1,0l-0.6-0.5c0.1-0.9,0.1-1.9,0-2.8c0-0.2,0-0.4,0-0.6l0.9-0.6c6-4,12.4-8.4,16.4-14.7
								c6.2,4,12.8,7.2,19.7,9.5c0.4,0.1,0.7,0.3,1.1,0.4C202.6,37.7,202.6,38.2,202.7,38.7z"/>
							<path id="Path_4416-2" class="st9" d="M181.3,93.1c-1.4,2.5-2.6,5.2-3.8,7.8c-2.6,6-5.2,12.1-8.9,17.5
								c-5.9,8.5-13.8,11.5-23.3,9.5c-7.6-1.5-12.3-7.4-13.4-16.1c-0.8-6.6,0.5-13.3,3.5-19.2c3.6-7.4,8.4-13.8,13.1-20.3
								c4.4-6,9-11.8,13.1-18c0.2-0.3,0.4-0.6,0.6-1c0.3,0.2,0.6,0.4,0.9,0.5c1.7,0.9,3.5,1.7,5.3,2.3c2.1,0.7,4.2,1.2,6.3,1.5
								c1.7,0.9,3.4,1.8,4.1,3.7c0.3,0.9,0.6,1.8,0.8,2.7c0.3,9.1,0.3,18.2,1.3,27.2C181.1,91.9,181.2,92.5,181.3,93.1z"/>
							<path id="Path_4417-2" class="st0" d="M203.8,71.7c-1.6,1.4-3.2,2.6-5,3.7c-4,2.6-7.9,5.2-11.3,8.8c-0.1,0.1-0.1,0.2-0.2,0.2
								l-0.1-1.4c-0.4-7-0.4-14.1-0.7-21.2c0.5-2,1.3-4,2.5-5.7c2.6-1.5,5.2-3.3,7.5-5.3c1.5-1.2,2.9-2.3,4.5-3.3
								c0.4-0.3,0.8-0.5,1.2-0.8l0.5-0.3h0.1l0,0h0.1c0.3-0.2,0.6-0.3,0.9-0.4c0.6,3.6,1.4,7.2,2.4,10.8c0.5,1.9,0.8,3.9,1,5.9
								C207.5,66.1,206.3,69.5,203.8,71.7z"/>
							<path id="Path_4418-2" class="st10" d="M131.7,108.2c1.3,2,3.5,3.4,5.9,3.9c2.3,0.4,4.7,0.4,7,0.2"/>
							<path id="Path_4419-2" class="st11" d="M168.4-9.6c-0.2,1.7-0.1,3.4,0.4,5"/>
							<path id="Path_4420-2" class="st11" d="M172.1-10.9l0.2,4c0,0.5,0.1,1,0.2,1.4"/>
							<path id="Path_4421-2" class="st11" d="M179.1-11.6c0.2,1.3,0.3,2.6,0.3,3.9"/>
							<path id="Path_4422-2" class="st11" d="M175.4-11.1l0.2,3.1"/>
							<path id="Path_4423-2" class="st11" d="M183.8-11.7v3.9"/>
							<path id="Path_4424-2" class="st11" d="M189.3-11.7c-0.2,1.3-0.5,2.6-0.9,3.9"/>
							<path id="Path_4425-2" class="st11" d="M193.9-10.7c-0.3,1.4-0.6,2.8-0.9,4.3"/>
						</g>
						<g id="Group_2-3">
							<path id="Path_4412-3" class="st0" d="M242.2-170.5l-0.2,0.3l-0.3,0.4c-0.2,0.3-0.4,0.5-0.6,0.8c-0.7,0.9-1.4,1.8-2.1,2.6
								c-0.4,0.4-0.8,0.9-1.3,1.3l-0.1,0.1l0,0l-0.7,0.7c-2.1,1.8-4.2,3.5-6.5,5l-1,0.6c-0.5-7.5-1-15-1.4-22.6
								c0.4,0.3,0.7,0.6,1.1,0.9c2,1.7,4.2,3.3,6.3,4.8s4.2,2.9,6.4,4.3l0.3,0.1C242.1-171,242.1-170.7,242.2-170.5z"/>
							<path id="Path_4413-3" class="st5" d="M266.8-193.8l-1.1,0.7l-1,0.7c-2.5,1.7-5,3.3-7.3,5.2c-1.6,1.3-3.1,2.9-4.6,4.3l-1.1,1
								l-0.4,0.4l-0.2,0.2c-0.9,0.8-1.8,1.6-2.7,2.3c-0.6,0.5-1.2,0.9-1.9,1.3c0.2-0.1-0.3,0.1-0.6,0.3h-0.1l-0.2-0.1
								c-0.3-0.2-0.6-0.3-0.9-0.5c-0.5-0.3-1-0.6-1.5-0.9c-1-0.7-2.1-1.3-3.1-2c-4.1-2.8-8-6-11.5-9.5c-0.4-0.4-0.8-0.8-1.2-1.2
								c-0.1-1.9-0.1-3.7-0.3-5.6c-0.1-1.3,0.5-2.6,1.5-3.4c1.3-1.1,2.9-1.9,4.6-2.3c9.6-2.6,19.2-3.2,27.9-1.5
								c5.5,1.4,5.7,1.7,5.8,6.5C266.8-196.6,266.8-195.2,266.8-193.8z"/>
							<path id="Path_4414-3" class="st0" d="M267.4-163.8l-1-0.4l-0.4-0.1l-0.5-0.2l-0.6-0.3l-1.6-0.7c-1.1-0.5-2.2-1-3.3-1.5
								c-3.1-1.5-6.1-3.2-8.9-5.1c3.3-2.1,6-5.2,8.9-8c0,0,0.5-0.4,0.6-0.6c0.3-0.3,0.6-0.5,1-0.8c1.3-0.9,2.6-1.8,3.9-2.7l0.5-0.3
								l1.1-0.7c0,5,0,10.1,0.2,15.1C267.2-167.9,267.3-165.8,267.4-163.8z"/>
							<path id="Path_4415-3" class="st8" d="M268.3-154.5l-1,0.4c-5.4,2.3-9.6,6.9-14.7,10c-0.3,0.2-0.6,0.4-0.9,0.5l0,0
								c-0.1,0.1-0.2,0.1-0.4,0.2c-0.7,0.3-1.4,0.6-2.1,0.9l-0.7,0.2l-0.7,0.1c-0.7,0.1-1.5,0.1-2.2,0h-0.4l-0.9-0.1
								c-0.8-0.1-1.5-0.2-2.3-0.3c-1.5-0.2-3-0.6-4.5-0.9c-0.9-0.2-1.7-0.5-2.5-0.8l-0.5-0.2h-0.1c-0.4-0.2-0.8-0.3-1.2-0.5
								c-0.7-0.3-1.4-0.7-2-1.1l-0.1-0.1l-0.3-0.2l0,0l-0.6-0.5c0.1-0.9,0.1-1.9,0-2.8v-0.6l0.9-0.6c6-4,12.4-8.4,16.4-14.7
								c6.2,4,12.8,7.2,19.7,9.5l1.1,0.4C268.2-155.4,268.3-155,268.3-154.5z"/>
							<path id="Path_4416-3" class="st9" d="M246.9-100.1c-1.4,2.5-2.6,5.2-3.8,7.8c-2.6,6-5.2,12.1-8.9,17.5
								c-5.9,8.5-13.8,11.5-23.3,9.5c-7.6-1.5-12.3-7.4-13.4-16.1c-0.8-6.6,0.5-13.3,3.5-19.2c3.6-7.4,8.4-13.9,13.1-20.4
								c4.4-6,9-11.8,13.1-18c0.2-0.3,0.4-0.6,0.6-1c0.3,0.2,0.6,0.4,0.9,0.5c1.7,0.9,3.5,1.7,5.4,2.3c2.1,0.7,4.2,1.2,6.3,1.5
								c1.7,0.9,3.4,1.8,4.1,3.7c0.3,0.9,0.6,1.8,0.8,2.7c0.3,9.1,0.3,18.2,1.3,27.2C246.8-101.3,246.9-100.7,246.9-100.1z"/>
							<path id="Path_4417-3" class="st0" d="M269.4-121.4c-1.6,1.4-3.2,2.6-5,3.7c-4,2.6-7.9,5.2-11.3,8.8l-0.2,0.2l-0.1-1.4
								c-0.4-7.1-0.4-14.2-0.7-21.2c0.5-2,1.4-4,2.6-5.7c2.7-1.5,5.2-3.3,7.5-5.3c1.5-1.2,2.9-2.3,4.5-3.3c0.4-0.3,0.8-0.5,1.2-0.8
								l0.5-0.3h0.1l0,0h0.1l0.9-0.4c0.7,3.6,1.5,7.2,2.4,10.7c0.5,1.9,0.9,3.9,1,5.9C273.3-127,272-123.7,269.4-121.4z"/>
							<path id="Path_4418-3" class="st10" d="M197.4-84.9c1.3,2,3.5,3.4,5.9,3.9c2.3,0.4,4.7,0.4,7,0.2"/>
							<path id="Path_4419-3" class="st11" d="M234-202.8c-0.2,1.7-0.1,3.4,0.4,5"/>
							<path id="Path_4420-3" class="st11" d="M237.7-204.1l0.2,4c0,0.5,0.1,1,0.2,1.4"/>
							<path id="Path_4421-3" class="st11" d="M244.8-204.8c0.2,1.3,0.3,2.6,0.3,3.9"/>
							<path id="Path_4422-3" class="st11" d="M241-204.3l0.2,3.1"/>
							<path id="Path_4423-3" class="st11" d="M249.4-204.8v3.8"/>
							<path id="Path_4424-3" class="st11" d="M255-204.8c-0.2,1.3-0.5,2.6-0.9,3.9"/>
							<path id="Path_4425-3" class="st11" d="M259.6-203.8c-0.3,1.4-0.6,2.8-0.9,4.3"/>
						</g>
						<g id="Group_2-4">
							<path id="Path_4412-4" class="st0" d="M364.5-67.2l-0.2,0.3l-0.3,0.4l-0.5,0.8c-0.7,0.9-1.4,1.8-2.2,2.6
								c-0.4,0.4-0.8,0.8-1.2,1.3l-0.1,0.1l0,0l-0.7,0.7c-2.1,1.8-4.2,3.5-6.5,5l-1,0.7c-0.5-7.5-1-15-1.5-22.6
								c0.4,0.3,0.7,0.6,1.1,0.9c2,1.7,4.2,3.3,6.3,4.8c2.1,1.5,4.2,3,6.5,4.3l0.3,0.2C364.4-67.6,364.4-67.4,364.5-67.2z"/>
							<path id="Path_4413-4" class="st5" d="M389.1-90.5l-1.1,0.7l-1,0.7c-2.5,1.7-5,3.3-7.3,5.2c-1.6,1.3-3.1,2.8-4.6,4.3l-1.1,1
								l-0.5,0.4l-0.2,0.2c-0.9,0.8-1.8,1.6-2.7,2.3c-0.6,0.5-1.2,0.9-1.9,1.3c0.2-0.1-0.3,0.1-0.6,0.3H368l-0.2-0.1
								c-0.3-0.2-0.6-0.3-0.9-0.5c-0.5-0.3-1-0.6-1.5-1c-1-0.7-2.1-1.3-3.1-2c-4.1-2.8-8-6-11.5-9.5c-0.4-0.4-0.8-0.8-1.1-1.2
								c-0.1-1.9-0.2-3.7-0.3-5.6c-0.1-1.3,0.5-2.6,1.5-3.4c1.3-1.1,2.9-1.9,4.5-2.3c9.6-2.6,19.2-3.2,27.9-1.5
								c5.4,1.4,5.7,1.7,5.8,6.5C389.1-93.2,389.1-91.9,389.1-90.5z"/>
							<path id="Path_4414-4" class="st0" d="M389.7-60.4l-1-0.4l-0.4-0.1l-0.5-0.2l-0.6-0.3l-1.6-0.6c-1.1-0.5-2.2-1-3.3-1.5
								c-3.1-1.5-6.1-3.2-9-5.1c3.3-2.1,6-5.2,8.9-8c0,0,0.5-0.4,0.6-0.6c0.3-0.3,0.6-0.5,1-0.8c1.3-1,2.6-1.8,3.9-2.7l0.5-0.3
								l1.1-0.7c0,5,0,10.1,0.2,15.1C389.4-64.6,389.5-62.5,389.7-60.4z"/>
							<path id="Path_4415-4" class="st8" d="M390.6-51.2c-0.4,0.1-0.7,0.3-1,0.4c-5.4,2.3-9.6,6.9-14.7,10
								c-0.3,0.2-0.6,0.3-0.9,0.5l0,0l-0.4,0.2c-0.7,0.3-1.4,0.6-2.1,0.8l-0.7,0.2l-0.7,0.1c-0.7,0.1-1.5,0.1-2.2,0h-0.4l-1-0.1
								c-0.8-0.1-1.5-0.2-2.3-0.3c-1.5-0.2-3-0.5-4.5-0.9c-0.9-0.2-1.7-0.5-2.5-0.8l-0.5-0.2h-0.1c-0.4-0.2-0.8-0.3-1.2-0.5
								c-0.7-0.3-1.4-0.7-2-1.1h-0.1c-0.1-0.1-0.2-0.1-0.3-0.2h-0.1l-0.5-0.5c0.1-0.9,0.1-1.9,0-2.8c0-0.2,0-0.4,0-0.6l0.9-0.6
								c6-4,12.4-8.4,16.4-14.7c6.2,4,12.8,7.2,19.7,9.5l1.1,0.4C390.5-52.1,390.6-51.6,390.6-51.2z"/>
							<path id="Path_4416-4" class="st9" d="M369.2,3.3c-1.4,2.5-2.6,5.1-3.8,7.8c-2.6,6-5.2,12.1-8.9,17.5
								c-5.9,8.5-13.8,11.5-23.3,9.5c-7.6-1.5-12.3-7.4-13.4-16.1c-0.7-6.6,0.5-13.3,3.5-19.2c3.6-7.4,8.4-13.9,13.1-20.4
								c4.4-6,9-11.8,13.1-18c0.2-0.3,0.4-0.6,0.6-1c0.3,0.2,0.6,0.4,0.9,0.5c1.7,0.9,3.5,1.7,5.4,2.3c2.1,0.7,4.2,1.2,6.3,1.5
								c1.7,0.9,3.4,1.8,4.1,3.7c0.3,0.9,0.6,1.8,0.8,2.7C368-16.7,368-7.6,369,1.4C369.1,2,369.1,2.7,369.2,3.3z"/>
							<path id="Path_4417-4" class="st0" d="M391.7-18.1c-1.6,1.4-3.2,2.6-5,3.7c-4,2.6-7.9,5.2-11.3,8.8l-0.2,0.2
								c0-0.5-0.1-1-0.1-1.4c-0.4-7.1-0.4-14.1-0.7-21.2c0.5-2,1.4-4,2.6-5.7c2.7-1.5,5.2-3.3,7.5-5.3c1.5-1.2,2.9-2.3,4.5-3.3
								c0.4-0.3,0.8-0.5,1.2-0.8l0.5-0.3h0.1l0,0h0.1l0.9-0.4c0.6,3.6,1.4,7.2,2.4,10.7c0.5,1.9,0.8,3.9,1,5.9
								C395.5-23.7,394.2-20.3,391.7-18.1z"/>
							<path id="Path_4418-4" class="st10" d="M319.6,18.4c1.3,2,3.5,3.4,5.9,3.9c2.3,0.4,4.7,0.4,7,0.2"/>
							<path id="Path_4419-4" class="st11" d="M356.3-99.4c-0.2,1.7-0.1,3.4,0.4,5"/>
							<path id="Path_4420-4" class="st11" d="M360-100.7l0.2,4c0,0.5,0.1,1,0.2,1.4"/>
							<path id="Path_4421-4" class="st11" d="M367-101.4c0.2,1.3,0.3,2.7,0.3,4"/>
							<path id="Path_4422-4" class="st11" d="M363.3-101l0.2,3.1"/>
							<path id="Path_4423-4" class="st11" d="M371.7-101.5v3.9"/>
							<path id="Path_4424-4" class="st11" d="M377.3-101.5c-0.2,1.3-0.5,2.6-0.9,3.9"/>
							<path id="Path_4425-4" class="st11" d="M381.8-100.5c-0.3,1.4-0.6,2.8-0.9,4.3"/>
						</g>
						<g id="Group_2-5">
							<path id="Path_4412-5" class="st0" d="M277.3,124.9c0,0.1-0.1,0.2-0.2,0.3s-0.3,0.4-0.3,0.4c-0.2,0.3-0.4,0.5-0.5,0.8
								c-0.7,0.9-1.4,1.8-2.2,2.6c-0.4,0.4-0.8,0.9-1.3,1.3l-0.1,0.1l0,0c-0.2,0.2-0.5,0.4-0.7,0.6c-2,1.8-4.2,3.5-6.5,5l-1,0.7
								c-0.5-7.5-1-15-1.4-22.6c0.4,0.3,0.7,0.6,1.1,0.9c2,1.7,4.2,3.2,6.3,4.8c2.1,1.5,4.2,2.9,6.5,4.3l0.3,0.2
								C277.2,124.5,277.2,124.7,277.3,124.9z"/>
							<path id="Path_4413-5" class="st5" d="M301.9,101.6l-1.1,0.8l-1,0.7c-2.5,1.7-5,3.3-7.3,5.2c-1.6,1.3-3.1,2.8-4.6,4.3
								c-0.4,0.3-0.7,0.7-1.1,1c0,0.1-0.4,0.4-0.4,0.4l-0.2,0.2c-0.9,0.8-1.8,1.6-2.7,2.3c-0.6,0.5-1.2,0.9-1.9,1.3
								c0.2-0.1-0.3,0.1-0.6,0.3h-0.1l-0.2-0.1l-0.9-0.5c-0.5-0.3-1-0.6-1.5-1c-1-0.7-2.1-1.3-3.1-2c-4.1-2.8-8-5.9-11.6-9.4
								c-0.4-0.4-0.8-0.8-1.2-1.2c-0.1-1.9-0.1-3.7-0.3-5.6c-0.1-1.3,0.5-2.6,1.5-3.4c1.3-1.1,2.9-1.9,4.5-2.3
								c9.6-2.6,19.2-3.2,27.9-1.5c5.4,1.4,5.7,1.7,5.7,6.5C301.9,98.8,301.9,100.2,301.9,101.6z"/>
							<path id="Path_4414-5" class="st0" d="M302.5,131.7l-1-0.4l-0.4-0.1l-0.5-0.2l-0.6-0.3c-0.5-0.2-1.1-0.4-1.6-0.7
								c-1.1-0.5-2.2-1-3.3-1.5c-3.1-1.5-6.1-3.2-9-5.1c3.3-2.1,6-5.2,8.9-8l0.6-0.6c0.3-0.3,0.6-0.5,1-0.8c1.3-1,2.6-1.8,3.9-2.7
								l0.5-0.3l1.1-0.7c0,5,0,10.1,0.2,15.1C302.2,127.5,302.3,129.6,302.5,131.7z"/>
							<path id="Path_4415-5" class="st8" d="M303.4,140.9c-0.3,0.1-0.7,0.3-1,0.4c-5.4,2.3-9.6,6.9-14.7,10l-0.9,0.5l0,0l-0.4,0.2
								c-0.7,0.3-1.4,0.6-2.1,0.8l-0.7,0.2l-0.7,0.1c-0.7,0.1-1.5,0.1-2.2,0h-0.4l-1-0.1c-0.8-0.1-1.5-0.2-2.3-0.3
								c-1.5-0.2-3-0.5-4.5-0.9c-0.9-0.2-1.7-0.5-2.5-0.8l-0.5-0.2h-0.1l-1.2-0.6c-0.7-0.3-1.4-0.7-2-1.1l-0.1-0.1l-0.3-0.2l0,0
								c-0.2-0.2-0.4-0.3-0.5-0.5c0.1-0.9,0.1-1.9,0-2.8c0-0.2,0-0.4,0-0.6l0.9-0.6c6-4,12.4-8.4,16.4-14.7c6.2,4,12.8,7.2,19.7,9.5
								l1.1,0.4C303.3,140,303.4,140.4,303.4,140.9z"/>
							<path id="Path_4416-5" class="st9" d="M282,195.3c-1.4,2.5-2.6,5.1-3.8,7.8c-2.6,6-5.2,12.1-8.9,17.5
								c-5.9,8.5-13.8,11.5-23.3,9.5c-7.6-1.5-12.3-7.4-13.4-16.1c-0.8-6.6,0.5-13.3,3.5-19.2c3.6-7.4,8.4-13.9,13.1-20.4
								c4.4-6,9-11.8,13.1-18c0.2-0.3,0.4-0.6,0.6-1c0.3,0.2,0.6,0.4,0.9,0.5c1.7,0.9,3.5,1.7,5.4,2.3c2.1,0.7,4.2,1.2,6.3,1.5
								c1.7,0.9,3.4,1.8,4.1,3.7c0.3,0.9,0.6,1.8,0.8,2.7c0.3,9.1,0.3,18.2,1.3,27.2C281.9,194.1,281.9,194.7,282,195.3z"/>
							<path id="Path_4417-5" class="st0" d="M304.5,174c-1.6,1.4-3.2,2.6-5,3.7c-4,2.6-7.9,5.2-11.3,8.8l-0.2,0.2l-0.1-1.4
								c-0.4-7.1-0.4-14.1-0.7-21.2c0.5-2,1.4-4,2.6-5.7c2.6-1.5,5.2-3.3,7.5-5.3c1.5-1.2,2.9-2.3,4.5-3.3c0.4-0.3,0.8-0.5,1.2-0.7
								l0.5-0.3h0.1l0,0h0.1c0.3-0.1,0.6-0.3,0.9-0.4c0.7,3.6,1.5,7.2,2.4,10.7c0.5,1.9,0.8,3.9,1,5.9
								C308.3,168.4,307,171.7,304.5,174z"/>
							<path id="Path_4418-5" class="st10" d="M232.4,210.5c1.3,2,3.5,3.4,5.9,3.9c2.3,0.4,4.7,0.4,7,0.2"/>
							<path id="Path_4419-5" class="st11" d="M269.1,92.6c-0.2,1.7-0.1,3.4,0.4,5"/>
							<path id="Path_4420-5" class="st11" d="M272.8,91.3l0.2,4c0,0.5,0.1,1,0.2,1.4"/>
							<path id="Path_4421-5" class="st11" d="M279.8,90.7c0.2,1.3,0.3,2.7,0.3,4"/>
							<path id="Path_4422-5" class="st11" d="M276.1,91.1l0.2,3.1"/>
							<path id="Path_4423-5" class="st11" d="M284.5,90.6v3.9"/>
							<path id="Path_4424-5" class="st11" d="M290.1,90.6c-0.2,1.3-0.5,2.7-0.9,4"/>
							<path id="Path_4425-5" class="st11" d="M294.6,91.6c-0.3,1.4-0.6,2.8-0.9,4.3"/>
						</g>
						<g id="Group_2-6">
							<path id="Path_4412-6" class="st0" d="M461.7,32.4c0,0.1-0.1,0.2-0.2,0.3s-0.3,0.4-0.3,0.4c-0.2,0.3-0.4,0.5-0.6,0.8
								c-0.7,0.9-1.4,1.8-2.1,2.6c-0.4,0.4-0.8,0.9-1.3,1.3l-0.1,0.1l0,0c-0.2,0.2-0.5,0.4-0.7,0.7c-2,1.8-4.2,3.5-6.5,5l-1,0.7
								c-0.5-7.5-1-15-1.4-22.6c0.4,0.3,0.7,0.6,1.1,0.9c2,1.7,4.2,3.2,6.3,4.8c2.1,1.5,4.2,2.9,6.5,4.3l0.3,0.1
								C461.6,31.9,461.6,32.2,461.7,32.4z"/>
							<path id="Path_4413-6" class="st5" d="M486.4,9.1l-1.1,0.8l-1,0.7c-2.5,1.7-5,3.3-7.3,5.2c-1.6,1.3-3.1,2.8-4.6,4.3
								c-0.4,0.4-0.7,0.7-1.1,1l-0.4,0.4l-0.2,0.2c-0.9,0.8-1.8,1.6-2.7,2.3c-0.6,0.5-1.2,0.9-1.8,1.3c0.2-0.1-0.3,0.1-0.6,0.3h-0.1
								l-0.2-0.1l-0.9-0.5c-0.5-0.3-1-0.6-1.5-1c-1-0.7-2.1-1.3-3.1-2c-4.1-2.8-8-5.9-11.6-9.4c-0.4-0.4-0.8-0.8-1.2-1.2
								c-0.1-1.9-0.1-3.7-0.3-5.6c-0.1-1.3,0.5-2.6,1.5-3.4c1.4-1.1,2.9-1.8,4.6-2.3c9.6-2.6,19.2-3.2,27.9-1.5
								c5.4,1.4,5.7,1.7,5.8,6.5C486.3,6.3,486.3,7.7,486.4,9.1z"/>
							<path id="Path_4414-6" class="st0" d="M486.9,39.1l-1-0.4l-0.4-0.1l-0.5-0.2l-0.6-0.3c-0.5-0.2-1.1-0.4-1.6-0.7
								c-1.1-0.5-2.2-1-3.3-1.5c-3.1-1.5-6.1-3.2-9-5.1c3.3-2.1,6-5.2,8.9-8l0.6-0.6c0.3-0.3,0.6-0.5,1-0.8c1.3-1,2.6-1.8,3.9-2.7
								l0.5-0.3l1.1-0.7c0,5,0,10.1,0.2,15.1C486.7,35,486.8,37.1,486.9,39.1z"/>
							<path id="Path_4415-6" class="st8" d="M487.8,48.4c-0.3,0.1-0.7,0.3-1,0.4c-5.4,2.3-9.6,6.9-14.7,10l-0.9,0.5l0,0l-0.4,0.2
								c-0.7,0.3-1.4,0.6-2.1,0.8l-0.7,0.2l-0.7,0.1c-0.7,0.1-1.5,0.1-2.2,0h-0.4l-1-0.1c-0.8-0.1-1.5-0.2-2.3-0.3
								c-1.5-0.3-3-0.5-4.5-1c-0.9-0.2-1.7-0.5-2.5-0.8l-0.5-0.2h-0.1l-1.2-0.5c-0.7-0.3-1.4-0.7-2-1.1l-0.1-0.1l-0.3-0.2l0,0
								l-0.5-0.5c0.1-0.9,0.1-1.9,0-2.8c0-0.2,0-0.4,0-0.6l0.9-0.6c6-4,12.4-8.4,16.4-14.7c6.2,4,12.8,7.2,19.7,9.5l1.1,0.4
								C487.7,47.5,487.8,47.9,487.8,48.4z"/>
							<path id="Path_4416-6" class="st9" d="M466.5,102.8c-1.4,2.5-2.6,5.1-3.8,7.8c-2.6,6-5.2,12.1-8.9,17.5
								c-5.9,8.5-13.8,11.5-23.3,9.5c-7.6-1.5-12.3-7.4-13.4-16.1c-0.8-6.6,0.5-13.3,3.5-19.2c3.6-7.4,8.4-13.9,13.1-20.4
								c4.4-6,9-11.8,13.1-18c0.2-0.3,0.4-0.6,0.6-1c0.3,0.2,0.6,0.4,0.9,0.5c1.7,0.9,3.5,1.7,5.4,2.3c2.1,0.7,4.2,1.2,6.4,1.6
								c1.7,0.9,3.4,1.8,4.1,3.7c0.3,0.9,0.6,1.8,0.8,2.7c0.3,9.1,0.3,18.2,1.3,27.2C466.3,101.6,466.4,102.2,466.5,102.8z"/>
							<path id="Path_4417-6" class="st0" d="M488.9,81.5c-1.6,1.4-3.2,2.6-5,3.7c-4,2.6-7.9,5.2-11.3,8.8c-0.1,0.1-0.1,0.2-0.2,0.2
								l-0.1-1.4c-0.4-7.1-0.4-14.1-0.7-21.2c0.5-2,1.4-4,2.6-5.7c2.6-1.5,5.2-3.3,7.5-5.3c1.5-1.2,2.9-2.3,4.5-3.3
								c0.4-0.3,0.8-0.5,1.2-0.8l0.5-0.3h0.1l0,0h0.1c0.3-0.2,0.6-0.3,0.9-0.4c0.7,3.6,1.5,7.2,2.4,10.7c0.5,1.9,0.8,3.9,1,5.9
								C492.7,75.9,491.5,79.2,488.9,81.5z"/>
							<path id="Path_4418-6" class="st10" d="M416.9,118c1.3,2,3.5,3.4,5.9,3.9c2.3,0.4,4.7,0.4,7,0.2"/>
							<path id="Path_4419-6" class="st11" d="M453.5,0.1c-0.2,1.7-0.1,3.4,0.4,5"/>
							<path id="Path_4420-6" class="st11" d="M457.2-1.2l0.2,4c0,0.5,0.1,1,0.2,1.4"/>
							<path id="Path_4421-6" class="st11" d="M464.3-1.9c0.2,1.3,0.3,2.7,0.3,4"/>
							<path id="Path_4422-6" class="st11" d="M460.5-1.4l0.2,3.1"/>
							<path id="Path_4423-6" class="st11" d="M468.9-1.9V2"/>
							<path id="Path_4424-6" class="st11" d="M474.5-1.9c-0.2,1.3-0.5,2.6-0.9,3.9"/>
							<path id="Path_4425-6" class="st11" d="M479.1-0.9c-0.2,1.4-0.6,2.9-0.9,4.3"/>
						</g>
						<g id="Group_2-7">
							<path id="Path_4412-7" class="st0" d="M512.8-172.1c0,0.1-0.1,0.2-0.2,0.3l-0.3,0.4c-0.2,0.3-0.4,0.5-0.6,0.8
								c-0.7,0.9-1.4,1.8-2.1,2.6c-0.4,0.4-0.8,0.9-1.3,1.3l-0.1,0.1l0,0c-0.2,0.2-0.5,0.4-0.7,0.6c-2,1.8-4.2,3.5-6.5,5l-1,0.7
								c-0.5-7.5-1-15-1.4-22.6c0.4,0.3,0.7,0.6,1.1,0.9c2,1.7,4.2,3.3,6.3,4.8c2.1,1.5,4.2,3,6.4,4.3c0.1,0.1,0.2,0.1,0.3,0.1
								C512.7-172.6,512.8-172.4,512.8-172.1z"/>
							<path id="Path_4413-7" class="st5" d="M537.5-195.5l-1.1,0.8l-1,0.7c-2.5,1.7-5,3.3-7.3,5.2c-1.6,1.3-3.1,2.9-4.6,4.3l-1.1,1
								l-0.4,0.4l-0.2,0.2c-0.9,0.8-1.8,1.6-2.7,2.3c-0.6,0.5-1.2,0.9-1.8,1.3c0.2-0.1-0.3,0.1-0.6,0.3h-0.1l-0.2-0.1
								c-0.3-0.2-0.6-0.3-0.9-0.5c-0.5-0.3-1-0.6-1.5-1c-1-0.7-2.1-1.3-3.1-2c-4.1-2.8-8-6-11.5-9.5c-0.4-0.4-0.8-0.8-1.2-1.2
								c-0.1-1.9-0.1-3.7-0.3-5.6c-0.1-1.3,0.5-2.6,1.5-3.4c1.3-1.1,2.9-1.9,4.6-2.3c9.6-2.6,19.2-3.2,27.9-1.5
								c5.5,1.4,5.7,1.7,5.8,6.5C537.5-198.2,537.5-196.8,537.5-195.5z"/>
							<path id="Path_4414-7" class="st0" d="M538-165.4l-1-0.4l-0.4-0.1l-0.5-0.2l-0.6-0.3c-0.5-0.2-1.1-0.4-1.6-0.7
								c-1.1-0.5-2.2-1-3.3-1.5c-3.1-1.5-6.1-3.2-9-5.1c3.3-2.1,6-5.2,8.9-8l0.7-0.6c0.3-0.3,0.6-0.5,1-0.8c1.3-1,2.6-1.8,3.9-2.7
								l0.5-0.3l1.1-0.7c0,5,0,10.1,0.2,15.1C537.8-169.6,537.9-167.5,538-165.4z"/>
							<path id="Path_4415-7" class="st8" d="M539-156.1c-0.3,0.1-0.7,0.3-1,0.4c-5.4,2.3-9.6,6.9-14.7,10l-0.9,0.5l0,0L522-145
								c-0.7,0.3-1.4,0.6-2.1,0.8l-0.7,0.2l-0.7,0.1c-0.7,0.1-1.5,0.1-2.2,0h-0.4L515-144c-0.8-0.1-1.5-0.2-2.3-0.3
								c-1.5-0.3-3-0.6-4.5-0.9c-0.9-0.2-1.7-0.5-2.5-0.8l-0.5-0.2H505c-0.4-0.2-0.8-0.4-1.2-0.6c-0.7-0.3-1.4-0.7-2-1.1l-0.1-0.1
								l-0.3-0.2v-0.1l-0.5-0.5c0.1-0.9,0.1-1.9,0-2.8v-0.6l0.9-0.6c6-4,12.4-8.4,16.4-14.7c6.2,4,12.8,7.2,19.7,9.5
								c0.4,0.1,0.7,0.3,1.1,0.4C538.8-157.1,538.9-156.6,539-156.1z"/>
							<path id="Path_4416-7" class="st9" d="M517.6-101.7c-1.4,2.5-2.6,5.2-3.8,7.8c-2.6,6-5.2,12.1-8.9,17.5
								c-5.9,8.5-13.8,11.5-23.3,9.6c-7.6-1.6-12.3-7.4-13.4-16.1c-0.8-6.6,0.5-13.3,3.5-19.2c3.6-7.4,8.4-13.8,13.1-20.3
								c4.4-6,9-11.8,13.1-18c0.2-0.3,0.4-0.6,0.6-1c0.3,0.2,0.6,0.4,0.9,0.5c1.7,0.9,3.5,1.7,5.4,2.3c2.1,0.7,4.2,1.2,6.3,1.5
								c1.7,0.9,3.4,1.8,4.1,3.7c0.3,0.9,0.6,1.8,0.8,2.7c0.3,9.1,0.3,18.2,1.3,27.2C517.4-102.9,517.5-102.3,517.6-101.7z"/>
							<path id="Path_4417-7" class="st0" d="M540-123c-1.6,1.4-3.2,2.6-5,3.7c-4,2.6-7.9,5.2-11.3,8.8l-0.2,0.2l-0.1-1.4
								c-0.4-7.1-0.4-14.2-0.7-21.2c0.5-2,1.4-4,2.6-5.7c2.6-1.5,5.2-3.3,7.5-5.3c1.5-1.2,2.9-2.3,4.5-3.3c0.4-0.3,0.8-0.5,1.2-0.8
								l0.5-0.3h0.1l0,0h0.1l0.9-0.4c0.7,3.6,1.5,7.2,2.4,10.8c0.5,1.9,0.8,3.9,1,5.9C543.8-128.6,542.5-125.3,540-123z"/>
							<path id="Path_4418-7" class="st10" d="M468-86.6c1.3,2,3.5,3.4,5.9,3.9c2.3,0.4,4.7,0.4,7,0.2"/>
							<path id="Path_4419-7" class="st11" d="M504.6-204.4c-0.2,1.7-0.1,3.4,0.4,5"/>
							<path id="Path_4420-7" class="st11" d="M508.3-205.7l0.2,4c0,0.5,0.1,1,0.2,1.4"/>
							<path id="Path_4421-7" class="st11" d="M515.4-206.4c0.2,1.3,0.3,2.6,0.3,3.9"/>
							<path id="Path_4422-7" class="st11" d="M511.6-205.9l0.2,3.1"/>
							<path id="Path_4423-7" class="st11" d="M520-206.5v3.9"/>
							<path id="Path_4424-7" class="st11" d="M525.6-206.4c-0.2,1.3-0.5,2.6-0.9,3.9"/>
							<path id="Path_4425-7" class="st11" d="M530.2-205.5c-0.3,1.4-0.6,2.8-0.9,4.3"/>
						</g>
						<g id="Group_2-8">
							<path id="Path_4412-8" class="st0" d="M613.5-59.6c-0.1,0.1-0.1,0.2-0.2,0.3c-0.1,0.1-0.3,0.4-0.3,0.4
								c-0.2,0.3-0.4,0.5-0.5,0.8c-0.7,0.9-1.4,1.8-2.2,2.6c-0.4,0.4-0.8,0.9-1.2,1.3l-0.1,0.1l0,0l-0.7,0.7c-2,1.8-4.2,3.5-6.5,5
								l-1,0.7c-0.5-7.5-1-15-1.5-22.6l1.1,0.9c2,1.7,4.2,3.3,6.3,4.8s4.2,3,6.5,4.3c0.1,0.1,0.2,0.1,0.3,0.2
								C613.5-60.1,613.5-59.8,613.5-59.6z"/>
							<path id="Path_4413-8" class="st5" d="M638.2-82.9l-1.1,0.8l-1,0.7c-2.5,1.7-5,3.3-7.3,5.2c-1.6,1.3-3.1,2.8-4.6,4.3l-1.1,1
								l-0.5,0.4l-0.2,0.2c-0.9,0.8-1.8,1.6-2.7,2.3c-0.6,0.5-1.2,0.9-1.9,1.3c0.2-0.1-0.3,0.1-0.6,0.3h-0.1l-0.2-0.1L616-67
								c-0.5-0.3-1-0.6-1.5-1c-1-0.7-2.1-1.3-3.1-2c-4.1-2.8-8-6-11.5-9.5c-0.4-0.4-0.8-0.8-1.2-1.2c-0.1-1.9-0.2-3.7-0.3-5.6
								c-0.1-1.3,0.5-2.5,1.5-3.3c1.3-1.1,2.9-1.9,4.5-2.3c9.6-2.6,19.2-3.2,27.9-1.5c5.4,1.4,5.7,1.7,5.8,6.5
								C638.2-85.7,638.2-84.3,638.2-82.9z"/>
							<path id="Path_4414-8" class="st0" d="M638.8-52.8l-1-0.4l-0.4-0.2l-0.5-0.2l-0.6-0.2l-1.6-0.7c-1.1-0.5-2.2-1-3.3-1.5
								c-3.1-1.5-6.1-3.2-9-5.1c3.3-2.1,6-5.2,8.9-8c0,0,0.5-0.5,0.7-0.6s0.6-0.5,1-0.8c1.3-1,2.6-1.8,3.9-2.7l0.5-0.3l1.1-0.7
								c0,5,0,10.1,0.2,15.1C638.5-57.1,638.6-54.9,638.8-52.8z"/>
							<path id="Path_4415-8" class="st8" d="M639.7-43.6c-0.3,0.1-0.7,0.3-1,0.4c-5.4,2.3-9.7,6.9-14.7,10l-0.9,0.5l0,0l-0.4,0.2
								c-0.7,0.3-1.4,0.6-2.1,0.8l-0.7,0.2l-0.7,0.1c-0.7,0.1-1.5,0.1-2.2,0h-0.4l-1-0.1c-0.8-0.1-1.5-0.2-2.3-0.3
								c-1.5-0.3-3-0.5-4.5-1c-0.8-0.2-1.7-0.5-2.5-0.8l-0.5-0.2h-0.1c-0.4-0.2-0.8-0.3-1.2-0.5c-0.7-0.3-1.4-0.7-2-1.1h-0.1
								l-0.3-0.2l-0.1-0.1l-0.5-0.5c0.1-0.9,0.1-1.9,0-2.8c0-0.2,0-0.4,0-0.6l0.9-0.6c6-4,12.4-8.4,16.4-14.7
								c6.2,4,12.8,7.2,19.7,9.5c0.4,0.1,0.7,0.3,1.1,0.4C639.6-44.5,639.6-44.1,639.7-43.6z"/>
							<path id="Path_4416-8" class="st9" d="M618.3,10.8c-1.4,2.5-2.6,5.1-3.8,7.8c-2.7,6.1-5.2,12.1-8.9,17.5
								c-5.9,8.5-13.8,11.5-23.3,9.5c-7.6-1.5-12.3-7.4-13.4-16.1c-0.7-6.6,0.5-13.3,3.5-19.2C576,3,580.8-3.5,585.6-10
								c4.4-6,9-11.8,13.1-18c0.2-0.3,0.4-0.7,0.6-1l0.9,0.5c1.7,0.9,3.5,1.7,5.3,2.3c2.1,0.7,4.2,1.2,6.3,1.5
								c1.7,0.9,3.4,1.8,4.2,3.7c0.3,0.9,0.6,1.8,0.8,2.7C617.1-9.1,617,0,618.1,9C618.1,9.6,618.2,10.2,618.3,10.8z"/>
							<path id="Path_4417-8" class="st0" d="M640.8-10.5c-1.6,1.4-3.2,2.6-5,3.7c-4,2.6-7.9,5.2-11.3,8.8c-0.1,0.1-0.1,0.2-0.2,0.2
								c0-0.5-0.1-0.9-0.1-1.4c-0.4-7-0.4-14.1-0.7-21.2c0.5-2,1.4-4,2.6-5.7c2.6-1.5,5.2-3.3,7.5-5.3c1.5-1.2,2.9-2.3,4.5-3.3
								c0.4-0.3,0.8-0.5,1.2-0.8l0.5-0.3h0.1l0,0h0.1c0.3-0.2,0.6-0.3,0.9-0.4c0.7,3.6,1.4,7.2,2.4,10.8c0.5,1.9,0.8,3.9,1,5.9
								C644.6-16.1,643.3-12.8,640.8-10.5z"/>
							<path id="Path_4418-8" class="st10" d="M568.7,26c1.3,2,3.5,3.4,5.9,3.9c2.3,0.4,4.7,0.4,7,0.1"/>
							<path id="Path_4419-8" class="st11" d="M605.4-91.9c-0.2,1.7-0.1,3.4,0.4,5"/>
							<path id="Path_4420-8" class="st11" d="M609.1-93.2l0.2,4c0,0.5,0.1,1,0.2,1.4"/>
							<path id="Path_4421-8" class="st11" d="M616.1-93.8c0.2,1.3,0.3,2.7,0.3,4"/>
							<path id="Path_4422-8" class="st11" d="M612.4-93.4l0.2,3.1"/>
							<path id="Path_4423-8" class="st11" d="M620.8-93.9v3.9"/>
							<path id="Path_4424-8" class="st11" d="M626.3-93.9c-0.2,1.3-0.5,2.6-0.9,3.9"/>
							<path id="Path_4425-8" class="st11" d="M630.9-92.9c-0.2,1.4-0.6,2.9-0.9,4.3"/>
						</g>
						<g id="Group_2-9">
							<path id="Path_4412-9" class="st0" d="M582,126c0,0.1-0.1,0.2-0.2,0.3l-0.3,0.4c-0.2,0.3-0.4,0.5-0.6,0.8
								c-0.7,0.9-1.4,1.8-2.2,2.6c-0.4,0.4-0.8,0.9-1.3,1.3l-0.1,0.1l0,0c-0.2,0.2-0.5,0.4-0.7,0.6c-2,1.8-4.2,3.5-6.5,5l-1,0.7
								c-0.5-7.5-1-15-1.4-22.6c0.4,0.3,0.7,0.6,1.1,0.9c2,1.7,4.2,3.3,6.3,4.8s4.2,3,6.5,4.3l0.3,0.2
								C581.9,125.5,582,125.8,582,126z"/>
							<path id="Path_4413-9" class="st5" d="M606.6,102.7l-1.1,0.8l-1,0.7c-2.5,1.7-5,3.3-7.3,5.2c-1.6,1.3-3.1,2.8-4.6,4.3
								c-0.4,0.3-0.7,0.7-1.1,1L591,115l-0.2,0.2c-0.9,0.8-1.8,1.6-2.7,2.3c-0.6,0.5-1.2,0.9-1.8,1.3c0.2-0.1-0.3,0.1-0.6,0.3h-0.1
								l-0.2-0.1l-0.9-0.5c-0.5-0.3-1-0.6-1.5-1c-1-0.7-2.1-1.3-3.1-2c-4.1-2.8-8-6-11.5-9.5c-0.4-0.4-0.8-0.8-1.2-1.2
								c-0.1-1.9-0.2-3.7-0.3-5.6c-0.1-1.3,0.5-2.6,1.5-3.4c1.4-1,2.9-1.8,4.6-2.3c9.6-2.6,19.2-3.2,27.9-1.5
								c5.4,1.4,5.7,1.7,5.7,6.5C606.6,99.9,606.6,101.3,606.6,102.7z"/>
							<path id="Path_4414-9" class="st0" d="M607.2,132.7l-1-0.4l-0.4-0.1l-0.5-0.2l-0.6-0.2c-0.5-0.2-1.1-0.4-1.6-0.7
								c-1.1-0.5-2.2-1-3.3-1.5c-3.1-1.5-6.1-3.2-9-5.1c3.3-2.1,6-5.2,8.9-7.9l0.7-0.6c0.3-0.3,0.6-0.5,1-0.8c1.3-1,2.6-1.8,3.9-2.7
								l0.5-0.3l1.1-0.7c0,5,0,10.1,0.2,15.1C606.9,128.6,607,130.7,607.2,132.7z"/>
							<path id="Path_4415-9" class="st8" d="M608.1,142c-0.3,0.1-0.7,0.3-1,0.4c-5.4,2.3-9.6,6.9-14.7,10l-0.9,0.5l0,0l-0.3,0.2
								c-0.7,0.4-1.4,0.7-2.2,0.9l-0.7,0.2c-0.2,0-0.6,0.1-0.7,0.1c-0.7,0.1-1.5,0.1-2.2,0H585l-1-0.1c-0.8-0.1-1.5-0.2-2.3-0.3
								c-1.5-0.3-3-0.6-4.5-0.9c-0.8-0.2-1.7-0.5-2.5-0.8l-0.5-0.2h-0.1c-0.4-0.2-0.8-0.4-1.2-0.6c-0.7-0.3-1.4-0.7-2-1.1l-0.1-0.1
								l-0.3-0.2v-0.1l-0.5-0.5c0.1-0.9,0.1-1.9,0-2.8c0-0.2,0-0.4,0-0.6l0.9-0.6c6-4,12.4-8.4,16.4-14.7c6.2,4,12.8,7.2,19.7,9.5
								l1.1,0.4C608,141.1,608.1,141.5,608.1,142z"/>
							<path id="Path_4416-9" class="st9" d="M586.7,196.4c-1.4,2.5-2.6,5.1-3.8,7.8c-2.6,6.1-5.2,12.1-8.9,17.5
								c-5.9,8.5-13.8,11.5-23.3,9.5c-7.6-1.5-12.3-7.4-13.4-16.1c-0.7-6.6,0.5-13.3,3.5-19.2c3.6-7.4,8.4-13.9,13.1-20.4
								c4.4-6,9-11.8,13.1-18c0.2-0.3,0.4-0.6,0.6-1c0.3,0.2,0.6,0.4,0.9,0.5c1.7,0.9,3.5,1.7,5.3,2.3c2.1,0.7,4.2,1.2,6.3,1.5
								c1.7,0.9,3.4,1.8,4.2,3.7c0.3,0.9,0.6,1.8,0.8,2.7c0.3,9.1,0.3,18.2,1.3,27.2C586.6,195.2,586.7,195.8,586.7,196.4z"/>
							<path id="Path_4417-9" class="st0" d="M609.2,175.1c-1.6,1.4-3.2,2.6-5,3.7c-4,2.6-7.9,5.2-11.3,8.8l-0.2,0.2l-0.1-1.4
								c-0.4-7-0.4-14.1-0.7-21.2c0.5-2,1.4-4,2.6-5.7c2.6-1.5,5.2-3.3,7.5-5.3c1.5-1.2,2.9-2.3,4.5-3.3c0.4-0.3,0.8-0.5,1.2-0.8
								l0.5-0.3h0.1l0,0h0.1l0.9-0.4c0.7,3.6,1.5,7.2,2.4,10.8c0.5,1.9,0.8,3.9,1,5.9C613,169.5,611.7,172.8,609.2,175.1z"/>
							<path id="Path_4418-9" class="st10" d="M537.1,211.6c1.3,2,3.5,3.4,5.8,3.9c2.3,0.4,4.7,0.4,7,0.1"/>
							<path id="Path_4419-9" class="st11" d="M573.8,93.7c-0.2,1.7-0.1,3.4,0.3,5"/>
							<path id="Path_4420-9" class="st11" d="M577.5,92.4l0.2,4c0,0.5,0.1,1,0.2,1.4"/>
							<path id="Path_4421-9" class="st11" d="M584.5,91.7c0.2,1.3,0.3,2.7,0.3,4"/>
							<path id="Path_4422-9" class="st11" d="M580.8,92.2l0.2,3.1"/>
							<path id="Path_4423-9" class="st11" d="M589.2,91.7v3.9"/>
							<path id="Path_4424-9" class="st11" d="M594.8,91.7c-0.2,1.3-0.5,2.6-0.9,3.9"/>
							<path id="Path_4425-9" class="st11" d="M599.3,92.7c-0.2,1.4-0.6,2.8-0.9,4.3"/>
						</g>
						<g id="Group_2-10">
							<path id="Path_4412-10" class="st0" d="M26.2,93L26,93.3c-0.1,0.1-0.3,0.4-0.3,0.4l-0.5,0.8c-0.7,0.9-1.4,1.7-2.2,2.6
								c-0.4,0.4-0.8,0.8-1.3,1.3l-0.1,0.1l0,0c-0.2,0.2-0.5,0.4-0.7,0.7c-2.1,1.8-4.2,3.5-6.5,5l-1,0.7c-0.5-7.5-1-15-1.4-22.6
								l1.1,0.9c2,1.7,4.2,3.2,6.3,4.8c2.1,1.5,4.2,2.9,6.5,4.3l0.3,0.2C26.1,92.5,26.1,92.8,26.2,93z"/>
							<path id="Path_4413-10" class="st5" d="M50.8,69.7l-1.1,0.8l-1,0.7c-2.5,1.7-5,3.3-7.3,5.2c-1.6,1.3-3.1,2.8-4.6,4.3
								l-1.1,1.1l-0.5,0.4L35,82.3c-0.9,0.8-1.8,1.6-2.7,2.3c-0.6,0.5-1.2,0.9-1.9,1.3c0.2-0.1-0.4,0.1-0.6,0.3h-0.1L29.5,86
								c-0.3-0.2-0.6-0.3-0.9-0.5c-0.5-0.3-1-0.6-1.5-0.9c-1-0.7-2.1-1.3-3.1-2c-4.1-2.8-8-6-11.5-9.5c-0.4-0.4-0.8-0.8-1.1-1.2
								c-0.1-1.9-0.2-3.7-0.3-5.6c-0.1-1.3,0.5-2.6,1.5-3.4c1.3-1.1,2.9-1.9,4.6-2.3c9.6-2.6,19.2-3.2,27.9-1.5
								c5.4,1.4,5.7,1.7,5.8,6.5C50.8,66.9,50.8,68.3,50.8,69.7z"/>
							<path id="Path_4414-10" class="st0" d="M51.4,99.7l-1-0.4L50,99.2L49.5,99l-0.6-0.3c-0.5-0.2-1.1-0.4-1.6-0.7
								c-1.1-0.5-2.2-1-3.3-1.5c-3.1-1.5-6.1-3.2-9-5.1c3.3-2.1,6.1-5.2,8.9-7.9l0.7-0.6c0.3-0.3,0.6-0.5,1-0.8
								c1.3-1,2.6-1.8,3.9-2.7l0.5-0.3l1.1-0.7c0,5,0,10.1,0.2,15.1C51.1,95.6,51.3,97.7,51.4,99.7z"/>
							<path id="Path_4415-10" class="st8" d="M52.3,109c-0.3,0.1-0.7,0.3-1,0.4c-5.4,2.3-9.7,6.9-14.7,10c-0.3,0.2-0.6,0.3-0.9,0.5
								l0,0l-0.4,0.2c-0.7,0.3-1.4,0.6-2.1,0.8l-0.7,0.2l-0.7,0.1c-0.7,0.1-1.5,0.1-2.2,0h-0.4l-1-0.1c-0.8-0.1-1.5-0.2-2.3-0.3
								c-1.5-0.2-3-0.6-4.5-0.9c-0.9-0.2-1.7-0.5-2.5-0.8l-0.5-0.2h-0.1c-0.4-0.2-0.8-0.3-1.2-0.5c-0.7-0.3-1.4-0.7-2-1.1l-0.1-0.1
								l-0.3-0.2l-0.1-0.1l-0.6-0.5c0.1-0.9,0.1-1.9,0-2.8c0-0.2,0-0.4,0-0.6l0.9-0.6c6-4,12.4-8.4,16.4-14.7
								c6.2,4,12.8,7.2,19.7,9.5l1.1,0.4C52.2,108.1,52.3,108.5,52.3,109z"/>
							<path id="Path_4416-10" class="st9" d="M30.9,163.4c-1.4,2.5-2.6,5.1-3.8,7.8c-2.6,6-5.2,12.1-8.9,17.5
								c-5.9,8.5-13.8,11.5-23.2,9.5c-7.6-1.5-12.3-7.4-13.4-16.1c-0.8-6.6,0.5-13.3,3.5-19.2c3.6-7.4,8.4-13.9,13.1-20.4
								c4.4-6,9-11.8,13.1-18c0.2-0.3,0.4-0.6,0.6-1c0.3,0.2,0.6,0.4,0.9,0.5c1.7,0.9,3.5,1.7,5.3,2.3c2.1,0.7,4.2,1.2,6.3,1.6
								c1.7,0.9,3.4,1.8,4.1,3.7c0.3,0.9,0.6,1.8,0.8,2.7c0.3,9.1,0.3,18.2,1.3,27.2C30.8,162.2,30.9,162.8,30.9,163.4z"/>
							<path id="Path_4417-10" class="st0" d="M53.4,142.1c-1.6,1.4-3.2,2.6-5,3.7c-4,2.6-7.9,5.2-11.3,8.8l-0.2,0.2l-0.1-1.4
								c-0.4-7-0.4-14.1-0.7-21.2c0.5-2,1.4-4,2.6-5.7c2.7-1.5,5.2-3.3,7.5-5.3c1.5-1.2,2.9-2.3,4.5-3.3c0.4-0.3,0.8-0.5,1.2-0.8
								l0.5-0.3l0,0l0,0h0.1l0.9-0.4c0.7,3.6,1.4,7.2,2.4,10.7c0.5,1.9,0.8,3.9,1,5.9C57.2,136.5,55.9,139.8,53.4,142.1z"/>
							<path id="Path_4418-10" class="st10" d="M-18.7,178.6c1.3,2,3.5,3.4,5.9,3.9c2.3,0.4,4.7,0.4,7,0.2"/>
							<path id="Path_4419-10" class="st11" d="M18,60.7c-0.2,1.7-0.1,3.4,0.4,5"/>
							<path id="Path_4420-10" class="st11" d="M21.7,59.4l0.2,4c0,0.5,0.1,1,0.2,1.4"/>
							<path id="Path_4421-10" class="st11" d="M28.8,58.7c0.2,1.3,0.3,2.6,0.3,4"/>
							<path id="Path_4422-10" class="st11" d="M25,59.2l0.2,3.1"/>
							<path id="Path_4423-10" class="st11" d="M33.4,58.7v3.9"/>
							<path id="Path_4424-10" class="st11" d="M39,58.7c-0.2,1.3-0.5,2.6-0.9,3.9"/>
							<path id="Path_4425-10" class="st11" d="M43.6,59.7c-0.3,1.4-0.6,2.8-0.9,4.3"/>
						</g>
						<g id="Group_2-11">
							<path id="Path_4412-11" class="st0" d="M-27.2,299.9c-0.1,0.1-0.1,0.2-0.2,0.3c-0.1,0.1-0.3,0.4-0.3,0.4
								c-0.2,0.3-0.4,0.5-0.5,0.8c-0.7,0.9-1.4,1.8-2.2,2.6c-0.4,0.4-0.8,0.9-1.3,1.3l-0.1,0.1l0,0l-0.7,0.6c-2.1,1.8-4.2,3.5-6.5,5
								l-1,0.7c-0.5-7.5-1-15-1.5-22.6l1.1,0.9c2,1.7,4.2,3.3,6.3,4.8s4.3,2.9,6.5,4.2c0.1,0.1,0.2,0.1,0.3,0.1
								C-27.3,299.4-27.3,299.6-27.2,299.9z"/>
							<path id="Path_4413-11" class="st5" d="M-2.6,276.5l-1.1,0.8l-1,0.7c-2.4,1.7-5,3.3-7.3,5.2c-1.6,1.3-3.1,2.9-4.6,4.3l-1.1,1
								l-0.5,0.4l-0.2,0.2c-0.9,0.8-1.8,1.6-2.7,2.3c-0.6,0.5-1.3,0.9-1.9,1.3c0.2-0.1-0.3,0.1-0.6,0.3h-0.1l-0.2-0.1l-0.9-0.5
								c-0.5-0.3-1-0.6-1.5-1c-1-0.7-2.1-1.3-3.1-2c-4.1-2.8-8-6-11.5-9.5c-0.4-0.4-0.8-0.8-1.2-1.2c-0.1-1.9-0.2-3.7-0.3-5.6
								c-0.1-1.3,0.5-2.6,1.5-3.4c1.3-1.1,2.9-1.9,4.5-2.3c9.6-2.6,19.2-3.2,27.9-1.5c5.4,1.4,5.7,1.7,5.8,6.5
								C-2.6,273.8-2.6,275.2-2.6,276.5z"/>
							<path id="Path_4414-11" class="st0" d="M-2,306.6l-1-0.4l-0.4-0.1l-0.5-0.2l-0.6-0.2l-1.7-0.7c-1.1-0.5-2.2-1-3.3-1.5
								c-3.1-1.5-6.1-3.2-9-5.1c3.3-2.1,6.1-5.2,8.9-8c0,0,0.5-0.5,0.6-0.6c0.3-0.3,0.6-0.5,1-0.8c1.3-1,2.6-1.8,3.9-2.7l0.5-0.3
								l1.1-0.7c0,5,0,10.1,0.2,15.1C-2.3,302.5-2.2,304.6-2,306.6z"/>
							<path id="Path_4415-11" class="st8" d="M-1.1,315.9c-0.4,0.1-0.7,0.3-1,0.4c-5.4,2.3-9.6,6.9-14.7,10l-0.9,0.5l0,0L-18,327
								c-0.7,0.3-1.4,0.6-2.1,0.8c-0.1,0-0.5,0.1-0.7,0.2l-0.7,0.1c-0.7,0.1-1.5,0.1-2.2,0h-0.4l-1-0.1c-0.8-0.1-1.5-0.2-2.3-0.3
								c-1.5-0.3-3-0.5-4.5-1c-0.9-0.2-1.7-0.5-2.5-0.8l-0.5-0.2H-35c-0.4-0.2-0.8-0.4-1.2-0.5c-0.7-0.3-1.4-0.7-2-1.1l-0.1-0.1
								l-0.3-0.2h-0.1l-0.5-0.5c0.1-0.9,0.1-1.9,0-2.8c0-0.2,0-0.4,0-0.6l0.9-0.6c6-4,12.4-8.4,16.4-14.7c6.2,4,12.8,7.2,19.7,9.5
								c0.4,0.1,0.7,0.3,1.1,0.4C-1.2,315-1.1,315.4-1.1,315.9z"/>
							<path id="Path_4416-11" class="st9" d="M-22.5,370.3c-1.4,2.5-2.6,5.1-3.8,7.8c-2.6,6-5.2,12.1-8.9,17.5
								c-5.9,8.5-13.8,11.5-23.3,9.5c-7.6-1.5-12.3-7.4-13.4-16.1c-0.7-6.6,0.5-13.3,3.5-19.2c3.6-7.4,8.3-13.9,13.1-20.4
								c4.4-6,9-11.8,13.1-18c0.2-0.3,0.4-0.7,0.6-1l0.9,0.5c1.7,0.9,3.5,1.7,5.3,2.3c2.1,0.7,4.2,1.2,6.3,1.5
								c1.7,0.9,3.4,1.8,4.1,3.7c0.3,0.9,0.6,1.8,0.8,2.7c0.3,9.1,0.3,18.2,1.3,27.2C-22.6,369.1-22.6,369.7-22.5,370.3z"/>
							<path id="Path_4417-11" class="st0" d="M0,349c-1.6,1.4-3.2,2.6-5,3.7c-4,2.6-7.9,5.2-11.3,8.8c-0.1,0.1-0.1,0.2-0.2,0.2
								c0-0.5-0.1-0.9-0.1-1.4c-0.4-7-0.4-14.1-0.7-21.2c0.5-2,1.4-4,2.6-5.7c2.6-1.5,5.2-3.3,7.5-5.3c1.5-1.2,2.9-2.3,4.5-3.3
								c0.4-0.3,0.8-0.5,1.2-0.8l0.5-0.3h0.1l0,0h0.1c0.3-0.1,0.6-0.3,0.9-0.4c0.6,3.6,1.4,7.2,2.4,10.7c0.5,1.9,0.8,3.9,1,5.9
								C3.8,343.4,2.5,346.7,0,349z"/>
							<path id="Path_4418-11" class="st10" d="M-72.1,385.5c1.3,2,3.5,3.4,5.9,3.9c2.3,0.4,4.7,0.4,7,0.1"/>
							<path id="Path_4419-11" class="st11" d="M-35.4,267.6c-0.2,1.7-0.1,3.4,0.4,5"/>
							<path id="Path_4420-11" class="st11" d="M-31.7,266.3l0.2,4c0,0.5,0.1,1,0.2,1.4"/>
							<path id="Path_4421-11" class="st11" d="M-24.7,265.6c0.2,1.3,0.3,2.6,0.3,4"/>
							<path id="Path_4422-11" class="st11" d="M-28.4,266.1l0.2,3.1"/>
							<path id="Path_4423-11" class="st11" d="M-20,265.5v3.9"/>
							<path id="Path_4424-11" class="st11" d="M-14.4,265.6c-0.2,1.3-0.5,2.6-0.9,3.9"/>
							<path id="Path_4425-11" class="st11" d="M-9.9,266.5c-0.2,1.4-0.6,2.9-0.9,4.3"/>
						</g>
						<g id="Group_2-12">
							<path id="Path_4412-12" class="st0" d="M85.5,428.6l-0.2,0.3l-0.3,0.4c-0.2,0.3-0.4,0.5-0.6,0.8c-0.7,0.9-1.4,1.8-2.2,2.6
								c-0.4,0.4-0.8,0.9-1.3,1.3l-0.1,0.1l0,0l-0.7,0.6c-2,1.8-4.2,3.5-6.5,5l-1,0.7c-0.5-7.5-1-15-1.4-22.6l1.1,0.9
								c2,1.7,4.2,3.3,6.3,4.8c2.1,1.5,4.2,2.9,6.5,4.3l0.3,0.1C85.4,428.2,85.5,428.4,85.5,428.6z"/>
							<path id="Path_4413-12" class="st5" d="M110.2,405.3l-1.1,0.8l-1,0.7c-2.4,1.7-5,3.3-7.3,5.2c-1.6,1.3-3.1,2.9-4.6,4.3
								l-1.1,1l-0.4,0.4l-0.2,0.2c-0.9,0.8-1.8,1.6-2.7,2.3c-0.6,0.5-1.2,0.9-1.8,1.3c0.2-0.1-0.3,0.1-0.6,0.3h-0.1l-0.2-0.1
								l-0.9-0.5c-0.5-0.3-1-0.6-1.5-1c-1-0.7-2.1-1.3-3.1-2c-4.1-2.8-8-6-11.5-9.5c-0.4-0.4-0.8-0.8-1.2-1.2
								c-0.1-1.9-0.2-3.7-0.3-5.6c-0.1-1.3,0.5-2.6,1.5-3.3c1.3-1.1,2.9-1.9,4.6-2.3c9.6-2.6,19.2-3.2,27.9-1.5
								c5.4,1.4,5.7,1.7,5.8,6.5C110.2,402.6,110.2,404,110.2,405.3z"/>
							<path id="Path_4414-12" class="st0" d="M110.8,435.4l-1.1-0.4l-0.4-0.1l-0.5-0.2l-0.6-0.2c-0.6-0.2-1.1-0.5-1.6-0.7
								c-1.1-0.5-2.2-1-3.3-1.5c-3.1-1.5-6.1-3.2-9-5.1c3.3-2.1,6.1-5.2,8.9-8l0.7-0.6c0.3-0.3,0.6-0.5,1-0.8c1.3-1,2.6-1.8,3.9-2.7
								l0.5-0.3l1.1-0.7c0,5,0,10.1,0.2,15.1C110.5,431.2,110.6,433.3,110.8,435.4z"/>
							<path id="Path_4415-12" class="st8" d="M111.7,444.6c-0.3,0.1-0.7,0.3-1,0.4c-5.4,2.3-9.7,6.9-14.7,10l-0.9,0.5l0,0l-0.4,0.2
								c-0.7,0.3-1.4,0.6-2.1,0.8c-0.1,0-0.5,0.1-0.7,0.2l-0.7,0.1c-0.7,0.1-1.5,0.1-2.2,0h-0.4l-0.9-0.1c-0.8-0.1-1.5-0.2-2.3-0.3
								c-1.5-0.3-3-0.5-4.5-1c-0.8-0.2-1.7-0.5-2.5-0.8l-0.5-0.2h-0.1c-0.4-0.2-0.8-0.4-1.2-0.5c-0.7-0.3-1.4-0.7-2-1.1l-0.1-0.1
								l-0.3-0.2l0,0l-0.6-0.5c0.1-0.9,0.1-1.9,0-2.8c0-0.2,0-0.4,0-0.6l0.9-0.6c6-4,12.4-8.4,16.4-14.7c6.2,4,12.8,7.2,19.7,9.5
								c0.4,0.1,0.7,0.3,1.1,0.4C111.6,443.7,111.6,444.2,111.7,444.6z"/>
							<path id="Path_4416-12" class="st9" d="M90.3,499.1c-1.4,2.5-2.6,5.1-3.8,7.8c-2.7,6-5.2,12.1-8.9,17.5
								c-5.9,8.6-13.8,11.5-23.2,9.6c-7.6-1.5-12.3-7.4-13.4-16.1c-0.8-6.6,0.5-13.3,3.5-19.2c3.6-7.4,8.4-13.9,13.1-20.4
								c4.4-6,9-11.8,13.1-18c0.2-0.3,0.4-0.6,0.6-1c0.3,0.2,0.6,0.4,0.9,0.5c1.7,0.9,3.5,1.7,5.3,2.3c2.1,0.7,4.2,1.2,6.3,1.5
								c1.7,0.9,3.4,1.8,4.2,3.7c0.3,0.9,0.6,1.8,0.8,2.7c0.3,9.1,0.3,18.2,1.3,27.2C90.1,497.9,90.2,498.5,90.3,499.1z"/>
							<path id="Path_4417-12" class="st0" d="M112.8,477.7c-1.6,1.4-3.2,2.6-5,3.7c-4,2.6-7.9,5.2-11.3,8.8l-0.2,0.2l-0.1-1.4
								c-0.4-7-0.4-14.1-0.7-21.2c0.5-2,1.3-4,2.5-5.7c2.6-1.5,5.2-3.3,7.5-5.3c1.5-1.2,2.9-2.3,4.5-3.3c0.4-0.3,0.8-0.5,1.2-0.8
								l0.5-0.3l0,0l0,0h0.1c0.3-0.1,0.6-0.3,0.9-0.4c0.7,3.6,1.4,7.2,2.4,10.8c0.5,1.9,0.8,3.9,1,5.9
								C116.5,472.1,115.2,475.5,112.8,477.7z"/>
							<path id="Path_4418-12" class="st10" d="M40.7,514.2c1.3,2,3.5,3.4,5.9,3.9c2.3,0.4,4.7,0.4,7,0.2"/>
							<path id="Path_4419-12" class="st11" d="M77.3,396.4c-0.2,1.7-0.1,3.4,0.4,5"/>
							<path id="Path_4420-12" class="st11" d="M81.1,395.1l0.2,4c0,0.5,0.1,1,0.2,1.4"/>
							<path id="Path_4421-12" class="st11" d="M88.1,394.4c0.2,1.3,0.3,2.7,0.3,4"/>
							<path id="Path_4422-12" class="st11" d="M84.4,394.9l0.2,3.1"/>
							<path id="Path_4423-12" class="st11" d="M92.8,394.3v3.9"/>
							<path id="Path_4424-12" class="st11" d="M98.3,394.3c-0.2,1.3-0.5,2.6-0.9,3.9"/>
							<path id="Path_4425-12" class="st11" d="M102.9,395.3c-0.3,1.4-0.6,2.9-0.9,4.3"/>
						</g>
						<g id="Group_2-13">
							<path id="Path_4412-13" class="st0" d="M151.2,235.5l-0.2,0.3l-0.3,0.4c-0.2,0.3-0.4,0.5-0.6,0.8c-0.7,0.9-1.4,1.8-2.1,2.6
								c-0.4,0.4-0.8,0.9-1.3,1.3l-0.1,0.1l0,0l-0.7,0.7c-2.1,1.8-4.2,3.5-6.5,5l-1,0.6c-0.5-7.5-1-15-1.4-22.6
								c0.4,0.3,0.7,0.6,1.1,0.9c2,1.7,4.2,3.3,6.3,4.8s4.2,2.9,6.4,4.3l0.3,0.1C151.1,235,151.1,235.3,151.2,235.5z"/>
							<path id="Path_4413-13" class="st5" d="M175.8,212.2l-1.1,0.7l-1,0.7c-2.4,1.7-5,3.3-7.3,5.2c-1.6,1.3-3.1,2.9-4.6,4.3
								l-1.1,1l-0.4,0.4l-0.2,0.2c-0.9,0.8-1.8,1.6-2.7,2.3c-0.6,0.5-1.2,0.9-1.9,1.3c0.2-0.1-0.3,0.1-0.6,0.3h-0.1l-0.2-0.1
								c-0.3-0.2-0.6-0.3-0.9-0.5c-0.5-0.3-1-0.6-1.5-0.9c-1-0.7-2.1-1.3-3.1-2c-4.1-2.8-8-6-11.5-9.5c-0.4-0.4-0.8-0.8-1.2-1.2
								c-0.1-1.9-0.1-3.7-0.3-5.6c-0.1-1.3,0.5-2.6,1.5-3.4c1.3-1.1,2.9-1.9,4.6-2.3c9.6-2.6,19.2-3.2,27.9-1.5
								c5.4,1.4,5.7,1.7,5.8,6.5C175.8,209.4,175.8,210.8,175.8,212.2z"/>
							<path id="Path_4414-13" class="st0" d="M176.4,242.3l-1-0.4l-0.4-0.1l-0.5-0.2l-0.6-0.3l-1.6-0.7c-1.1-0.5-2.2-1-3.3-1.5
								c-3.1-1.5-6.1-3.2-8.9-5.1c3.3-2.1,6.1-5.2,8.9-8c0,0,0.5-0.4,0.6-0.6c0.3-0.3,0.6-0.5,1-0.8c1.3-0.9,2.6-1.8,3.9-2.7
								l0.5-0.3l1.1-0.7c0,5,0,10.1,0.2,15.1C176.2,238.1,176.3,240.2,176.4,242.3z"/>
							<path id="Path_4415-13" class="st8" d="M177.3,251.5l-1,0.4c-5.4,2.3-9.6,6.9-14.7,10c-0.3,0.2-0.6,0.4-0.9,0.5l0,0
								c-0.1,0.1-0.2,0.1-0.4,0.2c-0.7,0.3-1.4,0.6-2.1,0.9l-0.7,0.2l-0.7,0.1c-0.7,0.1-1.5,0.1-2.2,0h-0.4l-0.9-0.1
								c-0.8-0.1-1.5-0.2-2.3-0.3c-1.5-0.2-3-0.5-4.5-0.9c-0.9-0.2-1.7-0.5-2.5-0.8l-0.5-0.2h-0.1c-0.4-0.2-0.8-0.3-1.2-0.5
								c-0.7-0.3-1.4-0.7-2-1.1h-0.1l-0.3-0.2l0,0l-0.6-0.5c0.1-0.9,0.1-1.9,0-2.8v-0.6l0.9-0.6c6-4,12.4-8.4,16.4-14.7
								c6.2,4,12.8,7.2,19.7,9.5l1.1,0.4C177.2,250.6,177.3,251,177.3,251.5z"/>
							<path id="Path_4416-13" class="st9" d="M155.9,305.9c-1.4,2.5-2.6,5.1-3.8,7.8c-2.6,6-5.2,12.1-8.9,17.5
								c-5.9,8.5-13.8,11.5-23.3,9.5c-7.6-1.5-12.3-7.4-13.4-16.1c-0.8-6.6,0.5-13.3,3.5-19.2c3.6-7.4,8.3-13.9,13.1-20.4
								c4.4-6,9-11.8,13.1-18c0.2-0.3,0.4-0.6,0.6-1c0.3,0.2,0.6,0.4,0.9,0.5c1.7,0.9,3.5,1.7,5.4,2.3c2.1,0.7,4.2,1.2,6.3,1.5
								c1.7,0.9,3.4,1.8,4.1,3.7c0.3,0.9,0.6,1.8,0.8,2.7c0.3,9.1,0.3,18.2,1.3,27.2C155.8,304.7,155.9,305.3,155.9,305.9z"/>
							<path id="Path_4417-13" class="st0" d="M178.4,284.6c-1.6,1.4-3.2,2.6-5,3.7c-4,2.6-7.9,5.2-11.3,8.8l-0.2,0.2l-0.1-1.4
								c-0.4-7.1-0.4-14.1-0.7-21.2c0.5-2,1.4-4,2.6-5.7c2.7-1.5,5.2-3.3,7.5-5.3c1.5-1.2,2.9-2.3,4.5-3.3c0.4-0.3,0.8-0.5,1.2-0.8
								l0.5-0.3h0.1l0,0h0.1l0.9-0.4c0.7,3.6,1.5,7.2,2.4,10.7c0.5,1.9,0.8,3.9,1,5.9C182.2,279,180.9,282.3,178.4,284.6z"/>
							<path id="Path_4418-13" class="st10" d="M106.3,321.1c1.3,2,3.5,3.4,5.8,3.9c2.3,0.4,4.7,0.4,7,0.2"/>
							<path id="Path_4419-13" class="st11" d="M143,203.2c-0.2,1.7-0.1,3.4,0.4,5"/>
							<path id="Path_4420-13" class="st11" d="M146.7,201.9l0.2,4c0,0.5,0.1,1,0.2,1.4"/>
							<path id="Path_4421-13" class="st11" d="M153.8,201.2c0.2,1.3,0.3,2.6,0.3,3.9"/>
							<path id="Path_4422-13" class="st11" d="M150,201.7l0.2,3.1"/>
							<path id="Path_4423-13" class="st11" d="M158.4,201.2v3.8"/>
							<path id="Path_4424-13" class="st11" d="M164,201.2c-0.2,1.3-0.5,2.6-0.9,3.9"/>
							<path id="Path_4425-13" class="st11" d="M168.6,202.2c-0.3,1.4-0.6,2.8-0.9,4.3"/>
						</g>
						<g id="Group_2-14">
							<path id="Path_4412-14" class="st0" d="M273.5,338.8l-0.2,0.3l-0.3,0.4l-0.5,0.8c-0.7,0.9-1.4,1.8-2.2,2.6
								c-0.4,0.4-0.8,0.9-1.2,1.3l-0.1,0.1l0,0l-0.7,0.7c-2.1,1.8-4.2,3.5-6.5,5l-1,0.6c-0.5-7.5-1-15-1.5-22.6
								c0.4,0.3,0.7,0.6,1.1,0.9c2,1.7,4.2,3.3,6.3,4.8c2.1,1.5,4.2,2.9,6.5,4.3l0.3,0.1C273.4,338.4,273.4,338.6,273.5,338.8z"/>
							<path id="Path_4413-14" class="st5" d="M298.1,315.5l-1.1,0.7l-1,0.7c-2.5,1.7-5,3.3-7.3,5.2c-1.6,1.3-3.1,2.8-4.6,4.3
								l-1.1,1l-0.5,0.4l-0.2,0.2c-0.9,0.8-1.8,1.6-2.7,2.3c-0.6,0.5-1.2,0.9-1.9,1.3c0.2-0.1-0.3,0.1-0.6,0.3H277l-0.2-0.1
								c-0.3-0.2-0.6-0.3-0.9-0.5c-0.5-0.3-1-0.6-1.5-1c-1-0.7-2.1-1.3-3.1-2c-4.1-2.8-8-6-11.5-9.5c-0.4-0.4-0.8-0.8-1.1-1.2
								c-0.1-1.9-0.2-3.7-0.3-5.6c-0.1-1.3,0.5-2.6,1.5-3.4c1.3-1.1,2.9-1.9,4.5-2.3c9.6-2.6,19.2-3.2,27.9-1.5
								c5.4,1.4,5.7,1.7,5.8,6.5C298.1,312.8,298.1,314.1,298.1,315.5z"/>
							<path id="Path_4414-14" class="st0" d="M298.7,345.6l-1-0.4l-0.4-0.1l-0.5-0.2l-0.6-0.3l-1.6-0.7c-1.1-0.5-2.2-1-3.3-1.5
								c-3.1-1.5-6.1-3.2-9-5.1c3.3-2.1,6-5.2,8.9-8c0,0,0.5-0.5,0.6-0.6c0.3-0.3,0.6-0.5,1-0.8c1.3-1,2.6-1.8,3.9-2.7l0.5-0.3
								l1.1-0.7c0,5,0,10.1,0.2,15.1C298.4,341.4,298.5,343.5,298.7,345.6z"/>
							<path id="Path_4415-14" class="st8" d="M299.6,354.8c-0.4,0.1-0.7,0.3-1,0.4c-5.4,2.3-9.6,6.9-14.7,10
								c-0.3,0.2-0.6,0.4-0.9,0.5l0,0l-0.4,0.2c-0.7,0.3-1.4,0.6-2.1,0.9l-0.7,0.2l-0.7,0.1c-0.7,0.1-1.5,0.1-2.2,0h-0.4l-1-0.1
								c-0.8-0.1-1.5-0.2-2.3-0.3c-1.5-0.2-3-0.5-4.5-0.9c-0.9-0.2-1.7-0.5-2.5-0.8l-0.5-0.2h-0.1c-0.4-0.2-0.8-0.3-1.2-0.5
								c-0.7-0.3-1.4-0.7-2-1.1h-0.1c-0.1-0.1-0.2-0.1-0.3-0.2h-0.1l-0.5-0.5c0.1-0.9,0.1-1.9,0-2.8c0-0.2,0-0.4,0-0.6l0.9-0.6
								c6-4,12.4-8.4,16.4-14.7c6.2,4,12.8,7.2,19.7,9.5l1.1,0.4C299.5,353.9,299.6,354.4,299.6,354.8z"/>
							<path id="Path_4416-14" class="st9" d="M278.2,409.3c-1.4,2.5-2.6,5.1-3.8,7.8c-2.6,6-5.2,12.1-8.9,17.5
								c-5.9,8.5-13.8,11.5-23.3,9.5c-7.6-1.5-12.3-7.4-13.4-16.1c-0.7-6.6,0.5-13.3,3.5-19.2c3.6-7.4,8.4-13.9,13.1-20.4
								c4.4-6,9-11.8,13.1-18c0.2-0.3,0.4-0.6,0.6-1c0.3,0.2,0.6,0.4,0.9,0.5c1.7,0.9,3.5,1.7,5.4,2.3c2.1,0.7,4.2,1.2,6.3,1.5
								c1.7,0.9,3.4,1.8,4.1,3.7c0.3,0.9,0.6,1.8,0.8,2.7c0.3,9.1,0.3,18.2,1.3,27.2C278.1,408,278.1,408.7,278.2,409.3z"/>
							<path id="Path_4417-14" class="st0" d="M300.7,387.9c-1.6,1.4-3.2,2.6-5,3.7c-4,2.6-7.9,5.2-11.3,8.8l-0.2,0.2
								c0-0.5-0.1-1-0.1-1.4c-0.4-7.1-0.4-14.1-0.7-21.2c0.5-2,1.4-4,2.6-5.7c2.7-1.5,5.2-3.3,7.5-5.3c1.5-1.2,2.9-2.3,4.5-3.3
								c0.4-0.3,0.8-0.5,1.2-0.8l0.5-0.3h0.1l0,0h0.1l0.9-0.4c0.6,3.6,1.4,7.2,2.4,10.7c0.5,1.9,0.8,3.9,1,5.9
								C304.5,382.3,303.2,385.7,300.7,387.9z"/>
							<path id="Path_4418-14" class="st10" d="M228.6,424.4c1.3,2,3.5,3.4,5.9,3.9c2.3,0.4,4.7,0.4,7,0.2"/>
							<path id="Path_4419-14" class="st11" d="M265.3,306.6c-0.2,1.7-0.1,3.4,0.4,5"/>
							<path id="Path_4420-14" class="st11" d="M269,305.3l0.2,4c0,0.5,0.1,1,0.2,1.4"/>
							<path id="Path_4421-14" class="st11" d="M276,304.6c0.2,1.3,0.3,2.6,0.3,4"/>
							<path id="Path_4422-14" class="st11" d="M272.3,305l0.2,3.1"/>
							<path id="Path_4423-14" class="st11" d="M280.7,304.5v3.9"/>
							<path id="Path_4424-14" class="st11" d="M286.3,304.5c-0.2,1.3-0.5,2.6-0.9,3.9"/>
							<path id="Path_4425-14" class="st11" d="M290.8,305.5c-0.3,1.4-0.6,2.8-0.9,4.3"/>
						</g>
						<g id="Group_2-15">
							<path id="Path_4412-15" class="st0" d="M186.3,530.9c0,0.1-0.1,0.2-0.2,0.3s-0.3,0.4-0.3,0.4c-0.2,0.3-0.4,0.5-0.6,0.8
								c-0.7,0.9-1.4,1.8-2.2,2.6c-0.4,0.4-0.8,0.9-1.3,1.3l-0.1,0.1l0,0c-0.2,0.2-0.5,0.4-0.7,0.7c-2,1.8-4.2,3.5-6.5,5l-1,0.7
								c-0.5-7.5-1-15-1.4-22.6c0.4,0.3,0.7,0.6,1.1,0.9c2,1.7,4.2,3.2,6.3,4.8c2.1,1.5,4.2,2.9,6.4,4.3l0.3,0.2
								C186.2,530.5,186.2,530.7,186.3,530.9z"/>
							<path id="Path_4413-15" class="st5" d="M210.9,507.6l-1.1,0.8l-1,0.7c-2.4,1.7-5,3.3-7.3,5.2c-1.6,1.3-3.1,2.8-4.6,4.3
								c-0.4,0.3-0.7,0.7-1.1,1l-0.4,0.4l-0.2,0.2c-0.9,0.8-1.8,1.6-2.7,2.3c-0.6,0.5-1.2,0.9-1.9,1.3c0.2-0.1-0.3,0.1-0.6,0.3h-0.1
								l-0.2-0.1l-0.9-0.5c-0.5-0.3-1-0.6-1.4-1c-1-0.7-2.1-1.3-3.1-2c-4.1-2.8-8-5.9-11.6-9.4c-0.4-0.4-0.8-0.8-1.2-1.2
								c-0.1-1.9-0.1-3.7-0.3-5.6c-0.1-1.3,0.5-2.6,1.5-3.4c1.3-1.1,2.9-1.9,4.6-2.3c9.6-2.6,19.2-3.2,27.9-1.5
								c5.4,1.4,5.7,1.7,5.7,6.5C210.9,504.9,210.9,506.2,210.9,507.6z"/>
							<path id="Path_4414-15" class="st0" d="M211.5,537.7l-1.1-0.4l-0.4-0.1l-0.5-0.2l-0.6-0.3c-0.5-0.2-1.1-0.4-1.6-0.7
								c-1.1-0.5-2.2-1-3.3-1.5c-3.1-1.5-6.1-3.2-8.9-5.1c3.3-2.1,6-5.2,8.9-8l0.6-0.6c0.3-0.3,0.6-0.5,1-0.8c1.3-1,2.6-1.8,3.9-2.7
								l0.5-0.3l1.1-0.7c0,5,0,10.1,0.2,15.1C211.2,533.5,211.3,535.6,211.5,537.7z"/>
							<path id="Path_4415-15" class="st8" d="M212.4,546.9c-0.3,0.1-0.7,0.3-1,0.4c-5.4,2.3-9.6,6.9-14.7,10l-0.9,0.5l0,0l-0.4,0.2
								c-0.7,0.3-1.4,0.6-2.1,0.8l-0.7,0.2l-0.7,0.1c-0.7,0.1-1.5,0.1-2.2,0h-0.4l-1-0.1c-0.8-0.1-1.5-0.2-2.3-0.3
								c-1.5-0.2-3-0.5-4.5-0.9c-0.9-0.2-1.7-0.5-2.5-0.8l-0.5-0.2h-0.1l-1.2-0.5c-0.7-0.3-1.4-0.7-2-1.1l-0.1-0.1l-0.3-0.2h-0.1
								c-0.2-0.2-0.4-0.3-0.5-0.5c0.1-0.9,0.1-1.9,0-2.8c0-0.2,0-0.4,0-0.6l0.9-0.6c6-4,12.4-8.4,16.4-14.7c6.2,4,12.8,7.2,19.7,9.5
								l1.1,0.4C212.3,546,212.4,546.4,212.4,546.9z"/>
							<path id="Path_4416-15" class="st9" d="M191,601.3c-1.4,2.5-2.6,5.1-3.8,7.8c-2.6,6-5.2,12.1-8.9,17.5
								c-5.9,8.5-13.8,11.5-23.3,9.5c-7.6-1.5-12.3-7.4-13.4-16.1c-0.8-6.6,0.5-13.3,3.5-19.2c3.6-7.4,8.4-13.9,13.1-20.4
								c4.4-6,9-11.8,13.1-18c0.2-0.3,0.4-0.6,0.6-1c0.3,0.2,0.6,0.4,0.9,0.5c1.7,0.9,3.5,1.7,5.4,2.3c2.1,0.7,4.2,1.2,6.3,1.5
								c1.7,0.9,3.4,1.8,4.1,3.7c0.3,0.9,0.6,1.8,0.8,2.7c0.3,9.1,0.3,18.2,1.3,27.2C190.9,600.1,190.9,600.7,191,601.3z"/>
							<path id="Path_4417-15" class="st0" d="M213.5,580c-1.6,1.4-3.2,2.6-5,3.7c-4,2.6-7.9,5.2-11.3,8.8l-0.2,0.2l-0.1-1.4
								c-0.4-7-0.4-14.1-0.7-21.2c0.5-2,1.4-4,2.6-5.7c2.6-1.5,5.2-3.3,7.5-5.3c1.5-1.2,2.9-2.3,4.5-3.3c0.4-0.3,0.8-0.5,1.2-0.7
								l0.5-0.3h0.1l0,0h0.1c0.3-0.2,0.6-0.3,0.9-0.4c0.7,3.6,1.5,7.2,2.4,10.7c0.5,1.9,0.8,3.9,1,5.9
								C217.3,574.4,216,577.7,213.5,580z"/>
							<path id="Path_4418-15" class="st10" d="M141.4,616.5c1.3,2,3.5,3.4,5.9,3.9c2.3,0.4,4.7,0.4,7,0.2"/>
							<path id="Path_4419-15" class="st11" d="M178.1,498.6c-0.2,1.7-0.1,3.4,0.4,5"/>
							<path id="Path_4420-15" class="st11" d="M181.8,497.3l0.2,4c0,0.5,0.1,1,0.2,1.4"/>
							<path id="Path_4421-15" class="st11" d="M188.8,496.7c0.2,1.3,0.3,2.6,0.3,4"/>
							<path id="Path_4422-15" class="st11" d="M185.1,497.1l0.2,3.1"/>
							<path id="Path_4423-15" class="st11" d="M193.5,496.6v3.9"/>
							<path id="Path_4424-15" class="st11" d="M199.1,496.6c-0.2,1.3-0.5,2.6-0.9,4"/>
							<path id="Path_4425-15" class="st11" d="M203.6,497.6c-0.3,1.4-0.6,2.9-0.9,4.3"/>
						</g>
						<g id="Group_2-16">
							<path id="Path_4412-16" class="st0" d="M370.7,438.4c0,0.1-0.1,0.2-0.2,0.3s-0.3,0.4-0.3,0.4c-0.2,0.3-0.4,0.5-0.6,0.8
								c-0.7,0.9-1.4,1.8-2.1,2.6c-0.4,0.4-0.8,0.9-1.3,1.3l-0.1,0.1l0,0c-0.2,0.2-0.5,0.4-0.7,0.6c-2,1.8-4.2,3.5-6.5,5l-1,0.7
								c-0.5-7.5-1-15-1.4-22.6c0.4,0.3,0.7,0.6,1.1,0.9c2,1.7,4.2,3.2,6.3,4.8c2.1,1.5,4.2,2.9,6.5,4.3l0.3,0.1
								C370.6,437.9,370.6,438.2,370.7,438.4z"/>
							<path id="Path_4413-16" class="st5" d="M395.4,415.1l-1.1,0.8l-1,0.7c-2.5,1.7-5,3.3-7.3,5.2c-1.6,1.3-3.1,2.8-4.6,4.3
								c-0.4,0.4-0.7,0.7-1.1,1l-0.4,0.4l-0.2,0.2c-0.9,0.8-1.8,1.6-2.7,2.3c-0.6,0.5-1.2,0.9-1.9,1.3c0.2-0.1-0.3,0.1-0.6,0.3h-0.1
								l-0.2-0.1l-0.9-0.5c-0.5-0.3-1-0.6-1.5-1c-1-0.7-2.1-1.3-3.1-2c-4.1-2.8-8-5.9-11.6-9.4c-0.4-0.4-0.8-0.8-1.2-1.2
								c-0.1-1.9-0.1-3.7-0.3-5.6c-0.1-1.3,0.5-2.6,1.5-3.4c1.4-1.1,2.9-1.8,4.6-2.3c9.6-2.6,19.2-3.2,27.9-1.5
								c5.5,1.4,5.7,1.7,5.8,6.5C395.3,412.3,395.3,413.7,395.4,415.1z"/>
							<path id="Path_4414-16" class="st0" d="M395.9,445.1l-1-0.4l-0.4-0.1l-0.5-0.2l-0.6-0.3c-0.5-0.2-1.1-0.4-1.6-0.7
								c-1.1-0.5-2.2-1-3.3-1.5c-3.1-1.5-6.1-3.2-9-5.1c3.3-2.1,6-5.2,8.9-8l0.6-0.6c0.3-0.3,0.6-0.5,1-0.8c1.3-1,2.6-1.8,3.9-2.7
								l0.5-0.3l1.1-0.7c0,5,0,10.1,0.2,15.1C395.7,441,395.8,443.1,395.9,445.1z"/>
							<path id="Path_4415-16" class="st8" d="M396.8,454.4c-0.3,0.1-0.7,0.3-1,0.4c-5.4,2.3-9.6,6.9-14.7,10l-0.9,0.5l0,0l-0.4,0.2
								c-0.7,0.3-1.4,0.6-2.1,0.8l-0.7,0.2l-0.7,0.1c-0.7,0.1-1.5,0.1-2.2,0h-0.4l-1-0.1c-0.8-0.1-1.5-0.2-2.3-0.3
								c-1.5-0.3-3-0.5-4.5-1c-0.9-0.2-1.7-0.5-2.5-0.8l-0.5-0.2h-0.1l-1.2-0.5c-0.7-0.3-1.4-0.7-2-1.1l-0.1-0.1l-0.3-0.2l0,0
								l-0.5-0.5c0.1-0.9,0.1-1.9,0-2.8c0-0.2,0-0.4,0-0.6l0.9-0.6c6-4,12.4-8.4,16.4-14.7c6.2,4,12.8,7.2,19.7,9.5l1.1,0.4
								C396.7,453.5,396.8,453.9,396.8,454.4z"/>
							<path id="Path_4416-16" class="st9" d="M375.5,508.8c-1.4,2.5-2.6,5.1-3.8,7.8c-2.6,6-5.2,12.1-8.9,17.5
								c-5.9,8.5-13.8,11.5-23.3,9.5c-7.6-1.5-12.3-7.4-13.4-16.1c-0.8-6.6,0.5-13.3,3.5-19.2c3.6-7.4,8.4-13.9,13.1-20.4
								c4.4-6,9-11.8,13.1-18c0.2-0.3,0.4-0.6,0.6-1c0.3,0.2,0.6,0.4,0.9,0.5c1.7,0.9,3.5,1.7,5.4,2.3c2.1,0.7,4.2,1.2,6.3,1.5
								c1.7,0.9,3.4,1.8,4.1,3.7c0.3,0.9,0.6,1.8,0.8,2.7c0.3,9.1,0.3,18.2,1.3,27.2C375.3,507.6,375.4,508.2,375.5,508.8z"/>
							<path id="Path_4417-16" class="st0" d="M397.9,487.5c-1.6,1.4-3.2,2.6-5,3.7c-4,2.6-7.9,5.2-11.3,8.8l-0.2,0.2l-0.1-1.4
								c-0.4-7-0.4-14.1-0.7-21.2c0.5-2,1.4-4,2.6-5.7c2.6-1.5,5.2-3.3,7.5-5.3c1.5-1.2,2.9-2.3,4.5-3.3c0.4-0.3,0.8-0.5,1.2-0.8
								l0.5-0.3h0.1l0,0h0.1c0.3-0.1,0.6-0.3,0.9-0.4c0.7,3.6,1.5,7.2,2.4,10.7c0.5,1.9,0.8,3.9,1,5.9
								C401.7,481.9,400.5,485.2,397.9,487.5z"/>
							<path id="Path_4418-16" class="st10" d="M325.9,524c1.3,2,3.5,3.4,5.9,3.9c2.3,0.4,4.7,0.4,7,0.2"/>
							<path id="Path_4419-16" class="st11" d="M362.5,406.1c-0.2,1.7-0.1,3.4,0.4,5"/>
							<path id="Path_4420-16" class="st11" d="M366.2,404.8l0.2,4c0,0.5,0.1,1,0.2,1.4"/>
							<path id="Path_4421-16" class="st11" d="M373.3,404.1c0.2,1.3,0.3,2.6,0.3,4"/>
							<path id="Path_4422-16" class="st11" d="M369.5,404.6l0.2,3.1"/>
							<path id="Path_4423-16" class="st11" d="M377.9,404.1v3.9"/>
							<path id="Path_4424-16" class="st11" d="M383.5,404.1c-0.2,1.3-0.5,2.6-0.9,3.9"/>
							<path id="Path_4425-16" class="st11" d="M388.1,405c-0.2,1.4-0.6,2.9-0.9,4.3"/>
						</g>
						<g id="Group_2-17">
							<path id="Path_4412-17" class="st0" d="M421.8,233.9c0,0.1-0.1,0.2-0.2,0.3l-0.3,0.4c-0.2,0.3-0.4,0.5-0.6,0.8
								c-0.7,0.9-1.4,1.8-2.1,2.6c-0.4,0.4-0.8,0.9-1.3,1.3l-0.1,0.1l0,0c-0.2,0.2-0.5,0.4-0.7,0.6c-2,1.8-4.2,3.5-6.5,5l-1,0.7
								c-0.5-7.5-1-15-1.4-22.6c0.4,0.3,0.7,0.6,1.1,0.9c2,1.7,4.2,3.3,6.3,4.8c2.1,1.5,4.2,3,6.5,4.3l0.3,0.1
								C421.7,233.4,421.8,233.6,421.8,233.9z"/>
							<path id="Path_4413-17" class="st5" d="M446.5,210.5l-1.1,0.8l-1,0.7c-2.5,1.7-5,3.3-7.3,5.2c-1.6,1.3-3.1,2.9-4.6,4.3
								l-1.1,1l-0.4,0.4l-0.2,0.2c-0.9,0.8-1.8,1.6-2.7,2.3c-0.6,0.5-1.2,0.9-1.9,1.3c0.2-0.1-0.3,0.1-0.6,0.3h-0.1l-0.2-0.1
								c-0.3-0.2-0.6-0.3-0.9-0.5c-0.5-0.3-1-0.6-1.5-1c-1-0.7-2.1-1.3-3.1-2c-4.1-2.8-8-6-11.5-9.5c-0.4-0.4-0.8-0.8-1.2-1.2
								c-0.1-1.9-0.1-3.7-0.3-5.6c-0.1-1.3,0.5-2.6,1.5-3.4c1.3-1.1,2.9-1.9,4.6-2.3c9.6-2.6,19.2-3.2,27.9-1.5
								c5.5,1.4,5.7,1.7,5.8,6.5C446.5,207.8,446.5,209.2,446.5,210.5z"/>
							<path id="Path_4414-17" class="st0" d="M447,240.6l-1-0.4l-0.4-0.1l-0.5-0.2l-0.6-0.3c-0.5-0.2-1.1-0.4-1.6-0.7
								c-1.1-0.5-2.2-1-3.3-1.5c-3.1-1.5-6.1-3.2-9-5.1c3.3-2.1,6-5.2,8.9-8l0.6-0.6c0.3-0.3,0.6-0.5,1-0.8c1.3-1,2.6-1.8,3.9-2.7
								l0.5-0.3l1.1-0.7c0,5,0,10.1,0.2,15.1C446.8,236.4,446.9,238.5,447,240.6z"/>
							<path id="Path_4415-17" class="st8" d="M448,249.9c-0.3,0.1-0.7,0.3-1,0.4c-5.4,2.3-9.6,6.9-14.7,10l-0.9,0.5l0,0L431,261
								c-0.7,0.3-1.4,0.6-2.1,0.8l-0.7,0.2l-0.7,0.1c-0.7,0.1-1.5,0.1-2.2,0h-0.4l-1-0.1c-0.8-0.1-1.5-0.2-2.3-0.3
								c-1.5-0.3-3-0.5-4.5-1c-0.9-0.2-1.7-0.5-2.5-0.8l-0.5-0.2H414c-0.4-0.2-0.8-0.4-1.2-0.5c-0.7-0.3-1.4-0.7-2-1.1h-0.1
								l-0.3-0.2l0,0l-0.5-0.5c0.1-0.9,0.1-1.9,0-2.8V254l0.9-0.6c6-4,12.4-8.4,16.4-14.7c6.2,4,12.8,7.2,19.7,9.5
								c0.4,0.1,0.7,0.3,1.1,0.4C447.9,248.9,447.9,249.4,448,249.9z"/>
							<path id="Path_4416-17" class="st9" d="M426.6,304.3c-1.4,2.5-2.6,5.1-3.8,7.8c-2.6,6-5.2,12.1-8.9,17.5
								c-5.9,8.5-13.8,11.5-23.3,9.5c-7.6-1.5-12.3-7.4-13.4-16.1c-0.8-6.6,0.5-13.3,3.5-19.2c3.6-7.4,8.4-13.9,13.1-20.4
								c4.4-6,9-11.8,13.1-18c0.2-0.3,0.4-0.6,0.6-1c0.3,0.2,0.6,0.4,0.9,0.5c1.7,0.9,3.5,1.7,5.4,2.3c2.1,0.7,4.2,1.2,6.3,1.5
								c1.7,0.9,3.4,1.8,4.1,3.7c0.3,0.9,0.6,1.8,0.8,2.7c0.3,9.1,0.3,18.2,1.3,27.2C426.4,303.1,426.5,303.7,426.6,304.3z"/>
							<path id="Path_4417-17" class="st0" d="M449,283c-1.6,1.4-3.2,2.6-5,3.7c-4,2.6-7.9,5.2-11.3,8.8l-0.2,0.2l-0.1-1.4
								c-0.4-7.1-0.4-14.1-0.7-21.2c0.5-2,1.4-4,2.6-5.7c2.6-1.5,5.2-3.3,7.5-5.3c1.5-1.2,2.9-2.3,4.5-3.3c0.4-0.3,0.8-0.5,1.2-0.8
								l0.5-0.3h0.1l0,0h0.1l0.9-0.4c0.7,3.6,1.5,7.2,2.4,10.8c0.5,1.9,0.9,3.9,1,5.9C452.9,277.4,451.6,280.8,449,283z"/>
							<path id="Path_4418-17" class="st10" d="M377,319.4c1.3,2,3.5,3.4,5.9,3.9c2.3,0.4,4.7,0.4,7,0.1"/>
							<path id="Path_4419-17" class="st11" d="M413.6,201.6c-0.2,1.7-0.1,3.4,0.4,5"/>
							<path id="Path_4420-17" class="st11" d="M417.3,200.3l0.2,4c0,0.5,0.1,1,0.2,1.4"/>
							<path id="Path_4421-17" class="st11" d="M424.4,199.6c0.2,1.3,0.3,2.6,0.3,3.9"/>
							<path id="Path_4422-17" class="st11" d="M420.6,200.1l0.2,3.1"/>
							<path id="Path_4423-17" class="st11" d="M429,199.5v3.9"/>
							<path id="Path_4424-17" class="st11" d="M434.6,199.6c-0.2,1.3-0.5,2.6-0.9,3.9"/>
							<path id="Path_4425-17" class="st11" d="M439.2,200.5c-0.3,1.4-0.6,2.8-0.9,4.3"/>
						</g>
						<g id="Group_2-18">
							<path id="Path_4412-18" class="st0" d="M522.5,346.4c-0.1,0.1-0.1,0.2-0.2,0.3c-0.1,0.1-0.3,0.4-0.3,0.4
								c-0.2,0.3-0.4,0.5-0.5,0.8c-0.7,0.9-1.4,1.8-2.2,2.6c-0.4,0.4-0.8,0.9-1.2,1.3l-0.1,0.1l0,0l-0.7,0.6c-2,1.8-4.2,3.5-6.5,5
								l-1,0.7c-0.5-7.5-1-15-1.5-22.6l1.1,0.9c2,1.7,4.2,3.3,6.3,4.8c2.1,1.5,4.2,3,6.5,4.3c0.1,0.1,0.2,0.1,0.3,0.1
								C522.5,345.9,522.5,346.2,522.5,346.4z"/>
							<path id="Path_4413-18" class="st5" d="M547.2,323.1l-1.1,0.8l-1,0.7c-2.5,1.7-5,3.3-7.3,5.2c-1.6,1.3-3.1,2.9-4.6,4.3
								l-1.1,1l-0.5,0.4l-0.2,0.2c-0.9,0.8-1.8,1.6-2.7,2.3c-0.6,0.5-1.2,0.9-1.9,1.3c0.2-0.1-0.3,0.1-0.6,0.3h-0.1l-0.2-0.1
								L525,339c-0.5-0.3-1-0.6-1.5-1c-1-0.7-2.1-1.3-3.1-2c-4.1-2.8-8-6-11.5-9.5c-0.4-0.4-0.8-0.8-1.1-1.2
								c-0.1-1.9-0.2-3.7-0.3-5.6c-0.1-1.3,0.5-2.6,1.5-3.4c1.3-1.1,2.9-1.9,4.6-2.3c9.6-2.6,19.2-3.2,27.9-1.5
								c5.4,1.4,5.7,1.7,5.8,6.5C547.2,320.4,547.2,321.7,547.2,323.1z"/>
							<path id="Path_4414-18" class="st0" d="M547.8,353.2l-1-0.4l-0.4-0.1l-0.5-0.2l-0.6-0.2l-1.6-0.7c-1.1-0.5-2.2-1-3.3-1.5
								c-3.1-1.5-6.1-3.2-9-5.1c3.3-2.1,6-5.2,8.9-8c0,0,0.5-0.5,0.7-0.6s0.6-0.5,1-0.8c1.3-1,2.6-1.8,3.9-2.7l0.5-0.3l1.1-0.7
								c0,5,0,10.1,0.2,15.1C547.5,348.9,547.6,351.1,547.8,353.2z"/>
							<path id="Path_4415-18" class="st8" d="M548.7,362.4c-0.3,0.1-0.7,0.3-1,0.4c-5.4,2.3-9.7,6.9-14.7,10l-0.9,0.5l0,0l-0.4,0.2
								c-0.7,0.3-1.4,0.6-2.1,0.8l-0.7,0.2l-0.7,0.1c-0.7,0.1-1.5,0.1-2.2,0h-0.4l-1-0.1c-0.8-0.1-1.5-0.2-2.3-0.3
								c-1.5-0.3-3-0.5-4.5-1c-0.8-0.2-1.7-0.5-2.5-0.8l-0.5-0.2h-0.1c-0.4-0.2-0.8-0.4-1.2-0.5c-0.7-0.3-1.4-0.7-2-1.1h-0.1
								l-0.3-0.2H511l-0.5-0.5c0.1-0.9,0.1-1.9,0-2.8c0-0.2,0-0.4,0-0.6l0.9-0.6c6-4,12.4-8.4,16.4-14.7c6.2,4,12.8,7.2,19.7,9.5
								c0.4,0.1,0.7,0.3,1.1,0.4C548.6,361.5,548.6,361.9,548.7,362.4z"/>
							<path id="Path_4416-18" class="st9" d="M527.3,416.8c-1.4,2.5-2.6,5.1-3.8,7.8c-2.7,6-5.2,12.1-8.9,17.5
								c-5.9,8.5-13.8,11.5-23.3,9.5c-7.6-1.5-12.3-7.4-13.4-16.1c-0.7-6.6,0.5-13.3,3.5-19.2c3.5-7.4,8.4-13.9,13.1-20.4
								c4.4-6,9-11.8,13.1-18c0.2-0.3,0.4-0.7,0.6-1l0.9,0.5c1.7,0.9,3.5,1.7,5.4,2.3c2.1,0.7,4.2,1.2,6.3,1.5
								c1.7,0.9,3.4,1.8,4.2,3.7c0.3,0.9,0.6,1.8,0.8,2.7c0.3,9.1,0.3,18.2,1.3,27.2C527.1,415.6,527.2,416.2,527.3,416.8z"/>
							<path id="Path_4417-18" class="st0" d="M549.8,395.5c-1.6,1.4-3.2,2.6-5,3.7c-4,2.6-7.9,5.2-11.3,8.8
								c-0.1,0.1-0.1,0.2-0.2,0.2c0-0.5-0.1-0.9-0.1-1.4c-0.4-7-0.4-14.1-0.7-21.2c0.5-2,1.4-4,2.6-5.7c2.6-1.5,5.2-3.3,7.5-5.3
								c1.5-1.2,2.9-2.3,4.5-3.3c0.4-0.3,0.8-0.5,1.2-0.8l0.5-0.3h0.1l0,0h0.1c0.3-0.1,0.6-0.3,0.9-0.4c0.7,3.6,1.4,7.2,2.4,10.8
								c0.5,1.9,0.8,3.9,1,5.9C553.6,389.9,552.3,393.2,549.8,395.5z"/>
							<path id="Path_4418-18" class="st10" d="M477.7,432c1.3,2,3.5,3.4,5.9,3.9c2.3,0.4,4.7,0.4,7,0.1"/>
							<path id="Path_4419-18" class="st11" d="M514.4,314.1c-0.2,1.7-0.1,3.4,0.4,5"/>
							<path id="Path_4420-18" class="st11" d="M518.1,312.8l0.2,4c0,0.5,0.1,1,0.2,1.4"/>
							<path id="Path_4421-18" class="st11" d="M525.1,312.2c0.2,1.3,0.3,2.6,0.3,4"/>
							<path id="Path_4422-18" class="st11" d="M521.4,312.6l0.2,3.1"/>
							<path id="Path_4423-18" class="st11" d="M529.8,312.1v3.9"/>
							<path id="Path_4424-18" class="st11" d="M535.3,312.1c-0.2,1.3-0.5,2.6-0.9,3.9"/>
							<path id="Path_4425-18" class="st11" d="M539.9,313.1c-0.2,1.4-0.6,2.9-0.9,4.3"/>
						</g>
						<g id="Group_2-19">
							<path id="Path_4412-19" class="st0" d="M491,532c0,0.1-0.1,0.2-0.2,0.3l-0.3,0.4c-0.2,0.3-0.4,0.5-0.6,0.8
								c-0.7,0.9-1.4,1.8-2.1,2.6c-0.4,0.4-0.8,0.9-1.3,1.3l-0.1,0.1l0,0c-0.2,0.2-0.5,0.4-0.7,0.7c-2,1.8-4.2,3.5-6.5,5l-1,0.7
								c-0.5-7.5-1-15-1.4-22.6c0.4,0.3,0.7,0.6,1.1,0.9c2,1.7,4.2,3.3,6.3,4.8c2.1,1.5,4.2,3,6.5,4.3c0.1,0.1,0.2,0.1,0.3,0.2
								C490.9,531.5,491,531.8,491,532z"/>
							<path id="Path_4413-19" class="st5" d="M515.6,508.7l-1.1,0.8l-1,0.7c-2.5,1.7-5,3.3-7.3,5.2c-1.6,1.3-3.1,2.8-4.6,4.3
								c-0.4,0.3-0.7,0.7-1.1,1l-0.4,0.4l-0.2,0.2c-0.9,0.8-1.8,1.6-2.7,2.3c-0.6,0.5-1.2,0.9-1.9,1.3c0.2-0.1-0.3,0.1-0.6,0.3h-0.1
								l-0.2-0.1l-0.9-0.5c-0.5-0.3-1-0.6-1.5-1c-1-0.7-2.1-1.3-3.1-2c-4.1-2.8-8-6-11.5-9.5c-0.4-0.4-0.8-0.8-1.2-1.2
								c-0.1-1.9-0.1-3.7-0.3-5.6c-0.1-1.3,0.5-2.6,1.5-3.4c1.3-1.1,2.9-1.9,4.6-2.3c9.6-2.6,19.2-3.2,27.9-1.5
								c5.4,1.4,5.7,1.7,5.7,6.5C515.6,505.9,515.6,507.3,515.6,508.7z"/>
							<path id="Path_4414-19" class="st0" d="M516.2,538.7l-1-0.4l-0.4-0.2l-0.5-0.2l-0.6-0.2c-0.5-0.2-1.1-0.4-1.6-0.7
								c-1.1-0.5-2.2-1-3.3-1.5c-3.1-1.5-6.1-3.2-9-5.1c3.3-2.1,6-5.2,8.9-8l0.6-0.6c0.3-0.3,0.6-0.5,1-0.8c1.3-1,2.6-1.8,3.9-2.7
								l0.5-0.3l1.1-0.7c0,5,0,10.1,0.2,15.1C515.9,534.6,516,536.7,516.2,538.7z"/>
							<path id="Path_4415-19" class="st8" d="M517.1,548c-0.3,0.1-0.7,0.3-1,0.4c-5.4,2.3-9.6,6.9-14.7,10l-0.9,0.5l0,0l-0.4,0.2
								c-0.7,0.4-1.4,0.7-2.2,0.9l-0.7,0.2c-0.2,0-0.6,0.1-0.7,0.1c-0.7,0.1-1.5,0.1-2.2,0h-0.4l-1-0.1c-0.8-0.1-1.5-0.2-2.3-0.3
								c-1.5-0.3-3-0.5-4.5-1c-0.9-0.2-1.7-0.5-2.5-0.8l-0.5-0.2H483c-0.4-0.2-0.8-0.3-1.2-0.5c-0.7-0.3-1.4-0.7-2-1.1h-0.1
								l-0.3-0.2l0,0l-0.5-0.5c0.1-0.9,0.1-1.9,0-2.8c0-0.2,0-0.4,0-0.6l0.9-0.6c6-4,12.4-8.4,16.4-14.7c6.2,4,12.8,7.2,19.7,9.5
								l1.1,0.4C517,547.1,517.1,547.5,517.1,548z"/>
							<path id="Path_4416-19" class="st9" d="M495.7,602.4c-1.4,2.5-2.6,5.2-3.8,7.8c-2.6,6-5.2,12.1-8.9,17.5
								c-5.9,8.5-13.8,11.5-23.3,9.5c-7.6-1.5-12.3-7.4-13.4-16.1c-0.7-6.6,0.5-13.3,3.5-19.2c3.6-7.4,8.4-13.8,13.1-20.3
								c4.4-6,9-11.8,13.1-18c0.2-0.3,0.4-0.6,0.6-1c0.3,0.2,0.6,0.4,0.9,0.5c1.7,0.9,3.5,1.7,5.4,2.3c2.1,0.7,4.2,1.2,6.3,1.5
								c1.7,0.9,3.4,1.8,4.1,3.7c0.3,0.9,0.6,1.8,0.8,2.7c0.3,9.1,0.3,18.2,1.3,27.2C495.6,601.2,495.6,601.8,495.7,602.4z"/>
							<path id="Path_4417-19" class="st0" d="M518.2,581.1c-1.6,1.4-3.2,2.6-5,3.7c-4,2.6-7.9,5.2-11.3,8.8l-0.2,0.2l-0.1-1.4
								c-0.4-7-0.4-14.1-0.7-21.2c0.5-2,1.4-4,2.6-5.7c2.6-1.5,5.2-3.3,7.5-5.3c1.5-1.2,2.9-2.3,4.5-3.3c0.4-0.3,0.8-0.5,1.2-0.8
								l0.5-0.3h0.1l0,0h0.1l0.9-0.4c0.7,3.6,1.5,7.2,2.4,10.8c0.5,1.9,0.8,3.9,1,5.9C522,575.5,520.7,578.8,518.2,581.1z"/>
							<path id="Path_4418-19" class="st10" d="M446.1,617.6c1.3,2,3.5,3.4,5.9,3.9c2.3,0.4,4.7,0.4,7,0.2"/>
							<path id="Path_4419-19" class="st11" d="M482.8,499.7c-0.2,1.7-0.1,3.4,0.4,5"/>
							<path id="Path_4420-19" class="st11" d="M486.5,498.4l0.2,4c0,0.5,0.1,1,0.2,1.4"/>
							<path id="Path_4421-19" class="st11" d="M493.5,497.7c0.2,1.3,0.3,2.6,0.3,4"/>
							<path id="Path_4422-19" class="st11" d="M489.8,498.2l0.2,3.1"/>
							<path id="Path_4423-19" class="st11" d="M498.2,497.7v3.9"/>
							<path id="Path_4424-19" class="st11" d="M503.8,497.7c-0.2,1.3-0.5,2.6-0.9,3.9"/>
							<path id="Path_4425-19" class="st11" d="M508.4,498.6c-0.2,1.4-0.6,2.8-0.9,4.3"/>
						</g>
						<g id="Group_2-20">
							<path id="Path_4412-20" class="st0" d="M-64.8,499l-0.2,0.3c-0.1,0.1-0.3,0.4-0.3,0.4l-0.6,0.8c-0.7,0.9-1.4,1.7-2.2,2.6
								c-0.4,0.4-0.8,0.9-1.3,1.3l-0.1,0.1l0,0c-0.2,0.2-0.5,0.4-0.7,0.7c-2.1,1.8-4.2,3.5-6.5,5l-1,0.6c-0.5-7.5-1-15-1.4-22.6
								l1.1,0.9c2,1.7,4.2,3.2,6.3,4.8c2.1,1.5,4.2,2.9,6.5,4.3l0.3,0.1C-64.9,498.5-64.9,498.8-64.8,499z"/>
							<path id="Path_4413-20" class="st5" d="M-40.2,475.7l-1.1,0.8l-1,0.7c-2.5,1.7-5,3.3-7.3,5.2c-1.6,1.3-3.1,2.8-4.6,4.3
								l-1.1,1l-0.5,0.4l-0.2,0.2c-0.9,0.8-1.8,1.6-2.7,2.3c-0.6,0.5-1.2,0.9-1.8,1.3c0.2-0.1-0.3,0.1-0.6,0.3h-0.1l-0.2-0.1
								c-0.3-0.2-0.6-0.3-0.9-0.5c-0.5-0.3-1-0.6-1.5-0.9c-1-0.7-2.1-1.3-3.1-2c-4.1-2.8-8-6-11.6-9.5c-0.4-0.4-0.8-0.8-1.2-1.2
								c-0.1-1.9-0.2-3.7-0.3-5.6c-0.1-1.3,0.5-2.6,1.5-3.4c1.3-1.1,2.9-1.9,4.6-2.3c9.6-2.6,19.2-3.2,27.9-1.5
								c5.4,1.4,5.7,1.7,5.8,6.5C-40.2,472.9-40.2,474.3-40.2,475.7z"/>
							<path id="Path_4414-20" class="st0" d="M-39.6,505.7l-1-0.4l-0.4-0.1l-0.5-0.2l-0.6-0.3c-0.5-0.2-1.1-0.4-1.6-0.7
								c-1.1-0.5-2.2-1-3.3-1.5c-3.1-1.5-6.1-3.2-9-5.1c3.3-2.1,6.1-5.2,8.9-8l0.7-0.6c0.3-0.3,0.6-0.5,1-0.8c1.3-1,2.6-1.8,3.9-2.7
								l0.5-0.3l1.1-0.7c0,5,0,10.1,0.2,15.1C-39.9,501.6-39.7,503.7-39.6,505.7z"/>
							<path id="Path_4415-20" class="st8" d="M-38.7,515c-0.3,0.1-0.7,0.3-1,0.4c-5.4,2.3-9.7,6.9-14.7,10
								c-0.3,0.2-0.6,0.3-0.9,0.5l0,0l-0.4,0.2c-0.7,0.3-1.4,0.6-2.1,0.8l-0.7,0.2l-0.7,0.1c-0.7,0.1-1.5,0.1-2.2,0h-0.4l-1-0.1
								c-0.8-0.1-1.5-0.2-2.3-0.3c-1.5-0.2-3-0.5-4.5-0.9c-0.8-0.2-1.7-0.5-2.5-0.8l-0.5-0.2h-0.1c-0.4-0.2-0.8-0.3-1.2-0.5
								c-0.7-0.3-1.4-0.7-2-1.1l-0.1-0.1l-0.3-0.2l0,0l-0.6-0.5c0.1-0.9,0.1-1.9,0-2.8c0-0.2,0-0.4,0-0.6l0.9-0.6
								c6-4,12.4-8.4,16.4-14.7c6.2,4,12.8,7.2,19.7,9.5l1.1,0.4C-38.8,514-38.7,514.5-38.7,515z"/>
							<path id="Path_4416-20" class="st9" d="M-60.1,569.4c-1.4,2.5-2.6,5.2-3.8,7.8c-2.7,6-5.2,12.1-8.9,17.5
								c-5.9,8.5-13.8,11.5-23.3,9.5c-7.6-1.5-12.3-7.4-13.4-16.1c-0.8-6.6,0.5-13.3,3.5-19.2c3.6-7.4,8.4-13.9,13.1-20.4
								c4.4-6,9-11.8,13.1-18c0.2-0.3,0.4-0.6,0.6-1c0.3,0.2,0.6,0.4,0.9,0.5c1.7,0.9,3.5,1.7,5.3,2.3c2.1,0.7,4.2,1.2,6.3,1.6
								c1.7,0.9,3.4,1.8,4.1,3.7c0.3,0.9,0.6,1.8,0.8,2.7c0.3,9.1,0.3,18.2,1.3,27.2C-60.2,568.2-60.2,568.8-60.1,569.4z"/>
							<path id="Path_4417-20" class="st0" d="M-37.6,548.1c-1.6,1.4-3.2,2.6-5,3.7c-4,2.6-7.9,5.2-11.3,8.8l-0.2,0.2l-0.1-1.4
								c-0.4-7-0.4-14.1-0.7-21.2c0.5-2,1.4-4,2.6-5.7c2.7-1.5,5.2-3.3,7.5-5.3c1.5-1.2,2.9-2.3,4.5-3.3c0.4-0.3,0.8-0.5,1.2-0.8
								l0.5-0.3l0,0l0,0h0.1l0.9-0.4c0.7,3.6,1.4,7.2,2.4,10.7c0.5,1.9,0.8,3.9,1,5.9C-33.8,542.5-35.1,545.8-37.6,548.1z"/>
							<path id="Path_4418-20" class="st10" d="M-109.7,584.5c1.3,2,3.5,3.4,5.9,3.9c2.3,0.4,4.7,0.4,7,0.2"/>
							<path id="Path_4419-20" class="st11" d="M-73,466.7c-0.2,1.7-0.1,3.4,0.4,5"/>
							<path id="Path_4420-20" class="st11" d="M-69.3,465.4l0.2,4c0,0.5,0.1,1,0.2,1.4"/>
							<path id="Path_4421-20" class="st11" d="M-62.3,464.7c0.2,1.3,0.3,2.6,0.3,4"/>
							<path id="Path_4422-20" class="st11" d="M-66,465.2l0.2,3.1"/>
							<path id="Path_4423-20" class="st11" d="M-57.6,464.7v3.9"/>
							<path id="Path_4424-20" class="st11" d="M-52,464.7c-0.2,1.3-0.5,2.6-0.9,3.9"/>
							<path id="Path_4425-20" class="st11" d="M-47.4,465.6c-0.3,1.4-0.6,2.9-0.9,4.3"/>
						</g>
					</g>
				</g>
			</g>
		</g>
	</g>
</g>
</svg>
