<?xml version="1.0" encoding="utf-8"?>
<!-- Generator: Adobe Illustrator 24.2.3, SVG Export Plug-In . SVG Version: 6.00 Build 0)  -->
<svg version="1.1" id="圖層_1" xmlns="http://www.w3.org/2000/svg" xmlns:xlink="http://www.w3.org/1999/xlink" x="0px" y="0px"
	 viewBox="0 0 680 540" style="enable-background:new 0 0 680 540;" xml:space="preserve">
<style type="text/css">
	.st0{fill:#F2DE79;}
	.st1{fill:#F8F4EB;}
	.st2{opacity:0.15;}
	.st3{clip-path:url(#SVGID_2_);}
	.st4{fill:#03588C;}
	.st5{fill:#FF9685;}
	.st6{fill:#0388A6;}
	.st7{fill:none;stroke:#EDEDED;stroke-width:0.52;stroke-miterlimit:10;}
	.st8{fill:none;stroke:#00A99D;stroke-width:0.52;stroke-miterlimit:10;}
	.st9{fill:none;stroke:#03588C;stroke-miterlimit:10;}
	.st10{enable-background:new    ;}
</style>
<g id="圖層_2_1_">
	<g id="圖層_1-2">
		<path id="Rectangle_8-2" class="st0" d="M37,0h606c20.5,0,37,20.9,37,46.8v446.5c0,25.8-16.6,46.8-37,46.8H37
			c-20.5,0-37-20.9-37-46.8V46.8C0,20.9,16.6,0,37,0z"/>
		<path id="Rectangle_8-3" class="st1" d="M50.4,15h579.2c19.5,0,35.4,19.8,35.4,44.2v421.7c0,24.4-15.8,44.2-35.4,44.2H50.4
			C30.8,525,15,505.2,15,480.8V59.2C15,34.8,30.8,15,50.4,15z"/>
		<g class="st2">
			<g>
				<g>
					<defs>
						<path id="SVGID_1_" d="M50.4,15h579.2c19.5,0,35.4,19.8,35.4,44.2v421.7c0,24.4-15.8,44.2-35.4,44.2H50.4
							C30.8,525,15,505.2,15,480.8V59.2C15,34.8,30.8,15,50.4,15z"/>
					</defs>
					<clipPath id="SVGID_2_">
						<use xlink:href="#SVGID_1_"  style="overflow:visible;"/>
					</clipPath>
					<g class="st3">
						<g id="Group_2">
							<path id="Path_4412" class="st0" d="M79.8,116.4c-0.1,0.1-0.1,0.2-0.2,0.3c-0.1,0.1-0.3,0.4-0.3,0.4
								c-0.2,0.3-0.4,0.5-0.6,0.8c-0.7,0.9-1.4,1.8-2.2,2.6c-0.4,0.4-0.8,0.9-1.3,1.3l-0.1,0.1l0,0l-0.7,0.7c-2.1,1.8-4.2,3.5-6.5,5
								l-0.9,0.7c-0.5-7.5-1-15-1.4-22.6l1.1,0.9c2,1.7,4.2,3.3,6.3,4.8c2.1,1.5,4.2,3,6.5,4.3c0.1,0.1,0.2,0.1,0.3,0.2
								C79.7,115.9,79.7,116.1,79.8,116.4z"/>
							<path id="Path_4413" class="st4" d="M104.4,93.1l-1.1,0.8l-1,0.7c-2.4,1.7-5,3.3-7.3,5.2c-1.6,1.3-3.1,2.8-4.6,4.3l-1.1,1
								l-0.4,0.4l-0.2,0.2c-0.9,0.8-1.8,1.6-2.7,2.3c-0.6,0.5-1.3,0.9-1.9,1.3c0.2-0.1-0.3,0.1-0.6,0.3h-0.1l-0.2-0.1l-0.9-0.5
								c-0.5-0.3-1-0.6-1.4-1c-1-0.7-2.1-1.3-3.1-2c-4.1-2.8-7.9-6-11.5-9.4c-0.4-0.4-0.8-0.8-1.2-1.2c-0.1-1.9-0.2-3.7-0.3-5.6
								c-0.1-1.3,0.5-2.6,1.5-3.4c1.3-1.1,2.9-1.8,4.6-2.3c9.6-2.6,19.2-3.2,27.9-1.5c5.4,1.4,5.7,1.7,5.8,6.5
								C104.4,90.3,104.4,91.7,104.4,93.1z"/>
							<path id="Path_4414" class="st0" d="M105,123.1l-1-0.4l-0.4-0.2l-0.5-0.2l-0.6-0.2l-1.6-0.7c-1.1-0.5-2.2-1-3.3-1.5
								c-3.1-1.5-6.1-3.2-9-5.1c3.3-2.1,6-5.2,8.9-7.9c0,0,0.5-0.5,0.7-0.6c0.3-0.3,0.6-0.5,1-0.8c1.3-1,2.6-1.8,3.9-2.7l0.5-0.3
								l1.1-0.7c0,5,0,10.1,0.2,15.1C104.7,119,104.8,121,105,123.1z"/>
							<path id="Path_4415" class="st5" d="M105.9,132.4c-0.3,0.1-0.7,0.3-1,0.4c-5.4,2.3-9.7,6.9-14.7,10l-0.9,0.5l0,0l-0.4,0.2
								c-0.7,0.3-1.4,0.6-2.1,0.8l-0.7,0.2l-0.7,0.1c-0.7,0.1-1.5,0.1-2.2,0h-0.4l-1-0.1c-0.8-0.1-1.5-0.2-2.3-0.3
								c-1.5-0.3-3-0.6-4.5-1c-0.8-0.2-1.7-0.5-2.5-0.8l-0.5-0.2h-0.1c-0.4-0.2-0.8-0.4-1.2-0.6c-0.7-0.3-1.4-0.7-2-1.1l-0.1-0.1
								c-0.1-0.1-0.2-0.1-0.3-0.2h-0.1l-0.5-0.5c0.1-0.9,0.1-1.9,0-2.8c0-0.2,0-0.4,0-0.6l0.9-0.6c6-4,12.4-8.4,16.4-14.7
								c6.2,4,12.8,7.2,19.7,9.5c0.4,0.1,0.7,0.3,1.1,0.4C105.8,131.4,105.9,131.9,105.9,132.4z"/>
							<path id="Path_4416" class="st6" d="M84.5,186.8c-1.4,2.5-2.6,5.1-3.8,7.8c-2.7,6-5.2,12.1-8.9,17.5
								c-5.8,8.5-13.8,11.5-23.2,9.5c-7.6-1.5-12.3-7.4-13.4-16.1c-0.7-6.6,0.5-13.3,3.5-19.2c3.6-7.4,8.3-13.9,13.1-20.4
								c4.4-6,9-11.8,13.1-18c0.2-0.3,0.4-0.7,0.6-1l0.9,0.5c1.7,0.9,3.5,1.7,5.3,2.3c2.1,0.7,4.2,1.2,6.3,1.6
								c1.7,0.9,3.4,1.8,4.2,3.7c0.3,0.9,0.6,1.8,0.8,2.7c0.3,9.1,0.3,18.2,1.3,27.2C84.4,185.6,84.4,186.2,84.5,186.8z"/>
							<path id="Path_4417" class="st0" d="M107,165.5c-1.6,1.4-3.2,2.6-5,3.7c-4,2.6-7.9,5.2-11.3,8.8c-0.1,0.1-0.1,0.2-0.2,0.2
								c0-0.5-0.1-0.9-0.1-1.4c-0.4-7.1-0.4-14.1-0.7-21.2c0.5-2,1.4-4,2.6-5.7c2.6-1.5,5.2-3.3,7.5-5.3c1.5-1.2,2.9-2.3,4.5-3.3
								c0.4-0.3,0.8-0.5,1.2-0.8l0.5-0.3h0.1l0,0h0.1c0.3-0.1,0.6-0.3,0.9-0.4c0.7,3.6,1.4,7.2,2.4,10.7c0.5,1.9,0.8,3.9,1,5.9
								C110.8,159.9,109.5,163.2,107,165.5z"/>
							<path id="Path_4418" class="st7" d="M34.9,202c1.3,2,3.5,3.4,5.9,3.9c2.3,0.4,4.7,0.4,7,0.1"/>
							<path id="Path_4419" class="st8" d="M71.6,84.1c-0.2,1.7-0.1,3.4,0.4,5"/>
							<path id="Path_4420" class="st8" d="M75.3,82.8l0.2,4c0,0.5,0.1,1,0.2,1.4"/>
							<path id="Path_4421" class="st8" d="M82.3,82.1c0.2,1.3,0.3,2.7,0.3,4"/>
							<path id="Path_4422" class="st8" d="M78.6,82.6l0.2,3.1"/>
							<path id="Path_4423" class="st8" d="M87,82.1V86"/>
							<path id="Path_4424" class="st8" d="M92.6,82.1c-0.2,1.3-0.5,2.6-0.9,3.9"/>
							<path id="Path_4425" class="st8" d="M97.1,83c-0.2,1.4-0.6,2.8-0.9,4.3"/>
						</g>
						<g id="Group_2-2">
							<path id="Path_4412-2" class="st0" d="M192.5,245.1l-0.2,0.3l-0.3,0.4c-0.2,0.3-0.4,0.5-0.6,0.8c-0.7,0.9-1.4,1.8-2.1,2.6
								c-0.4,0.4-0.8,0.9-1.3,1.3l-0.1,0.1l0,0l-0.7,0.6c-2,1.8-4.2,3.5-6.5,5l-1,0.7c-0.5-7.5-1-15-1.4-22.6l1.1,0.9
								c2,1.7,4.2,3.3,6.3,4.8s4.2,2.9,6.5,4.3c0.1,0.1,0.2,0.1,0.3,0.1C192.4,244.7,192.5,244.9,192.5,245.1z"/>
							<path id="Path_4413-2" class="st4" d="M217.2,221.8l-1.1,0.8l-1,0.7c-2.4,1.7-5,3.3-7.3,5.2c-1.6,1.3-3.1,2.9-4.6,4.3l-1.1,1
								l-0.4,0.4l-0.2,0.2c-0.9,0.8-1.8,1.6-2.7,2.3c-0.6,0.5-1.2,0.9-1.9,1.3c0.2-0.1-0.4,0.1-0.6,0.3h-0.1l-0.2-0.1l-0.9-0.5
								c-0.5-0.3-1-0.6-1.5-1c-1-0.7-2.1-1.3-3.1-2c-4.1-2.8-8-6-11.5-9.5c-0.4-0.4-0.8-0.8-1.1-1.2c-0.1-1.9-0.2-3.7-0.3-5.6
								c-0.1-1.3,0.5-2.6,1.5-3.4c1.3-1.1,2.9-1.9,4.6-2.3c9.6-2.6,19.2-3.2,27.9-1.5c5.4,1.4,5.7,1.7,5.8,6.5
								C217.2,219.1,217.2,220.5,217.2,221.8z"/>
							<path id="Path_4414-2" class="st0" d="M217.8,251.9l-1-0.4l-0.4-0.1l-0.5-0.2l-0.6-0.2c-0.6-0.2-1.1-0.4-1.6-0.7
								c-1.1-0.5-2.2-1-3.3-1.5c-3.1-1.5-6.1-3.2-8.9-5.1c3.3-2.1,6.1-5.2,8.9-8l0.6-0.6c0.3-0.3,0.6-0.5,1-0.8
								c1.3-1,2.6-1.8,3.9-2.7l0.5-0.3l1.1-0.7c0,5,0,10.1,0.2,15.1C217.5,247.7,217.6,249.8,217.8,251.9z"/>
							<path id="Path_4415-2" class="st5" d="M218.7,261.1c-0.3,0.1-0.7,0.3-1,0.4c-5.4,2.3-9.6,6.9-14.7,10l-0.9,0.5l0,0l-0.4,0.2
								c-0.7,0.3-1.4,0.6-2.1,0.8l-0.7,0.2l-0.7,0.1c-0.7,0.1-1.5,0.1-2.2,0h-0.4l-0.9-0.1c-0.8-0.1-1.5-0.2-2.3-0.3
								c-1.5-0.3-3-0.5-4.5-1c-0.9-0.2-1.7-0.5-2.5-0.8l-0.5-0.2h-0.1c-0.4-0.2-0.8-0.4-1.2-0.5c-0.7-0.3-1.4-0.7-2-1.1l-0.1-0.1
								l-0.3-0.2h-0.1l-0.6-0.5c0.1-0.9,0.1-1.9,0-2.8c0-0.2,0-0.4,0-0.6l0.9-0.6c6-4,12.4-8.4,16.4-14.7c6.2,4,12.8,7.2,19.7,9.5
								c0.4,0.1,0.7,0.3,1.1,0.4C218.6,260.2,218.6,260.7,218.7,261.1z"/>
							<path id="Path_4416-2" class="st6" d="M197.3,315.6c-1.4,2.5-2.6,5.1-3.8,7.8c-2.6,6-5.2,12.1-8.9,17.5
								c-5.9,8.5-13.8,11.5-23.3,9.5c-7.6-1.5-12.3-7.4-13.4-16.1c-0.8-6.6,0.5-13.3,3.5-19.2c3.6-7.4,8.4-13.9,13.1-20.4
								c4.4-6,9-11.8,13.1-18c0.2-0.3,0.4-0.6,0.6-1c0.3,0.2,0.6,0.4,0.9,0.5c1.7,0.9,3.5,1.7,5.3,2.3c2.1,0.7,4.2,1.2,6.3,1.5
								c1.7,0.9,3.4,1.8,4.1,3.7c0.3,0.9,0.6,1.8,0.8,2.7c0.3,9.1,0.3,18.2,1.3,27.2C197.1,314.4,197.2,315,197.3,315.6z"/>
							<path id="Path_4417-2" class="st0" d="M219.8,294.2c-1.6,1.4-3.2,2.6-5,3.7c-4,2.6-7.9,5.2-11.3,8.8l-0.2,0.2l-0.1-1.4
								c-0.4-7-0.4-14.1-0.7-21.2c0.5-2,1.4-4,2.6-5.7c2.6-1.5,5.2-3.3,7.5-5.3c1.5-1.2,2.9-2.3,4.5-3.3c0.4-0.3,0.8-0.5,1.2-0.8
								l0.5-0.3h0.1l0,0h0.1c0.3-0.1,0.6-0.3,0.9-0.4c0.6,3.6,1.4,7.2,2.4,10.8c0.5,1.9,0.8,3.9,1,5.9
								C223.6,288.6,222.3,292,219.8,294.2z"/>
							<path id="Path_4418-2" class="st7" d="M147.7,330.7c1.3,2,3.5,3.4,5.9,3.9c2.3,0.4,4.7,0.4,7,0.1"/>
							<path id="Path_4419-2" class="st8" d="M184.4,212.9c-0.2,1.7-0.1,3.4,0.4,5"/>
							<path id="Path_4420-2" class="st8" d="M188.1,211.6l0.2,4c0,0.5,0.1,1,0.2,1.4"/>
							<path id="Path_4421-2" class="st8" d="M195.1,210.9c0.2,1.3,0.3,2.6,0.3,3.9"/>
							<path id="Path_4422-2" class="st8" d="M191.4,211.4l0.2,3.1"/>
							<path id="Path_4423-2" class="st8" d="M199.8,210.8v3.9"/>
							<path id="Path_4424-2" class="st8" d="M205.3,210.8c-0.2,1.3-0.5,2.6-0.9,3.9"/>
							<path id="Path_4425-2" class="st8" d="M209.9,211.8c-0.3,1.4-0.6,2.9-0.9,4.3"/>
						</g>
						<g id="Group_2-3">
							<path id="Path_4412-3" class="st0" d="M258.2,52l-0.2,0.3l-0.3,0.4c-0.2,0.3-0.4,0.5-0.5,0.8c-0.7,0.9-1.4,1.8-2.2,2.6
								c-0.4,0.4-0.8,0.8-1.3,1.3l-0.1,0.1l0,0l-0.7,0.7c-2.1,1.8-4.2,3.5-6.5,5l-1,0.7c-0.5-7.5-1-15-1.4-22.6
								c0.4,0.3,0.7,0.6,1.1,0.9c2,1.7,4.2,3.3,6.3,4.8s4.2,2.9,6.5,4.3l0.3,0.2C258.1,51.5,258.1,51.8,258.2,52z"/>
							<path id="Path_4413-3" class="st4" d="M282.8,28.7l-1.1,0.7l-1,0.7c-2.5,1.7-5,3.3-7.3,5.2c-1.6,1.3-3.1,2.8-4.6,4.3l-1.1,1
								l-0.4,0.4l-0.2,0.2c-0.9,0.8-1.8,1.6-2.7,2.3c-0.6,0.5-1.2,0.9-1.9,1.3c0.2-0.1-0.3,0.1-0.6,0.3h-0.1l-0.2-0.1
								c-0.3-0.2-0.6-0.3-0.9-0.5c-0.5-0.3-1-0.6-1.5-1c-1-0.7-2.1-1.3-3.1-2c-4.1-2.8-8-6-11.5-9.5c-0.4-0.4-0.8-0.8-1.2-1.2
								c-0.1-1.9-0.1-3.7-0.3-5.6c-0.1-1.3,0.5-2.6,1.5-3.4c1.3-1.1,2.9-1.9,4.6-2.3c9.6-2.6,19.2-3.2,27.9-1.5
								c5.5,1.4,5.7,1.7,5.8,6.5C282.8,25.9,282.8,27.3,282.8,28.7z"/>
							<path id="Path_4414-3" class="st0" d="M283.4,58.8l-1-0.4l-0.4-0.2l-0.5-0.2l-0.6-0.3l-1.6-0.7c-1.1-0.5-2.2-1-3.3-1.5
								c-3.1-1.5-6.1-3.2-8.9-5.1c3.3-2.1,6-5.2,8.9-8c0,0,0.5-0.5,0.6-0.6c0.3-0.3,0.6-0.5,1-0.8c1.3-1,2.6-1.8,3.9-2.7L282,38
								l1.1-0.7c0,5,0,10.1,0.2,15.1C283.2,54.6,283.3,56.7,283.4,58.8z"/>
							<path id="Path_4415-3" class="st5" d="M284.3,68l-1,0.4c-5.4,2.3-9.6,6.9-14.7,10c-0.3,0.2-0.6,0.3-0.9,0.5l0,0
								c-0.1,0.1-0.2,0.1-0.4,0.2c-0.7,0.3-1.4,0.6-2.1,0.8l-0.7,0.2l-0.7,0.1c-0.7,0.1-1.5,0.1-2.2,0h-0.4l-1-0.1
								c-0.8-0.1-1.5-0.2-2.3-0.3c-1.5-0.2-3-0.6-4.5-0.9c-0.9-0.2-1.7-0.5-2.5-0.8l-0.5-0.2h-0.1c-0.4-0.2-0.8-0.4-1.2-0.5
								c-0.7-0.3-1.4-0.7-2-1.1H247l-0.3-0.2l0,0l-0.6-0.5c0.1-0.9,0.1-1.9,0-2.8v-0.6l0.9-0.6c6-4,12.4-8.4,16.4-14.7
								c6.2,4,12.8,7.2,19.7,9.5l1.1,0.4C284.2,67.1,284.3,67.5,284.3,68z"/>
							<path id="Path_4416-3" class="st6" d="M262.9,122.4c-1.4,2.5-2.6,5.2-3.8,7.8c-2.6,6-5.2,12.1-8.9,17.5
								c-5.9,8.5-13.8,11.5-23.3,9.5c-7.6-1.5-12.3-7.4-13.4-16.1c-0.7-6.6,0.5-13.3,3.5-19.2c3.6-7.4,8.4-13.9,13.1-20.4
								c4.4-6,9-11.8,13.1-18c0.2-0.3,0.4-0.6,0.6-1c0.3,0.2,0.6,0.4,0.9,0.5c1.7,0.9,3.5,1.7,5.4,2.3c2.1,0.7,4.2,1.2,6.3,1.6
								c1.7,0.9,3.4,1.8,4.1,3.7c0.3,0.9,0.6,1.8,0.8,2.7c0.3,9.1,0.3,18.2,1.3,27.2C262.8,121.2,262.9,121.8,262.9,122.4z"/>
							<path id="Path_4417-3" class="st0" d="M285.4,101.1c-1.6,1.4-3.2,2.6-5,3.7c-4,2.6-7.9,5.2-11.3,8.8l-0.2,0.2l-0.1-1.4
								c-0.4-7.1-0.4-14.2-0.7-21.2c0.5-2,1.4-4,2.6-5.7c2.7-1.5,5.2-3.3,7.5-5.3c1.5-1.2,2.9-2.3,4.5-3.3c0.4-0.3,0.8-0.5,1.2-0.8
								l0.5-0.3h0.1l0,0h0.1l0.9-0.4c0.7,3.6,1.5,7.2,2.4,10.7c0.5,1.9,0.9,3.8,1,5.8C289.3,95.4,288,98.8,285.4,101.1z"/>
							<path id="Path_4418-3" class="st7" d="M213.4,137.6c1.3,2,3.5,3.4,5.9,3.9c2.3,0.4,4.7,0.4,7,0.2"/>
							<path id="Path_4419-3" class="st8" d="M250,19.7c-0.2,1.7-0.1,3.4,0.4,5"/>
							<path id="Path_4420-3" class="st8" d="M253.7,18.4l0.2,4c0,0.5,0.1,1,0.2,1.4"/>
							<path id="Path_4421-3" class="st8" d="M260.8,17.7c0.2,1.3,0.3,2.7,0.3,4"/>
							<path id="Path_4422-3" class="st8" d="M257,18.2l0.2,3.1"/>
							<path id="Path_4423-3" class="st8" d="M265.4,17.7v3.9"/>
							<path id="Path_4424-3" class="st8" d="M271,17.7c-0.2,1.3-0.5,2.6-0.9,3.9"/>
							<path id="Path_4425-3" class="st8" d="M275.6,18.7c-0.3,1.4-0.6,2.8-0.9,4.3"/>
						</g>
						<g id="Group_2-4">
							<path id="Path_4412-4" class="st0" d="M380.5,155.3l-0.2,0.3L380,156l-0.5,0.8c-0.7,0.9-1.4,1.8-2.2,2.6
								c-0.4,0.4-0.8,0.9-1.2,1.3l-0.1,0.1l0,0l-0.7,0.7c-2.1,1.8-4.2,3.5-6.5,5l-1,0.6c-0.5-7.5-1-15-1.5-22.6
								c0.4,0.3,0.7,0.6,1.1,0.9c2,1.7,4.2,3.3,6.3,4.8c2.1,1.5,4.2,2.9,6.5,4.3l0.3,0.1C380.4,154.8,380.4,155.1,380.5,155.3z"/>
							<path id="Path_4413-4" class="st4" d="M405.1,132l-1.1,0.7l-1,0.7c-2.5,1.7-5,3.3-7.3,5.2c-1.6,1.3-3.1,2.8-4.6,4.3L390,144
								l-0.5,0.4l-0.2,0.2c-0.9,0.8-1.8,1.6-2.7,2.3c-0.6,0.5-1.2,0.9-1.9,1.3c0.2-0.1-0.3,0.1-0.6,0.3H384l-0.2-0.1
								c-0.3-0.2-0.6-0.3-0.9-0.5c-0.5-0.3-1-0.6-1.5-0.9c-1-0.7-2.1-1.3-3.1-2c-4.1-2.8-8-6-11.5-9.5c-0.4-0.4-0.8-0.8-1.1-1.2
								c-0.1-1.9-0.2-3.7-0.3-5.6c-0.1-1.3,0.5-2.6,1.5-3.4c1.3-1.1,2.9-1.9,4.5-2.3c9.6-2.6,19.2-3.2,27.9-1.5
								c5.4,1.4,5.7,1.7,5.8,6.5C405.1,129.3,405.1,130.6,405.1,132z"/>
							<path id="Path_4414-4" class="st0" d="M405.7,162.1l-1-0.4l-0.4-0.1l-0.5-0.2l-0.6-0.3l-1.6-0.7c-1.1-0.5-2.2-1-3.3-1.5
								c-3.1-1.5-6.1-3.2-9-5.1c3.3-2.1,6-5.2,8.9-8c0,0,0.5-0.4,0.6-0.6c0.3-0.3,0.6-0.5,1-0.8c1.3-0.9,2.6-1.8,3.9-2.7l0.5-0.3
								l1.1-0.7c0,5,0,10.1,0.2,15.1C405.4,157.9,405.5,160,405.7,162.1z"/>
							<path id="Path_4415-4" class="st5" d="M406.6,171.3c-0.4,0.1-0.7,0.3-1,0.4c-5.4,2.3-9.6,6.9-14.7,10
								c-0.3,0.2-0.6,0.4-0.9,0.5l0,0l-0.4,0.2c-0.7,0.3-1.4,0.6-2.1,0.9l-0.7,0.2l-0.7,0.1c-0.7,0.1-1.5,0.1-2.2,0h-0.4l-1-0.1
								c-0.8-0.1-1.5-0.2-2.3-0.3c-1.5-0.2-3-0.6-4.5-0.9c-0.9-0.2-1.7-0.5-2.5-0.8l-0.5-0.2h-0.1c-0.4-0.2-0.8-0.3-1.2-0.5
								c-0.7-0.3-1.4-0.7-2-1.1l-0.1-0.1c-0.1-0.1-0.2-0.1-0.3-0.2h-0.1l-0.5-0.5c0.1-0.9,0.1-1.9,0-2.8c0-0.2,0-0.4,0-0.6l0.9-0.6
								c6-4,12.4-8.4,16.4-14.7c6.2,4,12.8,7.2,19.7,9.5l1.1,0.4C406.5,170.4,406.6,170.9,406.6,171.3z"/>
							<path id="Path_4416-4" class="st6" d="M385.2,225.8c-1.4,2.5-2.6,5.1-3.8,7.8c-2.6,6-5.2,12.1-8.9,17.5
								c-5.9,8.5-13.8,11.5-23.3,9.5c-7.6-1.5-12.3-7.4-13.4-16.1c-0.7-6.6,0.5-13.3,3.5-19.2c3.6-7.4,8.4-13.9,13.1-20.4
								c4.4-6,9-11.8,13.1-18c0.2-0.3,0.4-0.6,0.6-1c0.3,0.2,0.6,0.4,0.9,0.5c1.7,0.9,3.5,1.7,5.4,2.3c2.1,0.7,4.2,1.2,6.3,1.5
								c1.7,0.9,3.4,1.8,4.1,3.7c0.3,0.9,0.6,1.8,0.8,2.7c0.3,9.1,0.3,18.2,1.3,27.2C385.1,224.6,385.1,225.2,385.2,225.8z"/>
							<path id="Path_4417-4" class="st0" d="M407.7,204.4c-1.6,1.4-3.2,2.6-5,3.7c-4,2.6-7.9,5.2-11.3,8.8l-0.2,0.2
								c0-0.5-0.1-0.9-0.1-1.4c-0.4-7.1-0.4-14.1-0.7-21.2c0.5-2,1.4-4,2.6-5.7c2.7-1.5,5.2-3.3,7.5-5.3c1.5-1.2,2.9-2.3,4.5-3.3
								c0.4-0.3,0.8-0.5,1.2-0.8l0.5-0.3h0.1l0,0h0.1l0.9-0.4c0.6,3.6,1.4,7.2,2.4,10.7c0.5,1.9,0.8,3.9,1,5.9
								C411.5,198.8,410.2,202.2,407.7,204.4z"/>
							<path id="Path_4418-4" class="st7" d="M335.6,240.9c1.3,2,3.5,3.4,5.9,3.9c2.3,0.4,4.7,0.4,7,0.2"/>
							<path id="Path_4419-4" class="st8" d="M372.3,123.1c-0.2,1.7-0.1,3.4,0.4,5"/>
							<path id="Path_4420-4" class="st8" d="M376,121.8l0.2,4c0,0.5,0.1,1,0.2,1.4"/>
							<path id="Path_4421-4" class="st8" d="M383,121.1c0.2,1.3,0.3,2.7,0.3,4"/>
							<path id="Path_4422-4" class="st8" d="M379.3,121.5l0.2,3.1"/>
							<path id="Path_4423-4" class="st8" d="M387.7,121v3.9"/>
							<path id="Path_4424-4" class="st8" d="M393.3,121c-0.2,1.3-0.5,2.6-0.9,3.9"/>
							<path id="Path_4425-4" class="st8" d="M397.8,122c-0.3,1.4-0.6,2.8-0.9,4.3"/>
						</g>
						<g id="Group_2-5">
							<path id="Path_4412-5" class="st0" d="M293.3,347.4c0,0.1-0.1,0.2-0.2,0.3s-0.3,0.4-0.3,0.4c-0.2,0.3-0.4,0.5-0.5,0.8
								c-0.7,0.9-1.4,1.8-2.2,2.6c-0.4,0.4-0.8,0.9-1.3,1.3l-0.1,0.1l0,0c-0.2,0.2-0.5,0.4-0.7,0.6c-2,1.8-4.2,3.5-6.5,5l-1,0.7
								c-0.5-7.5-1-15-1.4-22.6c0.4,0.3,0.7,0.6,1.1,0.9c2,1.7,4.2,3.2,6.3,4.8c2.1,1.5,4.2,2.9,6.5,4.3l0.3,0.1
								C293.2,346.9,293.2,347.2,293.3,347.4z"/>
							<path id="Path_4413-5" class="st4" d="M317.9,324.1l-1.1,0.8l-1,0.7c-2.5,1.7-5,3.3-7.3,5.2c-1.6,1.3-3.1,2.8-4.6,4.3
								c-0.4,0.4-0.7,0.7-1.1,1l-0.4,0.4l-0.2,0.2c-0.9,0.8-1.8,1.6-2.7,2.3c-0.6,0.5-1.2,0.9-1.9,1.3c0.2-0.1-0.3,0.1-0.6,0.3h-0.1
								l-0.2-0.1l-0.9-0.5c-0.5-0.3-1-0.6-1.5-1c-1-0.7-2.1-1.3-3.1-2c-4.1-2.8-8-6-11.5-9.5c-0.4-0.4-0.8-0.8-1.2-1.2
								c-0.1-1.9-0.1-3.7-0.3-5.6c-0.1-1.3,0.5-2.6,1.5-3.4c1.3-1.1,2.9-1.9,4.5-2.3c9.6-2.6,19.2-3.2,27.9-1.5
								c5.4,1.4,5.7,1.7,5.7,6.5C317.9,321.4,317.9,322.7,317.9,324.1z"/>
							<path id="Path_4414-5" class="st0" d="M318.5,354.2l-1-0.4l-0.4-0.1l-0.5-0.2l-0.6-0.3c-0.5-0.2-1.1-0.4-1.6-0.7
								c-1.1-0.5-2.2-1-3.3-1.5c-3.1-1.5-6.1-3.2-9-5.1c3.3-2.1,6-5.2,8.9-8l0.6-0.6c0.3-0.3,0.6-0.5,1-0.8c1.3-1,2.6-1.8,3.9-2.7
								l0.5-0.3l1.1-0.7c0,5,0,10.1,0.2,15.1C318.2,350,318.3,352.1,318.5,354.2z"/>
							<path id="Path_4415-5" class="st5" d="M319.4,363.4c-0.3,0.1-0.7,0.3-1,0.4c-5.4,2.3-9.6,6.9-14.7,10l-0.9,0.5l0,0l-0.4,0.2
								c-0.7,0.3-1.4,0.6-2.1,0.8l-0.7,0.2l-0.7,0.1c-0.7,0.1-1.5,0.1-2.2,0h-0.4l-1-0.1c-0.8-0.1-1.5-0.2-2.3-0.3
								c-1.5-0.2-3-0.5-4.5-0.9c-0.9-0.2-1.7-0.5-2.5-0.8l-0.5-0.2h-0.1l-1.2-0.5c-0.7-0.3-1.4-0.7-2-1.1l-0.1-0.1l-0.3-0.2l0,0
								c-0.2-0.2-0.4-0.3-0.5-0.5c0.1-0.9,0.1-1.9,0-2.8c0-0.2,0-0.4,0-0.6l0.9-0.6c6-4,12.4-8.4,16.4-14.7c6.2,4,12.8,7.2,19.7,9.5
								l1.1,0.4C319.3,362.5,319.4,362.9,319.4,363.4z"/>
							<path id="Path_4416-5" class="st6" d="M298,417.8c-1.4,2.5-2.6,5.1-3.8,7.8c-2.6,6-5.2,12.1-8.9,17.5
								c-5.9,8.5-13.8,11.5-23.3,9.5c-7.6-1.5-12.3-7.4-13.4-16.1c-0.8-6.6,0.5-13.3,3.5-19.2c3.6-7.4,8.4-13.9,13.1-20.4
								c4.4-6,9-11.8,13.1-18c0.2-0.3,0.4-0.6,0.6-1c0.3,0.2,0.6,0.4,0.9,0.5c1.7,0.9,3.5,1.7,5.4,2.3c2.1,0.7,4.2,1.2,6.3,1.5
								c1.7,0.9,3.4,1.8,4.1,3.7c0.3,0.9,0.6,1.8,0.8,2.7c0.3,9.1,0.3,18.2,1.3,27.2C297.9,416.6,297.9,417.2,298,417.8z"/>
							<path id="Path_4417-5" class="st0" d="M320.5,396.5c-1.6,1.4-3.2,2.6-5,3.7c-4,2.6-7.9,5.2-11.3,8.8l-0.2,0.2l-0.1-1.4
								c-0.4-7-0.4-14.1-0.7-21.2c0.5-2,1.4-4,2.6-5.7c2.6-1.5,5.2-3.3,7.5-5.3c1.5-1.2,2.9-2.3,4.5-3.3c0.4-0.3,0.8-0.5,1.2-0.7
								l0.5-0.3h0.1l0,0h0.1c0.3-0.1,0.6-0.3,0.9-0.4c0.7,3.6,1.5,7.2,2.4,10.7c0.5,1.9,0.8,3.9,1,5.9
								C324.3,390.9,323,394.2,320.5,396.5z"/>
							<path id="Path_4418-5" class="st7" d="M248.4,433c1.3,2,3.5,3.4,5.9,3.9c2.3,0.4,4.7,0.4,7,0.2"/>
							<path id="Path_4419-5" class="st8" d="M285.1,315.1c-0.2,1.7-0.1,3.4,0.4,5"/>
							<path id="Path_4420-5" class="st8" d="M288.8,313.8l0.2,4c0,0.5,0.1,1,0.2,1.4"/>
							<path id="Path_4421-5" class="st8" d="M295.8,313.2c0.2,1.3,0.3,2.6,0.3,4"/>
							<path id="Path_4422-5" class="st8" d="M292.1,313.6l0.2,3.1"/>
							<path id="Path_4423-5" class="st8" d="M300.5,313.1v3.9"/>
							<path id="Path_4424-5" class="st8" d="M306.1,313.1c-0.2,1.3-0.5,2.6-0.9,4"/>
							<path id="Path_4425-5" class="st8" d="M310.6,314.1c-0.3,1.4-0.6,2.9-0.9,4.3"/>
						</g>
						<g id="Group_2-6">
							<path id="Path_4412-6" class="st0" d="M477.7,254.9c0,0.1-0.1,0.2-0.2,0.3s-0.3,0.4-0.3,0.4c-0.2,0.3-0.4,0.5-0.6,0.8
								c-0.7,0.9-1.4,1.8-2.1,2.6c-0.4,0.4-0.8,0.9-1.3,1.3l-0.1,0.1l0,0c-0.2,0.2-0.5,0.4-0.7,0.6c-2,1.8-4.2,3.5-6.5,5l-1,0.7
								c-0.5-7.5-1-15-1.4-22.6c0.4,0.3,0.7,0.6,1.1,0.9c2,1.7,4.2,3.2,6.3,4.8c2.1,1.5,4.2,2.9,6.5,4.3l0.3,0.1
								C477.6,254.4,477.6,254.7,477.7,254.9z"/>
							<path id="Path_4413-6" class="st4" d="M502.4,231.6l-1.1,0.8l-1,0.7c-2.5,1.7-5,3.3-7.3,5.2c-1.6,1.3-3.1,2.8-4.6,4.3
								c-0.4,0.4-0.7,0.7-1.1,1l-0.4,0.4l-0.2,0.2c-0.9,0.8-1.8,1.6-2.7,2.3c-0.6,0.5-1.2,0.9-1.9,1.3c0.2-0.1-0.3,0.1-0.6,0.3h-0.1
								l-0.2-0.1l-0.9-0.5c-0.5-0.3-1-0.6-1.5-0.9c-1-0.7-2.1-1.3-3.1-2c-4.1-2.8-8-5.9-11.6-9.4c-0.4-0.4-0.8-0.8-1.2-1.2
								c-0.1-1.9-0.1-3.7-0.3-5.6c-0.1-1.3,0.5-2.6,1.5-3.4c1.3-1.1,2.9-1.9,4.6-2.3c9.6-2.6,19.2-3.2,27.9-1.5
								c5.5,1.4,5.7,1.7,5.8,6.5C502.3,228.8,502.3,230.2,502.4,231.6z"/>
							<path id="Path_4414-6" class="st0" d="M502.9,261.6l-1-0.4l-0.4-0.1l-0.5-0.2l-0.6-0.3c-0.5-0.2-1.1-0.4-1.6-0.7
								c-1.1-0.5-2.2-1-3.3-1.5c-3.1-1.5-6.1-3.2-9-5.1c3.3-2.1,6-5.2,8.9-7.9l0.6-0.6c0.3-0.3,0.6-0.5,1-0.8c1.3-1,2.6-1.8,3.9-2.7
								l0.5-0.3l1.1-0.7c0,5,0,10.1,0.2,15.1C502.7,257.5,502.8,259.6,502.9,261.6z"/>
							<path id="Path_4415-6" class="st5" d="M503.8,270.9c-0.3,0.1-0.7,0.3-1,0.4c-5.4,2.3-9.6,6.9-14.7,10l-0.9,0.5l0,0l-0.4,0.2
								c-0.7,0.3-1.4,0.6-2.1,0.8L484,283l-0.7,0.1c-0.7,0.1-1.5,0.1-2.2,0h-0.4l-1-0.1c-0.8-0.1-1.5-0.2-2.3-0.3
								c-1.5-0.3-3-0.5-4.5-1c-0.9-0.2-1.7-0.5-2.5-0.8l-0.5-0.2h-0.1l-1.2-0.5c-0.7-0.3-1.4-0.7-2-1.1l-0.1-0.1l-0.3-0.2l0,0
								l-0.5-0.5c0.1-0.9,0.1-1.9,0-2.8c0-0.2,0-0.4,0-0.6l0.9-0.6c6-4,12.4-8.4,16.4-14.7c6.2,4,12.8,7.2,19.7,9.5l1.1,0.4
								C503.7,270,503.8,270.4,503.8,270.9z"/>
							<path id="Path_4416-6" class="st6" d="M482.5,325.3c-1.4,2.5-2.6,5.1-3.8,7.8c-2.6,6-5.2,12.1-8.9,17.5
								c-5.9,8.5-13.8,11.5-23.3,9.5c-7.6-1.5-12.3-7.4-13.4-16.1c-0.8-6.6,0.5-13.3,3.5-19.2c3.6-7.4,8.4-13.9,13.1-20.4
								c4.4-6,9-11.8,13.1-18c0.2-0.3,0.4-0.6,0.6-1c0.3,0.2,0.6,0.4,0.9,0.5c1.7,0.9,3.5,1.7,5.4,2.3c2.1,0.7,4.2,1.2,6.3,1.5
								c1.7,0.9,3.4,1.8,4.1,3.7c0.3,0.9,0.6,1.8,0.8,2.7c0.3,9.1,0.3,18.2,1.3,27.2C482.3,324.1,482.4,324.7,482.5,325.3z"/>
							<path id="Path_4417-6" class="st0" d="M504.9,304c-1.6,1.4-3.2,2.6-5,3.7c-4,2.6-7.9,5.2-11.3,8.8l-0.2,0.2l-0.1-1.4
								c-0.4-7-0.4-14.1-0.7-21.2c0.5-2,1.4-4,2.6-5.7c2.6-1.5,5.2-3.3,7.5-5.3c1.5-1.2,2.9-2.3,4.5-3.3c0.4-0.3,0.8-0.5,1.2-0.8
								l0.5-0.3h0.1l0,0h0.1c0.3-0.1,0.6-0.3,0.9-0.4c0.7,3.6,1.5,7.2,2.4,10.7c0.5,1.9,0.8,3.9,1,5.9
								C508.7,298.4,507.5,301.7,504.9,304z"/>
							<path id="Path_4418-6" class="st7" d="M432.9,340.5c1.3,2,3.5,3.4,5.9,3.9c2.3,0.4,4.7,0.4,7,0.2"/>
							<path id="Path_4419-6" class="st8" d="M469.5,222.6c-0.2,1.7-0.1,3.4,0.4,5"/>
							<path id="Path_4420-6" class="st8" d="M473.2,221.3l0.2,4c0,0.5,0.1,1,0.2,1.4"/>
							<path id="Path_4421-6" class="st8" d="M480.3,220.6c0.2,1.3,0.3,2.7,0.3,4"/>
							<path id="Path_4422-6" class="st8" d="M476.5,221.1l0.2,3.1"/>
							<path id="Path_4423-6" class="st8" d="M484.9,220.6v3.9"/>
							<path id="Path_4424-6" class="st8" d="M490.5,220.6c-0.2,1.3-0.5,2.6-0.9,3.9"/>
							<path id="Path_4425-6" class="st8" d="M495.1,221.6c-0.2,1.4-0.6,2.8-0.9,4.3"/>
						</g>
						<g id="Group_2-7">
							<path id="Path_4412-7" class="st0" d="M528.8,50.4c0,0.1-0.1,0.2-0.2,0.3l-0.3,0.4c-0.2,0.3-0.4,0.5-0.6,0.8
								c-0.7,0.9-1.4,1.8-2.2,2.6c-0.4,0.4-0.8,0.9-1.3,1.3l-0.1,0.1l0,0c-0.2,0.2-0.5,0.4-0.7,0.7c-2,1.8-4.2,3.5-6.5,5l-1,0.7
								c-0.5-7.5-1-15-1.4-22.6c0.3,0.3,0.7,0.6,1.1,0.9c2,1.7,4.2,3.3,6.3,4.8s4.2,3,6.5,4.3c0.1,0.1,0.2,0.1,0.3,0.2
								C528.7,49.9,528.8,50.1,528.8,50.4z"/>
							<path id="Path_4413-7" class="st4" d="M553.5,27l-1.1,0.8l-1,0.7c-2.5,1.7-5,3.3-7.3,5.2c-1.6,1.3-3.1,2.8-4.6,4.3l-1.1,1
								l-0.4,0.4l-0.2,0.2c-0.9,0.8-1.8,1.6-2.7,2.3c-0.6,0.5-1.2,0.9-1.8,1.3c0.2-0.1-0.3,0.1-0.6,0.3h-0.1l-0.2-0.1
								c-0.3-0.2-0.6-0.3-0.9-0.5c-0.5-0.3-1-0.6-1.5-1c-1-0.7-2.1-1.3-3.1-2c-4.1-2.8-8-6-11.5-9.5c-0.4-0.4-0.8-0.8-1.2-1.2
								c-0.1-1.9-0.2-3.7-0.3-5.6c-0.1-1.3,0.5-2.6,1.5-3.4c1.3-1,2.9-1.8,4.5-2.2c9.6-2.6,19.2-3.2,27.9-1.5
								c5.5,1.4,5.7,1.7,5.8,6.5C553.5,24.3,553.5,25.7,553.5,27z"/>
							<path id="Path_4414-7" class="st0" d="M554,57.1l-1-0.4l-0.4-0.2l-0.5-0.2l-0.6-0.3c-0.5-0.2-1.1-0.4-1.6-0.7
								c-1.1-0.5-2.2-1-3.3-1.5c-3.1-1.5-6.1-3.2-9-5.1c3.3-2.1,6-5.2,8.9-8l0.7-0.6c0.3-0.3,0.6-0.5,1-0.8c1.3-1,2.6-1.8,3.9-2.7
								l0.5-0.3l1.1-0.7c0,5,0,10.1,0.2,15.1C553.8,53,553.9,55,554,57.1z"/>
							<path id="Path_4415-7" class="st5" d="M555,66.4c-0.3,0.1-0.7,0.3-1,0.4c-5.4,2.3-9.6,6.9-14.7,10l-0.9,0.5l0,0l-0.3,0.2
								c-0.7,0.3-1.4,0.6-2.1,0.8l-0.7,0.2l-0.7,0.1c-0.7,0.1-1.5,0.1-2.2,0H532l-1-0.1c-0.8-0.1-1.5-0.2-2.3-0.3
								c-1.5-0.3-3-0.6-4.5-1c-0.8-0.2-1.7-0.5-2.5-0.8l-0.5-0.2h-0.1c-0.4-0.2-0.8-0.3-1.2-0.6c-0.7-0.3-1.4-0.7-2-1.1h-0.1
								l-0.3-0.2l0,0l-0.5-0.5c0.1-0.9,0.1-1.9,0-2.8v-0.6l0.9-0.6c6-4,12.4-8.4,16.4-14.7c6.2,4,12.8,7.2,19.7,9.5
								c0.4,0.1,0.7,0.3,1.1,0.4C554.8,65.4,554.9,65.9,555,66.4z"/>
							<path id="Path_4416-7" class="st6" d="M533.6,120.8c-1.4,2.5-2.6,5.2-3.8,7.8c-2.6,6-5.2,12.1-8.9,17.5
								c-5.9,8.5-13.8,11.5-23.3,9.6c-7.6-1.6-12.3-7.4-13.4-16.1c-0.8-6.6,0.5-13.3,3.5-19.2c3.6-7.4,8.4-13.8,13.1-20.3
								c4.4-6,9-11.8,13.1-18c0.2-0.3,0.4-0.6,0.6-1c0.3,0.2,0.6,0.4,0.9,0.5c1.7,0.9,3.5,1.7,5.3,2.3c2.1,0.7,4.2,1.2,6.3,1.5
								c1.7,0.9,3.4,1.8,4.2,3.7c0.3,0.9,0.6,1.8,0.8,2.7c0.3,9.1,0.3,18.2,1.3,27.2C533.4,119.6,533.5,120.2,533.6,120.8z"/>
							<path id="Path_4417-7" class="st0" d="M556,99.5c-1.6,1.4-3.2,2.6-5,3.7c-4,2.6-7.9,5.2-11.3,8.8l-0.2,0.2l-0.1-1.4
								c-0.4-7.1-0.4-14.2-0.7-21.2c0.5-2,1.4-4,2.6-5.7c2.6-1.5,5.2-3.3,7.5-5.3c1.5-1.2,2.9-2.3,4.5-3.3c0.4-0.3,0.8-0.5,1.2-0.8
								l0.5-0.3h0.1l0,0h0.1l0.9-0.4c0.7,3.6,1.5,7.2,2.4,10.8c0.5,1.9,0.8,3.9,1,5.9C559.8,93.9,558.5,97.2,556,99.5z"/>
							<path id="Path_4418-7" class="st7" d="M484,135.9c1.3,2,3.5,3.4,5.9,3.9c2.3,0.4,4.7,0.4,7,0.1"/>
							<path id="Path_4419-7" class="st8" d="M520.6,18.1c-0.2,1.7-0.1,3.4,0.3,5"/>
							<path id="Path_4420-7" class="st8" d="M524.3,16.8l0.2,4c0,0.5,0.1,1,0.2,1.4"/>
							<path id="Path_4421-7" class="st8" d="M531.4,16.1c0.2,1.3,0.3,2.6,0.3,4"/>
							<path id="Path_4422-7" class="st8" d="M527.7,16.6l0.2,3.1"/>
							<path id="Path_4423-7" class="st8" d="M536,16v3.9"/>
							<path id="Path_4424-7" class="st8" d="M541.6,16c-0.2,1.3-0.5,2.6-0.9,3.9"/>
							<path id="Path_4425-7" class="st8" d="M546.2,17c-0.3,1.4-0.6,2.8-0.9,4.3"/>
						</g>
						<g id="Group_2-8">
							<path id="Path_4412-8" class="st0" d="M629.5,162.9c-0.1,0.1-0.1,0.2-0.2,0.3c-0.1,0.1-0.3,0.4-0.3,0.4
								c-0.2,0.3-0.4,0.5-0.5,0.8c-0.7,0.9-1.4,1.8-2.2,2.6c-0.4,0.4-0.8,0.9-1.2,1.3l-0.1,0.1l0,0l-0.7,0.6c-2,1.8-4.2,3.5-6.5,5
								l-1,0.7c-0.5-7.5-1-15-1.5-22.6l1.1,0.9c2,1.7,4.2,3.3,6.3,4.8s4.2,3,6.5,4.3c0.1,0.1,0.2,0.1,0.3,0.1
								C629.5,162.4,629.5,162.7,629.5,162.9z"/>
							<path id="Path_4413-8" class="st4" d="M654.2,139.6l-1.1,0.8l-1,0.7c-2.5,1.7-5,3.3-7.3,5.2c-1.6,1.3-3.1,2.9-4.6,4.3l-1.1,1
								l-0.5,0.4l-0.2,0.2c-0.9,0.8-1.8,1.6-2.7,2.3c-0.6,0.5-1.2,0.9-1.9,1.3c0.2-0.1-0.3,0.1-0.6,0.3h-0.1l-0.2-0.1l-0.9-0.5
								c-0.5-0.3-1-0.6-1.5-1c-1-0.7-2.1-1.3-3.1-2c-4.1-2.8-8-5.9-11.6-9.4c-0.4-0.4-0.8-0.8-1.2-1.2c-0.1-1.9-0.2-3.7-0.3-5.6
								c-0.1-1.3,0.5-2.6,1.5-3.4c1.3-1.1,2.9-1.9,4.5-2.3c9.6-2.6,19.2-3.2,27.9-1.5c5.4,1.4,5.7,1.7,5.8,6.5
								C654.2,136.9,654.2,138.2,654.2,139.6z"/>
							<path id="Path_4414-8" class="st0" d="M654.8,169.7l-1-0.4l-0.4-0.1l-0.5-0.2l-0.6-0.2l-1.6-0.7c-1.1-0.5-2.2-1-3.3-1.5
								c-3.1-1.5-6.1-3.2-9-5.1c3.3-2.1,6-5.2,8.9-7.9c0,0,0.5-0.5,0.7-0.6s0.6-0.5,1-0.8c1.3-1,2.6-1.8,3.9-2.7l0.5-0.3l1.1-0.7
								c0,5,0,10.1,0.2,15.1C654.5,165.5,654.6,167.6,654.8,169.7z"/>
							<path id="Path_4415-8" class="st5" d="M655.7,178.9c-0.3,0.1-0.7,0.3-1,0.4c-5.4,2.3-9.7,6.9-14.7,10l-0.9,0.5l0,0l-0.4,0.2
								c-0.7,0.3-1.4,0.6-2.1,0.8L636,191l-0.7,0.1c-0.7,0.1-1.5,0.1-2.2,0h-0.4l-1-0.1c-0.8-0.1-1.5-0.2-2.3-0.3
								c-1.5-0.3-3-0.6-4.5-1c-0.8-0.2-1.7-0.5-2.5-0.8l-0.5-0.2h-0.1c-0.4-0.2-0.8-0.4-1.2-0.6c-0.7-0.3-1.4-0.7-2-1.1h-0.1
								l-0.3-0.2h-0.1l-0.5-0.5c0.1-0.9,0.1-1.9,0-2.8c0-0.2,0-0.4,0-0.6l0.9-0.6c6-4,12.4-8.4,16.4-14.7c6.2,4,12.8,7.2,19.7,9.5
								c0.4,0.1,0.7,0.3,1.1,0.4C655.6,178,655.6,178.4,655.7,178.9z"/>
							<path id="Path_4416-8" class="st6" d="M634.3,233.3c-1.4,2.5-2.6,5.1-3.8,7.8c-2.7,6-5.2,12.1-8.9,17.5
								c-5.9,8.5-13.8,11.5-23.3,9.5c-7.6-1.5-12.3-7.4-13.4-16.1c-0.7-6.6,0.5-13.3,3.5-19.2c3.6-7.4,8.4-13.9,13.1-20.4
								c4.4-6,9-11.8,13.1-18c0.2-0.3,0.4-0.7,0.6-1l0.9,0.5c1.7,0.9,3.5,1.7,5.3,2.3c2.1,0.7,4.2,1.2,6.3,1.5
								c1.7,0.9,3.4,1.8,4.2,3.7c0.3,0.9,0.6,1.8,0.8,2.7c0.3,9.1,0.3,18.2,1.3,27.2C634.1,232.1,634.2,232.7,634.3,233.3z"/>
							<path id="Path_4417-8" class="st0" d="M656.8,212c-1.6,1.4-3.2,2.6-5,3.7c-4,2.6-7.9,5.2-11.3,8.8c-0.1,0.1-0.1,0.2-0.2,0.2
								c0-0.5-0.1-0.9-0.1-1.4c-0.4-7.1-0.4-14.1-0.7-21.2c0.5-2,1.4-4,2.6-5.7c2.6-1.5,5.2-3.3,7.5-5.3c1.5-1.2,2.9-2.3,4.5-3.3
								c0.4-0.3,0.8-0.5,1.2-0.8l0.5-0.3h0.1l0,0h0.1c0.3-0.1,0.6-0.3,0.9-0.4c0.7,3.6,1.4,7.2,2.4,10.8c0.5,1.9,0.8,3.9,1,5.9
								C660.6,206.4,659.3,209.7,656.8,212z"/>
							<path id="Path_4418-8" class="st7" d="M584.7,248.5c1.3,2,3.5,3.4,5.9,3.9c2.3,0.4,4.7,0.4,7,0.1"/>
							<path id="Path_4419-8" class="st8" d="M621.4,130.6c-0.2,1.7-0.1,3.4,0.4,5"/>
							<path id="Path_4420-8" class="st8" d="M625.1,129.3l0.2,4c0,0.5,0.1,1,0.2,1.4"/>
							<path id="Path_4421-8" class="st8" d="M632.1,128.7c0.2,1.3,0.3,2.7,0.3,4"/>
							<path id="Path_4422-8" class="st8" d="M628.4,129.1l0.2,3.1"/>
							<path id="Path_4423-8" class="st8" d="M636.8,128.6v3.9"/>
							<path id="Path_4424-8" class="st8" d="M642.3,128.6c-0.2,1.3-0.5,2.6-0.9,3.9"/>
							<path id="Path_4425-8" class="st8" d="M646.9,129.6c-0.2,1.4-0.6,2.9-0.9,4.3"/>
						</g>
						<g id="Group_2-9">
							<path id="Path_4412-9" class="st0" d="M598,348.5c0,0.1-0.1,0.2-0.2,0.3l-0.3,0.4c-0.2,0.3-0.4,0.5-0.6,0.8
								c-0.7,0.9-1.4,1.8-2.2,2.6c-0.4,0.4-0.8,0.9-1.3,1.3l-0.1,0.1l0,0c-0.2,0.2-0.5,0.4-0.7,0.6c-2,1.8-4.2,3.5-6.5,5l-1,0.7
								c-0.5-7.5-1-15-1.4-22.6c0.4,0.3,0.7,0.6,1.1,0.9c2,1.7,4.2,3.3,6.3,4.8s4.2,3,6.5,4.3l0.3,0.1
								C597.9,348,598,348.3,598,348.5z"/>
							<path id="Path_4413-9" class="st4" d="M622.6,325.2l-1.1,0.8l-1,0.7c-2.5,1.7-5,3.3-7.3,5.2c-1.6,1.3-3.1,2.9-4.6,4.3
								c-0.4,0.4-0.7,0.7-1.1,1l-0.4,0.4l-0.2,0.2c-0.9,0.8-1.8,1.6-2.7,2.3c-0.6,0.5-1.2,0.9-1.8,1.3c0.2-0.1-0.3,0.1-0.6,0.3h-0.1
								l-0.2-0.1l-0.9-0.5c-0.5-0.3-1-0.6-1.5-1c-1-0.7-2.1-1.3-3.1-2c-4.1-2.8-8-6-11.5-9.5c-0.4-0.4-0.8-0.8-1.2-1.2
								c-0.1-1.9-0.2-3.7-0.3-5.6c-0.1-1.3,0.5-2.6,1.5-3.4c1.3-1.1,2.9-1.9,4.6-2.3c9.6-2.6,19.2-3.2,27.9-1.5
								c5.4,1.4,5.7,1.7,5.7,6.5C622.6,322.4,622.6,323.8,622.6,325.2z"/>
							<path id="Path_4414-9" class="st0" d="M623.2,355.2l-1-0.4l-0.4-0.1l-0.5-0.2l-0.6-0.2c-0.5-0.2-1.1-0.4-1.6-0.7
								c-1.1-0.5-2.2-1-3.3-1.5c-3.1-1.5-6.1-3.2-9-5.1c3.3-2.1,6-5.2,8.9-8l0.7-0.6c0.3-0.3,0.6-0.5,1-0.8c1.3-1,2.6-1.8,3.9-2.7
								l0.5-0.3l1.1-0.7c0,5,0,10.1,0.2,15.1C622.9,351.1,623,353.2,623.2,355.2z"/>
							<path id="Path_4415-9" class="st5" d="M624.1,364.5c-0.3,0.1-0.7,0.3-1,0.4c-5.4,2.3-9.6,6.9-14.7,10l-0.9,0.5l0,0l-0.3,0.2
								c-0.7,0.3-1.4,0.6-2.1,0.8l-0.7,0.2c-0.2,0-0.6,0.1-0.7,0.1c-0.7,0.1-1.5,0.1-2.2,0h-0.4l-1-0.1c-0.8-0.1-1.5-0.2-2.3-0.3
								c-1.5-0.3-3-0.5-4.5-1c-0.8-0.2-1.7-0.5-2.5-0.8l-0.5-0.2h-0.1c-0.4-0.2-0.8-0.4-1.2-0.5c-0.7-0.3-1.4-0.7-2-1.1h-0.1
								l-0.3-0.2l0,0l-0.5-0.5c0.1-0.9,0.1-1.9,0-2.8c0-0.2,0-0.4,0-0.6l0.9-0.6c6-4,12.4-8.4,16.4-14.7c6.2,4,12.8,7.2,19.7,9.5
								l1.1,0.4C624,363.6,624.1,364,624.1,364.5z"/>
							<path id="Path_4416-9" class="st6" d="M602.7,418.9c-1.4,2.5-2.6,5.1-3.8,7.8c-2.6,6-5.2,12.1-8.9,17.5
								c-5.9,8.5-13.8,11.5-23.3,9.5c-7.6-1.5-12.3-7.4-13.4-16.1c-0.8-6.6,0.5-13.3,3.5-19.2c3.6-7.4,8.4-13.9,13.1-20.4
								c4.4-6,9-11.8,13.1-18c0.2-0.3,0.4-0.6,0.6-1c0.3,0.2,0.6,0.4,0.9,0.5c1.7,0.9,3.5,1.7,5.3,2.3c2.1,0.7,4.2,1.2,6.3,1.5
								c1.7,0.9,3.4,1.8,4.2,3.7c0.3,0.9,0.6,1.8,0.8,2.7c0.3,9.1,0.3,18.2,1.3,27.2C602.6,417.7,602.7,418.3,602.7,418.9z"/>
							<path id="Path_4417-9" class="st0" d="M625.2,397.6c-1.6,1.4-3.2,2.6-5,3.7c-4,2.6-7.9,5.2-11.3,8.8l-0.2,0.2l-0.1-1.4
								c-0.4-7-0.4-14.1-0.7-21.2c0.5-2,1.4-4,2.6-5.7c2.6-1.5,5.2-3.3,7.5-5.3c1.5-1.2,2.9-2.3,4.5-3.3c0.4-0.3,0.8-0.5,1.2-0.8
								l0.5-0.3h0.1l0,0h0.1l0.9-0.4c0.7,3.6,1.5,7.2,2.4,10.8c0.5,1.9,0.8,3.9,1,5.9C629,392,627.7,395.3,625.2,397.6z"/>
							<path id="Path_4418-9" class="st7" d="M553.1,434.1c1.3,2,3.5,3.4,5.8,3.9c2.3,0.4,4.7,0.4,7,0.1"/>
							<path id="Path_4419-9" class="st8" d="M589.8,316.2c-0.2,1.7-0.1,3.4,0.3,5"/>
							<path id="Path_4420-9" class="st8" d="M593.5,314.9l0.2,4c0,0.5,0.1,1,0.2,1.4"/>
							<path id="Path_4421-9" class="st8" d="M600.5,314.2c0.2,1.3,0.3,2.6,0.3,4"/>
							<path id="Path_4422-9" class="st8" d="M596.8,314.7l0.2,3.1"/>
							<path id="Path_4423-9" class="st8" d="M605.2,314.2v3.8"/>
							<path id="Path_4424-9" class="st8" d="M610.8,314.2c-0.2,1.3-0.5,2.6-0.9,3.9"/>
							<path id="Path_4425-9" class="st8" d="M615.3,315.1c-0.2,1.4-0.6,2.8-0.9,4.3"/>
						</g>
						<g id="Group_2-10">
							<path id="Path_4412-10" class="st0" d="M42.2,315.5l-0.2,0.3c-0.1,0.1-0.3,0.4-0.3,0.4l-0.5,0.8c-0.7,0.9-1.4,1.8-2.2,2.6
								c-0.4,0.4-0.8,0.9-1.3,1.3l-0.1,0.1l0,0c-0.2,0.2-0.5,0.4-0.7,0.7c-2.1,1.8-4.2,3.5-6.5,5l-1,0.6c-0.5-7.5-1-15-1.4-22.6
								l1.1,0.9c2,1.7,4.2,3.2,6.3,4.8c2.1,1.5,4.2,2.9,6.5,4.3l0.3,0.1C42.1,315,42.1,315.3,42.2,315.5z"/>
							<path id="Path_4413-10" class="st4" d="M66.8,292.2l-1.1,0.8l-1,0.7c-2.5,1.7-5,3.3-7.3,5.2c-1.6,1.3-3.1,2.8-4.6,4.3l-1.1,1
								l-0.5,0.4l-0.2,0.2c-0.9,0.8-1.8,1.6-2.7,2.3c-0.6,0.5-1.2,0.9-1.8,1.3c0.2-0.1-0.3,0.1-0.6,0.3h-0.1l-0.2-0.1
								c-0.3-0.2-0.6-0.3-0.9-0.5c-0.5-0.3-1-0.6-1.5-0.9c-1-0.7-2.1-1.3-3.1-2c-4.1-2.8-8-6-11.5-9.5c-0.4-0.4-0.8-0.8-1.1-1.2
								c-0.1-1.9-0.2-3.7-0.3-5.6c-0.1-1.3,0.5-2.6,1.5-3.4c1.3-1.1,2.9-1.9,4.6-2.3c9.6-2.6,19.2-3.2,27.9-1.5
								c5.4,1.4,5.7,1.7,5.8,6.5C66.8,289.4,66.8,290.8,66.8,292.2z"/>
							<path id="Path_4414-10" class="st0" d="M67.4,322.2l-1-0.4l-0.4-0.1l-0.5-0.2l-0.6-0.3c-0.6-0.2-1.1-0.4-1.6-0.7
								c-1.1-0.5-2.2-1-3.3-1.5c-3.1-1.5-6.1-3.2-9-5.1c3.3-2.1,6.1-5.2,8.9-8l0.7-0.6c0.3-0.3,0.6-0.5,1-0.8c1.3-1,2.6-1.8,3.9-2.7
								l0.5-0.3l1.1-0.7c0,5,0,10.1,0.2,15.1C67.1,318.1,67.3,320.2,67.4,322.2z"/>
							<path id="Path_4415-10" class="st5" d="M68.3,331.5c-0.3,0.1-0.7,0.3-1,0.4c-5.4,2.3-9.7,6.9-14.7,10
								c-0.3,0.2-0.6,0.3-0.9,0.5l0,0l-0.4,0.2c-0.7,0.3-1.4,0.6-2.1,0.8l-0.7,0.2l-0.7,0.1c-0.7,0.1-1.5,0.1-2.2,0h-0.4l-1-0.1
								c-0.8-0.1-1.5-0.2-2.3-0.3c-1.5-0.2-3-0.5-4.5-0.9c-0.8-0.2-1.7-0.5-2.5-0.8l-0.5-0.2h-0.1c-0.4-0.2-0.8-0.4-1.2-0.5
								c-0.7-0.3-1.4-0.7-2-1.1l-0.1-0.1l-0.3-0.2l0,0l-0.5-0.5c0.1-0.9,0.1-1.9,0-2.8c0-0.2,0-0.4,0-0.6l0.9-0.6
								c6-4,12.4-8.4,16.4-14.7c6.2,4,12.8,7.2,19.7,9.5l1.1,0.4C68.2,330.5,68.3,331,68.3,331.5z"/>
							<path id="Path_4416-10" class="st6" d="M46.9,385.9c-1.4,2.5-2.6,5.1-3.8,7.8c-2.7,6-5.2,12.1-8.9,17.5
								c-5.9,8.5-13.8,11.5-23.3,9.5c-7.6-1.5-12.3-7.4-13.4-16.1C-3.3,398-2,391.3,1,385.4c3.6-7.4,8.4-13.9,13.1-20.4
								c4.4-6,9-11.8,13.1-18c0.2-0.3,0.4-0.6,0.6-1c0.3,0.2,0.6,0.4,0.9,0.5c1.7,1,3.5,1.7,5.3,2.3c2.1,0.7,4.2,1.1,6.3,1.5
								c1.7,0.9,3.4,1.8,4.1,3.7c0.3,0.9,0.6,1.8,0.8,2.7c0.3,9.1,0.3,18.2,1.3,27.2C46.8,384.7,46.8,385.3,46.9,385.9z"/>
							<path id="Path_4417-10" class="st0" d="M69.4,364.6c-1.6,1.4-3.2,2.6-5,3.7c-4,2.6-7.9,5.2-11.3,8.8l-0.2,0.2l-0.1-1.4
								c-0.4-7-0.4-14.1-0.7-21.2c0.5-2,1.3-4,2.5-5.7c2.7-1.5,5.2-3.3,7.5-5.3c1.5-1.1,2.9-2.3,4.5-3.3c0.4-0.3,0.8-0.5,1.2-0.8
								l0.5-0.3l0,0l0,0h0.1l0.9-0.4c0.7,3.6,1.4,7.2,2.4,10.7c0.5,1.9,0.8,3.9,1,5.9C73.1,359,71.9,362.3,69.4,364.6z"/>
							<path id="Path_4418-10" class="st7" d="M-2.7,401c1.3,2,3.5,3.4,5.9,3.9c2.3,0.4,4.7,0.4,7,0.2"/>
							<path id="Path_4419-10" class="st8" d="M34,283.2c-0.2,1.7-0.1,3.4,0.4,5"/>
							<path id="Path_4420-10" class="st8" d="M37.7,281.9l0.2,4c0,0.5,0.1,1,0.2,1.4"/>
							<path id="Path_4421-10" class="st8" d="M44.8,281.2c0.2,1.3,0.3,2.6,0.3,4"/>
							<path id="Path_4422-10" class="st8" d="M41,281.7l0.2,3.1"/>
							<path id="Path_4423-10" class="st8" d="M49.4,281.2v3.8"/>
							<path id="Path_4424-10" class="st8" d="M55,281.2c-0.2,1.3-0.5,2.6-0.9,3.9"/>
							<path id="Path_4425-10" class="st8" d="M59.6,282.1c-0.3,1.4-0.6,2.9-0.9,4.3"/>
						</g>
						<g id="Group_2-11">
							<path id="Path_4412-11" class="st0" d="M-26.2,555.4c-0.1,0.1-0.1,0.2-0.2,0.3s-0.3,0.4-0.3,0.4c-0.2,0.3-0.4,0.5-0.5,0.8
								c-0.7,0.9-1.4,1.8-2.2,2.6c-0.4,0.4-0.8,0.9-1.3,1.3l-0.1,0.1l0,0l-0.7,0.7c-2.1,1.8-4.2,3.5-6.5,5l-1,0.7
								c-0.5-7.5-1-15-1.5-22.6l1.1,0.9c2,1.7,4.2,3.3,6.3,4.8s4.2,3,6.5,4.3c0.1,0.1,0.2,0.1,0.3,0.2
								C-26.3,554.9-26.3,555.1-26.2,555.4z"/>
							<path id="Path_4413-11" class="st4" d="M-1.6,532l-1.1,0.8l-1,0.7c-2.4,1.7-5,3.3-7.3,5.2c-1.6,1.3-3.1,2.8-4.6,4.3l-1.1,1
								l-0.5,0.4l-0.2,0.2c-0.9,0.8-1.8,1.6-2.7,2.3c-0.6,0.5-1.3,0.9-1.9,1.3c0.2-0.1-0.3,0.1-0.6,0.3h-0.1l-0.2-0.1l-0.9-0.5
								c-0.5-0.3-1-0.6-1.5-1c-1-0.7-2.1-1.3-3.1-2c-4.1-2.8-8-6-11.5-9.5c-0.4-0.4-0.8-0.8-1.2-1.2c-0.1-1.9-0.2-3.7-0.3-5.6
								c-0.1-1.3,0.5-2.6,1.5-3.4c1.4-1,2.9-1.8,4.6-2.2c9.6-2.6,19.2-3.2,27.9-1.5c5.4,1.4,5.7,1.7,5.8,6.5
								C-1.6,529.3-1.6,530.7-1.6,532z"/>
							<path id="Path_4414-11" class="st0" d="M-1,562.1l-1-0.4l-0.4-0.2l-0.5-0.2l-0.6-0.2l-1.6-0.7c-1.1-0.5-2.2-1-3.3-1.5
								c-3.1-1.5-6.1-3.2-9-5.1c3.3-2.1,6.1-5.2,8.9-8c0,0,0.5-0.5,0.7-0.6s0.6-0.5,1-0.8c1.3-1,2.6-1.8,3.9-2.7l0.5-0.3l1.1-0.7
								c0,5,0,10.1,0.2,15.1C-1.3,557.9-1.2,560-1,562.1z"/>
							<path id="Path_4415-11" class="st5" d="M-0.1,571.4c-0.4,0.1-0.7,0.3-1,0.4c-5.4,2.3-9.6,6.9-14.7,10l-0.9,0.5l0,0l-0.4,0.2
								c-0.7,0.3-1.4,0.6-2.1,0.8l-0.7,0.2l-0.7,0.1c-0.7,0.1-1.5,0.1-2.2,0h-0.4l-1-0.1c-0.8-0.1-1.5-0.2-2.3-0.3
								c-1.5-0.3-3-0.5-4.5-1c-0.9-0.2-1.7-0.5-2.5-0.8l-0.5-0.2l0,0c-0.4-0.2-0.8-0.3-1.2-0.5c-0.7-0.3-1.4-0.7-2-1.1l-0.1-0.1
								l-0.3-0.2h-0.1l-0.5-0.5c0.1-0.9,0.1-1.9,0-2.8c0-0.2,0-0.4,0-0.6l0.9-0.6c6-4,12.4-8.4,16.4-14.7c6.2,4,12.8,7.2,19.7,9.5
								c0.4,0.1,0.7,0.3,1.1,0.4C-0.2,570.5-0.1,570.9-0.1,571.4z"/>
							<path id="Path_4416-11" class="st6" d="M-21.5,625.8c-1.4,2.5-2.6,5.2-3.8,7.8c-2.6,6-5.2,12.1-8.9,17.5
								c-5.9,8.5-13.8,11.5-23.3,9.5c-7.6-1.5-12.3-7.4-13.4-16.1c-0.7-6.6,0.5-13.3,3.5-19.2c3.6-7.4,8.3-13.8,13.1-20.4
								c4.4-6,9-11.8,13.1-18c0.2-0.3,0.4-0.7,0.6-1l0.9,0.5c1.7,0.9,3.5,1.7,5.3,2.3c2.1,0.7,4.2,1.2,6.3,1.6
								c1.7,0.9,3.4,1.8,4.1,3.7c0.3,0.9,0.6,1.8,0.8,2.7c0.3,9.1,0.3,18.2,1.3,27.2C-21.6,624.6-21.6,625.2-21.5,625.8z"/>
							<path id="Path_4417-11" class="st0" d="M1,604.5c-1.6,1.4-3.2,2.6-5,3.7c-4,2.6-7.9,5.2-11.3,8.8c-0.1,0.1-0.1,0.2-0.2,0.2
								c0-0.5-0.1-0.9-0.1-1.4c-0.4-7-0.4-14.1-0.7-21.2c0.5-2,1.4-4,2.6-5.7c2.6-1.5,5.2-3.3,7.5-5.3c1.5-1.2,2.9-2.3,4.5-3.3
								c0.4-0.3,0.8-0.5,1.2-0.8l0.5-0.3h0.1l0,0h0.1c0.3-0.2,0.6-0.3,0.9-0.4c0.6,3.6,1.4,7.2,2.4,10.7c0.5,1.9,0.8,3.9,1,5.9
								C4.8,598.9,3.5,602.2,1,604.5z"/>
							<path id="Path_4418-11" class="st7" d="M-71.1,641c1.3,2,3.5,3.4,5.9,3.9c2.3,0.4,4.7,0.4,7,0.2"/>
							<path id="Path_4419-11" class="st8" d="M-34.4,523.1c-0.2,1.7-0.1,3.4,0.4,5"/>
							<path id="Path_4420-11" class="st8" d="M-30.7,521.8l0.2,4c0,0.5,0.1,1,0.2,1.4"/>
							<path id="Path_4421-11" class="st8" d="M-23.7,521.1c0.2,1.3,0.3,2.7,0.3,4"/>
							<path id="Path_4422-11" class="st8" d="M-27.4,521.6l0.2,3.1"/>
							<path id="Path_4423-11" class="st8" d="M-19,521v3.9"/>
							<path id="Path_4424-11" class="st8" d="M-13.4,521.1c-0.2,1.3-0.5,2.6-0.9,3.9"/>
							<path id="Path_4425-11" class="st8" d="M-8.9,522c-0.2,1.4-0.6,2.9-0.9,4.3"/>
						</g>
						<g id="Group_2-12">
							<path id="Path_4412-12" class="st0" d="M86.5,684.1l-0.2,0.3l-0.3,0.4c-0.2,0.3-0.4,0.5-0.6,0.8c-0.7,0.9-1.4,1.8-2.2,2.6
								c-0.4,0.4-0.8,0.9-1.3,1.3l-0.1,0.1l0,0l-0.7,0.7c-2,1.8-4.2,3.5-6.5,5l-1,0.7c-0.5-7.5-1-15-1.4-22.6l1.1,0.9
								c2,1.7,4.2,3.3,6.3,4.8c2.1,1.5,4.2,2.9,6.5,4.3l0.3,0.2C86.4,683.7,86.5,683.9,86.5,684.1z"/>
							<path id="Path_4413-12" class="st4" d="M111.2,660.8l-1.1,0.8l-1,0.7c-2.4,1.7-5,3.3-7.3,5.2c-1.6,1.3-3.1,2.8-4.6,4.3
								l-1.1,1l-0.4,0.4l-0.2,0.2c-0.9,0.8-1.8,1.6-2.7,2.3c-0.6,0.5-1.2,0.9-1.9,1.3c0.2-0.1-0.3,0.1-0.6,0.3h-0.1l-0.2-0.1
								l-0.9-0.5c-0.5-0.3-1-0.6-1.5-1c-1-0.7-2.1-1.3-3.1-2c-4.1-2.8-8-6-11.5-9.5c-0.4-0.4-0.8-0.8-1.2-1.2
								c-0.1-1.9-0.2-3.7-0.3-5.6c-0.1-1.3,0.5-2.6,1.5-3.3c1.3-1.1,2.9-1.9,4.6-2.3c9.6-2.6,19.2-3.2,27.9-1.5
								c5.4,1.4,5.7,1.7,5.8,6.5C111.2,658.1,111.2,659.5,111.2,660.8z"/>
							<path id="Path_4414-12" class="st0" d="M111.8,690.9l-1.1-0.4l-0.4-0.2l-0.5-0.2l-0.6-0.2c-0.6-0.2-1.1-0.5-1.6-0.7
								c-1.1-0.5-2.2-1-3.3-1.5c-3.1-1.5-6.1-3.2-9-5.1c3.3-2.1,6.1-5.2,8.9-8l0.7-0.6c0.3-0.3,0.6-0.5,1-0.8c1.3-1,2.6-1.8,3.9-2.7
								l0.5-0.3l1.1-0.7c0,5,0,10.1,0.2,15.1C111.5,686.7,111.6,688.8,111.8,690.9z"/>
							<path id="Path_4415-12" class="st5" d="M112.7,700.2c-0.3,0.1-0.7,0.3-1,0.4c-5.4,2.3-9.7,6.9-14.7,10l-0.9,0.5l0,0l-0.4,0.2
								c-0.7,0.3-1.4,0.6-2.1,0.8c-0.1,0-0.5,0.1-0.7,0.2l-0.7,0.1c-0.7,0.1-1.5,0.1-2.2,0h-0.4l-0.9-0.1c-0.8-0.1-1.5-0.2-2.3-0.3
								c-1.5-0.3-3-0.5-4.5-1c-0.8-0.2-1.7-0.5-2.5-0.8l-0.5-0.2h-0.1c-0.4-0.2-0.8-0.3-1.2-0.5c-0.7-0.3-1.4-0.7-2-1.1l-0.1-0.1
								l-0.3-0.2l0,0l-0.6-0.5c0.1-0.9,0.1-1.9,0-2.8c0-0.2,0-0.4,0-0.6l0.9-0.6c6-4,12.4-8.4,16.4-14.7c6.2,4,12.8,7.2,19.7,9.5
								c0.4,0.1,0.7,0.3,1.1,0.4C112.6,699.2,112.6,699.7,112.7,700.2z"/>
							<path id="Path_4416-12" class="st6" d="M91.3,754.6c-1.4,2.5-2.6,5.2-3.8,7.8c-2.7,6-5.2,12.1-8.9,17.5
								c-5.9,8.5-13.8,11.5-23.3,9.5c-7.6-1.5-12.3-7.4-13.4-16.1c-0.8-6.6,0.5-13.3,3.5-19.2c3.6-7.4,8.4-13.8,13.1-20.3
								c4.4-6,9-11.8,13.1-18c0.2-0.3,0.4-0.6,0.6-1c0.3,0.2,0.6,0.4,0.9,0.5c1.7,0.9,3.5,1.7,5.3,2.3c2.1,0.7,4.2,1.2,6.3,1.5
								c1.7,0.9,3.4,1.8,4.2,3.7c0.3,0.9,0.6,1.8,0.8,2.7c0.3,9.1,0.3,18.2,1.3,27.2C91.1,753.4,91.2,754,91.3,754.6z"/>
							<path id="Path_4417-12" class="st0" d="M113.8,733.2c-1.6,1.4-3.2,2.6-5,3.7c-4,2.6-7.9,5.2-11.3,8.8l-0.2,0.2l-0.1-1.4
								c-0.4-7-0.4-14.1-0.7-21.2c0.5-2,1.3-4,2.5-5.7c2.6-1.5,5.2-3.3,7.5-5.3c1.5-1.2,2.9-2.3,4.5-3.3c0.4-0.3,0.8-0.5,1.2-0.8
								l0.5-0.3l0,0l0,0h0.1c0.3-0.2,0.6-0.3,0.9-0.4c0.7,3.6,1.4,7.2,2.4,10.8c0.5,1.9,0.8,3.9,1,5.9
								C117.5,727.6,116.2,731,113.8,733.2z"/>
							<path id="Path_4418-12" class="st7" d="M41.7,769.7c1.3,2,3.5,3.4,5.9,3.9c2.3,0.4,4.7,0.4,7,0.2"/>
							<path id="Path_4419-12" class="st8" d="M78.3,651.9c-0.2,1.7-0.1,3.4,0.4,5"/>
							<path id="Path_4420-12" class="st8" d="M82.1,650.6l0.2,4c0,0.5,0.1,1,0.2,1.4"/>
							<path id="Path_4421-12" class="st8" d="M89.1,649.9c0.2,1.3,0.3,2.7,0.3,4"/>
							<path id="Path_4422-12" class="st8" d="M85.4,650.4l0.2,3.1"/>
							<path id="Path_4423-12" class="st8" d="M93.8,649.8v3.9"/>
							<path id="Path_4424-12" class="st8" d="M99.3,649.8c-0.2,1.3-0.5,2.6-0.9,3.9"/>
							<path id="Path_4425-12" class="st8" d="M103.9,650.8c-0.3,1.4-0.6,2.8-0.9,4.3"/>
						</g>
						<g id="Group_2-13">
							<path id="Path_4412-13" class="st0" d="M152.2,491l-0.2,0.3l-0.3,0.4c-0.2,0.3-0.4,0.5-0.6,0.8c-0.7,0.9-1.4,1.8-2.1,2.6
								c-0.4,0.4-0.8,0.9-1.3,1.3l-0.1,0.1l0,0l-0.7,0.7c-2.1,1.8-4.2,3.5-6.5,5l-1,0.6c-0.5-7.5-1-15-1.4-22.6
								c0.4,0.3,0.7,0.6,1.1,0.9c2,1.7,4.2,3.3,6.3,4.8s4.2,2.9,6.4,4.3l0.3,0.1C152.1,490.5,152.1,490.8,152.2,491z"/>
							<path id="Path_4413-13" class="st4" d="M176.8,467.7l-1.1,0.7l-1,0.7c-2.4,1.7-5,3.3-7.3,5.2c-1.6,1.3-3.1,2.9-4.6,4.3
								l-1.1,1l-0.4,0.4l-0.2,0.2c-0.9,0.8-1.8,1.6-2.7,2.3c-0.6,0.5-1.2,0.9-1.9,1.3c0.2-0.1-0.3,0.1-0.6,0.3h-0.1l-0.2-0.1
								c-0.3-0.2-0.6-0.3-0.9-0.5c-0.5-0.3-1-0.6-1.5-1c-1-0.7-2.1-1.3-3.1-2c-4.1-2.8-8-6-11.5-9.5c-0.4-0.4-0.8-0.8-1.2-1.2
								c-0.1-1.9-0.1-3.7-0.3-5.6c-0.1-1.3,0.5-2.6,1.5-3.4c1.3-1.1,2.9-1.9,4.6-2.3c9.6-2.6,19.2-3.2,27.9-1.5
								c5.4,1.4,5.7,1.7,5.8,6.5C176.8,464.9,176.8,466.3,176.8,467.7z"/>
							<path id="Path_4414-13" class="st0" d="M177.4,497.8l-1-0.4l-0.4-0.1l-0.5-0.2l-0.6-0.3l-1.6-0.7c-1.1-0.5-2.2-1-3.3-1.5
								c-3.1-1.5-6.1-3.2-8.9-5.1c3.3-2.1,6.1-5.2,8.9-8c0,0,0.5-0.5,0.6-0.6c0.3-0.3,0.6-0.5,1-0.8c1.3-1,2.6-1.8,3.9-2.7l0.5-0.3
								l1.1-0.7c0,5,0,10.1,0.2,15.1C177.2,493.6,177.3,495.7,177.4,497.8z"/>
							<path id="Path_4415-13" class="st5" d="M178.3,507l-1,0.4c-5.4,2.3-9.6,6.9-14.7,10c-0.3,0.2-0.6,0.3-0.9,0.5l0,0
								c-0.1,0.1-0.2,0.1-0.4,0.2c-0.7,0.3-1.4,0.6-2.1,0.8l-0.7,0.2l-0.7,0.1c-0.7,0.1-1.5,0.1-2.2,0h-0.4l-0.9-0.1
								c-0.8-0.1-1.5-0.2-2.3-0.3c-1.5-0.2-3-0.5-4.5-0.9c-0.9-0.2-1.7-0.5-2.5-0.8l-0.5-0.2h-0.1l-1.2-0.5c-0.7-0.3-1.4-0.7-2-1.1
								h-0.1l-0.3-0.2l0,0l-0.6-0.5c0.1-0.9,0.1-1.9,0-2.8v-0.6l0.9-0.6c6-4,12.4-8.4,16.4-14.7c6.2,4,12.8,7.2,19.7,9.5l1.1,0.4
								C178.2,506.1,178.3,506.5,178.3,507z"/>
							<path id="Path_4416-13" class="st6" d="M156.9,561.4c-1.4,2.5-2.6,5.2-3.8,7.8c-2.6,6-5.2,12.1-8.9,17.5
								c-5.9,8.5-13.8,11.5-23.3,9.5c-7.6-1.5-12.3-7.4-13.4-16.1c-0.7-6.6,0.5-13.3,3.5-19.2c3.6-7.4,8.3-13.9,13.1-20.4
								c4.4-6,9-11.8,13.1-18c0.2-0.3,0.4-0.6,0.6-1c0.3,0.2,0.6,0.4,0.9,0.5c1.7,0.9,3.5,1.7,5.4,2.3c2.1,0.7,4.2,1.2,6.3,1.5
								c1.7,0.9,3.4,1.8,4.1,3.7c0.3,0.9,0.6,1.8,0.8,2.7c0.3,9.1,0.3,18.2,1.3,27.2C156.8,560.2,156.9,560.8,156.9,561.4z"/>
							<path id="Path_4417-13" class="st0" d="M179.4,540.1c-1.6,1.4-3.2,2.6-5,3.7c-4,2.6-7.9,5.2-11.3,8.8l-0.2,0.2l-0.1-1.4
								c-0.4-7.1-0.4-14.2-0.7-21.2c0.5-2,1.4-4,2.6-5.7c2.7-1.5,5.2-3.3,7.5-5.3c1.5-1.2,2.9-2.3,4.5-3.3c0.4-0.3,0.8-0.5,1.2-0.8
								l0.5-0.3h0.1l0,0h0.1l0.9-0.4c0.7,3.6,1.5,7.2,2.4,10.7c0.5,1.9,0.8,3.9,1,5.9C183.2,534.5,181.9,537.8,179.4,540.1z"/>
							<path id="Path_4418-13" class="st7" d="M107.3,576.6c1.3,2,3.5,3.4,5.8,3.9c2.3,0.4,4.7,0.4,7,0.2"/>
							<path id="Path_4419-13" class="st8" d="M144,458.7c-0.2,1.7-0.1,3.4,0.4,5"/>
							<path id="Path_4420-13" class="st8" d="M147.7,457.4l0.2,4c0,0.5,0.1,1,0.2,1.4"/>
							<path id="Path_4421-13" class="st8" d="M154.8,456.7c0.2,1.3,0.3,2.6,0.3,4"/>
							<path id="Path_4422-13" class="st8" d="M151,457.2l0.2,3.1"/>
							<path id="Path_4423-13" class="st8" d="M159.4,456.7v3.9"/>
							<path id="Path_4424-13" class="st8" d="M165,456.7c-0.2,1.3-0.5,2.6-0.9,3.9"/>
							<path id="Path_4425-13" class="st8" d="M169.6,457.7c-0.3,1.4-0.6,2.8-0.9,4.3"/>
						</g>
						<g id="Group_2-14">
							<path id="Path_4412-14" class="st0" d="M274.5,594.3l-0.2,0.3L274,595l-0.5,0.8c-0.7,0.9-1.4,1.8-2.2,2.6
								c-0.4,0.4-0.8,0.8-1.2,1.3l-0.1,0.1l0,0l-0.7,0.7c-2.1,1.8-4.2,3.5-6.5,5l-1,0.7c-0.5-7.5-1-15-1.5-22.6l1.1,0.9
								c2,1.7,4.2,3.3,6.3,4.8c2.1,1.5,4.2,2.9,6.5,4.3l0.3,0.2C274.4,593.8,274.4,594.1,274.5,594.3z"/>
							<path id="Path_4413-14" class="st4" d="M299.1,571l-1.1,0.7l-1,0.7c-2.5,1.7-5,3.3-7.3,5.2c-1.6,1.3-3.1,2.8-4.6,4.3L284,583
								l-0.5,0.4l-0.2,0.2c-0.9,0.8-1.8,1.6-2.7,2.3c-0.6,0.5-1.2,0.9-1.9,1.3c0.2-0.1-0.3,0.1-0.6,0.3H278l-0.2-0.1
								c-0.3-0.2-0.6-0.3-0.9-0.5c-0.5-0.3-1-0.6-1.5-1c-1-0.7-2.1-1.3-3.1-2c-4.1-2.8-8-6-11.5-9.5c-0.4-0.4-0.8-0.8-1.1-1.2
								c-0.1-1.9-0.2-3.7-0.3-5.6c-0.1-1.3,0.5-2.6,1.5-3.4c1.3-1.1,2.9-1.9,4.5-2.3c9.6-2.6,19.2-3.2,27.9-1.5
								c5.4,1.4,5.7,1.7,5.8,6.5C299.1,568.3,299.1,569.6,299.1,571z"/>
							<path id="Path_4414-14" class="st0" d="M299.7,601.1l-1-0.4l-0.4-0.1l-0.5-0.2l-0.6-0.3l-1.6-0.7c-1.1-0.5-2.2-1-3.3-1.5
								c-3.1-1.5-6.1-3.2-9-5.1c3.3-2.1,6-5.2,8.9-8c0,0,0.5-0.5,0.6-0.6c0.3-0.3,0.6-0.5,1-0.8c1.3-1,2.6-1.8,3.9-2.7l0.5-0.3
								l1.1-0.7c0,5,0,10.1,0.2,15.1C299.4,596.9,299.5,599,299.7,601.1z"/>
							<path id="Path_4415-14" class="st5" d="M300.6,610.3c-0.4,0.1-0.7,0.3-1,0.4c-5.4,2.3-9.6,6.9-14.7,10
								c-0.3,0.2-0.6,0.3-0.9,0.5l0,0l-0.4,0.2c-0.7,0.3-1.4,0.6-2.1,0.8l-0.7,0.2l-0.7,0.1c-0.7,0.1-1.5,0.1-2.2,0h-0.4l-1-0.1
								c-0.8-0.1-1.5-0.2-2.3-0.3c-1.5-0.2-3-0.5-4.5-0.9c-0.9-0.2-1.7-0.5-2.5-0.8l-0.5-0.2h-0.1c-0.4-0.2-0.8-0.4-1.2-0.5
								c-0.7-0.3-1.4-0.7-2-1.1h-0.1c-0.1-0.1-0.2-0.1-0.3-0.2h-0.1l-0.5-0.5c0.1-0.9,0.1-1.9,0-2.8c0-0.2,0-0.4,0-0.6l0.9-0.6
								c6-4,12.4-8.4,16.4-14.7c6.2,4,12.8,7.2,19.7,9.5l1.1,0.4C300.5,609.4,300.6,609.9,300.6,610.3z"/>
							<path id="Path_4416-14" class="st6" d="M279.2,664.8c-1.4,2.5-2.6,5.2-3.8,7.8c-2.6,6-5.2,12.1-8.9,17.5
								c-5.9,8.5-13.8,11.5-23.3,9.5c-7.6-1.5-12.3-7.4-13.4-16.1c-0.7-6.6,0.5-13.3,3.5-19.2c3.6-7.4,8.4-13.9,13.1-20.4
								c4.4-6,9-11.8,13.1-18c0.2-0.3,0.4-0.6,0.6-1c0.3,0.2,0.6,0.4,0.9,0.5c1.7,0.9,3.5,1.7,5.4,2.3c2.1,0.7,4.2,1.2,6.3,1.5
								c1.7,0.9,3.4,1.8,4.1,3.7c0.3,0.9,0.6,1.8,0.8,2.7c0.3,9.1,0.3,18.2,1.3,27.2C279.1,663.5,279.1,664.2,279.2,664.8z"/>
							<path id="Path_4417-14" class="st0" d="M301.7,643.4c-1.6,1.4-3.2,2.6-5,3.7c-4,2.6-7.9,5.2-11.3,8.8l-0.2,0.2
								c0-0.5-0.1-1-0.1-1.4c-0.4-7.1-0.4-14.2-0.7-21.2c0.5-2,1.4-4,2.6-5.7c2.7-1.5,5.2-3.3,7.5-5.3c1.5-1.2,2.9-2.3,4.5-3.3
								c0.4-0.3,0.8-0.5,1.2-0.8l0.5-0.3h0.1l0,0h0.1l0.9-0.4c0.6,3.6,1.4,7.2,2.4,10.7c0.5,1.9,0.8,3.9,1,5.9
								C305.5,637.8,304.2,641.2,301.7,643.4z"/>
							<path id="Path_4418-14" class="st7" d="M229.6,679.9c1.3,2,3.5,3.4,5.9,3.9c2.3,0.4,4.7,0.4,7,0.2"/>
							<path id="Path_4419-14" class="st8" d="M266.3,562.1c-0.2,1.7-0.1,3.4,0.4,5"/>
							<path id="Path_4420-14" class="st8" d="M270,560.8l0.2,4c0,0.5,0.1,1,0.2,1.4"/>
							<path id="Path_4421-14" class="st8" d="M277,560.1c0.2,1.3,0.3,2.6,0.3,4"/>
							<path id="Path_4422-14" class="st8" d="M273.3,560.5l0.2,3.1"/>
							<path id="Path_4423-14" class="st8" d="M281.7,560v3.9"/>
							<path id="Path_4424-14" class="st8" d="M287.3,560c-0.2,1.3-0.5,2.6-0.9,3.9"/>
							<path id="Path_4425-14" class="st8" d="M291.8,561c-0.3,1.4-0.6,2.8-0.9,4.3"/>
						</g>
						<g id="Group_2-15">
							<path id="Path_4412-15" class="st0" d="M187.3,786.4c0,0.1-0.1,0.2-0.2,0.3s-0.3,0.4-0.3,0.4c-0.2,0.3-0.4,0.5-0.6,0.8
								c-0.7,0.9-1.4,1.8-2.2,2.6c-0.4,0.4-0.8,0.9-1.3,1.3l-0.1,0.1l0,0c-0.2,0.2-0.5,0.4-0.7,0.7c-2,1.8-4.2,3.5-6.5,5l-1,0.7
								c-0.5-7.5-1-15-1.4-22.6c0.4,0.3,0.7,0.6,1.1,0.9c2,1.7,4.2,3.2,6.3,4.8c2.1,1.5,4.2,2.9,6.4,4.3l0.3,0.2
								C187.2,785.9,187.2,786.2,187.3,786.4z"/>
							<path id="Path_4413-15" class="st4" d="M211.9,763.1l-1.1,0.8l-1,0.7c-2.4,1.7-5,3.3-7.3,5.2c-1.6,1.3-3.1,2.8-4.6,4.3
								c-0.4,0.3-0.7,0.7-1.1,1l-0.4,0.4l-0.2,0.2c-0.9,0.8-1.8,1.6-2.7,2.3c-0.6,0.5-1.2,0.9-1.9,1.3c0.2-0.1-0.3,0.1-0.6,0.3h-0.1
								l-0.2-0.1l-0.9-0.5c-0.5-0.3-1-0.6-1.4-1c-1-0.7-2.1-1.3-3.1-2c-4.1-2.8-8-6-11.5-9.5c-0.4-0.4-0.8-0.8-1.2-1.2
								c-0.1-1.9-0.1-3.7-0.3-5.6c-0.1-1.3,0.5-2.6,1.5-3.4c1.3-1.1,2.9-1.9,4.6-2.3c9.6-2.6,19.2-3.2,27.9-1.5
								c5.4,1.4,5.7,1.7,5.7,6.5C211.9,760.3,211.9,761.7,211.9,763.1z"/>
							<path id="Path_4414-15" class="st0" d="M212.5,793.2l-1.1-0.4l-0.4-0.1l-0.5-0.2l-0.6-0.3c-0.5-0.2-1.1-0.4-1.6-0.7
								c-1.1-0.5-2.2-1-3.3-1.5c-3.1-1.5-6.1-3.2-8.9-5.1c3.3-2.1,6-5.2,8.9-8l0.6-0.6c0.3-0.3,0.6-0.5,1-0.8c1.3-1,2.6-1.8,3.9-2.7
								l0.5-0.3l1.1-0.7c0,5,0,10.1,0.2,15.1C212.2,789,212.3,791.1,212.5,793.2z"/>
							<path id="Path_4415-15" class="st5" d="M213.4,802.4c-0.3,0.1-0.7,0.3-1,0.4c-5.4,2.3-9.6,6.9-14.7,10l-0.9,0.5l0,0l-0.4,0.2
								c-0.7,0.3-1.4,0.6-2.1,0.8l-0.7,0.2l-0.7,0.1c-0.7,0.1-1.5,0.1-2.2,0h-0.4l-1-0.1c-0.8-0.1-1.5-0.2-2.3-0.3
								c-1.5-0.2-3-0.5-4.5-0.9c-0.9-0.2-1.7-0.5-2.5-0.8l-0.5-0.2h-0.1l-1.2-0.5c-0.7-0.3-1.4-0.7-2-1.1l-0.1-0.1l-0.3-0.2h-0.1
								c-0.2-0.2-0.4-0.3-0.5-0.5c0.1-0.9,0.1-1.9,0-2.8c0-0.2,0-0.4,0-0.6l0.9-0.6c6-4,12.4-8.4,16.4-14.7c6.2,4,12.8,7.2,19.7,9.5
								l1.1,0.4C213.3,801.5,213.4,801.9,213.4,802.4z"/>
							<path id="Path_4416-15" class="st6" d="M192,856.8c-1.4,2.5-2.6,5.1-3.8,7.8c-2.6,6-5.2,12.1-8.9,17.5
								c-5.9,8.5-13.8,11.5-23.3,9.5c-7.6-1.5-12.3-7.4-13.4-16.1c-0.8-6.6,0.5-13.3,3.5-19.2c3.6-7.4,8.4-13.9,13.1-20.4
								c4.4-6,9-11.8,13.1-18c0.2-0.3,0.4-0.6,0.6-1c0.3,0.2,0.6,0.4,0.9,0.5c1.7,0.9,3.5,1.7,5.4,2.3c2.1,0.7,4.2,1.2,6.3,1.5
								c1.7,0.9,3.4,1.8,4.1,3.7c0.3,0.9,0.6,1.8,0.8,2.7c0.3,9.1,0.3,18.2,1.3,27.2C191.9,855.6,191.9,856.2,192,856.8z"/>
							<path id="Path_4417-15" class="st0" d="M214.5,835.5c-1.6,1.4-3.2,2.6-5,3.7c-4,2.6-7.9,5.2-11.3,8.8l-0.2,0.2l-0.1-1.4
								c-0.4-7-0.4-14.1-0.7-21.2c0.5-2,1.4-4,2.6-5.7c2.6-1.5,5.2-3.3,7.5-5.3c1.5-1.2,2.9-2.3,4.5-3.3c0.4-0.3,0.8-0.5,1.2-0.7
								l0.5-0.3h0.1l0,0h0.1c0.3-0.2,0.6-0.3,0.9-0.4c0.7,3.6,1.5,7.2,2.4,10.7c0.5,1.9,0.8,3.9,1,5.9
								C218.3,829.9,217,833.2,214.5,835.5z"/>
							<path id="Path_4418-15" class="st7" d="M142.4,872c1.3,2,3.5,3.4,5.9,3.9c2.3,0.4,4.7,0.4,7,0.2"/>
							<path id="Path_4419-15" class="st8" d="M179.1,754.1c-0.2,1.7-0.1,3.4,0.4,5"/>
							<path id="Path_4420-15" class="st8" d="M182.8,752.8l0.2,4c0,0.5,0.1,1,0.2,1.4"/>
							<path id="Path_4421-15" class="st8" d="M189.8,752.2c0.2,1.3,0.3,2.7,0.3,4"/>
							<path id="Path_4422-15" class="st8" d="M186.1,752.6l0.2,3.1"/>
							<path id="Path_4423-15" class="st8" d="M194.5,752.1v3.9"/>
							<path id="Path_4424-15" class="st8" d="M200.1,752.1c-0.2,1.3-0.5,2.7-0.9,4"/>
							<path id="Path_4425-15" class="st8" d="M204.6,753.1c-0.3,1.4-0.6,2.8-0.9,4.3"/>
						</g>
						<g id="Group_2-16">
							<path id="Path_4412-16" class="st0" d="M371.7,693.9c0,0.1-0.1,0.2-0.2,0.3s-0.3,0.4-0.3,0.4c-0.2,0.3-0.4,0.5-0.6,0.8
								c-0.7,0.9-1.4,1.8-2.1,2.6c-0.4,0.4-0.8,0.9-1.3,1.3l-0.1,0.1l0,0c-0.2,0.2-0.5,0.4-0.7,0.7c-2,1.8-4.2,3.5-6.5,5l-1,0.7
								c-0.5-7.5-1-15-1.4-22.6c0.4,0.3,0.7,0.6,1.1,0.9c2,1.7,4.2,3.2,6.3,4.8c2.1,1.5,4.2,2.9,6.5,4.3l0.3,0.2
								C371.6,693.4,371.6,693.7,371.7,693.9z"/>
							<path id="Path_4413-16" class="st4" d="M396.4,670.6l-1.1,0.8l-1,0.7c-2.5,1.7-5,3.3-7.3,5.2c-1.6,1.3-3.1,2.8-4.6,4.3
								c-0.4,0.3-0.7,0.7-1.1,1l-0.4,0.4l-0.2,0.2c-0.9,0.8-1.8,1.6-2.7,2.3c-0.6,0.5-1.2,0.9-1.9,1.3c0.2-0.1-0.3,0.1-0.6,0.3h-0.1
								l-0.2-0.1l-0.9-0.5c-0.5-0.3-1-0.6-1.5-1c-1-0.7-2.1-1.3-3.1-2c-4.1-2.8-8-5.9-11.6-9.3c-0.4-0.4-0.8-0.8-1.2-1.2
								c-0.1-1.9-0.1-3.7-0.3-5.6c-0.1-1.3,0.5-2.6,1.5-3.4c1.3-1.1,2.9-1.9,4.6-2.3c9.6-2.6,19.2-3.2,27.9-1.5
								c5.5,1.4,5.7,1.7,5.8,6.5C396.3,667.8,396.3,669.2,396.4,670.6z"/>
							<path id="Path_4414-16" class="st0" d="M396.9,700.6l-1-0.4l-0.4-0.1l-0.5-0.2l-0.6-0.3c-0.5-0.2-1.1-0.4-1.6-0.7
								c-1.1-0.5-2.2-1-3.3-1.5c-3.1-1.5-6.1-3.2-9-5.1c3.3-2.1,6-5.2,8.9-8l0.6-0.6c0.3-0.3,0.6-0.5,1-0.8c1.3-1,2.6-1.8,3.9-2.7
								l0.5-0.3l1.1-0.7c0,5,0,10.1,0.2,15.1C396.7,696.5,396.8,698.6,396.9,700.6z"/>
							<path id="Path_4415-16" class="st5" d="M397.8,709.9c-0.3,0.1-0.7,0.3-1,0.4c-5.4,2.3-9.6,6.9-14.7,10l-0.9,0.5l0,0l-0.4,0.2
								c-0.7,0.3-1.4,0.6-2.1,0.8L378,722l-0.7,0.1c-0.7,0.1-1.5,0.1-2.2,0h-0.4l-1-0.1c-0.8-0.1-1.5-0.2-2.3-0.3
								c-1.5-0.3-3-0.5-4.5-1c-0.9-0.2-1.7-0.5-2.5-0.8l-0.5-0.2h-0.1l-1.2-0.5c-0.7-0.3-1.4-0.7-2-1.1l-0.1-0.1l-0.3-0.2l0,0
								l-0.5-0.5c0.1-0.9,0.1-1.9,0-2.8c0-0.2,0-0.4,0-0.6l0.9-0.6c6-4,12.4-8.4,16.4-14.7c6.2,4,12.8,7.2,19.7,9.5l1.1,0.4
								C397.7,709,397.8,709.4,397.8,709.9z"/>
							<path id="Path_4416-16" class="st6" d="M376.5,764.3c-1.4,2.5-2.6,5.1-3.8,7.8c-2.6,6-5.2,12.1-8.9,17.5
								c-5.9,8.5-13.8,11.5-23.3,9.5c-7.6-1.5-12.3-7.4-13.4-16.1c-0.8-6.6,0.5-13.3,3.5-19.2c3.6-7.4,8.4-13.9,13.1-20.4
								c4.4-6,9-11.8,13.1-18c0.2-0.3,0.4-0.6,0.6-1c0.3,0.2,0.6,0.4,0.9,0.5c1.7,0.9,3.5,1.7,5.4,2.3c2.1,0.7,4.2,1.2,6.3,1.5
								c1.7,0.9,3.4,1.8,4.1,3.7c0.3,0.9,0.6,1.8,0.8,2.7c0.3,9.1,0.3,18.2,1.3,27.2C376.3,763.1,376.4,763.7,376.5,764.3z"/>
							<path id="Path_4417-16" class="st0" d="M398.9,743c-1.6,1.4-3.2,2.6-5,3.7c-4,2.6-7.9,5.2-11.3,8.8l-0.2,0.2l-0.1-1.4
								c-0.4-7-0.4-14.1-0.7-21.2c0.5-2,1.4-4,2.6-5.7c2.6-1.5,5.2-3.3,7.5-5.3c1.5-1.2,2.9-2.3,4.5-3.3c0.4-0.3,0.8-0.5,1.2-0.8
								l0.5-0.3h0.1l0,0h0.1c0.3-0.2,0.6-0.3,0.9-0.4c0.7,3.6,1.5,7.2,2.4,10.7c0.5,1.9,0.8,3.9,1,5.9
								C402.7,737.4,401.5,740.7,398.9,743z"/>
							<path id="Path_4418-16" class="st7" d="M326.9,779.5c1.3,2,3.5,3.4,5.9,3.9c2.3,0.4,4.7,0.4,7,0.2"/>
							<path id="Path_4419-16" class="st8" d="M363.5,661.6c-0.2,1.7-0.1,3.4,0.4,5"/>
							<path id="Path_4420-16" class="st8" d="M367.2,660.3l0.2,4c0,0.5,0.1,1,0.2,1.4"/>
							<path id="Path_4421-16" class="st8" d="M374.3,659.6c0.2,1.3,0.3,2.7,0.3,4"/>
							<path id="Path_4422-16" class="st8" d="M370.5,660.1l0.2,3.1"/>
							<path id="Path_4423-16" class="st8" d="M378.9,659.6v3.9"/>
							<path id="Path_4424-16" class="st8" d="M384.5,659.6c-0.2,1.3-0.5,2.6-0.9,3.9"/>
							<path id="Path_4425-16" class="st8" d="M389.1,660.5c-0.2,1.4-0.6,2.9-0.9,4.3"/>
						</g>
						<g id="Group_2-17">
							<path id="Path_4412-17" class="st0" d="M422.8,489.4c0,0.1-0.1,0.2-0.2,0.3l-0.3,0.4c-0.2,0.3-0.4,0.5-0.6,0.8
								c-0.7,0.9-1.4,1.8-2.1,2.6c-0.4,0.4-0.8,0.9-1.3,1.3l-0.1,0.1l0,0c-0.2,0.2-0.5,0.4-0.7,0.6c-2,1.8-4.2,3.5-6.5,5l-1,0.7
								c-0.5-7.5-1-15-1.4-22.6c0.4,0.3,0.7,0.6,1.1,0.9c2,1.7,4.2,3.3,6.3,4.8c2.1,1.5,4.2,3,6.5,4.3l0.3,0.1
								C422.7,488.9,422.8,489.1,422.8,489.4z"/>
							<path id="Path_4413-17" class="st4" d="M447.5,466l-1.1,0.8l-1,0.7c-2.5,1.7-5,3.3-7.3,5.2c-1.6,1.3-3.1,2.9-4.6,4.3l-1.1,1
								l-0.4,0.4l-0.2,0.2c-0.9,0.8-1.8,1.6-2.7,2.3c-0.6,0.5-1.2,0.9-1.9,1.3c0.2-0.1-0.3,0.1-0.6,0.3h-0.1l-0.2-0.1
								c-0.3-0.2-0.6-0.3-0.9-0.5c-0.5-0.3-1-0.6-1.5-1c-1-0.7-2.1-1.3-3.1-2c-4.1-2.8-8-6-11.5-9.5c-0.4-0.4-0.8-0.8-1.2-1.2
								c-0.1-1.9-0.1-3.7-0.3-5.6c-0.1-1.3,0.5-2.6,1.5-3.4c1.3-1.1,2.9-1.9,4.6-2.3c9.6-2.6,19.2-3.2,27.9-1.5
								c5.5,1.4,5.7,1.7,5.8,6.5C447.5,463.3,447.5,464.7,447.5,466z"/>
							<path id="Path_4414-17" class="st0" d="M448,496.1l-1-0.4l-0.4-0.1l-0.5-0.2l-0.6-0.3c-0.5-0.2-1.1-0.4-1.6-0.7
								c-1.1-0.5-2.2-1-3.3-1.5c-3.1-1.5-6.1-3.2-9-5.1c3.3-2.1,6-5.2,8.9-8l0.6-0.6c0.3-0.3,0.6-0.5,1-0.8c1.3-1,2.6-1.8,3.9-2.7
								l0.5-0.3l1.1-0.7c0,5,0,10.1,0.2,15.1C447.8,492,447.9,494,448,496.1z"/>
							<path id="Path_4415-17" class="st5" d="M449,505.4c-0.3,0.1-0.7,0.3-1,0.4c-5.4,2.3-9.6,6.9-14.7,10l-0.9,0.5l0,0l-0.4,0.2
								c-0.7,0.3-1.4,0.6-2.1,0.8l-0.7,0.2l-0.7,0.1c-0.7,0.1-1.5,0.1-2.2,0H426l-1-0.1c-0.8-0.1-1.5-0.2-2.3-0.3
								c-1.5-0.3-3-0.5-4.5-1c-0.9-0.2-1.7-0.5-2.5-0.8l-0.5-0.2H415c-0.4-0.2-0.8-0.3-1.2-0.5c-0.7-0.3-1.4-0.7-2-1.1h-0.1
								l-0.3-0.2l0,0l-0.5-0.5c0.1-0.9,0.1-1.9,0-2.8v-0.6l0.9-0.6c6-4,12.4-8.4,16.4-14.7c6.2,4,12.8,7.2,19.7,9.5
								c0.4,0.1,0.7,0.3,1.1,0.4C448.9,504.4,448.9,504.9,449,505.4z"/>
							<path id="Path_4416-17" class="st6" d="M427.6,559.8c-1.4,2.5-2.6,5.2-3.8,7.8c-2.6,6-5.2,12.1-8.9,17.5
								c-5.9,8.5-13.8,11.5-23.3,9.5c-7.6-1.5-12.3-7.4-13.4-16.1c-0.8-6.6,0.5-13.3,3.5-19.2c3.6-7.4,8.4-13.8,13.1-20.3
								c4.4-6,9-11.8,13.1-18c0.2-0.3,0.4-0.6,0.6-1c0.3,0.2,0.6,0.4,0.9,0.5c1.7,0.9,3.5,1.7,5.4,2.3c2.1,0.7,4.2,1.2,6.3,1.5
								c1.7,0.9,3.4,1.8,4.1,3.7c0.3,0.9,0.6,1.8,0.8,2.7c0.3,9.1,0.3,18.2,1.3,27.2C427.4,558.6,427.5,559.2,427.6,559.8z"/>
							<path id="Path_4417-17" class="st0" d="M450,538.5c-1.6,1.4-3.2,2.6-5,3.7c-4,2.6-7.9,5.2-11.3,8.8l-0.2,0.2l-0.1-1.4
								c-0.4-7.1-0.4-14.2-0.7-21.2c0.5-2,1.4-4,2.6-5.7c2.6-1.5,5.2-3.3,7.5-5.3c1.5-1.2,2.9-2.3,4.5-3.3c0.4-0.3,0.8-0.5,1.2-0.8
								l0.5-0.3h0.1l0,0h0.1l0.9-0.4c0.7,3.6,1.5,7.2,2.4,10.8c0.5,1.9,0.9,3.9,1,5.9C453.9,532.9,452.6,536.2,450,538.5z"/>
							<path id="Path_4418-17" class="st7" d="M378,574.9c1.3,2,3.5,3.4,5.9,3.9c2.3,0.4,4.7,0.4,7,0.2"/>
							<path id="Path_4419-17" class="st8" d="M414.6,457.1c-0.2,1.7-0.1,3.4,0.4,5"/>
							<path id="Path_4420-17" class="st8" d="M418.3,455.8l0.2,4c0,0.5,0.1,1,0.2,1.4"/>
							<path id="Path_4421-17" class="st8" d="M425.4,455.1c0.2,1.3,0.3,2.6,0.3,4"/>
							<path id="Path_4422-17" class="st8" d="M421.6,455.6l0.2,3.1"/>
							<path id="Path_4423-17" class="st8" d="M430,455v3.9"/>
							<path id="Path_4424-17" class="st8" d="M435.6,455c-0.2,1.3-0.5,2.6-0.9,3.9"/>
							<path id="Path_4425-17" class="st8" d="M440.2,456c-0.3,1.4-0.6,2.8-0.9,4.3"/>
						</g>
						<g id="Group_2-18">
							<path id="Path_4412-18" class="st0" d="M523.5,601.9c-0.1,0.1-0.1,0.2-0.2,0.3c-0.1,0.1-0.3,0.4-0.3,0.4
								c-0.2,0.3-0.4,0.5-0.5,0.8c-0.7,0.9-1.4,1.8-2.2,2.6c-0.4,0.4-0.8,0.9-1.2,1.3l-0.1,0.1l0,0l-0.7,0.7c-2,1.8-4.2,3.5-6.5,5
								l-1,0.7c-0.5-7.5-1-15-1.5-22.6l1.1,0.9c2,1.7,4.2,3.3,6.3,4.8c2.1,1.5,4.2,3,6.5,4.3c0.1,0.1,0.2,0.1,0.3,0.2
								C523.5,601.4,523.5,601.7,523.5,601.9z"/>
							<path id="Path_4413-18" class="st4" d="M548.2,578.6l-1.1,0.8l-1,0.7c-2.5,1.7-5,3.3-7.3,5.2c-1.6,1.3-3.1,2.8-4.6,4.3
								l-1.1,1l-0.5,0.4l-0.2,0.2c-0.9,0.8-1.8,1.6-2.7,2.3c-0.6,0.5-1.2,0.9-1.9,1.3c0.2-0.1-0.3,0.1-0.6,0.3h-0.1l-0.2-0.1
								l-0.9-0.5c-0.5-0.3-1-0.6-1.5-1c-1-0.7-2.1-1.3-3.1-2c-4.1-2.8-8-5.9-11.6-9.4c-0.4-0.4-0.8-0.8-1.1-1.2
								c-0.1-1.9-0.2-3.7-0.3-5.6c-0.1-1.3,0.5-2.6,1.5-3.4c1.3-1.1,2.9-1.9,4.5-2.3c9.6-2.6,19.2-3.2,27.9-1.5
								c5.4,1.4,5.7,1.7,5.8,6.5C548.2,575.8,548.2,577.2,548.2,578.6z"/>
							<path id="Path_4414-18" class="st0" d="M548.8,608.7l-1-0.4l-0.4-0.2l-0.5-0.2l-0.6-0.2l-1.6-0.7c-1.1-0.5-2.2-1-3.3-1.5
								c-3.1-1.5-6.1-3.2-9-5.1c3.3-2.1,6-5.2,8.9-8c0,0,0.5-0.5,0.7-0.6s0.6-0.5,1-0.8c1.3-1,2.6-1.8,3.9-2.7l0.5-0.3l1.1-0.7
								c0,5,0,10.1,0.2,15.1C548.5,604.5,548.6,606.6,548.8,608.7z"/>
							<path id="Path_4415-18" class="st5" d="M549.7,617.9c-0.3,0.1-0.7,0.3-1,0.4c-5.4,2.3-9.7,6.9-14.7,10l-0.9,0.5l0,0l-0.4,0.2
								c-0.7,0.3-1.4,0.6-2.1,0.8c-0.1,0-0.5,0.1-0.7,0.2l-0.7,0.1c-0.7,0.1-1.5,0.1-2.2,0h-0.4l-1-0.1c-0.8-0.1-1.5-0.2-2.3-0.3
								c-1.5-0.3-3-0.5-4.5-1c-0.8-0.2-1.7-0.5-2.5-0.8l-0.5-0.2h-0.1c-0.4-0.2-0.8-0.3-1.2-0.5c-0.7-0.3-1.4-0.7-2-1.1h-0.1
								l-0.3-0.2H512l-0.5-0.5c0.1-0.9,0.1-1.9,0-2.8c0-0.2,0-0.4,0-0.6l0.9-0.6c6-4,12.4-8.4,16.4-14.7c6.2,4,12.8,7.2,19.7,9.5
								c0.4,0.1,0.7,0.3,1.1,0.4C549.6,617,549.6,617.4,549.7,617.9z"/>
							<path id="Path_4416-18" class="st6" d="M528.3,672.3c-1.4,2.5-2.6,5.2-3.8,7.8c-2.7,6-5.2,12.1-8.9,17.5
								c-5.9,8.5-13.8,11.5-23.3,9.5c-7.6-1.5-12.3-7.4-13.4-16.1c-0.7-6.6,0.5-13.3,3.5-19.2c3.6-7.4,8.4-13.8,13.1-20.3
								c4.4-6,9-11.8,13.1-18c0.2-0.3,0.4-0.7,0.6-1l0.9,0.5c1.7,0.9,3.5,1.7,5.4,2.3c2.1,0.7,4.2,1.2,6.3,1.5
								c1.7,0.9,3.4,1.8,4.2,3.7c0.3,0.9,0.6,1.8,0.8,2.7c0.3,9.1,0.3,18.2,1.3,27.2C528.1,671.1,528.2,671.7,528.3,672.3z"/>
							<path id="Path_4417-18" class="st0" d="M550.8,651c-1.6,1.4-3.2,2.6-5,3.7c-4,2.6-7.9,5.2-11.3,8.8c-0.1,0.1-0.1,0.2-0.2,0.2
								c0-0.5-0.1-0.9-0.1-1.4c-0.4-7-0.4-14.1-0.7-21.2c0.5-2,1.4-4,2.6-5.7c2.6-1.5,5.2-3.3,7.5-5.3c1.5-1.2,2.9-2.3,4.5-3.3
								c0.4-0.3,0.8-0.5,1.2-0.8l0.5-0.3h0.1l0,0h0.1c0.3-0.2,0.6-0.3,0.9-0.4c0.7,3.6,1.4,7.2,2.4,10.8c0.5,1.9,0.8,3.9,1,5.9
								C554.6,645.4,553.3,648.7,550.8,651z"/>
							<path id="Path_4418-18" class="st7" d="M478.7,687.5c1.3,2,3.5,3.4,5.9,3.9c2.3,0.4,4.7,0.4,7,0.2"/>
							<path id="Path_4419-18" class="st8" d="M515.4,569.6c-0.2,1.7-0.1,3.4,0.4,5"/>
							<path id="Path_4420-18" class="st8" d="M519.1,568.3l0.2,4c0,0.5,0.1,1,0.2,1.4"/>
							<path id="Path_4421-18" class="st8" d="M526.1,567.7c0.2,1.3,0.3,2.7,0.3,4"/>
							<path id="Path_4422-18" class="st8" d="M522.4,568.1l0.2,3.1"/>
							<path id="Path_4423-18" class="st8" d="M530.8,567.6v3.9"/>
							<path id="Path_4424-18" class="st8" d="M536.3,567.6c-0.2,1.3-0.5,2.6-0.9,3.9"/>
							<path id="Path_4425-18" class="st8" d="M540.9,568.6c-0.2,1.4-0.6,2.8-0.9,4.3"/>
						</g>
						<g id="Group_2-19">
							<path id="Path_4412-19" class="st0" d="M492,787.5c0,0.1-0.1,0.2-0.2,0.3l-0.3,0.4c-0.2,0.3-0.4,0.5-0.6,0.8
								c-0.7,0.9-1.4,1.8-2.1,2.6c-0.4,0.4-0.8,0.9-1.3,1.3l-0.1,0.1l0,0c-0.2,0.2-0.5,0.4-0.7,0.7c-2,1.8-4.2,3.5-6.5,5l-1,0.7
								c-0.5-7.5-1-15-1.4-22.6c0.4,0.3,0.7,0.6,1.1,0.9c2,1.7,4.2,3.3,6.3,4.8c2.1,1.5,4.2,3,6.5,4.3c0.1,0.1,0.2,0.1,0.3,0.2
								C491.9,787,492,787.3,492,787.5z"/>
							<path id="Path_4413-19" class="st4" d="M516.6,764.2l-1.1,0.8l-1,0.7c-2.5,1.7-5,3.3-7.3,5.2c-1.6,1.3-3.1,2.8-4.6,4.3
								c-0.4,0.3-0.7,0.7-1.1,1l-0.4,0.4l-0.2,0.2c-0.9,0.8-1.8,1.6-2.7,2.3c-0.6,0.5-1.2,0.9-1.9,1.3c0.2-0.1-0.3,0.1-0.6,0.3h-0.1
								l-0.2-0.1l-0.9-0.5c-0.5-0.3-1-0.6-1.5-1c-1-0.7-2.1-1.3-3.1-2c-4.1-2.8-8-6-11.5-9.5c-0.4-0.4-0.8-0.8-1.2-1.2
								c-0.1-1.9-0.1-3.7-0.3-5.6c-0.1-1.3,0.5-2.6,1.5-3.4c1.3-1.1,2.9-1.9,4.6-2.3c9.6-2.6,19.2-3.2,27.9-1.5
								c5.4,1.4,5.7,1.7,5.7,6.5C516.6,761.4,516.6,762.8,516.6,764.2z"/>
							<path id="Path_4414-19" class="st0" d="M517.2,794.2l-1-0.4l-0.4-0.2l-0.5-0.2l-0.6-0.2c-0.5-0.2-1.1-0.4-1.6-0.7
								c-1.1-0.5-2.2-1-3.3-1.5c-3.1-1.5-6.1-3.2-9-5.1c3.3-2.1,6-5.2,8.9-8l0.6-0.6c0.3-0.3,0.6-0.5,1-0.8c1.3-1,2.6-1.8,3.9-2.7
								l0.5-0.3l1.1-0.7c0,5,0,10.1,0.2,15.1C516.9,790.1,517,792.2,517.2,794.2z"/>
							<path id="Path_4415-19" class="st5" d="M518.1,803.5c-0.3,0.1-0.7,0.3-1,0.4c-5.4,2.3-9.6,6.9-14.7,10l-0.9,0.5l0,0l-0.4,0.2
								c-0.7,0.3-1.4,0.6-2.1,0.8l-0.7,0.2c-0.2,0-0.6,0.1-0.7,0.1c-0.7,0.1-1.5,0.1-2.2,0H495l-1-0.1c-0.8-0.1-1.5-0.2-2.3-0.3
								c-1.5-0.3-3-0.5-4.5-1c-0.9-0.2-1.7-0.5-2.5-0.8l-0.5-0.2h-0.1c-0.4-0.2-0.8-0.3-1.2-0.5c-0.7-0.3-1.4-0.7-2-1.1h-0.1
								l-0.3-0.2l0,0L480,811c0.1-0.9,0.1-1.9,0-2.8c0-0.2,0-0.4,0-0.6l0.9-0.6c6-4,12.4-8.4,16.4-14.7c6.2,4,12.8,7.2,19.7,9.5
								l1.1,0.4C518,802.6,518.1,803,518.1,803.5z"/>
							<path id="Path_4416-19" class="st6" d="M496.7,857.9c-1.4,2.5-2.6,5.2-3.8,7.8c-2.6,6-5.2,12.1-8.9,17.5
								c-5.9,8.5-13.8,11.5-23.3,9.5c-7.6-1.5-12.3-7.4-13.4-16.1c-0.8-6.6,0.5-13.3,3.5-19.2c3.6-7.4,8.4-13.8,13.1-20.3
								c4.4-6,9-11.8,13.1-18c0.2-0.3,0.4-0.6,0.6-1c0.3,0.2,0.6,0.4,0.9,0.5c1.7,0.9,3.5,1.7,5.4,2.3c2.1,0.7,4.2,1.2,6.3,1.5
								c1.7,0.9,3.4,1.8,4.1,3.7c0.3,0.9,0.6,1.8,0.8,2.7c0.3,9.1,0.3,18.2,1.3,27.2C496.6,856.7,496.6,857.3,496.7,857.9z"/>
							<path id="Path_4417-19" class="st0" d="M519.2,836.6c-1.6,1.4-3.2,2.6-5,3.7c-4,2.6-7.9,5.2-11.3,8.8l-0.2,0.2l-0.1-1.4
								c-0.4-7-0.4-14.1-0.7-21.2c0.5-2,1.4-4,2.6-5.7c2.6-1.5,5.2-3.3,7.5-5.3c1.5-1.2,2.9-2.3,4.5-3.3c0.4-0.3,0.8-0.5,1.2-0.8
								l0.5-0.3h0.1l0,0h0.1l0.9-0.4c0.7,3.6,1.5,7.2,2.4,10.8c0.5,1.9,0.8,3.9,1,5.9C523,831,521.7,834.3,519.2,836.6z"/>
							<path id="Path_4418-19" class="st7" d="M447.1,873.1c1.3,2,3.5,3.4,5.9,3.9c2.3,0.4,4.7,0.4,7,0.2"/>
							<path id="Path_4419-19" class="st8" d="M483.8,755.2c-0.2,1.7-0.1,3.4,0.4,5"/>
							<path id="Path_4420-19" class="st8" d="M487.5,753.9l0.2,4c0,0.5,0.1,1,0.2,1.4"/>
							<path id="Path_4421-19" class="st8" d="M494.5,753.2c0.2,1.3,0.3,2.7,0.3,4"/>
							<path id="Path_4422-19" class="st8" d="M490.8,753.7l0.2,3.1"/>
							<path id="Path_4423-19" class="st8" d="M499.2,753.2v3.8"/>
							<path id="Path_4424-19" class="st8" d="M504.8,753.2c-0.2,1.3-0.5,2.6-0.9,3.9"/>
							<path id="Path_4425-19" class="st8" d="M509.4,754.2c-0.2,1.4-0.6,2.9-0.9,4.3"/>
						</g>
						<g id="Group_2-20">
							<path id="Path_4412-20" class="st0" d="M-63.8,754.5l-0.2,0.3c-0.1,0.1-0.3,0.4-0.3,0.4l-0.6,0.8c-0.7,0.9-1.4,1.8-2.2,2.6
								c-0.4,0.4-0.8,0.8-1.3,1.3l-0.1,0.1l0,0c-0.2,0.2-0.5,0.4-0.7,0.7c-2.1,1.8-4.2,3.5-6.5,5l-1,0.7c-0.5-7.5-1-15-1.4-22.6
								l1.1,0.9c2,1.7,4.2,3.2,6.3,4.8c2.1,1.5,4.2,2.9,6.5,4.3l0.3,0.2C-63.9,754-63.9,754.3-63.8,754.5z"/>
							<path id="Path_4413-20" class="st4" d="M-39.2,731.2l-1.1,0.8l-1,0.7c-2.5,1.7-5,3.3-7.3,5.2c-1.6,1.3-3.1,2.8-4.6,4.3
								l-1.1,1l-0.5,0.4l-0.2,0.2c-0.9,0.8-1.8,1.6-2.7,2.3c-0.6,0.5-1.2,0.9-1.8,1.3c0.2-0.1-0.3,0.1-0.6,0.3h-0.1l-0.2-0.1
								c-0.3-0.2-0.6-0.3-0.9-0.5c-0.5-0.3-1-0.6-1.5-0.9c-1-0.7-2.1-1.3-3.1-2c-4.1-2.8-8-6-11.5-9.5c-0.4-0.4-0.8-0.8-1.2-1.2
								c-0.1-1.9-0.2-3.7-0.3-5.6c-0.1-1.3,0.5-2.6,1.5-3.4c1.3-1.1,2.9-1.9,4.6-2.3c9.6-2.6,19.2-3.2,27.9-1.5
								c5.4,1.4,5.7,1.7,5.8,6.5C-39.2,728.4-39.2,729.8-39.2,731.2z"/>
							<path id="Path_4414-20" class="st0" d="M-38.6,761.2l-1-0.4l-0.4-0.1l-0.5-0.2l-0.6-0.3c-0.5-0.2-1.1-0.4-1.6-0.7
								c-1.1-0.5-2.2-1-3.3-1.5c-3.1-1.5-6.1-3.2-9-5.1c3.3-2.1,6.1-5.2,8.9-8l0.7-0.6c0.3-0.3,0.6-0.5,1-0.8c1.3-1,2.6-1.8,3.9-2.7
								l0.5-0.3l1.1-0.7c0,5,0,10.1,0.2,15.1C-38.9,757.1-38.7,759.2-38.6,761.2z"/>
							<path id="Path_4415-20" class="st5" d="M-37.7,770.5c-0.3,0.1-0.7,0.3-1,0.4c-5.4,2.3-9.7,6.9-14.7,10
								c-0.3,0.2-0.6,0.3-0.9,0.5l0,0l-0.4,0.2c-0.7,0.3-1.4,0.6-2.1,0.8l-0.7,0.2l-0.7,0.1c-0.7,0.1-1.5,0.1-2.2,0h-0.4l-1-0.1
								c-0.8-0.1-1.5-0.2-2.3-0.3c-1.5-0.2-3-0.5-4.5-0.9c-0.8-0.2-1.7-0.5-2.5-0.8l-0.5-0.2h-0.1c-0.4-0.2-0.8-0.3-1.2-0.5
								c-0.7-0.3-1.4-0.7-2-1.1l-0.1-0.1l-0.3-0.2l0,0l-0.6-0.5c0.1-0.9,0.1-1.9,0-2.8c0-0.2,0-0.4,0-0.6l0.9-0.6
								c6-4,12.4-8.4,16.4-14.7c6.2,4,12.8,7.2,19.7,9.5l1.1,0.4C-37.8,769.5-37.7,770-37.7,770.5z"/>
							<path id="Path_4416-20" class="st6" d="M-59.1,824.9c-1.4,2.5-2.6,5.2-3.8,7.8c-2.7,6-5.2,12.1-8.9,17.5
								c-5.9,8.5-13.8,11.5-23.3,9.5c-7.6-1.5-12.3-7.4-13.4-16.1c-0.8-6.6,0.5-13.3,3.5-19.2c3.6-7.4,8.4-13.9,13.1-20.4
								c4.4-6,9-11.8,13.1-18c0.2-0.3,0.4-0.6,0.6-1c0.3,0.2,0.6,0.4,0.9,0.5c1.7,1,3.5,1.7,5.3,2.4c2.1,0.7,4.2,1.1,6.3,1.5
								c1.7,0.9,3.4,1.8,4.1,3.7c0.3,0.9,0.6,1.8,0.8,2.7c0.3,9.1,0.3,18.2,1.3,27.2C-59.2,823.7-59.2,824.3-59.1,824.9z"/>
							<path id="Path_4417-20" class="st0" d="M-36.6,803.6c-1.6,1.4-3.2,2.6-5,3.7c-4,2.6-7.9,5.2-11.3,8.8l-0.2,0.2l-0.1-1.4
								c-0.4-7-0.4-14.1-0.7-21.2c0.5-2,1.3-4,2.5-5.7c2.7-1.5,5.2-3.3,7.5-5.3c1.5-1.2,2.9-2.3,4.5-3.3c0.4-0.3,0.8-0.5,1.2-0.8
								l0.5-0.3l0,0l0,0h0.1l0.9-0.4c0.7,3.6,1.4,7.2,2.4,10.7c0.5,1.9,0.8,3.9,1,5.9C-32.8,798-34.1,801.3-36.6,803.6z"/>
							<path id="Path_4418-20" class="st7" d="M-108.7,840c1.3,2,3.5,3.4,5.9,3.9c2.3,0.4,4.7,0.4,7,0.2"/>
							<path id="Path_4419-20" class="st8" d="M-72,722.2c-0.2,1.7-0.1,3.4,0.4,5"/>
							<path id="Path_4420-20" class="st8" d="M-68.3,720.9l0.2,4c0,0.5,0.1,1,0.2,1.4"/>
							<path id="Path_4421-20" class="st8" d="M-61.3,720.2c0.2,1.3,0.3,2.7,0.3,4"/>
							<path id="Path_4422-20" class="st8" d="M-65,720.7l0.2,3.1"/>
							<path id="Path_4423-20" class="st8" d="M-56.6,720.2v3.8"/>
							<path id="Path_4424-20" class="st8" d="M-51,720.2c-0.2,1.3-0.5,2.6-0.9,3.9"/>
							<path id="Path_4425-20" class="st8" d="M-46.4,721.2c-0.3,1.4-0.6,2.8-0.9,4.3"/>
						</g>
					</g>
				</g>
			</g>
		</g>
		<line id="Line_7" class="st9" x1="425" y1="45.2" x2="573.8" y2="45.2"/>
		<line id="Line_8" class="st9" x1="107.2" y1="45.2" x2="255.9" y2="45.2"/>
		<g class="st10">
			<path class="st4" d="M294.9,48l-2.8-7.5h0c0,0.2,0,0.6,0.1,1c0,0.4,0,0.9,0,1.3V48h-1v-8.6h1.6l2.6,7h0l2.7-7h1.6V48h-1.1v-5.3
				c0-0.4,0-0.8,0-1.2c0-0.4,0-0.7,0.1-1h0l-2.9,7.5H294.9z"/>
			<path class="st4" d="M308.7,48H304v-8.6h4.8v0.9H305V43h3.5V44H305V47h3.7V48z"/>
			<path class="st4" d="M316.4,48l-2.8-7.5h0c0,0.2,0,0.6,0.1,1c0,0.4,0,0.9,0,1.3V48h-1v-8.6h1.6l2.6,7h0l2.7-7h1.6V48h-1.1v-5.3
				c0-0.4,0-0.8,0-1.2c0-0.4,0-0.7,0.1-1h0l-2.9,7.5H316.4z"/>
			<path class="st4" d="M325.5,39.4h2.4c1.1,0,1.9,0.2,2.4,0.5c0.6,0.3,0.8,0.9,0.8,1.6c0,0.5-0.1,0.9-0.4,1.3
				c-0.3,0.3-0.7,0.5-1.2,0.6v0.1c0.4,0.1,0.7,0.2,1,0.3c0.3,0.2,0.5,0.4,0.7,0.6c0.2,0.3,0.3,0.6,0.3,1.1c0,0.8-0.3,1.4-0.8,1.8
				c-0.5,0.4-1.3,0.6-2.2,0.6h-3V39.4z M326.6,43.1h1.6c0.7,0,1.2-0.1,1.5-0.4c0.3-0.2,0.4-0.6,0.4-1c0-0.5-0.2-0.8-0.5-1
				s-0.9-0.3-1.6-0.3h-1.4V43.1z M326.6,44v3.1h1.7c0.8,0,1.3-0.1,1.6-0.4c0.3-0.3,0.4-0.7,0.4-1.2c0-0.4-0.2-0.8-0.5-1.1
				c-0.3-0.3-0.9-0.4-1.6-0.4H326.6z"/>
			<path class="st4" d="M340.1,48h-4.8v-8.6h4.8v0.9h-3.7V43h3.5V44h-3.5V47h3.7V48z"/>
			<path class="st4" d="M346.3,39.4c1.1,0,1.8,0.2,2.4,0.6c0.5,0.4,0.8,1,0.8,1.8c0,0.5-0.1,0.8-0.3,1.1c-0.2,0.3-0.4,0.5-0.6,0.7
				c-0.3,0.2-0.5,0.3-0.8,0.4l2.4,3.8h-1.3l-2.1-3.5H345V48H344v-8.6H346.3z M346.3,40.3H345v3.2h1.3c0.7,0,1.2-0.1,1.5-0.4
				c0.3-0.3,0.5-0.7,0.5-1.2c0-0.6-0.2-1-0.5-1.2C347.5,40.5,347,40.3,346.3,40.3z"/>
			<path class="st4" d="M358.3,45.7c0,0.8-0.3,1.4-0.8,1.8c-0.6,0.4-1.3,0.6-2.2,0.6c-0.5,0-0.9,0-1.3-0.1c-0.4-0.1-0.7-0.2-1-0.3
				v-1c0.3,0.1,0.6,0.2,1.1,0.3c0.4,0.1,0.9,0.2,1.3,0.2c0.6,0,1.1-0.1,1.4-0.4c0.3-0.2,0.5-0.6,0.5-1c0-0.3-0.1-0.5-0.2-0.7
				c-0.1-0.2-0.3-0.4-0.6-0.5s-0.7-0.3-1.2-0.5c-0.7-0.3-1.3-0.6-1.7-1c-0.4-0.4-0.6-0.9-0.6-1.6c0-0.4,0.1-0.8,0.3-1.2
				c0.2-0.3,0.6-0.6,1-0.8c0.4-0.2,0.9-0.3,1.4-0.3c0.5,0,0.9,0,1.3,0.1c0.4,0.1,0.8,0.2,1.1,0.3l-0.3,0.9c-0.3-0.1-0.6-0.2-1-0.3
				c-0.4-0.1-0.7-0.1-1.1-0.1c-0.5,0-0.9,0.1-1.2,0.3c-0.3,0.2-0.4,0.5-0.4,0.9c0,0.3,0.1,0.5,0.2,0.7c0.1,0.2,0.3,0.4,0.6,0.5
				c0.3,0.2,0.6,0.3,1.1,0.5c0.5,0.2,0.9,0.4,1.3,0.6c0.3,0.2,0.6,0.5,0.8,0.8S358.3,45.2,358.3,45.7z"/>
			<path class="st4" d="M368.5,48h-1.1v-4h-4.4v4H362v-8.6h1.1V43h4.4v-3.6h1.1V48z"/>
			<path class="st4" d="M375.3,48h-3.1v-0.6l1-0.2v-6.9l-1-0.2v-0.6h3.1V40l-1,0.2v6.9l1,0.2V48z"/>
			<path class="st4" d="M381.2,39.4c1.1,0,1.9,0.2,2.4,0.7c0.5,0.4,0.8,1.1,0.8,1.9c0,0.5-0.1,0.9-0.3,1.3s-0.6,0.7-1.1,1
				c-0.5,0.3-1.2,0.4-2,0.4h-1V48h-1.1v-8.6H381.2z M381.1,40.3H380v3.4h0.9c0.8,0,1.4-0.1,1.8-0.4c0.4-0.3,0.6-0.7,0.6-1.3
				c0-0.6-0.2-1-0.5-1.2C382.4,40.5,381.9,40.3,381.1,40.3z"/>
		</g>
	</g>
</g>
</svg>
