<?xml version="1.0" encoding="utf-8"?>
<!-- Generator: Adobe Illustrator 24.2.3, SVG Export Plug-In . SVG Version: 6.00 Build 0)  -->
<svg version="1.1" id="圖層_1" xmlns="http://www.w3.org/2000/svg" xmlns:xlink="http://www.w3.org/1999/xlink" x="0px" y="0px"
	 viewBox="0 0 680.4 460" style="enable-background:new 0 0 680.4 460;" xml:space="preserve">
<style type="text/css">
	.st0{fill:#F2DE79;}
	.st1{fill:#F8F4EB;}
	.st2{opacity:0.15;}
	.st3{clip-path:url(#SVGID_2_);}
	.st4{fill:#03588C;}
	.st5{fill:#FF9685;}
	.st6{fill:#0388A6;}
	.st7{fill:none;stroke:#EDEDED;stroke-width:0.52;stroke-miterlimit:10;}
	.st8{fill:none;stroke:#00A99D;stroke-width:0.52;stroke-miterlimit:10;}
	.st9{fill:none;stroke:#03588C;stroke-miterlimit:10;}
	.st10{enable-background:new    ;}
</style>
<g id="圖層_2_1_">
	<g id="圖層_1-2">
		<path id="Rectangle_8-2" class="st0" d="M37.4,0h606c20.5,0,37,17.8,37,39.8v380.3c0,22-16.6,39.8-37,39.8h-606
			c-20.4,0-37-17.8-37-39.8V39.8C0.4,17.8,16.9,0,37.4,0z"/>
		<path id="Rectangle_8-3" class="st1" d="M50.8,15H630c19.5,0,35.4,16.7,35.4,37.2v355.5c0,20.6-15.8,37.2-35.4,37.2H50.8
			c-19.5,0-35.4-16.7-35.4-37.2V52.2C15.4,31.7,31.2,15,50.8,15z"/>
		<g class="st2">
			<g>
				<defs>
					<path id="SVGID_1_" d="M50.8,15H630c19.5,0,35.4,16.7,35.4,37.2v355.5c0,20.6-15.8,37.2-35.4,37.2H50.8
						c-19.5,0-35.4-16.7-35.4-37.2V52.2C15.4,31.7,31.2,15,50.8,15z"/>
				</defs>
				<clipPath id="SVGID_2_">
					<use xlink:href="#SVGID_1_"  style="overflow:visible;"/>
				</clipPath>
				<g class="st3">
					<g id="Group_2">
						<path id="Path_4412" class="st0" d="M83.1,116c0,0.1-0.1,0.2-0.2,0.3s-0.3,0.4-0.3,0.4c-0.2,0.3-0.4,0.5-0.6,0.8
							c-0.7,0.9-1.4,1.8-2.2,2.6c-0.4,0.4-0.8,0.9-1.3,1.3l-0.1,0.1l0,0l-0.7,0.7c-2.1,1.8-4.2,3.5-6.5,5l-1,0.7
							c-0.5-7.5-1-15-1.4-22.6l1.1,0.9c2.1,1.7,4.2,3.2,6.3,4.8c2.1,1.5,4.3,2.9,6.5,4.3c0.1,0.1,0.2,0.1,0.3,0.2
							C83.1,115.5,83.1,115.8,83.1,116z"/>
						<path id="Path_4413" class="st4" d="M107.9,92.7l-1.1,0.8l-1,0.7c-2.5,1.7-5,3.3-7.4,5.2c-1.6,1.3-3.1,2.8-4.7,4.3l-1.1,1
							l-0.4,0.4l-0.2,0.2c-0.9,0.8-1.8,1.6-2.7,2.3c-0.6,0.5-1.2,0.9-1.9,1.3c0.2-0.1-0.3,0.1-0.6,0.3h-0.1l-0.2-0.1l-0.9-0.5
							c-0.5-0.3-1-0.6-1.5-1c-1-0.7-2.1-1.3-3.1-2c-4.2-2.8-8.1-5.9-11.7-9.4c-0.4-0.4-0.8-0.8-1.2-1.2C68.1,93,68,91.2,68,89.3
							c-0.1-1.3,0.5-2.5,1.6-3.3c1.4-1.1,2.9-1.9,4.6-2.3c9.6-2.6,19.3-3.2,28.1-1.5c5.5,1.4,5.7,1.7,5.8,6.5
							C107.9,90,107.9,91.3,107.9,92.7z"/>
						<path id="Path_4414" class="st0" d="M108.5,122.8l-1.1-0.4l-0.4-0.1l-0.5-0.2l-0.6-0.3c-0.5-0.2-1.1-0.4-1.6-0.7
							c-1.1-0.5-2.2-1-3.3-1.5c-3.1-1.5-6.1-3.2-9-5.1c3.3-2.1,6.1-5.2,9-8l0.7-0.6c0.3-0.3,0.6-0.5,1-0.8c1.3-1,2.6-1.8,3.9-2.7
							l0.5-0.3l1.1-0.7c0,5,0,10.1,0.2,15.1C108.3,118.6,108.4,120.7,108.5,122.8z"/>
						<path id="Path_4415" class="st5" d="M109.5,132c-0.3,0.1-0.7,0.3-1,0.4c-5.4,2.3-9.7,6.9-14.8,10l-0.9,0.5l0,0l-0.4,0.2
							c-0.7,0.3-1.4,0.6-2.2,0.8l-0.7,0.2l-0.7,0.1c-0.7,0.1-1.5,0.1-2.2,0h-0.4l-1-0.1c-0.8-0.1-1.5-0.2-2.3-0.3
							c-1.5-0.2-3.1-0.5-4.6-0.9c-0.8-0.2-1.7-0.5-2.6-0.8l-0.5-0.1h-0.1c-0.4-0.2-0.8-0.4-1.2-0.6c-0.7-0.3-1.4-0.7-2.1-1.1
							l-0.1-0.1l-0.3-0.2c0,0,0,0,0-0.1l-0.6-0.5c0.1-0.9,0.1-1.9,0-2.8c0-0.2,0-0.4,0-0.6l0.9-0.6c6.1-4,12.5-8.4,16.5-14.7
							c6.2,4,12.9,7.2,19.8,9.5l1.1,0.4C109.4,131.1,109.4,131.6,109.5,132z"/>
						<path id="Path_4416" class="st6" d="M87.9,186.5c-1.4,2.5-2.6,5.1-3.8,7.8c-2.7,6-5.3,12.1-9,17.5
							c-5.9,8.5-13.8,11.5-23.4,9.5c-7.6-1.5-12.4-7.4-13.5-16.1c-0.8-6.6,0.5-13.3,3.5-19.2c3.6-7.4,8.4-13.9,13.2-20.4
							c4.4-6,9-11.8,13.2-18c0.2-0.3,0.4-0.6,0.6-1l0.9,0.5c1.7,0.9,3.5,1.7,5.4,2.3c2.1,0.7,4.2,1.2,6.3,1.6
							c1.7,0.9,3.4,1.8,4.2,3.7c0.3,0.9,0.6,1.8,0.8,2.7c0.3,9.1,0.3,18.2,1.3,27.2C87.8,185.3,87.8,185.9,87.9,186.5z"/>
						<path id="Path_4417" class="st0" d="M110.5,165.1c-1.6,1.4-3.3,2.6-5.1,3.7c-4,2.6-8,5.2-11.3,8.8c-0.1,0.1-0.1,0.2-0.2,0.2
							l-0.1-1.4c-0.4-7-0.4-14.1-0.7-21.2c0.5-2,1.4-4,2.6-5.7c2.7-1.5,5.2-3.3,7.6-5.3c1.5-1.2,3-2.3,4.5-3.3
							c0.4-0.3,0.8-0.5,1.2-0.8l0.6-0.3l0,0l0,0h0.1c0.3-0.1,0.6-0.3,0.9-0.4c0.7,3.6,1.5,7.2,2.4,10.7c0.5,1.9,0.9,3.9,1.1,5.9
							C114.3,159.5,113.1,162.9,110.5,165.1z"/>
						<path id="Path_4418" class="st7" d="M38,201.6c1.4,2,3.5,3.4,5.9,3.9c2.3,0.4,4.7,0.4,7.1,0.2"/>
						<path id="Path_4419" class="st8" d="M74.9,83.8c-0.2,1.7-0.1,3.4,0.4,5"/>
						<path id="Path_4420" class="st8" d="M78.6,82.5l0.2,4c0,0.5,0.1,1,0.2,1.5"/>
						<path id="Path_4421" class="st8" d="M85.7,81.8c0.2,1.3,0.3,2.7,0.3,4"/>
						<path id="Path_4422" class="st8" d="M82,82.3l0.2,3.1"/>
						<path id="Path_4423" class="st8" d="M90.4,81.7v3.9"/>
						<path id="Path_4424" class="st8" d="M96,81.7c-0.2,1.3-0.5,2.7-0.9,4"/>
						<path id="Path_4425" class="st8" d="M100.6,82.7c-0.3,1.4-0.6,2.8-0.9,4.3"/>
					</g>
					<g id="Group_2-2">
						<path id="Path_4412-2" class="st0" d="M196.6,244.8l-0.2,0.3c-0.1,0.1-0.3,0.4-0.3,0.4c-0.2,0.3-0.4,0.5-0.6,0.8
							c-0.7,0.9-1.4,1.8-2.2,2.6c-0.4,0.4-0.8,0.9-1.3,1.3l-0.1,0.1l0,0l-0.7,0.6c-2.1,1.8-4.2,3.5-6.5,5l-1,0.7
							c-0.5-7.5-1-15.1-1.4-22.6l1.1,0.9c2.1,1.7,4.2,3.2,6.3,4.8c2.1,1.5,4.3,2.9,6.5,4.3l0.3,0.1
							C196.5,244.3,196.5,244.6,196.6,244.8z"/>
						<path id="Path_4413-2" class="st4" d="M221.4,221.5l-1.1,0.8l-1,0.7c-2.5,1.7-5,3.3-7.4,5.2c-1.6,1.3-3.1,2.8-4.6,4.3
							c-0.4,0.4-0.7,0.7-1.1,1c0,0.1-0.4,0.4-0.4,0.4c-0.1,0.1-0.1,0.2-0.2,0.2c-0.9,0.8-1.8,1.6-2.7,2.3c-0.6,0.5-1.2,0.9-1.9,1.3
							c0.2-0.1-0.3,0.1-0.6,0.3h-0.1l-0.2-0.1l-0.9-0.5c-0.5-0.3-1-0.6-1.5-0.9c-1-0.7-2.1-1.3-3.1-2c-4.1-2.8-8-6-11.6-9.5
							c-0.4-0.4-0.8-0.8-1.2-1.2c-0.1-1.9-0.2-3.7-0.3-5.6c-0.1-1.3,0.5-2.6,1.5-3.4c1.4-1.1,2.9-1.9,4.6-2.3
							c9.6-2.6,19.3-3.2,28-1.5c5.5,1.4,5.7,1.7,5.8,6.5C221.4,218.8,221.4,220.1,221.4,221.5z"/>
						<path id="Path_4414-2" class="st0" d="M222,251.6l-1.1-0.4l-0.4-0.1l-0.5-0.2l-0.6-0.3c-0.6-0.2-1.1-0.4-1.6-0.7
							c-1.1-0.5-2.2-1-3.3-1.5c-3.1-1.5-6.1-3.2-9-5.1c3.3-2.1,6.1-5.2,9-7.9c0,0,0.5-0.5,0.7-0.6c0.3-0.3,0.6-0.5,1-0.8
							c1.3-1,2.6-1.8,3.9-2.7l0.5-0.3l1.1-0.7c0,5,0,10.1,0.2,15.1C221.7,247.4,221.8,249.5,222,251.6z"/>
						<path id="Path_4415-2" class="st5" d="M222.9,260.8c-0.3,0.1-0.7,0.3-1,0.4c-5.5,2.3-9.7,6.9-14.8,10l-0.9,0.5l0,0l-0.4,0.2
							c-0.7,0.3-1.4,0.6-2.1,0.8l-0.7,0.2l-0.7,0.1c-0.7,0.1-1.5,0.1-2.2,0h-0.4l-1-0.1c-0.8-0.1-1.6-0.2-2.3-0.3
							c-1.5-0.3-3.1-0.5-4.6-1c-0.9-0.2-1.7-0.5-2.6-0.8l-0.5-0.2h-0.1l-1.2-0.5c-0.7-0.3-1.4-0.7-2.1-1.1l-0.1,0l-0.3-0.2l-0.1,0
							l-0.6-0.5c0.1-0.9,0.1-1.9,0-2.8v-0.6l0.9-0.6c6.1-4,12.5-8.4,16.5-14.7c6.2,4,12.9,7.2,19.8,9.5l1.1,0.4
							C222.8,259.9,222.8,260.4,222.9,260.8z"/>
						<path id="Path_4416-2" class="st6" d="M201.4,315.3c-1.4,2.5-2.6,5.1-3.8,7.8c-2.7,6-5.2,12.1-9,17.5
							c-5.9,8.5-13.9,11.5-23.4,9.5c-7.6-1.5-12.4-7.4-13.5-16.1c-0.7-6.6,0.5-13.3,3.5-19.2c3.6-7.4,8.4-13.9,13.2-20.4
							c4.4-6,9-11.8,13.2-18c0.2-0.3,0.4-0.7,0.6-1c0.3,0.2,0.6,0.4,0.9,0.5c1.7,0.9,3.5,1.7,5.4,2.3c2.1,0.7,4.2,1.2,6.4,1.5
							c1.7,0.9,3.4,1.8,4.2,3.7c0.3,0.9,0.6,1.8,0.8,2.7c0.3,9.1,0.3,18.2,1.3,27.2C201.2,314,201.3,314.6,201.4,315.3z"/>
						<path id="Path_4417-2" class="st0" d="M224,293.9c-1.6,1.4-3.3,2.6-5.1,3.7c-4,2.6-8,5.2-11.3,8.8c-0.1,0.1-0.1,0.2-0.2,0.2
							l-0.1-1.4c-0.4-7-0.4-14.1-0.7-21.2c0.5-2,1.4-4,2.6-5.7c2.7-1.5,5.2-3.3,7.6-5.3c1.5-1.2,3-2.3,4.5-3.3l1.2-0.8l0.5-0.3h0.1
							l0,0h0.1c0.3-0.1,0.6-0.3,0.9-0.4c0.6,3.6,1.4,7.2,2.4,10.7c0.5,1.9,0.8,3.9,1,5.9C227.8,288.3,226.5,291.7,224,293.9z"/>
						<path id="Path_4418-2" class="st7" d="M151.5,330.4c1.4,2,3.5,3.4,5.9,3.9c2.3,0.4,4.7,0.4,7.1,0.2"/>
						<path id="Path_4419-2" class="st8" d="M188.4,212.6c-0.2,1.7-0.1,3.4,0.4,5"/>
						<path id="Path_4420-2" class="st8" d="M192.1,211.3l0.2,4c0,0.5,0.1,1,0.2,1.4"/>
						<path id="Path_4421-2" class="st8" d="M199.2,210.6c0.2,1.3,0.3,2.7,0.3,4"/>
						<path id="Path_4422-2" class="st8" d="M195.4,211l0.2,3.1"/>
						<path id="Path_4423-2" class="st8" d="M203.8,210.5v3.9"/>
						<path id="Path_4424-2" class="st8" d="M209.5,210.5c-0.2,1.3-0.5,2.6-0.9,3.9"/>
						<path id="Path_4425-2" class="st8" d="M214.1,211.5c-0.3,1.4-0.6,2.9-0.9,4.3"/>
					</g>
					<g id="Group_2-3">
						<path id="Path_4412-3" class="st0" d="M262.6,51.7l-0.2,0.3l-0.3,0.4c-0.2,0.3-0.4,0.5-0.6,0.8c-0.7,0.9-1.4,1.8-2.2,2.6
							c-0.4,0.4-0.8,0.8-1.3,1.3l-0.1,0.1l0,0l-0.7,0.7c-2.1,1.8-4.2,3.5-6.5,5l-1,0.7c-0.5-7.5-1-15-1.5-22.6l1.1,0.9
							c2.1,1.7,4.2,3.3,6.3,4.8c2.1,1.5,4.3,3,6.5,4.3l0.3,0.1C262.5,51.2,262.6,51.4,262.6,51.7z"/>
						<path id="Path_4413-3" class="st4" d="M287.4,28.3l-1.1,0.7l-1,0.7c-2.5,1.7-5,3.3-7.4,5.2c-1.6,1.3-3.1,2.8-4.6,4.3l-1.1,1
							l-0.5,0.4l-0.2,0.2c-0.9,0.8-1.8,1.6-2.7,2.3c-0.6,0.5-1.2,0.9-1.9,1.3c0.2-0.1-0.4,0.1-0.6,0.3h-0.1l-0.2-0.1
							c-0.3-0.2-0.6-0.3-0.9-0.5c-0.5-0.3-1-0.6-1.5-1c-1-0.7-2.1-1.3-3.1-2c-4.1-2.8-8-6-11.6-9.5c-0.4-0.4-0.8-0.8-1.2-1.2
							c-0.1-1.9-0.2-3.7-0.3-5.6c-0.1-1.3,0.5-2.6,1.5-3.4c1.4-1.1,2.9-1.9,4.6-2.3c9.6-2.6,19.3-3.2,28-1.5
							c5.5,1.4,5.7,1.7,5.8,6.5C287.4,25.6,287.4,27,287.4,28.3z"/>
						<path id="Path_4414-3" class="st0" d="M288,58.4L287,58l-0.4-0.2l-0.5-0.2l-0.6-0.3c-0.5-0.2-1.1-0.4-1.6-0.7
							c-1.1-0.5-2.2-1-3.3-1.5c-3.1-1.5-6.1-3.2-9-5.1c3.3-2.1,6.1-5.2,9-8l0.7-0.6c0.3-0.3,0.6-0.5,1-0.8c1.3-1,2.6-1.8,3.9-2.7
							l0.5-0.3l1.1-0.7c0,5,0,10.1,0.2,15.1C287.8,54.2,287.9,56.3,288,58.4z"/>
						<path id="Path_4415-3" class="st5" d="M288.9,67.7c-0.3,0.1-0.7,0.3-1,0.4c-5.5,2.3-9.7,6.9-14.8,10c-0.3,0.2-0.6,0.3-0.9,0.5
							l0,0l-0.4,0.2c-0.7,0.3-1.4,0.6-2.1,0.8l-0.7,0.2l-0.7,0.1c-0.7,0.1-1.5,0.1-2.2,0h-0.4l-1-0.1c-0.8-0.1-1.5-0.2-2.3-0.3
							c-1.5-0.2-3.1-0.6-4.6-0.9c-0.9-0.2-1.7-0.5-2.6-0.8l-0.5-0.2h-0.1c-0.4-0.2-0.8-0.3-1.2-0.5c-0.7-0.3-1.4-0.7-2-1.1h-0.1
							c-0.1-0.1-0.2-0.1-0.3-0.2h-0.1l-0.6-0.5c0.1-0.9,0.1-1.9,0-2.8v-0.6l0.9-0.6c6.1-4,12.5-8.4,16.5-14.7
							c6.2,4,12.9,7.2,19.8,9.5l1.1,0.4C288.8,66.7,288.9,67.2,288.9,67.7z"/>
						<path id="Path_4416-3" class="st6" d="M267.4,122.1c-1.4,2.5-2.6,5.2-3.8,7.8c-2.7,6-5.2,12.1-9,17.6
							c-5.9,8.5-13.9,11.5-23.4,9.5c-7.6-1.6-12.4-7.4-13.5-16.1c-0.7-6.6,0.5-13.3,3.5-19.2c3.6-7.4,8.4-13.8,13.2-20.3
							c4.4-6,9-11.8,13.2-18c0.2-0.3,0.4-0.6,0.6-1c0.3,0.2,0.6,0.4,0.9,0.5c1.7,0.9,3.5,1.7,5.4,2.3c2.1,0.7,4.2,1.2,6.4,1.5
							c1.7,0.9,3.4,1.8,4.2,3.7c0.3,0.9,0.6,1.8,0.8,2.7c0.3,9.1,0.3,18.2,1.3,27.2C267.3,120.9,267.4,121.5,267.4,122.1z"/>
						<path id="Path_4417-3" class="st0" d="M290,100.8c-1.6,1.4-3.3,2.6-5.1,3.7c-4,2.6-8,5.2-11.3,8.8l-0.2,0.2l-0.1-1.4
							c-0.4-7.1-0.4-14.2-0.7-21.2c0.5-2,1.4-4,2.6-5.7c2.7-1.5,5.2-3.3,7.6-5.3c1.5-1.2,3-2.3,4.5-3.3c0.4-0.3,0.8-0.5,1.2-0.8
							l0.5-0.3h0.1l0,0h0.1l0.9-0.4c0.6,3.6,1.4,7.2,2.4,10.7c0.5,1.9,0.8,3.9,1,5.9C293.8,95.2,292.6,98.5,290,100.8z"/>
						<path id="Path_4418-3" class="st7" d="M217.5,137.2c1.4,2,3.5,3.4,5.9,3.9c2.3,0.4,4.7,0.4,7.1,0.2"/>
						<path id="Path_4419-3" class="st8" d="M254.4,19.4c-0.2,1.7-0.1,3.4,0.4,5"/>
						<path id="Path_4420-3" class="st8" d="M258.1,18.1l0.2,4c0,0.5,0.1,1,0.2,1.4"/>
						<path id="Path_4421-3" class="st8" d="M265.2,17.4c0.2,1.3,0.3,2.6,0.3,4"/>
						<path id="Path_4422-3" class="st8" d="M261.5,17.9l0.2,3.1"/>
						<path id="Path_4423-3" class="st8" d="M269.9,17.3v3.9"/>
						<path id="Path_4424-3" class="st8" d="M275.5,17.3c-0.2,1.3-0.5,2.6-0.9,3.9"/>
						<path id="Path_4425-3" class="st8" d="M280.1,18.3c-0.3,1.4-0.6,2.8-0.9,4.3"/>
					</g>
					<g id="Group_2-4">
						<path id="Path_4412-4" class="st0" d="M385.6,155l-0.2,0.3l-0.3,0.4l-0.6,0.8c-0.7,0.9-1.4,1.8-2.2,2.6
							c-0.4,0.4-0.8,0.9-1.3,1.3l-0.1,0.1l0,0l-0.7,0.7c-2.1,1.8-4.2,3.5-6.5,5l-1,0.6c-0.5-7.5-1-15-1.5-22.6l1.1,0.9
							c2,1.7,4.2,3.3,6.3,4.8c2.1,1.5,4.3,3,6.5,4.3c0.1,0.1,0.2,0.1,0.3,0.1C385.6,154.5,385.6,154.8,385.6,155z"/>
						<path id="Path_4413-4" class="st4" d="M410.5,131.7l-1.1,0.7l-1,0.7c-2.5,1.7-5,3.3-7.4,5.2c-1.6,1.3-3.1,2.9-4.6,4.3l-1.1,1
							l-0.5,0.4l-0.2,0.2c-0.9,0.8-1.8,1.6-2.7,2.3c-0.6,0.5-1.2,0.9-1.9,1.3c0.2-0.1-0.3,0.1-0.6,0.3h-0.1l-0.2-0.1
							c-0.3-0.2-0.6-0.3-0.9-0.5c-0.5-0.3-1-0.6-1.5-1c-1-0.7-2.1-1.3-3.1-2c-4.1-2.8-8-6-11.6-9.5c-0.4-0.4-0.8-0.8-1.2-1.2
							c-0.1-1.9-0.2-3.7-0.3-5.6c-0.1-1.3,0.5-2.6,1.5-3.4c1.4-1.1,2.9-1.9,4.6-2.3c9.6-2.6,19.3-3.2,28-1.5
							c5.5,1.4,5.7,1.7,5.8,6.5C410.4,129,410.5,130.3,410.5,131.7z"/>
						<path id="Path_4414-4" class="st0" d="M411,161.8l-1-0.4l-0.4-0.1l-0.5-0.2l-0.6-0.3l-1.6-0.7c-1.1-0.5-2.2-1-3.3-1.5
							c-3.1-1.5-6.1-3.2-9-5.1c3.3-2.1,6.1-5.2,9-8l0.6-0.6c0.3-0.3,0.6-0.6,1-0.8c1.3-1,2.6-1.8,3.9-2.7l0.5-0.3l1.1-0.7
							c0,5,0,10.1,0.2,15.1C410.8,157.6,410.9,159.7,411,161.8z"/>
						<path id="Path_4415-4" class="st5" d="M412,171l-1,0.4c-5.5,2.3-9.7,6.9-14.8,10c-0.3,0.2-0.6,0.4-0.9,0.5l0,0
							c-0.1,0.1-0.2,0.1-0.4,0.2c-0.7,0.3-1.4,0.6-2.1,0.9l-0.7,0.2l-0.7,0.1c-0.7,0.1-1.5,0.1-2.2,0h-0.4l-1-0.1
							c-0.8-0.1-1.5-0.2-2.3-0.3c-1.5-0.2-3-0.6-4.6-0.9c-0.9-0.2-1.7-0.5-2.5-0.8l-0.5-0.2h-0.1c-0.4-0.2-0.8-0.4-1.2-0.5
							c-0.7-0.3-1.4-0.7-2-1.1l-0.1-0.1l-0.3-0.2l0,0l-0.5-0.5c0.1-0.9,0.1-1.9,0-2.8c0-0.2,0-0.4,0-0.6l0.9-0.6
							c6.1-4,12.5-8.4,16.5-14.7c6.2,4,12.9,7.2,19.8,9.5l1.1,0.4C411.9,170.1,411.9,170.5,412,171z"/>
						<path id="Path_4416-4" class="st6" d="M390.4,225.4c-1.4,2.5-2.6,5.1-3.8,7.8c-2.7,6-5.2,12.1-9,17.5
							c-5.9,8.5-13.9,11.5-23.4,9.5c-7.6-1.5-12.4-7.4-13.5-16.1c-0.7-6.6,0.5-13.3,3.6-19.2c3.6-7.4,8.4-13.9,13.2-20.4
							c4.4-6,9-11.8,13.2-18c0.2-0.3,0.4-0.6,0.6-1c0.3,0.2,0.6,0.4,0.9,0.5c1.7,0.9,3.5,1.7,5.4,2.3c2.1,0.7,4.2,1.2,6.4,1.5
							c1.7,0.9,3.4,1.8,4.2,3.7c0.3,0.9,0.6,1.8,0.8,2.7c0.3,9.1,0.3,18.2,1.3,27.2C390.3,224.2,390.4,224.8,390.4,225.4z"/>
						<path id="Path_4417-4" class="st0" d="M413,204.1c-1.6,1.4-3.3,2.6-5.1,3.7c-4,2.6-8,5.2-11.3,8.8l-0.2,0.2l-0.1-1.4
							c-0.4-7.1-0.4-14.1-0.7-21.2c0.5-2,1.4-4,2.6-5.7c2.7-1.5,5.2-3.3,7.6-5.3c1.5-1.2,3-2.3,4.5-3.3l1.2-0.8l0.5-0.3h0.1l0,0h0.1
							l0.9-0.4c0.7,3.6,1.5,7.2,2.4,10.7c0.5,1.9,0.9,3.9,1,5.9C416.9,198.5,415.6,201.9,413,204.1z"/>
						<path id="Path_4418-4" class="st7" d="M340.5,240.6c1.4,2,3.5,3.4,5.9,3.9c2.3,0.4,4.7,0.4,7.1,0.2"/>
						<path id="Path_4419-4" class="st8" d="M377.4,122.7c-0.2,1.7-0.1,3.4,0.4,5"/>
						<path id="Path_4420-4" class="st8" d="M381.2,121.4l0.2,4c0,0.5,0.1,1,0.2,1.4"/>
						<path id="Path_4421-4" class="st8" d="M388.2,120.8c0.2,1.3,0.3,2.7,0.3,4"/>
						<path id="Path_4422-4" class="st8" d="M384.5,121.2l0.2,3.1"/>
						<path id="Path_4423-4" class="st8" d="M392.9,120.7v3.9"/>
						<path id="Path_4424-4" class="st8" d="M398.5,120.7c-0.2,1.3-0.5,2.6-0.9,3.9"/>
						<path id="Path_4425-4" class="st8" d="M403.1,121.7c-0.3,1.4-0.6,2.8-0.9,4.3"/>
					</g>
					<g id="Group_2-5">
						<path id="Path_4412-5" class="st0" d="M297.9,347.1l-0.2,0.3c-0.1,0.1-0.3,0.4-0.3,0.4c-0.2,0.3-0.4,0.5-0.6,0.8
							c-0.7,0.9-1.4,1.8-2.2,2.6c-0.4,0.4-0.8,0.9-1.3,1.3l-0.1,0.1l0,0c-0.2,0.2-0.5,0.4-0.7,0.7c-2.1,1.8-4.2,3.5-6.5,5l-1,0.6
							c-0.5-7.5-1-15-1.5-22.6l1.1,0.9c2,1.7,4.2,3.2,6.3,4.8c2.1,1.5,4.3,2.9,6.5,4.3l0.3,0.1C297.8,346.6,297.9,346.8,297.9,347.1
							z"/>
						<path id="Path_4413-5" class="st4" d="M322.7,323.8l-1.1,0.8l-1,0.7c-2.5,1.7-5,3.3-7.4,5.2c-1.6,1.3-3.1,2.8-4.6,4.3l-1.1,1
							l-0.5,0.4l-0.2,0.2c-0.9,0.8-1.8,1.6-2.7,2.3c-0.6,0.5-1.2,0.9-1.9,1.3c0.2-0.1-0.3,0.1-0.6,0.3h-0.1l-0.2-0.1l-0.9-0.5
							c-0.5-0.3-1-0.6-1.5-0.9c-1-0.7-2.1-1.3-3.1-2c-4.1-2.8-8-6-11.6-9.5c-0.4-0.4-0.8-0.8-1.2-1.2c-0.1-1.9-0.2-3.7-0.3-5.6
							c-0.1-1.3,0.5-2.6,1.5-3.4c1.4-1.1,2.9-1.9,4.6-2.3c9.6-2.6,19.3-3.2,28-1.5c5.5,1.4,5.7,1.7,5.8,6.5
							C322.7,321,322.7,322.4,322.7,323.8z"/>
						<path id="Path_4414-5" class="st0" d="M323.3,353.8l-1-0.4l-0.4-0.1l-0.5-0.2l-0.6-0.3c-0.5-0.2-1.1-0.4-1.6-0.7
							c-1.1-0.5-2.2-1-3.3-1.5c-3.1-1.5-6.1-3.2-9-5.1c3.3-2.1,6.1-5.2,9-8l0.6-0.6c0.3-0.3,0.6-0.5,1-0.8c1.3-1,2.6-1.8,3.9-2.7
							l0.5-0.3l1.1-0.7c0,5,0,10.1,0.2,15.1C323.1,349.6,323.2,351.8,323.3,353.8z"/>
						<path id="Path_4415-5" class="st5" d="M324.2,363.1c-0.4,0.1-0.7,0.3-1,0.4c-5.5,2.3-9.7,6.9-14.8,10l-0.9,0.5l0,0l-0.4,0.2
							c-0.7,0.3-1.4,0.6-2.1,0.8l-0.7,0.2l-0.7,0.1c-0.7,0.1-1.5,0.1-2.2,0h-0.4l-1-0.1c-0.8-0.1-1.5-0.2-2.3-0.3
							c-1.5-0.2-3-0.5-4.6-0.9c-0.9-0.2-1.7-0.5-2.5-0.8l-0.5-0.2h-0.1c-0.4-0.2-0.8-0.4-1.2-0.5c-0.7-0.3-1.4-0.7-2-1.1l-0.1-0.1
							l-0.3-0.2h0l-0.5-0.5c0.1-0.9,0.1-1.9,0-2.8c0-0.2,0-0.4,0-0.6l0.9-0.6c6.1-4,12.5-8.4,16.5-14.7c6.2,4,12.9,7.2,19.8,9.5
							l1.1,0.4C324.1,362.1,324.2,362.6,324.2,363.1z"/>
						<path id="Path_4416-5" class="st6" d="M302.7,417.5c-1.4,2.5-2.6,5.1-3.8,7.8c-2.7,6-5.2,12.1-9,17.5
							c-5.9,8.5-13.9,11.5-23.4,9.5c-7.6-1.5-12.4-7.4-13.5-16.1c-0.8-6.6,0.5-13.3,3.5-19.2c3.6-7.4,8.4-13.9,13.2-20.4
							c4.4-6,9-11.8,13.2-18c0.2-0.3,0.4-0.6,0.6-1l0.9,0.5c1.7,0.9,3.5,1.7,5.4,2.3c2.1,0.7,4.2,1.2,6.4,1.5
							c1.7,0.9,3.4,1.8,4.2,3.7c0.3,0.9,0.6,1.8,0.8,2.7c0.3,9.1,0.3,18.2,1.3,27.2C302.5,416.3,302.6,416.9,302.7,417.5z"/>
						<path id="Path_4417-5" class="st0" d="M325.3,396.2c-1.6,1.4-3.3,2.6-5.1,3.7c-4,2.6-8,5.2-11.3,8.8l-0.2,0.2l-0.1-1.4
							c-0.4-7-0.4-14.1-0.7-21.2c0.5-2,1.4-4,2.6-5.7c2.7-1.5,5.2-3.3,7.6-5.3c1.5-1.2,3-2.3,4.5-3.3l1.2-0.8l0.5-0.3h0.1l0,0h0.1
							c0.3-0.1,0.6-0.3,0.9-0.4c0.6,3.6,1.4,7.2,2.4,10.7c0.5,1.9,0.9,3.9,1,5.9C329.2,390.6,327.9,393.9,325.3,396.2z"/>
						<path id="Path_4418-5" class="st7" d="M252.8,432.6c1.4,2,3.5,3.4,5.9,3.9c2.3,0.4,4.7,0.4,7.1,0.2"/>
						<path id="Path_4419-5" class="st8" d="M289.7,314.8c-0.2,1.7-0.1,3.4,0.4,5"/>
						<path id="Path_4420-5" class="st8" d="M293.4,313.5l0.2,4c0,0.5,0.1,1,0.2,1.4"/>
						<path id="Path_4421-5" class="st8" d="M300.5,312.8c0.2,1.3,0.3,2.6,0.3,4"/>
						<path id="Path_4422-5" class="st8" d="M296.8,313.3l0.2,3.1"/>
						<path id="Path_4423-5" class="st8" d="M305.2,312.8v3.9"/>
						<path id="Path_4424-5" class="st8" d="M310.8,312.8c-0.2,1.3-0.5,2.6-0.9,3.9"/>
						<path id="Path_4425-5" class="st8" d="M315.4,313.7c-0.3,1.4-0.6,2.9-0.9,4.3"/>
					</g>
					<g id="Group_2-6">
						<path id="Path_4412-6" class="st0" d="M483.5,254.6c0,0.1-0.1,0.2-0.2,0.3s-0.3,0.4-0.3,0.4c-0.2,0.3-0.4,0.5-0.5,0.8
							c-0.7,0.9-1.4,1.8-2.2,2.6c-0.4,0.4-0.8,0.9-1.3,1.3l-0.1,0.1l0,0l-0.7,0.6c-2.1,1.8-4.2,3.5-6.5,5l-1,0.6
							c-0.5-7.5-1-15-1.5-22.6l1.1,0.9c2.1,1.7,4.2,3.2,6.3,4.8c2.1,1.5,4.3,2.9,6.5,4.3l0.3,0.1
							C483.4,254.1,483.4,254.3,483.5,254.6z"/>
						<path id="Path_4413-6" class="st4" d="M508.3,231.2l-1.1,0.8l-1,0.7c-2.5,1.7-5,3.3-7.4,5.2c-1.6,1.3-3.1,2.8-4.6,4.3
							c-0.4,0.4-0.7,0.7-1.1,1.1l-0.5,0.4l-0.2,0.2c-0.9,0.8-1.8,1.6-2.7,2.3c-0.6,0.5-1.2,0.9-1.9,1.3c0.2-0.1-0.4,0.1-0.6,0.3
							h-0.1l-0.2-0.1c-0.3-0.2-0.6-0.3-0.9-0.5c-0.5-0.3-1-0.6-1.5-0.9c-1-0.7-2.1-1.3-3.1-2c-4.1-2.8-8-6-11.6-9.5
							c-0.4-0.4-0.8-0.8-1.2-1.2c-0.1-1.9-0.1-3.7-0.3-5.6c-0.1-1.3,0.5-2.6,1.5-3.4c1.4-1.1,2.9-1.9,4.6-2.3
							c9.6-2.6,19.3-3.2,28-1.5c5.5,1.4,5.7,1.7,5.8,6.5C508.3,228.5,508.3,229.9,508.3,231.2z"/>
						<path id="Path_4414-6" class="st0" d="M508.9,261.3l-1.1-0.4l-0.4-0.1l-0.5-0.2l-0.6-0.3c-0.5-0.2-1.1-0.4-1.6-0.7
							c-1.1-0.5-2.2-1-3.3-1.5c-3.1-1.5-6.1-3.2-9-5.1c3.3-2.1,6.1-5.2,9-7.9l0.6-0.6c0.3-0.3,0.6-0.5,1-0.8c1.3-1,2.6-1.8,3.9-2.7
							l0.5-0.3l1.1-0.7c0,5,0,10.1,0.2,15.1C508.6,257.1,508.7,259.2,508.9,261.3z"/>
						<path id="Path_4415-6" class="st5" d="M509.8,270.5c-0.3,0.1-0.7,0.3-1,0.4c-5.5,2.3-9.7,6.9-14.8,10
							c-0.3,0.2-0.6,0.4-0.9,0.5l0,0l-0.4,0.2c-0.7,0.3-1.4,0.6-2.1,0.8l-0.7,0.2l-0.7,0.1c-0.7,0.1-1.5,0.1-2.2,0h-0.4l-1-0.1
							c-0.8-0.1-1.5-0.2-2.3-0.3c-1.5-0.2-3.1-0.5-4.6-0.9c-0.9-0.2-1.7-0.5-2.6-0.8l-0.5-0.2c0,0,0,0-0.1,0
							c-0.4-0.2-0.8-0.4-1.2-0.5c-0.7-0.3-1.4-0.7-2.1-1.1l-0.1-0.1l-0.3-0.2v0l-0.5-0.5c0.1-0.9,0.1-1.9,0-2.8c0-0.2,0-0.4,0-0.6
							l0.9-0.6c6.1-4,12.5-8.4,16.5-14.7c6.2,4,12.9,7.2,19.8,9.5l1.1,0.4C509.7,269.6,509.7,270.1,509.8,270.5z"/>
						<path id="Path_4416-6" class="st6" d="M488.3,325c-1.4,2.5-2.6,5.1-3.8,7.8c-2.7,6-5.3,12.1-9,17.5
							c-5.9,8.5-13.8,11.5-23.4,9.5c-7.6-1.5-12.4-7.4-13.5-16.1c-0.8-6.6,0.5-13.3,3.5-19.2c3.6-7.4,8.4-13.9,13.2-20.4
							c4.4-6,9-11.8,13.2-18c0.2-0.3,0.4-0.7,0.6-1c0.3,0.2,0.6,0.4,0.9,0.5c1.7,0.9,3.5,1.7,5.4,2.3c2.1,0.7,4.2,1.2,6.4,1.5
							c1.7,0.9,3.4,1.8,4.2,3.7c0.3,0.9,0.6,1.8,0.8,2.7c0.3,9.1,0.3,18.2,1.3,27.2C488.1,323.8,488.2,324.4,488.3,325z"/>
						<path id="Path_4417-6" class="st0" d="M510.9,303.6c-1.6,1.4-3.3,2.6-5.1,3.7c-4,2.6-8,5.2-11.3,8.8l-0.2,0.2
							c0-0.5-0.1-1-0.1-1.4c-0.4-7-0.4-14.1-0.7-21.2c0.5-2,1.4-4,2.6-5.7c2.7-1.5,5.2-3.3,7.6-5.3c1.5-1.2,3-2.3,4.5-3.3
							c0.4-0.3,0.8-0.5,1.2-0.8l0.5-0.3h0.1l0,0h0.1c0.3-0.1,0.6-0.3,0.9-0.4c0.6,3.6,1.4,7.2,2.4,10.7c0.5,1.9,0.9,3.9,1,5.9
							C514.7,298,513.4,301.4,510.9,303.6z"/>
						<path id="Path_4418-6" class="st7" d="M438.4,340.1c1.4,2,3.5,3.4,5.9,3.9c2.3,0.4,4.7,0.4,7.1,0.2"/>
						<path id="Path_4419-6" class="st8" d="M475.3,222.3c-0.2,1.7-0.1,3.4,0.4,5"/>
						<path id="Path_4420-6" class="st8" d="M479,221l0.2,4c0,0.5,0.1,1,0.2,1.4"/>
						<path id="Path_4421-6" class="st8" d="M486.1,220.3c0.2,1.3,0.3,2.6,0.3,3.9"/>
						<path id="Path_4422-6" class="st8" d="M482.3,220.8l0.2,3.1"/>
						<path id="Path_4423-6" class="st8" d="M490.7,220.2v3.9"/>
						<path id="Path_4424-6" class="st8" d="M496.4,220.2c-0.2,1.3-0.5,2.6-0.9,3.9"/>
						<path id="Path_4425-6" class="st8" d="M500.9,221.2c-0.3,1.4-0.6,2.9-0.9,4.3"/>
					</g>
					<g id="Group_2-7">
						<path id="Path_4412-7" class="st0" d="M534.9,50c0,0.1-0.1,0.2-0.2,0.3l-0.3,0.4c-0.2,0.3-0.4,0.5-0.5,0.8
							c-0.7,0.9-1.4,1.8-2.2,2.6c-0.4,0.4-0.8,0.9-1.3,1.3l-0.1,0.1l0,0l-0.7,0.7c-2.1,1.8-4.2,3.5-6.5,5l-1,0.7
							c-0.5-7.5-1-15-1.5-22.6l1.1,0.9c2,1.7,4.2,3.3,6.3,4.8c2.1,1.5,4.3,3,6.5,4.3l0.3,0.2C534.8,49.5,534.8,49.8,534.9,50z"/>
						<path id="Path_4413-7" class="st4" d="M559.7,26.7l-1.1,0.8l-1,0.7c-2.5,1.7-5,3.3-7.4,5.2c-1.6,1.3-3.1,2.8-4.7,4.3l-1.1,1
							l-0.5,0.4l-0.2,0.2c-0.9,0.8-1.8,1.6-2.7,2.3c-0.6,0.5-1.2,0.9-1.9,1.3c0.2-0.1-0.3,0.1-0.6,0.3h-0.1l-0.2-0.1l-0.9-0.5
							c-0.5-0.3-1-0.6-1.5-1c-1-0.7-2.1-1.3-3.1-2c-4.1-2.8-8-6-11.6-9.5c-0.4-0.4-0.8-0.8-1.2-1.2c-0.1-1.9-0.2-3.7-0.3-5.6
							c-0.1-1.3,0.5-2.6,1.5-3.4c1.4-1.1,2.9-1.9,4.6-2.3c9.6-2.6,19.3-3.2,28-1.5c5.5,1.4,5.7,1.7,5.8,6.5
							C559.7,24,559.7,25.4,559.7,26.7z"/>
						<path id="Path_4414-7" class="st0" d="M560.3,56.8l-1.1-0.4l-0.4-0.2l-0.5-0.2l-0.6-0.2l-1.6-0.7c-1.1-0.5-2.2-1-3.3-1.5
							c-3.1-1.5-6.1-3.2-9-5.1c3.3-2.1,6.1-5.2,9-8l0.7-0.6c0.3-0.3,0.6-0.5,1-0.8c1.3-1,2.6-1.8,3.9-2.7l0.5-0.3l1.1-0.7
							c0,5,0,10.1,0.2,15.1C560,52.6,560.1,54.7,560.3,56.8z"/>
						<path id="Path_4415-7" class="st5" d="M561.2,66c-0.3,0.1-0.7,0.3-1,0.4c-5.5,2.3-9.7,6.9-14.8,10l-0.9,0.5l0,0l-0.4,0.2
							c-0.7,0.3-1.4,0.6-2.2,0.8c-0.1,0-0.5,0.1-0.7,0.2l-0.7,0.1c-0.7,0.1-1.5,0.1-2.2,0h-0.4l-1-0.1c-0.8-0.1-1.5-0.2-2.3-0.3
							c-1.5-0.3-3-0.6-4.6-1c-0.8-0.2-1.7-0.5-2.5-0.8l-0.5-0.2H527c-0.4-0.2-0.8-0.3-1.2-0.6c-0.7-0.3-1.4-0.7-2.1-1.1l-0.1-0.1
							l-0.3-0.1h0l-0.5-0.5c0.1-0.9,0.1-1.9,0-2.8c0-0.2,0-0.4,0-0.6l0.9-0.6c6.1-4,12.5-8.4,16.5-14.7c6.2,4,12.9,7.2,19.8,9.5
							c0.4,0.1,0.7,0.3,1.1,0.4C561.1,65.1,561.2,65.6,561.2,66z"/>
						<path id="Path_4416-7" class="st6" d="M539.7,120.5c-1.4,2.5-2.6,5.2-3.8,7.8c-2.7,6.1-5.3,12.1-9,17.5
							c-5.9,8.5-13.8,11.5-23.4,9.5c-7.6-1.5-12.4-7.4-13.5-16.1c-0.8-6.6,0.5-13.3,3.5-19.2c3.6-7.4,8.4-13.8,13.2-20.3
							c4.4-6,9-11.8,13.2-18c0.2-0.3,0.4-0.6,0.6-1l0.9,0.5c1.7,0.9,3.5,1.7,5.4,2.3c2.1,0.7,4.2,1.2,6.4,1.6
							c1.7,0.9,3.4,1.8,4.2,3.7c0.3,0.9,0.6,1.8,0.8,2.7c0.3,9.1,0.3,18.2,1.3,27.2C539.5,119.3,539.6,119.9,539.7,120.5z"/>
						<path id="Path_4417-7" class="st0" d="M562.3,99.1c-1.6,1.4-3.3,2.6-5.1,3.7c-4,2.6-8,5.2-11.3,8.8c-0.1,0.1-0.1,0.2-0.2,0.2
							l-0.1-1.4c-0.4-7-0.4-14.1-0.7-21.2c0.5-2,1.4-4,2.6-5.7c2.7-1.5,5.2-3.3,7.6-5.3c1.5-1.2,3-2.3,4.5-3.3
							c0.4-0.3,0.8-0.5,1.2-0.8l0.5-0.3h0l0,0h0.1c0.3-0.2,0.6-0.3,0.9-0.4c0.7,3.6,1.5,7.2,2.4,10.8c0.5,1.9,0.8,3.9,1,5.9
							C566.1,93.5,564.8,96.9,562.3,99.1z"/>
						<path id="Path_4418-7" class="st7" d="M489.8,135.6c1.4,2,3.5,3.4,5.9,3.9c2.3,0.4,4.7,0.4,7.1,0.1"/>
						<path id="Path_4419-7" class="st8" d="M526.7,17.8c-0.2,1.7-0.1,3.4,0.3,5"/>
						<path id="Path_4420-7" class="st8" d="M530.4,16.5l0.2,4c0,0.5,0.1,1,0.2,1.4"/>
						<path id="Path_4421-7" class="st8" d="M537.5,15.8c0.2,1.3,0.3,2.6,0.3,3.9"/>
						<path id="Path_4422-7" class="st8" d="M533.7,16.3l0.2,3.1"/>
						<path id="Path_4423-7" class="st8" d="M542.2,15.7v3.9"/>
						<path id="Path_4424-7" class="st8" d="M547.8,15.7c-0.2,1.3-0.5,2.6-0.9,3.9"/>
						<path id="Path_4425-7" class="st8" d="M552.4,16.7c-0.2,1.4-0.6,2.8-0.9,4.3"/>
					</g>
					<g id="Group_2-8">
						<path id="Path_4412-8" class="st0" d="M636.2,162.6l-0.2,0.3c-0.1,0.1-0.3,0.4-0.3,0.4c-0.2,0.3-0.4,0.5-0.5,0.8
							c-0.7,0.9-1.4,1.8-2.2,2.6c-0.4,0.4-0.8,0.9-1.3,1.3l-0.1,0.1l0,0c-0.2,0.2-0.5,0.4-0.7,0.6c-2.1,1.8-4.2,3.5-6.5,5l-1,0.7
							c-0.5-7.5-1-15-1.5-22.6l1.1,0.9c2.1,1.7,4.2,3.2,6.3,4.8c2.1,1.5,4.3,2.9,6.5,4.3l0.3,0.1
							C636.2,162.1,636.2,162.3,636.2,162.6z"/>
						<path id="Path_4413-8" class="st4" d="M661,139.3L660,140l-1,0.7c-2.5,1.7-5,3.3-7.4,5.2c-1.6,1.3-3.1,2.8-4.7,4.3
							c-0.4,0.4-0.7,0.7-1.1,1l-0.5,0.4l-0.2,0.2c-0.9,0.8-1.8,1.6-2.7,2.3c-0.6,0.5-1.2,0.9-1.9,1.3c0.2-0.1-0.3,0.1-0.7,0.3h-0.1
							l-0.2-0.1l-0.9-0.5c-0.5-0.3-1-0.6-1.5-0.9c-1-0.7-2.1-1.3-3.1-2c-4.1-2.8-8-6-11.6-9.5c-0.4-0.4-0.8-0.8-1.2-1.2
							c-0.1-1.9-0.2-3.7-0.3-5.6c-0.1-1.3,0.5-2.6,1.5-3.4c1.4-1.1,2.9-1.9,4.6-2.3c9.6-2.6,19.3-3.2,28-1.5
							c5.5,1.4,5.7,1.7,5.8,6.5C661,136.5,661,137.9,661,139.3z"/>
						<path id="Path_4414-8" class="st0" d="M661.6,169.3l-1.1-0.3c-0.1-0.1-0.3-0.1-0.4-0.1l-0.5-0.2l-0.6-0.3
							c-0.5-0.2-1.1-0.4-1.6-0.7c-1.1-0.5-2.2-1-3.3-1.5c-3.1-1.5-6.1-3.2-9-5.1c3.3-2.1,6.1-5.2,9-8l0.7-0.6c0.3-0.3,0.6-0.5,1-0.8
							c1.3-1,2.6-1.8,3.9-2.7l0.5-0.3l1.1-0.7c0,5,0,10.1,0.2,15.1C661.4,165.2,661.5,167.3,661.6,169.3z"/>
						<path id="Path_4415-8" class="st5" d="M662.5,178.6c-0.3,0.1-0.7,0.3-1,0.4c-5.5,2.3-9.7,6.9-14.8,10l-0.9,0.5l0,0l-0.4,0.2
							c-0.7,0.3-1.4,0.6-2.2,0.8l-0.7,0.2l-0.7,0.1c-0.7,0.1-1.5,0.1-2.2,0h-0.4l-1-0.1c-0.8-0.1-1.5-0.2-2.3-0.3
							c-1.5-0.3-3.1-0.6-4.6-0.9c-0.9-0.2-1.7-0.5-2.5-0.8l-0.5-0.2h-0.1l-1.2-0.6c-0.7-0.3-1.4-0.7-2.1-1.1l-0.1-0.1l-0.3-0.2
							l-0.1-0.1l-0.5-0.5c0.1-0.9,0.1-1.9,0-2.8v-0.6l0.9-0.6c6.1-4,12.5-8.4,16.5-14.7c6.2,4,12.9,7.2,19.8,9.5l1.1,0.4
							C662.4,177.6,662.5,178.1,662.5,178.6z"/>
						<path id="Path_4416-8" class="st6" d="M641,233c-1.4,2.5-2.6,5.1-3.8,7.8c-2.7,6-5.2,12.1-9,17.5c-5.9,8.5-13.9,11.5-23.4,9.5
							c-7.7-1.5-12.4-7.4-13.5-16.1c-0.7-6.6,0.5-13.3,3.5-19.2c3.6-7.4,8.4-13.9,13.2-20.4c4.4-6,9-11.8,13.2-18
							c0.2-0.3,0.4-0.7,0.6-1c0.3,0.2,0.6,0.4,0.9,0.5c1.7,0.9,3.5,1.7,5.4,2.3c2.1,0.7,4.2,1.2,6.4,1.5c1.7,0.9,3.4,1.8,4.2,3.7
							c0.3,0.9,0.6,1.8,0.8,2.7c0.3,9.1,0.3,18.2,1.3,27.2C640.9,231.8,641,232.4,641,233z"/>
						<path id="Path_4417-8" class="st0" d="M663.6,211.7c-1.6,1.4-3.3,2.6-5.1,3.7c-4,2.6-8,5.2-11.3,8.8c-0.1,0.1-0.1,0.2-0.2,0.2
							l-0.1-1.4c-0.4-7-0.4-14.1-0.7-21.2c0.5-2,1.4-4,2.6-5.7c2.7-1.5,5.2-3.3,7.6-5.3c1.5-1.2,3-2.3,4.5-3.3
							c0.4-0.3,0.8-0.5,1.2-0.8l0.5-0.3h0.1l0,0h0.1c0.3-0.1,0.6-0.3,0.9-0.4c0.7,3.6,1.4,7.2,2.4,10.7c0.5,1.9,0.8,3.9,1,5.9
							C667.5,206.1,666.2,209.4,663.6,211.7z"/>
						<path id="Path_4418-8" class="st7" d="M591.1,248.1c1.4,2,3.5,3.4,5.9,3.9c2.3,0.4,4.7,0.4,7.1,0.2"/>
						<path id="Path_4419-8" class="st8" d="M628,130.3c-0.2,1.7-0.1,3.4,0.4,5"/>
						<path id="Path_4420-8" class="st8" d="M631.8,129l0.2,4c0,0.5,0.1,1,0.2,1.4"/>
						<path id="Path_4421-8" class="st8" d="M638.8,128.3c0.2,1.3,0.3,2.6,0.3,3.9"/>
						<path id="Path_4422-8" class="st8" d="M635.1,128.8l0.2,3.1"/>
						<path id="Path_4423-8" class="st8" d="M643.5,128.3v3.9"/>
						<path id="Path_4424-8" class="st8" d="M649.1,128.3c-0.2,1.3-0.5,2.6-0.9,3.9"/>
						<path id="Path_4425-8" class="st8" d="M653.7,129.2c-0.3,1.4-0.6,2.9-0.9,4.3"/>
					</g>
					<g id="Group_2-9">
						<path id="Path_4412-9" class="st0" d="M604.5,348.1l-0.2,0.3l-0.3,0.4l-0.5,0.8c-0.7,0.9-1.4,1.8-2.2,2.6
							c-0.4,0.4-0.8,0.9-1.3,1.3l-0.1,0.1l0,0l-0.7,0.6c-2.1,1.8-4.2,3.5-6.5,5l-1,0.7c-0.5-7.5-1-15-1.5-22.6l1.1,0.9
							c2,1.7,4.2,3.3,6.3,4.8c2.1,1.5,4.3,2.9,6.5,4.3l0.3,0.1C604.4,347.7,604.4,347.9,604.5,348.1z"/>
						<path id="Path_4413-9" class="st4" d="M629.3,324.8l-1.1,0.8l-1,0.7c-2.5,1.7-5,3.3-7.4,5.2c-1.6,1.3-3.1,2.9-4.7,4.3l-1.1,1
							l-0.5,0.4l-0.2,0.2c-0.9,0.8-1.8,1.6-2.7,2.3c-0.6,0.5-1.2,0.9-1.9,1.3c0.2-0.1-0.3,0.1-0.6,0.3H608l-0.2-0.1l-0.9-0.5
							c-0.5-0.3-1-0.6-1.5-1c-1-0.7-2.1-1.3-3.1-2c-4.1-2.8-8-6-11.6-9.5c-0.4-0.4-0.8-0.8-1.2-1.2c-0.1-1.9-0.2-3.7-0.3-5.6
							c-0.1-1.3,0.5-2.6,1.5-3.4c1.4-1.1,2.9-1.9,4.6-2.3c9.6-2.6,19.3-3.2,28-1.5c5.5,1.4,5.7,1.7,5.8,6.5
							C629.3,322.1,629.3,323.5,629.3,324.8z"/>
						<path id="Path_4414-9" class="st0" d="M629.9,354.9l-1-0.4l-0.4-0.1l-0.5-0.2l-0.6-0.2l-1.6-0.7c-1.1-0.5-2.2-1-3.3-1.5
							c-3.1-1.5-6.1-3.2-9-5.1c3.3-2.1,6.1-5.2,9-8l0.7-0.6c0.3-0.3,0.6-0.5,1-0.8c1.3-1,2.6-1.8,3.9-2.7l0.5-0.3l1.1-0.7
							c0,5,0,10.1,0.2,15.1C629.6,350.7,629.7,352.8,629.9,354.9z"/>
						<path id="Path_4415-9" class="st5" d="M630.8,364.2c-0.3,0.1-0.7,0.3-1,0.4c-5.5,2.3-9.7,6.9-14.8,10l-0.9,0.5l0,0l-0.4,0.2
							c-0.7,0.3-1.4,0.6-2.2,0.8c-0.1,0-0.5,0.1-0.7,0.2l-0.7,0.1c-0.7,0.1-1.5,0.1-2.2,0h-0.4l-1-0.1c-0.8-0.1-1.5-0.2-2.3-0.3
							c-1.5-0.3-3-0.5-4.6-1c-0.8-0.2-1.7-0.5-2.5-0.8l-0.5-0.2h-0.1c-0.4-0.2-0.8-0.4-1.2-0.5c-0.7-0.3-1.4-0.7-2-1.1l-0.1-0.1
							l-0.3-0.2v0l-0.5-0.5c0.1-0.9,0.1-1.9,0-2.8c0-0.2,0-0.4,0-0.6l0.9-0.6c6.1-4,12.5-8.4,16.5-14.7c6.2,4,12.9,7.2,19.8,9.5
							l1.1,0.4C630.7,363.2,630.7,363.7,630.8,364.2z"/>
						<path id="Path_4416-9" class="st6" d="M609.3,418.6c-1.4,2.5-2.6,5.1-3.8,7.8c-2.7,6-5.2,12.1-9,17.5
							c-5.9,8.5-13.8,11.5-23.4,9.5c-7.6-1.5-12.4-7.4-13.5-16.1c-0.8-6.6,0.5-13.3,3.5-19.2c3.6-7.4,8.4-13.9,13.2-20.4
							c4.4-6,9-11.8,13.2-18c0.2-0.3,0.4-0.6,0.6-1l0.9,0.5c1.7,0.9,3.5,1.7,5.4,2.3c2.1,0.7,4.2,1.2,6.4,1.5
							c1.7,0.9,3.4,1.8,4.2,3.7c0.3,0.9,0.6,1.8,0.8,2.7c0.3,9.1,0.3,18.2,1.3,27.2C609.1,417.4,609.2,418,609.3,418.6z"/>
						<path id="Path_4417-9" class="st0" d="M631.9,397.3c-1.6,1.4-3.2,2.6-5,3.7c-4,2.6-8,5.2-11.3,8.8c-0.1,0.1-0.1,0.2-0.2,0.2
							l-0.1-1.4c-0.4-7-0.4-14.1-0.7-21.2c0.5-2,1.4-4,2.6-5.7c2.7-1.5,5.2-3.3,7.6-5.3c1.5-1.2,3-2.3,4.5-3.3
							c0.4-0.3,0.8-0.5,1.2-0.8l0.5-0.3l0,0l0,0h0.1c0.3-0.1,0.6-0.3,0.9-0.4c0.7,3.6,1.5,7.2,2.4,10.7c0.5,1.9,0.8,3.9,1,5.9
							C635.7,391.6,634.4,395,631.9,397.3z"/>
						<path id="Path_4418-9" class="st7" d="M559.4,433.7c1.3,2,3.5,3.4,5.9,3.9c2.3,0.4,4.7,0.4,7.1,0.2"/>
						<path id="Path_4419-9" class="st8" d="M596.3,315.9c-0.2,1.7-0.1,3.4,0.3,5"/>
						<path id="Path_4420-9" class="st8" d="M600,314.6l0.2,4c0,0.5,0.1,1,0.2,1.4"/>
						<path id="Path_4421-9" class="st8" d="M607.1,313.9c0.2,1.3,0.3,2.6,0.3,4"/>
						<path id="Path_4422-9" class="st8" d="M603.3,314.4l0.2,3.1"/>
						<path id="Path_4423-9" class="st8" d="M611.7,313.8v3.9"/>
						<path id="Path_4424-9" class="st8" d="M617.4,313.8c-0.2,1.3-0.5,2.6-0.9,3.9"/>
						<path id="Path_4425-9" class="st8" d="M622,314.8c-0.3,1.4-0.6,2.9-0.9,4.3"/>
					</g>
					<g id="Group_2-10">
						<path id="Path_4412-10" class="st0" d="M45.4,315.1l-0.2,0.3l-0.3,0.4l-0.6,0.8c-0.7,0.9-1.4,1.8-2.2,2.6
							c-0.4,0.4-0.8,0.9-1.3,1.3l-0.1,0.1l0,0l-0.7,0.7c-2.1,1.8-4.2,3.5-6.5,5l-1,0.6c-0.5-7.5-1-15-1.5-22.6l1.1,0.9
							c2.1,1.7,4.2,3.3,6.3,4.8c2.1,1.5,4.3,2.9,6.5,4.3l0.3,0.1C45.3,314.7,45.3,314.9,45.4,315.1z"/>
						<path id="Path_4413-10" class="st4" d="M70.1,291.8l-1.1,0.7l-1,0.7c-2.5,1.7-5,3.3-7.4,5.2c-1.6,1.3-3.1,2.8-4.6,4.3l-1.1,1
							l-0.4,0.4l-0.2,0.2c-0.9,0.8-1.8,1.6-2.7,2.3c-0.6,0.5-1.2,0.9-1.9,1.3c0.2-0.1-0.3,0.1-0.7,0.3h-0.1l-0.2-0.1
							c-0.3-0.2-0.6-0.3-0.9-0.5c-0.5-0.3-1-0.6-1.5-1c-1-0.7-2.1-1.3-3.1-2c-4.1-2.8-8-6-11.6-9.5c-0.4-0.4-0.8-0.8-1.2-1.2
							c-0.1-1.9-0.2-3.7-0.3-5.6c-0.1-1.3,0.5-2.6,1.5-3.4c1.4-1.1,2.9-1.9,4.6-2.3c9.6-2.6,19.3-3.2,28-1.5
							c5.5,1.4,5.7,1.7,5.8,6.5C70.1,289.1,70.1,290.5,70.1,291.8z"/>
						<path id="Path_4414-10" class="st0" d="M70.7,321.9l-1-0.4l-0.4-0.1l-0.5-0.2l-0.6-0.3l-1.6-0.7c-1.1-0.5-2.2-1-3.3-1.5
							c-3.1-1.5-6.1-3.2-9-5.1c3.3-2.1,6.1-5.2,9-8c0,0,0.5-0.5,0.7-0.6c0.3-0.3,0.6-0.5,1-0.8c1.3-1,2.6-1.8,3.9-2.7l0.5-0.3
							l1.1-0.7c0,5,0,10.1,0.2,15.1C70.5,317.7,70.6,319.8,70.7,321.9z"/>
						<path id="Path_4415-10" class="st5" d="M71.6,331.1l-1,0.4c-5.5,2.3-9.7,6.9-14.8,10c-0.3,0.2-0.6,0.4-0.9,0.5l0,0l-0.3,0.2
							c-0.7,0.3-1.4,0.6-2.2,0.9l-0.7,0.2l-0.7,0.1c-0.7,0.1-1.5,0.1-2.2,0h-0.4l-1-0.1c-0.8-0.1-1.5-0.2-2.3-0.3
							c-1.5-0.2-3.1-0.5-4.6-0.9c-0.9-0.2-1.7-0.5-2.5-0.8l-0.5-0.2h-0.1c-0.4-0.2-0.8-0.4-1.2-0.5c-0.7-0.3-1.4-0.7-2-1.1l-0.1,0
							l-0.3-0.2h-0.1l-0.5-0.5c0.1-0.9,0.1-1.9,0-2.8c0-0.2,0-0.4,0-0.6l0.9-0.6c6.1-4,12.5-8.4,16.5-14.7
							c6.2,3.9,12.8,7.1,19.8,9.5l1.1,0.4C71.5,330.2,71.6,330.7,71.6,331.1z"/>
						<path id="Path_4416-10" class="st6" d="M50.1,385.6c-1.4,2.5-2.6,5.1-3.8,7.8c-2.7,6-5.2,12.1-9,17.5
							c-5.9,8.5-13.8,11.5-23.4,9.5c-7.6-1.5-12.4-7.4-13.5-16.1c-0.7-6.6,0.5-13.3,3.5-19.2c3.6-7.4,8.4-13.9,13.2-20.4
							c4.4-6,9-11.8,13.2-18c0.2-0.3,0.4-0.6,0.6-1c0.3,0.2,0.6,0.4,0.9,0.5c1.7,0.9,3.5,1.7,5.4,2.3c2.1,0.7,4.2,1.2,6.4,1.5
							c1.7,0.9,3.4,1.8,4.2,3.7c0.3,0.9,0.6,1.8,0.8,2.7c0.3,9.1,0.3,18.2,1.3,27.2C50,384.4,50,385,50.1,385.6z"/>
						<path id="Path_4417-10" class="st0" d="M72.7,364.3c-1.6,1.4-3.3,2.6-5.1,3.8c-4,2.6-8,5.2-11.3,8.8l-0.2,0.2l-0.1-1.4
							c-0.4-7.1-0.4-14.1-0.7-21.2c0.5-2,1.4-4,2.6-5.7c2.7-1.5,5.2-3.3,7.6-5.3c1.5-1.2,3-2.3,4.5-3.3l1.2-0.8l0.5-0.3h0.1l0,0h0.1
							l0.9-0.4c0.7,3.6,1.4,7.2,2.4,10.7c0.5,1.9,0.8,3.9,1,5.9C76.5,358.7,75.2,362,72.7,364.3z"/>
						<path id="Path_4418-10" class="st7" d="M0.2,400.7c1.4,2,3.5,3.4,5.9,3.9c2.3,0.4,4.7,0.4,7.1,0.2"/>
						<path id="Path_4419-10" class="st8" d="M37.1,282.9c-0.2,1.7-0.1,3.4,0.4,5"/>
						<path id="Path_4420-10" class="st8" d="M40.8,281.6l0.2,4c0,0.5,0.1,1,0.2,1.4"/>
						<path id="Path_4421-10" class="st8" d="M47.9,280.9c0.2,1.3,0.3,2.7,0.3,4"/>
						<path id="Path_4422-10" class="st8" d="M44.2,281.4l0.2,3.1"/>
						<path id="Path_4423-10" class="st8" d="M52.6,280.8v3.9"/>
						<path id="Path_4424-10" class="st8" d="M58.2,280.8c-0.2,1.3-0.5,2.6-0.9,3.9"/>
						<path id="Path_4425-10" class="st8" d="M62.8,281.8c-0.3,1.4-0.6,2.8-0.9,4.3"/>
					</g>
				</g>
			</g>
		</g>
		<line id="Line_7" class="st9" x1="421.4" y1="43.8" x2="570.2" y2="43.8"/>
		<line id="Line_8" class="st9" x1="103.6" y1="43.8" x2="252.3" y2="43.8"/>
		<g class="st10">
			<path class="st4" d="M291.3,46.6l-2.8-7.5h0c0,0.2,0,0.6,0.1,1c0,0.4,0,0.9,0,1.3v5.2h-1v-8.6h1.6l2.6,7h0l2.7-7h1.6v8.6H295
				v-5.3c0-0.4,0-0.8,0-1.2c0-0.4,0-0.7,0.1-1h0l-2.9,7.5H291.3z"/>
			<path class="st4" d="M305.6,46.6h-4.8v-8.6h4.8V39h-3.7v2.7h3.5v0.9h-3.5v3.1h3.7V46.6z"/>
			<path class="st4" d="M313.6,46.6l-2.8-7.5h0c0,0.2,0,0.6,0.1,1c0,0.4,0,0.9,0,1.3v5.2h-1v-8.6h1.6l2.6,7h0l2.7-7h1.6v8.6h-1.1
				v-5.3c0-0.4,0-0.8,0-1.2c0-0.4,0-0.7,0.1-1h0l-2.9,7.5H313.6z"/>
			<path class="st4" d="M323.1,38.1h2.4c1.1,0,1.9,0.2,2.4,0.5c0.6,0.3,0.8,0.9,0.8,1.6c0,0.5-0.1,0.9-0.4,1.3
				c-0.3,0.3-0.7,0.5-1.2,0.6v0.1c0.4,0.1,0.7,0.2,1,0.3c0.3,0.2,0.5,0.4,0.7,0.6c0.2,0.3,0.3,0.6,0.3,1.1c0,0.8-0.3,1.4-0.8,1.8
				c-0.5,0.4-1.3,0.6-2.2,0.6h-3V38.1z M324.2,41.7h1.6c0.7,0,1.2-0.1,1.5-0.4c0.3-0.2,0.4-0.6,0.4-1c0-0.5-0.2-0.8-0.5-1
				s-0.9-0.3-1.6-0.3h-1.4V41.7z M324.2,42.6v3.1h1.7c0.8,0,1.3-0.1,1.6-0.4c0.3-0.3,0.4-0.7,0.4-1.2c0-0.4-0.2-0.8-0.5-1.1
				c-0.3-0.3-0.9-0.4-1.6-0.4H324.2z"/>
			<path class="st4" d="M338.1,46.6h-4.8v-8.6h4.8V39h-3.7v2.7h3.5v0.9h-3.5v3.1h3.7V46.6z"/>
			<path class="st4" d="M344.8,38.1c1.1,0,1.9,0.2,2.4,0.6s0.8,1,0.8,1.8c0,0.5-0.1,0.8-0.3,1.1c-0.2,0.3-0.4,0.5-0.6,0.7
				c-0.3,0.2-0.5,0.3-0.8,0.4l2.4,3.8h-1.3l-2.1-3.5h-1.7v3.5h-1.1v-8.6H344.8z M344.7,39h-1.2v3.2h1.3c0.7,0,1.2-0.1,1.5-0.4
				c0.3-0.3,0.5-0.7,0.5-1.2c0-0.6-0.2-1-0.5-1.2C345.9,39.1,345.4,39,344.7,39z"/>
			<path class="st4" d="M357.1,44.4c0,0.8-0.3,1.4-0.8,1.8s-1.3,0.6-2.2,0.6c-0.5,0-0.9,0-1.3-0.1c-0.4-0.1-0.7-0.2-1-0.3v-1
				c0.3,0.1,0.6,0.2,1.1,0.3c0.4,0.1,0.9,0.2,1.3,0.2c0.6,0,1.1-0.1,1.4-0.4c0.3-0.2,0.5-0.6,0.5-1c0-0.3-0.1-0.5-0.2-0.7
				c-0.1-0.2-0.3-0.4-0.6-0.5c-0.3-0.2-0.7-0.3-1.2-0.5c-0.7-0.3-1.3-0.6-1.7-1c-0.4-0.4-0.6-0.9-0.6-1.6c0-0.4,0.1-0.8,0.3-1.2
				c0.2-0.3,0.6-0.6,1-0.8s0.9-0.3,1.4-0.3c0.5,0,0.9,0,1.3,0.1s0.8,0.2,1.1,0.3l-0.3,0.9c-0.3-0.1-0.6-0.2-1-0.3
				c-0.4-0.1-0.7-0.1-1.1-0.1c-0.5,0-0.9,0.1-1.2,0.3c-0.3,0.2-0.4,0.5-0.4,0.9c0,0.3,0.1,0.5,0.2,0.7c0.1,0.2,0.3,0.4,0.6,0.5
				c0.3,0.2,0.6,0.3,1.1,0.5c0.5,0.2,0.9,0.4,1.3,0.6c0.3,0.2,0.6,0.5,0.8,0.8C357,43.5,357.1,43.9,357.1,44.4z"/>
			<path class="st4" d="M367.8,46.6h-1.1v-4h-4.4v4h-1.1v-8.6h1.1v3.6h4.4v-3.6h1.1V46.6z"/>
			<path class="st4" d="M375,46.6h-3.1V46l1-0.2v-6.9l-1-0.2v-0.6h3.1v0.6l-1,0.2v6.9l1,0.2V46.6z"/>
			<path class="st4" d="M381.3,38.1c1.1,0,1.9,0.2,2.4,0.7c0.5,0.4,0.8,1.1,0.8,1.9c0,0.5-0.1,0.9-0.3,1.3s-0.6,0.7-1.1,1
				s-1.2,0.4-2,0.4h-1v3.3H379v-8.6H381.3z M381.2,39h-1.1v3.4h0.9c0.8,0,1.4-0.1,1.8-0.4c0.4-0.3,0.6-0.7,0.6-1.3
				c0-0.6-0.2-1-0.5-1.2C382.5,39.1,381.9,39,381.2,39z"/>
		</g>
	</g>
</g>
</svg>
