<?xml version="1.0" encoding="utf-8"?>
<!-- Generator: Adobe Illustrator 24.2.1, SVG Export Plug-In . SVG Version: 6.00 Build 0)  -->
<svg version="1.1" id="圖層_1" xmlns="http://www.w3.org/2000/svg" xmlns:xlink="http://www.w3.org/1999/xlink" x="0px" y="0px"
	 viewBox="0 0 300 630" style="enable-background:new 0 0 300 630;" xml:space="preserve">
<style type="text/css">
	.st0{fill:#F2DE79;}
	.st1{fill:#F8F4EB;}
	.st2{opacity:0.15;}
	.st3{clip-path:url(#SVGID_2_);}
	.st4{fill:#03588C;}
	.st5{fill:#FF9685;}
	.st6{fill:#0388A6;}
	.st7{fill:none;stroke:#EDEDED;stroke-width:0.52;stroke-miterlimit:10;}
	.st8{fill:none;stroke:#00A99D;stroke-width:0.52;stroke-miterlimit:10;}
	.st9{fill:none;stroke:#03588C;stroke-width:0.41;stroke-miterlimit:10;}
	.st10{fill:none;stroke:#03588C;stroke-width:0.55;stroke-miterlimit:10;}
	.st11{font-family:'NotoSans-Regular';}
	.st12{font-size:12px;}
	.st13{letter-spacing:2;}
</style>
<g id="圖層_2_1_">
	<g id="圖層_1-2">
		<path class="st0" d="M39.5,0h221C282.3,0,300,17.7,300,39.5v551c0,21.8-17.7,39.5-39.5,39.5h-221C17.7,630,0,612.3,0,590.5v-551
			C0,17.7,17.7,0,39.5,0z"/>
		<path class="st1" d="M37.4,9.9h225.3c14,0,25.4,11.4,25.4,25.4v554.3c0,14-11.4,25.4-25.4,25.4H37.4c-14,0-25.4-11.4-25.4-25.4
			V35.3C12,21.2,23.4,9.9,37.4,9.9z"/>
		<g class="st2">
			<g>
				<defs>
					<path id="SVGID_1_" d="M37.4,9.9h225.3c14,0,25.4,11.4,25.4,25.4v554.3c0,14-11.4,25.4-25.4,25.4H37.4
						c-14,0-25.4-11.4-25.4-25.4V35.3C12,21.2,23.4,9.9,37.4,9.9z"/>
				</defs>
				<clipPath id="SVGID_2_">
					<use xlink:href="#SVGID_1_"  style="overflow:visible;"/>
				</clipPath>
				<g class="st3">
					<g id="Group_2">
						<path id="Path_4412" class="st0" d="M14.4,3.9c0,0.1-0.1,0.2-0.2,0.3S14,4.6,14,4.6c-0.2,0.3-0.4,0.5-0.6,0.8
							C12.8,6.3,12,7.2,11.3,8c-0.4,0.4-0.8,0.9-1.3,1.3L9.9,9.4l0,0l-0.7,0.6c-2,1.8-4.2,3.5-6.5,5l-1,0.6C1.2,8.2,0.8,0.6,0.3-6.9
							C0.6-6.6,1-6.3,1.4-6c2,1.7,4.2,3.2,6.3,4.8c2.1,1.5,4.2,2.9,6.4,4.3l0.3,0.2C14.4,3.4,14.4,3.7,14.4,3.9z"/>
						<path id="Path_4413" class="st4" d="M39.1-19.4L38-18.7L37-18c-2.5,1.7-5,3.3-7.3,5.2C28-11.5,26.5-9.9,25-8.5
							c-0.4,0.4-0.7,0.7-1.1,1.1L23.5-7l-0.2,0.2c-0.9,0.8-1.8,1.6-2.7,2.3C20-4,19.3-3.6,18.7-3.2C18.9-3.4,18.3-3.1,18-3l0,0
							l-0.2-0.1c-0.3-0.2-0.6-0.3-0.9-0.5c-0.5-0.3-1-0.6-1.4-0.9c-1-0.7-2.1-1.3-3.1-2c-4.1-2.8-8-6-11.6-9.4
							c-0.4-0.4-0.8-0.8-1.2-1.2c-0.1-1.9-0.1-3.8-0.3-5.6c-0.1-1.3,0.5-2.6,1.5-3.4c1.3-1.1,2.9-1.9,4.6-2.3
							c9.6-2.6,19.2-3.2,27.9-1.5c5.5,1.4,5.7,1.7,5.8,6.5C39.1-22.1,39.1-20.8,39.1-19.4z"/>
						<path id="Path_4414" class="st0" d="M39.7,10.7l-1-0.4l-0.4-0.1l-0.5-0.2l-0.6-0.3C36.5,9.5,36,9.3,35.5,9
							c-1.1-0.5-2.2-1-3.3-1.5c-3.1-1.5-6.1-3.2-9-5.1c3.3-2.1,6-5.2,8.9-7.9l0.7-0.6c0.3-0.3,0.6-0.5,1-0.8c1.3-1,2.6-1.8,3.9-2.7
							L38-10l1.1-0.7c0,5,0,10.1,0.2,15.1C39.4,6.5,39.5,8.6,39.7,10.7z"/>
						<path id="Path_4415" class="st5" d="M40.6,19.9c-0.3,0.1-0.7,0.3-1,0.4c-5.4,2.3-9.6,6.9-14.7,10L24,30.8l0,0L23.7,31
							c-0.7,0.3-1.4,0.6-2.1,0.8L20.9,32l-0.7,0.1c-0.7,0.1-1.5,0.1-2.2,0h-0.4l-1-0.1c-0.8-0.1-1.5-0.2-2.3-0.3
							c-1.5-0.2-3-0.5-4.5-0.9C9,30.6,8.1,30.3,7.3,30l-0.5-0.2H6.7l-1.2-0.5c-0.7-0.3-1.4-0.7-2-1.1l-0.1-0.1L3,27.9c0,0,0,0,0,0
							l-0.5-0.5c0.1-0.9,0.1-1.9,0-2.8c0-0.2,0-0.4,0-0.6l0.9-0.6c6-4,12.4-8.4,16.4-14.7c6.2,4,12.8,7.2,19.7,9.5l1.1,0.4
							C40.5,19,40.5,19.4,40.6,19.9z"/>
						<path id="Path_4416" class="st6" d="M19.2,74.3c-1.4,2.5-2.6,5.1-3.8,7.8c-2.6,6-5.2,12.1-8.9,17.5
							c-5.9,8.5-13.8,11.5-23.3,9.5c-7.6-1.5-12.3-7.4-13.4-16.1c-0.8-6.6,0.5-13.3,3.5-19.2c3.6-7.4,8.3-13.9,13.1-20.4
							c4.4-6,9-11.8,13.1-18c0.2-0.3,0.4-0.6,0.6-1c0.3,0.2,0.6,0.4,0.9,0.5c1.7,0.9,3.5,1.7,5.3,2.3c2.1,0.7,4.2,1.2,6.3,1.5
							c1.7,0.9,3.4,1.8,4.2,3.7c0.3,0.9,0.6,1.8,0.8,2.7c0.3,9.1,0.3,18.2,1.3,27.2C19,73.1,19.1,73.7,19.2,74.3z"/>
						<path id="Path_4417" class="st0" d="M41.7,53c-1.6,1.4-3.2,2.6-5,3.7c-4,2.6-7.9,5.2-11.3,8.8l-0.2,0.2l-0.1-1.4
							c-0.4-7-0.4-14.1-0.7-21.2c0.5-2,1.4-4,2.6-5.7c2.7-1.5,5.2-3.3,7.5-5.3c1.5-1.2,2.9-2.3,4.5-3.3c0.4-0.3,0.8-0.5,1.2-0.8
							l0.5-0.3h0.1l0,0h0.1c0.3-0.1,0.6-0.3,0.9-0.4c0.6,3.6,1.4,7.2,2.4,10.7c0.5,1.9,0.8,3.9,1,5.9C45.5,47.4,44.2,50.7,41.7,53z"
							/>
						<path id="Path_4418" class="st7" d="M-30.4,89.5c1.3,2,3.5,3.4,5.9,3.9c2.3,0.4,4.7,0.4,7,0.2"/>
						<path id="Path_4419" class="st8" d="M6.3-28.4c-0.2,1.7-0.1,3.4,0.3,5"/>
						<path id="Path_4420" class="st8" d="M10-29.7l0.2,4c0,0.5,0.1,1,0.2,1.4"/>
						<path id="Path_4421" class="st8" d="M17-30.3c0.2,1.3,0.3,2.6,0.3,4"/>
						<path id="Path_4422" class="st8" d="M13.3-29.9l0.2,3.1"/>
						<path id="Path_4423" class="st8" d="M21.7-30.4v3.9"/>
						<path id="Path_4424" class="st8" d="M27.2-30.4c-0.2,1.3-0.5,2.6-0.9,3.9"/>
						<path id="Path_4425" class="st8" d="M31.8-29.4c-0.3,1.4-0.6,2.9-0.9,4.3"/>
					</g>
					<g id="Group_2-2">
						<path id="Path_4412-2" class="st0" d="M127.2,132.7L127,133c-0.1,0.1-0.3,0.4-0.3,0.4c-0.2,0.3-0.4,0.5-0.6,0.8
							c-0.7,0.9-1.4,1.8-2.2,2.6c-0.4,0.4-0.8,0.9-1.3,1.3l-0.1,0.1l0,0l-0.7,0.6c-2,1.8-4.2,3.5-6.5,5l-1,0.6
							c-0.5-7.5-1-15-1.4-22.6l1.1,0.9c2,1.7,4.2,3.2,6.3,4.8c2.1,1.5,4.2,2.9,6.4,4.3l0.3,0.1C127.1,132.2,127.1,132.5,127.2,132.7
							z"/>
						<path id="Path_4413-2" class="st4" d="M151.9,109.3l-1.1,0.8l-1,0.7c-2.4,1.7-5,3.3-7.3,5.2c-1.6,1.3-3.1,2.8-4.6,4.3
							c-0.4,0.4-0.7,0.7-1.1,1l-0.4,0.4L136,122c-0.9,0.8-1.8,1.6-2.7,2.3c-0.6,0.5-1.2,0.9-1.9,1.3c0.2-0.1-0.3,0.1-0.6,0.3h-0.1
							l-0.2-0.1l-0.9-0.5c-0.5-0.3-1-0.6-1.4-1c-1-0.7-2.1-1.3-3.1-2c-4.1-2.8-8-6-11.5-9.5c-0.4-0.4-0.8-0.8-1.2-1.2
							c-0.1-1.9-0.2-3.7-0.3-5.6c-0.1-1.3,0.5-2.6,1.5-3.4c1.3-1.1,2.9-1.9,4.6-2.3c9.6-2.6,19.2-3.2,27.9-1.5
							c5.4,1.4,5.7,1.7,5.8,6.5C151.9,106.6,151.9,108,151.9,109.3z"/>
						<path id="Path_4414-2" class="st0" d="M152.4,139.4l-1.1-0.4l-0.4-0.1l-0.5-0.2l-0.6-0.3c-0.5-0.2-1.1-0.4-1.6-0.7
							c-1.1-0.5-2.2-1-3.3-1.5c-3.1-1.5-6.1-3.2-8.9-5.1c3.3-2.1,6-5.2,8.9-8l0.6-0.6c0.3-0.3,0.6-0.5,1-0.8c1.3-1,2.6-1.8,3.9-2.7
							l0.5-0.3l1.1-0.7c0,5,0,10.1,0.2,15.1C152.2,135.2,152.3,137.3,152.4,139.4z"/>
						<path id="Path_4415-2" class="st5" d="M153.4,148.7c-0.4,0.1-0.7,0.3-1,0.4c-5.4,2.3-9.6,6.9-14.7,10l-0.9,0.5l0,0l-0.4,0.2
							c-0.7,0.3-1.4,0.6-2.1,0.8l-0.7,0.2l-0.7,0.1c-0.7,0.1-1.5,0.1-2.2,0h-0.4l-1-0.1c-0.8-0.1-1.5-0.2-2.3-0.3
							c-1.5-0.2-3-0.6-4.5-0.9c-0.9-0.2-1.7-0.5-2.5-0.8l-0.5-0.2c0,0,0,0-0.1,0c-0.4-0.2-0.8-0.4-1.2-0.5c-0.7-0.3-1.4-0.7-2-1.1
							l-0.1-0.1c-0.1-0.1-0.2-0.1-0.3-0.2l-0.1-0.1l-0.5-0.5c0.1-0.9,0.1-1.9,0-2.8c0-0.2,0-0.4,0-0.6l0.9-0.6
							c6-4,12.4-8.4,16.4-14.7c6.2,4,12.8,7.2,19.7,9.5l1.1,0.4C153.2,147.7,153.3,148.2,153.4,148.7z"/>
						<path id="Path_4416-2" class="st6" d="M132,203.1c-1.4,2.5-2.6,5.1-3.8,7.8c-2.6,6-5.2,12.1-8.9,17.5
							c-5.9,8.5-13.8,11.5-23.3,9.5c-7.6-1.5-12.3-7.4-13.4-16.1c-0.7-6.6,0.5-13.3,3.5-19.2c3.6-7.4,8.4-13.9,13.1-20.4
							c4.4-6,9-11.8,13.1-18c0.2-0.3,0.4-0.6,0.6-1l0.9,0.5c1.7,0.9,3.5,1.7,5.3,2.3c2.1,0.7,4.2,1.2,6.3,1.5
							c1.7,0.9,3.4,1.8,4.1,3.7c0.3,0.9,0.6,1.8,0.8,2.7c0.3,9.1,0.3,18.2,1.3,27.2C131.8,201.9,131.9,202.5,132,203.1z"/>
						<path id="Path_4417-2" class="st0" d="M154.4,181.8c-1.6,1.4-3.2,2.6-5,3.7c-4,2.6-7.9,5.2-11.3,8.8l-0.2,0.2l-0.1-1.4
							c-0.4-7.1-0.4-14.1-0.7-21.2c0.5-2,1.4-4,2.6-5.7c2.6-1.5,5.2-3.3,7.5-5.3c1.5-1.2,2.9-2.3,4.5-3.3c0.4-0.3,0.8-0.5,1.2-0.8
							l0.5-0.3h0.1l0,0h0.1c0.3-0.1,0.6-0.3,0.9-0.4c0.6,3.6,1.4,7.2,2.4,10.7c0.5,1.9,0.8,3.9,1,5.9
							C158.2,176.2,157,179.5,154.4,181.8z"/>
						<path id="Path_4418-2" class="st7" d="M82.4,218.3c1.3,2,3.5,3.4,5.8,3.9c2.3,0.4,4.7,0.4,7,0.2"/>
						<path id="Path_4419-2" class="st8" d="M119,100.4c-0.2,1.7-0.1,3.4,0.4,5"/>
						<path id="Path_4420-2" class="st8" d="M122.7,99.1l0.2,4c0,0.5,0.1,1,0.2,1.4"/>
						<path id="Path_4421-2" class="st8" d="M129.8,98.4c0.2,1.3,0.3,2.6,0.3,3.9"/>
						<path id="Path_4422-2" class="st8" d="M126,98.9l0.2,3.1"/>
						<path id="Path_4423-2" class="st8" d="M134.4,98.3v3.9"/>
						<path id="Path_4424-2" class="st8" d="M140,98.3c-0.2,1.3-0.5,2.7-0.9,3.9"/>
						<path id="Path_4425-2" class="st8" d="M144.6,99.3c-0.3,1.4-0.6,2.8-0.9,4.3"/>
					</g>
					<g id="Group_2-3">
						<path id="Path_4412-3" class="st0" d="M192.9-60.5l-0.2,0.3l-0.3,0.4c-0.2,0.3-0.4,0.5-0.6,0.8c-0.7,0.9-1.4,1.8-2.2,2.6
							c-0.4,0.4-0.8,0.9-1.2,1.3l-0.1,0.1l0,0l-0.7,0.7c-2.1,1.8-4.2,3.5-6.5,5l-1,0.7c-0.5-7.5-1-15-1.4-22.6l1.1,0.9
							c2.1,1.7,4.2,3.3,6.3,4.8c2.1,1.5,4.2,3,6.5,4.3l0.3,0.1C192.8-61,192.8-60.7,192.9-60.5z"/>
						<path id="Path_4413-3" class="st4" d="M217.5-83.8l-1.1,0.7l-1,0.7c-2.4,1.7-5,3.3-7.3,5.2c-1.6,1.3-3.1,2.8-4.6,4.3l-1.1,1
							l-0.4,0.4l-0.2,0.2c-0.9,0.8-1.8,1.6-2.7,2.3c-0.6,0.5-1.2,0.9-1.9,1.3c0.2-0.1-0.3,0.1-0.6,0.3h-0.1l-0.2-0.1
							c-0.3-0.2-0.6-0.3-0.9-0.5c-0.5-0.3-1-0.6-1.4-1c-1-0.7-2.1-1.3-3.1-2c-4.1-2.8-8-6-11.5-9.5c-0.4-0.4-0.8-0.8-1.1-1.2
							c-0.1-1.9-0.2-3.7-0.3-5.6c-0.1-1.3,0.5-2.6,1.5-3.4c1.3-1.1,2.9-1.9,4.6-2.3c9.6-2.6,19.2-3.2,27.9-1.5
							c5.4,1.4,5.7,1.7,5.8,6.5C217.5-86.5,217.5-85.2,217.5-83.8z"/>
						<path id="Path_4414-3" class="st0" d="M218.1-53.7l-1.1-0.4l-0.4-0.2l-0.5-0.2l-0.6-0.3c-0.5-0.2-1.1-0.4-1.6-0.7
							c-1.1-0.5-2.2-1-3.3-1.5c-3.1-1.5-6-3.3-8.9-5.1c3.3-2.1,6.1-5.2,8.9-8l0.6-0.6c0.3-0.3,0.6-0.5,1-0.8c1.3-1,2.6-1.8,3.9-2.7
							l0.5-0.3l1.1-0.7c0,5,0,10.1,0.2,15.1C217.8-57.9,217.9-55.8,218.1-53.7z"/>
						<path id="Path_4415-3" class="st5" d="M219-44.5c-0.3,0.1-0.7,0.3-1,0.4c-5.4,2.3-9.6,6.9-14.7,10c-0.3,0.2-0.6,0.3-0.9,0.5
							l0,0l-0.4,0.2c-0.7,0.3-1.4,0.6-2.1,0.8c-0.1,0-0.5,0.1-0.7,0.2l-0.7,0.1c-0.7,0.1-1.5,0.1-2.2,0H196l-1-0.1
							c-0.8-0.1-1.5-0.2-2.3-0.3c-1.5-0.3-3-0.5-4.5-1c-0.9-0.2-1.7-0.5-2.5-0.8l-0.5-0.2H185c-0.4-0.2-0.8-0.3-1.2-0.5
							c-0.7-0.3-1.4-0.7-2-1.1l-0.1,0l-0.3-0.2l-0.1,0l-0.5-0.5c0.1-0.9,0.1-1.9,0-2.8c0-0.2,0-0.4,0-0.6l0.9-0.6
							c6-4,12.4-8.4,16.4-14.7c6.2,4,12.8,7.2,19.7,9.5c0.4,0.1,0.7,0.3,1.1,0.4C218.9-45.4,219-45,219-44.5z"/>
						<path id="Path_4416-3" class="st6" d="M197.6,10c-1.4,2.5-2.6,5.1-3.8,7.8c-2.6,6-5.2,12.1-8.9,17.6
							c-5.9,8.5-13.8,11.5-23.3,9.5c-7.6-1.5-12.3-7.4-13.4-16.1c-0.8-6.6,0.5-13.3,3.5-19.2c3.6-7.4,8.4-13.9,13.1-20.4
							c4.4-6,9-11.8,13.1-18c0.2-0.3,0.4-0.6,0.6-1c0.3,0.2,0.6,0.4,0.9,0.5c1.7,0.9,3.5,1.7,5.3,2.3c2.1,0.7,4.2,1.2,6.3,1.5
							c1.7,0.9,3.4,1.8,4.1,3.7c0.3,0.9,0.6,1.8,0.8,2.7c0.3,9.1,0.3,18.2,1.3,27.2C197.5,8.7,197.5,9.3,197.6,10z"/>
						<path id="Path_4417-3" class="st0" d="M220.1-11.4c-1.6,1.4-3.2,2.6-5,3.7c-4,2.6-7.9,5.2-11.3,8.8l-0.2,0.2
							c0-0.5-0.1-0.9-0.1-1.4c-0.4-7.1-0.4-14.1-0.7-21.2c0.5-2,1.3-4,2.6-5.7c2.7-1.5,5.2-3.3,7.5-5.3c1.5-1.2,2.9-2.3,4.5-3.3
							c0.4-0.3,0.8-0.5,1.2-0.8l0.5-0.3l0,0l0,0h0.1l0.9-0.4c0.6,3.6,1.4,7.2,2.4,10.8c0.5,1.9,0.8,3.9,1,5.9
							C223.8-17,222.6-13.7,220.1-11.4z"/>
						<path id="Path_4418-3" class="st7" d="M148,25.1c1.3,2.1,3.5,3.5,5.9,3.9c2.3,0.4,4.7,0.4,7,0.1"/>
						<path id="Path_4419-3" class="st8" d="M184.7-92.8c-0.2,1.7-0.1,3.4,0.4,5"/>
						<path id="Path_4420-3" class="st8" d="M188.4-94l0.2,4c0,0.5,0.1,1,0.2,1.4"/>
						<path id="Path_4421-3" class="st8" d="M195.4-94.7c0.2,1.3,0.3,2.7,0.3,4"/>
						<path id="Path_4422-3" class="st8" d="M191.7-94.3l0.2,3.1"/>
						<path id="Path_4423-3" class="st8" d="M200.1-94.8v3.9"/>
						<path id="Path_4424-3" class="st8" d="M205.6-94.8c-0.2,1.3-0.5,2.6-0.9,3.9"/>
						<path id="Path_4425-3" class="st8" d="M210.2-93.8c-0.3,1.4-0.6,2.8-0.9,4.3"/>
					</g>
					<g id="Group_2-4">
						<path id="Path_4412-4" class="st0" d="M315.1,42.9l-0.2,0.3l-0.3,0.4c-0.2,0.3-0.4,0.5-0.6,0.8c-0.7,0.9-1.4,1.8-2.1,2.6
							c-0.4,0.4-0.8,0.8-1.3,1.3l-0.1,0.1l0,0c-0.2,0.2-0.5,0.4-0.7,0.7c-2.1,1.8-4.2,3.5-6.5,5l-1,0.7c-0.5-7.5-1-15-1.4-22.6
							l1.1,0.9c2,1.7,4.2,3.3,6.3,4.8c2.1,1.5,4.2,2.9,6.4,4.2l0.3,0.1C315.1,42.4,315.1,42.6,315.1,42.9z"/>
						<path id="Path_4413-4" class="st4" d="M339.8,19.5l-1.1,0.7l-1,0.7c-2.5,1.7-5,3.3-7.3,5.2c-1.6,1.3-3.1,2.9-4.6,4.3l-1.1,1
							l-0.4,0.4l-0.2,0.2c-0.9,0.8-1.8,1.6-2.7,2.3c-0.6,0.5-1.2,0.9-1.9,1.3c0.2-0.1-0.3,0.1-0.6,0.3h-0.1l-0.2-0.1
							c-0.3-0.2-0.6-0.3-0.9-0.5c-0.5-0.3-1-0.6-1.5-1c-1-0.7-2.1-1.3-3.1-2c-4.1-2.8-8-6-11.5-9.5c-0.4-0.4-0.8-0.8-1.2-1.2
							c-0.1-1.9-0.1-3.7-0.3-5.6c-0.1-1.3,0.5-2.6,1.5-3.4c1.3-1.1,2.9-1.9,4.6-2.3c9.6-2.5,19.2-3.2,27.8-1.4
							c5.5,1.4,5.7,1.7,5.8,6.5C339.8,16.8,339.8,18.2,339.8,19.5z"/>
						<path id="Path_4414-4" class="st0" d="M340.4,49.6l-1-0.4l-0.4-0.2l-0.5-0.2l-0.6-0.3c-0.5-0.2-1.1-0.4-1.6-0.7
							c-1.1-0.5-2.2-1-3.3-1.5c-3.1-1.5-6.1-3.2-9-5.1c3.3-2.1,6-5.2,8.9-8l0.6-0.6c0.3-0.3,0.6-0.5,1-0.8c1.3-1,2.6-1.8,3.9-2.7
							l0.5-0.3l1.1-0.7c0,5,0,10.1,0.2,15.1C340.1,45.4,340.2,47.5,340.4,49.6z"/>
						<path id="Path_4415-4" class="st5" d="M341.3,58.9c-0.3,0.1-0.7,0.3-1,0.4c-5.4,2.3-9.6,6.9-14.7,10c-0.3,0.2-0.6,0.3-0.9,0.5
							l0,0l-0.4,0.2c-0.7,0.3-1.4,0.6-2.1,0.8l-0.7,0.2l-0.7,0.1c-0.7,0.1-1.5,0.1-2.2,0h-0.4l-1-0.1c-0.8-0.1-1.5-0.2-2.3-0.3
							c-1.5-0.2-3-0.6-4.5-0.9c-0.9-0.2-1.7-0.5-2.5-0.8l-0.5-0.2h-0.1l-1.2-0.5c-0.7-0.3-1.4-0.7-2-1.1L304,67l-0.3-0.2h0l-0.5-0.5
							c0.1-0.9,0.1-1.9,0-2.8c0-0.2,0-0.4,0-0.6l0.9-0.6c6-4,12.4-8.4,16.4-14.7c6.1,3.9,12.7,7.1,19.6,9.5l1.1,0.4
							C341.2,57.9,341.2,58.4,341.3,58.9z"/>
						<path id="Path_4416-4" class="st6" d="M319.9,113.3c-1.4,2.5-2.6,5.2-3.8,7.8c-2.6,6.1-5.2,12.1-8.9,17.5
							c-5.9,8.5-13.8,11.5-23.3,9.5c-7.6-1.6-12.3-7.4-13.4-16.1c-0.8-6.6,0.5-13.3,3.5-19.2c3.6-7.4,8.4-13.8,13.1-20.3
							c4.4-6,9-11.8,13.1-18c0.2-0.3,0.4-0.6,0.6-1c0.3,0.2,0.6,0.4,0.9,0.5c1.7,0.9,3.5,1.7,5.4,2.3c2.1,0.7,4.2,1.2,6.3,1.5
							c1.7,0.9,3.4,1.8,4.1,3.7c0.3,0.9,0.6,1.8,0.8,2.7c0.3,9.1,0.3,18.2,1.3,27.2C319.7,112.1,319.8,112.7,319.9,113.3z"/>
						<path id="Path_4417-4" class="st0" d="M342.4,92c-1.6,1.4-3.2,2.6-5,3.7c-4,2.6-7.9,5.2-11.3,8.8l-0.2,0.2l-0.1-1.4
							c-0.4-7.1-0.4-14.2-0.7-21.2c0.5-2,1.4-4,2.6-5.7c2.6-1.5,5.2-3.3,7.5-5.3c1.5-1.2,2.9-2.3,4.5-3.3c0.4-0.3,0.8-0.5,1.2-0.8
							l0.5-0.3h0.1l0,0h0.1l0.9-0.4c0.7,3.6,1.5,7.2,2.4,10.7c0.5,1.9,0.8,3.9,1,5.9C346.2,86.4,344.9,89.7,342.4,92z"/>
						<path id="Path_4418-4" class="st7" d="M270.3,128.4c1.3,2,3.5,3.4,5.9,3.9c2.3,0.4,4.7,0.4,7,0.2"/>
						<path id="Path_4419-4" class="st8" d="M307,10.6c-0.2,1.7-0.1,3.4,0.4,5"/>
						<path id="Path_4420-4" class="st8" d="M310.7,9.3l0.2,4c0,0.5,0.1,1,0.2,1.4"/>
						<path id="Path_4421-4" class="st8" d="M317.7,8.6c0.2,1.3,0.3,2.7,0.3,4"/>
						<path id="Path_4422-4" class="st8" d="M314,9.1l0.2,3.1"/>
						<path id="Path_4423-4" class="st8" d="M322.4,8.5v3.9"/>
						<path id="Path_4424-4" class="st8" d="M327.9,8.5c-0.2,1.3-0.5,2.6-0.9,3.9"/>
						<path id="Path_4425-4" class="st8" d="M332.5,9.5c-0.3,1.4-0.6,2.8-0.9,4.3"/>
					</g>
					<g id="Group_2-5">
						<path id="Path_4412-5" class="st0" d="M227.9,234.9l-0.2,0.3c-0.1,0.1-0.3,0.4-0.3,0.4l-0.6,0.8c-0.7,0.9-1.4,1.8-2.1,2.6
							c-0.4,0.4-0.8,0.9-1.3,1.3l-0.1,0.1l0,0l-0.7,0.7c-2.1,1.8-4.2,3.5-6.5,5l-1,0.6c-0.5-7.5-1-15-1.4-22.6l1.1,0.9
							c2,1.7,4.2,3.2,6.3,4.8c2.1,1.5,4.2,2.9,6.4,4.3l0.3,0.1C227.9,234.5,227.9,234.7,227.9,234.9z"/>
						<path id="Path_4413-5" class="st4" d="M252.6,211.6l-1.1,0.8l-1,0.7c-2.4,1.7-5,3.3-7.3,5.2c-1.6,1.3-3.1,2.8-4.6,4.3l-1.1,1
							L237,224l-0.2,0.2c-0.9,0.8-1.8,1.6-2.7,2.3c-0.6,0.5-1.2,0.9-1.9,1.3c0.2-0.1-0.3,0.1-0.6,0.3h-0.1l-0.2-0.1
							c-0.3-0.2-0.6-0.3-0.9-0.5c-0.5-0.3-1-0.6-1.5-0.9c-1-0.7-2.1-1.3-3.1-2c-4.1-2.8-8-6-11.5-9.5c-0.4-0.4-0.8-0.8-1.2-1.2
							c-0.1-1.9-0.2-3.7-0.3-5.6c-0.1-1.3,0.5-2.6,1.5-3.4c1.3-1.1,2.9-1.9,4.6-2.3c9.6-2.6,19.2-3.2,27.9-1.5
							c5.4,1.4,5.7,1.7,5.8,6.5C252.6,208.9,252.6,210.2,252.6,211.6z"/>
						<path id="Path_4414-5" class="st0" d="M253.2,241.7l-1-0.4l-0.4-0.1l-0.5-0.2l-0.6-0.3c-0.5-0.2-1.1-0.4-1.6-0.7
							c-1.1-0.5-2.2-1-3.3-1.5c-3.1-1.5-6.1-3.2-8.9-5.1c3.3-2.1,6.1-5.2,8.9-7.9l0.6-0.6c0.3-0.3,0.6-0.5,1-0.8
							c1.3-0.9,2.6-1.8,3.9-2.7l0.5-0.3l1.1-0.7c0,5,0,10.1,0.2,15.1C253,237.5,253.1,239.6,253.2,241.7z"/>
						<path id="Path_4415-5" class="st5" d="M254.1,250.9c-0.3,0.1-0.7,0.3-1,0.4c-5.4,2.3-9.6,6.9-14.7,10
							c-0.3,0.2-0.6,0.3-0.9,0.5l0,0l-0.4,0.2c-0.7,0.3-1.4,0.6-2.1,0.8l-0.7,0.2l-0.7,0.1c-0.7,0.1-1.5,0.1-2.2,0h-0.4l-0.9-0.1
							c-0.8-0.1-1.5-0.2-2.3-0.3c-1.5-0.2-3-0.5-4.5-0.9c-0.9-0.2-1.7-0.5-2.5-0.8l-0.5-0.2h-0.1c-0.4-0.2-0.8-0.4-1.2-0.5
							c-0.7-0.3-1.4-0.7-2-1.1l-0.1-0.1l-0.3-0.2l-0.1,0l-0.6-0.5c0.1-0.9,0.1-1.9,0-2.8c0-0.2,0-0.4,0-0.6l0.9-0.6
							c6-4,12.4-8.4,16.4-14.7c6.2,4,12.8,7.2,19.7,9.5l1.1,0.4C254,250,254,250.5,254.1,250.9z"/>
						<path id="Path_4416-5" class="st6" d="M232.7,305.4c-1.4,2.5-2.6,5.1-3.8,7.8c-2.6,6-5.2,12.1-8.9,17.5
							c-5.9,8.5-13.8,11.5-23.3,9.5c-7.6-1.5-12.3-7.4-13.4-16.1c-0.8-6.6,0.5-13.3,3.5-19.2c3.6-7.4,8.4-13.9,13.1-20.4
							c4.4-6,9-11.8,13.1-18c0.2-0.3,0.4-0.6,0.6-1c0.3,0.2,0.6,0.4,0.9,0.5c1.7,0.9,3.5,1.7,5.4,2.3c2.1,0.7,4.2,1.1,6.3,1.5
							c1.7,0.9,3.4,1.8,4.1,3.7c0.3,0.9,0.6,1.8,0.8,2.7c0.3,9.1,0.3,18.2,1.3,27.2C232.5,304.1,232.6,304.8,232.7,305.4z"/>
						<path id="Path_4417-5" class="st0" d="M255.2,284c-1.6,1.4-3.2,2.6-5,3.7c-4,2.6-7.9,5.2-11.3,8.8l-0.2,0.2l-0.1-1.4
							c-0.4-7-0.4-14.1-0.7-21.2c0.5-2,1.4-4,2.6-5.7c2.7-1.5,5.2-3.3,7.5-5.3c1.5-1.1,2.9-2.3,4.5-3.3c0.4-0.3,0.8-0.5,1.2-0.8
							l0.5-0.3h0.1l0,0h0.1l0.9-0.4c0.6,3.6,1.4,7.2,2.4,10.7c0.5,1.9,0.8,3.9,1,5.9C259,278.4,257.7,281.7,255.2,284z"/>
						<path id="Path_4418-5" class="st7" d="M183.1,320.5c1.3,2,3.4,3.4,5.9,3.9c2.3,0.4,4.7,0.4,7,0.2"/>
						<path id="Path_4419-5" class="st8" d="M219.8,202.7c-0.2,1.7-0.1,3.4,0.4,5"/>
						<path id="Path_4420-5" class="st8" d="M223.5,201.4l0.2,4c0,0.5,0.1,1,0.2,1.4"/>
						<path id="Path_4421-5" class="st8" d="M230.5,200.7c0.2,1.3,0.3,2.6,0.3,3.9"/>
						<path id="Path_4422-5" class="st8" d="M226.8,201.1l0.2,3.1"/>
						<path id="Path_4423-5" class="st8" d="M235.2,200.6v3.9"/>
						<path id="Path_4424-5" class="st8" d="M240.7,200.6c-0.2,1.3-0.5,2.6-0.9,3.9"/>
						<path id="Path_4425-5" class="st8" d="M245.3,201.6c-0.3,1.4-0.6,2.8-0.9,4.3"/>
					</g>
					<g id="Group_2-6">
						<path id="Path_4412-6" class="st0" d="M412.4,142.4l-0.2,0.3c-0.1,0.1-0.3,0.4-0.3,0.4l-0.5,0.8c-0.7,0.9-1.4,1.8-2.1,2.6
							c-0.4,0.4-0.8,0.9-1.3,1.3l-0.1,0.1l0,0c-0.2,0.2-0.5,0.4-0.7,0.7c-2.1,1.8-4.2,3.5-6.5,5l-1,0.6c-0.5-7.5-1-15-1.5-22.6
							l1.1,0.9c2,1.7,4.2,3.2,6.3,4.8c2.1,1.5,4.2,2.9,6.5,4.3l0.3,0.1C412.3,142,412.3,142.2,412.4,142.4z"/>
						<path id="Path_4413-6" class="st4" d="M437,119.1l-1.1,0.8l-1,0.7c-2.5,1.7-5,3.3-7.3,5.2c-1.6,1.3-3.1,2.8-4.6,4.3l-1.1,1.1
							l-0.5,0.4c-0.1,0.1-0.1,0.2-0.2,0.2c-0.9,0.8-1.8,1.6-2.7,2.3c-0.6,0.5-1.2,0.9-1.9,1.3c0.2-0.1-0.3,0.1-0.6,0.3h-0.1
							l-0.2-0.1c-0.3-0.2-0.6-0.3-0.9-0.5c-0.5-0.3-1-0.6-1.5-0.9c-1-0.7-2.1-1.3-3.1-2c-4.1-2.8-8-6-11.5-9.5
							c-0.4-0.4-0.8-0.8-1.2-1.2c-0.1-1.9-0.2-3.7-0.3-5.6c-0.1-1.3,0.5-2.6,1.5-3.4c1.3-1.1,2.9-1.9,4.6-2.3
							c9.6-2.6,19.2-3.2,27.9-1.5c5.4,1.4,5.7,1.7,5.8,6.5C437,116.4,437,117.7,437,119.1z"/>
						<path id="Path_4414-6" class="st0" d="M437.6,149.2l-1-0.4l-0.4-0.1l-0.5-0.2l-0.6-0.3c-0.5-0.2-1.1-0.4-1.6-0.7
							c-1.1-0.5-2.2-1-3.3-1.5c-3.1-1.5-6.1-3.2-9-5.1c3.3-2.1,6.1-5.2,8.9-7.9l0.6-0.6c0.3-0.3,0.6-0.5,1-0.8
							c1.3-1,2.6-1.8,3.9-2.7l0.5-0.3l1.1-0.7c0,5,0,10.1,0.2,15.1C437.4,145,437.5,147.1,437.6,149.2z"/>
						<path id="Path_4415-6" class="st5" d="M438.5,158.4c-0.3,0.1-0.7,0.3-1,0.4c-5.4,2.3-9.6,6.9-14.7,10
							c-0.3,0.2-0.6,0.3-0.9,0.5l0,0l-0.4,0.2c-0.7,0.3-1.4,0.6-2.1,0.8l-0.7,0.2l-0.7,0.1c-0.7,0.1-1.5,0.1-2.2,0h-0.4l-1-0.1
							c-0.8-0.1-1.5-0.2-2.3-0.3c-1.5-0.2-3-0.6-4.5-0.9c-0.9-0.2-1.7-0.5-2.5-0.8l-0.5-0.2h-0.1c-0.4-0.2-0.8-0.4-1.2-0.5
							c-0.7-0.3-1.4-0.7-2-1.1l-0.1-0.1l-0.3-0.2l0-0.1l-0.5-0.5c0.1-0.9,0.1-1.9,0-2.8c0-0.2,0-0.4,0-0.6l0.9-0.6
							c6-4,12.4-8.4,16.4-14.7c6.2,4,12.8,7.2,19.7,9.5l1.1,0.4C438.4,157.5,438.5,158,438.5,158.4z"/>
						<path id="Path_4416-6" class="st6" d="M417.1,212.8c-1.4,2.5-2.6,5.1-3.8,7.8c-2.6,6-5.2,12.1-8.9,17.5
							c-5.9,8.5-13.8,11.5-23.3,9.5c-7.6-1.5-12.3-7.4-13.4-16.1c-0.7-6.6,0.5-13.3,3.5-19.2c3.6-7.4,8.4-13.9,13.1-20.4
							c4.4-6,9-11.8,13.1-18c0.2-0.3,0.4-0.6,0.6-1c0.3,0.2,0.6,0.4,0.9,0.5c1.7,0.9,3.5,1.7,5.3,2.3c2.1,0.7,4.2,1.2,6.3,1.5
							c1.7,0.9,3.4,1.8,4.1,3.7c0.3,0.9,0.6,1.8,0.8,2.7c0.3,9.1,0.3,18.2,1.3,27.2C417,211.6,417,212.2,417.1,212.8z"/>
						<path id="Path_4417-6" class="st0" d="M439.6,191.5c-1.6,1.4-3.2,2.6-5,3.7c-4,2.6-7.9,5.2-11.3,8.8l-0.2,0.2l-0.1-1.4
							c-0.4-7-0.4-14.1-0.7-21.2c0.5-2,1.4-4,2.6-5.7c2.7-1.5,5.2-3.3,7.5-5.3c1.5-1.1,2.9-2.3,4.5-3.3c0.4-0.3,0.8-0.5,1.2-0.8
							l0.5-0.3l0,0l0,0h0.1l0.9-0.4c0.6,3.6,1.4,7.2,2.4,10.7c0.5,1.9,0.8,3.9,1,5.9C443.4,185.9,442.1,189.2,439.6,191.5z"/>
						<path id="Path_4418-6" class="st7" d="M367.5,228c1.3,2,3.4,3.4,5.9,3.9c2.3,0.4,4.7,0.4,7,0.2"/>
						<path id="Path_4419-6" class="st8" d="M404.2,110.1c-0.2,1.7-0.1,3.4,0.4,5"/>
						<path id="Path_4420-6" class="st8" d="M407.9,108.8l0.2,4c0,0.5,0.1,1,0.2,1.4"/>
						<path id="Path_4421-6" class="st8" d="M414.9,108.2c0.2,1.3,0.3,2.7,0.3,4"/>
						<path id="Path_4422-6" class="st8" d="M411.2,108.6l0.2,3.1"/>
						<path id="Path_4423-6" class="st8" d="M419.6,108.1v3.9"/>
						<path id="Path_4424-6" class="st8" d="M425.2,108.1c-0.2,1.3-0.5,2.6-0.9,3.9"/>
						<path id="Path_4425-6" class="st8" d="M429.8,109.1c-0.3,1.4-0.6,2.8-0.9,4.3"/>
					</g>
					<g id="Group_2-7">
						<path id="Path_4412-7" class="st0" d="M463.5-62.1l-0.2,0.3l-0.3,0.4l-0.5,0.8c-0.7,0.9-1.4,1.8-2.2,2.6
							c-0.4,0.4-0.8,0.9-1.3,1.3l-0.1,0.1l0,0l-0.7,0.7c-2,1.8-4.2,3.5-6.5,5l-1,0.7c-0.5-7.5-1-15.1-1.4-22.6l1.1,0.9
							c2,1.7,4.1,3.3,6.3,4.8c2.1,1.5,4.2,2.9,6.5,4.3l0.3,0.2C463.4-62.6,463.4-62.3,463.5-62.1z"/>
						<path id="Path_4413-7" class="st4" d="M488.1-85.4l-1.1,0.8l-1,0.7c-2.5,1.7-5,3.3-7.3,5.2c-1.6,1.3-3.1,2.8-4.6,4.3l-1.1,1
							l-0.5,0.4l-0.2,0.2c-0.9,0.8-1.8,1.6-2.7,2.3c-0.6,0.5-1.2,0.9-1.9,1.3c0.2-0.1-0.3,0.1-0.6,0.3H467l-0.2-0.1l-0.9-0.5
							c-0.5-0.3-1-0.6-1.5-1c-1-0.7-2.1-1.3-3.1-2c-4.1-2.8-8-5.9-11.6-9.3c-0.4-0.4-0.8-0.8-1.1-1.2c-0.1-1.9-0.2-3.7-0.3-5.6
							c-0.1-1.3,0.5-2.6,1.5-3.4c1.3-1.1,2.9-1.9,4.6-2.3c9.6-2.6,19.2-3.2,27.9-1.5c5.4,1.4,5.7,1.7,5.8,6.5
							C488.1-88.2,488.1-86.8,488.1-85.4z"/>
						<path id="Path_4414-7" class="st0" d="M488.7-55.3l-1-0.4l-0.4-0.2l-0.5-0.2l-0.6-0.2c-0.5-0.2-1.1-0.5-1.6-0.7
							c-1.1-0.5-2.2-1-3.3-1.5c-3.1-1.5-6.1-3.2-9-5.1c3.3-2.1,6.1-5.2,8.9-8l0.6-0.6c0.3-0.3,0.6-0.5,1-0.8c1.3-1,2.6-1.8,3.9-2.7
							l0.5-0.3l1.1-0.7c0,5,0,10.1,0.2,15.1C488.4-59.5,488.6-57.4,488.7-55.3z"/>
						<path id="Path_4415-7" class="st5" d="M489.6-46.1c-0.3,0.1-0.7,0.3-1,0.4c-5.4,2.3-9.6,6.9-14.7,10l-0.9,0.5l0,0l-0.4,0.2
							c-0.7,0.3-1.4,0.6-2.1,0.8c-0.1,0-0.5,0.1-0.7,0.2l-0.7,0.1c-0.7,0.1-1.5,0.1-2.2,0h-0.4l-1-0.1c-0.8-0.1-1.5-0.2-2.3-0.3
							c-1.5-0.3-3-0.5-4.5-1c-0.9-0.2-1.7-0.5-2.5-0.8l-0.5-0.2h-0.1c-0.4-0.2-0.8-0.3-1.2-0.5c-0.7-0.3-1.4-0.7-2-1.1l-0.1-0.1
							l-0.3-0.2l-0.1,0l-0.5-0.5c0.1-0.9,0.1-1.9,0-2.8c0-0.2,0-0.4,0-0.6l0.9-0.6c6-4,12.4-8.4,16.4-14.7c6.2,4,12.8,7.2,19.7,9.5
							c0.4,0.1,0.7,0.3,1.1,0.4C489.5-47,489.6-46.6,489.6-46.1z"/>
						<path id="Path_4416-7" class="st6" d="M468.2,8.3c-1.4,2.5-2.6,5.1-3.8,7.8c-2.6,6-5.2,12.1-8.9,17.5
							c-5.9,8.5-13.8,11.5-23.3,9.5c-7.6-1.5-12.3-7.4-13.4-16.1c-0.8-6.6,0.5-13.3,3.5-19.2c3.6-7.4,8.4-13.9,13.1-20.4
							c4.4-6,9-11.8,13.1-18c0.2-0.3,0.4-0.6,0.6-1c0.3,0.2,0.6,0.4,0.9,0.5c1.7,0.9,3.5,1.7,5.3,2.3c2.1,0.7,4.2,1.2,6.3,1.5
							c1.7,0.9,3.4,1.8,4.1,3.7c0.3,0.9,0.6,1.8,0.8,2.7C467-11.6,467-2.5,468,6.5C468.1,7.1,468.2,7.7,468.2,8.3z"/>
						<path id="Path_4417-7" class="st0" d="M490.7-13c-1.6,1.4-3.2,2.6-5,3.7c-4,2.6-7.9,5.2-11.3,8.8c-0.1,0.1-0.1,0.2-0.2,0.2
							c0-0.5-0.1-1-0.1-1.4c-0.4-7-0.4-14.1-0.7-21.2c0.5-2,1.4-4,2.6-5.7c2.6-1.5,5.2-3.3,7.5-5.3c1.5-1.2,2.9-2.3,4.5-3.3
							c0.4-0.3,0.8-0.5,1.2-0.8l0.5-0.3l0,0l0,0h0.1c0.3-0.2,0.6-0.3,0.9-0.4c0.6,3.6,1.4,7.2,2.4,10.7c0.5,1.9,0.8,3.9,1,5.9
							C494.5-18.6,493.2-15.3,490.7-13z"/>
						<path id="Path_4418-7" class="st7" d="M418.6,23.5c1.3,2,3.5,3.4,5.9,3.9c2.3,0.4,4.7,0.4,7,0.2"/>
						<path id="Path_4419-7" class="st8" d="M455.3-94.4c-0.2,1.7-0.1,3.4,0.4,5"/>
						<path id="Path_4420-7" class="st8" d="M459-95.7l0.2,4c0,0.5,0.1,1,0.2,1.4"/>
						<path id="Path_4421-7" class="st8" d="M466.1-96.3c0.2,1.3,0.3,2.6,0.3,3.9"/>
						<path id="Path_4422-7" class="st8" d="M462.3-95.9l0.2,3.1"/>
						<path id="Path_4423-7" class="st8" d="M470.7-96.4v3.9"/>
						<path id="Path_4424-7" class="st8" d="M476.3-96.4c-0.2,1.3-0.5,2.6-0.9,3.9"/>
						<path id="Path_4425-7" class="st8" d="M480.9-95.4c-0.2,1.4-0.6,2.8-0.9,4.3"/>
					</g>
					<g id="Group_2-8">
						<path id="Path_4412-8" class="st0" d="M564.2,50.4l-0.2,0.3c-0.1,0.1-0.3,0.4-0.3,0.4c-0.2,0.3-0.4,0.5-0.6,0.8
							c-0.7,0.9-1.4,1.8-2.2,2.6c-0.4,0.4-0.8,0.8-1.3,1.3l-0.1,0.1l0,0l-0.7,0.7c-2,1.8-4.2,3.5-6.5,5l-1,0.7
							c-0.5-7.5-1-15-1.4-22.6c0.4,0.3,0.7,0.6,1.1,0.9c2,1.7,4.2,3.2,6.3,4.8c2.1,1.5,4.2,2.9,6.5,4.3l0.3,0.2
							C564.1,50,564.2,50.2,564.2,50.4z"/>
						<path id="Path_4413-8" class="st4" d="M588.9,27.1l-1.1,0.8l-1,0.7c-2.5,1.7-5,3.3-7.3,5.2c-1.6,1.3-3.1,2.8-4.6,4.3l-1.1,1
							l-0.4,0.4l-0.2,0.2c-0.9,0.8-1.8,1.6-2.7,2.3c-0.6,0.5-1.2,0.9-1.8,1.3c0.2-0.1-0.3,0.1-0.6,0.3h-0.1l-0.2-0.1l-0.9-0.5
							c-0.5-0.3-1-0.6-1.5-1c-1-0.7-2.1-1.3-3.1-2c-4.1-2.8-8-6-11.5-9.5c-0.4-0.4-0.8-0.8-1.2-1.2c-0.1-1.9-0.2-3.7-0.3-5.6
							c-0.1-1.3,0.5-2.6,1.5-3.4c1.3-1.1,2.9-1.9,4.5-2.3c9.6-2.6,19.2-3.2,27.9-1.5c5.5,1.4,5.7,1.7,5.8,6.5
							C588.9,24.4,588.9,25.7,588.9,27.1z"/>
						<path id="Path_4414-8" class="st0" d="M589.5,57.2l-1-0.4l-0.4-0.1l-0.5-0.2l-0.6-0.3c-0.5-0.2-1.1-0.4-1.6-0.7
							c-1.1-0.5-2.2-1-3.3-1.5c-3.1-1.5-6-3.2-8.9-5.1c3.3-2.1,6-5.2,8.9-8l0.7-0.6c0.3-0.3,0.6-0.5,1-0.8c1.3-1,2.6-1.8,3.9-2.7
							l0.5-0.3l1.1-0.7c0,5,0,10.1,0.2,15.1C589.2,53,589.3,55.1,589.5,57.2z"/>
						<path id="Path_4415-8" class="st5" d="M590.4,66.4c-0.3,0.1-0.7,0.3-1,0.4c-5.4,2.3-9.6,6.9-14.7,10l-0.9,0.5l0,0l-0.3,0.2
							c-0.7,0.3-1.4,0.6-2.1,0.8l-0.7,0.2l-0.7,0.1c-0.7,0.1-1.5,0.1-2.2,0h-0.4l-1-0.1c-0.8-0.1-1.5-0.2-2.3-0.3
							c-1.5-0.2-3-0.6-4.5-0.9c-0.8-0.2-1.7-0.5-2.5-0.8l-0.5-0.2h-0.1l-1.2-0.5c-0.7-0.3-1.4-0.7-2-1.1l-0.2-0.1l-0.3-0.2
							c0,0,0,0,0,0l-0.5-0.5c0.1-0.9,0.1-1.9,0-2.8c0-0.2,0-0.4,0-0.6l0.9-0.6c6-4,12.4-8.4,16.4-14.7c6.2,4,12.8,7.2,19.7,9.5
							l1.1,0.4C590.3,65.5,590.3,66,590.4,66.4z"/>
						<path id="Path_4416-8" class="st6" d="M569,120.9c-1.4,2.5-2.6,5.1-3.8,7.8c-2.6,6-5.2,12.1-8.9,17.5
							c-5.9,8.5-13.8,11.5-23.3,9.5c-7.6-1.5-12.3-7.4-13.4-16.1c-0.8-6.6,0.5-13.3,3.5-19.2c3.6-7.4,8.4-13.9,13.1-20.4
							c4.4-6,9-11.8,13.1-18c0.2-0.3,0.4-0.6,0.6-1c0.3,0.2,0.6,0.4,0.9,0.5c1.7,0.9,3.5,1.7,5.3,2.3c2.1,0.7,4.2,1.2,6.3,1.5
							c1.7,0.9,3.4,1.8,4.2,3.7c0.3,0.9,0.6,1.8,0.8,2.7c0.3,9.1,0.3,18.2,1.3,27.2C568.8,119.7,568.9,120.3,569,120.9z"/>
						<path id="Path_4417-8" class="st0" d="M591.4,99.5c-1.6,1.4-3.2,2.6-5,3.7c-4,2.6-7.9,5.2-11.3,8.8l-0.2,0.2l-0.1-1.4
							c-0.4-7-0.4-14.1-0.7-21.2c0.5-2,1.3-3.9,2.6-5.6c2.6-1.5,5.2-3.3,7.5-5.3c1.5-1.2,2.9-2.3,4.5-3.3c0.4-0.3,0.8-0.5,1.2-0.8
							l0.5-0.3h0.1l0,0h0.1c0.3-0.2,0.6-0.3,0.9-0.4c0.6,3.6,1.4,7.2,2.4,10.7c0.5,1.9,0.8,3.9,1,5.9
							C595.2,93.9,594,97.3,591.4,99.5z"/>
						<path id="Path_4418-8" class="st7" d="M519.4,136c1.3,2,3.5,3.4,5.8,3.9c2.3,0.4,4.7,0.4,7,0.2"/>
						<path id="Path_4419-8" class="st8" d="M556,18.2c-0.2,1.7-0.1,3.4,0.3,5"/>
						<path id="Path_4420-8" class="st8" d="M559.8,16.9l0.2,4c0,0.5,0.1,1,0.2,1.4"/>
						<path id="Path_4421-8" class="st8" d="M566.8,16.2c0.2,1.3,0.3,2.6,0.3,4"/>
						<path id="Path_4422-8" class="st8" d="M563.1,16.6l0.2,3.1"/>
						<path id="Path_4423-8" class="st8" d="M571.4,16.1V20"/>
						<path id="Path_4424-8" class="st8" d="M577,16.1c-0.2,1.3-0.5,2.6-0.9,3.9"/>
						<path id="Path_4425-8" class="st8" d="M581.6,17.1c-0.3,1.4-0.6,2.9-0.9,4.3"/>
					</g>
					<g id="Group_2-9">
						<path id="Path_4412-9" class="st0" d="M532.6,236l-0.2,0.3c-0.1,0.1-0.3,0.4-0.3,0.4c-0.2,0.3-0.4,0.5-0.5,0.8
							c-0.7,0.9-1.4,1.8-2.2,2.6c-0.4,0.4-0.8,0.9-1.3,1.3l-0.1,0.1l0,0l-0.7,0.6c-2,1.8-4.2,3.5-6.5,5l-1,0.7
							c-0.5-7.5-1-15-1.5-22.6l1.1,0.9c2,1.7,4.2,3.2,6.3,4.8c2.1,1.5,4.2,2.9,6.5,4.3l0.3,0.1C532.6,235.5,532.6,235.8,532.6,236z"
							/>
						<path id="Path_4413-9" class="st4" d="M557.3,212.7l-1.1,0.8l-1,0.7c-2.5,1.7-5,3.3-7.3,5.2c-1.6,1.3-3.1,2.8-4.6,4.3l-1.1,1
							l-0.5,0.4c-0.1,0.1-0.1,0.2-0.2,0.2c-0.9,0.8-1.8,1.6-2.7,2.3c-0.6,0.5-1.2,0.9-1.8,1.3c0.2-0.1-0.3,0.1-0.6,0.3h-0.1L536,229
							l-0.9-0.5c-0.5-0.3-1-0.6-1.5-0.9c-1-0.7-2.1-1.3-3.1-2c-4.1-2.8-8-6-11.5-9.5c-0.4-0.4-0.8-0.8-1.2-1.2
							c-0.1-1.9-0.2-3.7-0.3-5.6c-0.1-1.3,0.5-2.6,1.5-3.4c1.3-1.1,2.9-1.9,4.6-2.3c9.6-2.6,19.2-3.2,27.9-1.5
							c5.4,1.4,5.7,1.7,5.8,6.5C557.3,210,557.3,211.3,557.3,212.7z"/>
						<path id="Path_4414-9" class="st0" d="M557.9,242.8l-1-0.4l-0.4-0.1l-0.5-0.2l-0.6-0.3c-0.5-0.2-1.1-0.4-1.6-0.7
							c-1.1-0.5-2.2-1-3.3-1.5c-3.1-1.5-6.1-3.2-9-5.1c3.3-2.1,6.1-5.2,8.9-8l0.7-0.5c0.3-0.3,0.6-0.5,1-0.8c1.3-1,2.6-1.8,3.9-2.7
							l0.5-0.3l1.1-0.7c0,5,0,10.1,0.2,15.1C557.6,238.6,557.7,240.7,557.9,242.8z"/>
						<path id="Path_4415-9" class="st5" d="M558.8,252c-0.3,0.1-0.7,0.3-1,0.4c-5.4,2.3-9.6,6.9-14.7,10l-0.9,0.5l0,0l-0.4,0.2
							c-0.7,0.3-1.4,0.6-2.1,0.8l-0.7,0.2l-0.7,0.1c-0.7,0.1-1.5,0.1-2.2,0h-0.4l-1-0.1c-0.8-0.1-1.5-0.2-2.3-0.3
							c-1.5-0.2-3-0.5-4.5-0.9c-0.8-0.2-1.7-0.5-2.5-0.8l-0.5-0.2h-0.1c-0.4-0.2-0.8-0.4-1.2-0.5c-0.7-0.3-1.4-0.7-2-1.1l-0.1-0.1
							l-0.3-0.2l0,0l-0.5-0.5c0.1-0.9,0.1-1.9,0-2.8c0-0.2,0-0.4,0-0.6l0.9-0.6c6-4,12.4-8.4,16.4-14.7c6.2,4,12.8,7.2,19.7,9.5
							l1.1,0.4C558.7,251.1,558.7,251.6,558.8,252z"/>
						<path id="Path_4416-9" class="st6" d="M537.4,306.5c-1.4,2.5-2.6,5.1-3.8,7.8c-2.7,6-5.2,12.1-8.9,17.5
							c-5.9,8.5-13.8,11.5-23.3,9.5c-7.6-1.5-12.3-7.4-13.4-16.1c-0.7-6.6,0.5-13.3,3.5-19.2c3.6-7.4,8.4-13.9,13.1-20.4
							c4.4-6,9-11.8,13.1-18c0.2-0.3,0.4-0.6,0.6-1c0.3,0.2,0.6,0.4,0.9,0.5c1.7,0.9,3.5,1.7,5.3,2.3c2.1,0.7,4.2,1.2,6.3,1.5
							c1.7,0.9,3.4,1.8,4.2,3.7c0.3,0.9,0.6,1.8,0.8,2.7c0.3,9.1,0.3,18.2,1.3,27.2C537.3,305.2,537.3,305.8,537.4,306.5z"/>
						<path id="Path_4417-9" class="st0" d="M559.9,285.1c-1.6,1.4-3.2,2.6-5,3.7c-4,2.6-7.9,5.2-11.3,8.8c-0.1,0.1-0.1,0.2-0.2,0.2
							l-0.1-1.4c-0.4-7-0.4-14.1-0.7-21.2c0.5-2,1.4-4,2.6-5.7c2.6-1.5,5.2-3.3,7.5-5.3c1.5-1.2,2.9-2.3,4.5-3.3
							c0.4-0.3,0.8-0.5,1.2-0.7l0.5-0.3l0,0l0,0h0.1c0.3-0.1,0.6-0.3,0.9-0.4c0.7,3.6,1.4,7.2,2.4,10.7c0.5,1.9,0.8,3.9,1,5.9
							C563.6,279.5,562.4,282.8,559.9,285.1z"/>
						<path id="Path_4418-9" class="st7" d="M487.8,321.6c1.3,2,3.5,3.4,5.9,3.9c2.3,0.4,4.7,0.4,7,0.2"/>
						<path id="Path_4419-9" class="st8" d="M524.5,203.8c-0.2,1.7-0.1,3.4,0.3,5"/>
						<path id="Path_4420-9" class="st8" d="M528.2,202.4l0.2,4c0,0.5,0.1,1,0.2,1.4"/>
						<path id="Path_4421-9" class="st8" d="M535.2,201.8c0.2,1.3,0.3,2.6,0.3,3.9"/>
						<path id="Path_4422-9" class="st8" d="M531.5,202.2l0.2,3.1"/>
						<path id="Path_4423-9" class="st8" d="M539.9,201.7v3.9"/>
						<path id="Path_4424-9" class="st8" d="M545.5,201.7c-0.2,1.3-0.5,2.6-0.9,3.9"/>
						<path id="Path_4425-9" class="st8" d="M550,202.7c-0.3,1.4-0.6,2.9-0.9,4.3"/>
					</g>
					<g id="Group_2-10">
						<path id="Path_4412-10" class="st0" d="M-23.1,203l-0.2,0.3l-0.3,0.4l-0.5,0.8c-0.7,0.9-1.4,1.8-2.2,2.6
							c-0.4,0.4-0.8,0.9-1.3,1.3l-0.1,0.1l0,0l-0.7,0.7c-2,1.8-4.2,3.5-6.5,5l-1,0.6c-0.5-7.5-1-15-1.5-22.6
							c0.4,0.3,0.7,0.6,1.1,0.9c2,1.7,4.2,3.3,6.3,4.8c2.1,1.5,4.2,2.9,6.4,4.3l0.3,0.1C-23.2,202.5-23.2,202.8-23.1,203z"/>
						<path id="Path_4413-10" class="st4" d="M1.5,179.7l-1.1,0.7l-1,0.7c-2.5,1.7-5,3.3-7.3,5.2c-1.6,1.3-3.1,2.9-4.6,4.3l-1.1,1.1
							l-0.4,0.4l-0.2,0.2c-0.9,0.8-1.8,1.6-2.7,2.3c-0.6,0.5-1.2,0.9-1.9,1.3c0.2-0.1-0.3,0.1-0.6,0.3h-0.1l-0.2-0.1
							c-0.3-0.2-0.6-0.3-0.9-0.5c-0.5-0.3-1-0.6-1.5-0.9c-1-0.7-2.1-1.3-3.1-2c-4.1-2.8-8-6-11.5-9.5c-0.4-0.4-0.8-0.8-1.2-1.2
							c-0.1-1.9-0.2-3.7-0.3-5.6c-0.1-1.3,0.5-2.6,1.5-3.4c1.3-1.1,2.9-1.9,4.5-2.3c9.6-2.6,19.2-3.2,27.9-1.5
							c5.4,1.4,5.7,1.7,5.8,6.5C1.5,177,1.5,178.3,1.5,179.7z"/>
						<path id="Path_4414-10" class="st0" d="M2.1,209.8l-1-0.4l-0.4-0.1l-0.5-0.2l-0.6-0.3l-1.6-0.7c-1.1-0.5-2.2-1-3.3-1.5
							c-3.1-1.5-6.1-3.2-9-5.1c3.3-2.1,6.1-5.2,8.9-8l0.6-0.6c0.3-0.3,0.6-0.6,1-0.8c1.3-1,2.6-1.8,3.9-2.7l0.5-0.3l1.1-0.7
							c0,5,0,10.1,0.2,15.1C1.8,205.6,1.9,207.7,2.1,209.8z"/>
						<path id="Path_4415-10" class="st5" d="M3,219c-0.3,0.1-0.7,0.3-1,0.4c-5.4,2.3-9.6,6.9-14.7,10c-0.3,0.2-0.6,0.4-0.9,0.5l0,0
							c-0.1,0.1-0.2,0.1-0.4,0.2c-0.7,0.3-1.4,0.6-2.1,0.9l-0.7,0.2l-0.7,0.1c-0.7,0.1-1.5,0.1-2.2,0H-20l-1-0.1
							c-0.8-0.1-1.5-0.2-2.3-0.3c-1.5-0.2-3-0.6-4.5-0.9c-0.9-0.2-1.7-0.5-2.5-0.8l-0.5-0.2H-31c-0.4-0.2-0.8-0.4-1.2-0.5
							c-0.7-0.3-1.4-0.7-2-1.1h-0.1c-0.1-0.1-0.2-0.1-0.3-0.2h-0.1l-0.5-0.5c0.1-0.9,0.1-1.9,0-2.8c0-0.2,0-0.4,0-0.6l0.9-0.6
							c6-4,12.4-8.4,16.4-14.7c6.2,4,12.8,7.2,19.7,9.5l1.1,0.4C2.9,218.1,3,218.6,3,219z"/>
						<path id="Path_4416-10" class="st6" d="M-18.4,273.4c-1.4,2.5-2.6,5.1-3.8,7.8c-2.6,6-5.2,12.1-8.9,17.5
							c-5.9,8.5-13.8,11.5-23.2,9.5c-7.6-1.5-12.3-7.4-13.4-16.1c-0.7-6.6,0.5-13.3,3.5-19.2c3.6-7.4,8.4-13.9,13.1-20.4
							c4.4-6,9-11.8,13.1-18c0.2-0.3,0.4-0.6,0.6-1c0.3,0.2,0.6,0.4,0.9,0.5c1.7,0.9,3.5,1.7,5.4,2.3c2.1,0.7,4.2,1.2,6.3,1.6
							c1.7,0.9,3.4,1.8,4.1,3.7c0.3,0.9,0.6,1.8,0.8,2.7c0.3,9.1,0.3,18.2,1.3,27.2C-18.5,272.2-18.5,272.8-18.4,273.4z"/>
						<path id="Path_4417-10" class="st0" d="M4.1,252.1c-1.6,1.4-3.2,2.6-5,3.7c-4,2.6-7.9,5.2-11.3,8.8l-0.2,0.2l-0.1-1.4
							c-0.4-7.1-0.4-14.1-0.7-21.2c0.5-2,1.4-4,2.6-5.7c2.7-1.5,5.2-3.3,7.5-5.3c1.5-1.2,2.9-2.3,4.5-3.3c0.4-0.3,0.8-0.5,1.2-0.8
							l0.5-0.3h0.1l0,0h0.1l0.9-0.4c0.7,3.6,1.4,7.2,2.4,10.7c0.5,1.9,0.8,3.9,1,5.9C7.9,246.5,6.6,249.9,4.1,252.1z"/>
						<path id="Path_4418-10" class="st7" d="M-68,288.6c1.3,2,3.5,3.4,5.8,3.9c2.3,0.4,4.7,0.4,7,0.2"/>
						<path id="Path_4419-10" class="st8" d="M-31.3,170.7c-0.2,1.7-0.1,3.4,0.4,5"/>
						<path id="Path_4420-10" class="st8" d="M-27.6,169.4l0.2,4c0,0.5,0.1,1,0.2,1.4"/>
						<path id="Path_4421-10" class="st8" d="M-20.6,168.8c0.2,1.3,0.3,2.7,0.3,4"/>
						<path id="Path_4422-10" class="st8" d="M-24.3,169.2l0.2,3.1"/>
						<path id="Path_4423-10" class="st8" d="M-15.9,168.7v3.9"/>
						<path id="Path_4424-10" class="st8" d="M-10.4,168.7c-0.2,1.3-0.5,2.6-0.9,3.9"/>
						<path id="Path_4425-10" class="st8" d="M-5.8,169.7c-0.3,1.4-0.6,2.8-0.9,4.3"/>
					</g>
					<g id="Group_2-11">
						<path id="Path_4412-11" class="st0" d="M-76.6,409.9c0,0.1-0.1,0.2-0.2,0.3s-0.3,0.4-0.3,0.4c-0.2,0.3-0.4,0.5-0.6,0.8
							c-0.7,0.9-1.4,1.8-2.2,2.6c-0.4,0.4-0.8,0.9-1.3,1.3l-0.1,0.1l0,0l-0.7,0.6c-2,1.8-4.2,3.5-6.5,5l-1,0.6
							c-0.5-7.5-1-15-1.4-22.6c0.3,0.3,0.7,0.6,1.1,0.9c2,1.7,4.2,3.2,6.3,4.8c2.1,1.5,4.2,2.9,6.4,4.3l0.3,0.1
							C-76.6,409.5-76.6,409.7-76.6,409.9z"/>
						<path id="Path_4413-11" class="st4" d="M-51.9,386.6l-1.1,0.8l-1,0.7c-2.5,1.7-5,3.3-7.3,5.2c-1.6,1.3-3.1,2.8-4.6,4.3
							c-0.4,0.4-0.7,0.7-1.1,1c0,0-0.4,0.4-0.4,0.4l-0.2,0.2c-0.9,0.8-1.8,1.6-2.7,2.3c-0.6,0.5-1.2,0.9-1.8,1.3
							c0.2-0.1-0.3,0.1-0.6,0.3H-73l-0.2-0.1c-0.3-0.2-0.6-0.3-0.9-0.5c-0.5-0.3-1-0.6-1.4-0.9c-1-0.7-2.1-1.3-3.1-2
							c-4.1-2.8-8-6-11.5-9.5c-0.4-0.4-0.8-0.8-1.2-1.2c-0.1-1.9-0.2-3.7-0.3-5.6c-0.1-1.3,0.5-2.6,1.5-3.4c1.3-1.1,2.9-1.9,4.6-2.3
							c9.6-2.6,19.2-3.2,27.9-1.5c5.5,1.4,5.7,1.7,5.8,6.5C-51.9,383.9-51.9,385.2-51.9,386.6z"/>
						<path id="Path_4414-11" class="st0" d="M-51.3,416.7l-1-0.4l-0.4-0.1l-0.5-0.2l-0.6-0.3c-0.5-0.2-1.1-0.4-1.6-0.7
							c-1.1-0.5-2.2-1-3.3-1.5c-3.1-1.5-6.1-3.2-8.9-5.1c3.3-2.1,6-5.2,8.9-8l0.7-0.6c0.3-0.3,0.6-0.5,1-0.8c1.3-1,2.6-1.8,3.9-2.7
							l0.3-0.3l1.1-0.7c0,5,0,10.1,0.2,15.1C-51.6,412.5-51.5,414.6-51.3,416.7z"/>
						<path id="Path_4415-11" class="st5" d="M-50.4,425.9c-0.3,0.1-0.7,0.3-1,0.4c-5.4,2.3-9.6,6.9-14.7,10l-0.9,0.5l0,0l-0.3,0.2
							c-0.7,0.3-1.4,0.6-2.1,0.8l-0.7,0.2l-0.7,0.1c-0.7,0.1-1.5,0.1-2.2,0h-0.4l-1-0.1c-0.8-0.1-1.5-0.2-2.3-0.3
							c-1.5-0.2-3-0.5-4.5-0.9c-0.8-0.2-1.7-0.5-2.5-0.8l-0.5-0.2h-0.1l-1.2-0.5c-0.7-0.3-1.4-0.7-2-1.1l-0.1-0.1l-0.3-0.2
							c0,0,0,0-0.1,0l-0.6-0.5c0.1-0.9,0.1-1.9,0-2.8c0-0.2,0-0.4,0-0.6l0.9-0.6c6-4,12.4-8.4,16.4-14.7c6.2,4,12.8,7.2,19.7,9.5
							l1.1,0.4C-50.5,425-50.5,425.4-50.4,425.9z"/>
						<path id="Path_4416-11" class="st6" d="M-71.8,480.3c-1.4,2.5-2.6,5.1-3.8,7.8c-2.6,6-5.2,12.1-8.9,17.5
							c-5.9,8.5-13.8,11.5-23.3,9.5c-7.6-1.5-12.3-7.4-13.4-16.1c-0.8-6.6,0.5-13.3,3.5-19.2c3.6-7.4,8.3-13.9,13.1-20.4
							c4.4-6,9-11.8,13.1-18c0.2-0.3,0.4-0.6,0.6-1c0.3,0.2,0.6,0.4,0.9,0.5c1.7,0.9,3.5,1.7,5.3,2.3c2.1,0.7,4.2,1.2,6.3,1.5
							c1.7,0.9,3.4,1.8,4.2,3.7c0.3,0.9,0.6,1.8,0.8,2.7c0.3,9.1,0.3,18.2,1.3,27.2C-72,479.1-71.9,479.7-71.8,480.3z"/>
						<path id="Path_4417-11" class="st0" d="M-49.3,459c-1.6,1.4-3.2,2.6-5,3.7c-4,2.6-7.9,5.2-11.2,8.8l-0.2,0.2l-0.1-1.4
							c-0.4-7-0.4-14.1-0.7-21.2c0.5-2,1.4-4,2.6-5.7c2.7-1.5,5.2-3.3,7.5-5.3c1.5-1.2,2.9-2.3,4.5-3.3c0.4-0.3,0.8-0.5,1.2-0.8
							l0.5-0.3h0.1l0,0h0.1c0.3-0.1,0.6-0.3,0.9-0.4c0.6,3.6,1.4,7.2,2.4,10.7c0.5,1.9,0.8,3.9,1,5.9
							C-45.5,453.4-46.8,456.7-49.3,459z"/>
						<path id="Path_4418-11" class="st7" d="M-121.4,495.5c1.3,2,3.5,3.4,5.8,3.9c2.3,0.4,4.7,0.4,7,0.2"/>
						<path id="Path_4419-11" class="st8" d="M-84.7,377.6c-0.2,1.7-0.1,3.4,0.3,5"/>
						<path id="Path_4420-11" class="st8" d="M-81,376.3l0.2,4c0,0.5,0.1,1,0.2,1.4"/>
						<path id="Path_4421-11" class="st8" d="M-74,375.7c0.2,1.3,0.3,2.6,0.3,4"/>
						<path id="Path_4422-11" class="st8" d="M-77.7,376.1l0.2,3.1"/>
						<path id="Path_4423-11" class="st8" d="M-69.3,375.6v3.9"/>
						<path id="Path_4424-11" class="st8" d="M-63.8,375.6c-0.2,1.3-0.5,2.6-0.9,3.9"/>
						<path id="Path_4425-11" class="st8" d="M-59.2,376.6c-0.3,1.4-0.6,2.9-0.9,4.3"/>
					</g>
					<g id="Group_2-12">
						<path id="Path_4412-12" class="st0" d="M36.2,538.7L36,539c-0.1,0.1-0.3,0.4-0.3,0.4c-0.2,0.3-0.4,0.5-0.5,0.8
							c-0.7,0.9-1.4,1.7-2.2,2.5c-0.4,0.4-0.8,0.8-1.3,1.3l-0.1,0.1l0,0l-0.7,0.7c-2,1.8-4.2,3.5-6.5,5l-1,0.7
							c-0.5-7.5-1-15-1.5-22.6l1.1,0.9c2,1.7,4.2,3.2,6.3,4.8c2.1,1.5,4.2,2.9,6.5,4.3l0.3,0.2C36.1,538.2,36.2,538.4,36.2,538.7z"
							/>
						<path id="Path_4413-12" class="st4" d="M60.9,515.3l-1.1,0.8l-1,0.7c-2.5,1.7-5,3.3-7.3,5.2c-1.6,1.3-3.1,2.8-4.6,4.3
							c-0.4,0.4-0.7,0.7-1.1,1l-0.4,0.4L45,528c-0.9,0.8-1.8,1.6-2.7,2.3c-0.6,0.5-1.2,0.9-1.9,1.3c0.2-0.1-0.3,0.1-0.6,0.3h-0.1
							l-0.2-0.1l-0.9-0.5c-0.5-0.3-1-0.6-1.5-1c-1-0.7-2.1-1.3-3.1-2c-4.1-2.8-8-6-11.5-9.5c-0.4-0.4-0.8-0.8-1.1-1.2
							c-0.1-1.9-0.2-3.7-0.3-5.6c-0.1-1.3,0.5-2.6,1.5-3.4c1.3-1.1,2.9-1.9,4.6-2.3c9.6-2.6,19.2-3.2,27.9-1.5
							c5.4,1.4,5.7,1.7,5.8,6.5C60.8,512.6,60.9,514,60.9,515.3z"/>
						<path id="Path_4414-12" class="st0" d="M61.4,545.4l-1-0.4l-0.4-0.1l-0.5-0.2l-0.6-0.3c-0.5-0.2-1.1-0.4-1.6-0.7
							c-1.1-0.5-2.2-1-3.3-1.5c-3.1-1.5-6.1-3.2-9-5.1c3.3-2.1,6-5.2,8.9-8l0.6-0.6c0.3-0.3,0.6-0.5,1-0.8c1.3-1,2.6-1.8,3.9-2.7
							l0.5-0.3l1.1-0.7c0,5,0,10.1,0.2,15.1C61.2,541.3,61.3,543.4,61.4,545.4z"/>
						<path id="Path_4415-12" class="st5" d="M62.4,554.7c-0.3,0.1-0.7,0.3-1,0.4c-5.4,2.3-9.7,6.9-14.7,10l-0.9,0.5l0,0l-0.4,0.2
							c-0.7,0.3-1.4,0.6-2.1,0.8l-0.7,0.2l-0.7,0.1c-0.7,0.1-1.5,0.1-2.2,0h-0.4l-1-0.1c-0.8-0.1-1.5-0.2-2.3-0.3
							c-1.5-0.2-3-0.5-4.5-0.9c-0.9-0.2-1.7-0.5-2.5-0.8l-0.5-0.2c0,0,0,0-0.1,0c-0.4-0.2-0.8-0.3-1.2-0.5c-0.7-0.3-1.4-0.7-2-1.1
							l-0.1-0.1l-0.3-0.2h-0.1l-0.5-0.5c0.1-0.9,0.1-1.9,0-2.8c0-0.2,0-0.4,0-0.6l0.9-0.6c6-4,12.4-8.4,16.4-14.7
							c6.2,4,12.8,7.2,19.7,9.5l1.1,0.4C62.2,553.7,62.3,554.2,62.4,554.7z"/>
						<path id="Path_4416-12" class="st6" d="M41,609.1c-1.4,2.5-2.6,5.1-3.8,7.8c-2.6,6-5.2,12.1-8.9,17.5
							C22.4,643,14.5,645.9,5,644c-7.6-1.5-12.3-7.4-13.4-16.1c-0.7-6.6,0.5-13.3,3.5-19.2c3.6-7.4,8.4-13.9,13.1-20.4
							c4.4-6,9-11.8,13.1-18c0.2-0.3,0.4-0.6,0.6-1l0.9,0.5c1.7,0.9,3.5,1.7,5.4,2.3c2.1,0.7,4.2,1.2,6.3,1.5
							c1.7,0.9,3.4,1.8,4.2,3.7c0.3,0.9,0.6,1.8,0.8,2.7c0.3,9.1,0.3,18.2,1.3,27.2C40.8,607.9,40.9,608.5,41,609.1z"/>
						<path id="Path_4417-12" class="st0" d="M63.4,587.8c-1.6,1.4-3.2,2.6-5,3.7c-4,2.6-7.9,5.2-11.3,8.8l-0.2,0.2l-0.1-1.4
							c-0.4-7-0.4-14.1-0.7-21.2c0.5-2,1.4-4,2.6-5.7c2.6-1.5,5.2-3.3,7.5-5.3c1.5-1.2,2.9-2.3,4.5-3.3c0.4-0.3,0.8-0.5,1.2-0.8
							l0.5-0.3h0.1l0,0h0.1c0.3-0.2,0.6-0.3,0.9-0.4c0.6,3.6,1.4,7.2,2.4,10.7c0.5,1.9,0.8,3.9,1,5.9
							C67.2,582.2,66,585.5,63.4,587.8z"/>
						<path id="Path_4418-12" class="st7" d="M-8.6,624.3c1.3,2,3.5,3.4,5.8,3.9c2.3,0.4,4.7,0.4,7,0.2"/>
						<path id="Path_4419-12" class="st8" d="M28,506.4c-0.2,1.7-0.1,3.4,0.4,5"/>
						<path id="Path_4420-12" class="st8" d="M31.7,505.1l0.2,4c0,0.5,0.1,1,0.2,1.4"/>
						<path id="Path_4421-12" class="st8" d="M38.8,504.4c0.2,1.3,0.3,2.6,0.3,4"/>
						<path id="Path_4422-12" class="st8" d="M35,504.9l0.2,3.1"/>
						<path id="Path_4423-12" class="st8" d="M43.4,504.4v3.9"/>
						<path id="Path_4424-12" class="st8" d="M49,504.4c-0.2,1.3-0.5,2.6-0.9,3.9"/>
						<path id="Path_4425-12" class="st8" d="M53.6,505.3c-0.3,1.4-0.6,2.9-0.9,4.3"/>
					</g>
					<g id="Group_2-13">
						<path id="Path_4412-13" class="st0" d="M101.8,345.5l-0.2,0.3l-0.3,0.4c-0.2,0.3-0.4,0.5-0.6,0.8c-0.7,0.9-1.4,1.8-2.2,2.6
							c-0.4,0.4-0.8,0.9-1.2,1.3l-0.1,0.1l0,0l-0.7,0.6c-2.1,1.8-4.2,3.5-6.5,5l-1,0.6c-0.5-7.5-1-15-1.4-22.6l1.1,0.9
							c2,1.7,4.2,3.3,6.3,4.8c2.1,1.5,4.2,3,6.5,4.3l0.3,0.1C101.8,345,101.8,345.3,101.8,345.5z"/>
						<path id="Path_4413-13" class="st4" d="M126.5,322.2l-1.1,0.7l-1,0.7c-2.4,1.7-5,3.3-7.3,5.2c-1.6,1.3-3.1,2.9-4.6,4.3l-1.1,1
							l-0.4,0.4l-0.2,0.2c-0.9,0.8-1.8,1.6-2.7,2.3c-0.6,0.5-1.2,0.9-1.9,1.3c0.2-0.1-0.3,0.1-0.6,0.3h-0.1l-0.2-0.1
							c-0.3-0.2-0.6-0.3-0.9-0.5c-0.5-0.3-1-0.6-1.4-1c-1-0.7-2.1-1.3-3.1-2c-4.1-2.8-8-6-11.5-9.5c-0.4-0.4-0.8-0.8-1.2-1.2
							c-0.1-1.9-0.2-3.7-0.3-5.6c-0.1-1.3,0.5-2.6,1.5-3.4c1.3-1.1,2.9-1.9,4.6-2.3c9.6-2.6,19.2-3.2,27.9-1.5
							c5.4,1.4,5.7,1.7,5.8,6.5C126.5,319.5,126.5,320.8,126.5,322.2z"/>
						<path id="Path_4414-13" class="st0" d="M127.1,352.3l-1-0.4l-0.4-0.1l-0.5-0.2l-0.6-0.3c-0.5-0.2-1.1-0.4-1.6-0.7
							c-1.1-0.5-2.2-1-3.3-1.5c-3.1-1.5-6.1-3.2-9-5.1c3.3-2.1,6.1-5.2,8.9-8l0.7-0.6c0.3-0.3,0.6-0.5,1-0.8c1.3-1,2.6-1.8,3.9-2.7
							l0.5-0.3l1.1-0.7c0,5,0,10.1,0.2,15.1C126.8,348.1,126.9,350.2,127.1,352.3z"/>
						<path id="Path_4415-13" class="st5" d="M128,361.5c-0.3,0.1-0.7,0.3-1,0.4c-5.4,2.3-9.7,6.9-14.7,10c-0.3,0.2-0.6,0.4-0.9,0.5
							l0,0l-0.4,0.2c-0.7,0.3-1.4,0.6-2.1,0.8c-0.1,0-0.5,0.1-0.7,0.2l-0.7,0.1c-0.7,0.1-1.5,0.1-2.2,0H105l-0.9-0.1
							c-0.8-0.1-1.5-0.2-2.3-0.3c-1.5-0.3-3-0.5-4.5-1c-0.8-0.2-1.7-0.5-2.5-0.8l-0.5-0.2h-0.1c-0.4-0.2-0.8-0.4-1.2-0.5
							c-0.7-0.3-1.4-0.7-2-1.1l-0.1,0l-0.3-0.2h-0.1l-0.5-0.5c0.1-0.9,0.1-1.9,0-2.8c0-0.2,0-0.4,0-0.6l0.9-0.6
							c6-4,12.4-8.4,16.4-14.7c6.2,4,12.8,7.2,19.7,9.5c0.4,0.1,0.7,0.3,1.1,0.4C127.9,360.6,128,361,128,361.5z"/>
						<path id="Path_4416-13" class="st6" d="M106.6,416c-1.4,2.5-2.6,5.1-3.8,7.8c-2.7,6-5.2,12.1-8.9,17.5
							c-5.9,8.5-13.8,11.5-23.3,9.5c-7.6-1.5-12.3-7.4-13.4-16.1c-0.8-6.6,0.5-13.3,3.5-19.2c3.6-7.4,8.4-13.9,13.1-20.4
							c4.4-6,9-11.8,13.1-18c0.2-0.3,0.4-0.6,0.6-1c0.3,0.2,0.6,0.4,0.9,0.5c1.7,0.9,3.5,1.7,5.3,2.3c2.1,0.7,4.2,1.2,6.3,1.5
							c1.7,0.9,3.4,1.8,4.2,3.7c0.3,0.9,0.6,1.8,0.8,2.7c0.3,9.1,0.3,18.2,1.3,27.2C106.5,414.7,106.5,415.3,106.6,416z"/>
						<path id="Path_4417-13" class="st0" d="M129.1,394.6c-1.6,1.4-3.2,2.6-5,3.7c-4,2.6-7.9,5.2-11.3,8.8l-0.2,0.2
							c0-0.5-0.1-0.9-0.1-1.4c-0.4-7.1-0.4-14.1-0.7-21.2c0.5-2,1.4-4,2.6-5.7c2.7-1.5,5.2-3.3,7.5-5.3c1.5-1.2,2.9-2.3,4.5-3.3
							c0.4-0.3,0.8-0.5,1.2-0.8l0.5-0.3l0,0l0,0h0.1l0.9-0.4c0.6,3.6,1.4,7.2,2.4,10.8c0.5,1.9,0.8,3.9,1,5.9
							C132.9,389,131.6,392.4,129.1,394.6z"/>
						<path id="Path_4418-13" class="st7" d="M57,431.1c1.3,2.1,3.5,3.5,5.9,3.9c2.3,0.4,4.7,0.4,7,0.1"/>
						<path id="Path_4419-13" class="st8" d="M93.7,313.3c-0.2,1.7-0.1,3.4,0.4,5"/>
						<path id="Path_4420-13" class="st8" d="M97.4,312l0.2,4c0,0.5,0.1,1,0.2,1.4"/>
						<path id="Path_4421-13" class="st8" d="M104.4,311.3c0.2,1.3,0.3,2.7,0.3,4"/>
						<path id="Path_4422-13" class="st8" d="M100.7,311.7l0.2,3.1"/>
						<path id="Path_4423-13" class="st8" d="M109.1,311.2v3.9"/>
						<path id="Path_4424-13" class="st8" d="M114.7,311.2c-0.2,1.3-0.5,2.6-0.9,3.9"/>
						<path id="Path_4425-13" class="st8" d="M119.2,312.2c-0.3,1.4-0.6,2.8-0.9,4.3"/>
					</g>
					<g id="Group_2-14">
						<path id="Path_4412-14" class="st0" d="M224.1,448.9l-0.2,0.3l-0.3,0.4c-0.2,0.3-0.4,0.5-0.6,0.8c-0.7,0.9-1.4,1.8-2.1,2.6
							c-0.4,0.4-0.8,0.9-1.3,1.3l-0.1,0.1l0,0c-0.2,0.2-0.5,0.4-0.7,0.6c-2.1,1.8-4.2,3.5-6.5,5l-1,0.6c-0.5-7.5-1-15-1.4-22.6
							l1.1,0.9c2,1.7,4.2,3.3,6.3,4.8c2.1,1.5,4.2,3,6.4,4.3l0.3,0.1C224.1,448.4,224.1,448.6,224.1,448.9z"/>
						<path id="Path_4413-14" class="st4" d="M248.8,425.5l-1.1,0.7l-1,0.7c-2.4,1.7-5,3.3-7.3,5.2c-1.6,1.3-3.1,2.9-4.6,4.3l-1.1,1
							l-0.4,0.4l-0.2,0.2c-0.9,0.8-1.8,1.6-2.7,2.3c-0.6,0.5-1.2,0.9-1.9,1.3c0.2-0.1-0.3,0.1-0.6,0.3h-0.1l-0.2-0.1
							c-0.3-0.2-0.6-0.3-0.9-0.5c-0.5-0.3-1-0.6-1.4-1c-1-0.7-2.1-1.3-3.1-2c-4.1-2.8-8-6-11.5-9.5c-0.4-0.4-0.8-0.8-1.2-1.2
							c-0.1-1.9-0.1-3.7-0.3-5.6c-0.1-1.3,0.5-2.6,1.5-3.4c1.3-1.1,2.9-1.9,4.6-2.3c9.6-2.6,19.2-3.2,27.9-1.5
							c5.4,1.4,5.7,1.7,5.8,6.5C248.8,422.8,248.8,424.2,248.8,425.5z"/>
						<path id="Path_4414-14" class="st0" d="M249.4,455.6l-1-0.4l-0.4-0.1l-0.5-0.2l-0.6-0.3c-0.5-0.2-1.1-0.4-1.6-0.7
							c-1.1-0.5-2.2-1-3.3-1.5c-3.1-1.5-6.1-3.2-8.9-5.1c3.3-2.1,6-5.2,8.9-8l0.6-0.6c0.3-0.3,0.6-0.5,1-0.8c1.3-1,2.6-1.8,3.9-2.7
							l0.5-0.3l1.1-0.7c0,5,0,10.1,0.2,15.1C249.1,451.4,249.2,453.5,249.4,455.6z"/>
						<path id="Path_4415-14" class="st5" d="M250.3,464.9c-0.3,0.1-0.7,0.3-1,0.4c-5.4,2.3-9.6,6.9-14.7,10
							c-0.3,0.2-0.6,0.4-0.9,0.5l0,0l-0.4,0.2c-0.7,0.3-1.4,0.6-2.1,0.9l-0.7,0.2l-0.7,0.1c-0.7,0.1-1.5,0.1-2.2,0h-0.4l-1-0.1
							c-0.8-0.1-1.5-0.2-2.3-0.3c-1.5-0.2-3-0.5-4.5-0.9c-0.9-0.2-1.7-0.5-2.5-0.8l-0.5-0.2h-0.1l-1.2-0.5c-0.7-0.3-1.4-0.7-2-1.1
							L213,473l-0.3-0.2l0,0l-0.6-0.5c0.1-0.9,0.1-1.9,0-2.8c0-0.2,0-0.4,0-0.6l0.9-0.6c6-4,12.4-8.4,16.4-14.7
							c6.1,3.9,12.7,7.1,19.5,9.5l1.1,0.4C250.2,463.9,250.2,464.4,250.3,464.9z"/>
						<path id="Path_4416-14" class="st6" d="M228.9,519.3c-1.4,2.5-2.6,5.2-3.8,7.8c-2.6,6-5.2,12.1-8.9,17.5
							c-5.9,8.5-13.8,11.5-23.3,9.5c-7.6-1.5-12.3-7.4-13.4-16.1c-0.8-6.6,0.5-13.3,3.5-19.2c3.6-7.4,8.4-13.9,13.1-20.4
							c4.4-6,9-11.8,13.1-18c0.2-0.3,0.4-0.6,0.6-1c0.3,0.2,0.6,0.4,0.9,0.5c1.7,0.9,3.5,1.7,5.4,2.3c2.1,0.7,4.2,1.2,6.3,1.5
							c1.7,0.9,3.4,1.8,4.1,3.7c0.3,0.9,0.6,1.8,0.8,2.7c0.3,9.1,0.3,18.2,1.3,27.2C228.7,518.1,228.8,518.7,228.9,519.3z"/>
						<path id="Path_4417-14" class="st0" d="M251.4,498c-1.6,1.4-3.2,2.6-5,3.7c-4,2.6-7.9,5.2-11.3,8.8l-0.2,0.2l-0.1-1.4
							c-0.4-7.1-0.4-14.1-0.7-21.2c0.5-2,1.4-4,2.6-5.7c2.6-1.5,5.2-3.3,7.5-5.3c1.5-1.2,2.9-2.3,4.5-3.3c0.4-0.3,0.8-0.5,1.2-0.8
							l0.5-0.3h0.1l0,0h0.1l0.9-0.4c0.7,3.6,1.5,7.2,2.4,10.7c0.5,1.9,0.8,3.9,1,5.9C255.2,492.4,253.9,495.7,251.4,498z"/>
						<path id="Path_4418-14" class="st7" d="M179.3,534.4c1.3,2,3.5,3.4,5.9,3.9c2.3,0.4,4.7,0.4,7,0.2"/>
						<path id="Path_4419-14" class="st8" d="M216,416.6c-0.2,1.7-0.1,3.4,0.4,5"/>
						<path id="Path_4420-14" class="st8" d="M219.7,415.3l0.2,4c0,0.5,0.1,1,0.2,1.4"/>
						<path id="Path_4421-14" class="st8" d="M226.7,414.6c0.2,1.3,0.3,2.6,0.3,4"/>
						<path id="Path_4422-14" class="st8" d="M223,415.1l0.2,3.1"/>
						<path id="Path_4423-14" class="st8" d="M231.4,414.5v3.9"/>
						<path id="Path_4424-14" class="st8" d="M236.9,414.5c-0.2,1.3-0.5,2.6-0.9,3.9"/>
						<path id="Path_4425-14" class="st8" d="M241.5,415.5c-0.3,1.4-0.6,2.8-0.9,4.3"/>
					</g>
					<g id="Group_2-15">
						<path id="Path_4412-15" class="st0" d="M136.9,640.9l-0.2,0.3c-0.1,0.1-0.3,0.4-0.3,0.4l-0.6,0.8c-0.7,0.9-1.4,1.8-2.1,2.6
							c-0.4,0.4-0.8,0.8-1.3,1.3l-0.1,0.1l0,0l-0.7,0.7c-2.1,1.8-4.2,3.5-6.5,5l-1,0.7c-0.5-7.5-1-15-1.4-22.6l1.1,0.9
							c2,1.7,4.2,3.2,6.3,4.8c2.1,1.5,4.2,2.9,6.4,4.3l0.3,0.2C136.9,640.5,136.9,640.7,136.9,640.9z"/>
						<path id="Path_4413-15" class="st4" d="M161.6,617.6l-1.1,0.8l-1,0.7c-2.4,1.7-5,3.3-7.3,5.2c-1.6,1.3-3.1,2.8-4.6,4.3l-1.1,1
							L146,630l-0.2,0.2c-0.9,0.8-1.8,1.6-2.7,2.3c-0.6,0.5-1.2,0.9-1.9,1.3c0.2-0.1-0.3,0.1-0.6,0.3h-0.1l-0.2-0.1
							c-0.3-0.2-0.6-0.3-0.9-0.5c-0.5-0.3-1-0.6-1.5-0.9c-1-0.7-2.1-1.3-3.1-2c-4.1-2.8-8-6-11.5-9.5c-0.4-0.4-0.8-0.8-1.2-1.2
							c-0.1-1.9-0.2-3.7-0.3-5.6c-0.1-1.3,0.5-2.6,1.5-3.4c1.3-1.1,2.9-1.9,4.6-2.3c9.6-2.6,19.2-3.2,27.9-1.5
							c5.4,1.4,5.7,1.7,5.8,6.5C161.6,614.9,161.6,616.2,161.6,617.6z"/>
						<path id="Path_4414-15" class="st0" d="M162.2,647.7l-1-0.4l-0.4-0.1l-0.5-0.2l-0.6-0.3c-0.5-0.2-1.1-0.4-1.6-0.7
							c-1.1-0.5-2.2-1-3.3-1.5c-3.1-1.5-6.1-3.2-8.9-5.1c3.3-2.1,6.1-5.2,8.9-8l0.6-0.6c0.3-0.3,0.6-0.5,1-0.8
							c1.3-1,2.6-1.8,3.9-2.7l0.5-0.3l1.1-0.7c0,5,0,10.1,0.2,15.1C162,643.5,162.1,645.6,162.2,647.7z"/>
						<path id="Path_4415-15" class="st5" d="M163.1,656.9c-0.3,0.1-0.7,0.3-1,0.4c-5.4,2.3-9.6,6.9-14.7,10
							c-0.3,0.2-0.6,0.3-0.9,0.5l0,0l-0.4,0.2c-0.7,0.3-1.4,0.6-2.1,0.8l-0.7,0.2l-0.7,0.1c-0.7,0.1-1.5,0.1-2.2,0h-0.4l-0.9-0.1
							c-0.8-0.1-1.5-0.2-2.3-0.3c-1.5-0.2-3-0.5-4.5-0.9c-0.9-0.2-1.7-0.5-2.5-0.8l-0.5-0.2h-0.1c-0.4-0.2-0.8-0.3-1.2-0.5
							c-0.7-0.3-1.4-0.7-2-1.1l-0.1-0.1l-0.3-0.2h-0.1l-0.6-0.5c0.1-0.9,0.1-1.9,0-2.8c0-0.2,0-0.4,0-0.6l0.9-0.6
							c6-4,12.4-8.4,16.4-14.7c6.2,4,12.8,7.2,19.7,9.5l1.1,0.4C163,656,163,656.5,163.1,656.9z"/>
						<path id="Path_4416-15" class="st6" d="M141.7,711.4c-1.4,2.5-2.6,5.2-3.8,7.8c-2.6,6-5.2,12.1-8.9,17.5
							c-5.9,8.5-13.8,11.5-23.3,9.5c-7.6-1.5-12.3-7.4-13.4-16.1c-0.8-6.6,0.5-13.3,3.5-19.2c3.6-7.4,8.3-13.9,13.1-20.4
							c4.4-6,9-11.8,13.1-18c0.2-0.3,0.4-0.6,0.6-1c0.3,0.2,0.6,0.4,0.9,0.5c1.7,0.9,3.5,1.7,5.4,2.3c2.1,0.7,4.2,1.1,6.3,1.5
							c1.7,0.9,3.4,1.8,4.1,3.7c0.3,0.9,0.6,1.8,0.8,2.7c0.3,9.1,0.3,18.2,1.3,27.2C141.5,710.2,141.6,710.8,141.7,711.4z"/>
						<path id="Path_4417-15" class="st0" d="M164.2,690c-1.6,1.4-3.2,2.6-5,3.7c-4,2.6-7.9,5.2-11.3,8.8l-0.2,0.2l-0.1-1.4
							c-0.4-7-0.4-14.1-0.7-21.2c0.5-2,1.4-4,2.6-5.7c2.7-1.5,5.2-3.3,7.5-5.3c1.5-1.2,2.9-2.3,4.5-3.3c0.4-0.3,0.8-0.5,1.2-0.8
							l0.5-0.3h0.1l0,0h0.1l0.9-0.4c0.6,3.6,1.4,7.2,2.4,10.7c0.5,1.9,0.8,3.9,1,5.9C168,684.4,166.7,687.7,164.2,690z"/>
						<path id="Path_4418-15" class="st7" d="M92.1,726.5c1.3,2.1,3.5,3.5,5.9,3.9c2.3,0.4,4.7,0.4,7,0.2"/>
						<path id="Path_4419-15" class="st8" d="M128.8,608.7c-0.2,1.7-0.1,3.4,0.4,5"/>
						<path id="Path_4420-15" class="st8" d="M132.5,607.4l0.2,4c0,0.5,0.1,1,0.2,1.4"/>
						<path id="Path_4421-15" class="st8" d="M139.5,606.7c0.2,1.3,0.3,2.6,0.3,4"/>
						<path id="Path_4422-15" class="st8" d="M135.8,607.1l0.2,3.1"/>
						<path id="Path_4423-15" class="st8" d="M144.2,606.6v3.9"/>
						<path id="Path_4424-15" class="st8" d="M149.7,606.6c-0.2,1.3-0.5,2.6-0.9,3.9"/>
						<path id="Path_4425-15" class="st8" d="M154.3,607.6c-0.3,1.4-0.6,2.8-0.9,4.3"/>
					</g>
					<g id="Group_2-16">
						<path id="Path_4412-16" class="st0" d="M321.4,548.4l-0.2,0.3c-0.1,0.1-0.3,0.4-0.3,0.4l-0.5,0.8c-0.7,0.9-1.4,1.8-2.1,2.6
							c-0.4,0.4-0.8,0.8-1.3,1.3l-0.1,0.1l0,0c-0.2,0.2-0.5,0.4-0.7,0.7c-2.1,1.8-4.2,3.5-6.5,5l-1,0.7c-0.5-7.5-1-15-1.5-22.6
							l1.1,0.9c2,1.7,4.2,3.2,6.3,4.8c2.1,1.5,4.2,2.9,6.5,4.3l0.3,0.2C321.3,548,321.3,548.2,321.4,548.4z"/>
						<path id="Path_4413-16" class="st4" d="M346,525.1l-1.1,0.8l-1,0.7c-2.5,1.7-5,3.3-7.3,5.2c-1.6,1.3-3.1,2.8-4.6,4.3l-1.1,1
							l-0.5,0.4c-0.1,0.1-0.1,0.2-0.2,0.2c-0.9,0.8-1.8,1.6-2.7,2.3c-0.6,0.5-1.2,0.9-1.9,1.3c0.2-0.1-0.3,0.1-0.6,0.3h-0.1
							l-0.2-0.1c-0.3-0.2-0.6-0.3-0.9-0.5c-0.5-0.3-1-0.6-1.5-0.9c-1-0.7-2.1-1.3-3.1-2c-4.1-2.8-8-6-11.5-9.5
							c-0.4-0.4-0.8-0.8-1.2-1.2c-0.1-1.9-0.2-3.7-0.3-5.6c-0.1-1.3,0.5-2.6,1.5-3.4c1.3-1.1,2.9-1.9,4.6-2.3
							c9.6-2.6,19.2-3.2,27.9-1.5c5.4,1.4,5.7,1.7,5.8,6.5C346,522.4,346,523.7,346,525.1z"/>
						<path id="Path_4414-16" class="st0" d="M346.6,555.2l-1-0.4l-0.4-0.1l-0.5-0.2l-0.6-0.3c-0.5-0.2-1.1-0.4-1.6-0.7
							c-1.1-0.5-2.2-1-3.3-1.5c-3.1-1.5-6.1-3.2-9-5.1c3.3-2.1,6.1-5.2,8.9-8l0.6-0.6c0.3-0.3,0.6-0.5,1-0.8c1.3-1,2.6-1.8,3.9-2.7
							l0.5-0.3l1.1-0.7c0,5,0,10.1,0.2,15.1C346.4,551,346.5,553.1,346.6,555.2z"/>
						<path id="Path_4415-16" class="st5" d="M347.5,564.4c-0.3,0.1-0.7,0.3-1,0.4c-5.4,2.3-9.6,6.9-14.7,10
							c-0.3,0.2-0.6,0.3-0.9,0.5l0,0l-0.4,0.2c-0.7,0.3-1.4,0.6-2.1,0.8l-0.7,0.2l-0.7,0.1c-0.7,0.1-1.5,0.1-2.2,0h-0.4l-1-0.1
							c-0.8-0.1-1.5-0.2-2.3-0.3c-1.5-0.2-3-0.5-4.5-0.9c-0.9-0.2-1.7-0.5-2.5-0.8l-0.5-0.2h-0.1c-0.4-0.2-0.8-0.3-1.2-0.5
							c-0.7-0.3-1.4-0.7-2-1.1l-0.1-0.1l-0.3-0.2l0,0l-0.5-0.5c0.1-0.9,0.1-1.9,0-2.8c0-0.2,0-0.4,0-0.6l0.9-0.6
							c6-4,12.4-8.4,16.4-14.7c6.2,4,12.8,7.2,19.7,9.5l1.1,0.4C347.4,563.5,347.5,564,347.5,564.4z"/>
						<path id="Path_4416-16" class="st6" d="M326.1,618.8c-1.4,2.5-2.6,5.2-3.8,7.8c-2.6,6-5.2,12.1-8.9,17.5
							c-5.9,8.5-13.8,11.5-23.3,9.5c-7.6-1.5-12.3-7.4-13.4-16.1c-0.7-6.6,0.5-13.3,3.5-19.2c3.6-7.4,8.4-13.9,13.1-20.4
							c4.4-6,9-11.8,13.1-18c0.2-0.3,0.4-0.6,0.6-1c0.3,0.2,0.6,0.4,0.9,0.5c1.7,0.9,3.5,1.7,5.3,2.3c2.1,0.7,4.2,1.2,6.3,1.5
							c1.7,0.9,3.4,1.8,4.1,3.7c0.3,0.9,0.6,1.8,0.8,2.7c0.3,9.1,0.3,18.2,1.3,27.2C326,617.6,326,618.2,326.1,618.8z"/>
						<path id="Path_4417-16" class="st0" d="M348.6,597.5c-1.6,1.4-3.2,2.6-5,3.7c-4,2.6-7.9,5.2-11.3,8.8l-0.2,0.2l-0.1-1.4
							c-0.4-7-0.4-14.1-0.7-21.2c0.5-2,1.4-4,2.6-5.7c2.7-1.5,5.2-3.3,7.5-5.3c1.5-1.2,2.9-2.3,4.5-3.3c0.4-0.3,0.8-0.5,1.2-0.8
							l0.5-0.3l0,0l0,0h0.1l0.9-0.4c0.6,3.6,1.4,7.2,2.4,10.7c0.5,1.9,0.8,3.9,1,5.9C352.4,591.9,351.1,595.2,348.6,597.5z"/>
						<path id="Path_4418-16" class="st7" d="M276.5,634c1.3,2,3.4,3.4,5.9,3.9c2.3,0.4,4.7,0.4,7,0.2"/>
						<path id="Path_4419-16" class="st8" d="M313.2,516.1c-0.2,1.7-0.1,3.4,0.4,5"/>
						<path id="Path_4420-16" class="st8" d="M316.9,514.8l0.2,4c0,0.5,0.1,1,0.2,1.4"/>
						<path id="Path_4421-16" class="st8" d="M323.9,514.2c0.2,1.3,0.3,2.7,0.3,4"/>
						<path id="Path_4422-16" class="st8" d="M320.2,514.6l0.2,3.1"/>
						<path id="Path_4423-16" class="st8" d="M328.6,514.1v3.9"/>
						<path id="Path_4424-16" class="st8" d="M334.2,514.1c-0.2,1.3-0.5,2.6-0.9,3.9"/>
						<path id="Path_4425-16" class="st8" d="M338.8,515.1c-0.3,1.4-0.6,2.8-0.9,4.3"/>
					</g>
					<g id="Group_2-17">
						<path id="Path_4412-17" class="st0" d="M372.5,343.9l-0.2,0.3l-0.3,0.4l-0.5,0.8c-0.7,0.9-1.4,1.8-2.1,2.6
							c-0.4,0.4-0.8,0.9-1.3,1.3l-0.1,0.1l0,0l-0.7,0.6c-2,1.8-4.2,3.5-6.5,5l-1,0.7c-0.5-7.5-1-15-1.5-22.6l1.1,0.9
							c2,1.7,4.1,3.3,6.3,4.8c2.1,1.5,4.2,2.9,6.5,4.3l0.3,0.1C372.4,343.4,372.4,343.7,372.5,343.9z"/>
						<path id="Path_4413-17" class="st4" d="M397.1,320.6l-1.1,0.8l-1,0.7c-2.5,1.7-5,3.3-7.3,5.2c-1.6,1.3-3.1,2.9-4.6,4.3l-1.1,1
							l-0.5,0.4l-0.2,0.2c-0.9,0.8-1.8,1.6-2.7,2.3c-0.6,0.5-1.2,0.9-1.9,1.3c0.2-0.1-0.3,0.1-0.6,0.3H376l-0.2-0.1l-0.9-0.5
							c-0.5-0.3-1-0.6-1.5-1c-1-0.7-2.1-1.3-3.1-2c-4.1-2.8-8-5.9-11.6-9.4c-0.4-0.4-0.8-0.8-1.1-1.2c-0.1-1.9-0.2-3.7-0.3-5.6
							c-0.1-1.3,0.5-2.6,1.5-3.4c1.3-1.1,2.9-1.9,4.6-2.3c9.6-2.6,19.2-3.2,27.9-1.5c5.4,1.4,5.7,1.7,5.8,6.5
							C397.1,317.8,397.1,319.2,397.1,320.6z"/>
						<path id="Path_4414-17" class="st0" d="M397.7,350.6l-1-0.4l-0.4-0.1l-0.5-0.2l-0.6-0.2c-0.5-0.2-1.1-0.5-1.6-0.7
							c-1.1-0.5-2.2-1-3.3-1.5c-3.1-1.5-6.1-3.2-9-5.1c3.3-2.1,6.1-5.2,8.9-8l0.6-0.6c0.3-0.3,0.6-0.5,1-0.8c1.3-1,2.6-1.8,3.9-2.7
							l0.5-0.3l1.1-0.7c0,5,0,10.1,0.2,15.1C397.4,346.5,397.6,348.6,397.7,350.6z"/>
						<path id="Path_4415-17" class="st5" d="M398.6,359.9c-0.3,0.1-0.7,0.3-1,0.4c-5.4,2.3-9.6,6.9-14.7,10l-0.9,0.5l0,0l-0.4,0.2
							c-0.7,0.3-1.4,0.6-2.1,0.8c-0.1,0-0.5,0.1-0.7,0.2l-0.7,0.1c-0.7,0.1-1.5,0.1-2.2,0h-0.4l-1-0.1c-0.8-0.1-1.5-0.2-2.3-0.3
							c-1.5-0.3-3-0.5-4.5-1c-0.9-0.2-1.7-0.5-2.5-0.8l-0.5-0.2h-0.1c-0.4-0.2-0.8-0.4-1.2-0.5c-0.7-0.3-1.4-0.7-2-1.1l-0.1-0.1
							l-0.3-0.2H361l-0.5-0.5c0.1-0.9,0.1-1.9,0-2.8c0-0.2,0-0.4,0-0.6l0.9-0.6c6-4,12.4-8.4,16.4-14.7c6.2,4,12.8,7.2,19.7,9.5
							c0.4,0.1,0.7,0.3,1.1,0.4C398.5,359,398.6,359.4,398.6,359.9z"/>
						<path id="Path_4416-17" class="st6" d="M377.2,414.3c-1.4,2.5-2.6,5.1-3.8,7.8c-2.6,6-5.2,12.1-8.9,17.5
							c-5.9,8.5-13.8,11.5-23.3,9.5c-7.6-1.5-12.3-7.4-13.4-16.1c-0.8-6.6,0.5-13.3,3.5-19.2c3.6-7.4,8.4-13.9,13.1-20.4
							c4.4-6,9-11.8,13.1-18c0.2-0.3,0.4-0.6,0.6-1c0.3,0.2,0.6,0.4,0.9,0.5c1.7,0.9,3.5,1.7,5.3,2.3c2.1,0.7,4.2,1.2,6.3,1.5
							c1.7,0.9,3.4,1.8,4.1,3.7c0.3,0.9,0.6,1.8,0.8,2.7c0.3,9.1,0.3,18.2,1.3,27.2C377.1,413.1,377.2,413.7,377.2,414.3z"/>
						<path id="Path_4417-17" class="st0" d="M399.7,393c-1.6,1.4-3.2,2.6-5,3.7c-4,2.6-7.9,5.2-11.3,8.8l-0.2,0.2
							c0-0.5-0.1-1-0.1-1.4c-0.4-7-0.4-14.1-0.7-21.2c0.5-2,1.4-4,2.6-5.7c2.6-1.5,5.2-3.3,7.5-5.3c1.5-1.2,2.9-2.3,4.5-3.3
							c0.4-0.3,0.8-0.5,1.2-0.8l0.5-0.3l0,0l0,0h0.1c0.3-0.1,0.6-0.3,0.9-0.4c0.6,3.6,1.4,7.2,2.4,10.7c0.5,1.9,0.8,3.9,1,5.9
							C403.5,387.4,402.2,390.7,399.7,393z"/>
						<path id="Path_4418-17" class="st7" d="M327.6,429.5c1.3,2,3.5,3.4,5.9,3.9c2.3,0.4,4.7,0.4,7,0.2"/>
						<path id="Path_4419-17" class="st8" d="M364.3,311.6c-0.2,1.7-0.1,3.4,0.4,5"/>
						<path id="Path_4420-17" class="st8" d="M368,310.3l0.2,4c0,0.5,0.1,1,0.2,1.4"/>
						<path id="Path_4421-17" class="st8" d="M375.1,309.6c0.2,1.3,0.3,2.7,0.3,4"/>
						<path id="Path_4422-17" class="st8" d="M371.3,310.1l0.2,3.1"/>
						<path id="Path_4423-17" class="st8" d="M379.7,309.6v3.9"/>
						<path id="Path_4424-17" class="st8" d="M385.3,309.6c-0.2,1.3-0.5,2.6-0.9,3.9"/>
						<path id="Path_4425-17" class="st8" d="M389.9,310.6c-0.2,1.4-0.6,2.9-0.9,4.3"/>
					</g>
					<g id="Group_2-18">
						<path id="Path_4412-18" class="st0" d="M473.2,456.4c0,0.1-0.1,0.2-0.2,0.3s-0.3,0.4-0.3,0.4c-0.2,0.3-0.4,0.5-0.6,0.8
							c-0.7,0.9-1.4,1.8-2.1,2.6c-0.4,0.4-0.8,0.9-1.3,1.3l-0.1,0.1l0,0l-0.7,0.6c-2,1.8-4.2,3.5-6.5,5l-1,0.6
							c-0.5-7.5-1-15-1.4-22.6c0.4,0.3,0.7,0.6,1.1,0.9c2,1.7,4.2,3.2,6.3,4.8c2.1,1.5,4.2,2.9,6.5,4.3l0.3,0.1
							C473.1,456,473.2,456.2,473.2,456.4z"/>
						<path id="Path_4413-18" class="st4" d="M497.9,433.1l-1.1,0.8l-1,0.7c-2.5,1.7-5,3.3-7.3,5.2c-1.6,1.3-3.1,2.8-4.6,4.3l-1.1,1
							l-0.4,0.4l-0.2,0.2c-0.9,0.8-1.8,1.6-2.7,2.3c-0.6,0.5-1.2,0.9-1.9,1.3c0.2-0.1-0.3,0.1-0.6,0.3h-0.1l-0.2-0.1l-0.9-0.5
							c-0.5-0.3-1-0.6-1.5-1c-1-0.7-2.1-1.3-3.1-2c-4.1-2.8-8-6-11.5-9.5c-0.4-0.4-0.8-0.8-1.2-1.2c-0.1-1.9-0.1-3.7-0.3-5.6
							c-0.1-1.3,0.5-2.6,1.5-3.4c1.3-1.1,2.9-1.9,4.6-2.3c9.6-2.6,19.2-3.2,27.9-1.5c5.5,1.4,5.7,1.7,5.8,6.5
							C497.9,430.4,497.9,431.7,497.9,433.1z"/>
						<path id="Path_4414-18" class="st0" d="M498.5,463.2l-1-0.4l-0.4-0.1l-0.5-0.2l-0.6-0.3c-0.5-0.2-1.1-0.4-1.6-0.7
							c-1.1-0.5-2.2-1-3.3-1.5c-3.1-1.5-6.1-3.2-9-5.1c3.3-2.1,6-5.2,8.9-8l0.6-0.6c0.3-0.3,0.6-0.5,1-0.8c1.3-1,2.6-1.8,3.9-2.7
							l0.5-0.3l1.1-0.7c0,5,0,10.1,0.2,15.1C498.2,459,498.3,461.1,498.5,463.2z"/>
						<path id="Path_4415-18" class="st5" d="M499.4,472.4c-0.3,0.1-0.7,0.3-1,0.4c-5.4,2.3-9.6,6.9-14.7,10l-0.9,0.5l0,0l-0.4,0.2
							c-0.7,0.3-1.4,0.6-2.1,0.8l-0.7,0.2l-0.7,0.1c-0.7,0.1-1.5,0.1-2.2,0h-0.4l-1-0.1c-0.8-0.1-1.5-0.2-2.3-0.3
							c-1.5-0.2-3-0.5-4.5-0.9c-0.9-0.2-1.7-0.5-2.5-0.8l-0.5-0.2h-0.1c-0.4-0.2-0.8-0.3-1.2-0.5c-0.7-0.3-1.4-0.7-2-1.1l-0.1-0.1
							l-0.3-0.2v0l-0.5-0.5c0.1-0.9,0.1-1.9,0-2.8c0-0.2,0-0.4,0-0.6l0.9-0.6c6-4,12.4-8.4,16.4-14.7c6.2,4,12.8,7.2,19.7,9.5
							l1.1,0.4C499.3,471.5,499.3,472,499.4,472.4z"/>
						<path id="Path_4416-18" class="st6" d="M478,526.9c-1.4,2.5-2.6,5.1-3.8,7.8c-2.6,6-5.2,12.1-8.9,17.5
							c-5.9,8.5-13.8,11.5-23.3,9.5c-7.6-1.5-12.3-7.4-13.4-16.1c-0.8-6.6,0.5-13.3,3.5-19.2c3.6-7.4,8.4-13.9,13.1-20.4
							c4.4-6,9-11.8,13.1-18c0.2-0.3,0.4-0.6,0.6-1c0.3,0.2,0.6,0.4,0.9,0.5c1.7,0.9,3.5,1.7,5.4,2.3c2.1,0.7,4.2,1.2,6.3,1.5
							c1.7,0.9,3.4,1.8,4.1,3.7c0.3,0.9,0.6,1.8,0.8,2.7c0.3,9.1,0.3,18.2,1.3,27.2C477.8,525.7,477.9,526.3,478,526.9z"/>
						<path id="Path_4417-18" class="st0" d="M500.4,505.5c-1.6,1.4-3.2,2.6-5,3.7c-4,2.6-7.9,5.2-11.3,8.8l-0.2,0.2l-0.1-1.4
							c-0.4-7-0.4-14.1-0.7-21.2c0.5-2,1.4-4,2.6-5.7c2.6-1.5,5.2-3.3,7.5-5.3c1.5-1.2,2.9-2.3,4.5-3.3c0.4-0.3,0.8-0.5,1.2-0.8
							l0.5-0.3h0.1l0,0h0.1c0.3-0.1,0.6-0.3,0.9-0.4c0.6,3.6,1.4,7.2,2.4,10.7c0.5,1.9,0.8,3.9,1,5.9
							C504.3,499.9,503,503.3,500.4,505.5z"/>
						<path id="Path_4418-18" class="st7" d="M428.4,542c1.3,2,3.5,3.4,5.9,3.9c2.3,0.4,4.7,0.4,7,0.2"/>
						<path id="Path_4419-18" class="st8" d="M465,424.2c-0.2,1.7-0.1,3.4,0.4,5"/>
						<path id="Path_4420-18" class="st8" d="M468.8,422.9l0.2,4c0,0.5,0.1,1,0.2,1.4"/>
						<path id="Path_4421-18" class="st8" d="M475.8,422.2c0.2,1.3,0.3,2.6,0.3,4"/>
						<path id="Path_4422-18" class="st8" d="M472.1,422.6l0.2,3.1"/>
						<path id="Path_4423-18" class="st8" d="M480.4,422.1v3.9"/>
						<path id="Path_4424-18" class="st8" d="M486,422.1c-0.2,1.3-0.5,2.6-0.9,3.9"/>
						<path id="Path_4425-18" class="st8" d="M490.6,423.1c-0.3,1.4-0.6,2.9-0.9,4.3"/>
					</g>
					<g id="Group_2-19">
						<path id="Path_4412-19" class="st0" d="M441.6,642l-0.2,0.3c-0.1,0.1-0.3,0.4-0.3,0.4c-0.2,0.3-0.4,0.5-0.5,0.8
							c-0.7,0.9-1.4,1.8-2.1,2.6c-0.4,0.4-0.8,0.9-1.3,1.3l-0.1,0.1l0,0l-0.7,0.7c-2,1.8-4.2,3.5-6.5,5l-1,0.7
							c-0.5-7.5-1-15-1.5-22.6l1.1,0.9c2,1.7,4.2,3.2,6.3,4.8c2.1,1.5,4.2,2.9,6.5,4.3l0.3,0.2C441.6,641.5,441.6,641.8,441.6,642z"
							/>
						<path id="Path_4413-19" class="st4" d="M466.3,618.7l-1.1,0.8l-1,0.7c-2.5,1.7-5,3.3-7.3,5.2c-1.6,1.3-3.1,2.8-4.6,4.3l-1.1,1
							l-0.5,0.4c-0.1,0.1-0.1,0.2-0.2,0.2c-0.9,0.8-1.8,1.6-2.7,2.3c-0.6,0.5-1.2,0.9-1.9,1.3c0.2-0.1-0.3,0.1-0.6,0.3h-0.1L445,635
							l-0.9-0.5c-0.5-0.3-1-0.6-1.5-1c-1-0.7-2.1-1.3-3.1-2c-4.1-2.8-8-5.9-11.5-9.4c-0.4-0.4-0.8-0.8-1.2-1.2
							c-0.1-1.9-0.2-3.7-0.3-5.6c-0.1-1.3,0.5-2.6,1.5-3.4c1.3-1.1,2.9-1.9,4.6-2.3c9.6-2.6,19.2-3.2,27.9-1.5
							c5.4,1.4,5.7,1.7,5.8,6.5C466.3,616,466.3,617.3,466.3,618.7z"/>
						<path id="Path_4414-19" class="st0" d="M466.9,648.8l-1-0.4l-0.4-0.1l-0.5-0.2l-0.6-0.3c-0.5-0.2-1.1-0.4-1.6-0.7
							c-1.1-0.5-2.2-1-3.3-1.5c-3.1-1.5-6.1-3.2-9-5.1c3.3-2.1,6.1-5.2,8.9-8l0.7-0.6c0.3-0.3,0.6-0.5,1-0.8c1.3-1,2.6-1.8,3.9-2.7
							l0.5-0.3l1.1-0.7c0,5,0,10.1,0.2,15.1C466.6,644.6,466.7,646.7,466.9,648.8z"/>
						<path id="Path_4415-19" class="st5" d="M467.8,658c-0.3,0.1-0.7,0.3-1,0.4c-5.4,2.3-9.6,6.9-14.7,10l-0.9,0.5l0,0l-0.4,0.2
							c-0.7,0.3-1.4,0.6-2.1,0.8l-0.7,0.2l-0.7,0.1c-0.7,0.1-1.5,0.1-2.2,0h-0.4l-1-0.1c-0.8-0.1-1.5-0.2-2.3-0.3
							c-1.5-0.2-3-0.5-4.5-0.9c-0.9-0.2-1.7-0.5-2.5-0.8l-0.5-0.2h-0.1c-0.4-0.2-0.8-0.4-1.2-0.5c-0.7-0.3-1.4-0.7-2-1.1l-0.1-0.1
							l-0.3-0.2l0,0l-0.5-0.5c0.1-0.9,0.1-1.9,0-2.8c0-0.2,0-0.4,0-0.6l0.9-0.6c6-4,12.4-8.4,16.4-14.7c6.2,4,12.8,7.2,19.7,9.5
							l1.1,0.4C467.7,657.1,467.7,657.5,467.8,658z"/>
						<path id="Path_4416-19" class="st6" d="M446.4,712.5c-1.4,2.5-2.6,5.1-3.8,7.8c-2.6,6-5.2,12.1-8.9,17.5
							c-5.9,8.5-13.8,11.5-23.3,9.5c-7.6-1.5-12.3-7.4-13.4-16.1c-0.7-6.6,0.5-13.3,3.5-19.2c3.6-7.4,8.4-13.9,13.1-20.4
							c4.4-6,9-11.8,13.1-18c0.2-0.3,0.4-0.6,0.6-1c0.3,0.2,0.6,0.4,0.9,0.5c1.7,0.9,3.5,1.7,5.3,2.3c2.1,0.7,4.2,1.2,6.3,1.5
							c1.7,0.9,3.4,1.8,4.1,3.7c0.3,0.9,0.6,1.8,0.8,2.7c0.3,9.1,0.3,18.2,1.3,27.2C446.3,711.2,446.3,711.8,446.4,712.5z"/>
						<path id="Path_4417-19" class="st0" d="M468.9,691.1c-1.6,1.4-3.2,2.6-5,3.7c-4,2.6-7.9,5.2-11.3,8.8l-0.2,0.2l-0.1-1.4
							c-0.4-7-0.4-14.1-0.7-21.2c0.5-2,1.4-4,2.6-5.7c2.6-1.5,5.2-3.3,7.5-5.3c1.5-1.2,2.9-2.3,4.5-3.3c0.4-0.3,0.8-0.5,1.2-0.7
							l0.5-0.3h0l0,0h0.1c0.3-0.2,0.6-0.3,0.9-0.4c0.6,3.6,1.4,7.2,2.4,10.7c0.5,1.9,0.8,3.9,1,5.9
							C472.7,685.5,471.4,688.9,468.9,691.1z"/>
						<path id="Path_4418-19" class="st7" d="M396.8,727.6c1.3,2,3.5,3.4,5.9,3.9c2.3,0.4,4.7,0.4,7,0.2"/>
						<path id="Path_4419-19" class="st8" d="M433.5,609.8c-0.2,1.7-0.1,3.4,0.4,5"/>
						<path id="Path_4420-19" class="st8" d="M437.2,608.5l0.2,4c0,0.5,0.1,1,0.2,1.4"/>
						<path id="Path_4421-19" class="st8" d="M444.2,607.8c0.2,1.3,0.3,2.7,0.3,4"/>
						<path id="Path_4422-19" class="st8" d="M440.5,608.2l0.2,3.1"/>
						<path id="Path_4423-19" class="st8" d="M448.9,607.7v3.9"/>
						<path id="Path_4424-19" class="st8" d="M454.5,607.7c-0.2,1.3-0.5,2.7-0.9,4"/>
						<path id="Path_4425-19" class="st8" d="M459,608.7c-0.3,1.4-0.6,2.8-0.9,4.3"/>
					</g>
					<g id="Group_2-20">
						<path id="Path_4412-20" class="st0" d="M-114.2,609l-0.2,0.3l-0.3,0.4l-0.6,0.8c-0.7,0.9-1.4,1.8-2.2,2.6
							c-0.4,0.4-0.8,0.8-1.3,1.3l-0.1,0.1l0,0l-0.7,0.7c-2,1.8-4.2,3.5-6.5,5l-1,0.7c-0.5-7.5-1-15-1.4-22.6l1.1,0.9
							c2,1.7,4.2,3.3,6.3,4.8c2.1,1.5,4.2,2.9,6.4,4.3l0.3,0.2C-114.2,608.5-114.2,608.8-114.2,609z"/>
						<path id="Path_4413-20" class="st4" d="M-89.5,585.7l-1.1,0.7l-1,0.7c-2.4,1.7-5,3.3-7.3,5.2c-1.6,1.3-3.1,2.8-4.6,4.3l-1.1,1
							l-0.4,0.4l-0.2,0.2c-0.9,0.8-1.8,1.6-2.7,2.3c-0.6,0.5-1.2,0.9-1.9,1.3c0.2-0.1-0.3,0.1-0.6,0.3h-0.1l-0.2-0.1
							c-0.3-0.2-0.6-0.3-0.9-0.5c-0.5-0.3-1-0.6-1.4-1c-1-0.7-2.1-1.3-3.1-2c-4.1-2.8-8-6-11.5-9.5c-0.4-0.4-0.8-0.8-1.1-1.2
							c-0.1-1.9-0.2-3.7-0.3-5.6c-0.1-1.3,0.5-2.6,1.5-3.4c1.3-1.1,2.9-1.9,4.6-2.3c9.6-2.6,19.2-3.2,27.9-1.5
							c5.4,1.4,5.7,1.7,5.8,6.5C-89.5,583-89.5,584.3-89.5,585.7z"/>
						<path id="Path_4414-20" class="st0" d="M-88.9,615.8l-1-0.4l-0.4-0.2l-0.5-0.2l-0.6-0.3l-1.6-0.7c-1.1-0.5-2.2-1-3.3-1.5
							c-3.1-1.5-6.1-3.2-9-5.1c3.3-2.1,6-5.2,8.9-8l0.6-0.6c0.3-0.3,0.6-0.5,1-0.8c1.3-1,2.6-1.8,3.9-2.7l0.5-0.3l1.1-0.7
							c0,5,0,10.1,0.2,15.1C-89.2,611.6-89.1,613.7-88.9,615.8z"/>
						<path id="Path_4415-20" class="st5" d="M-88,625c-0.3,0.1-0.7,0.3-1,0.4c-5.4,2.3-9.7,6.9-14.7,10c-0.3,0.2-0.6,0.3-0.9,0.5
							l0,0l-0.4,0.2c-0.7,0.3-1.4,0.6-2.1,0.8l-0.7,0.2l-0.7,0.1c-0.7,0.1-1.5,0.1-2.2,0h-0.4l-1-0.1c-0.8-0.1-1.5-0.2-2.3-0.3
							c-1.5-0.2-3-0.5-4.5-0.9c-0.9-0.2-1.7-0.5-2.5-0.8l-0.5-0.2h-0.1c-0.4-0.2-0.8-0.3-1.2-0.5c-0.7-0.3-1.4-0.7-2-1.1l-0.1,0
							c-0.1-0.1-0.2-0.1-0.3-0.2h-0.1l-0.5-0.5c0.1-0.9,0.1-1.9,0-2.8c0-0.2,0-0.4,0-0.6l0.9-0.6c6-4,12.4-8.4,16.4-14.7
							c6.2,4,12.8,7.2,19.7,9.5l1.1,0.4C-88.1,624.1-88,624.5-88,625z"/>
						<path id="Path_4416-20" class="st6" d="M-109.4,679.4c-1.4,2.5-2.6,5.2-3.8,7.8c-2.6,6-5.2,12.1-8.9,17.5
							c-5.9,8.5-13.8,11.5-23.2,9.5c-7.6-1.5-12.3-7.4-13.4-16.1c-0.7-6.6,0.5-13.3,3.5-19.2c3.6-7.4,8.4-13.9,13.1-20.4
							c4.4-6,9-11.8,13.1-18c0.2-0.3,0.4-0.6,0.6-1c0.3,0.2,0.6,0.4,0.9,0.5c1.7,0.9,3.5,1.7,5.3,2.3c2.1,0.7,4.2,1.2,6.3,1.5
							c1.7,0.9,3.4,1.8,4.2,3.7c0.3,0.9,0.6,1.8,0.8,2.7c0.3,9.1,0.3,18.2,1.3,27.2C-109.6,678.2-109.5,678.8-109.4,679.4z"/>
						<path id="Path_4417-20" class="st0" d="M-86.9,658.1c-1.6,1.4-3.2,2.6-5,3.7c-4,2.6-7.9,5.2-11.3,8.8l-0.2,0.2l-0.1-1.4
							c-0.4-7.1-0.4-14.2-0.7-21.2c0.5-2,1.4-4,2.6-5.7c2.7-1.5,5.2-3.3,7.5-5.3c1.5-1.2,2.9-2.3,4.5-3.3c0.4-0.3,0.8-0.5,1.2-0.8
							l0.5-0.3h0.1l0,0h0.1l0.9-0.4c0.7,3.6,1.4,7.2,2.4,10.7c0.5,1.9,0.8,3.9,1,5.9C-83.1,652.5-84.4,655.9-86.9,658.1z"/>
						<path id="Path_4418-20" class="st7" d="M-159,694.6c1.3,2,3.5,3.4,5.9,3.9c2.3,0.4,4.7,0.4,7,0.2"/>
						<path id="Path_4419-20" class="st8" d="M-122.3,576.7c-0.2,1.7-0.1,3.4,0.4,5"/>
						<path id="Path_4420-20" class="st8" d="M-118.6,575.5l0.2,4c0,0.5,0.1,1,0.2,1.4"/>
						<path id="Path_4421-20" class="st8" d="M-111.6,574.8c0.2,1.3,0.3,2.7,0.3,4"/>
						<path id="Path_4422-20" class="st8" d="M-115.3,575.2l0.2,3.1"/>
						<path id="Path_4423-20" class="st8" d="M-106.9,574.7v3.9"/>
						<path id="Path_4424-20" class="st8" d="M-101.3,574.7c-0.2,1.3-0.5,2.6-0.9,3.9"/>
						<path id="Path_4425-20" class="st8" d="M-96.8,575.7c-0.3,1.4-0.6,2.8-0.9,4.3"/>
					</g>
				</g>
			</g>
		</g>
		<line id="Line_7" class="st9" x1="214" y1="34" x2="270.8" y2="34"/>
		<line id="Line_7-2" class="st10" x1="29.4" y1="34" x2="84" y2="34"/>
		<g id="MEMBERSHIP">
			<text transform="matrix(1 0 0 1 99.92 36.8)" class="st4 st11 st12 st13">MEMBERSHIP</text>
		</g>
	</g>
</g>
</svg>
