<svg xmlns="http://www.w3.org/2000/svg" viewBox="0 0 47.83 14.73"><defs><style>.cls-1{fill:#025586;}.cls-2{fill:#f09182;}</style></defs><g id="圖層_2" data-name="圖層 2"><g id="圖層_1-2" data-name="圖層 1"><g id="visa"><g id="Group_306" data-name="Group 306"><g id="Group_305" data-name="Group 305"><path id="Path_8541" data-name="Path 8541" class="cls-1" d="M19.15.25,16.72,14.51h3.89L23,.25Z"/></g></g><g id="Group_308" data-name="Group 308"><g id="Group_307" data-name="Group 307"><path id="Path_8542" data-name="Path 8542" class="cls-1" d="M13.46.26,9.65,10l-.4-1.47A15.33,15.33,0,0,0,3.86,2.61l3.48,11.9h4.12L17.58.26Z"/></g></g><g id="Group_310" data-name="Group 310"><g id="Group_309" data-name="Group 309"><path id="Path_8543" data-name="Path 8543" class="cls-2" d="M7.77,1.28A1.56,1.56,0,0,0,6.08.12h-6L0,.41C4.69,1.55,7.8,4.29,9.08,7.59Z"/></g></g><g id="Group_312" data-name="Group 312"><g id="Group_311" data-name="Group 311"><path id="Path_8544" data-name="Path 8544" class="cls-1" d="M30.92,3a7.08,7.08,0,0,1,2.91.55l.35.16L34.71.6A10.11,10.11,0,0,0,31.23,0c-3.84,0-6.55,1.94-6.57,4.71,0,2.05,1.93,3.19,3.4,3.87s2,1.15,2,1.77c0,1-1.21,1.4-2.33,1.4A8.26,8.26,0,0,1,24.09,11l-.5-.23L23,14a12.59,12.59,0,0,0,4.34.76c4.08,0,6.74-1.92,6.77-4.88,0-1.62-1-2.86-3.27-3.87-1.36-.66-2.19-1.1-2.18-1.77S29.4,3,30.92,3Z"/></g></g><g id="Group_314" data-name="Group 314"><g id="Group_313" data-name="Group 313"><path id="Path_8545" data-name="Path 8545" class="cls-1" d="M44.69.26h-3a1.93,1.93,0,0,0-2,1.19L33.87,14.52H38s.66-1.76.81-2.14h5c.12.5.48,2.14.48,2.14h3.6Zm-4.8,9.2,1.55-4s.32-.82.52-1.36l.26,1.23.9,4.12Z"/></g></g></g></g></g></svg>